<?xml version="1.0" encoding="utf-8" standalone="no"?>
<!DOCTYPE svg PUBLIC "-//W3C//DTD SVG 1.1//EN"
  "http://www.w3.org/Graphics/SVG/1.1/DTD/svg11.dtd">
<!-- Created with matplotlib (https://matplotlib.org/) -->
<svg height="345.6pt" version="1.1" viewBox="0 0 460.8 345.6" width="460.8pt" xmlns="http://www.w3.org/2000/svg" xmlns:xlink="http://www.w3.org/1999/xlink">
 <defs>
  <style type="text/css">
*{stroke-linecap:butt;stroke-linejoin:round;}
  </style>
 </defs>
 <g id="figure_1">
  <g id="patch_1">
   <path d="M 0 345.6 
L 460.8 345.6 
L 460.8 0 
L 0 0 
z
" style="fill:#ffffff;"/>
  </g>
  <g id="axes_1">
   <g id="patch_2">
    <path d="M 57.6 307.584 
L 414.72 307.584 
L 414.72 41.472 
L 57.6 41.472 
z
" style="fill:#ffffff;"/>
   </g>
   <g id="patch_3">
    <path clip-path="url(#p34b5faa12a)" d="M 127.183554 307.584 
L 129.240294 307.584 
L 129.240294 307.405709 
L 127.183554 307.405709 
z
" style="fill:#fe6f5e;fill-opacity:0.815686;"/>
   </g>
   <g id="patch_4">
    <path clip-path="url(#p34b5faa12a)" d="M 129.240294 307.584 
L 131.297034 307.584 
L 131.297034 307.338851 
L 129.240294 307.338851 
z
" style="fill:#fe6f5e;fill-opacity:0.815686;"/>
   </g>
   <g id="patch_5">
    <path clip-path="url(#p34b5faa12a)" d="M 131.297034 307.584 
L 133.353775 307.584 
L 133.353775 307.249705 
L 131.297034 307.249705 
z
" style="fill:#fe6f5e;fill-opacity:0.815686;"/>
   </g>
   <g id="patch_6">
    <path clip-path="url(#p34b5faa12a)" d="M 133.353775 307.584 
L 135.410515 307.584 
L 135.410515 307.049128 
L 133.353775 307.049128 
z
" style="fill:#fe6f5e;fill-opacity:0.815686;"/>
   </g>
   <g id="patch_7">
    <path clip-path="url(#p34b5faa12a)" d="M 135.410515 307.584 
L 137.467255 307.584 
L 137.467255 306.870838 
L 135.410515 306.870838 
z
" style="fill:#fe6f5e;fill-opacity:0.815686;"/>
   </g>
   <g id="patch_8">
    <path clip-path="url(#p34b5faa12a)" d="M 137.467255 307.584 
L 139.523996 307.584 
L 139.523996 306.803979 
L 137.467255 306.803979 
z
" style="fill:#fe6f5e;fill-opacity:0.815686;"/>
   </g>
   <g id="patch_9">
    <path clip-path="url(#p34b5faa12a)" d="M 139.523996 307.584 
L 141.580736 307.584 
L 141.580736 306.514257 
L 139.523996 306.514257 
z
" style="fill:#fe6f5e;fill-opacity:0.815686;"/>
   </g>
   <g id="patch_10">
    <path clip-path="url(#p34b5faa12a)" d="M 141.580736 307.584 
L 143.637476 307.584 
L 143.637476 306.692547 
L 141.580736 306.692547 
z
" style="fill:#fe6f5e;fill-opacity:0.815686;"/>
   </g>
   <g id="patch_11">
    <path clip-path="url(#p34b5faa12a)" d="M 143.637476 307.584 
L 145.694217 307.584 
L 145.694217 306.803979 
L 143.637476 306.803979 
z
" style="fill:#fe6f5e;fill-opacity:0.815686;"/>
   </g>
   <g id="patch_12">
    <path clip-path="url(#p34b5faa12a)" d="M 145.694217 307.584 
L 147.750957 307.584 
L 147.750957 306.803979 
L 145.694217 306.803979 
z
" style="fill:#fe6f5e;fill-opacity:0.815686;"/>
   </g>
   <g id="patch_13">
    <path clip-path="url(#p34b5faa12a)" d="M 147.750957 307.584 
L 149.807697 307.584 
L 149.807697 306.670261 
L 147.750957 306.670261 
z
" style="fill:#fe6f5e;fill-opacity:0.815686;"/>
   </g>
   <g id="patch_14">
    <path clip-path="url(#p34b5faa12a)" d="M 149.807697 307.584 
L 151.864438 307.584 
L 151.864438 306.893124 
L 149.807697 306.893124 
z
" style="fill:#fe6f5e;fill-opacity:0.815686;"/>
   </g>
   <g id="patch_15">
    <path clip-path="url(#p34b5faa12a)" d="M 151.864438 307.584 
L 153.921178 307.584 
L 153.921178 306.91541 
L 151.864438 306.91541 
z
" style="fill:#fe6f5e;fill-opacity:0.815686;"/>
   </g>
   <g id="patch_16">
    <path clip-path="url(#p34b5faa12a)" d="M 153.921178 307.584 
L 155.977918 307.584 
L 155.977918 306.826265 
L 153.921178 306.826265 
z
" style="fill:#fe6f5e;fill-opacity:0.815686;"/>
   </g>
   <g id="patch_17">
    <path clip-path="url(#p34b5faa12a)" d="M 155.977918 307.584 
L 158.034659 307.584 
L 158.034659 306.848552 
L 155.977918 306.848552 
z
" style="fill:#fe6f5e;fill-opacity:0.815686;"/>
   </g>
   <g id="patch_18">
    <path clip-path="url(#p34b5faa12a)" d="M 158.034659 307.584 
L 160.091399 307.584 
L 160.091399 306.447398 
L 158.034659 306.447398 
z
" style="fill:#fe6f5e;fill-opacity:0.815686;"/>
   </g>
   <g id="patch_19">
    <path clip-path="url(#p34b5faa12a)" d="M 160.091399 307.584 
L 162.148139 307.584 
L 162.148139 306.06853 
L 160.091399 306.06853 
z
" style="fill:#fe6f5e;fill-opacity:0.815686;"/>
   </g>
   <g id="patch_20">
    <path clip-path="url(#p34b5faa12a)" d="M 162.148139 307.584 
L 164.20488 307.584 
L 164.20488 304.887356 
L 162.148139 304.887356 
z
" style="fill:#fe6f5e;fill-opacity:0.815686;"/>
   </g>
   <g id="patch_21">
    <path clip-path="url(#p34b5faa12a)" d="M 164.20488 307.584 
L 166.26162 307.584 
L 166.26162 303.505604 
L 164.20488 303.505604 
z
" style="fill:#fe6f5e;fill-opacity:0.815686;"/>
   </g>
   <g id="patch_22">
    <path clip-path="url(#p34b5faa12a)" d="M 166.26162 307.584 
L 168.31836 307.584 
L 168.31836 301.744985 
L 166.26162 301.744985 
z
" style="fill:#fe6f5e;fill-opacity:0.815686;"/>
   </g>
   <g id="patch_23">
    <path clip-path="url(#p34b5faa12a)" d="M 168.31836 307.584 
L 170.375101 307.584 
L 170.375101 300.274088 
L 168.31836 300.274088 
z
" style="fill:#fe6f5e;fill-opacity:0.815686;"/>
   </g>
   <g id="patch_24">
    <path clip-path="url(#p34b5faa12a)" d="M 170.375101 307.584 
L 172.431841 307.584 
L 172.431841 299.248917 
L 170.375101 299.248917 
z
" style="fill:#fe6f5e;fill-opacity:0.815686;"/>
   </g>
   <g id="patch_25">
    <path clip-path="url(#p34b5faa12a)" d="M 172.431841 307.584 
L 174.488581 307.584 
L 174.488581 298.758618 
L 172.431841 298.758618 
z
" style="fill:#fe6f5e;fill-opacity:0.815686;"/>
   </g>
   <g id="patch_26">
    <path clip-path="url(#p34b5faa12a)" d="M 174.488581 307.584 
L 176.545322 307.584 
L 176.545322 297.755734 
L 174.488581 297.755734 
z
" style="fill:#fe6f5e;fill-opacity:0.815686;"/>
   </g>
   <g id="patch_27">
    <path clip-path="url(#p34b5faa12a)" d="M 176.545322 307.584 
L 178.602062 307.584 
L 178.602062 295.683107 
L 176.545322 295.683107 
z
" style="fill:#fe6f5e;fill-opacity:0.815686;"/>
   </g>
   <g id="patch_28">
    <path clip-path="url(#p34b5faa12a)" d="M 178.602062 307.584 
L 180.658802 307.584 
L 180.658802 297.711161 
L 178.602062 297.711161 
z
" style="fill:#fe6f5e;fill-opacity:0.815686;"/>
   </g>
   <g id="patch_29">
    <path clip-path="url(#p34b5faa12a)" d="M 180.658802 307.584 
L 182.715543 307.584 
L 182.715543 297.733448 
L 180.658802 297.733448 
z
" style="fill:#fe6f5e;fill-opacity:0.815686;"/>
   </g>
   <g id="patch_30">
    <path clip-path="url(#p34b5faa12a)" d="M 182.715543 307.584 
L 184.772283 307.584 
L 184.772283 298.44661 
L 182.715543 298.44661 
z
" style="fill:#fe6f5e;fill-opacity:0.815686;"/>
   </g>
   <g id="patch_31">
    <path clip-path="url(#p34b5faa12a)" d="M 184.772283 307.584 
L 186.829023 307.584 
L 186.829023 300.207229 
L 184.772283 300.207229 
z
" style="fill:#fe6f5e;fill-opacity:0.815686;"/>
   </g>
   <g id="patch_32">
    <path clip-path="url(#p34b5faa12a)" d="M 186.829023 307.584 
L 188.885764 307.584 
L 188.885764 300.318661 
L 186.829023 300.318661 
z
" style="fill:#fe6f5e;fill-opacity:0.815686;"/>
   </g>
   <g id="patch_33">
    <path clip-path="url(#p34b5faa12a)" d="M 188.885764 307.584 
L 190.942504 307.584 
L 190.942504 302.525006 
L 188.885764 302.525006 
z
" style="fill:#fe6f5e;fill-opacity:0.815686;"/>
   </g>
   <g id="patch_34">
    <path clip-path="url(#p34b5faa12a)" d="M 190.942504 307.584 
L 192.999244 307.584 
L 192.999244 304.062762 
L 190.942504 304.062762 
z
" style="fill:#fe6f5e;fill-opacity:0.815686;"/>
   </g>
   <g id="patch_35">
    <path clip-path="url(#p34b5faa12a)" d="M 192.999244 307.584 
L 195.055985 307.584 
L 195.055985 305.021074 
L 192.999244 305.021074 
z
" style="fill:#fe6f5e;fill-opacity:0.815686;"/>
   </g>
   <g id="patch_36">
    <path clip-path="url(#p34b5faa12a)" d="M 195.055985 307.584 
L 197.112725 307.584 
L 197.112725 305.578231 
L 195.055985 305.578231 
z
" style="fill:#fe6f5e;fill-opacity:0.815686;"/>
   </g>
   <g id="patch_37">
    <path clip-path="url(#p34b5faa12a)" d="M 197.112725 307.584 
L 199.169465 307.584 
L 199.169465 306.335966 
L 197.112725 306.335966 
z
" style="fill:#fe6f5e;fill-opacity:0.815686;"/>
   </g>
   <g id="patch_38">
    <path clip-path="url(#p34b5faa12a)" d="M 199.169465 307.584 
L 201.226206 307.584 
L 201.226206 305.934813 
L 199.169465 305.934813 
z
" style="fill:#fe6f5e;fill-opacity:0.815686;"/>
   </g>
   <g id="patch_39">
    <path clip-path="url(#p34b5faa12a)" d="M 201.226206 307.584 
L 203.282946 307.584 
L 203.282946 305.422227 
L 201.226206 305.422227 
z
" style="fill:#fe6f5e;fill-opacity:0.815686;"/>
   </g>
   <g id="patch_40">
    <path clip-path="url(#p34b5faa12a)" d="M 203.282946 307.584 
L 205.339686 307.584 
L 205.339686 303.817612 
L 203.282946 303.817612 
z
" style="fill:#fe6f5e;fill-opacity:0.815686;"/>
   </g>
   <g id="patch_41">
    <path clip-path="url(#p34b5faa12a)" d="M 205.339686 307.584 
L 207.396427 307.584 
L 207.396427 300.56381 
L 205.339686 300.56381 
z
" style="fill:#fe6f5e;fill-opacity:0.815686;"/>
   </g>
   <g id="patch_42">
    <path clip-path="url(#p34b5faa12a)" d="M 207.396427 307.584 
L 209.453167 307.584 
L 209.453167 294.100778 
L 207.396427 294.100778 
z
" style="fill:#fe6f5e;fill-opacity:0.815686;"/>
   </g>
   <g id="patch_43">
    <path clip-path="url(#p34b5faa12a)" d="M 209.453167 307.584 
L 211.509907 307.584 
L 211.509907 284.918815 
L 209.453167 284.918815 
z
" style="fill:#fe6f5e;fill-opacity:0.815686;"/>
   </g>
   <g id="patch_44">
    <path clip-path="url(#p34b5faa12a)" d="M 211.509907 307.584 
L 213.566648 307.584 
L 213.566648 271.480166 
L 211.509907 271.480166 
z
" style="fill:#fe6f5e;fill-opacity:0.815686;"/>
   </g>
   <g id="patch_45">
    <path clip-path="url(#p34b5faa12a)" d="M 213.566648 307.584 
L 215.623388 307.584 
L 215.623388 255.567735 
L 213.566648 255.567735 
z
" style="fill:#fe6f5e;fill-opacity:0.815686;"/>
   </g>
   <g id="patch_46">
    <path clip-path="url(#p34b5faa12a)" d="M 215.623388 307.584 
L 217.680128 307.584 
L 217.680128 233.838576 
L 215.623388 233.838576 
z
" style="fill:#fe6f5e;fill-opacity:0.815686;"/>
   </g>
   <g id="patch_47">
    <path clip-path="url(#p34b5faa12a)" d="M 217.680128 307.584 
L 219.736869 307.584 
L 219.736869 216.81183 
L 217.680128 216.81183 
z
" style="fill:#fe6f5e;fill-opacity:0.815686;"/>
   </g>
   <g id="patch_48">
    <path clip-path="url(#p34b5faa12a)" d="M 219.736869 307.584 
L 221.793609 307.584 
L 221.793609 194.837521 
L 219.736869 194.837521 
z
" style="fill:#fe6f5e;fill-opacity:0.815686;"/>
   </g>
   <g id="patch_49">
    <path clip-path="url(#p34b5faa12a)" d="M 221.793609 307.584 
L 223.850349 307.584 
L 223.850349 184.206948 
L 221.793609 184.206948 
z
" style="fill:#fe6f5e;fill-opacity:0.815686;"/>
   </g>
   <g id="patch_50">
    <path clip-path="url(#p34b5faa12a)" d="M 223.850349 307.584 
L 225.90709 307.584 
L 225.90709 172.105477 
L 223.850349 172.105477 
z
" style="fill:#fe6f5e;fill-opacity:0.815686;"/>
   </g>
   <g id="patch_51">
    <path clip-path="url(#p34b5faa12a)" d="M 225.90709 307.584 
L 227.96383 307.584 
L 227.96383 161.831485 
L 225.90709 161.831485 
z
" style="fill:#fe6f5e;fill-opacity:0.815686;"/>
   </g>
   <g id="patch_52">
    <path clip-path="url(#p34b5faa12a)" d="M 227.96383 307.584 
L 230.02057 307.584 
L 230.02057 154.142706 
L 227.96383 154.142706 
z
" style="fill:#fe6f5e;fill-opacity:0.815686;"/>
   </g>
   <g id="patch_53">
    <path clip-path="url(#p34b5faa12a)" d="M 230.02057 307.584 
L 232.077311 307.584 
L 232.077311 148.30369 
L 230.02057 148.30369 
z
" style="fill:#fe6f5e;fill-opacity:0.815686;"/>
   </g>
   <g id="patch_54">
    <path clip-path="url(#p34b5faa12a)" d="M 232.077311 307.584 
L 234.134051 307.584 
L 234.134051 153.072962 
L 232.077311 153.072962 
z
" style="fill:#fe6f5e;fill-opacity:0.815686;"/>
   </g>
   <g id="patch_55">
    <path clip-path="url(#p34b5faa12a)" d="M 234.134051 307.584 
L 236.190791 307.584 
L 236.190791 163.502959 
L 234.134051 163.502959 
z
" style="fill:#fe6f5e;fill-opacity:0.815686;"/>
   </g>
   <g id="patch_56">
    <path clip-path="url(#p34b5faa12a)" d="M 236.190791 307.584 
L 238.247532 307.584 
L 238.247532 179.482248 
L 236.190791 179.482248 
z
" style="fill:#fe6f5e;fill-opacity:0.815686;"/>
   </g>
   <g id="patch_57">
    <path clip-path="url(#p34b5faa12a)" d="M 238.247532 307.584 
L 240.304272 307.584 
L 240.304272 203.239463 
L 238.247532 203.239463 
z
" style="fill:#fe6f5e;fill-opacity:0.815686;"/>
   </g>
   <g id="patch_58">
    <path clip-path="url(#p34b5faa12a)" d="M 240.304272 307.584 
L 242.361012 307.584 
L 242.361012 225.94922 
L 240.304272 225.94922 
z
" style="fill:#fe6f5e;fill-opacity:0.815686;"/>
   </g>
   <g id="patch_59">
    <path clip-path="url(#p34b5faa12a)" d="M 242.361012 307.584 
L 244.417753 307.584 
L 244.417753 249.751007 
L 242.361012 249.751007 
z
" style="fill:#fe6f5e;fill-opacity:0.815686;"/>
   </g>
   <g id="patch_60">
    <path clip-path="url(#p34b5faa12a)" d="M 244.417753 307.584 
L 246.474493 307.584 
L 246.474493 265.70801 
L 244.417753 265.70801 
z
" style="fill:#fe6f5e;fill-opacity:0.815686;"/>
   </g>
   <g id="patch_61">
    <path clip-path="url(#p34b5faa12a)" d="M 246.474493 307.584 
L 248.531233 307.584 
L 248.531233 280.639842 
L 246.474493 280.639842 
z
" style="fill:#fe6f5e;fill-opacity:0.815686;"/>
   </g>
   <g id="patch_62">
    <path clip-path="url(#p34b5faa12a)" d="M 248.531233 307.584 
L 250.587974 307.584 
L 250.587974 291.404134 
L 248.531233 291.404134 
z
" style="fill:#fe6f5e;fill-opacity:0.815686;"/>
   </g>
   <g id="patch_63">
    <path clip-path="url(#p34b5faa12a)" d="M 250.587974 307.584 
L 252.644714 307.584 
L 252.644714 297.978597 
L 250.587974 297.978597 
z
" style="fill:#fe6f5e;fill-opacity:0.815686;"/>
   </g>
   <g id="patch_64">
    <path clip-path="url(#p34b5faa12a)" d="M 252.644714 307.584 
L 254.701454 307.584 
L 254.701454 301.611267 
L 252.644714 301.611267 
z
" style="fill:#fe6f5e;fill-opacity:0.815686;"/>
   </g>
   <g id="patch_65">
    <path clip-path="url(#p34b5faa12a)" d="M 254.701454 307.584 
L 256.758195 307.584 
L 256.758195 303.906758 
L 254.701454 303.906758 
z
" style="fill:#fe6f5e;fill-opacity:0.815686;"/>
   </g>
   <g id="patch_66">
    <path clip-path="url(#p34b5faa12a)" d="M 256.758195 307.584 
L 258.814935 307.584 
L 258.814935 305.377655 
L 256.758195 305.377655 
z
" style="fill:#fe6f5e;fill-opacity:0.815686;"/>
   </g>
   <g id="patch_67">
    <path clip-path="url(#p34b5faa12a)" d="M 258.814935 307.584 
L 260.871675 307.584 
L 260.871675 305.867954 
L 258.814935 305.867954 
z
" style="fill:#fe6f5e;fill-opacity:0.815686;"/>
   </g>
   <g id="patch_68">
    <path clip-path="url(#p34b5faa12a)" d="M 260.871675 307.584 
L 262.928416 307.584 
L 262.928416 306.202248 
L 260.871675 306.202248 
z
" style="fill:#fe6f5e;fill-opacity:0.815686;"/>
   </g>
   <g id="patch_69">
    <path clip-path="url(#p34b5faa12a)" d="M 262.928416 307.584 
L 264.985156 307.584 
L 264.985156 306.31368 
L 262.928416 306.31368 
z
" style="fill:#fe6f5e;fill-opacity:0.815686;"/>
   </g>
   <g id="patch_70">
    <path clip-path="url(#p34b5faa12a)" d="M 264.985156 307.584 
L 267.041896 307.584 
L 267.041896 306.536543 
L 264.985156 306.536543 
z
" style="fill:#fe6f5e;fill-opacity:0.815686;"/>
   </g>
   <g id="patch_71">
    <path clip-path="url(#p34b5faa12a)" d="M 267.041896 307.584 
L 269.098637 307.584 
L 269.098637 306.49197 
L 267.041896 306.49197 
z
" style="fill:#fe6f5e;fill-opacity:0.815686;"/>
   </g>
   <g id="patch_72">
    <path clip-path="url(#p34b5faa12a)" d="M 269.098637 307.584 
L 271.155377 307.584 
L 271.155377 306.469684 
L 269.098637 306.469684 
z
" style="fill:#fe6f5e;fill-opacity:0.815686;"/>
   </g>
   <g id="patch_73">
    <path clip-path="url(#p34b5faa12a)" d="M 271.155377 307.584 
L 273.212117 307.584 
L 273.212117 306.536543 
L 271.155377 306.536543 
z
" style="fill:#fe6f5e;fill-opacity:0.815686;"/>
   </g>
   <g id="patch_74">
    <path clip-path="url(#p34b5faa12a)" d="M 273.212117 307.584 
L 275.268858 307.584 
L 275.268858 306.73712 
L 273.212117 306.73712 
z
" style="fill:#fe6f5e;fill-opacity:0.815686;"/>
   </g>
   <g id="patch_75">
    <path clip-path="url(#p34b5faa12a)" d="M 275.268858 307.584 
L 277.325598 307.584 
L 277.325598 306.269107 
L 275.268858 306.269107 
z
" style="fill:#fe6f5e;fill-opacity:0.815686;"/>
   </g>
   <g id="patch_76">
    <path clip-path="url(#p34b5faa12a)" d="M 277.325598 307.584 
L 279.382338 307.584 
L 279.382338 306.581116 
L 277.325598 306.581116 
z
" style="fill:#fe6f5e;fill-opacity:0.815686;"/>
   </g>
   <g id="patch_77">
    <path clip-path="url(#p34b5faa12a)" d="M 279.382338 307.584 
L 281.439079 307.584 
L 281.439079 306.469684 
L 279.382338 306.469684 
z
" style="fill:#fe6f5e;fill-opacity:0.815686;"/>
   </g>
   <g id="patch_78">
    <path clip-path="url(#p34b5faa12a)" d="M 281.439079 307.584 
L 283.495819 307.584 
L 283.495819 306.558829 
L 281.439079 306.558829 
z
" style="fill:#fe6f5e;fill-opacity:0.815686;"/>
   </g>
   <g id="patch_79">
    <path clip-path="url(#p34b5faa12a)" d="M 283.495819 307.584 
L 285.552559 307.584 
L 285.552559 306.781693 
L 283.495819 306.781693 
z
" style="fill:#fe6f5e;fill-opacity:0.815686;"/>
   </g>
   <g id="patch_80">
    <path clip-path="url(#p34b5faa12a)" d="M 285.552559 307.584 
L 287.6093 307.584 
L 287.6093 306.603402 
L 285.552559 306.603402 
z
" style="fill:#fe6f5e;fill-opacity:0.815686;"/>
   </g>
   <g id="patch_81">
    <path clip-path="url(#p34b5faa12a)" d="M 287.6093 307.584 
L 289.66604 307.584 
L 289.66604 306.647975 
L 287.6093 306.647975 
z
" style="fill:#fe6f5e;fill-opacity:0.815686;"/>
   </g>
   <g id="patch_82">
    <path clip-path="url(#p34b5faa12a)" d="M 289.66604 307.584 
L 291.72278 307.584 
L 291.72278 306.714834 
L 289.66604 306.714834 
z
" style="fill:#fe6f5e;fill-opacity:0.815686;"/>
   </g>
   <g id="patch_83">
    <path clip-path="url(#p34b5faa12a)" d="M 291.72278 307.584 
L 293.779521 307.584 
L 293.779521 306.714834 
L 291.72278 306.714834 
z
" style="fill:#fe6f5e;fill-opacity:0.815686;"/>
   </g>
   <g id="patch_84">
    <path clip-path="url(#p34b5faa12a)" d="M 293.779521 307.584 
L 295.836261 307.584 
L 295.836261 306.781693 
L 293.779521 306.781693 
z
" style="fill:#fe6f5e;fill-opacity:0.815686;"/>
   </g>
   <g id="patch_85">
    <path clip-path="url(#p34b5faa12a)" d="M 295.836261 307.584 
L 297.893001 307.584 
L 297.893001 306.714834 
L 295.836261 306.714834 
z
" style="fill:#fe6f5e;fill-opacity:0.815686;"/>
   </g>
   <g id="patch_86">
    <path clip-path="url(#p34b5faa12a)" d="M 297.893001 307.584 
L 299.949742 307.584 
L 299.949742 306.759406 
L 297.893001 306.759406 
z
" style="fill:#fe6f5e;fill-opacity:0.815686;"/>
   </g>
   <g id="patch_87">
    <path clip-path="url(#p34b5faa12a)" d="M 299.949742 307.584 
L 302.006482 307.584 
L 302.006482 306.581116 
L 299.949742 306.581116 
z
" style="fill:#fe6f5e;fill-opacity:0.815686;"/>
   </g>
   <g id="patch_88">
    <path clip-path="url(#p34b5faa12a)" d="M 302.006482 307.584 
L 304.063223 307.584 
L 304.063223 306.202248 
L 302.006482 306.202248 
z
" style="fill:#fe6f5e;fill-opacity:0.815686;"/>
   </g>
   <g id="patch_89">
    <path clip-path="url(#p34b5faa12a)" d="M 304.063223 307.584 
L 306.119963 307.584 
L 306.119963 305.89024 
L 304.063223 305.89024 
z
" style="fill:#fe6f5e;fill-opacity:0.815686;"/>
   </g>
   <g id="patch_90">
    <path clip-path="url(#p34b5faa12a)" d="M 306.119963 307.584 
L 308.176703 307.584 
L 308.176703 305.199364 
L 306.119963 305.199364 
z
" style="fill:#fe6f5e;fill-opacity:0.815686;"/>
   </g>
   <g id="patch_91">
    <path clip-path="url(#p34b5faa12a)" d="M 308.176703 307.584 
L 310.233444 307.584 
L 310.233444 304.976501 
L 308.176703 304.976501 
z
" style="fill:#fe6f5e;fill-opacity:0.815686;"/>
   </g>
   <g id="patch_92">
    <path clip-path="url(#p34b5faa12a)" d="M 310.233444 307.584 
L 312.290184 307.584 
L 312.290184 304.642206 
L 310.233444 304.642206 
z
" style="fill:#fe6f5e;fill-opacity:0.815686;"/>
   </g>
   <g id="patch_93">
    <path clip-path="url(#p34b5faa12a)" d="M 312.290184 307.584 
L 314.346924 307.584 
L 314.346924 304.575347 
L 312.290184 304.575347 
z
" style="fill:#fe6f5e;fill-opacity:0.815686;"/>
   </g>
   <g id="patch_94">
    <path clip-path="url(#p34b5faa12a)" d="M 314.346924 307.584 
L 316.403665 307.584 
L 316.403665 303.795326 
L 314.346924 303.795326 
z
" style="fill:#fe6f5e;fill-opacity:0.815686;"/>
   </g>
   <g id="patch_95">
    <path clip-path="url(#p34b5faa12a)" d="M 316.403665 307.584 
L 318.460405 307.584 
L 318.460405 303.95133 
L 316.403665 303.95133 
z
" style="fill:#fe6f5e;fill-opacity:0.815686;"/>
   </g>
   <g id="patch_96">
    <path clip-path="url(#p34b5faa12a)" d="M 318.460405 307.584 
L 320.517145 307.584 
L 320.517145 303.215882 
L 318.460405 303.215882 
z
" style="fill:#fe6f5e;fill-opacity:0.815686;"/>
   </g>
   <g id="patch_97">
    <path clip-path="url(#p34b5faa12a)" d="M 320.517145 307.584 
L 322.573886 307.584 
L 322.573886 302.703297 
L 320.517145 302.703297 
z
" style="fill:#fe6f5e;fill-opacity:0.815686;"/>
   </g>
   <g id="patch_98">
    <path clip-path="url(#p34b5faa12a)" d="M 322.573886 307.584 
L 324.630626 307.584 
L 324.630626 302.235284 
L 322.573886 302.235284 
z
" style="fill:#fe6f5e;fill-opacity:0.815686;"/>
   </g>
   <g id="patch_99">
    <path clip-path="url(#p34b5faa12a)" d="M 324.630626 307.584 
L 326.687366 307.584 
L 326.687366 301.83413 
L 324.630626 301.83413 
z
" style="fill:#fe6f5e;fill-opacity:0.815686;"/>
   </g>
   <g id="patch_100">
    <path clip-path="url(#p34b5faa12a)" d="M 326.687366 307.584 
L 328.744107 307.584 
L 328.744107 301.276972 
L 326.687366 301.276972 
z
" style="fill:#fe6f5e;fill-opacity:0.815686;"/>
   </g>
   <g id="patch_101">
    <path clip-path="url(#p34b5faa12a)" d="M 328.744107 307.584 
L 330.800847 307.584 
L 330.800847 301.744985 
L 328.744107 301.744985 
z
" style="fill:#fe6f5e;fill-opacity:0.815686;"/>
   </g>
   <g id="patch_102">
    <path clip-path="url(#p34b5faa12a)" d="M 330.800847 307.584 
L 332.857587 307.584 
L 332.857587 301.722699 
L 330.800847 301.722699 
z
" style="fill:#fe6f5e;fill-opacity:0.815686;"/>
   </g>
   <g id="patch_103">
    <path clip-path="url(#p34b5faa12a)" d="M 132.386673 307.584 
L 134.347017 307.584 
L 134.347017 307.294278 
L 132.386673 307.294278 
z
" style="fill:#5e9dfe;fill-opacity:0.815686;"/>
   </g>
   <g id="patch_104">
    <path clip-path="url(#p34b5faa12a)" d="M 134.347017 307.584 
L 136.307362 307.584 
L 136.307362 307.205133 
L 134.347017 307.205133 
z
" style="fill:#5e9dfe;fill-opacity:0.815686;"/>
   </g>
   <g id="patch_105">
    <path clip-path="url(#p34b5faa12a)" d="M 136.307362 307.584 
L 138.267706 307.584 
L 138.267706 306.692547 
L 136.307362 306.692547 
z
" style="fill:#5e9dfe;fill-opacity:0.815686;"/>
   </g>
   <g id="patch_106">
    <path clip-path="url(#p34b5faa12a)" d="M 138.267706 307.584 
L 140.228051 307.584 
L 140.228051 305.912526 
L 138.267706 305.912526 
z
" style="fill:#5e9dfe;fill-opacity:0.815686;"/>
   </g>
   <g id="patch_107">
    <path clip-path="url(#p34b5faa12a)" d="M 140.228051 307.584 
L 142.188395 307.584 
L 142.188395 304.998787 
L 140.228051 304.998787 
z
" style="fill:#5e9dfe;fill-opacity:0.815686;"/>
   </g>
   <g id="patch_108">
    <path clip-path="url(#p34b5faa12a)" d="M 142.188395 307.584 
L 144.148739 307.584 
L 144.148739 305.110219 
L 142.188395 305.110219 
z
" style="fill:#5e9dfe;fill-opacity:0.815686;"/>
   </g>
   <g id="patch_109">
    <path clip-path="url(#p34b5faa12a)" d="M 144.148739 307.584 
L 146.109084 307.584 
L 146.109084 305.4668 
L 144.148739 305.4668 
z
" style="fill:#5e9dfe;fill-opacity:0.815686;"/>
   </g>
   <g id="patch_110">
    <path clip-path="url(#p34b5faa12a)" d="M 146.109084 307.584 
L 148.069428 307.584 
L 148.069428 305.979385 
L 146.109084 305.979385 
z
" style="fill:#5e9dfe;fill-opacity:0.815686;"/>
   </g>
   <g id="patch_111">
    <path clip-path="url(#p34b5faa12a)" d="M 148.069428 307.584 
L 150.029772 307.584 
L 150.029772 306.269107 
L 148.069428 306.269107 
z
" style="fill:#5e9dfe;fill-opacity:0.815686;"/>
   </g>
   <g id="patch_112">
    <path clip-path="url(#p34b5faa12a)" d="M 150.029772 307.584 
L 151.990117 307.584 
L 151.990117 307.138274 
L 150.029772 307.138274 
z
" style="fill:#5e9dfe;fill-opacity:0.815686;"/>
   </g>
   <g id="patch_113">
    <path clip-path="url(#p34b5faa12a)" d="M 151.990117 307.584 
L 153.950461 307.584 
L 153.950461 306.959983 
L 151.990117 306.959983 
z
" style="fill:#5e9dfe;fill-opacity:0.815686;"/>
   </g>
   <g id="patch_114">
    <path clip-path="url(#p34b5faa12a)" d="M 153.950461 307.584 
L 155.910806 307.584 
L 155.910806 307.271992 
L 153.950461 307.271992 
z
" style="fill:#5e9dfe;fill-opacity:0.815686;"/>
   </g>
   <g id="patch_115">
    <path clip-path="url(#p34b5faa12a)" d="M 155.910806 307.584 
L 157.87115 307.584 
L 157.87115 307.16056 
L 155.910806 307.16056 
z
" style="fill:#5e9dfe;fill-opacity:0.815686;"/>
   </g>
   <g id="patch_116">
    <path clip-path="url(#p34b5faa12a)" d="M 157.87115 307.584 
L 159.831494 307.584 
L 159.831494 306.603402 
L 157.87115 306.603402 
z
" style="fill:#5e9dfe;fill-opacity:0.815686;"/>
   </g>
   <g id="patch_117">
    <path clip-path="url(#p34b5faa12a)" d="M 159.831494 307.584 
L 161.791839 307.584 
L 161.791839 306.335966 
L 159.831494 306.335966 
z
" style="fill:#5e9dfe;fill-opacity:0.815686;"/>
   </g>
   <g id="patch_118">
    <path clip-path="url(#p34b5faa12a)" d="M 161.791839 307.584 
L 163.752183 307.584 
L 163.752183 304.865069 
L 161.791839 304.865069 
z
" style="fill:#5e9dfe;fill-opacity:0.815686;"/>
   </g>
   <g id="patch_119">
    <path clip-path="url(#p34b5faa12a)" d="M 163.752183 307.584 
L 165.712527 307.584 
L 165.712527 304.151907 
L 163.752183 304.151907 
z
" style="fill:#5e9dfe;fill-opacity:0.815686;"/>
   </g>
   <g id="patch_120">
    <path clip-path="url(#p34b5faa12a)" d="M 165.712527 307.584 
L 167.672872 307.584 
L 167.672872 302.190711 
L 165.712527 302.190711 
z
" style="fill:#5e9dfe;fill-opacity:0.815686;"/>
   </g>
   <g id="patch_121">
    <path clip-path="url(#p34b5faa12a)" d="M 167.672872 307.584 
L 169.633216 307.584 
L 169.633216 299.761503 
L 167.672872 299.761503 
z
" style="fill:#5e9dfe;fill-opacity:0.815686;"/>
   </g>
   <g id="patch_122">
    <path clip-path="url(#p34b5faa12a)" d="M 169.633216 307.584 
L 171.593561 307.584 
L 171.593561 298.268319 
L 169.633216 298.268319 
z
" style="fill:#5e9dfe;fill-opacity:0.815686;"/>
   </g>
   <g id="patch_123">
    <path clip-path="url(#p34b5faa12a)" d="M 171.593561 307.584 
L 173.553905 307.584 
L 173.553905 296.396269 
L 171.593561 296.396269 
z
" style="fill:#5e9dfe;fill-opacity:0.815686;"/>
   </g>
   <g id="patch_124">
    <path clip-path="url(#p34b5faa12a)" d="M 173.553905 307.584 
L 175.514249 307.584 
L 175.514249 295.326526 
L 173.553905 295.326526 
z
" style="fill:#5e9dfe;fill-opacity:0.815686;"/>
   </g>
   <g id="patch_125">
    <path clip-path="url(#p34b5faa12a)" d="M 175.514249 307.584 
L 177.474594 307.584 
L 177.474594 295.170521 
L 175.514249 295.170521 
z
" style="fill:#5e9dfe;fill-opacity:0.815686;"/>
   </g>
   <g id="patch_126">
    <path clip-path="url(#p34b5faa12a)" d="M 177.474594 307.584 
L 179.434938 307.584 
L 179.434938 293.588193 
L 177.474594 293.588193 
z
" style="fill:#5e9dfe;fill-opacity:0.815686;"/>
   </g>
   <g id="patch_127">
    <path clip-path="url(#p34b5faa12a)" d="M 179.434938 307.584 
L 181.395283 307.584 
L 181.395283 295.972829 
L 179.434938 295.972829 
z
" style="fill:#5e9dfe;fill-opacity:0.815686;"/>
   </g>
   <g id="patch_128">
    <path clip-path="url(#p34b5faa12a)" d="M 181.395283 307.584 
L 183.355627 307.584 
L 183.355627 295.504816 
L 181.395283 295.504816 
z
" style="fill:#5e9dfe;fill-opacity:0.815686;"/>
   </g>
   <g id="patch_129">
    <path clip-path="url(#p34b5faa12a)" d="M 183.355627 307.584 
L 185.315971 307.584 
L 185.315971 297.822593 
L 183.355627 297.822593 
z
" style="fill:#5e9dfe;fill-opacity:0.815686;"/>
   </g>
   <g id="patch_130">
    <path clip-path="url(#p34b5faa12a)" d="M 185.315971 307.584 
L 187.276316 307.584 
L 187.276316 299.449494 
L 185.315971 299.449494 
z
" style="fill:#5e9dfe;fill-opacity:0.815686;"/>
   </g>
   <g id="patch_131">
    <path clip-path="url(#p34b5faa12a)" d="M 187.276316 307.584 
L 189.23666 307.584 
L 189.23666 301.031823 
L 187.276316 301.031823 
z
" style="fill:#5e9dfe;fill-opacity:0.815686;"/>
   </g>
   <g id="patch_132">
    <path clip-path="url(#p34b5faa12a)" d="M 189.23666 307.584 
L 191.197004 307.584 
L 191.197004 302.413574 
L 189.23666 302.413574 
z
" style="fill:#5e9dfe;fill-opacity:0.815686;"/>
   </g>
   <g id="patch_133">
    <path clip-path="url(#p34b5faa12a)" d="M 191.197004 307.584 
L 193.157349 307.584 
L 193.157349 303.082164 
L 191.197004 303.082164 
z
" style="fill:#5e9dfe;fill-opacity:0.815686;"/>
   </g>
   <g id="patch_134">
    <path clip-path="url(#p34b5faa12a)" d="M 193.157349 307.584 
L 195.117693 307.584 
L 195.117693 304.61992 
L 193.157349 304.61992 
z
" style="fill:#5e9dfe;fill-opacity:0.815686;"/>
   </g>
   <g id="patch_135">
    <path clip-path="url(#p34b5faa12a)" d="M 195.117693 307.584 
L 197.078038 307.584 
L 197.078038 305.177078 
L 195.117693 305.177078 
z
" style="fill:#5e9dfe;fill-opacity:0.815686;"/>
   </g>
   <g id="patch_136">
    <path clip-path="url(#p34b5faa12a)" d="M 197.078038 307.584 
L 199.038382 307.584 
L 199.038382 305.199364 
L 197.078038 305.199364 
z
" style="fill:#5e9dfe;fill-opacity:0.815686;"/>
   </g>
   <g id="patch_137">
    <path clip-path="url(#p34b5faa12a)" d="M 199.038382 307.584 
L 200.998726 307.584 
L 200.998726 305.823381 
L 199.038382 305.823381 
z
" style="fill:#5e9dfe;fill-opacity:0.815686;"/>
   </g>
   <g id="patch_138">
    <path clip-path="url(#p34b5faa12a)" d="M 200.998726 307.584 
L 202.959071 307.584 
L 202.959071 305.823381 
L 200.998726 305.823381 
z
" style="fill:#5e9dfe;fill-opacity:0.815686;"/>
   </g>
   <g id="patch_139">
    <path clip-path="url(#p34b5faa12a)" d="M 202.959071 307.584 
L 204.919415 307.584 
L 204.919415 305.132505 
L 202.959071 305.132505 
z
" style="fill:#5e9dfe;fill-opacity:0.815686;"/>
   </g>
   <g id="patch_140">
    <path clip-path="url(#p34b5faa12a)" d="M 204.919415 307.584 
L 206.879759 307.584 
L 206.879759 303.394172 
L 204.919415 303.394172 
z
" style="fill:#5e9dfe;fill-opacity:0.815686;"/>
   </g>
   <g id="patch_141">
    <path clip-path="url(#p34b5faa12a)" d="M 206.879759 307.584 
L 208.840104 307.584 
L 208.840104 301.41069 
L 206.879759 301.41069 
z
" style="fill:#5e9dfe;fill-opacity:0.815686;"/>
   </g>
   <g id="patch_142">
    <path clip-path="url(#p34b5faa12a)" d="M 208.840104 307.584 
L 210.800448 307.584 
L 210.800448 297.310008 
L 208.840104 297.310008 
z
" style="fill:#5e9dfe;fill-opacity:0.815686;"/>
   </g>
   <g id="patch_143">
    <path clip-path="url(#p34b5faa12a)" d="M 210.800448 307.584 
L 212.760793 307.584 
L 212.760793 290.312104 
L 210.800448 290.312104 
z
" style="fill:#5e9dfe;fill-opacity:0.815686;"/>
   </g>
   <g id="patch_144">
    <path clip-path="url(#p34b5faa12a)" d="M 212.760793 307.584 
L 214.721137 307.584 
L 214.721137 277.831766 
L 212.760793 277.831766 
z
" style="fill:#5e9dfe;fill-opacity:0.815686;"/>
   </g>
   <g id="patch_145">
    <path clip-path="url(#p34b5faa12a)" d="M 214.721137 307.584 
L 216.681481 307.584 
L 216.681481 264.994848 
L 214.721137 264.994848 
z
" style="fill:#5e9dfe;fill-opacity:0.815686;"/>
   </g>
   <g id="patch_146">
    <path clip-path="url(#p34b5faa12a)" d="M 216.681481 307.584 
L 218.641826 307.584 
L 218.641826 245.672611 
L 216.681481 245.672611 
z
" style="fill:#5e9dfe;fill-opacity:0.815686;"/>
   </g>
   <g id="patch_147">
    <path clip-path="url(#p34b5faa12a)" d="M 218.641826 307.584 
L 220.60217 307.584 
L 220.60217 225.837788 
L 218.641826 225.837788 
z
" style="fill:#5e9dfe;fill-opacity:0.815686;"/>
   </g>
   <g id="patch_148">
    <path clip-path="url(#p34b5faa12a)" d="M 220.60217 307.584 
L 222.562514 307.584 
L 222.562514 203.729762 
L 220.60217 203.729762 
z
" style="fill:#5e9dfe;fill-opacity:0.815686;"/>
   </g>
   <g id="patch_149">
    <path clip-path="url(#p34b5faa12a)" d="M 222.562514 307.584 
L 224.522859 307.584 
L 224.522859 189.087651 
L 222.562514 189.087651 
z
" style="fill:#5e9dfe;fill-opacity:0.815686;"/>
   </g>
   <g id="patch_150">
    <path clip-path="url(#p34b5faa12a)" d="M 224.522859 307.584 
L 226.483203 307.584 
L 226.483203 172.885498 
L 224.522859 172.885498 
z
" style="fill:#5e9dfe;fill-opacity:0.815686;"/>
   </g>
   <g id="patch_151">
    <path clip-path="url(#p34b5faa12a)" d="M 226.483203 307.584 
L 228.443548 307.584 
L 228.443548 152.850099 
L 226.483203 152.850099 
z
" style="fill:#5e9dfe;fill-opacity:0.815686;"/>
   </g>
   <g id="patch_152">
    <path clip-path="url(#p34b5faa12a)" d="M 228.443548 307.584 
L 230.403892 307.584 
L 230.403892 146.788221 
L 228.443548 146.788221 
z
" style="fill:#5e9dfe;fill-opacity:0.815686;"/>
   </g>
   <g id="patch_153">
    <path clip-path="url(#p34b5faa12a)" d="M 230.403892 307.584 
L 232.364236 307.584 
L 232.364236 141.974376 
L 230.403892 141.974376 
z
" style="fill:#5e9dfe;fill-opacity:0.815686;"/>
   </g>
   <g id="patch_154">
    <path clip-path="url(#p34b5faa12a)" d="M 232.364236 307.584 
L 234.324581 307.584 
L 234.324581 147.857964 
L 232.364236 147.857964 
z
" style="fill:#5e9dfe;fill-opacity:0.815686;"/>
   </g>
   <g id="patch_155">
    <path clip-path="url(#p34b5faa12a)" d="M 234.324581 307.584 
L 236.284925 307.584 
L 236.284925 156.527342 
L 234.324581 156.527342 
z
" style="fill:#5e9dfe;fill-opacity:0.815686;"/>
   </g>
   <g id="patch_156">
    <path clip-path="url(#p34b5faa12a)" d="M 236.284925 307.584 
L 238.24527 307.584 
L 238.24527 176.183873 
L 236.284925 176.183873 
z
" style="fill:#5e9dfe;fill-opacity:0.815686;"/>
   </g>
   <g id="patch_157">
    <path clip-path="url(#p34b5faa12a)" d="M 238.24527 307.584 
L 240.205614 307.584 
L 240.205614 204.910936 
L 238.24527 204.910936 
z
" style="fill:#5e9dfe;fill-opacity:0.815686;"/>
   </g>
   <g id="patch_158">
    <path clip-path="url(#p34b5faa12a)" d="M 240.205614 307.584 
L 242.165958 307.584 
L 242.165958 228.044134 
L 240.205614 228.044134 
z
" style="fill:#5e9dfe;fill-opacity:0.815686;"/>
   </g>
   <g id="patch_159">
    <path clip-path="url(#p34b5faa12a)" d="M 242.165958 307.584 
L 244.126303 307.584 
L 244.126303 250.352737 
L 242.165958 250.352737 
z
" style="fill:#5e9dfe;fill-opacity:0.815686;"/>
   </g>
   <g id="patch_160">
    <path clip-path="url(#p34b5faa12a)" d="M 244.126303 307.584 
L 246.086647 307.584 
L 246.086647 268.404654 
L 244.126303 268.404654 
z
" style="fill:#5e9dfe;fill-opacity:0.815686;"/>
   </g>
   <g id="patch_161">
    <path clip-path="url(#p34b5faa12a)" d="M 246.086647 307.584 
L 248.046991 307.584 
L 248.046991 283.024478 
L 246.086647 283.024478 
z
" style="fill:#5e9dfe;fill-opacity:0.815686;"/>
   </g>
   <g id="patch_162">
    <path clip-path="url(#p34b5faa12a)" d="M 248.046991 307.584 
L 250.007336 307.584 
L 250.007336 292.340159 
L 248.046991 292.340159 
z
" style="fill:#5e9dfe;fill-opacity:0.815686;"/>
   </g>
   <g id="patch_163">
    <path clip-path="url(#p34b5faa12a)" d="M 250.007336 307.584 
L 251.96768 307.584 
L 251.96768 298.736332 
L 250.007336 298.736332 
z
" style="fill:#5e9dfe;fill-opacity:0.815686;"/>
   </g>
   <g id="patch_164">
    <path clip-path="url(#p34b5faa12a)" d="M 251.96768 307.584 
L 253.928025 307.584 
L 253.928025 301.522122 
L 251.96768 301.522122 
z
" style="fill:#5e9dfe;fill-opacity:0.815686;"/>
   </g>
   <g id="patch_165">
    <path clip-path="url(#p34b5faa12a)" d="M 253.928025 307.584 
L 255.888369 307.584 
L 255.888369 304.37477 
L 253.928025 304.37477 
z
" style="fill:#5e9dfe;fill-opacity:0.815686;"/>
   </g>
   <g id="patch_166">
    <path clip-path="url(#p34b5faa12a)" d="M 255.888369 307.584 
L 257.848713 307.584 
L 257.848713 305.22165 
L 255.888369 305.22165 
z
" style="fill:#5e9dfe;fill-opacity:0.815686;"/>
   </g>
   <g id="patch_167">
    <path clip-path="url(#p34b5faa12a)" d="M 257.848713 307.584 
L 259.809058 307.584 
L 259.809058 306.157676 
L 257.848713 306.157676 
z
" style="fill:#5e9dfe;fill-opacity:0.815686;"/>
   </g>
   <g id="patch_168">
    <path clip-path="url(#p34b5faa12a)" d="M 259.809058 307.584 
L 261.769402 307.584 
L 261.769402 306.335966 
L 259.809058 306.335966 
z
" style="fill:#5e9dfe;fill-opacity:0.815686;"/>
   </g>
   <g id="patch_169">
    <path clip-path="url(#p34b5faa12a)" d="M 261.769402 307.584 
L 263.729746 307.584 
L 263.729746 306.202248 
L 261.769402 306.202248 
z
" style="fill:#5e9dfe;fill-opacity:0.815686;"/>
   </g>
   <g id="patch_170">
    <path clip-path="url(#p34b5faa12a)" d="M 263.729746 307.584 
L 265.690091 307.584 
L 265.690091 306.670261 
L 263.729746 306.670261 
z
" style="fill:#5e9dfe;fill-opacity:0.815686;"/>
   </g>
   <g id="patch_171">
    <path clip-path="url(#p34b5faa12a)" d="M 265.690091 307.584 
L 267.650435 307.584 
L 267.650435 306.714834 
L 265.690091 306.714834 
z
" style="fill:#5e9dfe;fill-opacity:0.815686;"/>
   </g>
   <g id="patch_172">
    <path clip-path="url(#p34b5faa12a)" d="M 267.650435 307.584 
L 269.61078 307.584 
L 269.61078 306.803979 
L 267.650435 306.803979 
z
" style="fill:#5e9dfe;fill-opacity:0.815686;"/>
   </g>
   <g id="patch_173">
    <path clip-path="url(#p34b5faa12a)" d="M 269.61078 307.584 
L 271.571124 307.584 
L 271.571124 306.73712 
L 269.61078 306.73712 
z
" style="fill:#5e9dfe;fill-opacity:0.815686;"/>
   </g>
   <g id="patch_174">
    <path clip-path="url(#p34b5faa12a)" d="M 271.571124 307.584 
L 273.531468 307.584 
L 273.531468 306.893124 
L 271.571124 306.893124 
z
" style="fill:#5e9dfe;fill-opacity:0.815686;"/>
   </g>
   <g id="patch_175">
    <path clip-path="url(#p34b5faa12a)" d="M 273.531468 307.584 
L 275.491813 307.584 
L 275.491813 306.959983 
L 273.531468 306.959983 
z
" style="fill:#5e9dfe;fill-opacity:0.815686;"/>
   </g>
   <g id="patch_176">
    <path clip-path="url(#p34b5faa12a)" d="M 275.491813 307.584 
L 277.452157 307.584 
L 277.452157 306.670261 
L 275.491813 306.670261 
z
" style="fill:#5e9dfe;fill-opacity:0.815686;"/>
   </g>
   <g id="patch_177">
    <path clip-path="url(#p34b5faa12a)" d="M 277.452157 307.584 
L 279.412501 307.584 
L 279.412501 306.647975 
L 277.452157 306.647975 
z
" style="fill:#5e9dfe;fill-opacity:0.815686;"/>
   </g>
   <g id="patch_178">
    <path clip-path="url(#p34b5faa12a)" d="M 279.412501 307.584 
L 281.372846 307.584 
L 281.372846 306.558829 
L 279.412501 306.558829 
z
" style="fill:#5e9dfe;fill-opacity:0.815686;"/>
   </g>
   <g id="patch_179">
    <path clip-path="url(#p34b5faa12a)" d="M 281.372846 307.584 
L 283.33319 307.584 
L 283.33319 307.049128 
L 281.372846 307.049128 
z
" style="fill:#5e9dfe;fill-opacity:0.815686;"/>
   </g>
   <g id="patch_180">
    <path clip-path="url(#p34b5faa12a)" d="M 283.33319 307.584 
L 285.293535 307.584 
L 285.293535 306.647975 
L 283.33319 306.647975 
z
" style="fill:#5e9dfe;fill-opacity:0.815686;"/>
   </g>
   <g id="patch_181">
    <path clip-path="url(#p34b5faa12a)" d="M 285.293535 307.584 
L 287.253879 307.584 
L 287.253879 306.803979 
L 285.293535 306.803979 
z
" style="fill:#5e9dfe;fill-opacity:0.815686;"/>
   </g>
   <g id="patch_182">
    <path clip-path="url(#p34b5faa12a)" d="M 287.253879 307.584 
L 289.214223 307.584 
L 289.214223 306.73712 
L 287.253879 306.73712 
z
" style="fill:#5e9dfe;fill-opacity:0.815686;"/>
   </g>
   <g id="patch_183">
    <path clip-path="url(#p34b5faa12a)" d="M 289.214223 307.584 
L 291.174568 307.584 
L 291.174568 306.692547 
L 289.214223 306.692547 
z
" style="fill:#5e9dfe;fill-opacity:0.815686;"/>
   </g>
   <g id="patch_184">
    <path clip-path="url(#p34b5faa12a)" d="M 291.174568 307.584 
L 293.134912 307.584 
L 293.134912 306.558829 
L 291.174568 306.558829 
z
" style="fill:#5e9dfe;fill-opacity:0.815686;"/>
   </g>
   <g id="patch_185">
    <path clip-path="url(#p34b5faa12a)" d="M 293.134912 307.584 
L 295.095257 307.584 
L 295.095257 306.49197 
L 293.134912 306.49197 
z
" style="fill:#5e9dfe;fill-opacity:0.815686;"/>
   </g>
   <g id="patch_186">
    <path clip-path="url(#p34b5faa12a)" d="M 295.095257 307.584 
L 297.055601 307.584 
L 297.055601 306.514257 
L 295.095257 306.514257 
z
" style="fill:#5e9dfe;fill-opacity:0.815686;"/>
   </g>
   <g id="patch_187">
    <path clip-path="url(#p34b5faa12a)" d="M 297.055601 307.584 
L 299.015945 307.584 
L 299.015945 306.358253 
L 297.055601 306.358253 
z
" style="fill:#5e9dfe;fill-opacity:0.815686;"/>
   </g>
   <g id="patch_188">
    <path clip-path="url(#p34b5faa12a)" d="M 299.015945 307.584 
L 300.97629 307.584 
L 300.97629 306.246821 
L 299.015945 306.246821 
z
" style="fill:#5e9dfe;fill-opacity:0.815686;"/>
   </g>
   <g id="patch_189">
    <path clip-path="url(#p34b5faa12a)" d="M 300.97629 307.584 
L 302.936634 307.584 
L 302.936634 306.135389 
L 300.97629 306.135389 
z
" style="fill:#5e9dfe;fill-opacity:0.815686;"/>
   </g>
   <g id="patch_190">
    <path clip-path="url(#p34b5faa12a)" d="M 302.936634 307.584 
L 304.896978 307.584 
L 304.896978 306.358253 
L 302.936634 306.358253 
z
" style="fill:#5e9dfe;fill-opacity:0.815686;"/>
   </g>
   <g id="patch_191">
    <path clip-path="url(#p34b5faa12a)" d="M 304.896978 307.584 
L 306.857323 307.584 
L 306.857323 305.801095 
L 304.896978 305.801095 
z
" style="fill:#5e9dfe;fill-opacity:0.815686;"/>
   </g>
   <g id="patch_192">
    <path clip-path="url(#p34b5faa12a)" d="M 306.857323 307.584 
L 308.817667 307.584 
L 308.817667 306.001671 
L 306.857323 306.001671 
z
" style="fill:#5e9dfe;fill-opacity:0.815686;"/>
   </g>
   <g id="patch_193">
    <path clip-path="url(#p34b5faa12a)" d="M 308.817667 307.584 
L 310.778012 307.584 
L 310.778012 305.778808 
L 308.817667 305.778808 
z
" style="fill:#5e9dfe;fill-opacity:0.815686;"/>
   </g>
   <g id="patch_194">
    <path clip-path="url(#p34b5faa12a)" d="M 310.778012 307.584 
L 312.738356 307.584 
L 312.738356 305.22165 
L 310.778012 305.22165 
z
" style="fill:#5e9dfe;fill-opacity:0.815686;"/>
   </g>
   <g id="patch_195">
    <path clip-path="url(#p34b5faa12a)" d="M 312.738356 307.584 
L 314.6987 307.584 
L 314.6987 304.508488 
L 312.738356 304.508488 
z
" style="fill:#5e9dfe;fill-opacity:0.815686;"/>
   </g>
   <g id="patch_196">
    <path clip-path="url(#p34b5faa12a)" d="M 314.6987 307.584 
L 316.659045 307.584 
L 316.659045 304.419343 
L 314.6987 304.419343 
z
" style="fill:#5e9dfe;fill-opacity:0.815686;"/>
   </g>
   <g id="patch_197">
    <path clip-path="url(#p34b5faa12a)" d="M 316.659045 307.584 
L 318.619389 307.584 
L 318.619389 303.215882 
L 316.659045 303.215882 
z
" style="fill:#5e9dfe;fill-opacity:0.815686;"/>
   </g>
   <g id="patch_198">
    <path clip-path="url(#p34b5faa12a)" d="M 318.619389 307.584 
L 320.579733 307.584 
L 320.579733 302.970732 
L 318.619389 302.970732 
z
" style="fill:#5e9dfe;fill-opacity:0.815686;"/>
   </g>
   <g id="patch_199">
    <path clip-path="url(#p34b5faa12a)" d="M 320.579733 307.584 
L 322.540078 307.584 
L 322.540078 302.591865 
L 320.579733 302.591865 
z
" style="fill:#5e9dfe;fill-opacity:0.815686;"/>
   </g>
   <g id="patch_200">
    <path clip-path="url(#p34b5faa12a)" d="M 322.540078 307.584 
L 324.500422 307.584 
L 324.500422 301.522122 
L 322.540078 301.522122 
z
" style="fill:#5e9dfe;fill-opacity:0.815686;"/>
   </g>
   <g id="patch_201">
    <path clip-path="url(#p34b5faa12a)" d="M 324.500422 307.584 
L 326.460767 307.584 
L 326.460767 301.678126 
L 324.500422 301.678126 
z
" style="fill:#5e9dfe;fill-opacity:0.815686;"/>
   </g>
   <g id="patch_202">
    <path clip-path="url(#p34b5faa12a)" d="M 326.460767 307.584 
L 328.421111 307.584 
L 328.421111 300.920391 
L 326.460767 300.920391 
z
" style="fill:#5e9dfe;fill-opacity:0.815686;"/>
   </g>
   <g id="patch_203">
    <path clip-path="url(#p34b5faa12a)" d="M 73.832727 307.584 
L 77.079273 307.584 
L 77.079273 306.714834 
L 73.832727 306.714834 
z
" style="fill:#5eedfe;fill-opacity:0.815686;"/>
   </g>
   <g id="patch_204">
    <path clip-path="url(#p34b5faa12a)" d="M 77.079273 307.584 
L 80.325818 307.584 
L 80.325818 307.093701 
L 77.079273 307.093701 
z
" style="fill:#5eedfe;fill-opacity:0.815686;"/>
   </g>
   <g id="patch_205">
    <path clip-path="url(#p34b5faa12a)" d="M 80.325818 307.584 
L 83.572364 307.584 
L 83.572364 307.071415 
L 80.325818 307.071415 
z
" style="fill:#5eedfe;fill-opacity:0.815686;"/>
   </g>
   <g id="patch_206">
    <path clip-path="url(#p34b5faa12a)" d="M 83.572364 307.584 
L 86.818909 307.584 
L 86.818909 307.182846 
L 83.572364 307.182846 
z
" style="fill:#5eedfe;fill-opacity:0.815686;"/>
   </g>
   <g id="patch_207">
    <path clip-path="url(#p34b5faa12a)" d="M 86.818909 307.584 
L 90.065455 307.584 
L 90.065455 307.004556 
L 86.818909 307.004556 
z
" style="fill:#5eedfe;fill-opacity:0.815686;"/>
   </g>
   <g id="patch_208">
    <path clip-path="url(#p34b5faa12a)" d="M 90.065455 307.584 
L 93.312 307.584 
L 93.312 306.803979 
L 90.065455 306.803979 
z
" style="fill:#5eedfe;fill-opacity:0.815686;"/>
   </g>
   <g id="patch_209">
    <path clip-path="url(#p34b5faa12a)" d="M 93.312 307.584 
L 96.558545 307.584 
L 96.558545 306.714834 
L 93.312 306.714834 
z
" style="fill:#5eedfe;fill-opacity:0.815686;"/>
   </g>
   <g id="patch_210">
    <path clip-path="url(#p34b5faa12a)" d="M 96.558545 307.584 
L 99.805091 307.584 
L 99.805091 307.338851 
L 96.558545 307.338851 
z
" style="fill:#5eedfe;fill-opacity:0.815686;"/>
   </g>
   <g id="patch_211">
    <path clip-path="url(#p34b5faa12a)" d="M 99.805091 307.584 
L 103.051636 307.584 
L 103.051636 307.138274 
L 99.805091 307.138274 
z
" style="fill:#5eedfe;fill-opacity:0.815686;"/>
   </g>
   <g id="patch_212">
    <path clip-path="url(#p34b5faa12a)" d="M 103.051636 307.584 
L 106.298182 307.584 
L 106.298182 307.093701 
L 103.051636 307.093701 
z
" style="fill:#5eedfe;fill-opacity:0.815686;"/>
   </g>
   <g id="patch_213">
    <path clip-path="url(#p34b5faa12a)" d="M 106.298182 307.584 
L 109.544727 307.584 
L 109.544727 306.692547 
L 106.298182 306.692547 
z
" style="fill:#5eedfe;fill-opacity:0.815686;"/>
   </g>
   <g id="patch_214">
    <path clip-path="url(#p34b5faa12a)" d="M 109.544727 307.584 
L 112.791273 307.584 
L 112.791273 306.558829 
L 109.544727 306.558829 
z
" style="fill:#5eedfe;fill-opacity:0.815686;"/>
   </g>
   <g id="patch_215">
    <path clip-path="url(#p34b5faa12a)" d="M 112.791273 307.584 
L 116.037818 307.584 
L 116.037818 306.269107 
L 112.791273 306.269107 
z
" style="fill:#5eedfe;fill-opacity:0.815686;"/>
   </g>
   <g id="patch_216">
    <path clip-path="url(#p34b5faa12a)" d="M 116.037818 307.584 
L 119.284364 307.584 
L 119.284364 306.536543 
L 116.037818 306.536543 
z
" style="fill:#5eedfe;fill-opacity:0.815686;"/>
   </g>
   <g id="patch_217">
    <path clip-path="url(#p34b5faa12a)" d="M 119.284364 307.584 
L 122.530909 307.584 
L 122.530909 306.848552 
L 119.284364 306.848552 
z
" style="fill:#5eedfe;fill-opacity:0.815686;"/>
   </g>
   <g id="patch_218">
    <path clip-path="url(#p34b5faa12a)" d="M 122.530909 307.584 
L 125.777455 307.584 
L 125.777455 307.071415 
L 122.530909 307.071415 
z
" style="fill:#5eedfe;fill-opacity:0.815686;"/>
   </g>
   <g id="patch_219">
    <path clip-path="url(#p34b5faa12a)" d="M 125.777455 307.584 
L 129.024 307.584 
L 129.024 306.91541 
L 125.777455 306.91541 
z
" style="fill:#5eedfe;fill-opacity:0.815686;"/>
   </g>
   <g id="patch_220">
    <path clip-path="url(#p34b5faa12a)" d="M 129.024 307.584 
L 132.270545 307.584 
L 132.270545 306.893124 
L 129.024 306.893124 
z
" style="fill:#5eedfe;fill-opacity:0.815686;"/>
   </g>
   <g id="patch_221">
    <path clip-path="url(#p34b5faa12a)" d="M 132.270545 307.584 
L 135.517091 307.584 
L 135.517091 306.425112 
L 132.270545 306.425112 
z
" style="fill:#5eedfe;fill-opacity:0.815686;"/>
   </g>
   <g id="patch_222">
    <path clip-path="url(#p34b5faa12a)" d="M 135.517091 307.584 
L 138.763636 307.584 
L 138.763636 304.887356 
L 135.517091 304.887356 
z
" style="fill:#5eedfe;fill-opacity:0.815686;"/>
   </g>
   <g id="patch_223">
    <path clip-path="url(#p34b5faa12a)" d="M 138.763636 307.584 
L 142.010182 307.584 
L 142.010182 303.550177 
L 138.763636 303.550177 
z
" style="fill:#5eedfe;fill-opacity:0.815686;"/>
   </g>
   <g id="patch_224">
    <path clip-path="url(#p34b5faa12a)" d="M 142.010182 307.584 
L 145.256727 307.584 
L 145.256727 302.012421 
L 142.010182 302.012421 
z
" style="fill:#5eedfe;fill-opacity:0.815686;"/>
   </g>
   <g id="patch_225">
    <path clip-path="url(#p34b5faa12a)" d="M 145.256727 307.584 
L 148.503273 307.584 
L 148.503273 300.719814 
L 145.256727 300.719814 
z
" style="fill:#5eedfe;fill-opacity:0.815686;"/>
   </g>
   <g id="patch_226">
    <path clip-path="url(#p34b5faa12a)" d="M 148.503273 307.584 
L 151.749818 307.584 
L 151.749818 298.780905 
L 148.503273 298.780905 
z
" style="fill:#5eedfe;fill-opacity:0.815686;"/>
   </g>
   <g id="patch_227">
    <path clip-path="url(#p34b5faa12a)" d="M 151.749818 307.584 
L 154.996364 307.584 
L 154.996364 299.872934 
L 151.749818 299.872934 
z
" style="fill:#5eedfe;fill-opacity:0.815686;"/>
   </g>
   <g id="patch_228">
    <path clip-path="url(#p34b5faa12a)" d="M 154.996364 307.584 
L 158.242909 307.584 
L 158.242909 300.853532 
L 154.996364 300.853532 
z
" style="fill:#5eedfe;fill-opacity:0.815686;"/>
   </g>
   <g id="patch_229">
    <path clip-path="url(#p34b5faa12a)" d="M 158.242909 307.584 
L 161.489455 307.584 
L 161.489455 301.388404 
L 158.242909 301.388404 
z
" style="fill:#5eedfe;fill-opacity:0.815686;"/>
   </g>
   <g id="patch_230">
    <path clip-path="url(#p34b5faa12a)" d="M 161.489455 307.584 
L 164.736 307.584 
L 164.736 302.168425 
L 161.489455 302.168425 
z
" style="fill:#5eedfe;fill-opacity:0.815686;"/>
   </g>
   <g id="patch_231">
    <path clip-path="url(#p34b5faa12a)" d="M 164.736 307.584 
L 167.982545 307.584 
L 167.982545 300.764387 
L 164.736 300.764387 
z
" style="fill:#5eedfe;fill-opacity:0.815686;"/>
   </g>
   <g id="patch_232">
    <path clip-path="url(#p34b5faa12a)" d="M 167.982545 307.584 
L 171.229091 307.584 
L 171.229091 298.736332 
L 167.982545 298.736332 
z
" style="fill:#5eedfe;fill-opacity:0.815686;"/>
   </g>
   <g id="patch_233">
    <path clip-path="url(#p34b5faa12a)" d="M 171.229091 307.584 
L 174.475636 307.584 
L 174.475636 294.011633 
L 171.229091 294.011633 
z
" style="fill:#5eedfe;fill-opacity:0.815686;"/>
   </g>
   <g id="patch_234">
    <path clip-path="url(#p34b5faa12a)" d="M 174.475636 307.584 
L 177.722182 307.584 
L 177.722182 290.423536 
L 174.475636 290.423536 
z
" style="fill:#5eedfe;fill-opacity:0.815686;"/>
   </g>
   <g id="patch_235">
    <path clip-path="url(#p34b5faa12a)" d="M 177.722182 307.584 
L 180.968727 307.584 
L 180.968727 285.431401 
L 177.722182 285.431401 
z
" style="fill:#5eedfe;fill-opacity:0.815686;"/>
   </g>
   <g id="patch_236">
    <path clip-path="url(#p34b5faa12a)" d="M 180.968727 307.584 
L 184.215273 307.584 
L 184.215273 284.785097 
L 180.968727 284.785097 
z
" style="fill:#5eedfe;fill-opacity:0.815686;"/>
   </g>
   <g id="patch_237">
    <path clip-path="url(#p34b5faa12a)" d="M 184.215273 307.584 
L 187.461818 307.584 
L 187.461818 284.40623 
L 184.215273 284.40623 
z
" style="fill:#5eedfe;fill-opacity:0.815686;"/>
   </g>
   <g id="patch_238">
    <path clip-path="url(#p34b5faa12a)" d="M 187.461818 307.584 
L 190.708364 307.584 
L 190.708364 288.618344 
L 187.461818 288.618344 
z
" style="fill:#5eedfe;fill-opacity:0.815686;"/>
   </g>
   <g id="patch_239">
    <path clip-path="url(#p34b5faa12a)" d="M 190.708364 307.584 
L 193.954909 307.584 
L 193.954909 291.18127 
L 190.708364 291.18127 
z
" style="fill:#5eedfe;fill-opacity:0.815686;"/>
   </g>
   <g id="patch_240">
    <path clip-path="url(#p34b5faa12a)" d="M 193.954909 307.584 
L 197.201455 307.584 
L 197.201455 294.992231 
L 193.954909 294.992231 
z
" style="fill:#5eedfe;fill-opacity:0.815686;"/>
   </g>
   <g id="patch_241">
    <path clip-path="url(#p34b5faa12a)" d="M 197.201455 307.584 
L 200.448 307.584 
L 200.448 298.714046 
L 197.201455 298.714046 
z
" style="fill:#5eedfe;fill-opacity:0.815686;"/>
   </g>
   <g id="patch_242">
    <path clip-path="url(#p34b5faa12a)" d="M 200.448 307.584 
L 203.694545 307.584 
L 203.694545 301.143254 
L 200.448 301.143254 
z
" style="fill:#5eedfe;fill-opacity:0.815686;"/>
   </g>
   <g id="patch_243">
    <path clip-path="url(#p34b5faa12a)" d="M 203.694545 307.584 
L 206.941091 307.584 
L 206.941091 302.212998 
L 203.694545 302.212998 
z
" style="fill:#5eedfe;fill-opacity:0.815686;"/>
   </g>
   <g id="patch_244">
    <path clip-path="url(#p34b5faa12a)" d="M 206.941091 307.584 
L 210.187636 307.584 
L 210.187636 302.525006 
L 206.941091 302.525006 
z
" style="fill:#5eedfe;fill-opacity:0.815686;"/>
   </g>
   <g id="patch_245">
    <path clip-path="url(#p34b5faa12a)" d="M 210.187636 307.584 
L 213.434182 307.584 
L 213.434182 301.65584 
L 210.187636 301.65584 
z
" style="fill:#5eedfe;fill-opacity:0.815686;"/>
   </g>
   <g id="patch_246">
    <path clip-path="url(#p34b5faa12a)" d="M 213.434182 307.584 
L 216.680727 307.584 
L 216.680727 295.883683 
L 213.434182 295.883683 
z
" style="fill:#5eedfe;fill-opacity:0.815686;"/>
   </g>
   <g id="patch_247">
    <path clip-path="url(#p34b5faa12a)" d="M 216.680727 307.584 
L 219.927273 307.584 
L 219.927273 280.194116 
L 216.680727 280.194116 
z
" style="fill:#5eedfe;fill-opacity:0.815686;"/>
   </g>
   <g id="patch_248">
    <path clip-path="url(#p34b5faa12a)" d="M 219.927273 307.584 
L 223.173818 307.584 
L 223.173818 250.285878 
L 219.927273 250.285878 
z
" style="fill:#5eedfe;fill-opacity:0.815686;"/>
   </g>
   <g id="patch_249">
    <path clip-path="url(#p34b5faa12a)" d="M 223.173818 307.584 
L 226.420364 307.584 
L 226.420364 200.787968 
L 223.173818 200.787968 
z
" style="fill:#5eedfe;fill-opacity:0.815686;"/>
   </g>
   <g id="patch_250">
    <path clip-path="url(#p34b5faa12a)" d="M 226.420364 307.584 
L 229.666909 307.584 
L 229.666909 145.16132 
L 226.420364 145.16132 
z
" style="fill:#5eedfe;fill-opacity:0.815686;"/>
   </g>
   <g id="patch_251">
    <path clip-path="url(#p34b5faa12a)" d="M 229.666909 307.584 
L 232.913455 307.584 
L 232.913455 94.081081 
L 229.666909 94.081081 
z
" style="fill:#5eedfe;fill-opacity:0.815686;"/>
   </g>
   <g id="patch_252">
    <path clip-path="url(#p34b5faa12a)" d="M 232.913455 307.584 
L 236.16 307.584 
L 236.16 54.144 
L 232.913455 54.144 
z
" style="fill:#5eedfe;fill-opacity:0.815686;"/>
   </g>
   <g id="patch_253">
    <path clip-path="url(#p34b5faa12a)" d="M 236.16 307.584 
L 239.406545 307.584 
L 239.406545 55.057739 
L 236.16 55.057739 
z
" style="fill:#5eedfe;fill-opacity:0.815686;"/>
   </g>
   <g id="patch_254">
    <path clip-path="url(#p34b5faa12a)" d="M 239.406545 307.584 
L 242.653091 307.584 
L 242.653091 100.232104 
L 239.406545 100.232104 
z
" style="fill:#5eedfe;fill-opacity:0.815686;"/>
   </g>
   <g id="patch_255">
    <path clip-path="url(#p34b5faa12a)" d="M 242.653091 307.584 
L 245.899636 307.584 
L 245.899636 161.92063 
L 242.653091 161.92063 
z
" style="fill:#5eedfe;fill-opacity:0.815686;"/>
   </g>
   <g id="patch_256">
    <path clip-path="url(#p34b5faa12a)" d="M 245.899636 307.584 
L 249.146182 307.584 
L 249.146182 227.330972 
L 245.899636 227.330972 
z
" style="fill:#5eedfe;fill-opacity:0.815686;"/>
   </g>
   <g id="patch_257">
    <path clip-path="url(#p34b5faa12a)" d="M 249.146182 307.584 
L 252.392727 307.584 
L 252.392727 265.351429 
L 249.146182 265.351429 
z
" style="fill:#5eedfe;fill-opacity:0.815686;"/>
   </g>
   <g id="patch_258">
    <path clip-path="url(#p34b5faa12a)" d="M 252.392727 307.584 
L 255.639273 307.584 
L 255.639273 287.303451 
L 252.392727 287.303451 
z
" style="fill:#5eedfe;fill-opacity:0.815686;"/>
   </g>
   <g id="patch_259">
    <path clip-path="url(#p34b5faa12a)" d="M 255.639273 307.584 
L 258.885818 307.584 
L 258.885818 297.867166 
L 255.639273 297.867166 
z
" style="fill:#5eedfe;fill-opacity:0.815686;"/>
   </g>
   <g id="patch_260">
    <path clip-path="url(#p34b5faa12a)" d="M 258.885818 307.584 
L 262.132364 307.584 
L 262.132364 302.146139 
L 258.885818 302.146139 
z
" style="fill:#5eedfe;fill-opacity:0.815686;"/>
   </g>
   <g id="patch_261">
    <path clip-path="url(#p34b5faa12a)" d="M 262.132364 307.584 
L 265.378909 307.584 
L 265.378909 304.397057 
L 262.132364 304.397057 
z
" style="fill:#5eedfe;fill-opacity:0.815686;"/>
   </g>
   <g id="patch_262">
    <path clip-path="url(#p34b5faa12a)" d="M 265.378909 307.584 
L 268.625455 307.584 
L 268.625455 304.887356 
L 265.378909 304.887356 
z
" style="fill:#5eedfe;fill-opacity:0.815686;"/>
   </g>
   <g id="patch_263">
    <path clip-path="url(#p34b5faa12a)" d="M 268.625455 307.584 
L 271.872 307.584 
L 271.872 305.4668 
L 268.625455 305.4668 
z
" style="fill:#5eedfe;fill-opacity:0.815686;"/>
   </g>
   <g id="patch_264">
    <path clip-path="url(#p34b5faa12a)" d="M 271.872 307.584 
L 275.118545 307.584 
L 275.118545 305.711949 
L 271.872 305.711949 
z
" style="fill:#5eedfe;fill-opacity:0.815686;"/>
   </g>
   <g id="patch_265">
    <path clip-path="url(#p34b5faa12a)" d="M 275.118545 307.584 
L 278.365091 307.584 
L 278.365091 305.4668 
L 275.118545 305.4668 
z
" style="fill:#5eedfe;fill-opacity:0.815686;"/>
   </g>
   <g id="patch_266">
    <path clip-path="url(#p34b5faa12a)" d="M 278.365091 307.584 
L 281.611636 307.584 
L 281.611636 305.689663 
L 278.365091 305.689663 
z
" style="fill:#5eedfe;fill-opacity:0.815686;"/>
   </g>
   <g id="patch_267">
    <path clip-path="url(#p34b5faa12a)" d="M 281.611636 307.584 
L 284.858182 307.584 
L 284.858182 305.555945 
L 281.611636 305.555945 
z
" style="fill:#5eedfe;fill-opacity:0.815686;"/>
   </g>
   <g id="patch_268">
    <path clip-path="url(#p34b5faa12a)" d="M 284.858182 307.584 
L 288.104727 307.584 
L 288.104727 305.711949 
L 284.858182 305.711949 
z
" style="fill:#5eedfe;fill-opacity:0.815686;"/>
   </g>
   <g id="patch_269">
    <path clip-path="url(#p34b5faa12a)" d="M 288.104727 307.584 
L 291.351273 307.584 
L 291.351273 305.734236 
L 288.104727 305.734236 
z
" style="fill:#5eedfe;fill-opacity:0.815686;"/>
   </g>
   <g id="patch_270">
    <path clip-path="url(#p34b5faa12a)" d="M 291.351273 307.584 
L 294.597818 307.584 
L 294.597818 305.533659 
L 291.351273 305.533659 
z
" style="fill:#5eedfe;fill-opacity:0.815686;"/>
   </g>
   <g id="patch_271">
    <path clip-path="url(#p34b5faa12a)" d="M 294.597818 307.584 
L 297.844364 307.584 
L 297.844364 305.021074 
L 294.597818 305.021074 
z
" style="fill:#5eedfe;fill-opacity:0.815686;"/>
   </g>
   <g id="patch_272">
    <path clip-path="url(#p34b5faa12a)" d="M 297.844364 307.584 
L 301.090909 307.584 
L 301.090909 304.61992 
L 297.844364 304.61992 
z
" style="fill:#5eedfe;fill-opacity:0.815686;"/>
   </g>
   <g id="patch_273">
    <path clip-path="url(#p34b5faa12a)" d="M 301.090909 307.584 
L 304.337455 307.584 
L 304.337455 303.461031 
L 301.090909 303.461031 
z
" style="fill:#5eedfe;fill-opacity:0.815686;"/>
   </g>
   <g id="patch_274">
    <path clip-path="url(#p34b5faa12a)" d="M 304.337455 307.584 
L 307.584 307.584 
L 307.584 301.455263 
L 304.337455 301.455263 
z
" style="fill:#5eedfe;fill-opacity:0.815686;"/>
   </g>
   <g id="patch_275">
    <path clip-path="url(#p34b5faa12a)" d="M 307.584 307.584 
L 310.830545 307.584 
L 310.830545 300.430092 
L 307.584 300.430092 
z
" style="fill:#5eedfe;fill-opacity:0.815686;"/>
   </g>
   <g id="patch_276">
    <path clip-path="url(#p34b5faa12a)" d="M 310.830545 307.584 
L 314.077091 307.584 
L 314.077091 299.360349 
L 310.830545 299.360349 
z
" style="fill:#5eedfe;fill-opacity:0.815686;"/>
   </g>
   <g id="patch_277">
    <path clip-path="url(#p34b5faa12a)" d="M 314.077091 307.584 
L 317.323636 307.584 
L 317.323636 296.93114 
L 314.077091 296.93114 
z
" style="fill:#5eedfe;fill-opacity:0.815686;"/>
   </g>
   <g id="patch_278">
    <path clip-path="url(#p34b5faa12a)" d="M 317.323636 307.584 
L 320.570182 307.584 
L 320.570182 295.48253 
L 317.323636 295.48253 
z
" style="fill:#5eedfe;fill-opacity:0.815686;"/>
   </g>
   <g id="patch_279">
    <path clip-path="url(#p34b5faa12a)" d="M 320.570182 307.584 
L 323.816727 307.584 
L 323.816727 293.855629 
L 320.570182 293.855629 
z
" style="fill:#5eedfe;fill-opacity:0.815686;"/>
   </g>
   <g id="patch_280">
    <path clip-path="url(#p34b5faa12a)" d="M 323.816727 307.584 
L 327.063273 307.584 
L 327.063273 289.442938 
L 323.816727 289.442938 
z
" style="fill:#5eedfe;fill-opacity:0.815686;"/>
   </g>
   <g id="patch_281">
    <path clip-path="url(#p34b5faa12a)" d="M 327.063273 307.584 
L 330.309818 307.584 
L 330.309818 287.860609 
L 327.063273 287.860609 
z
" style="fill:#5eedfe;fill-opacity:0.815686;"/>
   </g>
   <g id="patch_282">
    <path clip-path="url(#p34b5faa12a)" d="M 330.309818 307.584 
L 333.556364 307.584 
L 333.556364 284.629093 
L 330.309818 284.629093 
z
" style="fill:#5eedfe;fill-opacity:0.815686;"/>
   </g>
   <g id="patch_283">
    <path clip-path="url(#p34b5faa12a)" d="M 333.556364 307.584 
L 336.802909 307.584 
L 336.802909 284.762811 
L 333.556364 284.762811 
z
" style="fill:#5eedfe;fill-opacity:0.815686;"/>
   </g>
   <g id="patch_284">
    <path clip-path="url(#p34b5faa12a)" d="M 336.802909 307.584 
L 340.049455 307.584 
L 340.049455 287.348024 
L 336.802909 287.348024 
z
" style="fill:#5eedfe;fill-opacity:0.815686;"/>
   </g>
   <g id="patch_285">
    <path clip-path="url(#p34b5faa12a)" d="M 340.049455 307.584 
L 343.296 307.584 
L 343.296 291.092125 
L 340.049455 291.092125 
z
" style="fill:#5eedfe;fill-opacity:0.815686;"/>
   </g>
   <g id="patch_286">
    <path clip-path="url(#p34b5faa12a)" d="M 343.296 307.584 
L 346.542545 307.584 
L 346.542545 296.908854 
L 343.296 296.908854 
z
" style="fill:#5eedfe;fill-opacity:0.815686;"/>
   </g>
   <g id="patch_287">
    <path clip-path="url(#p34b5faa12a)" d="M 346.542545 307.584 
L 349.789091 307.584 
L 349.789091 300.742101 
L 346.542545 300.742101 
z
" style="fill:#5eedfe;fill-opacity:0.815686;"/>
   </g>
   <g id="patch_288">
    <path clip-path="url(#p34b5faa12a)" d="M 349.789091 307.584 
L 353.035636 307.584 
L 353.035636 303.059878 
L 349.789091 303.059878 
z
" style="fill:#5eedfe;fill-opacity:0.815686;"/>
   </g>
   <g id="patch_289">
    <path clip-path="url(#p34b5faa12a)" d="M 353.035636 307.584 
L 356.282182 307.584 
L 356.282182 304.575347 
L 353.035636 304.575347 
z
" style="fill:#5eedfe;fill-opacity:0.815686;"/>
   </g>
   <g id="patch_290">
    <path clip-path="url(#p34b5faa12a)" d="M 356.282182 307.584 
L 359.528727 307.584 
L 359.528727 304.820497 
L 356.282182 304.820497 
z
" style="fill:#5eedfe;fill-opacity:0.815686;"/>
   </g>
   <g id="patch_291">
    <path clip-path="url(#p34b5faa12a)" d="M 359.528727 307.584 
L 362.775273 307.584 
L 362.775273 305.22165 
L 359.528727 305.22165 
z
" style="fill:#5eedfe;fill-opacity:0.815686;"/>
   </g>
   <g id="patch_292">
    <path clip-path="url(#p34b5faa12a)" d="M 362.775273 307.584 
L 366.021818 307.584 
L 366.021818 305.711949 
L 362.775273 305.711949 
z
" style="fill:#5eedfe;fill-opacity:0.815686;"/>
   </g>
   <g id="patch_293">
    <path clip-path="url(#p34b5faa12a)" d="M 366.021818 307.584 
L 369.268364 307.584 
L 369.268364 305.934813 
L 366.021818 305.934813 
z
" style="fill:#5eedfe;fill-opacity:0.815686;"/>
   </g>
   <g id="patch_294">
    <path clip-path="url(#p34b5faa12a)" d="M 369.268364 307.584 
L 372.514909 307.584 
L 372.514909 305.979385 
L 369.268364 305.979385 
z
" style="fill:#5eedfe;fill-opacity:0.815686;"/>
   </g>
   <g id="patch_295">
    <path clip-path="url(#p34b5faa12a)" d="M 372.514909 307.584 
L 375.761455 307.584 
L 375.761455 306.202248 
L 372.514909 306.202248 
z
" style="fill:#5eedfe;fill-opacity:0.815686;"/>
   </g>
   <g id="patch_296">
    <path clip-path="url(#p34b5faa12a)" d="M 375.761455 307.584 
L 379.008 307.584 
L 379.008 306.179962 
L 375.761455 306.179962 
z
" style="fill:#5eedfe;fill-opacity:0.815686;"/>
   </g>
   <g id="patch_297">
    <path clip-path="url(#p34b5faa12a)" d="M 379.008 307.584 
L 382.254545 307.584 
L 382.254545 306.135389 
L 379.008 306.135389 
z
" style="fill:#5eedfe;fill-opacity:0.815686;"/>
   </g>
   <g id="patch_298">
    <path clip-path="url(#p34b5faa12a)" d="M 382.254545 307.584 
L 385.501091 307.584 
L 385.501091 305.734236 
L 382.254545 305.734236 
z
" style="fill:#5eedfe;fill-opacity:0.815686;"/>
   </g>
   <g id="patch_299">
    <path clip-path="url(#p34b5faa12a)" d="M 385.501091 307.584 
L 388.747636 307.584 
L 388.747636 306.31368 
L 385.501091 306.31368 
z
" style="fill:#5eedfe;fill-opacity:0.815686;"/>
   </g>
   <g id="patch_300">
    <path clip-path="url(#p34b5faa12a)" d="M 388.747636 307.584 
L 391.994182 307.584 
L 391.994182 306.157676 
L 388.747636 306.157676 
z
" style="fill:#5eedfe;fill-opacity:0.815686;"/>
   </g>
   <g id="patch_301">
    <path clip-path="url(#p34b5faa12a)" d="M 391.994182 307.584 
L 395.240727 307.584 
L 395.240727 306.269107 
L 391.994182 306.269107 
z
" style="fill:#5eedfe;fill-opacity:0.815686;"/>
   </g>
   <g id="patch_302">
    <path clip-path="url(#p34b5faa12a)" d="M 395.240727 307.584 
L 398.487273 307.584 
L 398.487273 305.778808 
L 395.240727 305.778808 
z
" style="fill:#5eedfe;fill-opacity:0.815686;"/>
   </g>
   <g id="matplotlib.axis_1">
    <g id="xtick_1">
     <g id="line2d_1">
      <defs>
       <path d="M 0 0 
L 0 3.5 
" id="m914fc76bfd" style="stroke:#000000;stroke-width:0.8;"/>
      </defs>
      <g>
       <use style="stroke:#000000;stroke-width:0.8;" x="120.43458" xlink:href="#m914fc76bfd" y="307.584"/>
      </g>
     </g>
     <g id="text_1">
      <!-- 15.0 us -->
      <defs>
       <path d="M 12.40625 8.296875 
L 28.515625 8.296875 
L 28.515625 63.921875 
L 10.984375 60.40625 
L 10.984375 69.390625 
L 28.421875 72.90625 
L 38.28125 72.90625 
L 38.28125 8.296875 
L 54.390625 8.296875 
L 54.390625 0 
L 12.40625 0 
z
" id="DejaVuSans-49"/>
       <path d="M 10.796875 72.90625 
L 49.515625 72.90625 
L 49.515625 64.59375 
L 19.828125 64.59375 
L 19.828125 46.734375 
Q 21.96875 47.46875 24.109375 47.828125 
Q 26.265625 48.1875 28.421875 48.1875 
Q 40.625 48.1875 47.75 41.5 
Q 54.890625 34.8125 54.890625 23.390625 
Q 54.890625 11.625 47.5625 5.09375 
Q 40.234375 -1.421875 26.90625 -1.421875 
Q 22.3125 -1.421875 17.546875 -0.640625 
Q 12.796875 0.140625 7.71875 1.703125 
L 7.71875 11.625 
Q 12.109375 9.234375 16.796875 8.0625 
Q 21.484375 6.890625 26.703125 6.890625 
Q 35.15625 6.890625 40.078125 11.328125 
Q 45.015625 15.765625 45.015625 23.390625 
Q 45.015625 31 40.078125 35.4375 
Q 35.15625 39.890625 26.703125 39.890625 
Q 22.75 39.890625 18.8125 39.015625 
Q 14.890625 38.140625 10.796875 36.28125 
z
" id="DejaVuSans-53"/>
       <path d="M 10.6875 12.40625 
L 21 12.40625 
L 21 0 
L 10.6875 0 
z
" id="DejaVuSans-46"/>
       <path d="M 31.78125 66.40625 
Q 24.171875 66.40625 20.328125 58.90625 
Q 16.5 51.421875 16.5 36.375 
Q 16.5 21.390625 20.328125 13.890625 
Q 24.171875 6.390625 31.78125 6.390625 
Q 39.453125 6.390625 43.28125 13.890625 
Q 47.125 21.390625 47.125 36.375 
Q 47.125 51.421875 43.28125 58.90625 
Q 39.453125 66.40625 31.78125 66.40625 
z
M 31.78125 74.21875 
Q 44.046875 74.21875 50.515625 64.515625 
Q 56.984375 54.828125 56.984375 36.375 
Q 56.984375 17.96875 50.515625 8.265625 
Q 44.046875 -1.421875 31.78125 -1.421875 
Q 19.53125 -1.421875 13.0625 8.265625 
Q 6.59375 17.96875 6.59375 36.375 
Q 6.59375 54.828125 13.0625 64.515625 
Q 19.53125 74.21875 31.78125 74.21875 
z
" id="DejaVuSans-48"/>
       <path id="DejaVuSans-32"/>
       <path d="M 8.5 21.578125 
L 8.5 54.6875 
L 17.484375 54.6875 
L 17.484375 21.921875 
Q 17.484375 14.15625 20.5 10.265625 
Q 23.53125 6.390625 29.59375 6.390625 
Q 36.859375 6.390625 41.078125 11.03125 
Q 45.3125 15.671875 45.3125 23.6875 
L 45.3125 54.6875 
L 54.296875 54.6875 
L 54.296875 0 
L 45.3125 0 
L 45.3125 8.40625 
Q 42.046875 3.421875 37.71875 1 
Q 33.40625 -1.421875 27.6875 -1.421875 
Q 18.265625 -1.421875 13.375 4.4375 
Q 8.5 10.296875 8.5 21.578125 
z
M 31.109375 56 
z
" id="DejaVuSans-117"/>
       <path d="M 44.28125 53.078125 
L 44.28125 44.578125 
Q 40.484375 46.53125 36.375 47.5 
Q 32.28125 48.484375 27.875 48.484375 
Q 21.1875 48.484375 17.84375 46.4375 
Q 14.5 44.390625 14.5 40.28125 
Q 14.5 37.15625 16.890625 35.375 
Q 19.28125 33.59375 26.515625 31.984375 
L 29.59375 31.296875 
Q 39.15625 29.25 43.1875 25.515625 
Q 47.21875 21.78125 47.21875 15.09375 
Q 47.21875 7.46875 41.1875 3.015625 
Q 35.15625 -1.421875 24.609375 -1.421875 
Q 20.21875 -1.421875 15.453125 -0.5625 
Q 10.6875 0.296875 5.421875 2 
L 5.421875 11.28125 
Q 10.40625 8.6875 15.234375 7.390625 
Q 20.0625 6.109375 24.8125 6.109375 
Q 31.15625 6.109375 34.5625 8.28125 
Q 37.984375 10.453125 37.984375 14.40625 
Q 37.984375 18.0625 35.515625 20.015625 
Q 33.0625 21.96875 24.703125 23.78125 
L 21.578125 24.515625 
Q 13.234375 26.265625 9.515625 29.90625 
Q 5.8125 33.546875 5.8125 39.890625 
Q 5.8125 47.609375 11.28125 51.796875 
Q 16.75 56 26.8125 56 
Q 31.78125 56 36.171875 55.265625 
Q 40.578125 54.546875 44.28125 53.078125 
z
" id="DejaVuSans-115"/>
      </defs>
      <g transform="translate(117.223341 321.470523)rotate(-335)scale(0.1 -0.1)">
       <use xlink:href="#DejaVuSans-49"/>
       <use x="63.623047" xlink:href="#DejaVuSans-53"/>
       <use x="127.246094" xlink:href="#DejaVuSans-46"/>
       <use x="159.033203" xlink:href="#DejaVuSans-48"/>
       <use x="222.65625" xlink:href="#DejaVuSans-32"/>
       <use x="254.443359" xlink:href="#DejaVuSans-117"/>
       <use x="317.822266" xlink:href="#DejaVuSans-115"/>
      </g>
     </g>
    </g>
    <g id="xtick_2">
     <g id="line2d_2">
      <g>
       <use style="stroke:#000000;stroke-width:0.8;" x="183.274187" xlink:href="#m914fc76bfd" y="307.584"/>
      </g>
     </g>
     <g id="text_2">
      <!-- 20.0 us -->
      <defs>
       <path d="M 19.1875 8.296875 
L 53.609375 8.296875 
L 53.609375 0 
L 7.328125 0 
L 7.328125 8.296875 
Q 12.9375 14.109375 22.625 23.890625 
Q 32.328125 33.6875 34.8125 36.53125 
Q 39.546875 41.84375 41.421875 45.53125 
Q 43.3125 49.21875 43.3125 52.78125 
Q 43.3125 58.59375 39.234375 62.25 
Q 35.15625 65.921875 28.609375 65.921875 
Q 23.96875 65.921875 18.8125 64.3125 
Q 13.671875 62.703125 7.8125 59.421875 
L 7.8125 69.390625 
Q 13.765625 71.78125 18.9375 73 
Q 24.125 74.21875 28.421875 74.21875 
Q 39.75 74.21875 46.484375 68.546875 
Q 53.21875 62.890625 53.21875 53.421875 
Q 53.21875 48.921875 51.53125 44.890625 
Q 49.859375 40.875 45.40625 35.40625 
Q 44.1875 33.984375 37.640625 27.21875 
Q 31.109375 20.453125 19.1875 8.296875 
z
" id="DejaVuSans-50"/>
      </defs>
      <g transform="translate(180.062948 321.470523)rotate(-335)scale(0.1 -0.1)">
       <use xlink:href="#DejaVuSans-50"/>
       <use x="63.623047" xlink:href="#DejaVuSans-48"/>
       <use x="127.246094" xlink:href="#DejaVuSans-46"/>
       <use x="159.033203" xlink:href="#DejaVuSans-48"/>
       <use x="222.65625" xlink:href="#DejaVuSans-32"/>
       <use x="254.443359" xlink:href="#DejaVuSans-117"/>
       <use x="317.822266" xlink:href="#DejaVuSans-115"/>
      </g>
     </g>
    </g>
    <g id="xtick_3">
     <g id="line2d_3">
      <g>
       <use style="stroke:#000000;stroke-width:0.8;" x="246.113794" xlink:href="#m914fc76bfd" y="307.584"/>
      </g>
     </g>
     <g id="text_3">
      <!-- 25.0 us -->
      <g transform="translate(242.902555 321.470523)rotate(-335)scale(0.1 -0.1)">
       <use xlink:href="#DejaVuSans-50"/>
       <use x="63.623047" xlink:href="#DejaVuSans-53"/>
       <use x="127.246094" xlink:href="#DejaVuSans-46"/>
       <use x="159.033203" xlink:href="#DejaVuSans-48"/>
       <use x="222.65625" xlink:href="#DejaVuSans-32"/>
       <use x="254.443359" xlink:href="#DejaVuSans-117"/>
       <use x="317.822266" xlink:href="#DejaVuSans-115"/>
      </g>
     </g>
    </g>
    <g id="xtick_4">
     <g id="line2d_4">
      <g>
       <use style="stroke:#000000;stroke-width:0.8;" x="308.953401" xlink:href="#m914fc76bfd" y="307.584"/>
      </g>
     </g>
     <g id="text_4">
      <!-- 30.0 us -->
      <defs>
       <path d="M 40.578125 39.3125 
Q 47.65625 37.796875 51.625 33 
Q 55.609375 28.21875 55.609375 21.1875 
Q 55.609375 10.40625 48.1875 4.484375 
Q 40.765625 -1.421875 27.09375 -1.421875 
Q 22.515625 -1.421875 17.65625 -0.515625 
Q 12.796875 0.390625 7.625 2.203125 
L 7.625 11.71875 
Q 11.71875 9.328125 16.59375 8.109375 
Q 21.484375 6.890625 26.8125 6.890625 
Q 36.078125 6.890625 40.9375 10.546875 
Q 45.796875 14.203125 45.796875 21.1875 
Q 45.796875 27.640625 41.28125 31.265625 
Q 36.765625 34.90625 28.71875 34.90625 
L 20.21875 34.90625 
L 20.21875 43.015625 
L 29.109375 43.015625 
Q 36.375 43.015625 40.234375 45.921875 
Q 44.09375 48.828125 44.09375 54.296875 
Q 44.09375 59.90625 40.109375 62.90625 
Q 36.140625 65.921875 28.71875 65.921875 
Q 24.65625 65.921875 20.015625 65.03125 
Q 15.375 64.15625 9.8125 62.3125 
L 9.8125 71.09375 
Q 15.4375 72.65625 20.34375 73.4375 
Q 25.25 74.21875 29.59375 74.21875 
Q 40.828125 74.21875 47.359375 69.109375 
Q 53.90625 64.015625 53.90625 55.328125 
Q 53.90625 49.265625 50.4375 45.09375 
Q 46.96875 40.921875 40.578125 39.3125 
z
" id="DejaVuSans-51"/>
      </defs>
      <g transform="translate(305.742162 321.470523)rotate(-335)scale(0.1 -0.1)">
       <use xlink:href="#DejaVuSans-51"/>
       <use x="63.623047" xlink:href="#DejaVuSans-48"/>
       <use x="127.246094" xlink:href="#DejaVuSans-46"/>
       <use x="159.033203" xlink:href="#DejaVuSans-48"/>
       <use x="222.65625" xlink:href="#DejaVuSans-32"/>
       <use x="254.443359" xlink:href="#DejaVuSans-117"/>
       <use x="317.822266" xlink:href="#DejaVuSans-115"/>
      </g>
     </g>
    </g>
    <g id="xtick_5">
     <g id="line2d_5">
      <g>
       <use style="stroke:#000000;stroke-width:0.8;" x="371.793008" xlink:href="#m914fc76bfd" y="307.584"/>
      </g>
     </g>
     <g id="text_5">
      <!-- 35.0 us -->
      <g transform="translate(368.581769 321.470523)rotate(-335)scale(0.1 -0.1)">
       <use xlink:href="#DejaVuSans-51"/>
       <use x="63.623047" xlink:href="#DejaVuSans-53"/>
       <use x="127.246094" xlink:href="#DejaVuSans-46"/>
       <use x="159.033203" xlink:href="#DejaVuSans-48"/>
       <use x="222.65625" xlink:href="#DejaVuSans-32"/>
       <use x="254.443359" xlink:href="#DejaVuSans-117"/>
       <use x="317.822266" xlink:href="#DejaVuSans-115"/>
      </g>
     </g>
    </g>
   </g>
   <g id="matplotlib.axis_2">
    <g id="ytick_1">
     <g id="line2d_6">
      <defs>
       <path d="M 0 0 
L -3.5 0 
" id="mac2b9f4079" style="stroke:#000000;stroke-width:0.8;"/>
      </defs>
      <g>
       <use style="stroke:#000000;stroke-width:0.8;" x="57.6" xlink:href="#mac2b9f4079" y="307.584"/>
      </g>
     </g>
     <g id="text_6">
      <!-- 0 -->
      <g transform="translate(44.2375 311.383219)scale(0.1 -0.1)">
       <use xlink:href="#DejaVuSans-48"/>
      </g>
     </g>
    </g>
    <g id="ytick_2">
     <g id="line2d_7">
      <g>
       <use style="stroke:#000000;stroke-width:0.8;" x="57.6" xlink:href="#mac2b9f4079" y="263.011365"/>
      </g>
     </g>
     <g id="text_7">
      <!-- 2000 -->
      <g transform="translate(25.15 266.810584)scale(0.1 -0.1)">
       <use xlink:href="#DejaVuSans-50"/>
       <use x="63.623047" xlink:href="#DejaVuSans-48"/>
       <use x="127.246094" xlink:href="#DejaVuSans-48"/>
       <use x="190.869141" xlink:href="#DejaVuSans-48"/>
      </g>
     </g>
    </g>
    <g id="ytick_3">
     <g id="line2d_8">
      <g>
       <use style="stroke:#000000;stroke-width:0.8;" x="57.6" xlink:href="#mac2b9f4079" y="218.438731"/>
      </g>
     </g>
     <g id="text_8">
      <!-- 4000 -->
      <defs>
       <path d="M 37.796875 64.3125 
L 12.890625 25.390625 
L 37.796875 25.390625 
z
M 35.203125 72.90625 
L 47.609375 72.90625 
L 47.609375 25.390625 
L 58.015625 25.390625 
L 58.015625 17.1875 
L 47.609375 17.1875 
L 47.609375 0 
L 37.796875 0 
L 37.796875 17.1875 
L 4.890625 17.1875 
L 4.890625 26.703125 
z
" id="DejaVuSans-52"/>
      </defs>
      <g transform="translate(25.15 222.23795)scale(0.1 -0.1)">
       <use xlink:href="#DejaVuSans-52"/>
       <use x="63.623047" xlink:href="#DejaVuSans-48"/>
       <use x="127.246094" xlink:href="#DejaVuSans-48"/>
       <use x="190.869141" xlink:href="#DejaVuSans-48"/>
      </g>
     </g>
    </g>
    <g id="ytick_4">
     <g id="line2d_9">
      <g>
       <use style="stroke:#000000;stroke-width:0.8;" x="57.6" xlink:href="#mac2b9f4079" y="173.866096"/>
      </g>
     </g>
     <g id="text_9">
      <!-- 6000 -->
      <defs>
       <path d="M 33.015625 40.375 
Q 26.375 40.375 22.484375 35.828125 
Q 18.609375 31.296875 18.609375 23.390625 
Q 18.609375 15.53125 22.484375 10.953125 
Q 26.375 6.390625 33.015625 6.390625 
Q 39.65625 6.390625 43.53125 10.953125 
Q 47.40625 15.53125 47.40625 23.390625 
Q 47.40625 31.296875 43.53125 35.828125 
Q 39.65625 40.375 33.015625 40.375 
z
M 52.59375 71.296875 
L 52.59375 62.3125 
Q 48.875 64.0625 45.09375 64.984375 
Q 41.3125 65.921875 37.59375 65.921875 
Q 27.828125 65.921875 22.671875 59.328125 
Q 17.53125 52.734375 16.796875 39.40625 
Q 19.671875 43.65625 24.015625 45.921875 
Q 28.375 48.1875 33.59375 48.1875 
Q 44.578125 48.1875 50.953125 41.515625 
Q 57.328125 34.859375 57.328125 23.390625 
Q 57.328125 12.15625 50.6875 5.359375 
Q 44.046875 -1.421875 33.015625 -1.421875 
Q 20.359375 -1.421875 13.671875 8.265625 
Q 6.984375 17.96875 6.984375 36.375 
Q 6.984375 53.65625 15.1875 63.9375 
Q 23.390625 74.21875 37.203125 74.21875 
Q 40.921875 74.21875 44.703125 73.484375 
Q 48.484375 72.75 52.59375 71.296875 
z
" id="DejaVuSans-54"/>
      </defs>
      <g transform="translate(25.15 177.665315)scale(0.1 -0.1)">
       <use xlink:href="#DejaVuSans-54"/>
       <use x="63.623047" xlink:href="#DejaVuSans-48"/>
       <use x="127.246094" xlink:href="#DejaVuSans-48"/>
       <use x="190.869141" xlink:href="#DejaVuSans-48"/>
      </g>
     </g>
    </g>
    <g id="ytick_5">
     <g id="line2d_10">
      <g>
       <use style="stroke:#000000;stroke-width:0.8;" x="57.6" xlink:href="#mac2b9f4079" y="129.293462"/>
      </g>
     </g>
     <g id="text_10">
      <!-- 8000 -->
      <defs>
       <path d="M 31.78125 34.625 
Q 24.75 34.625 20.71875 30.859375 
Q 16.703125 27.09375 16.703125 20.515625 
Q 16.703125 13.921875 20.71875 10.15625 
Q 24.75 6.390625 31.78125 6.390625 
Q 38.8125 6.390625 42.859375 10.171875 
Q 46.921875 13.96875 46.921875 20.515625 
Q 46.921875 27.09375 42.890625 30.859375 
Q 38.875 34.625 31.78125 34.625 
z
M 21.921875 38.8125 
Q 15.578125 40.375 12.03125 44.71875 
Q 8.5 49.078125 8.5 55.328125 
Q 8.5 64.0625 14.71875 69.140625 
Q 20.953125 74.21875 31.78125 74.21875 
Q 42.671875 74.21875 48.875 69.140625 
Q 55.078125 64.0625 55.078125 55.328125 
Q 55.078125 49.078125 51.53125 44.71875 
Q 48 40.375 41.703125 38.8125 
Q 48.828125 37.15625 52.796875 32.3125 
Q 56.78125 27.484375 56.78125 20.515625 
Q 56.78125 9.90625 50.3125 4.234375 
Q 43.84375 -1.421875 31.78125 -1.421875 
Q 19.734375 -1.421875 13.25 4.234375 
Q 6.78125 9.90625 6.78125 20.515625 
Q 6.78125 27.484375 10.78125 32.3125 
Q 14.796875 37.15625 21.921875 38.8125 
z
M 18.3125 54.390625 
Q 18.3125 48.734375 21.84375 45.5625 
Q 25.390625 42.390625 31.78125 42.390625 
Q 38.140625 42.390625 41.71875 45.5625 
Q 45.3125 48.734375 45.3125 54.390625 
Q 45.3125 60.0625 41.71875 63.234375 
Q 38.140625 66.40625 31.78125 66.40625 
Q 25.390625 66.40625 21.84375 63.234375 
Q 18.3125 60.0625 18.3125 54.390625 
z
" id="DejaVuSans-56"/>
      </defs>
      <g transform="translate(25.15 133.092681)scale(0.1 -0.1)">
       <use xlink:href="#DejaVuSans-56"/>
       <use x="63.623047" xlink:href="#DejaVuSans-48"/>
       <use x="127.246094" xlink:href="#DejaVuSans-48"/>
       <use x="190.869141" xlink:href="#DejaVuSans-48"/>
      </g>
     </g>
    </g>
    <g id="ytick_6">
     <g id="line2d_11">
      <g>
       <use style="stroke:#000000;stroke-width:0.8;" x="57.6" xlink:href="#mac2b9f4079" y="84.720827"/>
      </g>
     </g>
     <g id="text_11">
      <!-- 10000 -->
      <g transform="translate(18.7875 88.520046)scale(0.1 -0.1)">
       <use xlink:href="#DejaVuSans-49"/>
       <use x="63.623047" xlink:href="#DejaVuSans-48"/>
       <use x="127.246094" xlink:href="#DejaVuSans-48"/>
       <use x="190.869141" xlink:href="#DejaVuSans-48"/>
       <use x="254.492188" xlink:href="#DejaVuSans-48"/>
      </g>
     </g>
    </g>
    <g id="text_12">
     <!-- Number of samples -->
     <defs>
      <path d="M 9.8125 72.90625 
L 23.09375 72.90625 
L 55.421875 11.921875 
L 55.421875 72.90625 
L 64.984375 72.90625 
L 64.984375 0 
L 51.703125 0 
L 19.390625 60.984375 
L 19.390625 0 
L 9.8125 0 
z
" id="DejaVuSans-78"/>
      <path d="M 52 44.1875 
Q 55.375 50.25 60.0625 53.125 
Q 64.75 56 71.09375 56 
Q 79.640625 56 84.28125 50.015625 
Q 88.921875 44.046875 88.921875 33.015625 
L 88.921875 0 
L 79.890625 0 
L 79.890625 32.71875 
Q 79.890625 40.578125 77.09375 44.375 
Q 74.3125 48.1875 68.609375 48.1875 
Q 61.625 48.1875 57.5625 43.546875 
Q 53.515625 38.921875 53.515625 30.90625 
L 53.515625 0 
L 44.484375 0 
L 44.484375 32.71875 
Q 44.484375 40.625 41.703125 44.40625 
Q 38.921875 48.1875 33.109375 48.1875 
Q 26.21875 48.1875 22.15625 43.53125 
Q 18.109375 38.875 18.109375 30.90625 
L 18.109375 0 
L 9.078125 0 
L 9.078125 54.6875 
L 18.109375 54.6875 
L 18.109375 46.1875 
Q 21.1875 51.21875 25.484375 53.609375 
Q 29.78125 56 35.6875 56 
Q 41.65625 56 45.828125 52.96875 
Q 50 49.953125 52 44.1875 
z
" id="DejaVuSans-109"/>
      <path d="M 48.6875 27.296875 
Q 48.6875 37.203125 44.609375 42.84375 
Q 40.53125 48.484375 33.40625 48.484375 
Q 26.265625 48.484375 22.1875 42.84375 
Q 18.109375 37.203125 18.109375 27.296875 
Q 18.109375 17.390625 22.1875 11.75 
Q 26.265625 6.109375 33.40625 6.109375 
Q 40.53125 6.109375 44.609375 11.75 
Q 48.6875 17.390625 48.6875 27.296875 
z
M 18.109375 46.390625 
Q 20.953125 51.265625 25.265625 53.625 
Q 29.59375 56 35.59375 56 
Q 45.5625 56 51.78125 48.09375 
Q 58.015625 40.1875 58.015625 27.296875 
Q 58.015625 14.40625 51.78125 6.484375 
Q 45.5625 -1.421875 35.59375 -1.421875 
Q 29.59375 -1.421875 25.265625 0.953125 
Q 20.953125 3.328125 18.109375 8.203125 
L 18.109375 0 
L 9.078125 0 
L 9.078125 75.984375 
L 18.109375 75.984375 
z
" id="DejaVuSans-98"/>
      <path d="M 56.203125 29.59375 
L 56.203125 25.203125 
L 14.890625 25.203125 
Q 15.484375 15.921875 20.484375 11.0625 
Q 25.484375 6.203125 34.421875 6.203125 
Q 39.59375 6.203125 44.453125 7.46875 
Q 49.3125 8.734375 54.109375 11.28125 
L 54.109375 2.78125 
Q 49.265625 0.734375 44.1875 -0.34375 
Q 39.109375 -1.421875 33.890625 -1.421875 
Q 20.796875 -1.421875 13.15625 6.1875 
Q 5.515625 13.8125 5.515625 26.8125 
Q 5.515625 40.234375 12.765625 48.109375 
Q 20.015625 56 32.328125 56 
Q 43.359375 56 49.78125 48.890625 
Q 56.203125 41.796875 56.203125 29.59375 
z
M 47.21875 32.234375 
Q 47.125 39.59375 43.09375 43.984375 
Q 39.0625 48.390625 32.421875 48.390625 
Q 24.90625 48.390625 20.390625 44.140625 
Q 15.875 39.890625 15.1875 32.171875 
z
" id="DejaVuSans-101"/>
      <path d="M 41.109375 46.296875 
Q 39.59375 47.171875 37.8125 47.578125 
Q 36.03125 48 33.890625 48 
Q 26.265625 48 22.1875 43.046875 
Q 18.109375 38.09375 18.109375 28.8125 
L 18.109375 0 
L 9.078125 0 
L 9.078125 54.6875 
L 18.109375 54.6875 
L 18.109375 46.1875 
Q 20.953125 51.171875 25.484375 53.578125 
Q 30.03125 56 36.53125 56 
Q 37.453125 56 38.578125 55.875 
Q 39.703125 55.765625 41.0625 55.515625 
z
" id="DejaVuSans-114"/>
      <path d="M 30.609375 48.390625 
Q 23.390625 48.390625 19.1875 42.75 
Q 14.984375 37.109375 14.984375 27.296875 
Q 14.984375 17.484375 19.15625 11.84375 
Q 23.34375 6.203125 30.609375 6.203125 
Q 37.796875 6.203125 41.984375 11.859375 
Q 46.1875 17.53125 46.1875 27.296875 
Q 46.1875 37.015625 41.984375 42.703125 
Q 37.796875 48.390625 30.609375 48.390625 
z
M 30.609375 56 
Q 42.328125 56 49.015625 48.375 
Q 55.71875 40.765625 55.71875 27.296875 
Q 55.71875 13.875 49.015625 6.21875 
Q 42.328125 -1.421875 30.609375 -1.421875 
Q 18.84375 -1.421875 12.171875 6.21875 
Q 5.515625 13.875 5.515625 27.296875 
Q 5.515625 40.765625 12.171875 48.375 
Q 18.84375 56 30.609375 56 
z
" id="DejaVuSans-111"/>
      <path d="M 37.109375 75.984375 
L 37.109375 68.5 
L 28.515625 68.5 
Q 23.6875 68.5 21.796875 66.546875 
Q 19.921875 64.59375 19.921875 59.515625 
L 19.921875 54.6875 
L 34.71875 54.6875 
L 34.71875 47.703125 
L 19.921875 47.703125 
L 19.921875 0 
L 10.890625 0 
L 10.890625 47.703125 
L 2.296875 47.703125 
L 2.296875 54.6875 
L 10.890625 54.6875 
L 10.890625 58.5 
Q 10.890625 67.625 15.140625 71.796875 
Q 19.390625 75.984375 28.609375 75.984375 
z
" id="DejaVuSans-102"/>
      <path d="M 34.28125 27.484375 
Q 23.390625 27.484375 19.1875 25 
Q 14.984375 22.515625 14.984375 16.5 
Q 14.984375 11.71875 18.140625 8.90625 
Q 21.296875 6.109375 26.703125 6.109375 
Q 34.1875 6.109375 38.703125 11.40625 
Q 43.21875 16.703125 43.21875 25.484375 
L 43.21875 27.484375 
z
M 52.203125 31.203125 
L 52.203125 0 
L 43.21875 0 
L 43.21875 8.296875 
Q 40.140625 3.328125 35.546875 0.953125 
Q 30.953125 -1.421875 24.3125 -1.421875 
Q 15.921875 -1.421875 10.953125 3.296875 
Q 6 8.015625 6 15.921875 
Q 6 25.140625 12.171875 29.828125 
Q 18.359375 34.515625 30.609375 34.515625 
L 43.21875 34.515625 
L 43.21875 35.40625 
Q 43.21875 41.609375 39.140625 45 
Q 35.0625 48.390625 27.6875 48.390625 
Q 23 48.390625 18.546875 47.265625 
Q 14.109375 46.140625 10.015625 43.890625 
L 10.015625 52.203125 
Q 14.9375 54.109375 19.578125 55.046875 
Q 24.21875 56 28.609375 56 
Q 40.484375 56 46.34375 49.84375 
Q 52.203125 43.703125 52.203125 31.203125 
z
" id="DejaVuSans-97"/>
      <path d="M 18.109375 8.203125 
L 18.109375 -20.796875 
L 9.078125 -20.796875 
L 9.078125 54.6875 
L 18.109375 54.6875 
L 18.109375 46.390625 
Q 20.953125 51.265625 25.265625 53.625 
Q 29.59375 56 35.59375 56 
Q 45.5625 56 51.78125 48.09375 
Q 58.015625 40.1875 58.015625 27.296875 
Q 58.015625 14.40625 51.78125 6.484375 
Q 45.5625 -1.421875 35.59375 -1.421875 
Q 29.59375 -1.421875 25.265625 0.953125 
Q 20.953125 3.328125 18.109375 8.203125 
z
M 48.6875 27.296875 
Q 48.6875 37.203125 44.609375 42.84375 
Q 40.53125 48.484375 33.40625 48.484375 
Q 26.265625 48.484375 22.1875 42.84375 
Q 18.109375 37.203125 18.109375 27.296875 
Q 18.109375 17.390625 22.1875 11.75 
Q 26.265625 6.109375 33.40625 6.109375 
Q 40.53125 6.109375 44.609375 11.75 
Q 48.6875 17.390625 48.6875 27.296875 
z
" id="DejaVuSans-112"/>
      <path d="M 9.421875 75.984375 
L 18.40625 75.984375 
L 18.40625 0 
L 9.421875 0 
z
" id="DejaVuSans-108"/>
     </defs>
     <g transform="translate(12.707812 223.395187)rotate(-90)scale(0.1 -0.1)">
      <use xlink:href="#DejaVuSans-78"/>
      <use x="74.804688" xlink:href="#DejaVuSans-117"/>
      <use x="138.183594" xlink:href="#DejaVuSans-109"/>
      <use x="235.595703" xlink:href="#DejaVuSans-98"/>
      <use x="299.072266" xlink:href="#DejaVuSans-101"/>
      <use x="360.595703" xlink:href="#DejaVuSans-114"/>
      <use x="401.708984" xlink:href="#DejaVuSans-32"/>
      <use x="433.496094" xlink:href="#DejaVuSans-111"/>
      <use x="494.677734" xlink:href="#DejaVuSans-102"/>
      <use x="529.882812" xlink:href="#DejaVuSans-32"/>
      <use x="561.669922" xlink:href="#DejaVuSans-115"/>
      <use x="613.769531" xlink:href="#DejaVuSans-97"/>
      <use x="675.048828" xlink:href="#DejaVuSans-109"/>
      <use x="772.460938" xlink:href="#DejaVuSans-112"/>
      <use x="835.9375" xlink:href="#DejaVuSans-108"/>
      <use x="863.720703" xlink:href="#DejaVuSans-101"/>
      <use x="925.244141" xlink:href="#DejaVuSans-115"/>
     </g>
    </g>
   </g>
   <g id="line2d_12">
    <path clip-path="url(#p34b5faa12a)" d="M 229.863471 307.584 
L 229.863471 41.472 
" style="fill:none;stroke:#fe6f5e;stroke-dasharray:5.55,2.4;stroke-dashoffset:0;stroke-width:1.5;"/>
   </g>
   <g id="line2d_13">
    <path clip-path="url(#p34b5faa12a)" d="M 230.403892 307.584 
L 230.403892 41.472 
" style="fill:none;stroke:#5e9dfe;stroke-dasharray:5.55,2.4;stroke-dashoffset:0;stroke-width:1.5;"/>
   </g>
   <g id="line2d_14">
    <path clip-path="url(#p34b5faa12a)" d="M 236.09716 307.584 
L 236.09716 41.472 
" style="fill:none;stroke:#5eedfe;stroke-dasharray:5.55,2.4;stroke-dashoffset:0;stroke-width:1.5;"/>
   </g>
   <g id="patch_303">
    <path d="M 57.6 307.584 
L 57.6 41.472 
" style="fill:none;stroke:#000000;stroke-linecap:square;stroke-linejoin:miter;stroke-width:0.8;"/>
   </g>
   <g id="patch_304">
    <path d="M 414.72 307.584 
L 414.72 41.472 
" style="fill:none;stroke:#000000;stroke-linecap:square;stroke-linejoin:miter;stroke-width:0.8;"/>
   </g>
   <g id="patch_305">
    <path d="M 57.6 307.584 
L 414.72 307.584 
" style="fill:none;stroke:#000000;stroke-linecap:square;stroke-linejoin:miter;stroke-width:0.8;"/>
   </g>
   <g id="patch_306">
    <path d="M 57.6 41.472 
L 414.72 41.472 
" style="fill:none;stroke:#000000;stroke-linecap:square;stroke-linejoin:miter;stroke-width:0.8;"/>
   </g>
   <g id="text_13">
    <!-- command samples -->
    <defs>
     <path d="M 48.78125 52.59375 
L 48.78125 44.1875 
Q 44.96875 46.296875 41.140625 47.34375 
Q 37.3125 48.390625 33.40625 48.390625 
Q 24.65625 48.390625 19.8125 42.84375 
Q 14.984375 37.3125 14.984375 27.296875 
Q 14.984375 17.28125 19.8125 11.734375 
Q 24.65625 6.203125 33.40625 6.203125 
Q 37.3125 6.203125 41.140625 7.25 
Q 44.96875 8.296875 48.78125 10.40625 
L 48.78125 2.09375 
Q 45.015625 0.34375 40.984375 -0.53125 
Q 36.96875 -1.421875 32.421875 -1.421875 
Q 20.0625 -1.421875 12.78125 6.34375 
Q 5.515625 14.109375 5.515625 27.296875 
Q 5.515625 40.671875 12.859375 48.328125 
Q 20.21875 56 33.015625 56 
Q 37.15625 56 41.109375 55.140625 
Q 45.0625 54.296875 48.78125 52.59375 
z
" id="DejaVuSans-99"/>
     <path d="M 54.890625 33.015625 
L 54.890625 0 
L 45.90625 0 
L 45.90625 32.71875 
Q 45.90625 40.484375 42.875 44.328125 
Q 39.84375 48.1875 33.796875 48.1875 
Q 26.515625 48.1875 22.3125 43.546875 
Q 18.109375 38.921875 18.109375 30.90625 
L 18.109375 0 
L 9.078125 0 
L 9.078125 54.6875 
L 18.109375 54.6875 
L 18.109375 46.1875 
Q 21.34375 51.125 25.703125 53.5625 
Q 30.078125 56 35.796875 56 
Q 45.21875 56 50.046875 50.171875 
Q 54.890625 44.34375 54.890625 33.015625 
z
" id="DejaVuSans-110"/>
     <path d="M 45.40625 46.390625 
L 45.40625 75.984375 
L 54.390625 75.984375 
L 54.390625 0 
L 45.40625 0 
L 45.40625 8.203125 
Q 42.578125 3.328125 38.25 0.953125 
Q 33.9375 -1.421875 27.875 -1.421875 
Q 17.96875 -1.421875 11.734375 6.484375 
Q 5.515625 14.40625 5.515625 27.296875 
Q 5.515625 40.1875 11.734375 48.09375 
Q 17.96875 56 27.875 56 
Q 33.9375 56 38.25 53.625 
Q 42.578125 51.265625 45.40625 46.390625 
z
M 14.796875 27.296875 
Q 14.796875 17.390625 18.875 11.75 
Q 22.953125 6.109375 30.078125 6.109375 
Q 37.203125 6.109375 41.296875 11.75 
Q 45.40625 17.390625 45.40625 27.296875 
Q 45.40625 37.203125 41.296875 42.84375 
Q 37.203125 48.484375 30.078125 48.484375 
Q 22.953125 48.484375 18.875 42.84375 
Q 14.796875 37.203125 14.796875 27.296875 
z
" id="DejaVuSans-100"/>
    </defs>
    <g transform="translate(179.365313 35.472)scale(0.12 -0.12)">
     <use xlink:href="#DejaVuSans-99"/>
     <use x="54.980469" xlink:href="#DejaVuSans-111"/>
     <use x="116.162109" xlink:href="#DejaVuSans-109"/>
     <use x="213.574219" xlink:href="#DejaVuSans-109"/>
     <use x="310.986328" xlink:href="#DejaVuSans-97"/>
     <use x="372.265625" xlink:href="#DejaVuSans-110"/>
     <use x="435.644531" xlink:href="#DejaVuSans-100"/>
     <use x="499.121094" xlink:href="#DejaVuSans-32"/>
     <use x="530.908203" xlink:href="#DejaVuSans-115"/>
     <use x="583.007812" xlink:href="#DejaVuSans-97"/>
     <use x="644.287109" xlink:href="#DejaVuSans-109"/>
     <use x="741.699219" xlink:href="#DejaVuSans-112"/>
     <use x="805.175781" xlink:href="#DejaVuSans-108"/>
     <use x="832.958984" xlink:href="#DejaVuSans-101"/>
     <use x="894.482422" xlink:href="#DejaVuSans-115"/>
    </g>
   </g>
   <g id="legend_1">
    <g id="patch_307">
     <path d="M 344.146563 94.062625 
L 407.72 94.062625 
Q 409.72 94.062625 409.72 92.062625 
L 409.72 48.472 
Q 409.72 46.472 407.72 46.472 
L 344.146563 46.472 
Q 342.146563 46.472 342.146563 48.472 
L 342.146563 92.062625 
Q 342.146563 94.062625 344.146563 94.062625 
z
" style="fill:#ffffff;opacity:0.8;stroke:#cccccc;stroke-linejoin:miter;"/>
    </g>
    <g id="patch_308">
     <path d="M 346.146563 58.070437 
L 366.146563 58.070437 
L 366.146563 51.070437 
L 346.146563 51.070437 
z
" style="fill:#fe6f5e;fill-opacity:0.815686;"/>
    </g>
    <g id="text_14">
     <!-- ash -->
     <defs>
      <path d="M 54.890625 33.015625 
L 54.890625 0 
L 45.90625 0 
L 45.90625 32.71875 
Q 45.90625 40.484375 42.875 44.328125 
Q 39.84375 48.1875 33.796875 48.1875 
Q 26.515625 48.1875 22.3125 43.546875 
Q 18.109375 38.921875 18.109375 30.90625 
L 18.109375 0 
L 9.078125 0 
L 9.078125 75.984375 
L 18.109375 75.984375 
L 18.109375 46.1875 
Q 21.34375 51.125 25.703125 53.5625 
Q 30.078125 56 35.796875 56 
Q 45.21875 56 50.046875 50.171875 
Q 54.890625 44.34375 54.890625 33.015625 
z
" id="DejaVuSans-104"/>
     </defs>
     <g transform="translate(374.146563 58.070437)scale(0.1 -0.1)">
      <use xlink:href="#DejaVuSans-97"/>
      <use x="61.279297" xlink:href="#DejaVuSans-115"/>
      <use x="113.378906" xlink:href="#DejaVuSans-104"/>
     </g>
    </g>
    <g id="patch_309">
     <path d="M 346.146563 72.748562 
L 366.146563 72.748562 
L 366.146563 65.748562 
L 346.146563 65.748562 
z
" style="fill:#5e9dfe;fill-opacity:0.815686;"/>
    </g>
    <g id="text_15">
     <!-- vy_ST -->
     <defs>
      <path d="M 2.984375 54.6875 
L 12.5 54.6875 
L 29.59375 8.796875 
L 46.6875 54.6875 
L 56.203125 54.6875 
L 35.6875 0 
L 23.484375 0 
z
" id="DejaVuSans-118"/>
      <path d="M 32.171875 -5.078125 
Q 28.375 -14.84375 24.75 -17.8125 
Q 21.140625 -20.796875 15.09375 -20.796875 
L 7.90625 -20.796875 
L 7.90625 -13.28125 
L 13.1875 -13.28125 
Q 16.890625 -13.28125 18.9375 -11.515625 
Q 21 -9.765625 23.484375 -3.21875 
L 25.09375 0.875 
L 2.984375 54.6875 
L 12.5 54.6875 
L 29.59375 11.921875 
L 46.6875 54.6875 
L 56.203125 54.6875 
z
" id="DejaVuSans-121"/>
      <path d="M 50.984375 -16.609375 
L 50.984375 -23.578125 
L -0.984375 -23.578125 
L -0.984375 -16.609375 
z
" id="DejaVuSans-95"/>
      <path d="M 53.515625 70.515625 
L 53.515625 60.890625 
Q 47.90625 63.578125 42.921875 64.890625 
Q 37.9375 66.21875 33.296875 66.21875 
Q 25.25 66.21875 20.875 63.09375 
Q 16.5 59.96875 16.5 54.203125 
Q 16.5 49.359375 19.40625 46.890625 
Q 22.3125 44.4375 30.421875 42.921875 
L 36.375 41.703125 
Q 47.40625 39.59375 52.65625 34.296875 
Q 57.90625 29 57.90625 20.125 
Q 57.90625 9.515625 50.796875 4.046875 
Q 43.703125 -1.421875 29.984375 -1.421875 
Q 24.8125 -1.421875 18.96875 -0.25 
Q 13.140625 0.921875 6.890625 3.21875 
L 6.890625 13.375 
Q 12.890625 10.015625 18.65625 8.296875 
Q 24.421875 6.59375 29.984375 6.59375 
Q 38.421875 6.59375 43.015625 9.90625 
Q 47.609375 13.234375 47.609375 19.390625 
Q 47.609375 24.75 44.3125 27.78125 
Q 41.015625 30.8125 33.5 32.328125 
L 27.484375 33.5 
Q 16.453125 35.6875 11.515625 40.375 
Q 6.59375 45.0625 6.59375 53.421875 
Q 6.59375 63.09375 13.40625 68.65625 
Q 20.21875 74.21875 32.171875 74.21875 
Q 37.3125 74.21875 42.625 73.28125 
Q 47.953125 72.359375 53.515625 70.515625 
z
" id="DejaVuSans-83"/>
      <path d="M -0.296875 72.90625 
L 61.375 72.90625 
L 61.375 64.59375 
L 35.5 64.59375 
L 35.5 0 
L 25.59375 0 
L 25.59375 64.59375 
L -0.296875 64.59375 
z
" id="DejaVuSans-84"/>
     </defs>
     <g transform="translate(374.146563 72.748562)scale(0.1 -0.1)">
      <use xlink:href="#DejaVuSans-118"/>
      <use x="59.179688" xlink:href="#DejaVuSans-121"/>
      <use x="118.359375" xlink:href="#DejaVuSans-95"/>
      <use x="168.359375" xlink:href="#DejaVuSans-83"/>
      <use x="231.835938" xlink:href="#DejaVuSans-84"/>
     </g>
    </g>
    <g id="patch_310">
     <path d="M 346.146563 87.704812 
L 366.146563 87.704812 
L 366.146563 80.704812 
L 346.146563 80.704812 
z
" style="fill:#5eedfe;fill-opacity:0.815686;"/>
    </g>
    <g id="text_16">
     <!-- vy_MT -->
     <defs>
      <path d="M 9.8125 72.90625 
L 24.515625 72.90625 
L 43.109375 23.296875 
L 61.8125 72.90625 
L 76.515625 72.90625 
L 76.515625 0 
L 66.890625 0 
L 66.890625 64.015625 
L 48.09375 14.015625 
L 38.1875 14.015625 
L 19.390625 64.015625 
L 19.390625 0 
L 9.8125 0 
z
" id="DejaVuSans-77"/>
     </defs>
     <g transform="translate(374.146563 87.704812)scale(0.1 -0.1)">
      <use xlink:href="#DejaVuSans-118"/>
      <use x="59.179688" xlink:href="#DejaVuSans-121"/>
      <use x="118.359375" xlink:href="#DejaVuSans-95"/>
      <use x="168.359375" xlink:href="#DejaVuSans-77"/>
      <use x="254.638672" xlink:href="#DejaVuSans-84"/>
     </g>
    </g>
   </g>
  </g>
 </g>
 <defs>
  <clipPath id="p34b5faa12a">
   <rect height="266.112" width="357.12" x="57.6" y="41.472"/>
  </clipPath>
 </defs>
</svg>
