<?xml version="1.0" encoding="utf-8" standalone="no"?>
<!DOCTYPE svg PUBLIC "-//W3C//DTD SVG 1.1//EN"
  "http://www.w3.org/Graphics/SVG/1.1/DTD/svg11.dtd">
<!-- Created with matplotlib (https://matplotlib.org/) -->
<svg height="345.6pt" version="1.1" viewBox="0 0 460.8 345.6" width="460.8pt" xmlns="http://www.w3.org/2000/svg" xmlns:xlink="http://www.w3.org/1999/xlink">
 <defs>
  <style type="text/css">
*{stroke-linecap:butt;stroke-linejoin:round;}
  </style>
 </defs>
 <g id="figure_1">
  <g id="patch_1">
   <path d="M 0 345.6 
L 460.8 345.6 
L 460.8 0 
L 0 0 
z
" style="fill:#ffffff;"/>
  </g>
  <g id="axes_1">
   <g id="patch_2">
    <path d="M 57.6 307.584 
L 414.72 307.584 
L 414.72 41.472 
L 57.6 41.472 
z
" style="fill:#ffffff;"/>
   </g>
   <g id="patch_3">
    <path clip-path="url(#p1052857a8d)" d="M 73.832727 307.584 
L 76.602476 307.584 
L 76.602476 307.472275 
L 73.832727 307.472275 
z
" style="fill:#fe6f5e;fill-opacity:0.815686;"/>
   </g>
   <g id="patch_4">
    <path clip-path="url(#p1052857a8d)" d="M 76.602476 307.584 
L 79.372224 307.584 
L 79.372224 306.610397 
L 76.602476 306.610397 
z
" style="fill:#fe6f5e;fill-opacity:0.815686;"/>
   </g>
   <g id="patch_5">
    <path clip-path="url(#p1052857a8d)" d="M 79.372224 307.584 
L 82.141972 307.584 
L 82.141972 306.402908 
L 79.372224 306.402908 
z
" style="fill:#fe6f5e;fill-opacity:0.815686;"/>
   </g>
   <g id="patch_6">
    <path clip-path="url(#p1052857a8d)" d="M 82.141972 307.584 
L 84.911721 307.584 
L 84.911721 307.105179 
L 82.141972 307.105179 
z
" style="fill:#fe6f5e;fill-opacity:0.815686;"/>
   </g>
   <g id="patch_7">
    <path clip-path="url(#p1052857a8d)" d="M 84.911721 307.584 
L 87.681469 307.584 
L 87.681469 307.057297 
L 84.911721 307.057297 
z
" style="fill:#fe6f5e;fill-opacity:0.815686;"/>
   </g>
   <g id="patch_8">
    <path clip-path="url(#p1052857a8d)" d="M 87.681469 307.584 
L 90.451218 307.584 
L 90.451218 306.626358 
L 87.681469 306.626358 
z
" style="fill:#fe6f5e;fill-opacity:0.815686;"/>
   </g>
   <g id="patch_9">
    <path clip-path="url(#p1052857a8d)" d="M 90.451218 307.584 
L 93.220966 307.584 
L 93.220966 306.482712 
L 90.451218 306.482712 
z
" style="fill:#fe6f5e;fill-opacity:0.815686;"/>
   </g>
   <g id="patch_10">
    <path clip-path="url(#p1052857a8d)" d="M 93.220966 307.584 
L 95.990714 307.584 
L 95.990714 305.716598 
L 93.220966 305.716598 
z
" style="fill:#fe6f5e;fill-opacity:0.815686;"/>
   </g>
   <g id="patch_11">
    <path clip-path="url(#p1052857a8d)" d="M 95.990714 307.584 
L 98.760463 307.584 
L 98.760463 304.040724 
L 95.990714 304.040724 
z
" style="fill:#fe6f5e;fill-opacity:0.815686;"/>
   </g>
   <g id="patch_12">
    <path clip-path="url(#p1052857a8d)" d="M 98.760463 307.584 
L 101.530211 307.584 
L 101.530211 299.348277 
L 98.760463 299.348277 
z
" style="fill:#fe6f5e;fill-opacity:0.815686;"/>
   </g>
   <g id="patch_13">
    <path clip-path="url(#p1052857a8d)" d="M 101.530211 307.584 
L 104.299959 307.584 
L 104.299959 292.485175 
L 101.530211 292.485175 
z
" style="fill:#fe6f5e;fill-opacity:0.815686;"/>
   </g>
   <g id="patch_14">
    <path clip-path="url(#p1052857a8d)" d="M 104.299959 307.584 
L 107.069708 307.584 
L 107.069708 272.470454 
L 104.299959 272.470454 
z
" style="fill:#fe6f5e;fill-opacity:0.815686;"/>
   </g>
   <g id="patch_15">
    <path clip-path="url(#p1052857a8d)" d="M 107.069708 307.584 
L 109.839456 307.584 
L 109.839456 204.014999 
L 107.069708 204.014999 
z
" style="fill:#fe6f5e;fill-opacity:0.815686;"/>
   </g>
   <g id="patch_16">
    <path clip-path="url(#p1052857a8d)" d="M 109.839456 307.584 
L 112.609205 307.584 
L 112.609205 93.965954 
L 109.839456 93.965954 
z
" style="fill:#fe6f5e;fill-opacity:0.815686;"/>
   </g>
   <g id="patch_17">
    <path clip-path="url(#p1052857a8d)" d="M 112.609205 307.584 
L 115.378953 307.584 
L 115.378953 54.144 
L 112.609205 54.144 
z
" style="fill:#fe6f5e;fill-opacity:0.815686;"/>
   </g>
   <g id="patch_18">
    <path clip-path="url(#p1052857a8d)" d="M 115.378953 307.584 
L 118.148701 307.584 
L 118.148701 83.016911 
L 115.378953 83.016911 
z
" style="fill:#fe6f5e;fill-opacity:0.815686;"/>
   </g>
   <g id="patch_19">
    <path clip-path="url(#p1052857a8d)" d="M 118.148701 307.584 
L 120.91845 307.584 
L 120.91845 117.747401 
L 118.148701 117.747401 
z
" style="fill:#fe6f5e;fill-opacity:0.815686;"/>
   </g>
   <g id="patch_20">
    <path clip-path="url(#p1052857a8d)" d="M 120.91845 307.584 
L 123.688198 307.584 
L 123.688198 153.212082 
L 120.91845 153.212082 
z
" style="fill:#fe6f5e;fill-opacity:0.815686;"/>
   </g>
   <g id="patch_21">
    <path clip-path="url(#p1052857a8d)" d="M 123.688198 307.584 
L 126.457947 307.584 
L 126.457947 190.097267 
L 123.688198 190.097267 
z
" style="fill:#fe6f5e;fill-opacity:0.815686;"/>
   </g>
   <g id="patch_22">
    <path clip-path="url(#p1052857a8d)" d="M 126.457947 307.584 
L 129.227695 307.584 
L 129.227695 224.827756 
L 126.457947 224.827756 
z
" style="fill:#fe6f5e;fill-opacity:0.815686;"/>
   </g>
   <g id="patch_23">
    <path clip-path="url(#p1052857a8d)" d="M 129.227695 307.584 
L 131.997443 307.584 
L 131.997443 250.652173 
L 129.227695 250.652173 
z
" style="fill:#fe6f5e;fill-opacity:0.815686;"/>
   </g>
   <g id="patch_24">
    <path clip-path="url(#p1052857a8d)" d="M 131.997443 307.584 
L 134.767192 307.584 
L 134.767192 273.348292 
L 131.997443 273.348292 
z
" style="fill:#fe6f5e;fill-opacity:0.815686;"/>
   </g>
   <g id="patch_25">
    <path clip-path="url(#p1052857a8d)" d="M 134.767192 307.584 
L 137.53694 307.584 
L 137.53694 283.73871 
L 134.767192 283.73871 
z
" style="fill:#fe6f5e;fill-opacity:0.815686;"/>
   </g>
   <g id="patch_26">
    <path clip-path="url(#p1052857a8d)" d="M 137.53694 307.584 
L 140.306688 307.584 
L 140.306688 292.564979 
L 137.53694 292.564979 
z
" style="fill:#fe6f5e;fill-opacity:0.815686;"/>
   </g>
   <g id="patch_27">
    <path clip-path="url(#p1052857a8d)" d="M 140.306688 307.584 
L 143.076437 307.584 
L 143.076437 298.454478 
L 140.306688 298.454478 
z
" style="fill:#fe6f5e;fill-opacity:0.815686;"/>
   </g>
   <g id="patch_28">
    <path clip-path="url(#p1052857a8d)" d="M 143.076437 307.584 
L 145.846185 307.584 
L 145.846185 302.36485 
L 143.076437 302.36485 
z
" style="fill:#fe6f5e;fill-opacity:0.815686;"/>
   </g>
   <g id="patch_29">
    <path clip-path="url(#p1052857a8d)" d="M 145.846185 307.584 
L 148.615934 307.584 
L 148.615934 304.551466 
L 145.846185 304.551466 
z
" style="fill:#fe6f5e;fill-opacity:0.815686;"/>
   </g>
   <g id="patch_30">
    <path clip-path="url(#p1052857a8d)" d="M 148.615934 307.584 
L 151.385682 307.584 
L 151.385682 305.780441 
L 148.615934 305.780441 
z
" style="fill:#fe6f5e;fill-opacity:0.815686;"/>
   </g>
   <g id="patch_31">
    <path clip-path="url(#p1052857a8d)" d="M 151.385682 307.584 
L 154.15543 307.584 
L 154.15543 306.610397 
L 151.385682 306.610397 
z
" style="fill:#fe6f5e;fill-opacity:0.815686;"/>
   </g>
   <g id="patch_32">
    <path clip-path="url(#p1052857a8d)" d="M 154.15543 307.584 
L 156.925179 307.584 
L 156.925179 307.057297 
L 154.15543 307.057297 
z
" style="fill:#fe6f5e;fill-opacity:0.815686;"/>
   </g>
   <g id="patch_33">
    <path clip-path="url(#p1052857a8d)" d="M 156.925179 307.584 
L 159.694927 307.584 
L 159.694927 307.105179 
L 156.925179 307.105179 
z
" style="fill:#fe6f5e;fill-opacity:0.815686;"/>
   </g>
   <g id="patch_34">
    <path clip-path="url(#p1052857a8d)" d="M 159.694927 307.584 
L 162.464676 307.584 
L 162.464676 307.376511 
L 159.694927 307.376511 
z
" style="fill:#fe6f5e;fill-opacity:0.815686;"/>
   </g>
   <g id="patch_35">
    <path clip-path="url(#p1052857a8d)" d="M 162.464676 307.584 
L 165.234424 307.584 
L 165.234424 307.328629 
L 162.464676 307.328629 
z
" style="fill:#fe6f5e;fill-opacity:0.815686;"/>
   </g>
   <g id="patch_36">
    <path clip-path="url(#p1052857a8d)" d="M 165.234424 307.584 
L 168.004172 307.584 
L 168.004172 307.488236 
L 165.234424 307.488236 
z
" style="fill:#fe6f5e;fill-opacity:0.815686;"/>
   </g>
   <g id="patch_37">
    <path clip-path="url(#p1052857a8d)" d="M 168.004172 307.584 
L 170.773921 307.584 
L 170.773921 307.488236 
L 168.004172 307.488236 
z
" style="fill:#fe6f5e;fill-opacity:0.815686;"/>
   </g>
   <g id="patch_38">
    <path clip-path="url(#p1052857a8d)" d="M 170.773921 307.584 
L 173.543669 307.584 
L 173.543669 307.536118 
L 170.773921 307.536118 
z
" style="fill:#fe6f5e;fill-opacity:0.815686;"/>
   </g>
   <g id="patch_39">
    <path clip-path="url(#p1052857a8d)" d="M 173.543669 307.584 
L 176.313417 307.584 
L 176.313417 307.488236 
L 173.543669 307.488236 
z
" style="fill:#fe6f5e;fill-opacity:0.815686;"/>
   </g>
   <g id="patch_40">
    <path clip-path="url(#p1052857a8d)" d="M 176.313417 307.584 
L 179.083166 307.584 
L 179.083166 307.552079 
L 176.313417 307.552079 
z
" style="fill:#fe6f5e;fill-opacity:0.815686;"/>
   </g>
   <g id="patch_41">
    <path clip-path="url(#p1052857a8d)" d="M 179.083166 307.584 
L 181.852914 307.584 
L 181.852914 307.568039 
L 179.083166 307.568039 
z
" style="fill:#fe6f5e;fill-opacity:0.815686;"/>
   </g>
   <g id="patch_42">
    <path clip-path="url(#p1052857a8d)" d="M 181.852914 307.584 
L 184.622663 307.584 
L 184.622663 307.504196 
L 181.852914 307.504196 
z
" style="fill:#fe6f5e;fill-opacity:0.815686;"/>
   </g>
   <g id="patch_43">
    <path clip-path="url(#p1052857a8d)" d="M 184.622663 307.584 
L 187.392411 307.584 
L 187.392411 307.520157 
L 184.622663 307.520157 
z
" style="fill:#fe6f5e;fill-opacity:0.815686;"/>
   </g>
   <g id="patch_44">
    <path clip-path="url(#p1052857a8d)" d="M 187.392411 307.584 
L 190.162159 307.584 
L 190.162159 307.584 
L 187.392411 307.584 
z
" style="fill:#fe6f5e;fill-opacity:0.815686;"/>
   </g>
   <g id="patch_45">
    <path clip-path="url(#p1052857a8d)" d="M 190.162159 307.584 
L 192.931908 307.584 
L 192.931908 307.520157 
L 190.162159 307.520157 
z
" style="fill:#fe6f5e;fill-opacity:0.815686;"/>
   </g>
   <g id="patch_46">
    <path clip-path="url(#p1052857a8d)" d="M 192.931908 307.584 
L 195.701656 307.584 
L 195.701656 307.568039 
L 192.931908 307.568039 
z
" style="fill:#fe6f5e;fill-opacity:0.815686;"/>
   </g>
   <g id="patch_47">
    <path clip-path="url(#p1052857a8d)" d="M 195.701656 307.584 
L 198.471405 307.584 
L 198.471405 307.520157 
L 195.701656 307.520157 
z
" style="fill:#fe6f5e;fill-opacity:0.815686;"/>
   </g>
   <g id="patch_48">
    <path clip-path="url(#p1052857a8d)" d="M 198.471405 307.584 
L 201.241153 307.584 
L 201.241153 307.584 
L 198.471405 307.584 
z
" style="fill:#fe6f5e;fill-opacity:0.815686;"/>
   </g>
   <g id="patch_49">
    <path clip-path="url(#p1052857a8d)" d="M 201.241153 307.584 
L 204.010901 307.584 
L 204.010901 307.568039 
L 201.241153 307.568039 
z
" style="fill:#fe6f5e;fill-opacity:0.815686;"/>
   </g>
   <g id="patch_50">
    <path clip-path="url(#p1052857a8d)" d="M 204.010901 307.584 
L 206.78065 307.584 
L 206.78065 307.520157 
L 204.010901 307.520157 
z
" style="fill:#fe6f5e;fill-opacity:0.815686;"/>
   </g>
   <g id="patch_51">
    <path clip-path="url(#p1052857a8d)" d="M 206.78065 307.584 
L 209.550398 307.584 
L 209.550398 307.536118 
L 206.78065 307.536118 
z
" style="fill:#fe6f5e;fill-opacity:0.815686;"/>
   </g>
   <g id="patch_52">
    <path clip-path="url(#p1052857a8d)" d="M 209.550398 307.584 
L 212.320146 307.584 
L 212.320146 307.568039 
L 209.550398 307.568039 
z
" style="fill:#fe6f5e;fill-opacity:0.815686;"/>
   </g>
   <g id="patch_53">
    <path clip-path="url(#p1052857a8d)" d="M 212.320146 307.584 
L 215.089895 307.584 
L 215.089895 307.584 
L 212.320146 307.584 
z
" style="fill:#fe6f5e;fill-opacity:0.815686;"/>
   </g>
   <g id="patch_54">
    <path clip-path="url(#p1052857a8d)" d="M 215.089895 307.584 
L 217.859643 307.584 
L 217.859643 307.584 
L 215.089895 307.584 
z
" style="fill:#fe6f5e;fill-opacity:0.815686;"/>
   </g>
   <g id="patch_55">
    <path clip-path="url(#p1052857a8d)" d="M 217.859643 307.584 
L 220.629392 307.584 
L 220.629392 307.568039 
L 217.859643 307.568039 
z
" style="fill:#fe6f5e;fill-opacity:0.815686;"/>
   </g>
   <g id="patch_56">
    <path clip-path="url(#p1052857a8d)" d="M 220.629392 307.584 
L 223.39914 307.584 
L 223.39914 307.568039 
L 220.629392 307.568039 
z
" style="fill:#fe6f5e;fill-opacity:0.815686;"/>
   </g>
   <g id="patch_57">
    <path clip-path="url(#p1052857a8d)" d="M 223.39914 307.584 
L 226.168888 307.584 
L 226.168888 307.568039 
L 223.39914 307.568039 
z
" style="fill:#fe6f5e;fill-opacity:0.815686;"/>
   </g>
   <g id="patch_58">
    <path clip-path="url(#p1052857a8d)" d="M 226.168888 307.584 
L 228.938637 307.584 
L 228.938637 307.584 
L 226.168888 307.584 
z
" style="fill:#fe6f5e;fill-opacity:0.815686;"/>
   </g>
   <g id="patch_59">
    <path clip-path="url(#p1052857a8d)" d="M 228.938637 307.584 
L 231.708385 307.584 
L 231.708385 307.536118 
L 228.938637 307.536118 
z
" style="fill:#fe6f5e;fill-opacity:0.815686;"/>
   </g>
   <g id="patch_60">
    <path clip-path="url(#p1052857a8d)" d="M 231.708385 307.584 
L 234.478134 307.584 
L 234.478134 307.568039 
L 231.708385 307.568039 
z
" style="fill:#fe6f5e;fill-opacity:0.815686;"/>
   </g>
   <g id="patch_61">
    <path clip-path="url(#p1052857a8d)" d="M 234.478134 307.584 
L 237.247882 307.584 
L 237.247882 307.568039 
L 234.478134 307.568039 
z
" style="fill:#fe6f5e;fill-opacity:0.815686;"/>
   </g>
   <g id="patch_62">
    <path clip-path="url(#p1052857a8d)" d="M 237.247882 307.584 
L 240.01763 307.584 
L 240.01763 307.584 
L 237.247882 307.584 
z
" style="fill:#fe6f5e;fill-opacity:0.815686;"/>
   </g>
   <g id="patch_63">
    <path clip-path="url(#p1052857a8d)" d="M 240.01763 307.584 
L 242.787379 307.584 
L 242.787379 307.584 
L 240.01763 307.584 
z
" style="fill:#fe6f5e;fill-opacity:0.815686;"/>
   </g>
   <g id="patch_64">
    <path clip-path="url(#p1052857a8d)" d="M 242.787379 307.584 
L 245.557127 307.584 
L 245.557127 307.552079 
L 242.787379 307.552079 
z
" style="fill:#fe6f5e;fill-opacity:0.815686;"/>
   </g>
   <g id="patch_65">
    <path clip-path="url(#p1052857a8d)" d="M 245.557127 307.584 
L 248.326875 307.584 
L 248.326875 307.584 
L 245.557127 307.584 
z
" style="fill:#fe6f5e;fill-opacity:0.815686;"/>
   </g>
   <g id="patch_66">
    <path clip-path="url(#p1052857a8d)" d="M 248.326875 307.584 
L 251.096624 307.584 
L 251.096624 307.520157 
L 248.326875 307.520157 
z
" style="fill:#fe6f5e;fill-opacity:0.815686;"/>
   </g>
   <g id="patch_67">
    <path clip-path="url(#p1052857a8d)" d="M 251.096624 307.584 
L 253.866372 307.584 
L 253.866372 307.520157 
L 251.096624 307.520157 
z
" style="fill:#fe6f5e;fill-opacity:0.815686;"/>
   </g>
   <g id="patch_68">
    <path clip-path="url(#p1052857a8d)" d="M 253.866372 307.584 
L 256.636121 307.584 
L 256.636121 307.536118 
L 253.866372 307.536118 
z
" style="fill:#fe6f5e;fill-opacity:0.815686;"/>
   </g>
   <g id="patch_69">
    <path clip-path="url(#p1052857a8d)" d="M 256.636121 307.584 
L 259.405869 307.584 
L 259.405869 307.568039 
L 256.636121 307.568039 
z
" style="fill:#fe6f5e;fill-opacity:0.815686;"/>
   </g>
   <g id="patch_70">
    <path clip-path="url(#p1052857a8d)" d="M 259.405869 307.584 
L 262.175617 307.584 
L 262.175617 307.584 
L 259.405869 307.584 
z
" style="fill:#fe6f5e;fill-opacity:0.815686;"/>
   </g>
   <g id="patch_71">
    <path clip-path="url(#p1052857a8d)" d="M 262.175617 307.584 
L 264.945366 307.584 
L 264.945366 307.568039 
L 262.175617 307.568039 
z
" style="fill:#fe6f5e;fill-opacity:0.815686;"/>
   </g>
   <g id="patch_72">
    <path clip-path="url(#p1052857a8d)" d="M 264.945366 307.584 
L 267.715114 307.584 
L 267.715114 307.552079 
L 264.945366 307.552079 
z
" style="fill:#fe6f5e;fill-opacity:0.815686;"/>
   </g>
   <g id="patch_73">
    <path clip-path="url(#p1052857a8d)" d="M 267.715114 307.584 
L 270.484863 307.584 
L 270.484863 307.552079 
L 267.715114 307.552079 
z
" style="fill:#fe6f5e;fill-opacity:0.815686;"/>
   </g>
   <g id="patch_74">
    <path clip-path="url(#p1052857a8d)" d="M 270.484863 307.584 
L 273.254611 307.584 
L 273.254611 307.584 
L 270.484863 307.584 
z
" style="fill:#fe6f5e;fill-opacity:0.815686;"/>
   </g>
   <g id="patch_75">
    <path clip-path="url(#p1052857a8d)" d="M 273.254611 307.584 
L 276.024359 307.584 
L 276.024359 307.568039 
L 273.254611 307.568039 
z
" style="fill:#fe6f5e;fill-opacity:0.815686;"/>
   </g>
   <g id="patch_76">
    <path clip-path="url(#p1052857a8d)" d="M 276.024359 307.584 
L 278.794108 307.584 
L 278.794108 307.568039 
L 276.024359 307.568039 
z
" style="fill:#fe6f5e;fill-opacity:0.815686;"/>
   </g>
   <g id="patch_77">
    <path clip-path="url(#p1052857a8d)" d="M 278.794108 307.584 
L 281.563856 307.584 
L 281.563856 307.536118 
L 278.794108 307.536118 
z
" style="fill:#fe6f5e;fill-opacity:0.815686;"/>
   </g>
   <g id="patch_78">
    <path clip-path="url(#p1052857a8d)" d="M 281.563856 307.584 
L 284.333604 307.584 
L 284.333604 307.552079 
L 281.563856 307.552079 
z
" style="fill:#fe6f5e;fill-opacity:0.815686;"/>
   </g>
   <g id="patch_79">
    <path clip-path="url(#p1052857a8d)" d="M 284.333604 307.584 
L 287.103353 307.584 
L 287.103353 307.568039 
L 284.333604 307.568039 
z
" style="fill:#fe6f5e;fill-opacity:0.815686;"/>
   </g>
   <g id="patch_80">
    <path clip-path="url(#p1052857a8d)" d="M 287.103353 307.584 
L 289.873101 307.584 
L 289.873101 307.568039 
L 287.103353 307.568039 
z
" style="fill:#fe6f5e;fill-opacity:0.815686;"/>
   </g>
   <g id="patch_81">
    <path clip-path="url(#p1052857a8d)" d="M 289.873101 307.584 
L 292.64285 307.584 
L 292.64285 307.568039 
L 289.873101 307.568039 
z
" style="fill:#fe6f5e;fill-opacity:0.815686;"/>
   </g>
   <g id="patch_82">
    <path clip-path="url(#p1052857a8d)" d="M 292.64285 307.584 
L 295.412598 307.584 
L 295.412598 307.568039 
L 292.64285 307.568039 
z
" style="fill:#fe6f5e;fill-opacity:0.815686;"/>
   </g>
   <g id="patch_83">
    <path clip-path="url(#p1052857a8d)" d="M 295.412598 307.584 
L 298.182346 307.584 
L 298.182346 307.568039 
L 295.412598 307.568039 
z
" style="fill:#fe6f5e;fill-opacity:0.815686;"/>
   </g>
   <g id="patch_84">
    <path clip-path="url(#p1052857a8d)" d="M 298.182346 307.584 
L 300.952095 307.584 
L 300.952095 307.584 
L 298.182346 307.584 
z
" style="fill:#fe6f5e;fill-opacity:0.815686;"/>
   </g>
   <g id="patch_85">
    <path clip-path="url(#p1052857a8d)" d="M 300.952095 307.584 
L 303.721843 307.584 
L 303.721843 307.584 
L 300.952095 307.584 
z
" style="fill:#fe6f5e;fill-opacity:0.815686;"/>
   </g>
   <g id="patch_86">
    <path clip-path="url(#p1052857a8d)" d="M 303.721843 307.584 
L 306.491592 307.584 
L 306.491592 307.568039 
L 303.721843 307.568039 
z
" style="fill:#fe6f5e;fill-opacity:0.815686;"/>
   </g>
   <g id="patch_87">
    <path clip-path="url(#p1052857a8d)" d="M 306.491592 307.584 
L 309.26134 307.584 
L 309.26134 307.584 
L 306.491592 307.584 
z
" style="fill:#fe6f5e;fill-opacity:0.815686;"/>
   </g>
   <g id="patch_88">
    <path clip-path="url(#p1052857a8d)" d="M 309.26134 307.584 
L 312.031088 307.584 
L 312.031088 307.584 
L 309.26134 307.584 
z
" style="fill:#fe6f5e;fill-opacity:0.815686;"/>
   </g>
   <g id="patch_89">
    <path clip-path="url(#p1052857a8d)" d="M 312.031088 307.584 
L 314.800837 307.584 
L 314.800837 307.568039 
L 312.031088 307.568039 
z
" style="fill:#fe6f5e;fill-opacity:0.815686;"/>
   </g>
   <g id="patch_90">
    <path clip-path="url(#p1052857a8d)" d="M 314.800837 307.584 
L 317.570585 307.584 
L 317.570585 307.584 
L 314.800837 307.584 
z
" style="fill:#fe6f5e;fill-opacity:0.815686;"/>
   </g>
   <g id="patch_91">
    <path clip-path="url(#p1052857a8d)" d="M 317.570585 307.584 
L 320.340333 307.584 
L 320.340333 307.584 
L 317.570585 307.584 
z
" style="fill:#fe6f5e;fill-opacity:0.815686;"/>
   </g>
   <g id="patch_92">
    <path clip-path="url(#p1052857a8d)" d="M 320.340333 307.584 
L 323.110082 307.584 
L 323.110082 307.584 
L 320.340333 307.584 
z
" style="fill:#fe6f5e;fill-opacity:0.815686;"/>
   </g>
   <g id="patch_93">
    <path clip-path="url(#p1052857a8d)" d="M 323.110082 307.584 
L 325.87983 307.584 
L 325.87983 307.584 
L 323.110082 307.584 
z
" style="fill:#fe6f5e;fill-opacity:0.815686;"/>
   </g>
   <g id="patch_94">
    <path clip-path="url(#p1052857a8d)" d="M 325.87983 307.584 
L 328.649579 307.584 
L 328.649579 307.584 
L 325.87983 307.584 
z
" style="fill:#fe6f5e;fill-opacity:0.815686;"/>
   </g>
   <g id="patch_95">
    <path clip-path="url(#p1052857a8d)" d="M 328.649579 307.584 
L 331.419327 307.584 
L 331.419327 307.584 
L 328.649579 307.584 
z
" style="fill:#fe6f5e;fill-opacity:0.815686;"/>
   </g>
   <g id="patch_96">
    <path clip-path="url(#p1052857a8d)" d="M 331.419327 307.584 
L 334.189075 307.584 
L 334.189075 307.584 
L 331.419327 307.584 
z
" style="fill:#fe6f5e;fill-opacity:0.815686;"/>
   </g>
   <g id="patch_97">
    <path clip-path="url(#p1052857a8d)" d="M 334.189075 307.584 
L 336.958824 307.584 
L 336.958824 307.584 
L 334.189075 307.584 
z
" style="fill:#fe6f5e;fill-opacity:0.815686;"/>
   </g>
   <g id="patch_98">
    <path clip-path="url(#p1052857a8d)" d="M 336.958824 307.584 
L 339.728572 307.584 
L 339.728572 307.568039 
L 336.958824 307.568039 
z
" style="fill:#fe6f5e;fill-opacity:0.815686;"/>
   </g>
   <g id="patch_99">
    <path clip-path="url(#p1052857a8d)" d="M 339.728572 307.584 
L 342.498321 307.584 
L 342.498321 307.584 
L 339.728572 307.584 
z
" style="fill:#fe6f5e;fill-opacity:0.815686;"/>
   </g>
   <g id="patch_100">
    <path clip-path="url(#p1052857a8d)" d="M 342.498321 307.584 
L 345.268069 307.584 
L 345.268069 307.584 
L 342.498321 307.584 
z
" style="fill:#fe6f5e;fill-opacity:0.815686;"/>
   </g>
   <g id="patch_101">
    <path clip-path="url(#p1052857a8d)" d="M 345.268069 307.584 
L 348.037817 307.584 
L 348.037817 307.584 
L 345.268069 307.584 
z
" style="fill:#fe6f5e;fill-opacity:0.815686;"/>
   </g>
   <g id="patch_102">
    <path clip-path="url(#p1052857a8d)" d="M 348.037817 307.584 
L 350.807566 307.584 
L 350.807566 307.568039 
L 348.037817 307.568039 
z
" style="fill:#fe6f5e;fill-opacity:0.815686;"/>
   </g>
   <g id="patch_103">
    <path clip-path="url(#p1052857a8d)" d="M 84.847343 307.584 
L 87.983742 307.584 
L 87.983742 307.536118 
L 84.847343 307.536118 
z
" style="fill:#5e9dfe;fill-opacity:0.815686;"/>
   </g>
   <g id="patch_104">
    <path clip-path="url(#p1052857a8d)" d="M 87.983742 307.584 
L 91.120142 307.584 
L 91.120142 307.472275 
L 87.983742 307.472275 
z
" style="fill:#5e9dfe;fill-opacity:0.815686;"/>
   </g>
   <g id="patch_105">
    <path clip-path="url(#p1052857a8d)" d="M 91.120142 307.584 
L 94.256541 307.584 
L 94.256541 307.488236 
L 91.120142 307.488236 
z
" style="fill:#5e9dfe;fill-opacity:0.815686;"/>
   </g>
   <g id="patch_106">
    <path clip-path="url(#p1052857a8d)" d="M 94.256541 307.584 
L 97.39294 307.584 
L 97.39294 307.200943 
L 94.256541 307.200943 
z
" style="fill:#5e9dfe;fill-opacity:0.815686;"/>
   </g>
   <g id="patch_107">
    <path clip-path="url(#p1052857a8d)" d="M 97.39294 307.584 
L 100.52934 307.584 
L 100.52934 306.89769 
L 97.39294 306.89769 
z
" style="fill:#5e9dfe;fill-opacity:0.815686;"/>
   </g>
   <g id="patch_108">
    <path clip-path="url(#p1052857a8d)" d="M 100.52934 307.584 
L 103.665739 307.584 
L 103.665739 304.423781 
L 100.52934 304.423781 
z
" style="fill:#5e9dfe;fill-opacity:0.815686;"/>
   </g>
   <g id="patch_109">
    <path clip-path="url(#p1052857a8d)" d="M 103.665739 307.584 
L 106.802138 307.584 
L 106.802138 301.886029 
L 103.665739 301.886029 
z
" style="fill:#5e9dfe;fill-opacity:0.815686;"/>
   </g>
   <g id="patch_110">
    <path clip-path="url(#p1052857a8d)" d="M 106.802138 307.584 
L 109.938538 307.584 
L 109.938538 301.806226 
L 106.802138 301.806226 
z
" style="fill:#5e9dfe;fill-opacity:0.815686;"/>
   </g>
   <g id="patch_111">
    <path clip-path="url(#p1052857a8d)" d="M 109.938538 307.584 
L 113.074937 307.584 
L 113.074937 297.464914 
L 109.938538 297.464914 
z
" style="fill:#5e9dfe;fill-opacity:0.815686;"/>
   </g>
   <g id="patch_112">
    <path clip-path="url(#p1052857a8d)" d="M 113.074937 307.584 
L 116.211336 307.584 
L 116.211336 288.351353 
L 113.074937 288.351353 
z
" style="fill:#5e9dfe;fill-opacity:0.815686;"/>
   </g>
   <g id="patch_113">
    <path clip-path="url(#p1052857a8d)" d="M 116.211336 307.584 
L 119.347735 307.584 
L 119.347735 271.161676 
L 116.211336 271.161676 
z
" style="fill:#5e9dfe;fill-opacity:0.815686;"/>
   </g>
   <g id="patch_114">
    <path clip-path="url(#p1052857a8d)" d="M 119.347735 307.584 
L 122.484135 307.584 
L 122.484135 202.402968 
L 119.347735 202.402968 
z
" style="fill:#5e9dfe;fill-opacity:0.815686;"/>
   </g>
   <g id="patch_115">
    <path clip-path="url(#p1052857a8d)" d="M 122.484135 307.584 
L 125.620534 307.584 
L 125.620534 102.457047 
L 122.484135 102.457047 
z
" style="fill:#5e9dfe;fill-opacity:0.815686;"/>
   </g>
   <g id="patch_116">
    <path clip-path="url(#p1052857a8d)" d="M 125.620534 307.584 
L 128.756933 307.584 
L 128.756933 62.826622 
L 125.620534 62.826622 
z
" style="fill:#5e9dfe;fill-opacity:0.815686;"/>
   </g>
   <g id="patch_117">
    <path clip-path="url(#p1052857a8d)" d="M 128.756933 307.584 
L 131.893333 307.584 
L 131.893333 89.57676 
L 128.756933 89.57676 
z
" style="fill:#5e9dfe;fill-opacity:0.815686;"/>
   </g>
   <g id="patch_118">
    <path clip-path="url(#p1052857a8d)" d="M 131.893333 307.584 
L 135.029732 307.584 
L 135.029732 111.15563 
L 131.893333 111.15563 
z
" style="fill:#5e9dfe;fill-opacity:0.815686;"/>
   </g>
   <g id="patch_119">
    <path clip-path="url(#p1052857a8d)" d="M 135.029732 307.584 
L 138.166131 307.584 
L 138.166131 146.716076 
L 135.029732 146.716076 
z
" style="fill:#5e9dfe;fill-opacity:0.815686;"/>
   </g>
   <g id="patch_120">
    <path clip-path="url(#p1052857a8d)" d="M 138.166131 307.584 
L 141.30253 307.584 
L 141.30253 196.258098 
L 138.166131 196.258098 
z
" style="fill:#5e9dfe;fill-opacity:0.815686;"/>
   </g>
   <g id="patch_121">
    <path clip-path="url(#p1052857a8d)" d="M 141.30253 307.584 
L 144.43893 307.584 
L 144.43893 231.387605 
L 141.30253 231.387605 
z
" style="fill:#5e9dfe;fill-opacity:0.815686;"/>
   </g>
   <g id="patch_122">
    <path clip-path="url(#p1052857a8d)" d="M 144.43893 307.584 
L 147.575329 307.584 
L 147.575329 252.296125 
L 144.43893 252.296125 
z
" style="fill:#5e9dfe;fill-opacity:0.815686;"/>
   </g>
   <g id="patch_123">
    <path clip-path="url(#p1052857a8d)" d="M 147.575329 307.584 
L 150.711728 307.584 
L 150.711728 272.502375 
L 147.575329 272.502375 
z
" style="fill:#5e9dfe;fill-opacity:0.815686;"/>
   </g>
   <g id="patch_124">
    <path clip-path="url(#p1052857a8d)" d="M 150.711728 307.584 
L 153.848128 307.584 
L 153.848128 284.026003 
L 150.711728 284.026003 
z
" style="fill:#5e9dfe;fill-opacity:0.815686;"/>
   </g>
   <g id="patch_125">
    <path clip-path="url(#p1052857a8d)" d="M 153.848128 307.584 
L 156.984527 307.584 
L 156.984527 291.01679 
L 153.848128 291.01679 
z
" style="fill:#5e9dfe;fill-opacity:0.815686;"/>
   </g>
   <g id="patch_126">
    <path clip-path="url(#p1052857a8d)" d="M 156.984527 307.584 
L 160.120926 307.584 
L 160.120926 296.922251 
L 156.984527 296.922251 
z
" style="fill:#5e9dfe;fill-opacity:0.815686;"/>
   </g>
   <g id="patch_127">
    <path clip-path="url(#p1052857a8d)" d="M 160.120926 307.584 
L 163.257326 307.584 
L 163.257326 300.784741 
L 160.120926 300.784741 
z
" style="fill:#5e9dfe;fill-opacity:0.815686;"/>
   </g>
   <g id="patch_128">
    <path clip-path="url(#p1052857a8d)" d="M 163.257326 307.584 
L 166.393725 307.584 
L 166.393725 303.226728 
L 163.257326 303.226728 
z
" style="fill:#5e9dfe;fill-opacity:0.815686;"/>
   </g>
   <g id="patch_129">
    <path clip-path="url(#p1052857a8d)" d="M 166.393725 307.584 
L 169.530124 307.584 
L 169.530124 305.142012 
L 166.393725 305.142012 
z
" style="fill:#5e9dfe;fill-opacity:0.815686;"/>
   </g>
   <g id="patch_130">
    <path clip-path="url(#p1052857a8d)" d="M 169.530124 307.584 
L 172.666523 307.584 
L 172.666523 306.163497 
L 169.530124 306.163497 
z
" style="fill:#5e9dfe;fill-opacity:0.815686;"/>
   </g>
   <g id="patch_131">
    <path clip-path="url(#p1052857a8d)" d="M 172.666523 307.584 
L 175.802923 307.584 
L 175.802923 306.865768 
L 172.666523 306.865768 
z
" style="fill:#5e9dfe;fill-opacity:0.815686;"/>
   </g>
   <g id="patch_132">
    <path clip-path="url(#p1052857a8d)" d="M 175.802923 307.584 
L 178.939322 307.584 
L 178.939322 307.184982 
L 175.802923 307.184982 
z
" style="fill:#5e9dfe;fill-opacity:0.815686;"/>
   </g>
   <g id="patch_133">
    <path clip-path="url(#p1052857a8d)" d="M 178.939322 307.584 
L 182.075721 307.584 
L 182.075721 307.280747 
L 178.939322 307.280747 
z
" style="fill:#5e9dfe;fill-opacity:0.815686;"/>
   </g>
   <g id="patch_134">
    <path clip-path="url(#p1052857a8d)" d="M 182.075721 307.584 
L 185.212121 307.584 
L 185.212121 307.312668 
L 182.075721 307.312668 
z
" style="fill:#5e9dfe;fill-opacity:0.815686;"/>
   </g>
   <g id="patch_135">
    <path clip-path="url(#p1052857a8d)" d="M 185.212121 307.584 
L 188.34852 307.584 
L 188.34852 307.472275 
L 185.212121 307.472275 
z
" style="fill:#5e9dfe;fill-opacity:0.815686;"/>
   </g>
   <g id="patch_136">
    <path clip-path="url(#p1052857a8d)" d="M 188.34852 307.584 
L 191.484919 307.584 
L 191.484919 307.520157 
L 188.34852 307.520157 
z
" style="fill:#5e9dfe;fill-opacity:0.815686;"/>
   </g>
   <g id="patch_137">
    <path clip-path="url(#p1052857a8d)" d="M 191.484919 307.584 
L 194.621318 307.584 
L 194.621318 307.504196 
L 191.484919 307.504196 
z
" style="fill:#5e9dfe;fill-opacity:0.815686;"/>
   </g>
   <g id="patch_138">
    <path clip-path="url(#p1052857a8d)" d="M 194.621318 307.584 
L 197.757718 307.584 
L 197.757718 307.488236 
L 194.621318 307.488236 
z
" style="fill:#5e9dfe;fill-opacity:0.815686;"/>
   </g>
   <g id="patch_139">
    <path clip-path="url(#p1052857a8d)" d="M 197.757718 307.584 
L 200.894117 307.584 
L 200.894117 307.504196 
L 197.757718 307.504196 
z
" style="fill:#5e9dfe;fill-opacity:0.815686;"/>
   </g>
   <g id="patch_140">
    <path clip-path="url(#p1052857a8d)" d="M 200.894117 307.584 
L 204.030516 307.584 
L 204.030516 307.520157 
L 200.894117 307.520157 
z
" style="fill:#5e9dfe;fill-opacity:0.815686;"/>
   </g>
   <g id="patch_141">
    <path clip-path="url(#p1052857a8d)" d="M 204.030516 307.584 
L 207.166916 307.584 
L 207.166916 307.488236 
L 204.030516 307.488236 
z
" style="fill:#5e9dfe;fill-opacity:0.815686;"/>
   </g>
   <g id="patch_142">
    <path clip-path="url(#p1052857a8d)" d="M 207.166916 307.584 
L 210.303315 307.584 
L 210.303315 307.536118 
L 207.166916 307.536118 
z
" style="fill:#5e9dfe;fill-opacity:0.815686;"/>
   </g>
   <g id="patch_143">
    <path clip-path="url(#p1052857a8d)" d="M 210.303315 307.584 
L 213.439714 307.584 
L 213.439714 307.584 
L 210.303315 307.584 
z
" style="fill:#5e9dfe;fill-opacity:0.815686;"/>
   </g>
   <g id="patch_144">
    <path clip-path="url(#p1052857a8d)" d="M 213.439714 307.584 
L 216.576114 307.584 
L 216.576114 307.536118 
L 213.439714 307.536118 
z
" style="fill:#5e9dfe;fill-opacity:0.815686;"/>
   </g>
   <g id="patch_145">
    <path clip-path="url(#p1052857a8d)" d="M 216.576114 307.584 
L 219.712513 307.584 
L 219.712513 307.536118 
L 216.576114 307.536118 
z
" style="fill:#5e9dfe;fill-opacity:0.815686;"/>
   </g>
   <g id="patch_146">
    <path clip-path="url(#p1052857a8d)" d="M 219.712513 307.584 
L 222.848912 307.584 
L 222.848912 307.536118 
L 219.712513 307.536118 
z
" style="fill:#5e9dfe;fill-opacity:0.815686;"/>
   </g>
   <g id="patch_147">
    <path clip-path="url(#p1052857a8d)" d="M 222.848912 307.584 
L 225.985311 307.584 
L 225.985311 307.568039 
L 222.848912 307.568039 
z
" style="fill:#5e9dfe;fill-opacity:0.815686;"/>
   </g>
   <g id="patch_148">
    <path clip-path="url(#p1052857a8d)" d="M 225.985311 307.584 
L 229.121711 307.584 
L 229.121711 307.568039 
L 225.985311 307.568039 
z
" style="fill:#5e9dfe;fill-opacity:0.815686;"/>
   </g>
   <g id="patch_149">
    <path clip-path="url(#p1052857a8d)" d="M 229.121711 307.584 
L 232.25811 307.584 
L 232.25811 307.568039 
L 229.121711 307.568039 
z
" style="fill:#5e9dfe;fill-opacity:0.815686;"/>
   </g>
   <g id="patch_150">
    <path clip-path="url(#p1052857a8d)" d="M 232.25811 307.584 
L 235.394509 307.584 
L 235.394509 307.584 
L 232.25811 307.584 
z
" style="fill:#5e9dfe;fill-opacity:0.815686;"/>
   </g>
   <g id="patch_151">
    <path clip-path="url(#p1052857a8d)" d="M 235.394509 307.584 
L 238.530909 307.584 
L 238.530909 307.552079 
L 235.394509 307.552079 
z
" style="fill:#5e9dfe;fill-opacity:0.815686;"/>
   </g>
   <g id="patch_152">
    <path clip-path="url(#p1052857a8d)" d="M 238.530909 307.584 
L 241.667308 307.584 
L 241.667308 307.552079 
L 238.530909 307.552079 
z
" style="fill:#5e9dfe;fill-opacity:0.815686;"/>
   </g>
   <g id="patch_153">
    <path clip-path="url(#p1052857a8d)" d="M 241.667308 307.584 
L 244.803707 307.584 
L 244.803707 307.520157 
L 241.667308 307.520157 
z
" style="fill:#5e9dfe;fill-opacity:0.815686;"/>
   </g>
   <g id="patch_154">
    <path clip-path="url(#p1052857a8d)" d="M 244.803707 307.584 
L 247.940107 307.584 
L 247.940107 307.568039 
L 244.803707 307.568039 
z
" style="fill:#5e9dfe;fill-opacity:0.815686;"/>
   </g>
   <g id="patch_155">
    <path clip-path="url(#p1052857a8d)" d="M 247.940107 307.584 
L 251.076506 307.584 
L 251.076506 307.536118 
L 247.940107 307.536118 
z
" style="fill:#5e9dfe;fill-opacity:0.815686;"/>
   </g>
   <g id="patch_156">
    <path clip-path="url(#p1052857a8d)" d="M 251.076506 307.584 
L 254.212905 307.584 
L 254.212905 307.536118 
L 251.076506 307.536118 
z
" style="fill:#5e9dfe;fill-opacity:0.815686;"/>
   </g>
   <g id="patch_157">
    <path clip-path="url(#p1052857a8d)" d="M 254.212905 307.584 
L 257.349304 307.584 
L 257.349304 307.584 
L 254.212905 307.584 
z
" style="fill:#5e9dfe;fill-opacity:0.815686;"/>
   </g>
   <g id="patch_158">
    <path clip-path="url(#p1052857a8d)" d="M 257.349304 307.584 
L 260.485704 307.584 
L 260.485704 307.568039 
L 257.349304 307.568039 
z
" style="fill:#5e9dfe;fill-opacity:0.815686;"/>
   </g>
   <g id="patch_159">
    <path clip-path="url(#p1052857a8d)" d="M 260.485704 307.584 
L 263.622103 307.584 
L 263.622103 307.520157 
L 260.485704 307.520157 
z
" style="fill:#5e9dfe;fill-opacity:0.815686;"/>
   </g>
   <g id="patch_160">
    <path clip-path="url(#p1052857a8d)" d="M 263.622103 307.584 
L 266.758502 307.584 
L 266.758502 307.568039 
L 263.622103 307.568039 
z
" style="fill:#5e9dfe;fill-opacity:0.815686;"/>
   </g>
   <g id="patch_161">
    <path clip-path="url(#p1052857a8d)" d="M 266.758502 307.584 
L 269.894902 307.584 
L 269.894902 307.584 
L 266.758502 307.584 
z
" style="fill:#5e9dfe;fill-opacity:0.815686;"/>
   </g>
   <g id="patch_162">
    <path clip-path="url(#p1052857a8d)" d="M 269.894902 307.584 
L 273.031301 307.584 
L 273.031301 307.584 
L 269.894902 307.584 
z
" style="fill:#5e9dfe;fill-opacity:0.815686;"/>
   </g>
   <g id="patch_163">
    <path clip-path="url(#p1052857a8d)" d="M 273.031301 307.584 
L 276.1677 307.584 
L 276.1677 307.520157 
L 273.031301 307.520157 
z
" style="fill:#5e9dfe;fill-opacity:0.815686;"/>
   </g>
   <g id="patch_164">
    <path clip-path="url(#p1052857a8d)" d="M 276.1677 307.584 
L 279.304099 307.584 
L 279.304099 307.552079 
L 276.1677 307.552079 
z
" style="fill:#5e9dfe;fill-opacity:0.815686;"/>
   </g>
   <g id="patch_165">
    <path clip-path="url(#p1052857a8d)" d="M 279.304099 307.584 
L 282.440499 307.584 
L 282.440499 307.520157 
L 279.304099 307.520157 
z
" style="fill:#5e9dfe;fill-opacity:0.815686;"/>
   </g>
   <g id="patch_166">
    <path clip-path="url(#p1052857a8d)" d="M 282.440499 307.584 
L 285.576898 307.584 
L 285.576898 307.504196 
L 282.440499 307.504196 
z
" style="fill:#5e9dfe;fill-opacity:0.815686;"/>
   </g>
   <g id="patch_167">
    <path clip-path="url(#p1052857a8d)" d="M 285.576898 307.584 
L 288.713297 307.584 
L 288.713297 307.568039 
L 285.576898 307.568039 
z
" style="fill:#5e9dfe;fill-opacity:0.815686;"/>
   </g>
   <g id="patch_168">
    <path clip-path="url(#p1052857a8d)" d="M 288.713297 307.584 
L 291.849697 307.584 
L 291.849697 307.584 
L 288.713297 307.584 
z
" style="fill:#5e9dfe;fill-opacity:0.815686;"/>
   </g>
   <g id="patch_169">
    <path clip-path="url(#p1052857a8d)" d="M 291.849697 307.584 
L 294.986096 307.584 
L 294.986096 307.536118 
L 291.849697 307.536118 
z
" style="fill:#5e9dfe;fill-opacity:0.815686;"/>
   </g>
   <g id="patch_170">
    <path clip-path="url(#p1052857a8d)" d="M 294.986096 307.584 
L 298.122495 307.584 
L 298.122495 307.568039 
L 294.986096 307.568039 
z
" style="fill:#5e9dfe;fill-opacity:0.815686;"/>
   </g>
   <g id="patch_171">
    <path clip-path="url(#p1052857a8d)" d="M 298.122495 307.584 
L 301.258895 307.584 
L 301.258895 307.568039 
L 298.122495 307.568039 
z
" style="fill:#5e9dfe;fill-opacity:0.815686;"/>
   </g>
   <g id="patch_172">
    <path clip-path="url(#p1052857a8d)" d="M 301.258895 307.584 
L 304.395294 307.584 
L 304.395294 307.536118 
L 301.258895 307.536118 
z
" style="fill:#5e9dfe;fill-opacity:0.815686;"/>
   </g>
   <g id="patch_173">
    <path clip-path="url(#p1052857a8d)" d="M 304.395294 307.584 
L 307.531693 307.584 
L 307.531693 307.472275 
L 304.395294 307.472275 
z
" style="fill:#5e9dfe;fill-opacity:0.815686;"/>
   </g>
   <g id="patch_174">
    <path clip-path="url(#p1052857a8d)" d="M 307.531693 307.584 
L 310.668092 307.584 
L 310.668092 307.552079 
L 307.531693 307.552079 
z
" style="fill:#5e9dfe;fill-opacity:0.815686;"/>
   </g>
   <g id="patch_175">
    <path clip-path="url(#p1052857a8d)" d="M 310.668092 307.584 
L 313.804492 307.584 
L 313.804492 307.584 
L 310.668092 307.584 
z
" style="fill:#5e9dfe;fill-opacity:0.815686;"/>
   </g>
   <g id="patch_176">
    <path clip-path="url(#p1052857a8d)" d="M 313.804492 307.584 
L 316.940891 307.584 
L 316.940891 307.584 
L 313.804492 307.584 
z
" style="fill:#5e9dfe;fill-opacity:0.815686;"/>
   </g>
   <g id="patch_177">
    <path clip-path="url(#p1052857a8d)" d="M 316.940891 307.584 
L 320.07729 307.584 
L 320.07729 307.568039 
L 316.940891 307.568039 
z
" style="fill:#5e9dfe;fill-opacity:0.815686;"/>
   </g>
   <g id="patch_178">
    <path clip-path="url(#p1052857a8d)" d="M 320.07729 307.584 
L 323.21369 307.584 
L 323.21369 307.552079 
L 320.07729 307.552079 
z
" style="fill:#5e9dfe;fill-opacity:0.815686;"/>
   </g>
   <g id="patch_179">
    <path clip-path="url(#p1052857a8d)" d="M 323.21369 307.584 
L 326.350089 307.584 
L 326.350089 307.568039 
L 323.21369 307.568039 
z
" style="fill:#5e9dfe;fill-opacity:0.815686;"/>
   </g>
   <g id="patch_180">
    <path clip-path="url(#p1052857a8d)" d="M 326.350089 307.584 
L 329.486488 307.584 
L 329.486488 307.584 
L 326.350089 307.584 
z
" style="fill:#5e9dfe;fill-opacity:0.815686;"/>
   </g>
   <g id="patch_181">
    <path clip-path="url(#p1052857a8d)" d="M 329.486488 307.584 
L 332.622888 307.584 
L 332.622888 307.568039 
L 329.486488 307.568039 
z
" style="fill:#5e9dfe;fill-opacity:0.815686;"/>
   </g>
   <g id="patch_182">
    <path clip-path="url(#p1052857a8d)" d="M 332.622888 307.584 
L 335.759287 307.584 
L 335.759287 307.584 
L 332.622888 307.584 
z
" style="fill:#5e9dfe;fill-opacity:0.815686;"/>
   </g>
   <g id="patch_183">
    <path clip-path="url(#p1052857a8d)" d="M 335.759287 307.584 
L 338.895686 307.584 
L 338.895686 307.568039 
L 335.759287 307.568039 
z
" style="fill:#5e9dfe;fill-opacity:0.815686;"/>
   </g>
   <g id="patch_184">
    <path clip-path="url(#p1052857a8d)" d="M 338.895686 307.584 
L 342.032085 307.584 
L 342.032085 307.568039 
L 338.895686 307.568039 
z
" style="fill:#5e9dfe;fill-opacity:0.815686;"/>
   </g>
   <g id="patch_185">
    <path clip-path="url(#p1052857a8d)" d="M 342.032085 307.584 
L 345.168485 307.584 
L 345.168485 307.584 
L 342.032085 307.584 
z
" style="fill:#5e9dfe;fill-opacity:0.815686;"/>
   </g>
   <g id="patch_186">
    <path clip-path="url(#p1052857a8d)" d="M 345.168485 307.584 
L 348.304884 307.584 
L 348.304884 307.568039 
L 345.168485 307.568039 
z
" style="fill:#5e9dfe;fill-opacity:0.815686;"/>
   </g>
   <g id="patch_187">
    <path clip-path="url(#p1052857a8d)" d="M 348.304884 307.584 
L 351.441283 307.584 
L 351.441283 307.584 
L 348.304884 307.584 
z
" style="fill:#5e9dfe;fill-opacity:0.815686;"/>
   </g>
   <g id="patch_188">
    <path clip-path="url(#p1052857a8d)" d="M 351.441283 307.584 
L 354.577683 307.584 
L 354.577683 307.568039 
L 351.441283 307.568039 
z
" style="fill:#5e9dfe;fill-opacity:0.815686;"/>
   </g>
   <g id="patch_189">
    <path clip-path="url(#p1052857a8d)" d="M 354.577683 307.584 
L 357.714082 307.584 
L 357.714082 307.568039 
L 354.577683 307.568039 
z
" style="fill:#5e9dfe;fill-opacity:0.815686;"/>
   </g>
   <g id="patch_190">
    <path clip-path="url(#p1052857a8d)" d="M 357.714082 307.584 
L 360.850481 307.584 
L 360.850481 307.584 
L 357.714082 307.584 
z
" style="fill:#5e9dfe;fill-opacity:0.815686;"/>
   </g>
   <g id="patch_191">
    <path clip-path="url(#p1052857a8d)" d="M 360.850481 307.584 
L 363.98688 307.584 
L 363.98688 307.584 
L 360.850481 307.584 
z
" style="fill:#5e9dfe;fill-opacity:0.815686;"/>
   </g>
   <g id="patch_192">
    <path clip-path="url(#p1052857a8d)" d="M 363.98688 307.584 
L 367.12328 307.584 
L 367.12328 307.584 
L 363.98688 307.584 
z
" style="fill:#5e9dfe;fill-opacity:0.815686;"/>
   </g>
   <g id="patch_193">
    <path clip-path="url(#p1052857a8d)" d="M 367.12328 307.584 
L 370.259679 307.584 
L 370.259679 307.584 
L 367.12328 307.584 
z
" style="fill:#5e9dfe;fill-opacity:0.815686;"/>
   </g>
   <g id="patch_194">
    <path clip-path="url(#p1052857a8d)" d="M 370.259679 307.584 
L 373.396078 307.584 
L 373.396078 307.584 
L 370.259679 307.584 
z
" style="fill:#5e9dfe;fill-opacity:0.815686;"/>
   </g>
   <g id="patch_195">
    <path clip-path="url(#p1052857a8d)" d="M 373.396078 307.584 
L 376.532478 307.584 
L 376.532478 307.584 
L 373.396078 307.584 
z
" style="fill:#5e9dfe;fill-opacity:0.815686;"/>
   </g>
   <g id="patch_196">
    <path clip-path="url(#p1052857a8d)" d="M 376.532478 307.584 
L 379.668877 307.584 
L 379.668877 307.584 
L 376.532478 307.584 
z
" style="fill:#5e9dfe;fill-opacity:0.815686;"/>
   </g>
   <g id="patch_197">
    <path clip-path="url(#p1052857a8d)" d="M 379.668877 307.584 
L 382.805276 307.584 
L 382.805276 307.584 
L 379.668877 307.584 
z
" style="fill:#5e9dfe;fill-opacity:0.815686;"/>
   </g>
   <g id="patch_198">
    <path clip-path="url(#p1052857a8d)" d="M 382.805276 307.584 
L 385.941676 307.584 
L 385.941676 307.584 
L 382.805276 307.584 
z
" style="fill:#5e9dfe;fill-opacity:0.815686;"/>
   </g>
   <g id="patch_199">
    <path clip-path="url(#p1052857a8d)" d="M 385.941676 307.584 
L 389.078075 307.584 
L 389.078075 307.568039 
L 385.941676 307.568039 
z
" style="fill:#5e9dfe;fill-opacity:0.815686;"/>
   </g>
   <g id="patch_200">
    <path clip-path="url(#p1052857a8d)" d="M 389.078075 307.584 
L 392.214474 307.584 
L 392.214474 307.584 
L 389.078075 307.584 
z
" style="fill:#5e9dfe;fill-opacity:0.815686;"/>
   </g>
   <g id="patch_201">
    <path clip-path="url(#p1052857a8d)" d="M 392.214474 307.584 
L 395.350873 307.584 
L 395.350873 307.584 
L 392.214474 307.584 
z
" style="fill:#5e9dfe;fill-opacity:0.815686;"/>
   </g>
   <g id="patch_202">
    <path clip-path="url(#p1052857a8d)" d="M 395.350873 307.584 
L 398.487273 307.584 
L 398.487273 307.568039 
L 395.350873 307.568039 
z
" style="fill:#5e9dfe;fill-opacity:0.815686;"/>
   </g>
   <g id="patch_203">
    <path clip-path="url(#p1052857a8d)" d="M 78.761642 307.584 
L 81.869876 307.584 
L 81.869876 307.552079 
L 78.761642 307.552079 
z
" style="fill:#5eedfe;fill-opacity:0.815686;"/>
   </g>
   <g id="patch_204">
    <path clip-path="url(#p1052857a8d)" d="M 81.869876 307.584 
L 84.97811 307.584 
L 84.97811 307.472275 
L 81.869876 307.472275 
z
" style="fill:#5eedfe;fill-opacity:0.815686;"/>
   </g>
   <g id="patch_205">
    <path clip-path="url(#p1052857a8d)" d="M 84.97811 307.584 
L 88.086344 307.584 
L 88.086344 306.370987 
L 84.97811 306.370987 
z
" style="fill:#5eedfe;fill-opacity:0.815686;"/>
   </g>
   <g id="patch_206">
    <path clip-path="url(#p1052857a8d)" d="M 88.086344 307.584 
L 91.194578 307.584 
L 91.194578 305.525069 
L 88.086344 305.525069 
z
" style="fill:#5eedfe;fill-opacity:0.815686;"/>
   </g>
   <g id="patch_207">
    <path clip-path="url(#p1052857a8d)" d="M 91.194578 307.584 
L 94.302812 307.584 
L 94.302812 304.902602 
L 91.194578 304.902602 
z
" style="fill:#5eedfe;fill-opacity:0.815686;"/>
   </g>
   <g id="patch_208">
    <path clip-path="url(#p1052857a8d)" d="M 94.302812 307.584 
L 97.411047 307.584 
L 97.411047 304.822798 
L 94.302812 304.822798 
z
" style="fill:#5eedfe;fill-opacity:0.815686;"/>
   </g>
   <g id="patch_209">
    <path clip-path="url(#p1052857a8d)" d="M 97.411047 307.584 
L 100.519281 307.584 
L 100.519281 304.902602 
L 97.411047 304.902602 
z
" style="fill:#5eedfe;fill-opacity:0.815686;"/>
   </g>
   <g id="patch_210">
    <path clip-path="url(#p1052857a8d)" d="M 100.519281 307.584 
L 103.627515 307.584 
L 103.627515 303.94496 
L 100.519281 303.94496 
z
" style="fill:#5eedfe;fill-opacity:0.815686;"/>
   </g>
   <g id="patch_211">
    <path clip-path="url(#p1052857a8d)" d="M 103.627515 307.584 
L 106.735749 307.584 
L 106.735749 302.987318 
L 103.627515 302.987318 
z
" style="fill:#5eedfe;fill-opacity:0.815686;"/>
   </g>
   <g id="patch_212">
    <path clip-path="url(#p1052857a8d)" d="M 106.735749 307.584 
L 109.843983 307.584 
L 109.843983 299.699413 
L 106.735749 299.699413 
z
" style="fill:#5eedfe;fill-opacity:0.815686;"/>
   </g>
   <g id="patch_213">
    <path clip-path="url(#p1052857a8d)" d="M 109.843983 307.584 
L 112.952217 307.584 
L 112.952217 291.01679 
L 109.843983 291.01679 
z
" style="fill:#5eedfe;fill-opacity:0.815686;"/>
   </g>
   <g id="patch_214">
    <path clip-path="url(#p1052857a8d)" d="M 112.952217 307.584 
L 116.060451 307.584 
L 116.060451 284.121767 
L 112.952217 284.121767 
z
" style="fill:#5eedfe;fill-opacity:0.815686;"/>
   </g>
   <g id="patch_215">
    <path clip-path="url(#p1052857a8d)" d="M 116.060451 307.584 
L 119.168685 307.584 
L 119.168685 270.395562 
L 116.060451 270.395562 
z
" style="fill:#5eedfe;fill-opacity:0.815686;"/>
   </g>
   <g id="patch_216">
    <path clip-path="url(#p1052857a8d)" d="M 119.168685 307.584 
L 122.276919 307.584 
L 122.276919 226.759001 
L 119.168685 226.759001 
z
" style="fill:#5eedfe;fill-opacity:0.815686;"/>
   </g>
   <g id="patch_217">
    <path clip-path="url(#p1052857a8d)" d="M 122.276919 307.584 
L 125.385153 307.584 
L 125.385153 158.558918 
L 122.276919 158.558918 
z
" style="fill:#5eedfe;fill-opacity:0.815686;"/>
   </g>
   <g id="patch_218">
    <path clip-path="url(#p1052857a8d)" d="M 125.385153 307.584 
L 128.493387 307.584 
L 128.493387 120.476681 
L 125.385153 120.476681 
z
" style="fill:#5eedfe;fill-opacity:0.815686;"/>
   </g>
   <g id="patch_219">
    <path clip-path="url(#p1052857a8d)" d="M 128.493387 307.584 
L 131.601621 307.584 
L 131.601621 122.50369 
L 128.493387 122.50369 
z
" style="fill:#5eedfe;fill-opacity:0.815686;"/>
   </g>
   <g id="patch_220">
    <path clip-path="url(#p1052857a8d)" d="M 131.601621 307.584 
L 134.709855 307.584 
L 134.709855 132.143955 
L 131.601621 132.143955 
z
" style="fill:#5eedfe;fill-opacity:0.815686;"/>
   </g>
   <g id="patch_221">
    <path clip-path="url(#p1052857a8d)" d="M 134.709855 307.584 
L 137.818089 307.584 
L 137.818089 152.781143 
L 134.709855 152.781143 
z
" style="fill:#5eedfe;fill-opacity:0.815686;"/>
   </g>
   <g id="patch_222">
    <path clip-path="url(#p1052857a8d)" d="M 137.818089 307.584 
L 140.926323 307.584 
L 140.926323 182.244601 
L 137.818089 182.244601 
z
" style="fill:#5eedfe;fill-opacity:0.815686;"/>
   </g>
   <g id="patch_223">
    <path clip-path="url(#p1052857a8d)" d="M 140.926323 307.584 
L 144.034558 307.584 
L 144.034558 210.495045 
L 140.926323 210.495045 
z
" style="fill:#5eedfe;fill-opacity:0.815686;"/>
   </g>
   <g id="patch_224">
    <path clip-path="url(#p1052857a8d)" d="M 144.034558 307.584 
L 147.142792 307.584 
L 147.142792 232.297365 
L 144.034558 232.297365 
z
" style="fill:#5eedfe;fill-opacity:0.815686;"/>
   </g>
   <g id="patch_225">
    <path clip-path="url(#p1052857a8d)" d="M 147.142792 307.584 
L 150.251026 307.584 
L 150.251026 249.375317 
L 147.142792 249.375317 
z
" style="fill:#5eedfe;fill-opacity:0.815686;"/>
   </g>
   <g id="patch_226">
    <path clip-path="url(#p1052857a8d)" d="M 150.251026 307.584 
L 153.35926 307.584 
L 153.35926 262.686543 
L 150.251026 262.686543 
z
" style="fill:#5eedfe;fill-opacity:0.815686;"/>
   </g>
   <g id="patch_227">
    <path clip-path="url(#p1052857a8d)" d="M 153.35926 307.584 
L 156.467494 307.584 
L 156.467494 276.428708 
L 153.35926 276.428708 
z
" style="fill:#5eedfe;fill-opacity:0.815686;"/>
   </g>
   <g id="patch_228">
    <path clip-path="url(#p1052857a8d)" d="M 156.467494 307.584 
L 159.575728 307.584 
L 159.575728 285.207095 
L 156.467494 285.207095 
z
" style="fill:#5eedfe;fill-opacity:0.815686;"/>
   </g>
   <g id="patch_229">
    <path clip-path="url(#p1052857a8d)" d="M 159.575728 307.584 
L 162.683962 307.584 
L 162.683962 291.591376 
L 159.575728 291.591376 
z
" style="fill:#5eedfe;fill-opacity:0.815686;"/>
   </g>
   <g id="patch_230">
    <path clip-path="url(#p1052857a8d)" d="M 162.683962 307.584 
L 165.792196 307.584 
L 165.792196 296.45939 
L 162.683962 296.45939 
z
" style="fill:#5eedfe;fill-opacity:0.815686;"/>
   </g>
   <g id="patch_231">
    <path clip-path="url(#p1052857a8d)" d="M 165.792196 307.584 
L 168.90043 307.584 
L 168.90043 299.475963 
L 165.792196 299.475963 
z
" style="fill:#5eedfe;fill-opacity:0.815686;"/>
   </g>
   <g id="patch_232">
    <path clip-path="url(#p1052857a8d)" d="M 168.90043 307.584 
L 172.008664 307.584 
L 172.008664 302.285047 
L 168.90043 302.285047 
z
" style="fill:#5eedfe;fill-opacity:0.815686;"/>
   </g>
   <g id="patch_233">
    <path clip-path="url(#p1052857a8d)" d="M 172.008664 307.584 
L 175.116898 307.584 
L 175.116898 303.354414 
L 172.008664 303.354414 
z
" style="fill:#5eedfe;fill-opacity:0.815686;"/>
   </g>
   <g id="patch_234">
    <path clip-path="url(#p1052857a8d)" d="M 175.116898 307.584 
L 178.225132 307.584 
L 178.225132 303.817274 
L 175.116898 303.817274 
z
" style="fill:#5eedfe;fill-opacity:0.815686;"/>
   </g>
   <g id="patch_235">
    <path clip-path="url(#p1052857a8d)" d="M 178.225132 307.584 
L 181.333366 307.584 
L 181.333366 304.742995 
L 178.225132 304.742995 
z
" style="fill:#5eedfe;fill-opacity:0.815686;"/>
   </g>
   <g id="patch_236">
    <path clip-path="url(#p1052857a8d)" d="M 181.333366 307.584 
L 184.4416 307.584 
L 184.4416 305.828323 
L 181.333366 305.828323 
z
" style="fill:#5eedfe;fill-opacity:0.815686;"/>
   </g>
   <g id="patch_237">
    <path clip-path="url(#p1052857a8d)" d="M 184.4416 307.584 
L 187.549835 307.584 
L 187.549835 305.780441 
L 184.4416 305.780441 
z
" style="fill:#5eedfe;fill-opacity:0.815686;"/>
   </g>
   <g id="patch_238">
    <path clip-path="url(#p1052857a8d)" d="M 187.549835 307.584 
L 190.658069 307.584 
L 190.658069 305.876205 
L 187.549835 305.876205 
z
" style="fill:#5eedfe;fill-opacity:0.815686;"/>
   </g>
   <g id="patch_239">
    <path clip-path="url(#p1052857a8d)" d="M 190.658069 307.584 
L 193.766303 307.584 
L 193.766303 306.259262 
L 190.658069 306.259262 
z
" style="fill:#5eedfe;fill-opacity:0.815686;"/>
   </g>
   <g id="patch_240">
    <path clip-path="url(#p1052857a8d)" d="M 193.766303 307.584 
L 196.874537 307.584 
L 196.874537 306.22734 
L 193.766303 306.22734 
z
" style="fill:#5eedfe;fill-opacity:0.815686;"/>
   </g>
   <g id="patch_241">
    <path clip-path="url(#p1052857a8d)" d="M 196.874537 307.584 
L 199.982771 307.584 
L 199.982771 306.881729 
L 196.874537 306.881729 
z
" style="fill:#5eedfe;fill-opacity:0.815686;"/>
   </g>
   <g id="patch_242">
    <path clip-path="url(#p1052857a8d)" d="M 199.982771 307.584 
L 203.091005 307.584 
L 203.091005 306.610397 
L 199.982771 306.610397 
z
" style="fill:#5eedfe;fill-opacity:0.815686;"/>
   </g>
   <g id="patch_243">
    <path clip-path="url(#p1052857a8d)" d="M 203.091005 307.584 
L 206.199239 307.584 
L 206.199239 307.025375 
L 203.091005 307.025375 
z
" style="fill:#5eedfe;fill-opacity:0.815686;"/>
   </g>
   <g id="patch_244">
    <path clip-path="url(#p1052857a8d)" d="M 206.199239 307.584 
L 209.307473 307.584 
L 209.307473 306.754043 
L 206.199239 306.754043 
z
" style="fill:#5eedfe;fill-opacity:0.815686;"/>
   </g>
   <g id="patch_245">
    <path clip-path="url(#p1052857a8d)" d="M 209.307473 307.584 
L 212.415707 307.584 
L 212.415707 306.977493 
L 209.307473 306.977493 
z
" style="fill:#5eedfe;fill-opacity:0.815686;"/>
   </g>
   <g id="patch_246">
    <path clip-path="url(#p1052857a8d)" d="M 212.415707 307.584 
L 215.523941 307.584 
L 215.523941 307.089218 
L 212.415707 307.089218 
z
" style="fill:#5eedfe;fill-opacity:0.815686;"/>
   </g>
   <g id="patch_247">
    <path clip-path="url(#p1052857a8d)" d="M 215.523941 307.584 
L 218.632175 307.584 
L 218.632175 307.12114 
L 215.523941 307.12114 
z
" style="fill:#5eedfe;fill-opacity:0.815686;"/>
   </g>
   <g id="patch_248">
    <path clip-path="url(#p1052857a8d)" d="M 218.632175 307.584 
L 221.740409 307.584 
L 221.740409 307.1371 
L 218.632175 307.1371 
z
" style="fill:#5eedfe;fill-opacity:0.815686;"/>
   </g>
   <g id="patch_249">
    <path clip-path="url(#p1052857a8d)" d="M 221.740409 307.584 
L 224.848643 307.584 
L 224.848643 307.169022 
L 221.740409 307.169022 
z
" style="fill:#5eedfe;fill-opacity:0.815686;"/>
   </g>
   <g id="patch_250">
    <path clip-path="url(#p1052857a8d)" d="M 224.848643 307.584 
L 227.956877 307.584 
L 227.956877 307.200943 
L 224.848643 307.200943 
z
" style="fill:#5eedfe;fill-opacity:0.815686;"/>
   </g>
   <g id="patch_251">
    <path clip-path="url(#p1052857a8d)" d="M 227.956877 307.584 
L 231.065111 307.584 
L 231.065111 307.264786 
L 227.956877 307.264786 
z
" style="fill:#5eedfe;fill-opacity:0.815686;"/>
   </g>
   <g id="patch_252">
    <path clip-path="url(#p1052857a8d)" d="M 231.065111 307.584 
L 234.173346 307.584 
L 234.173346 307.280747 
L 231.065111 307.280747 
z
" style="fill:#5eedfe;fill-opacity:0.815686;"/>
   </g>
   <g id="patch_253">
    <path clip-path="url(#p1052857a8d)" d="M 234.173346 307.584 
L 237.28158 307.584 
L 237.28158 307.392472 
L 234.173346 307.392472 
z
" style="fill:#5eedfe;fill-opacity:0.815686;"/>
   </g>
   <g id="patch_254">
    <path clip-path="url(#p1052857a8d)" d="M 237.28158 307.584 
L 240.389814 307.584 
L 240.389814 307.36055 
L 237.28158 307.36055 
z
" style="fill:#5eedfe;fill-opacity:0.815686;"/>
   </g>
   <g id="patch_255">
    <path clip-path="url(#p1052857a8d)" d="M 240.389814 307.584 
L 243.498048 307.584 
L 243.498048 307.344589 
L 240.389814 307.344589 
z
" style="fill:#5eedfe;fill-opacity:0.815686;"/>
   </g>
   <g id="patch_256">
    <path clip-path="url(#p1052857a8d)" d="M 243.498048 307.584 
L 246.606282 307.584 
L 246.606282 307.36055 
L 243.498048 307.36055 
z
" style="fill:#5eedfe;fill-opacity:0.815686;"/>
   </g>
   <g id="patch_257">
    <path clip-path="url(#p1052857a8d)" d="M 246.606282 307.584 
L 249.714516 307.584 
L 249.714516 307.392472 
L 246.606282 307.392472 
z
" style="fill:#5eedfe;fill-opacity:0.815686;"/>
   </g>
   <g id="patch_258">
    <path clip-path="url(#p1052857a8d)" d="M 249.714516 307.584 
L 252.82275 307.584 
L 252.82275 307.280747 
L 249.714516 307.280747 
z
" style="fill:#5eedfe;fill-opacity:0.815686;"/>
   </g>
   <g id="patch_259">
    <path clip-path="url(#p1052857a8d)" d="M 252.82275 307.584 
L 255.930984 307.584 
L 255.930984 307.488236 
L 252.82275 307.488236 
z
" style="fill:#5eedfe;fill-opacity:0.815686;"/>
   </g>
   <g id="patch_260">
    <path clip-path="url(#p1052857a8d)" d="M 255.930984 307.584 
L 259.039218 307.584 
L 259.039218 307.392472 
L 255.930984 307.392472 
z
" style="fill:#5eedfe;fill-opacity:0.815686;"/>
   </g>
   <g id="patch_261">
    <path clip-path="url(#p1052857a8d)" d="M 259.039218 307.584 
L 262.147452 307.584 
L 262.147452 307.488236 
L 259.039218 307.488236 
z
" style="fill:#5eedfe;fill-opacity:0.815686;"/>
   </g>
   <g id="patch_262">
    <path clip-path="url(#p1052857a8d)" d="M 262.147452 307.584 
L 265.255686 307.584 
L 265.255686 307.408432 
L 262.147452 307.408432 
z
" style="fill:#5eedfe;fill-opacity:0.815686;"/>
   </g>
   <g id="patch_263">
    <path clip-path="url(#p1052857a8d)" d="M 265.255686 307.584 
L 268.36392 307.584 
L 268.36392 307.456314 
L 265.255686 307.456314 
z
" style="fill:#5eedfe;fill-opacity:0.815686;"/>
   </g>
   <g id="patch_264">
    <path clip-path="url(#p1052857a8d)" d="M 268.36392 307.584 
L 271.472154 307.584 
L 271.472154 307.440354 
L 268.36392 307.440354 
z
" style="fill:#5eedfe;fill-opacity:0.815686;"/>
   </g>
   <g id="patch_265">
    <path clip-path="url(#p1052857a8d)" d="M 271.472154 307.584 
L 274.580388 307.584 
L 274.580388 307.472275 
L 271.472154 307.472275 
z
" style="fill:#5eedfe;fill-opacity:0.815686;"/>
   </g>
   <g id="patch_266">
    <path clip-path="url(#p1052857a8d)" d="M 274.580388 307.584 
L 277.688622 307.584 
L 277.688622 307.456314 
L 274.580388 307.456314 
z
" style="fill:#5eedfe;fill-opacity:0.815686;"/>
   </g>
   <g id="patch_267">
    <path clip-path="url(#p1052857a8d)" d="M 277.688622 307.584 
L 280.796857 307.584 
L 280.796857 307.392472 
L 277.688622 307.392472 
z
" style="fill:#5eedfe;fill-opacity:0.815686;"/>
   </g>
   <g id="patch_268">
    <path clip-path="url(#p1052857a8d)" d="M 280.796857 307.584 
L 283.905091 307.584 
L 283.905091 307.472275 
L 280.796857 307.472275 
z
" style="fill:#5eedfe;fill-opacity:0.815686;"/>
   </g>
   <g id="patch_269">
    <path clip-path="url(#p1052857a8d)" d="M 283.905091 307.584 
L 287.013325 307.584 
L 287.013325 307.520157 
L 283.905091 307.520157 
z
" style="fill:#5eedfe;fill-opacity:0.815686;"/>
   </g>
   <g id="patch_270">
    <path clip-path="url(#p1052857a8d)" d="M 287.013325 307.584 
L 290.121559 307.584 
L 290.121559 307.488236 
L 287.013325 307.488236 
z
" style="fill:#5eedfe;fill-opacity:0.815686;"/>
   </g>
   <g id="patch_271">
    <path clip-path="url(#p1052857a8d)" d="M 290.121559 307.584 
L 293.229793 307.584 
L 293.229793 307.536118 
L 290.121559 307.536118 
z
" style="fill:#5eedfe;fill-opacity:0.815686;"/>
   </g>
   <g id="patch_272">
    <path clip-path="url(#p1052857a8d)" d="M 293.229793 307.584 
L 296.338027 307.584 
L 296.338027 307.520157 
L 293.229793 307.520157 
z
" style="fill:#5eedfe;fill-opacity:0.815686;"/>
   </g>
   <g id="patch_273">
    <path clip-path="url(#p1052857a8d)" d="M 296.338027 307.584 
L 299.446261 307.584 
L 299.446261 307.520157 
L 296.338027 307.520157 
z
" style="fill:#5eedfe;fill-opacity:0.815686;"/>
   </g>
   <g id="patch_274">
    <path clip-path="url(#p1052857a8d)" d="M 299.446261 307.584 
L 302.554495 307.584 
L 302.554495 307.472275 
L 299.446261 307.472275 
z
" style="fill:#5eedfe;fill-opacity:0.815686;"/>
   </g>
   <g id="patch_275">
    <path clip-path="url(#p1052857a8d)" d="M 302.554495 307.584 
L 305.662729 307.584 
L 305.662729 307.552079 
L 302.554495 307.552079 
z
" style="fill:#5eedfe;fill-opacity:0.815686;"/>
   </g>
   <g id="patch_276">
    <path clip-path="url(#p1052857a8d)" d="M 305.662729 307.584 
L 308.770963 307.584 
L 308.770963 307.536118 
L 305.662729 307.536118 
z
" style="fill:#5eedfe;fill-opacity:0.815686;"/>
   </g>
   <g id="patch_277">
    <path clip-path="url(#p1052857a8d)" d="M 308.770963 307.584 
L 311.879197 307.584 
L 311.879197 307.536118 
L 308.770963 307.536118 
z
" style="fill:#5eedfe;fill-opacity:0.815686;"/>
   </g>
   <g id="patch_278">
    <path clip-path="url(#p1052857a8d)" d="M 311.879197 307.584 
L 314.987431 307.584 
L 314.987431 307.520157 
L 311.879197 307.520157 
z
" style="fill:#5eedfe;fill-opacity:0.815686;"/>
   </g>
   <g id="patch_279">
    <path clip-path="url(#p1052857a8d)" d="M 314.987431 307.584 
L 318.095665 307.584 
L 318.095665 307.536118 
L 314.987431 307.536118 
z
" style="fill:#5eedfe;fill-opacity:0.815686;"/>
   </g>
   <g id="patch_280">
    <path clip-path="url(#p1052857a8d)" d="M 318.095665 307.584 
L 321.203899 307.584 
L 321.203899 307.552079 
L 318.095665 307.552079 
z
" style="fill:#5eedfe;fill-opacity:0.815686;"/>
   </g>
   <g id="patch_281">
    <path clip-path="url(#p1052857a8d)" d="M 321.203899 307.584 
L 324.312134 307.584 
L 324.312134 307.536118 
L 321.203899 307.536118 
z
" style="fill:#5eedfe;fill-opacity:0.815686;"/>
   </g>
   <g id="patch_282">
    <path clip-path="url(#p1052857a8d)" d="M 324.312134 307.584 
L 327.420368 307.584 
L 327.420368 307.584 
L 324.312134 307.584 
z
" style="fill:#5eedfe;fill-opacity:0.815686;"/>
   </g>
   <g id="patch_283">
    <path clip-path="url(#p1052857a8d)" d="M 327.420368 307.584 
L 330.528602 307.584 
L 330.528602 307.552079 
L 327.420368 307.552079 
z
" style="fill:#5eedfe;fill-opacity:0.815686;"/>
   </g>
   <g id="patch_284">
    <path clip-path="url(#p1052857a8d)" d="M 330.528602 307.584 
L 333.636836 307.584 
L 333.636836 307.552079 
L 330.528602 307.552079 
z
" style="fill:#5eedfe;fill-opacity:0.815686;"/>
   </g>
   <g id="patch_285">
    <path clip-path="url(#p1052857a8d)" d="M 333.636836 307.584 
L 336.74507 307.584 
L 336.74507 307.536118 
L 333.636836 307.536118 
z
" style="fill:#5eedfe;fill-opacity:0.815686;"/>
   </g>
   <g id="patch_286">
    <path clip-path="url(#p1052857a8d)" d="M 336.74507 307.584 
L 339.853304 307.584 
L 339.853304 307.552079 
L 336.74507 307.552079 
z
" style="fill:#5eedfe;fill-opacity:0.815686;"/>
   </g>
   <g id="patch_287">
    <path clip-path="url(#p1052857a8d)" d="M 339.853304 307.584 
L 342.961538 307.584 
L 342.961538 307.584 
L 339.853304 307.584 
z
" style="fill:#5eedfe;fill-opacity:0.815686;"/>
   </g>
   <g id="patch_288">
    <path clip-path="url(#p1052857a8d)" d="M 342.961538 307.584 
L 346.069772 307.584 
L 346.069772 307.584 
L 342.961538 307.584 
z
" style="fill:#5eedfe;fill-opacity:0.815686;"/>
   </g>
   <g id="patch_289">
    <path clip-path="url(#p1052857a8d)" d="M 346.069772 307.584 
L 349.178006 307.584 
L 349.178006 307.584 
L 346.069772 307.584 
z
" style="fill:#5eedfe;fill-opacity:0.815686;"/>
   </g>
   <g id="patch_290">
    <path clip-path="url(#p1052857a8d)" d="M 349.178006 307.584 
L 352.28624 307.584 
L 352.28624 307.552079 
L 349.178006 307.552079 
z
" style="fill:#5eedfe;fill-opacity:0.815686;"/>
   </g>
   <g id="patch_291">
    <path clip-path="url(#p1052857a8d)" d="M 352.28624 307.584 
L 355.394474 307.584 
L 355.394474 307.568039 
L 352.28624 307.568039 
z
" style="fill:#5eedfe;fill-opacity:0.815686;"/>
   </g>
   <g id="patch_292">
    <path clip-path="url(#p1052857a8d)" d="M 355.394474 307.584 
L 358.502708 307.584 
L 358.502708 307.568039 
L 355.394474 307.568039 
z
" style="fill:#5eedfe;fill-opacity:0.815686;"/>
   </g>
   <g id="patch_293">
    <path clip-path="url(#p1052857a8d)" d="M 358.502708 307.584 
L 361.610942 307.584 
L 361.610942 307.568039 
L 358.502708 307.568039 
z
" style="fill:#5eedfe;fill-opacity:0.815686;"/>
   </g>
   <g id="patch_294">
    <path clip-path="url(#p1052857a8d)" d="M 361.610942 307.584 
L 364.719176 307.584 
L 364.719176 307.552079 
L 361.610942 307.552079 
z
" style="fill:#5eedfe;fill-opacity:0.815686;"/>
   </g>
   <g id="patch_295">
    <path clip-path="url(#p1052857a8d)" d="M 364.719176 307.584 
L 367.82741 307.584 
L 367.82741 307.568039 
L 364.719176 307.568039 
z
" style="fill:#5eedfe;fill-opacity:0.815686;"/>
   </g>
   <g id="patch_296">
    <path clip-path="url(#p1052857a8d)" d="M 367.82741 307.584 
L 370.935645 307.584 
L 370.935645 307.552079 
L 367.82741 307.552079 
z
" style="fill:#5eedfe;fill-opacity:0.815686;"/>
   </g>
   <g id="patch_297">
    <path clip-path="url(#p1052857a8d)" d="M 370.935645 307.584 
L 374.043879 307.584 
L 374.043879 307.584 
L 370.935645 307.584 
z
" style="fill:#5eedfe;fill-opacity:0.815686;"/>
   </g>
   <g id="patch_298">
    <path clip-path="url(#p1052857a8d)" d="M 374.043879 307.584 
L 377.152113 307.584 
L 377.152113 307.568039 
L 374.043879 307.568039 
z
" style="fill:#5eedfe;fill-opacity:0.815686;"/>
   </g>
   <g id="patch_299">
    <path clip-path="url(#p1052857a8d)" d="M 377.152113 307.584 
L 380.260347 307.584 
L 380.260347 307.568039 
L 377.152113 307.568039 
z
" style="fill:#5eedfe;fill-opacity:0.815686;"/>
   </g>
   <g id="patch_300">
    <path clip-path="url(#p1052857a8d)" d="M 380.260347 307.584 
L 383.368581 307.584 
L 383.368581 307.584 
L 380.260347 307.584 
z
" style="fill:#5eedfe;fill-opacity:0.815686;"/>
   </g>
   <g id="patch_301">
    <path clip-path="url(#p1052857a8d)" d="M 383.368581 307.584 
L 386.476815 307.584 
L 386.476815 307.584 
L 383.368581 307.584 
z
" style="fill:#5eedfe;fill-opacity:0.815686;"/>
   </g>
   <g id="patch_302">
    <path clip-path="url(#p1052857a8d)" d="M 386.476815 307.584 
L 389.585049 307.584 
L 389.585049 307.568039 
L 386.476815 307.568039 
z
" style="fill:#5eedfe;fill-opacity:0.815686;"/>
   </g>
   <g id="matplotlib.axis_1">
    <g id="xtick_1">
     <g id="line2d_1">
      <defs>
       <path d="M 0 0 
L 0 3.5 
" id="mf1e2284963" style="stroke:#000000;stroke-width:0.8;"/>
      </defs>
      <g>
       <use style="stroke:#000000;stroke-width:0.8;" x="98.678482" xlink:href="#mf1e2284963" y="307.584"/>
      </g>
     </g>
     <g id="text_1">
      <!-- 1.0 us -->
      <defs>
       <path d="M 12.40625 8.296875 
L 28.515625 8.296875 
L 28.515625 63.921875 
L 10.984375 60.40625 
L 10.984375 69.390625 
L 28.421875 72.90625 
L 38.28125 72.90625 
L 38.28125 8.296875 
L 54.390625 8.296875 
L 54.390625 0 
L 12.40625 0 
z
" id="DejaVuSans-49"/>
       <path d="M 10.6875 12.40625 
L 21 12.40625 
L 21 0 
L 10.6875 0 
z
" id="DejaVuSans-46"/>
       <path d="M 31.78125 66.40625 
Q 24.171875 66.40625 20.328125 58.90625 
Q 16.5 51.421875 16.5 36.375 
Q 16.5 21.390625 20.328125 13.890625 
Q 24.171875 6.390625 31.78125 6.390625 
Q 39.453125 6.390625 43.28125 13.890625 
Q 47.125 21.390625 47.125 36.375 
Q 47.125 51.421875 43.28125 58.90625 
Q 39.453125 66.40625 31.78125 66.40625 
z
M 31.78125 74.21875 
Q 44.046875 74.21875 50.515625 64.515625 
Q 56.984375 54.828125 56.984375 36.375 
Q 56.984375 17.96875 50.515625 8.265625 
Q 44.046875 -1.421875 31.78125 -1.421875 
Q 19.53125 -1.421875 13.0625 8.265625 
Q 6.59375 17.96875 6.59375 36.375 
Q 6.59375 54.828125 13.0625 64.515625 
Q 19.53125 74.21875 31.78125 74.21875 
z
" id="DejaVuSans-48"/>
       <path id="DejaVuSans-32"/>
       <path d="M 8.5 21.578125 
L 8.5 54.6875 
L 17.484375 54.6875 
L 17.484375 21.921875 
Q 17.484375 14.15625 20.5 10.265625 
Q 23.53125 6.390625 29.59375 6.390625 
Q 36.859375 6.390625 41.078125 11.03125 
Q 45.3125 15.671875 45.3125 23.6875 
L 45.3125 54.6875 
L 54.296875 54.6875 
L 54.296875 0 
L 45.3125 0 
L 45.3125 8.40625 
Q 42.046875 3.421875 37.71875 1 
Q 33.40625 -1.421875 27.6875 -1.421875 
Q 18.265625 -1.421875 13.375 4.4375 
Q 8.5 10.296875 8.5 21.578125 
z
M 31.109375 56 
z
" id="DejaVuSans-117"/>
       <path d="M 44.28125 53.078125 
L 44.28125 44.578125 
Q 40.484375 46.53125 36.375 47.5 
Q 32.28125 48.484375 27.875 48.484375 
Q 21.1875 48.484375 17.84375 46.4375 
Q 14.5 44.390625 14.5 40.28125 
Q 14.5 37.15625 16.890625 35.375 
Q 19.28125 33.59375 26.515625 31.984375 
L 29.59375 31.296875 
Q 39.15625 29.25 43.1875 25.515625 
Q 47.21875 21.78125 47.21875 15.09375 
Q 47.21875 7.46875 41.1875 3.015625 
Q 35.15625 -1.421875 24.609375 -1.421875 
Q 20.21875 -1.421875 15.453125 -0.5625 
Q 10.6875 0.296875 5.421875 2 
L 5.421875 11.28125 
Q 10.40625 8.6875 15.234375 7.390625 
Q 20.0625 6.109375 24.8125 6.109375 
Q 31.15625 6.109375 34.5625 8.28125 
Q 37.984375 10.453125 37.984375 14.40625 
Q 37.984375 18.0625 35.515625 20.015625 
Q 33.0625 21.96875 24.703125 23.78125 
L 21.578125 24.515625 
Q 13.234375 26.265625 9.515625 29.90625 
Q 5.8125 33.546875 5.8125 39.890625 
Q 5.8125 47.609375 11.28125 51.796875 
Q 16.75 56 26.8125 56 
Q 31.78125 56 36.171875 55.265625 
Q 40.578125 54.546875 44.28125 53.078125 
z
" id="DejaVuSans-115"/>
      </defs>
      <g transform="translate(95.467243 321.470523)rotate(-335)scale(0.1 -0.1)">
       <use xlink:href="#DejaVuSans-49"/>
       <use x="63.623047" xlink:href="#DejaVuSans-46"/>
       <use x="95.410156" xlink:href="#DejaVuSans-48"/>
       <use x="159.033203" xlink:href="#DejaVuSans-32"/>
       <use x="190.820312" xlink:href="#DejaVuSans-117"/>
       <use x="254.199219" xlink:href="#DejaVuSans-115"/>
      </g>
     </g>
    </g>
    <g id="xtick_2">
     <g id="line2d_2">
      <g>
       <use style="stroke:#000000;stroke-width:0.8;" x="148.973531" xlink:href="#mf1e2284963" y="307.584"/>
      </g>
     </g>
     <g id="text_2">
      <!-- 2.0 us -->
      <defs>
       <path d="M 19.1875 8.296875 
L 53.609375 8.296875 
L 53.609375 0 
L 7.328125 0 
L 7.328125 8.296875 
Q 12.9375 14.109375 22.625 23.890625 
Q 32.328125 33.6875 34.8125 36.53125 
Q 39.546875 41.84375 41.421875 45.53125 
Q 43.3125 49.21875 43.3125 52.78125 
Q 43.3125 58.59375 39.234375 62.25 
Q 35.15625 65.921875 28.609375 65.921875 
Q 23.96875 65.921875 18.8125 64.3125 
Q 13.671875 62.703125 7.8125 59.421875 
L 7.8125 69.390625 
Q 13.765625 71.78125 18.9375 73 
Q 24.125 74.21875 28.421875 74.21875 
Q 39.75 74.21875 46.484375 68.546875 
Q 53.21875 62.890625 53.21875 53.421875 
Q 53.21875 48.921875 51.53125 44.890625 
Q 49.859375 40.875 45.40625 35.40625 
Q 44.1875 33.984375 37.640625 27.21875 
Q 31.109375 20.453125 19.1875 8.296875 
z
" id="DejaVuSans-50"/>
      </defs>
      <g transform="translate(145.762293 321.470523)rotate(-335)scale(0.1 -0.1)">
       <use xlink:href="#DejaVuSans-50"/>
       <use x="63.623047" xlink:href="#DejaVuSans-46"/>
       <use x="95.410156" xlink:href="#DejaVuSans-48"/>
       <use x="159.033203" xlink:href="#DejaVuSans-32"/>
       <use x="190.820312" xlink:href="#DejaVuSans-117"/>
       <use x="254.199219" xlink:href="#DejaVuSans-115"/>
      </g>
     </g>
    </g>
    <g id="xtick_3">
     <g id="line2d_3">
      <g>
       <use style="stroke:#000000;stroke-width:0.8;" x="199.268581" xlink:href="#mf1e2284963" y="307.584"/>
      </g>
     </g>
     <g id="text_3">
      <!-- 3.0 us -->
      <defs>
       <path d="M 40.578125 39.3125 
Q 47.65625 37.796875 51.625 33 
Q 55.609375 28.21875 55.609375 21.1875 
Q 55.609375 10.40625 48.1875 4.484375 
Q 40.765625 -1.421875 27.09375 -1.421875 
Q 22.515625 -1.421875 17.65625 -0.515625 
Q 12.796875 0.390625 7.625 2.203125 
L 7.625 11.71875 
Q 11.71875 9.328125 16.59375 8.109375 
Q 21.484375 6.890625 26.8125 6.890625 
Q 36.078125 6.890625 40.9375 10.546875 
Q 45.796875 14.203125 45.796875 21.1875 
Q 45.796875 27.640625 41.28125 31.265625 
Q 36.765625 34.90625 28.71875 34.90625 
L 20.21875 34.90625 
L 20.21875 43.015625 
L 29.109375 43.015625 
Q 36.375 43.015625 40.234375 45.921875 
Q 44.09375 48.828125 44.09375 54.296875 
Q 44.09375 59.90625 40.109375 62.90625 
Q 36.140625 65.921875 28.71875 65.921875 
Q 24.65625 65.921875 20.015625 65.03125 
Q 15.375 64.15625 9.8125 62.3125 
L 9.8125 71.09375 
Q 15.4375 72.65625 20.34375 73.4375 
Q 25.25 74.21875 29.59375 74.21875 
Q 40.828125 74.21875 47.359375 69.109375 
Q 53.90625 64.015625 53.90625 55.328125 
Q 53.90625 49.265625 50.4375 45.09375 
Q 46.96875 40.921875 40.578125 39.3125 
z
" id="DejaVuSans-51"/>
      </defs>
      <g transform="translate(196.057343 321.470523)rotate(-335)scale(0.1 -0.1)">
       <use xlink:href="#DejaVuSans-51"/>
       <use x="63.623047" xlink:href="#DejaVuSans-46"/>
       <use x="95.410156" xlink:href="#DejaVuSans-48"/>
       <use x="159.033203" xlink:href="#DejaVuSans-32"/>
       <use x="190.820312" xlink:href="#DejaVuSans-117"/>
       <use x="254.199219" xlink:href="#DejaVuSans-115"/>
      </g>
     </g>
    </g>
    <g id="xtick_4">
     <g id="line2d_4">
      <g>
       <use style="stroke:#000000;stroke-width:0.8;" x="249.563631" xlink:href="#mf1e2284963" y="307.584"/>
      </g>
     </g>
     <g id="text_4">
      <!-- 4.0 us -->
      <defs>
       <path d="M 37.796875 64.3125 
L 12.890625 25.390625 
L 37.796875 25.390625 
z
M 35.203125 72.90625 
L 47.609375 72.90625 
L 47.609375 25.390625 
L 58.015625 25.390625 
L 58.015625 17.1875 
L 47.609375 17.1875 
L 47.609375 0 
L 37.796875 0 
L 37.796875 17.1875 
L 4.890625 17.1875 
L 4.890625 26.703125 
z
" id="DejaVuSans-52"/>
      </defs>
      <g transform="translate(246.352392 321.470523)rotate(-335)scale(0.1 -0.1)">
       <use xlink:href="#DejaVuSans-52"/>
       <use x="63.623047" xlink:href="#DejaVuSans-46"/>
       <use x="95.410156" xlink:href="#DejaVuSans-48"/>
       <use x="159.033203" xlink:href="#DejaVuSans-32"/>
       <use x="190.820312" xlink:href="#DejaVuSans-117"/>
       <use x="254.199219" xlink:href="#DejaVuSans-115"/>
      </g>
     </g>
    </g>
    <g id="xtick_5">
     <g id="line2d_5">
      <g>
       <use style="stroke:#000000;stroke-width:0.8;" x="299.85868" xlink:href="#mf1e2284963" y="307.584"/>
      </g>
     </g>
     <g id="text_5">
      <!-- 5.0 us -->
      <defs>
       <path d="M 10.796875 72.90625 
L 49.515625 72.90625 
L 49.515625 64.59375 
L 19.828125 64.59375 
L 19.828125 46.734375 
Q 21.96875 47.46875 24.109375 47.828125 
Q 26.265625 48.1875 28.421875 48.1875 
Q 40.625 48.1875 47.75 41.5 
Q 54.890625 34.8125 54.890625 23.390625 
Q 54.890625 11.625 47.5625 5.09375 
Q 40.234375 -1.421875 26.90625 -1.421875 
Q 22.3125 -1.421875 17.546875 -0.640625 
Q 12.796875 0.140625 7.71875 1.703125 
L 7.71875 11.625 
Q 12.109375 9.234375 16.796875 8.0625 
Q 21.484375 6.890625 26.703125 6.890625 
Q 35.15625 6.890625 40.078125 11.328125 
Q 45.015625 15.765625 45.015625 23.390625 
Q 45.015625 31 40.078125 35.4375 
Q 35.15625 39.890625 26.703125 39.890625 
Q 22.75 39.890625 18.8125 39.015625 
Q 14.890625 38.140625 10.796875 36.28125 
z
" id="DejaVuSans-53"/>
      </defs>
      <g transform="translate(296.647442 321.470523)rotate(-335)scale(0.1 -0.1)">
       <use xlink:href="#DejaVuSans-53"/>
       <use x="63.623047" xlink:href="#DejaVuSans-46"/>
       <use x="95.410156" xlink:href="#DejaVuSans-48"/>
       <use x="159.033203" xlink:href="#DejaVuSans-32"/>
       <use x="190.820312" xlink:href="#DejaVuSans-117"/>
       <use x="254.199219" xlink:href="#DejaVuSans-115"/>
      </g>
     </g>
    </g>
    <g id="xtick_6">
     <g id="line2d_6">
      <g>
       <use style="stroke:#000000;stroke-width:0.8;" x="350.15373" xlink:href="#mf1e2284963" y="307.584"/>
      </g>
     </g>
     <g id="text_6">
      <!-- 6.0 us -->
      <defs>
       <path d="M 33.015625 40.375 
Q 26.375 40.375 22.484375 35.828125 
Q 18.609375 31.296875 18.609375 23.390625 
Q 18.609375 15.53125 22.484375 10.953125 
Q 26.375 6.390625 33.015625 6.390625 
Q 39.65625 6.390625 43.53125 10.953125 
Q 47.40625 15.53125 47.40625 23.390625 
Q 47.40625 31.296875 43.53125 35.828125 
Q 39.65625 40.375 33.015625 40.375 
z
M 52.59375 71.296875 
L 52.59375 62.3125 
Q 48.875 64.0625 45.09375 64.984375 
Q 41.3125 65.921875 37.59375 65.921875 
Q 27.828125 65.921875 22.671875 59.328125 
Q 17.53125 52.734375 16.796875 39.40625 
Q 19.671875 43.65625 24.015625 45.921875 
Q 28.375 48.1875 33.59375 48.1875 
Q 44.578125 48.1875 50.953125 41.515625 
Q 57.328125 34.859375 57.328125 23.390625 
Q 57.328125 12.15625 50.6875 5.359375 
Q 44.046875 -1.421875 33.015625 -1.421875 
Q 20.359375 -1.421875 13.671875 8.265625 
Q 6.984375 17.96875 6.984375 36.375 
Q 6.984375 53.65625 15.1875 63.9375 
Q 23.390625 74.21875 37.203125 74.21875 
Q 40.921875 74.21875 44.703125 73.484375 
Q 48.484375 72.75 52.59375 71.296875 
z
" id="DejaVuSans-54"/>
      </defs>
      <g transform="translate(346.942492 321.470523)rotate(-335)scale(0.1 -0.1)">
       <use xlink:href="#DejaVuSans-54"/>
       <use x="63.623047" xlink:href="#DejaVuSans-46"/>
       <use x="95.410156" xlink:href="#DejaVuSans-48"/>
       <use x="159.033203" xlink:href="#DejaVuSans-32"/>
       <use x="190.820312" xlink:href="#DejaVuSans-117"/>
       <use x="254.199219" xlink:href="#DejaVuSans-115"/>
      </g>
     </g>
    </g>
    <g id="xtick_7">
     <g id="line2d_7">
      <g>
       <use style="stroke:#000000;stroke-width:0.8;" x="400.44878" xlink:href="#mf1e2284963" y="307.584"/>
      </g>
     </g>
     <g id="text_7">
      <!-- 7.0 us -->
      <defs>
       <path d="M 8.203125 72.90625 
L 55.078125 72.90625 
L 55.078125 68.703125 
L 28.609375 0 
L 18.3125 0 
L 43.21875 64.59375 
L 8.203125 64.59375 
z
" id="DejaVuSans-55"/>
      </defs>
      <g transform="translate(397.237541 321.470523)rotate(-335)scale(0.1 -0.1)">
       <use xlink:href="#DejaVuSans-55"/>
       <use x="63.623047" xlink:href="#DejaVuSans-46"/>
       <use x="95.410156" xlink:href="#DejaVuSans-48"/>
       <use x="159.033203" xlink:href="#DejaVuSans-32"/>
       <use x="190.820312" xlink:href="#DejaVuSans-117"/>
       <use x="254.199219" xlink:href="#DejaVuSans-115"/>
      </g>
     </g>
    </g>
   </g>
   <g id="matplotlib.axis_2">
    <g id="ytick_1">
     <g id="line2d_8">
      <defs>
       <path d="M 0 0 
L -3.5 0 
" id="mf6d935d049" style="stroke:#000000;stroke-width:0.8;"/>
      </defs>
      <g>
       <use style="stroke:#000000;stroke-width:0.8;" x="57.6" xlink:href="#mf6d935d049" y="307.584"/>
      </g>
     </g>
     <g id="text_8">
      <!-- 0 -->
      <g transform="translate(44.2375 311.383219)scale(0.1 -0.1)">
       <use xlink:href="#DejaVuSans-48"/>
      </g>
     </g>
    </g>
    <g id="ytick_2">
     <g id="line2d_9">
      <g>
       <use style="stroke:#000000;stroke-width:0.8;" x="57.6" xlink:href="#mf6d935d049" y="275.662594"/>
      </g>
     </g>
     <g id="text_9">
      <!-- 2000 -->
      <g transform="translate(25.15 279.461813)scale(0.1 -0.1)">
       <use xlink:href="#DejaVuSans-50"/>
       <use x="63.623047" xlink:href="#DejaVuSans-48"/>
       <use x="127.246094" xlink:href="#DejaVuSans-48"/>
       <use x="190.869141" xlink:href="#DejaVuSans-48"/>
      </g>
     </g>
    </g>
    <g id="ytick_3">
     <g id="line2d_10">
      <g>
       <use style="stroke:#000000;stroke-width:0.8;" x="57.6" xlink:href="#mf6d935d049" y="243.741189"/>
      </g>
     </g>
     <g id="text_10">
      <!-- 4000 -->
      <g transform="translate(25.15 247.540407)scale(0.1 -0.1)">
       <use xlink:href="#DejaVuSans-52"/>
       <use x="63.623047" xlink:href="#DejaVuSans-48"/>
       <use x="127.246094" xlink:href="#DejaVuSans-48"/>
       <use x="190.869141" xlink:href="#DejaVuSans-48"/>
      </g>
     </g>
    </g>
    <g id="ytick_4">
     <g id="line2d_11">
      <g>
       <use style="stroke:#000000;stroke-width:0.8;" x="57.6" xlink:href="#mf6d935d049" y="211.819783"/>
      </g>
     </g>
     <g id="text_11">
      <!-- 6000 -->
      <g transform="translate(25.15 215.619002)scale(0.1 -0.1)">
       <use xlink:href="#DejaVuSans-54"/>
       <use x="63.623047" xlink:href="#DejaVuSans-48"/>
       <use x="127.246094" xlink:href="#DejaVuSans-48"/>
       <use x="190.869141" xlink:href="#DejaVuSans-48"/>
      </g>
     </g>
    </g>
    <g id="ytick_5">
     <g id="line2d_12">
      <g>
       <use style="stroke:#000000;stroke-width:0.8;" x="57.6" xlink:href="#mf6d935d049" y="179.898377"/>
      </g>
     </g>
     <g id="text_12">
      <!-- 8000 -->
      <defs>
       <path d="M 31.78125 34.625 
Q 24.75 34.625 20.71875 30.859375 
Q 16.703125 27.09375 16.703125 20.515625 
Q 16.703125 13.921875 20.71875 10.15625 
Q 24.75 6.390625 31.78125 6.390625 
Q 38.8125 6.390625 42.859375 10.171875 
Q 46.921875 13.96875 46.921875 20.515625 
Q 46.921875 27.09375 42.890625 30.859375 
Q 38.875 34.625 31.78125 34.625 
z
M 21.921875 38.8125 
Q 15.578125 40.375 12.03125 44.71875 
Q 8.5 49.078125 8.5 55.328125 
Q 8.5 64.0625 14.71875 69.140625 
Q 20.953125 74.21875 31.78125 74.21875 
Q 42.671875 74.21875 48.875 69.140625 
Q 55.078125 64.0625 55.078125 55.328125 
Q 55.078125 49.078125 51.53125 44.71875 
Q 48 40.375 41.703125 38.8125 
Q 48.828125 37.15625 52.796875 32.3125 
Q 56.78125 27.484375 56.78125 20.515625 
Q 56.78125 9.90625 50.3125 4.234375 
Q 43.84375 -1.421875 31.78125 -1.421875 
Q 19.734375 -1.421875 13.25 4.234375 
Q 6.78125 9.90625 6.78125 20.515625 
Q 6.78125 27.484375 10.78125 32.3125 
Q 14.796875 37.15625 21.921875 38.8125 
z
M 18.3125 54.390625 
Q 18.3125 48.734375 21.84375 45.5625 
Q 25.390625 42.390625 31.78125 42.390625 
Q 38.140625 42.390625 41.71875 45.5625 
Q 45.3125 48.734375 45.3125 54.390625 
Q 45.3125 60.0625 41.71875 63.234375 
Q 38.140625 66.40625 31.78125 66.40625 
Q 25.390625 66.40625 21.84375 63.234375 
Q 18.3125 60.0625 18.3125 54.390625 
z
" id="DejaVuSans-56"/>
      </defs>
      <g transform="translate(25.15 183.697596)scale(0.1 -0.1)">
       <use xlink:href="#DejaVuSans-56"/>
       <use x="63.623047" xlink:href="#DejaVuSans-48"/>
       <use x="127.246094" xlink:href="#DejaVuSans-48"/>
       <use x="190.869141" xlink:href="#DejaVuSans-48"/>
      </g>
     </g>
    </g>
    <g id="ytick_6">
     <g id="line2d_13">
      <g>
       <use style="stroke:#000000;stroke-width:0.8;" x="57.6" xlink:href="#mf6d935d049" y="147.976972"/>
      </g>
     </g>
     <g id="text_13">
      <!-- 10000 -->
      <g transform="translate(18.7875 151.776191)scale(0.1 -0.1)">
       <use xlink:href="#DejaVuSans-49"/>
       <use x="63.623047" xlink:href="#DejaVuSans-48"/>
       <use x="127.246094" xlink:href="#DejaVuSans-48"/>
       <use x="190.869141" xlink:href="#DejaVuSans-48"/>
       <use x="254.492188" xlink:href="#DejaVuSans-48"/>
      </g>
     </g>
    </g>
    <g id="ytick_7">
     <g id="line2d_14">
      <g>
       <use style="stroke:#000000;stroke-width:0.8;" x="57.6" xlink:href="#mf6d935d049" y="116.055566"/>
      </g>
     </g>
     <g id="text_14">
      <!-- 12000 -->
      <g transform="translate(18.7875 119.854785)scale(0.1 -0.1)">
       <use xlink:href="#DejaVuSans-49"/>
       <use x="63.623047" xlink:href="#DejaVuSans-50"/>
       <use x="127.246094" xlink:href="#DejaVuSans-48"/>
       <use x="190.869141" xlink:href="#DejaVuSans-48"/>
       <use x="254.492188" xlink:href="#DejaVuSans-48"/>
      </g>
     </g>
    </g>
    <g id="ytick_8">
     <g id="line2d_15">
      <g>
       <use style="stroke:#000000;stroke-width:0.8;" x="57.6" xlink:href="#mf6d935d049" y="84.134161"/>
      </g>
     </g>
     <g id="text_15">
      <!-- 14000 -->
      <g transform="translate(18.7875 87.933379)scale(0.1 -0.1)">
       <use xlink:href="#DejaVuSans-49"/>
       <use x="63.623047" xlink:href="#DejaVuSans-52"/>
       <use x="127.246094" xlink:href="#DejaVuSans-48"/>
       <use x="190.869141" xlink:href="#DejaVuSans-48"/>
       <use x="254.492188" xlink:href="#DejaVuSans-48"/>
      </g>
     </g>
    </g>
    <g id="ytick_9">
     <g id="line2d_16">
      <g>
       <use style="stroke:#000000;stroke-width:0.8;" x="57.6" xlink:href="#mf6d935d049" y="52.212755"/>
      </g>
     </g>
     <g id="text_16">
      <!-- 16000 -->
      <g transform="translate(18.7875 56.011974)scale(0.1 -0.1)">
       <use xlink:href="#DejaVuSans-49"/>
       <use x="63.623047" xlink:href="#DejaVuSans-54"/>
       <use x="127.246094" xlink:href="#DejaVuSans-48"/>
       <use x="190.869141" xlink:href="#DejaVuSans-48"/>
       <use x="254.492188" xlink:href="#DejaVuSans-48"/>
      </g>
     </g>
    </g>
    <g id="text_17">
     <!-- Number of samples -->
     <defs>
      <path d="M 9.8125 72.90625 
L 23.09375 72.90625 
L 55.421875 11.921875 
L 55.421875 72.90625 
L 64.984375 72.90625 
L 64.984375 0 
L 51.703125 0 
L 19.390625 60.984375 
L 19.390625 0 
L 9.8125 0 
z
" id="DejaVuSans-78"/>
      <path d="M 52 44.1875 
Q 55.375 50.25 60.0625 53.125 
Q 64.75 56 71.09375 56 
Q 79.640625 56 84.28125 50.015625 
Q 88.921875 44.046875 88.921875 33.015625 
L 88.921875 0 
L 79.890625 0 
L 79.890625 32.71875 
Q 79.890625 40.578125 77.09375 44.375 
Q 74.3125 48.1875 68.609375 48.1875 
Q 61.625 48.1875 57.5625 43.546875 
Q 53.515625 38.921875 53.515625 30.90625 
L 53.515625 0 
L 44.484375 0 
L 44.484375 32.71875 
Q 44.484375 40.625 41.703125 44.40625 
Q 38.921875 48.1875 33.109375 48.1875 
Q 26.21875 48.1875 22.15625 43.53125 
Q 18.109375 38.875 18.109375 30.90625 
L 18.109375 0 
L 9.078125 0 
L 9.078125 54.6875 
L 18.109375 54.6875 
L 18.109375 46.1875 
Q 21.1875 51.21875 25.484375 53.609375 
Q 29.78125 56 35.6875 56 
Q 41.65625 56 45.828125 52.96875 
Q 50 49.953125 52 44.1875 
z
" id="DejaVuSans-109"/>
      <path d="M 48.6875 27.296875 
Q 48.6875 37.203125 44.609375 42.84375 
Q 40.53125 48.484375 33.40625 48.484375 
Q 26.265625 48.484375 22.1875 42.84375 
Q 18.109375 37.203125 18.109375 27.296875 
Q 18.109375 17.390625 22.1875 11.75 
Q 26.265625 6.109375 33.40625 6.109375 
Q 40.53125 6.109375 44.609375 11.75 
Q 48.6875 17.390625 48.6875 27.296875 
z
M 18.109375 46.390625 
Q 20.953125 51.265625 25.265625 53.625 
Q 29.59375 56 35.59375 56 
Q 45.5625 56 51.78125 48.09375 
Q 58.015625 40.1875 58.015625 27.296875 
Q 58.015625 14.40625 51.78125 6.484375 
Q 45.5625 -1.421875 35.59375 -1.421875 
Q 29.59375 -1.421875 25.265625 0.953125 
Q 20.953125 3.328125 18.109375 8.203125 
L 18.109375 0 
L 9.078125 0 
L 9.078125 75.984375 
L 18.109375 75.984375 
z
" id="DejaVuSans-98"/>
      <path d="M 56.203125 29.59375 
L 56.203125 25.203125 
L 14.890625 25.203125 
Q 15.484375 15.921875 20.484375 11.0625 
Q 25.484375 6.203125 34.421875 6.203125 
Q 39.59375 6.203125 44.453125 7.46875 
Q 49.3125 8.734375 54.109375 11.28125 
L 54.109375 2.78125 
Q 49.265625 0.734375 44.1875 -0.34375 
Q 39.109375 -1.421875 33.890625 -1.421875 
Q 20.796875 -1.421875 13.15625 6.1875 
Q 5.515625 13.8125 5.515625 26.8125 
Q 5.515625 40.234375 12.765625 48.109375 
Q 20.015625 56 32.328125 56 
Q 43.359375 56 49.78125 48.890625 
Q 56.203125 41.796875 56.203125 29.59375 
z
M 47.21875 32.234375 
Q 47.125 39.59375 43.09375 43.984375 
Q 39.0625 48.390625 32.421875 48.390625 
Q 24.90625 48.390625 20.390625 44.140625 
Q 15.875 39.890625 15.1875 32.171875 
z
" id="DejaVuSans-101"/>
      <path d="M 41.109375 46.296875 
Q 39.59375 47.171875 37.8125 47.578125 
Q 36.03125 48 33.890625 48 
Q 26.265625 48 22.1875 43.046875 
Q 18.109375 38.09375 18.109375 28.8125 
L 18.109375 0 
L 9.078125 0 
L 9.078125 54.6875 
L 18.109375 54.6875 
L 18.109375 46.1875 
Q 20.953125 51.171875 25.484375 53.578125 
Q 30.03125 56 36.53125 56 
Q 37.453125 56 38.578125 55.875 
Q 39.703125 55.765625 41.0625 55.515625 
z
" id="DejaVuSans-114"/>
      <path d="M 30.609375 48.390625 
Q 23.390625 48.390625 19.1875 42.75 
Q 14.984375 37.109375 14.984375 27.296875 
Q 14.984375 17.484375 19.15625 11.84375 
Q 23.34375 6.203125 30.609375 6.203125 
Q 37.796875 6.203125 41.984375 11.859375 
Q 46.1875 17.53125 46.1875 27.296875 
Q 46.1875 37.015625 41.984375 42.703125 
Q 37.796875 48.390625 30.609375 48.390625 
z
M 30.609375 56 
Q 42.328125 56 49.015625 48.375 
Q 55.71875 40.765625 55.71875 27.296875 
Q 55.71875 13.875 49.015625 6.21875 
Q 42.328125 -1.421875 30.609375 -1.421875 
Q 18.84375 -1.421875 12.171875 6.21875 
Q 5.515625 13.875 5.515625 27.296875 
Q 5.515625 40.765625 12.171875 48.375 
Q 18.84375 56 30.609375 56 
z
" id="DejaVuSans-111"/>
      <path d="M 37.109375 75.984375 
L 37.109375 68.5 
L 28.515625 68.5 
Q 23.6875 68.5 21.796875 66.546875 
Q 19.921875 64.59375 19.921875 59.515625 
L 19.921875 54.6875 
L 34.71875 54.6875 
L 34.71875 47.703125 
L 19.921875 47.703125 
L 19.921875 0 
L 10.890625 0 
L 10.890625 47.703125 
L 2.296875 47.703125 
L 2.296875 54.6875 
L 10.890625 54.6875 
L 10.890625 58.5 
Q 10.890625 67.625 15.140625 71.796875 
Q 19.390625 75.984375 28.609375 75.984375 
z
" id="DejaVuSans-102"/>
      <path d="M 34.28125 27.484375 
Q 23.390625 27.484375 19.1875 25 
Q 14.984375 22.515625 14.984375 16.5 
Q 14.984375 11.71875 18.140625 8.90625 
Q 21.296875 6.109375 26.703125 6.109375 
Q 34.1875 6.109375 38.703125 11.40625 
Q 43.21875 16.703125 43.21875 25.484375 
L 43.21875 27.484375 
z
M 52.203125 31.203125 
L 52.203125 0 
L 43.21875 0 
L 43.21875 8.296875 
Q 40.140625 3.328125 35.546875 0.953125 
Q 30.953125 -1.421875 24.3125 -1.421875 
Q 15.921875 -1.421875 10.953125 3.296875 
Q 6 8.015625 6 15.921875 
Q 6 25.140625 12.171875 29.828125 
Q 18.359375 34.515625 30.609375 34.515625 
L 43.21875 34.515625 
L 43.21875 35.40625 
Q 43.21875 41.609375 39.140625 45 
Q 35.0625 48.390625 27.6875 48.390625 
Q 23 48.390625 18.546875 47.265625 
Q 14.109375 46.140625 10.015625 43.890625 
L 10.015625 52.203125 
Q 14.9375 54.109375 19.578125 55.046875 
Q 24.21875 56 28.609375 56 
Q 40.484375 56 46.34375 49.84375 
Q 52.203125 43.703125 52.203125 31.203125 
z
" id="DejaVuSans-97"/>
      <path d="M 18.109375 8.203125 
L 18.109375 -20.796875 
L 9.078125 -20.796875 
L 9.078125 54.6875 
L 18.109375 54.6875 
L 18.109375 46.390625 
Q 20.953125 51.265625 25.265625 53.625 
Q 29.59375 56 35.59375 56 
Q 45.5625 56 51.78125 48.09375 
Q 58.015625 40.1875 58.015625 27.296875 
Q 58.015625 14.40625 51.78125 6.484375 
Q 45.5625 -1.421875 35.59375 -1.421875 
Q 29.59375 -1.421875 25.265625 0.953125 
Q 20.953125 3.328125 18.109375 8.203125 
z
M 48.6875 27.296875 
Q 48.6875 37.203125 44.609375 42.84375 
Q 40.53125 48.484375 33.40625 48.484375 
Q 26.265625 48.484375 22.1875 42.84375 
Q 18.109375 37.203125 18.109375 27.296875 
Q 18.109375 17.390625 22.1875 11.75 
Q 26.265625 6.109375 33.40625 6.109375 
Q 40.53125 6.109375 44.609375 11.75 
Q 48.6875 17.390625 48.6875 27.296875 
z
" id="DejaVuSans-112"/>
      <path d="M 9.421875 75.984375 
L 18.40625 75.984375 
L 18.40625 0 
L 9.421875 0 
z
" id="DejaVuSans-108"/>
     </defs>
     <g transform="translate(12.707812 223.395187)rotate(-90)scale(0.1 -0.1)">
      <use xlink:href="#DejaVuSans-78"/>
      <use x="74.804688" xlink:href="#DejaVuSans-117"/>
      <use x="138.183594" xlink:href="#DejaVuSans-109"/>
      <use x="235.595703" xlink:href="#DejaVuSans-98"/>
      <use x="299.072266" xlink:href="#DejaVuSans-101"/>
      <use x="360.595703" xlink:href="#DejaVuSans-114"/>
      <use x="401.708984" xlink:href="#DejaVuSans-32"/>
      <use x="433.496094" xlink:href="#DejaVuSans-111"/>
      <use x="494.677734" xlink:href="#DejaVuSans-102"/>
      <use x="529.882812" xlink:href="#DejaVuSans-32"/>
      <use x="561.669922" xlink:href="#DejaVuSans-115"/>
      <use x="613.769531" xlink:href="#DejaVuSans-97"/>
      <use x="675.048828" xlink:href="#DejaVuSans-109"/>
      <use x="772.460938" xlink:href="#DejaVuSans-112"/>
      <use x="835.9375" xlink:href="#DejaVuSans-108"/>
      <use x="863.720703" xlink:href="#DejaVuSans-101"/>
      <use x="925.244141" xlink:href="#DejaVuSans-115"/>
     </g>
    </g>
   </g>
   <g id="line2d_17">
    <path clip-path="url(#p1052857a8d)" d="M 117.18706 307.584 
L 117.18706 41.472 
" style="fill:none;stroke:#fe6f5e;stroke-dasharray:5.55,2.4;stroke-dashoffset:0;stroke-width:1.5;"/>
   </g>
   <g id="line2d_18">
    <path clip-path="url(#p1052857a8d)" d="M 130.867314 307.584 
L 130.867314 41.472 
" style="fill:none;stroke:#5e9dfe;stroke-dasharray:5.55,2.4;stroke-dashoffset:0;stroke-width:1.5;"/>
   </g>
   <g id="line2d_19">
    <path clip-path="url(#p1052857a8d)" d="M 133.030001 307.584 
L 133.030001 41.472 
" style="fill:none;stroke:#5eedfe;stroke-dasharray:5.55,2.4;stroke-dashoffset:0;stroke-width:1.5;"/>
   </g>
   <g id="patch_303">
    <path d="M 57.6 307.584 
L 57.6 41.472 
" style="fill:none;stroke:#000000;stroke-linecap:square;stroke-linejoin:miter;stroke-width:0.8;"/>
   </g>
   <g id="patch_304">
    <path d="M 414.72 307.584 
L 414.72 41.472 
" style="fill:none;stroke:#000000;stroke-linecap:square;stroke-linejoin:miter;stroke-width:0.8;"/>
   </g>
   <g id="patch_305">
    <path d="M 57.6 307.584 
L 414.72 307.584 
" style="fill:none;stroke:#000000;stroke-linecap:square;stroke-linejoin:miter;stroke-width:0.8;"/>
   </g>
   <g id="patch_306">
    <path d="M 57.6 41.472 
L 414.72 41.472 
" style="fill:none;stroke:#000000;stroke-linecap:square;stroke-linejoin:miter;stroke-width:0.8;"/>
   </g>
   <g id="text_18">
    <!-- preinit samples -->
    <defs>
     <path d="M 9.421875 54.6875 
L 18.40625 54.6875 
L 18.40625 0 
L 9.421875 0 
z
M 9.421875 75.984375 
L 18.40625 75.984375 
L 18.40625 64.59375 
L 9.421875 64.59375 
z
" id="DejaVuSans-105"/>
     <path d="M 54.890625 33.015625 
L 54.890625 0 
L 45.90625 0 
L 45.90625 32.71875 
Q 45.90625 40.484375 42.875 44.328125 
Q 39.84375 48.1875 33.796875 48.1875 
Q 26.515625 48.1875 22.3125 43.546875 
Q 18.109375 38.921875 18.109375 30.90625 
L 18.109375 0 
L 9.078125 0 
L 9.078125 54.6875 
L 18.109375 54.6875 
L 18.109375 46.1875 
Q 21.34375 51.125 25.703125 53.5625 
Q 30.078125 56 35.796875 56 
Q 45.21875 56 50.046875 50.171875 
Q 54.890625 44.34375 54.890625 33.015625 
z
" id="DejaVuSans-110"/>
     <path d="M 18.3125 70.21875 
L 18.3125 54.6875 
L 36.8125 54.6875 
L 36.8125 47.703125 
L 18.3125 47.703125 
L 18.3125 18.015625 
Q 18.3125 11.328125 20.140625 9.421875 
Q 21.96875 7.515625 27.59375 7.515625 
L 36.8125 7.515625 
L 36.8125 0 
L 27.59375 0 
Q 17.1875 0 13.234375 3.875 
Q 9.28125 7.765625 9.28125 18.015625 
L 9.28125 47.703125 
L 2.6875 47.703125 
L 2.6875 54.6875 
L 9.28125 54.6875 
L 9.28125 70.21875 
z
" id="DejaVuSans-116"/>
    </defs>
    <g transform="translate(189.85875 35.472)scale(0.12 -0.12)">
     <use xlink:href="#DejaVuSans-112"/>
     <use x="63.476562" xlink:href="#DejaVuSans-114"/>
     <use x="104.558594" xlink:href="#DejaVuSans-101"/>
     <use x="166.082031" xlink:href="#DejaVuSans-105"/>
     <use x="193.865234" xlink:href="#DejaVuSans-110"/>
     <use x="257.244141" xlink:href="#DejaVuSans-105"/>
     <use x="285.027344" xlink:href="#DejaVuSans-116"/>
     <use x="324.236328" xlink:href="#DejaVuSans-32"/>
     <use x="356.023438" xlink:href="#DejaVuSans-115"/>
     <use x="408.123047" xlink:href="#DejaVuSans-97"/>
     <use x="469.402344" xlink:href="#DejaVuSans-109"/>
     <use x="566.814453" xlink:href="#DejaVuSans-112"/>
     <use x="630.291016" xlink:href="#DejaVuSans-108"/>
     <use x="658.074219" xlink:href="#DejaVuSans-101"/>
     <use x="719.597656" xlink:href="#DejaVuSans-115"/>
    </g>
   </g>
   <g id="legend_1">
    <g id="patch_307">
     <path d="M 344.146563 94.062625 
L 407.72 94.062625 
Q 409.72 94.062625 409.72 92.062625 
L 409.72 48.472 
Q 409.72 46.472 407.72 46.472 
L 344.146563 46.472 
Q 342.146563 46.472 342.146563 48.472 
L 342.146563 92.062625 
Q 342.146563 94.062625 344.146563 94.062625 
z
" style="fill:#ffffff;opacity:0.8;stroke:#cccccc;stroke-linejoin:miter;"/>
    </g>
    <g id="patch_308">
     <path d="M 346.146563 58.070437 
L 366.146563 58.070437 
L 366.146563 51.070437 
L 346.146563 51.070437 
z
" style="fill:#fe6f5e;fill-opacity:0.815686;"/>
    </g>
    <g id="text_19">
     <!-- ash -->
     <defs>
      <path d="M 54.890625 33.015625 
L 54.890625 0 
L 45.90625 0 
L 45.90625 32.71875 
Q 45.90625 40.484375 42.875 44.328125 
Q 39.84375 48.1875 33.796875 48.1875 
Q 26.515625 48.1875 22.3125 43.546875 
Q 18.109375 38.921875 18.109375 30.90625 
L 18.109375 0 
L 9.078125 0 
L 9.078125 75.984375 
L 18.109375 75.984375 
L 18.109375 46.1875 
Q 21.34375 51.125 25.703125 53.5625 
Q 30.078125 56 35.796875 56 
Q 45.21875 56 50.046875 50.171875 
Q 54.890625 44.34375 54.890625 33.015625 
z
" id="DejaVuSans-104"/>
     </defs>
     <g transform="translate(374.146563 58.070437)scale(0.1 -0.1)">
      <use xlink:href="#DejaVuSans-97"/>
      <use x="61.279297" xlink:href="#DejaVuSans-115"/>
      <use x="113.378906" xlink:href="#DejaVuSans-104"/>
     </g>
    </g>
    <g id="patch_309">
     <path d="M 346.146563 72.748562 
L 366.146563 72.748562 
L 366.146563 65.748562 
L 346.146563 65.748562 
z
" style="fill:#5e9dfe;fill-opacity:0.815686;"/>
    </g>
    <g id="text_20">
     <!-- vy_ST -->
     <defs>
      <path d="M 2.984375 54.6875 
L 12.5 54.6875 
L 29.59375 8.796875 
L 46.6875 54.6875 
L 56.203125 54.6875 
L 35.6875 0 
L 23.484375 0 
z
" id="DejaVuSans-118"/>
      <path d="M 32.171875 -5.078125 
Q 28.375 -14.84375 24.75 -17.8125 
Q 21.140625 -20.796875 15.09375 -20.796875 
L 7.90625 -20.796875 
L 7.90625 -13.28125 
L 13.1875 -13.28125 
Q 16.890625 -13.28125 18.9375 -11.515625 
Q 21 -9.765625 23.484375 -3.21875 
L 25.09375 0.875 
L 2.984375 54.6875 
L 12.5 54.6875 
L 29.59375 11.921875 
L 46.6875 54.6875 
L 56.203125 54.6875 
z
" id="DejaVuSans-121"/>
      <path d="M 50.984375 -16.609375 
L 50.984375 -23.578125 
L -0.984375 -23.578125 
L -0.984375 -16.609375 
z
" id="DejaVuSans-95"/>
      <path d="M 53.515625 70.515625 
L 53.515625 60.890625 
Q 47.90625 63.578125 42.921875 64.890625 
Q 37.9375 66.21875 33.296875 66.21875 
Q 25.25 66.21875 20.875 63.09375 
Q 16.5 59.96875 16.5 54.203125 
Q 16.5 49.359375 19.40625 46.890625 
Q 22.3125 44.4375 30.421875 42.921875 
L 36.375 41.703125 
Q 47.40625 39.59375 52.65625 34.296875 
Q 57.90625 29 57.90625 20.125 
Q 57.90625 9.515625 50.796875 4.046875 
Q 43.703125 -1.421875 29.984375 -1.421875 
Q 24.8125 -1.421875 18.96875 -0.25 
Q 13.140625 0.921875 6.890625 3.21875 
L 6.890625 13.375 
Q 12.890625 10.015625 18.65625 8.296875 
Q 24.421875 6.59375 29.984375 6.59375 
Q 38.421875 6.59375 43.015625 9.90625 
Q 47.609375 13.234375 47.609375 19.390625 
Q 47.609375 24.75 44.3125 27.78125 
Q 41.015625 30.8125 33.5 32.328125 
L 27.484375 33.5 
Q 16.453125 35.6875 11.515625 40.375 
Q 6.59375 45.0625 6.59375 53.421875 
Q 6.59375 63.09375 13.40625 68.65625 
Q 20.21875 74.21875 32.171875 74.21875 
Q 37.3125 74.21875 42.625 73.28125 
Q 47.953125 72.359375 53.515625 70.515625 
z
" id="DejaVuSans-83"/>
      <path d="M -0.296875 72.90625 
L 61.375 72.90625 
L 61.375 64.59375 
L 35.5 64.59375 
L 35.5 0 
L 25.59375 0 
L 25.59375 64.59375 
L -0.296875 64.59375 
z
" id="DejaVuSans-84"/>
     </defs>
     <g transform="translate(374.146563 72.748562)scale(0.1 -0.1)">
      <use xlink:href="#DejaVuSans-118"/>
      <use x="59.179688" xlink:href="#DejaVuSans-121"/>
      <use x="118.359375" xlink:href="#DejaVuSans-95"/>
      <use x="168.359375" xlink:href="#DejaVuSans-83"/>
      <use x="231.835938" xlink:href="#DejaVuSans-84"/>
     </g>
    </g>
    <g id="patch_310">
     <path d="M 346.146563 87.704812 
L 366.146563 87.704812 
L 366.146563 80.704812 
L 346.146563 80.704812 
z
" style="fill:#5eedfe;fill-opacity:0.815686;"/>
    </g>
    <g id="text_21">
     <!-- vy_MT -->
     <defs>
      <path d="M 9.8125 72.90625 
L 24.515625 72.90625 
L 43.109375 23.296875 
L 61.8125 72.90625 
L 76.515625 72.90625 
L 76.515625 0 
L 66.890625 0 
L 66.890625 64.015625 
L 48.09375 14.015625 
L 38.1875 14.015625 
L 19.390625 64.015625 
L 19.390625 0 
L 9.8125 0 
z
" id="DejaVuSans-77"/>
     </defs>
     <g transform="translate(374.146563 87.704812)scale(0.1 -0.1)">
      <use xlink:href="#DejaVuSans-118"/>
      <use x="59.179688" xlink:href="#DejaVuSans-121"/>
      <use x="118.359375" xlink:href="#DejaVuSans-95"/>
      <use x="168.359375" xlink:href="#DejaVuSans-77"/>
      <use x="254.638672" xlink:href="#DejaVuSans-84"/>
     </g>
    </g>
   </g>
  </g>
 </g>
 <defs>
  <clipPath id="p1052857a8d">
   <rect height="266.112" width="357.12" x="57.6" y="41.472"/>
  </clipPath>
 </defs>
</svg>
