<?xml version="1.0" encoding="utf-8" standalone="no"?>
<!DOCTYPE svg PUBLIC "-//W3C//DTD SVG 1.1//EN"
  "http://www.w3.org/Graphics/SVG/1.1/DTD/svg11.dtd">
<!-- Created with matplotlib (https://matplotlib.org/) -->
<svg height="345.6pt" version="1.1" viewBox="0 0 460.8 345.6" width="460.8pt" xmlns="http://www.w3.org/2000/svg" xmlns:xlink="http://www.w3.org/1999/xlink">
 <defs>
  <style type="text/css">
*{stroke-linecap:butt;stroke-linejoin:round;}
  </style>
 </defs>
 <g id="figure_1">
  <g id="patch_1">
   <path d="M 0 345.6 
L 460.8 345.6 
L 460.8 0 
L 0 0 
z
" style="fill:#ffffff;"/>
  </g>
  <g id="axes_1">
   <g id="patch_2">
    <path d="M 57.6 307.584 
L 414.72 307.584 
L 414.72 41.472 
L 57.6 41.472 
z
" style="fill:#ffffff;"/>
   </g>
   <g id="patch_3">
    <path clip-path="url(#pf38b7c2f87)" d="M 149.741788 307.584 
L 151.346923 307.584 
L 151.346923 306.108393 
L 149.741788 306.108393 
z
" style="fill:#fe6f5e;fill-opacity:0.815686;"/>
   </g>
   <g id="patch_4">
    <path clip-path="url(#pf38b7c2f87)" d="M 151.346923 307.584 
L 152.952058 307.584 
L 152.952058 305.798698 
L 151.346923 305.798698 
z
" style="fill:#fe6f5e;fill-opacity:0.815686;"/>
   </g>
   <g id="patch_5">
    <path clip-path="url(#pf38b7c2f87)" d="M 152.952058 307.584 
L 154.557193 307.584 
L 154.557193 305.725829 
L 152.952058 305.725829 
z
" style="fill:#fe6f5e;fill-opacity:0.815686;"/>
   </g>
   <g id="patch_6">
    <path clip-path="url(#pf38b7c2f87)" d="M 154.557193 307.584 
L 156.162328 307.584 
L 156.162328 305.106438 
L 154.557193 305.106438 
z
" style="fill:#fe6f5e;fill-opacity:0.815686;"/>
   </g>
   <g id="patch_7">
    <path clip-path="url(#pf38b7c2f87)" d="M 156.162328 307.584 
L 157.767463 307.584 
L 157.767463 304.1227 
L 156.162328 304.1227 
z
" style="fill:#fe6f5e;fill-opacity:0.815686;"/>
   </g>
   <g id="patch_8">
    <path clip-path="url(#pf38b7c2f87)" d="M 157.767463 307.584 
L 159.372598 307.584 
L 159.372598 303.066093 
L 157.767463 303.066093 
z
" style="fill:#fe6f5e;fill-opacity:0.815686;"/>
   </g>
   <g id="patch_9">
    <path clip-path="url(#pf38b7c2f87)" d="M 159.372598 307.584 
L 160.977734 307.584 
L 160.977734 301.317226 
L 159.372598 301.317226 
z
" style="fill:#fe6f5e;fill-opacity:0.815686;"/>
   </g>
   <g id="patch_10">
    <path clip-path="url(#pf38b7c2f87)" d="M 160.977734 307.584 
L 162.582869 307.584 
L 162.582869 299.550141 
L 160.977734 299.550141 
z
" style="fill:#fe6f5e;fill-opacity:0.815686;"/>
   </g>
   <g id="patch_11">
    <path clip-path="url(#pf38b7c2f87)" d="M 162.582869 307.584 
L 164.188004 307.584 
L 164.188004 299.677663 
L 162.582869 299.677663 
z
" style="fill:#fe6f5e;fill-opacity:0.815686;"/>
   </g>
   <g id="patch_12">
    <path clip-path="url(#pf38b7c2f87)" d="M 164.188004 307.584 
L 165.793139 307.584 
L 165.793139 298.092752 
L 164.188004 298.092752 
z
" style="fill:#fe6f5e;fill-opacity:0.815686;"/>
   </g>
   <g id="patch_13">
    <path clip-path="url(#pf38b7c2f87)" d="M 165.793139 307.584 
L 167.398274 307.584 
L 167.398274 299.677663 
L 165.793139 299.677663 
z
" style="fill:#fe6f5e;fill-opacity:0.815686;"/>
   </g>
   <g id="patch_14">
    <path clip-path="url(#pf38b7c2f87)" d="M 167.398274 307.584 
L 169.003409 307.584 
L 169.003409 300.424575 
L 167.398274 300.424575 
z
" style="fill:#fe6f5e;fill-opacity:0.815686;"/>
   </g>
   <g id="patch_15">
    <path clip-path="url(#pf38b7c2f87)" d="M 169.003409 307.584 
L 170.608544 307.584 
L 170.608544 302.519572 
L 169.003409 302.519572 
z
" style="fill:#fe6f5e;fill-opacity:0.815686;"/>
   </g>
   <g id="patch_16">
    <path clip-path="url(#pf38b7c2f87)" d="M 170.608544 307.584 
L 172.213679 307.584 
L 172.213679 304.177353 
L 170.608544 304.177353 
z
" style="fill:#fe6f5e;fill-opacity:0.815686;"/>
   </g>
   <g id="patch_17">
    <path clip-path="url(#pf38b7c2f87)" d="M 172.213679 307.584 
L 173.818814 307.584 
L 173.818814 305.525438 
L 172.213679 305.525438 
z
" style="fill:#fe6f5e;fill-opacity:0.815686;"/>
   </g>
   <g id="patch_18">
    <path clip-path="url(#pf38b7c2f87)" d="M 173.818814 307.584 
L 175.423949 307.584 
L 175.423949 305.980872 
L 173.818814 305.980872 
z
" style="fill:#fe6f5e;fill-opacity:0.815686;"/>
   </g>
   <g id="patch_19">
    <path clip-path="url(#pf38b7c2f87)" d="M 175.423949 307.584 
L 177.029085 307.584 
L 177.029085 306.454523 
L 175.423949 306.454523 
z
" style="fill:#fe6f5e;fill-opacity:0.815686;"/>
   </g>
   <g id="patch_20">
    <path clip-path="url(#pf38b7c2f87)" d="M 177.029085 307.584 
L 178.63422 307.584 
L 178.63422 306.654914 
L 177.029085 306.654914 
z
" style="fill:#fe6f5e;fill-opacity:0.815686;"/>
   </g>
   <g id="patch_21">
    <path clip-path="url(#pf38b7c2f87)" d="M 178.63422 307.584 
L 180.239355 307.584 
L 180.239355 306.800653 
L 178.63422 306.800653 
z
" style="fill:#fe6f5e;fill-opacity:0.815686;"/>
   </g>
   <g id="patch_22">
    <path clip-path="url(#pf38b7c2f87)" d="M 180.239355 307.584 
L 181.84449 307.584 
L 181.84449 306.126611 
L 180.239355 306.126611 
z
" style="fill:#fe6f5e;fill-opacity:0.815686;"/>
   </g>
   <g id="patch_23">
    <path clip-path="url(#pf38b7c2f87)" d="M 181.84449 307.584 
L 183.449625 307.584 
L 183.449625 305.288612 
L 181.84449 305.288612 
z
" style="fill:#fe6f5e;fill-opacity:0.815686;"/>
   </g>
   <g id="patch_24">
    <path clip-path="url(#pf38b7c2f87)" d="M 183.449625 307.584 
L 185.05476 307.584 
L 185.05476 304.906047 
L 183.449625 304.906047 
z
" style="fill:#fe6f5e;fill-opacity:0.815686;"/>
   </g>
   <g id="patch_25">
    <path clip-path="url(#pf38b7c2f87)" d="M 185.05476 307.584 
L 186.659895 307.584 
L 186.659895 304.924265 
L 185.05476 304.924265 
z
" style="fill:#fe6f5e;fill-opacity:0.815686;"/>
   </g>
   <g id="patch_26">
    <path clip-path="url(#pf38b7c2f87)" d="M 186.659895 307.584 
L 188.26503 307.584 
L 188.26503 304.049831 
L 186.659895 304.049831 
z
" style="fill:#fe6f5e;fill-opacity:0.815686;"/>
   </g>
   <g id="patch_27">
    <path clip-path="url(#pf38b7c2f87)" d="M 188.26503 307.584 
L 189.870165 307.584 
L 189.870165 302.738181 
L 188.26503 302.738181 
z
" style="fill:#fe6f5e;fill-opacity:0.815686;"/>
   </g>
   <g id="patch_28">
    <path clip-path="url(#pf38b7c2f87)" d="M 189.870165 307.584 
L 191.475301 307.584 
L 191.475301 301.663356 
L 189.870165 301.663356 
z
" style="fill:#fe6f5e;fill-opacity:0.815686;"/>
   </g>
   <g id="patch_29">
    <path clip-path="url(#pf38b7c2f87)" d="M 191.475301 307.584 
L 193.080436 307.584 
L 193.080436 301.025748 
L 191.475301 301.025748 
z
" style="fill:#fe6f5e;fill-opacity:0.815686;"/>
   </g>
   <g id="patch_30">
    <path clip-path="url(#pf38b7c2f87)" d="M 193.080436 307.584 
L 194.685571 307.584 
L 194.685571 300.369923 
L 193.080436 300.369923 
z
" style="fill:#fe6f5e;fill-opacity:0.815686;"/>
   </g>
   <g id="patch_31">
    <path clip-path="url(#pf38b7c2f87)" d="M 194.685571 307.584 
L 196.290706 307.584 
L 196.290706 299.240446 
L 194.685571 299.240446 
z
" style="fill:#fe6f5e;fill-opacity:0.815686;"/>
   </g>
   <g id="patch_32">
    <path clip-path="url(#pf38b7c2f87)" d="M 196.290706 307.584 
L 197.895841 307.584 
L 197.895841 298.11097 
L 196.290706 298.11097 
z
" style="fill:#fe6f5e;fill-opacity:0.815686;"/>
   </g>
   <g id="patch_33">
    <path clip-path="url(#pf38b7c2f87)" d="M 197.895841 307.584 
L 199.500976 307.584 
L 199.500976 297.947013 
L 197.895841 297.947013 
z
" style="fill:#fe6f5e;fill-opacity:0.815686;"/>
   </g>
   <g id="patch_34">
    <path clip-path="url(#pf38b7c2f87)" d="M 199.500976 307.584 
L 201.106111 307.584 
L 201.106111 296.853971 
L 199.500976 296.853971 
z
" style="fill:#fe6f5e;fill-opacity:0.815686;"/>
   </g>
   <g id="patch_35">
    <path clip-path="url(#pf38b7c2f87)" d="M 201.106111 307.584 
L 202.711246 307.584 
L 202.711246 296.580711 
L 201.106111 296.580711 
z
" style="fill:#fe6f5e;fill-opacity:0.815686;"/>
   </g>
   <g id="patch_36">
    <path clip-path="url(#pf38b7c2f87)" d="M 202.711246 307.584 
L 204.316381 307.584 
L 204.316381 296.72645 
L 202.711246 296.72645 
z
" style="fill:#fe6f5e;fill-opacity:0.815686;"/>
   </g>
   <g id="patch_37">
    <path clip-path="url(#pf38b7c2f87)" d="M 204.316381 307.584 
L 205.921516 307.584 
L 205.921516 297.181884 
L 204.316381 297.181884 
z
" style="fill:#fe6f5e;fill-opacity:0.815686;"/>
   </g>
   <g id="patch_38">
    <path clip-path="url(#pf38b7c2f87)" d="M 205.921516 307.584 
L 207.526652 307.584 
L 207.526652 297.491579 
L 205.921516 297.491579 
z
" style="fill:#fe6f5e;fill-opacity:0.815686;"/>
   </g>
   <g id="patch_39">
    <path clip-path="url(#pf38b7c2f87)" d="M 207.526652 307.584 
L 209.131787 307.584 
L 209.131787 297.564449 
L 207.526652 297.564449 
z
" style="fill:#fe6f5e;fill-opacity:0.815686;"/>
   </g>
   <g id="patch_40">
    <path clip-path="url(#pf38b7c2f87)" d="M 209.131787 307.584 
L 210.736922 307.584 
L 210.736922 297.291188 
L 209.131787 297.291188 
z
" style="fill:#fe6f5e;fill-opacity:0.815686;"/>
   </g>
   <g id="patch_41">
    <path clip-path="url(#pf38b7c2f87)" d="M 210.736922 307.584 
L 212.342057 307.584 
L 212.342057 297.436927 
L 210.736922 297.436927 
z
" style="fill:#fe6f5e;fill-opacity:0.815686;"/>
   </g>
   <g id="patch_42">
    <path clip-path="url(#pf38b7c2f87)" d="M 212.342057 307.584 
L 213.947192 307.584 
L 213.947192 297.054362 
L 212.342057 297.054362 
z
" style="fill:#fe6f5e;fill-opacity:0.815686;"/>
   </g>
   <g id="patch_43">
    <path clip-path="url(#pf38b7c2f87)" d="M 213.947192 307.584 
L 215.552327 307.584 
L 215.552327 295.870233 
L 213.947192 295.870233 
z
" style="fill:#fe6f5e;fill-opacity:0.815686;"/>
   </g>
   <g id="patch_44">
    <path clip-path="url(#pf38b7c2f87)" d="M 215.552327 307.584 
L 217.157462 307.584 
L 217.157462 293.429106 
L 215.552327 293.429106 
z
" style="fill:#fe6f5e;fill-opacity:0.815686;"/>
   </g>
   <g id="patch_45">
    <path clip-path="url(#pf38b7c2f87)" d="M 217.157462 307.584 
L 218.762597 307.584 
L 218.762597 288.091418 
L 217.157462 288.091418 
z
" style="fill:#fe6f5e;fill-opacity:0.815686;"/>
   </g>
   <g id="patch_46">
    <path clip-path="url(#pf38b7c2f87)" d="M 218.762597 307.584 
L 220.367732 307.584 
L 220.367732 279.219561 
L 218.762597 279.219561 
z
" style="fill:#fe6f5e;fill-opacity:0.815686;"/>
   </g>
   <g id="patch_47">
    <path clip-path="url(#pf38b7c2f87)" d="M 220.367732 307.584 
L 221.972868 307.584 
L 221.972868 263.497974 
L 220.367732 263.497974 
z
" style="fill:#fe6f5e;fill-opacity:0.815686;"/>
   </g>
   <g id="patch_48">
    <path clip-path="url(#pf38b7c2f87)" d="M 221.972868 307.584 
L 223.578003 307.584 
L 223.578003 242.730176 
L 221.972868 242.730176 
z
" style="fill:#fe6f5e;fill-opacity:0.815686;"/>
   </g>
   <g id="patch_49">
    <path clip-path="url(#pf38b7c2f87)" d="M 223.578003 307.584 
L 225.183138 307.584 
L 225.183138 222.545334 
L 223.578003 222.545334 
z
" style="fill:#fe6f5e;fill-opacity:0.815686;"/>
   </g>
   <g id="patch_50">
    <path clip-path="url(#pf38b7c2f87)" d="M 225.183138 307.584 
L 226.788273 307.584 
L 226.788273 198.698802 
L 225.183138 198.698802 
z
" style="fill:#fe6f5e;fill-opacity:0.815686;"/>
   </g>
   <g id="patch_51">
    <path clip-path="url(#pf38b7c2f87)" d="M 226.788273 307.584 
L 228.393408 307.584 
L 228.393408 183.778779 
L 226.788273 183.778779 
z
" style="fill:#fe6f5e;fill-opacity:0.815686;"/>
   </g>
   <g id="patch_52">
    <path clip-path="url(#pf38b7c2f87)" d="M 228.393408 307.584 
L 229.998543 307.584 
L 229.998543 171.773534 
L 228.393408 171.773534 
z
" style="fill:#fe6f5e;fill-opacity:0.815686;"/>
   </g>
   <g id="patch_53">
    <path clip-path="url(#pf38b7c2f87)" d="M 229.998543 307.584 
L 231.603678 307.584 
L 231.603678 160.132637 
L 229.998543 160.132637 
z
" style="fill:#fe6f5e;fill-opacity:0.815686;"/>
   </g>
   <g id="patch_54">
    <path clip-path="url(#pf38b7c2f87)" d="M 231.603678 307.584 
L 233.208813 307.584 
L 233.208813 162.865242 
L 231.603678 162.865242 
z
" style="fill:#fe6f5e;fill-opacity:0.815686;"/>
   </g>
   <g id="patch_55">
    <path clip-path="url(#pf38b7c2f87)" d="M 233.208813 307.584 
L 234.813948 307.584 
L 234.813948 174.925139 
L 233.208813 174.925139 
z
" style="fill:#fe6f5e;fill-opacity:0.815686;"/>
   </g>
   <g id="patch_56">
    <path clip-path="url(#pf38b7c2f87)" d="M 234.813948 307.584 
L 236.419083 307.584 
L 236.419083 199.810061 
L 234.813948 199.810061 
z
" style="fill:#fe6f5e;fill-opacity:0.815686;"/>
   </g>
   <g id="patch_57">
    <path clip-path="url(#pf38b7c2f87)" d="M 236.419083 307.584 
L 238.024219 307.584 
L 238.024219 225.168635 
L 236.419083 225.168635 
z
" style="fill:#fe6f5e;fill-opacity:0.815686;"/>
   </g>
   <g id="patch_58">
    <path clip-path="url(#pf38b7c2f87)" d="M 238.024219 307.584 
L 239.629354 307.584 
L 239.629354 248.778342 
L 238.024219 248.778342 
z
" style="fill:#fe6f5e;fill-opacity:0.815686;"/>
   </g>
   <g id="patch_59">
    <path clip-path="url(#pf38b7c2f87)" d="M 239.629354 307.584 
L 241.234489 307.584 
L 241.234489 273.043873 
L 239.629354 273.043873 
z
" style="fill:#fe6f5e;fill-opacity:0.815686;"/>
   </g>
   <g id="patch_60">
    <path clip-path="url(#pf38b7c2f87)" d="M 241.234489 307.584 
L 242.839624 307.584 
L 242.839624 287.10768 
L 241.234489 287.10768 
z
" style="fill:#fe6f5e;fill-opacity:0.815686;"/>
   </g>
   <g id="patch_61">
    <path clip-path="url(#pf38b7c2f87)" d="M 242.839624 307.584 
L 244.444759 307.584 
L 244.444759 295.633408 
L 242.839624 295.633408 
z
" style="fill:#fe6f5e;fill-opacity:0.815686;"/>
   </g>
   <g id="patch_62">
    <path clip-path="url(#pf38b7c2f87)" d="M 244.444759 307.584 
L 246.049894 307.584 
L 246.049894 299.659446 
L 244.444759 299.659446 
z
" style="fill:#fe6f5e;fill-opacity:0.815686;"/>
   </g>
   <g id="patch_63">
    <path clip-path="url(#pf38b7c2f87)" d="M 246.049894 307.584 
L 247.655029 307.584 
L 247.655029 301.645139 
L 246.049894 301.645139 
z
" style="fill:#fe6f5e;fill-opacity:0.815686;"/>
   </g>
   <g id="patch_64">
    <path clip-path="url(#pf38b7c2f87)" d="M 247.655029 307.584 
L 249.260164 307.584 
L 249.260164 303.284702 
L 247.655029 303.284702 
z
" style="fill:#fe6f5e;fill-opacity:0.815686;"/>
   </g>
   <g id="patch_65">
    <path clip-path="url(#pf38b7c2f87)" d="M 249.260164 307.584 
L 250.865299 307.584 
L 250.865299 302.665311 
L 249.260164 302.665311 
z
" style="fill:#fe6f5e;fill-opacity:0.815686;"/>
   </g>
   <g id="patch_66">
    <path clip-path="url(#pf38b7c2f87)" d="M 250.865299 307.584 
L 252.470435 307.584 
L 252.470435 303.084311 
L 250.865299 303.084311 
z
" style="fill:#fe6f5e;fill-opacity:0.815686;"/>
   </g>
   <g id="patch_67">
    <path clip-path="url(#pf38b7c2f87)" d="M 252.470435 307.584 
L 254.07557 307.584 
L 254.07557 302.993224 
L 252.470435 302.993224 
z
" style="fill:#fe6f5e;fill-opacity:0.815686;"/>
   </g>
   <g id="patch_68">
    <path clip-path="url(#pf38b7c2f87)" d="M 254.07557 307.584 
L 255.680705 307.584 
L 255.680705 303.557962 
L 254.07557 303.557962 
z
" style="fill:#fe6f5e;fill-opacity:0.815686;"/>
   </g>
   <g id="patch_69">
    <path clip-path="url(#pf38b7c2f87)" d="M 255.680705 307.584 
L 257.28584 307.584 
L 257.28584 303.266484 
L 255.680705 303.266484 
z
" style="fill:#fe6f5e;fill-opacity:0.815686;"/>
   </g>
   <g id="patch_70">
    <path clip-path="url(#pf38b7c2f87)" d="M 257.28584 307.584 
L 258.890975 307.584 
L 258.890975 302.883919 
L 257.28584 302.883919 
z
" style="fill:#fe6f5e;fill-opacity:0.815686;"/>
   </g>
   <g id="patch_71">
    <path clip-path="url(#pf38b7c2f87)" d="M 258.890975 307.584 
L 260.49611 307.584 
L 260.49611 303.248267 
L 258.890975 303.248267 
z
" style="fill:#fe6f5e;fill-opacity:0.815686;"/>
   </g>
   <g id="patch_72">
    <path clip-path="url(#pf38b7c2f87)" d="M 260.49611 307.584 
L 262.101245 307.584 
L 262.101245 302.883919 
L 260.49611 302.883919 
z
" style="fill:#fe6f5e;fill-opacity:0.815686;"/>
   </g>
   <g id="patch_73">
    <path clip-path="url(#pf38b7c2f87)" d="M 262.101245 307.584 
L 263.70638 307.584 
L 263.70638 302.956789 
L 262.101245 302.956789 
z
" style="fill:#fe6f5e;fill-opacity:0.815686;"/>
   </g>
   <g id="patch_74">
    <path clip-path="url(#pf38b7c2f87)" d="M 263.70638 307.584 
L 265.311515 307.584 
L 265.311515 303.211832 
L 263.70638 303.211832 
z
" style="fill:#fe6f5e;fill-opacity:0.815686;"/>
   </g>
   <g id="patch_75">
    <path clip-path="url(#pf38b7c2f87)" d="M 265.311515 307.584 
L 266.91665 307.584 
L 266.91665 303.685484 
L 265.311515 303.685484 
z
" style="fill:#fe6f5e;fill-opacity:0.815686;"/>
   </g>
   <g id="patch_76">
    <path clip-path="url(#pf38b7c2f87)" d="M 266.91665 307.584 
L 268.521786 307.584 
L 268.521786 303.867657 
L 266.91665 303.867657 
z
" style="fill:#fe6f5e;fill-opacity:0.815686;"/>
   </g>
   <g id="patch_77">
    <path clip-path="url(#pf38b7c2f87)" d="M 268.521786 307.584 
L 270.126921 307.584 
L 270.126921 304.104483 
L 268.521786 304.104483 
z
" style="fill:#fe6f5e;fill-opacity:0.815686;"/>
   </g>
   <g id="patch_78">
    <path clip-path="url(#pf38b7c2f87)" d="M 270.126921 307.584 
L 271.732056 307.584 
L 271.732056 305.215742 
L 270.126921 305.215742 
z
" style="fill:#fe6f5e;fill-opacity:0.815686;"/>
   </g>
   <g id="patch_79">
    <path clip-path="url(#pf38b7c2f87)" d="M 271.732056 307.584 
L 273.337191 307.584 
L 273.337191 305.215742 
L 271.732056 305.215742 
z
" style="fill:#fe6f5e;fill-opacity:0.815686;"/>
   </g>
   <g id="patch_80">
    <path clip-path="url(#pf38b7c2f87)" d="M 273.337191 307.584 
L 274.942326 307.584 
L 274.942326 305.816915 
L 273.337191 305.816915 
z
" style="fill:#fe6f5e;fill-opacity:0.815686;"/>
   </g>
   <g id="patch_81">
    <path clip-path="url(#pf38b7c2f87)" d="M 274.942326 307.584 
L 276.547461 307.584 
L 276.547461 306.090176 
L 274.942326 306.090176 
z
" style="fill:#fe6f5e;fill-opacity:0.815686;"/>
   </g>
   <g id="patch_82">
    <path clip-path="url(#pf38b7c2f87)" d="M 276.547461 307.584 
L 278.152596 307.584 
L 278.152596 306.636697 
L 276.547461 306.636697 
z
" style="fill:#fe6f5e;fill-opacity:0.815686;"/>
   </g>
   <g id="patch_83">
    <path clip-path="url(#pf38b7c2f87)" d="M 278.152596 307.584 
L 279.757731 307.584 
L 279.757731 306.673132 
L 278.152596 306.673132 
z
" style="fill:#fe6f5e;fill-opacity:0.815686;"/>
   </g>
   <g id="patch_84">
    <path clip-path="url(#pf38b7c2f87)" d="M 279.757731 307.584 
L 281.362866 307.584 
L 281.362866 306.928175 
L 279.757731 306.928175 
z
" style="fill:#fe6f5e;fill-opacity:0.815686;"/>
   </g>
   <g id="patch_85">
    <path clip-path="url(#pf38b7c2f87)" d="M 281.362866 307.584 
L 282.968002 307.584 
L 282.968002 306.909957 
L 281.362866 306.909957 
z
" style="fill:#fe6f5e;fill-opacity:0.815686;"/>
   </g>
   <g id="patch_86">
    <path clip-path="url(#pf38b7c2f87)" d="M 282.968002 307.584 
L 284.573137 307.584 
L 284.573137 307.037479 
L 282.968002 307.037479 
z
" style="fill:#fe6f5e;fill-opacity:0.815686;"/>
   </g>
   <g id="patch_87">
    <path clip-path="url(#pf38b7c2f87)" d="M 284.573137 307.584 
L 286.178272 307.584 
L 286.178272 306.982827 
L 284.573137 306.982827 
z
" style="fill:#fe6f5e;fill-opacity:0.815686;"/>
   </g>
   <g id="patch_88">
    <path clip-path="url(#pf38b7c2f87)" d="M 286.178272 307.584 
L 287.783407 307.584 
L 287.783407 306.873523 
L 286.178272 306.873523 
z
" style="fill:#fe6f5e;fill-opacity:0.815686;"/>
   </g>
   <g id="patch_89">
    <path clip-path="url(#pf38b7c2f87)" d="M 287.783407 307.584 
L 289.388542 307.584 
L 289.388542 307.001044 
L 287.783407 307.001044 
z
" style="fill:#fe6f5e;fill-opacity:0.815686;"/>
   </g>
   <g id="patch_90">
    <path clip-path="url(#pf38b7c2f87)" d="M 289.388542 307.584 
L 290.993677 307.584 
L 290.993677 307.256087 
L 289.388542 307.256087 
z
" style="fill:#fe6f5e;fill-opacity:0.815686;"/>
   </g>
   <g id="patch_91">
    <path clip-path="url(#pf38b7c2f87)" d="M 290.993677 307.584 
L 292.598812 307.584 
L 292.598812 307.165001 
L 290.993677 307.165001 
z
" style="fill:#fe6f5e;fill-opacity:0.815686;"/>
   </g>
   <g id="patch_92">
    <path clip-path="url(#pf38b7c2f87)" d="M 292.598812 307.584 
L 294.203947 307.584 
L 294.203947 307.219653 
L 292.598812 307.219653 
z
" style="fill:#fe6f5e;fill-opacity:0.815686;"/>
   </g>
   <g id="patch_93">
    <path clip-path="url(#pf38b7c2f87)" d="M 294.203947 307.584 
L 295.809082 307.584 
L 295.809082 307.073914 
L 294.203947 307.073914 
z
" style="fill:#fe6f5e;fill-opacity:0.815686;"/>
   </g>
   <g id="patch_94">
    <path clip-path="url(#pf38b7c2f87)" d="M 295.809082 307.584 
L 297.414217 307.584 
L 297.414217 307.274305 
L 295.809082 307.274305 
z
" style="fill:#fe6f5e;fill-opacity:0.815686;"/>
   </g>
   <g id="patch_95">
    <path clip-path="url(#pf38b7c2f87)" d="M 297.414217 307.584 
L 299.019353 307.584 
L 299.019353 307.256087 
L 297.414217 307.256087 
z
" style="fill:#fe6f5e;fill-opacity:0.815686;"/>
   </g>
   <g id="patch_96">
    <path clip-path="url(#pf38b7c2f87)" d="M 299.019353 307.584 
L 300.624488 307.584 
L 300.624488 307.256087 
L 299.019353 307.256087 
z
" style="fill:#fe6f5e;fill-opacity:0.815686;"/>
   </g>
   <g id="patch_97">
    <path clip-path="url(#pf38b7c2f87)" d="M 300.624488 307.584 
L 302.229623 307.584 
L 302.229623 307.183218 
L 300.624488 307.183218 
z
" style="fill:#fe6f5e;fill-opacity:0.815686;"/>
   </g>
   <g id="patch_98">
    <path clip-path="url(#pf38b7c2f87)" d="M 302.229623 307.584 
L 303.834758 307.584 
L 303.834758 307.328957 
L 302.229623 307.328957 
z
" style="fill:#fe6f5e;fill-opacity:0.815686;"/>
   </g>
   <g id="patch_99">
    <path clip-path="url(#pf38b7c2f87)" d="M 303.834758 307.584 
L 305.439893 307.584 
L 305.439893 307.274305 
L 303.834758 307.274305 
z
" style="fill:#fe6f5e;fill-opacity:0.815686;"/>
   </g>
   <g id="patch_100">
    <path clip-path="url(#pf38b7c2f87)" d="M 305.439893 307.584 
L 307.045028 307.584 
L 307.045028 307.383609 
L 305.439893 307.383609 
z
" style="fill:#fe6f5e;fill-opacity:0.815686;"/>
   </g>
   <g id="patch_101">
    <path clip-path="url(#pf38b7c2f87)" d="M 307.045028 307.584 
L 308.650163 307.584 
L 308.650163 307.201435 
L 307.045028 307.201435 
z
" style="fill:#fe6f5e;fill-opacity:0.815686;"/>
   </g>
   <g id="patch_102">
    <path clip-path="url(#pf38b7c2f87)" d="M 308.650163 307.584 
L 310.255298 307.584 
L 310.255298 307.256087 
L 308.650163 307.256087 
z
" style="fill:#fe6f5e;fill-opacity:0.815686;"/>
   </g>
   <g id="patch_103">
    <path clip-path="url(#pf38b7c2f87)" d="M 156.029941 307.584 
L 157.735522 307.584 
L 157.735522 305.85335 
L 156.029941 305.85335 
z
" style="fill:#5e9dfe;fill-opacity:0.815686;"/>
   </g>
   <g id="patch_104">
    <path clip-path="url(#pf38b7c2f87)" d="M 157.735522 307.584 
L 159.441104 307.584 
L 159.441104 305.980872 
L 157.735522 305.980872 
z
" style="fill:#5e9dfe;fill-opacity:0.815686;"/>
   </g>
   <g id="patch_105">
    <path clip-path="url(#pf38b7c2f87)" d="M 159.441104 307.584 
L 161.146685 307.584 
L 161.146685 305.470786 
L 159.441104 305.470786 
z
" style="fill:#5e9dfe;fill-opacity:0.815686;"/>
   </g>
   <g id="patch_106">
    <path clip-path="url(#pf38b7c2f87)" d="M 161.146685 307.584 
L 162.852266 307.584 
L 162.852266 305.106438 
L 161.146685 305.106438 
z
" style="fill:#5e9dfe;fill-opacity:0.815686;"/>
   </g>
   <g id="patch_107">
    <path clip-path="url(#pf38b7c2f87)" d="M 162.852266 307.584 
L 164.557847 307.584 
L 164.557847 303.539745 
L 162.852266 303.539745 
z
" style="fill:#5e9dfe;fill-opacity:0.815686;"/>
   </g>
   <g id="patch_108">
    <path clip-path="url(#pf38b7c2f87)" d="M 164.557847 307.584 
L 166.263428 307.584 
L 166.263428 301.991269 
L 164.557847 301.991269 
z
" style="fill:#5e9dfe;fill-opacity:0.815686;"/>
   </g>
   <g id="patch_109">
    <path clip-path="url(#pf38b7c2f87)" d="M 166.263428 307.584 
L 167.969009 307.584 
L 167.969009 300.333488 
L 166.263428 300.333488 
z
" style="fill:#5e9dfe;fill-opacity:0.815686;"/>
   </g>
   <g id="patch_110">
    <path clip-path="url(#pf38b7c2f87)" d="M 167.969009 307.584 
L 169.67459 307.584 
L 169.67459 298.967186 
L 167.969009 298.967186 
z
" style="fill:#5e9dfe;fill-opacity:0.815686;"/>
   </g>
   <g id="patch_111">
    <path clip-path="url(#pf38b7c2f87)" d="M 169.67459 307.584 
L 171.380171 307.584 
L 171.380171 296.744667 
L 169.67459 296.744667 
z
" style="fill:#5e9dfe;fill-opacity:0.815686;"/>
   </g>
   <g id="patch_112">
    <path clip-path="url(#pf38b7c2f87)" d="M 171.380171 307.584 
L 173.085752 307.584 
L 173.085752 296.65358 
L 171.380171 296.65358 
z
" style="fill:#5e9dfe;fill-opacity:0.815686;"/>
   </g>
   <g id="patch_113">
    <path clip-path="url(#pf38b7c2f87)" d="M 173.085752 307.584 
L 174.791333 307.584 
L 174.791333 296.526059 
L 173.085752 296.526059 
z
" style="fill:#5e9dfe;fill-opacity:0.815686;"/>
   </g>
   <g id="patch_114">
    <path clip-path="url(#pf38b7c2f87)" d="M 174.791333 307.584 
L 176.496914 307.584 
L 176.496914 296.799319 
L 174.791333 296.799319 
z
" style="fill:#5e9dfe;fill-opacity:0.815686;"/>
   </g>
   <g id="patch_115">
    <path clip-path="url(#pf38b7c2f87)" d="M 176.496914 307.584 
L 178.202495 307.584 
L 178.202495 297.710187 
L 176.496914 297.710187 
z
" style="fill:#5e9dfe;fill-opacity:0.815686;"/>
   </g>
   <g id="patch_116">
    <path clip-path="url(#pf38b7c2f87)" d="M 178.202495 307.584 
L 179.908076 307.584 
L 179.908076 300.825357 
L 178.202495 300.825357 
z
" style="fill:#5e9dfe;fill-opacity:0.815686;"/>
   </g>
   <g id="patch_117">
    <path clip-path="url(#pf38b7c2f87)" d="M 179.908076 307.584 
L 181.613658 307.584 
L 181.613658 303.029658 
L 179.908076 303.029658 
z
" style="fill:#5e9dfe;fill-opacity:0.815686;"/>
   </g>
   <g id="patch_118">
    <path clip-path="url(#pf38b7c2f87)" d="M 181.613658 307.584 
L 183.319239 307.584 
L 183.319239 305.033569 
L 181.613658 305.033569 
z
" style="fill:#5e9dfe;fill-opacity:0.815686;"/>
   </g>
   <g id="patch_119">
    <path clip-path="url(#pf38b7c2f87)" d="M 183.319239 307.584 
L 185.02482 307.584 
L 185.02482 305.962654 
L 183.319239 305.962654 
z
" style="fill:#5e9dfe;fill-opacity:0.815686;"/>
   </g>
   <g id="patch_120">
    <path clip-path="url(#pf38b7c2f87)" d="M 185.02482 307.584 
L 186.730401 307.584 
L 186.730401 306.308784 
L 185.02482 306.308784 
z
" style="fill:#5e9dfe;fill-opacity:0.815686;"/>
   </g>
   <g id="patch_121">
    <path clip-path="url(#pf38b7c2f87)" d="M 186.730401 307.584 
L 188.435982 307.584 
L 188.435982 306.490958 
L 186.730401 306.490958 
z
" style="fill:#5e9dfe;fill-opacity:0.815686;"/>
   </g>
   <g id="patch_122">
    <path clip-path="url(#pf38b7c2f87)" d="M 188.435982 307.584 
L 190.141563 307.584 
L 190.141563 306.800653 
L 188.435982 306.800653 
z
" style="fill:#5e9dfe;fill-opacity:0.815686;"/>
   </g>
   <g id="patch_123">
    <path clip-path="url(#pf38b7c2f87)" d="M 190.141563 307.584 
L 191.847144 307.584 
L 191.847144 306.764219 
L 190.141563 306.764219 
z
" style="fill:#5e9dfe;fill-opacity:0.815686;"/>
   </g>
   <g id="patch_124">
    <path clip-path="url(#pf38b7c2f87)" d="M 191.847144 307.584 
L 193.552725 307.584 
L 193.552725 306.071959 
L 191.847144 306.071959 
z
" style="fill:#5e9dfe;fill-opacity:0.815686;"/>
   </g>
   <g id="patch_125">
    <path clip-path="url(#pf38b7c2f87)" d="M 193.552725 307.584 
L 195.258306 307.584 
L 195.258306 305.725829 
L 193.552725 305.725829 
z
" style="fill:#5e9dfe;fill-opacity:0.815686;"/>
   </g>
   <g id="patch_126">
    <path clip-path="url(#pf38b7c2f87)" d="M 195.258306 307.584 
L 196.963887 307.584 
L 196.963887 304.833178 
L 195.258306 304.833178 
z
" style="fill:#5e9dfe;fill-opacity:0.815686;"/>
   </g>
   <g id="patch_127">
    <path clip-path="url(#pf38b7c2f87)" d="M 196.963887 307.584 
L 198.669468 307.584 
L 198.669468 303.649049 
L 196.963887 303.649049 
z
" style="fill:#5e9dfe;fill-opacity:0.815686;"/>
   </g>
   <g id="patch_128">
    <path clip-path="url(#pf38b7c2f87)" d="M 198.669468 307.584 
L 200.375049 307.584 
L 200.375049 303.649049 
L 198.669468 303.649049 
z
" style="fill:#5e9dfe;fill-opacity:0.815686;"/>
   </g>
   <g id="patch_129">
    <path clip-path="url(#pf38b7c2f87)" d="M 200.375049 307.584 
L 202.08063 307.584 
L 202.08063 302.592442 
L 200.375049 302.592442 
z
" style="fill:#5e9dfe;fill-opacity:0.815686;"/>
   </g>
   <g id="patch_130">
    <path clip-path="url(#pf38b7c2f87)" d="M 202.08063 307.584 
L 203.786212 307.584 
L 203.786212 302.082355 
L 202.08063 302.082355 
z
" style="fill:#5e9dfe;fill-opacity:0.815686;"/>
   </g>
   <g id="patch_131">
    <path clip-path="url(#pf38b7c2f87)" d="M 203.786212 307.584 
L 205.491793 307.584 
L 205.491793 301.207922 
L 203.786212 301.207922 
z
" style="fill:#5e9dfe;fill-opacity:0.815686;"/>
   </g>
   <g id="patch_132">
    <path clip-path="url(#pf38b7c2f87)" d="M 205.491793 307.584 
L 207.197374 307.584 
L 207.197374 299.568359 
L 205.491793 299.568359 
z
" style="fill:#5e9dfe;fill-opacity:0.815686;"/>
   </g>
   <g id="patch_133">
    <path clip-path="url(#pf38b7c2f87)" d="M 207.197374 307.584 
L 208.902955 307.584 
L 208.902955 299.258664 
L 207.197374 299.258664 
z
" style="fill:#5e9dfe;fill-opacity:0.815686;"/>
   </g>
   <g id="patch_134">
    <path clip-path="url(#pf38b7c2f87)" d="M 208.902955 307.584 
L 210.608536 307.584 
L 210.608536 299.058273 
L 208.902955 299.058273 
z
" style="fill:#5e9dfe;fill-opacity:0.815686;"/>
   </g>
   <g id="patch_135">
    <path clip-path="url(#pf38b7c2f87)" d="M 210.608536 307.584 
L 212.314117 307.584 
L 212.314117 298.074535 
L 210.608536 298.074535 
z
" style="fill:#5e9dfe;fill-opacity:0.815686;"/>
   </g>
   <g id="patch_136">
    <path clip-path="url(#pf38b7c2f87)" d="M 212.314117 307.584 
L 214.019698 307.584 
L 214.019698 298.402447 
L 212.314117 298.402447 
z
" style="fill:#5e9dfe;fill-opacity:0.815686;"/>
   </g>
   <g id="patch_137">
    <path clip-path="url(#pf38b7c2f87)" d="M 214.019698 307.584 
L 215.725279 307.584 
L 215.725279 298.475317 
L 214.019698 298.475317 
z
" style="fill:#5e9dfe;fill-opacity:0.815686;"/>
   </g>
   <g id="patch_138">
    <path clip-path="url(#pf38b7c2f87)" d="M 215.725279 307.584 
L 217.43086 307.584 
L 217.43086 299.367968 
L 215.725279 299.367968 
z
" style="fill:#5e9dfe;fill-opacity:0.815686;"/>
   </g>
   <g id="patch_139">
    <path clip-path="url(#pf38b7c2f87)" d="M 217.43086 307.584 
L 219.136441 307.584 
L 219.136441 298.311361 
L 217.43086 298.311361 
z
" style="fill:#5e9dfe;fill-opacity:0.815686;"/>
   </g>
   <g id="patch_140">
    <path clip-path="url(#pf38b7c2f87)" d="M 219.136441 307.584 
L 220.842022 307.584 
L 220.842022 299.07649 
L 219.136441 299.07649 
z
" style="fill:#5e9dfe;fill-opacity:0.815686;"/>
   </g>
   <g id="patch_141">
    <path clip-path="url(#pf38b7c2f87)" d="M 220.842022 307.584 
L 222.547603 307.584 
L 222.547603 298.457099 
L 220.842022 298.457099 
z
" style="fill:#5e9dfe;fill-opacity:0.815686;"/>
   </g>
   <g id="patch_142">
    <path clip-path="url(#pf38b7c2f87)" d="M 222.547603 307.584 
L 224.253185 307.584 
L 224.253185 298.092752 
L 222.547603 298.092752 
z
" style="fill:#5e9dfe;fill-opacity:0.815686;"/>
   </g>
   <g id="patch_143">
    <path clip-path="url(#pf38b7c2f87)" d="M 224.253185 307.584 
L 225.958766 307.584 
L 225.958766 297.127232 
L 224.253185 297.127232 
z
" style="fill:#5e9dfe;fill-opacity:0.815686;"/>
   </g>
   <g id="patch_144">
    <path clip-path="url(#pf38b7c2f87)" d="M 225.958766 307.584 
L 227.664347 307.584 
L 227.664347 295.469451 
L 225.958766 295.469451 
z
" style="fill:#5e9dfe;fill-opacity:0.815686;"/>
   </g>
   <g id="patch_145">
    <path clip-path="url(#pf38b7c2f87)" d="M 227.664347 307.584 
L 229.369928 307.584 
L 229.369928 290.623632 
L 227.664347 290.623632 
z
" style="fill:#5e9dfe;fill-opacity:0.815686;"/>
   </g>
   <g id="patch_146">
    <path clip-path="url(#pf38b7c2f87)" d="M 229.369928 307.584 
L 231.075509 307.584 
L 231.075509 283.37312 
L 229.369928 283.37312 
z
" style="fill:#5e9dfe;fill-opacity:0.815686;"/>
   </g>
   <g id="patch_147">
    <path clip-path="url(#pf38b7c2f87)" d="M 231.075509 307.584 
L 232.78109 307.584 
L 232.78109 266.941056 
L 231.075509 266.941056 
z
" style="fill:#5e9dfe;fill-opacity:0.815686;"/>
   </g>
   <g id="patch_148">
    <path clip-path="url(#pf38b7c2f87)" d="M 232.78109 307.584 
L 234.486671 307.584 
L 234.486671 245.590302 
L 232.78109 245.590302 
z
" style="fill:#5e9dfe;fill-opacity:0.815686;"/>
   </g>
   <g id="patch_149">
    <path clip-path="url(#pf38b7c2f87)" d="M 234.486671 307.584 
L 236.192252 307.584 
L 236.192252 219.430164 
L 234.486671 219.430164 
z
" style="fill:#5e9dfe;fill-opacity:0.815686;"/>
   </g>
   <g id="patch_150">
    <path clip-path="url(#pf38b7c2f87)" d="M 236.192252 307.584 
L 237.897833 307.584 
L 237.897833 200.793799 
L 236.192252 200.793799 
z
" style="fill:#5e9dfe;fill-opacity:0.815686;"/>
   </g>
   <g id="patch_151">
    <path clip-path="url(#pf38b7c2f87)" d="M 237.897833 307.584 
L 239.603414 307.584 
L 239.603414 177.803482 
L 237.897833 177.803482 
z
" style="fill:#5e9dfe;fill-opacity:0.815686;"/>
   </g>
   <g id="patch_152">
    <path clip-path="url(#pf38b7c2f87)" d="M 239.603414 307.584 
L 241.308995 307.584 
L 241.308995 160.606289 
L 239.603414 160.606289 
z
" style="fill:#5e9dfe;fill-opacity:0.815686;"/>
   </g>
   <g id="patch_153">
    <path clip-path="url(#pf38b7c2f87)" d="M 241.308995 307.584 
L 243.014576 307.584 
L 243.014576 148.018089 
L 241.308995 148.018089 
z
" style="fill:#5e9dfe;fill-opacity:0.815686;"/>
   </g>
   <g id="patch_154">
    <path clip-path="url(#pf38b7c2f87)" d="M 243.014576 307.584 
L 244.720157 307.584 
L 244.720157 153.993385 
L 243.014576 153.993385 
z
" style="fill:#5e9dfe;fill-opacity:0.815686;"/>
   </g>
   <g id="patch_155">
    <path clip-path="url(#pf38b7c2f87)" d="M 244.720157 307.584 
L 246.425739 307.584 
L 246.425739 162.245852 
L 244.720157 162.245852 
z
" style="fill:#5e9dfe;fill-opacity:0.815686;"/>
   </g>
   <g id="patch_156">
    <path clip-path="url(#pf38b7c2f87)" d="M 246.425739 307.584 
L 248.13132 307.584 
L 248.13132 195.091763 
L 246.425739 195.091763 
z
" style="fill:#5e9dfe;fill-opacity:0.815686;"/>
   </g>
   <g id="patch_157">
    <path clip-path="url(#pf38b7c2f87)" d="M 248.13132 307.584 
L 249.836901 307.584 
L 249.836901 231.508278 
L 248.13132 231.508278 
z
" style="fill:#5e9dfe;fill-opacity:0.815686;"/>
   </g>
   <g id="patch_158">
    <path clip-path="url(#pf38b7c2f87)" d="M 249.836901 307.584 
L 251.542482 307.584 
L 251.542482 262.332062 
L 249.836901 262.332062 
z
" style="fill:#5e9dfe;fill-opacity:0.815686;"/>
   </g>
   <g id="patch_159">
    <path clip-path="url(#pf38b7c2f87)" d="M 251.542482 307.584 
L 253.248063 307.584 
L 253.248063 281.733557 
L 251.542482 281.733557 
z
" style="fill:#5e9dfe;fill-opacity:0.815686;"/>
   </g>
   <g id="patch_160">
    <path clip-path="url(#pf38b7c2f87)" d="M 253.248063 307.584 
L 254.953644 307.584 
L 254.953644 292.64576 
L 253.248063 292.64576 
z
" style="fill:#5e9dfe;fill-opacity:0.815686;"/>
   </g>
   <g id="patch_161">
    <path clip-path="url(#pf38b7c2f87)" d="M 254.953644 307.584 
L 256.659225 307.584 
L 256.659225 298.930751 
L 254.953644 298.930751 
z
" style="fill:#5e9dfe;fill-opacity:0.815686;"/>
   </g>
   <g id="patch_162">
    <path clip-path="url(#pf38b7c2f87)" d="M 256.659225 307.584 
L 258.364806 307.584 
L 258.364806 301.007531 
L 256.659225 301.007531 
z
" style="fill:#5e9dfe;fill-opacity:0.815686;"/>
   </g>
   <g id="patch_163">
    <path clip-path="url(#pf38b7c2f87)" d="M 258.364806 307.584 
L 260.070387 307.584 
L 260.070387 302.665311 
L 258.364806 302.665311 
z
" style="fill:#5e9dfe;fill-opacity:0.815686;"/>
   </g>
   <g id="patch_164">
    <path clip-path="url(#pf38b7c2f87)" d="M 260.070387 307.584 
L 261.775968 307.584 
L 261.775968 302.975006 
L 260.070387 302.975006 
z
" style="fill:#5e9dfe;fill-opacity:0.815686;"/>
   </g>
   <g id="patch_165">
    <path clip-path="url(#pf38b7c2f87)" d="M 261.775968 307.584 
L 263.481549 307.584 
L 263.481549 302.956789 
L 261.775968 302.956789 
z
" style="fill:#5e9dfe;fill-opacity:0.815686;"/>
   </g>
   <g id="patch_166">
    <path clip-path="url(#pf38b7c2f87)" d="M 263.481549 307.584 
L 265.18713 307.584 
L 265.18713 303.15718 
L 263.481549 303.15718 
z
" style="fill:#5e9dfe;fill-opacity:0.815686;"/>
   </g>
   <g id="patch_167">
    <path clip-path="url(#pf38b7c2f87)" d="M 265.18713 307.584 
L 266.892711 307.584 
L 266.892711 303.175397 
L 265.18713 303.175397 
z
" style="fill:#5e9dfe;fill-opacity:0.815686;"/>
   </g>
   <g id="patch_168">
    <path clip-path="url(#pf38b7c2f87)" d="M 266.892711 307.584 
L 268.598293 307.584 
L 268.598293 302.993224 
L 266.892711 302.993224 
z
" style="fill:#5e9dfe;fill-opacity:0.815686;"/>
   </g>
   <g id="patch_169">
    <path clip-path="url(#pf38b7c2f87)" d="M 268.598293 307.584 
L 270.303874 307.584 
L 270.303874 302.519572 
L 268.598293 302.519572 
z
" style="fill:#5e9dfe;fill-opacity:0.815686;"/>
   </g>
   <g id="patch_170">
    <path clip-path="url(#pf38b7c2f87)" d="M 270.303874 307.584 
L 272.009455 307.584 
L 272.009455 302.865702 
L 270.303874 302.865702 
z
" style="fill:#5e9dfe;fill-opacity:0.815686;"/>
   </g>
   <g id="patch_171">
    <path clip-path="url(#pf38b7c2f87)" d="M 272.009455 307.584 
L 273.715036 307.584 
L 273.715036 302.446703 
L 272.009455 302.446703 
z
" style="fill:#5e9dfe;fill-opacity:0.815686;"/>
   </g>
   <g id="patch_172">
    <path clip-path="url(#pf38b7c2f87)" d="M 273.715036 307.584 
L 275.420617 307.584 
L 275.420617 302.920354 
L 273.715036 302.920354 
z
" style="fill:#5e9dfe;fill-opacity:0.815686;"/>
   </g>
   <g id="patch_173">
    <path clip-path="url(#pf38b7c2f87)" d="M 275.420617 307.584 
L 277.126198 307.584 
L 277.126198 303.15718 
L 275.420617 303.15718 
z
" style="fill:#5e9dfe;fill-opacity:0.815686;"/>
   </g>
   <g id="patch_174">
    <path clip-path="url(#pf38b7c2f87)" d="M 277.126198 307.584 
L 278.831779 307.584 
L 278.831779 303.576179 
L 277.126198 303.576179 
z
" style="fill:#5e9dfe;fill-opacity:0.815686;"/>
   </g>
   <g id="patch_175">
    <path clip-path="url(#pf38b7c2f87)" d="M 278.831779 307.584 
L 280.53736 307.584 
L 280.53736 304.104483 
L 278.831779 304.104483 
z
" style="fill:#5e9dfe;fill-opacity:0.815686;"/>
   </g>
   <g id="patch_176">
    <path clip-path="url(#pf38b7c2f87)" d="M 280.53736 307.584 
L 282.242941 307.584 
L 282.242941 304.778526 
L 280.53736 304.778526 
z
" style="fill:#5e9dfe;fill-opacity:0.815686;"/>
   </g>
   <g id="patch_177">
    <path clip-path="url(#pf38b7c2f87)" d="M 282.242941 307.584 
L 283.948522 307.584 
L 283.948522 305.50722 
L 282.242941 305.50722 
z
" style="fill:#5e9dfe;fill-opacity:0.815686;"/>
   </g>
   <g id="patch_178">
    <path clip-path="url(#pf38b7c2f87)" d="M 283.948522 307.584 
L 285.654103 307.584 
L 285.654103 305.58009 
L 283.948522 305.58009 
z
" style="fill:#5e9dfe;fill-opacity:0.815686;"/>
   </g>
   <g id="patch_179">
    <path clip-path="url(#pf38b7c2f87)" d="M 285.654103 307.584 
L 287.359684 307.584 
L 287.359684 306.345219 
L 285.654103 306.345219 
z
" style="fill:#5e9dfe;fill-opacity:0.815686;"/>
   </g>
   <g id="patch_180">
    <path clip-path="url(#pf38b7c2f87)" d="M 287.359684 307.584 
L 289.065266 307.584 
L 289.065266 306.600262 
L 287.359684 306.600262 
z
" style="fill:#5e9dfe;fill-opacity:0.815686;"/>
   </g>
   <g id="patch_181">
    <path clip-path="url(#pf38b7c2f87)" d="M 289.065266 307.584 
L 290.770847 307.584 
L 290.770847 306.782436 
L 289.065266 306.782436 
z
" style="fill:#5e9dfe;fill-opacity:0.815686;"/>
   </g>
   <g id="patch_182">
    <path clip-path="url(#pf38b7c2f87)" d="M 290.770847 307.584 
L 292.476428 307.584 
L 292.476428 306.727784 
L 290.770847 306.727784 
z
" style="fill:#5e9dfe;fill-opacity:0.815686;"/>
   </g>
   <g id="patch_183">
    <path clip-path="url(#pf38b7c2f87)" d="M 292.476428 307.584 
L 294.182009 307.584 
L 294.182009 306.746001 
L 292.476428 306.746001 
z
" style="fill:#5e9dfe;fill-opacity:0.815686;"/>
   </g>
   <g id="patch_184">
    <path clip-path="url(#pf38b7c2f87)" d="M 294.182009 307.584 
L 295.88759 307.584 
L 295.88759 306.928175 
L 294.182009 306.928175 
z
" style="fill:#5e9dfe;fill-opacity:0.815686;"/>
   </g>
   <g id="patch_185">
    <path clip-path="url(#pf38b7c2f87)" d="M 295.88759 307.584 
L 297.593171 307.584 
L 297.593171 306.928175 
L 295.88759 306.928175 
z
" style="fill:#5e9dfe;fill-opacity:0.815686;"/>
   </g>
   <g id="patch_186">
    <path clip-path="url(#pf38b7c2f87)" d="M 297.593171 307.584 
L 299.298752 307.584 
L 299.298752 307.165001 
L 297.593171 307.165001 
z
" style="fill:#5e9dfe;fill-opacity:0.815686;"/>
   </g>
   <g id="patch_187">
    <path clip-path="url(#pf38b7c2f87)" d="M 299.298752 307.584 
L 301.004333 307.584 
L 301.004333 307.073914 
L 299.298752 307.073914 
z
" style="fill:#5e9dfe;fill-opacity:0.815686;"/>
   </g>
   <g id="patch_188">
    <path clip-path="url(#pf38b7c2f87)" d="M 301.004333 307.584 
L 302.709914 307.584 
L 302.709914 307.183218 
L 301.004333 307.183218 
z
" style="fill:#5e9dfe;fill-opacity:0.815686;"/>
   </g>
   <g id="patch_189">
    <path clip-path="url(#pf38b7c2f87)" d="M 302.709914 307.584 
L 304.415495 307.584 
L 304.415495 307.073914 
L 302.709914 307.073914 
z
" style="fill:#5e9dfe;fill-opacity:0.815686;"/>
   </g>
   <g id="patch_190">
    <path clip-path="url(#pf38b7c2f87)" d="M 304.415495 307.584 
L 306.121076 307.584 
L 306.121076 307.092131 
L 304.415495 307.092131 
z
" style="fill:#5e9dfe;fill-opacity:0.815686;"/>
   </g>
   <g id="patch_191">
    <path clip-path="url(#pf38b7c2f87)" d="M 306.121076 307.584 
L 307.826657 307.584 
L 307.826657 307.165001 
L 306.121076 307.165001 
z
" style="fill:#5e9dfe;fill-opacity:0.815686;"/>
   </g>
   <g id="patch_192">
    <path clip-path="url(#pf38b7c2f87)" d="M 307.826657 307.584 
L 309.532238 307.584 
L 309.532238 307.219653 
L 307.826657 307.219653 
z
" style="fill:#5e9dfe;fill-opacity:0.815686;"/>
   </g>
   <g id="patch_193">
    <path clip-path="url(#pf38b7c2f87)" d="M 309.532238 307.584 
L 311.23782 307.584 
L 311.23782 307.347174 
L 309.532238 307.347174 
z
" style="fill:#5e9dfe;fill-opacity:0.815686;"/>
   </g>
   <g id="patch_194">
    <path clip-path="url(#pf38b7c2f87)" d="M 311.23782 307.584 
L 312.943401 307.584 
L 312.943401 307.292522 
L 311.23782 307.292522 
z
" style="fill:#5e9dfe;fill-opacity:0.815686;"/>
   </g>
   <g id="patch_195">
    <path clip-path="url(#pf38b7c2f87)" d="M 312.943401 307.584 
L 314.648982 307.584 
L 314.648982 307.146783 
L 312.943401 307.146783 
z
" style="fill:#5e9dfe;fill-opacity:0.815686;"/>
   </g>
   <g id="patch_196">
    <path clip-path="url(#pf38b7c2f87)" d="M 314.648982 307.584 
L 316.354563 307.584 
L 316.354563 307.165001 
L 314.648982 307.165001 
z
" style="fill:#5e9dfe;fill-opacity:0.815686;"/>
   </g>
   <g id="patch_197">
    <path clip-path="url(#pf38b7c2f87)" d="M 316.354563 307.584 
L 318.060144 307.584 
L 318.060144 307.328957 
L 316.354563 307.328957 
z
" style="fill:#5e9dfe;fill-opacity:0.815686;"/>
   </g>
   <g id="patch_198">
    <path clip-path="url(#pf38b7c2f87)" d="M 318.060144 307.584 
L 319.765725 307.584 
L 319.765725 307.128566 
L 318.060144 307.128566 
z
" style="fill:#5e9dfe;fill-opacity:0.815686;"/>
   </g>
   <g id="patch_199">
    <path clip-path="url(#pf38b7c2f87)" d="M 319.765725 307.584 
L 321.471306 307.584 
L 321.471306 307.328957 
L 319.765725 307.328957 
z
" style="fill:#5e9dfe;fill-opacity:0.815686;"/>
   </g>
   <g id="patch_200">
    <path clip-path="url(#pf38b7c2f87)" d="M 321.471306 307.584 
L 323.176887 307.584 
L 323.176887 307.274305 
L 321.471306 307.274305 
z
" style="fill:#5e9dfe;fill-opacity:0.815686;"/>
   </g>
   <g id="patch_201">
    <path clip-path="url(#pf38b7c2f87)" d="M 323.176887 307.584 
L 324.882468 307.584 
L 324.882468 307.201435 
L 323.176887 307.201435 
z
" style="fill:#5e9dfe;fill-opacity:0.815686;"/>
   </g>
   <g id="patch_202">
    <path clip-path="url(#pf38b7c2f87)" d="M 324.882468 307.584 
L 326.588049 307.584 
L 326.588049 307.365392 
L 324.882468 307.365392 
z
" style="fill:#5e9dfe;fill-opacity:0.815686;"/>
   </g>
   <g id="patch_203">
    <path clip-path="url(#pf38b7c2f87)" d="M 73.832727 307.584 
L 77.079273 307.584 
L 77.079273 307.31074 
L 73.832727 307.31074 
z
" style="fill:#5eedfe;fill-opacity:0.815686;"/>
   </g>
   <g id="patch_204">
    <path clip-path="url(#pf38b7c2f87)" d="M 77.079273 307.584 
L 80.325818 307.584 
L 80.325818 307.201435 
L 77.079273 307.201435 
z
" style="fill:#5eedfe;fill-opacity:0.815686;"/>
   </g>
   <g id="patch_205">
    <path clip-path="url(#pf38b7c2f87)" d="M 80.325818 307.584 
L 83.572364 307.584 
L 83.572364 307.201435 
L 80.325818 307.201435 
z
" style="fill:#5eedfe;fill-opacity:0.815686;"/>
   </g>
   <g id="patch_206">
    <path clip-path="url(#pf38b7c2f87)" d="M 83.572364 307.584 
L 86.818909 307.584 
L 86.818909 307.201435 
L 83.572364 307.201435 
z
" style="fill:#5eedfe;fill-opacity:0.815686;"/>
   </g>
   <g id="patch_207">
    <path clip-path="url(#pf38b7c2f87)" d="M 86.818909 307.584 
L 90.065455 307.584 
L 90.065455 307.128566 
L 86.818909 307.128566 
z
" style="fill:#5eedfe;fill-opacity:0.815686;"/>
   </g>
   <g id="patch_208">
    <path clip-path="url(#pf38b7c2f87)" d="M 90.065455 307.584 
L 93.312 307.584 
L 93.312 307.073914 
L 90.065455 307.073914 
z
" style="fill:#5eedfe;fill-opacity:0.815686;"/>
   </g>
   <g id="patch_209">
    <path clip-path="url(#pf38b7c2f87)" d="M 93.312 307.584 
L 96.558545 307.584 
L 96.558545 306.982827 
L 93.312 306.982827 
z
" style="fill:#5eedfe;fill-opacity:0.815686;"/>
   </g>
   <g id="patch_210">
    <path clip-path="url(#pf38b7c2f87)" d="M 96.558545 307.584 
L 99.805091 307.584 
L 99.805091 307.001044 
L 96.558545 307.001044 
z
" style="fill:#5eedfe;fill-opacity:0.815686;"/>
   </g>
   <g id="patch_211">
    <path clip-path="url(#pf38b7c2f87)" d="M 99.805091 307.584 
L 103.051636 307.584 
L 103.051636 306.764219 
L 99.805091 306.764219 
z
" style="fill:#5eedfe;fill-opacity:0.815686;"/>
   </g>
   <g id="patch_212">
    <path clip-path="url(#pf38b7c2f87)" d="M 103.051636 307.584 
L 106.298182 307.584 
L 106.298182 306.436306 
L 103.051636 306.436306 
z
" style="fill:#5eedfe;fill-opacity:0.815686;"/>
   </g>
   <g id="patch_213">
    <path clip-path="url(#pf38b7c2f87)" d="M 106.298182 307.584 
L 109.544727 307.584 
L 109.544727 306.691349 
L 106.298182 306.691349 
z
" style="fill:#5eedfe;fill-opacity:0.815686;"/>
   </g>
   <g id="patch_214">
    <path clip-path="url(#pf38b7c2f87)" d="M 109.544727 307.584 
L 112.791273 307.584 
L 112.791273 306.254132 
L 109.544727 306.254132 
z
" style="fill:#5eedfe;fill-opacity:0.815686;"/>
   </g>
   <g id="patch_215">
    <path clip-path="url(#pf38b7c2f87)" d="M 112.791273 307.584 
L 116.037818 307.584 
L 116.037818 305.543655 
L 112.791273 305.543655 
z
" style="fill:#5eedfe;fill-opacity:0.815686;"/>
   </g>
   <g id="patch_216">
    <path clip-path="url(#pf38b7c2f87)" d="M 116.037818 307.584 
L 119.284364 307.584 
L 119.284364 305.543655 
L 116.037818 305.543655 
z
" style="fill:#5eedfe;fill-opacity:0.815686;"/>
   </g>
   <g id="patch_217">
    <path clip-path="url(#pf38b7c2f87)" d="M 119.284364 307.584 
L 122.530909 307.584 
L 122.530909 305.033569 
L 119.284364 305.033569 
z
" style="fill:#5eedfe;fill-opacity:0.815686;"/>
   </g>
   <g id="patch_218">
    <path clip-path="url(#pf38b7c2f87)" d="M 122.530909 307.584 
L 125.777455 307.584 
L 125.777455 305.325047 
L 122.530909 305.325047 
z
" style="fill:#5eedfe;fill-opacity:0.815686;"/>
   </g>
   <g id="patch_219">
    <path clip-path="url(#pf38b7c2f87)" d="M 125.777455 307.584 
L 129.024 307.584 
L 129.024 304.432396 
L 125.777455 304.432396 
z
" style="fill:#5eedfe;fill-opacity:0.815686;"/>
   </g>
   <g id="patch_220">
    <path clip-path="url(#pf38b7c2f87)" d="M 129.024 307.584 
L 132.270545 307.584 
L 132.270545 304.031614 
L 129.024 304.031614 
z
" style="fill:#5eedfe;fill-opacity:0.815686;"/>
   </g>
   <g id="patch_221">
    <path clip-path="url(#pf38b7c2f87)" d="M 132.270545 307.584 
L 135.517091 307.584 
L 135.517091 303.375788 
L 132.270545 303.375788 
z
" style="fill:#5eedfe;fill-opacity:0.815686;"/>
   </g>
   <g id="patch_222">
    <path clip-path="url(#pf38b7c2f87)" d="M 135.517091 307.584 
L 138.763636 307.584 
L 138.763636 303.84944 
L 135.517091 303.84944 
z
" style="fill:#5eedfe;fill-opacity:0.815686;"/>
   </g>
   <g id="patch_223">
    <path clip-path="url(#pf38b7c2f87)" d="M 138.763636 307.584 
L 142.010182 307.584 
L 142.010182 303.193615 
L 138.763636 303.193615 
z
" style="fill:#5eedfe;fill-opacity:0.815686;"/>
   </g>
   <g id="patch_224">
    <path clip-path="url(#pf38b7c2f87)" d="M 142.010182 307.584 
L 145.256727 307.584 
L 145.256727 303.521527 
L 142.010182 303.521527 
z
" style="fill:#5eedfe;fill-opacity:0.815686;"/>
   </g>
   <g id="patch_225">
    <path clip-path="url(#pf38b7c2f87)" d="M 145.256727 307.584 
L 148.503273 307.584 
L 148.503273 302.246312 
L 145.256727 302.246312 
z
" style="fill:#5eedfe;fill-opacity:0.815686;"/>
   </g>
   <g id="patch_226">
    <path clip-path="url(#pf38b7c2f87)" d="M 148.503273 307.584 
L 151.749818 307.584 
L 151.749818 302.501355 
L 148.503273 302.501355 
z
" style="fill:#5eedfe;fill-opacity:0.815686;"/>
   </g>
   <g id="patch_227">
    <path clip-path="url(#pf38b7c2f87)" d="M 151.749818 307.584 
L 154.996364 307.584 
L 154.996364 301.84553 
L 151.749818 301.84553 
z
" style="fill:#5eedfe;fill-opacity:0.815686;"/>
   </g>
   <g id="patch_228">
    <path clip-path="url(#pf38b7c2f87)" d="M 154.996364 307.584 
L 158.242909 307.584 
L 158.242909 301.390095 
L 154.996364 301.390095 
z
" style="fill:#5eedfe;fill-opacity:0.815686;"/>
   </g>
   <g id="patch_229">
    <path clip-path="url(#pf38b7c2f87)" d="M 158.242909 307.584 
L 161.489455 307.584 
L 161.489455 299.00362 
L 158.242909 299.00362 
z
" style="fill:#5eedfe;fill-opacity:0.815686;"/>
   </g>
   <g id="patch_230">
    <path clip-path="url(#pf38b7c2f87)" d="M 161.489455 307.584 
L 164.736 307.584 
L 164.736 294.959365 
L 161.489455 294.959365 
z
" style="fill:#5eedfe;fill-opacity:0.815686;"/>
   </g>
   <g id="patch_231">
    <path clip-path="url(#pf38b7c2f87)" d="M 164.736 307.584 
L 167.982545 307.584 
L 167.982545 290.058894 
L 164.736 290.058894 
z
" style="fill:#5eedfe;fill-opacity:0.815686;"/>
   </g>
   <g id="patch_232">
    <path clip-path="url(#pf38b7c2f87)" d="M 167.982545 307.584 
L 171.229091 307.584 
L 171.229091 287.745288 
L 167.982545 287.745288 
z
" style="fill:#5eedfe;fill-opacity:0.815686;"/>
   </g>
   <g id="patch_233">
    <path clip-path="url(#pf38b7c2f87)" d="M 171.229091 307.584 
L 174.475636 307.584 
L 174.475636 293.246933 
L 171.229091 293.246933 
z
" style="fill:#5eedfe;fill-opacity:0.815686;"/>
   </g>
   <g id="patch_234">
    <path clip-path="url(#pf38b7c2f87)" d="M 174.475636 307.584 
L 177.722182 307.584 
L 177.722182 298.0381 
L 174.475636 298.0381 
z
" style="fill:#5eedfe;fill-opacity:0.815686;"/>
   </g>
   <g id="patch_235">
    <path clip-path="url(#pf38b7c2f87)" d="M 177.722182 307.584 
L 180.968727 307.584 
L 180.968727 301.262574 
L 177.722182 301.262574 
z
" style="fill:#5eedfe;fill-opacity:0.815686;"/>
   </g>
   <g id="patch_236">
    <path clip-path="url(#pf38b7c2f87)" d="M 180.968727 307.584 
L 184.215273 307.584 
L 184.215273 301.991269 
L 180.968727 301.991269 
z
" style="fill:#5eedfe;fill-opacity:0.815686;"/>
   </g>
   <g id="patch_237">
    <path clip-path="url(#pf38b7c2f87)" d="M 184.215273 307.584 
L 187.461818 307.584 
L 187.461818 301.572269 
L 184.215273 301.572269 
z
" style="fill:#5eedfe;fill-opacity:0.815686;"/>
   </g>
   <g id="patch_238">
    <path clip-path="url(#pf38b7c2f87)" d="M 187.461818 307.584 
L 190.708364 307.584 
L 190.708364 300.624966 
L 187.461818 300.624966 
z
" style="fill:#5eedfe;fill-opacity:0.815686;"/>
   </g>
   <g id="patch_239">
    <path clip-path="url(#pf38b7c2f87)" d="M 190.708364 307.584 
L 193.954909 307.584 
L 193.954909 298.402447 
L 190.708364 298.402447 
z
" style="fill:#5eedfe;fill-opacity:0.815686;"/>
   </g>
   <g id="patch_240">
    <path clip-path="url(#pf38b7c2f87)" d="M 193.954909 307.584 
L 197.201455 307.584 
L 197.201455 293.95741 
L 193.954909 293.95741 
z
" style="fill:#5eedfe;fill-opacity:0.815686;"/>
   </g>
   <g id="patch_241">
    <path clip-path="url(#pf38b7c2f87)" d="M 197.201455 307.584 
L 200.448 307.584 
L 200.448 292.554673 
L 197.201455 292.554673 
z
" style="fill:#5eedfe;fill-opacity:0.815686;"/>
   </g>
   <g id="patch_242">
    <path clip-path="url(#pf38b7c2f87)" d="M 200.448 307.584 
L 203.694545 307.584 
L 203.694545 291.680239 
L 200.448 291.680239 
z
" style="fill:#5eedfe;fill-opacity:0.815686;"/>
   </g>
   <g id="patch_243">
    <path clip-path="url(#pf38b7c2f87)" d="M 203.694545 307.584 
L 206.941091 307.584 
L 206.941091 292.044587 
L 203.694545 292.044587 
z
" style="fill:#5eedfe;fill-opacity:0.815686;"/>
   </g>
   <g id="patch_244">
    <path clip-path="url(#pf38b7c2f87)" d="M 206.941091 307.584 
L 210.187636 307.584 
L 210.187636 294.084932 
L 206.941091 294.084932 
z
" style="fill:#5eedfe;fill-opacity:0.815686;"/>
   </g>
   <g id="patch_245">
    <path clip-path="url(#pf38b7c2f87)" d="M 210.187636 307.584 
L 213.434182 307.584 
L 213.434182 292.518238 
L 210.187636 292.518238 
z
" style="fill:#5eedfe;fill-opacity:0.815686;"/>
   </g>
   <g id="patch_246">
    <path clip-path="url(#pf38b7c2f87)" d="M 213.434182 307.584 
L 216.680727 307.584 
L 216.680727 292.153891 
L 213.434182 292.153891 
z
" style="fill:#5eedfe;fill-opacity:0.815686;"/>
   </g>
   <g id="patch_247">
    <path clip-path="url(#pf38b7c2f87)" d="M 216.680727 307.584 
L 219.927273 307.584 
L 219.927273 290.004242 
L 216.680727 290.004242 
z
" style="fill:#5eedfe;fill-opacity:0.815686;"/>
   </g>
   <g id="patch_248">
    <path clip-path="url(#pf38b7c2f87)" d="M 219.927273 307.584 
L 223.173818 307.584 
L 223.173818 281.278123 
L 219.927273 281.278123 
z
" style="fill:#5eedfe;fill-opacity:0.815686;"/>
   </g>
   <g id="patch_249">
    <path clip-path="url(#pf38b7c2f87)" d="M 223.173818 307.584 
L 226.420364 307.584 
L 226.420364 253.842769 
L 223.173818 253.842769 
z
" style="fill:#5eedfe;fill-opacity:0.815686;"/>
   </g>
   <g id="patch_250">
    <path clip-path="url(#pf38b7c2f87)" d="M 226.420364 307.584 
L 229.666909 307.584 
L 229.666909 199.336409 
L 226.420364 199.336409 
z
" style="fill:#5eedfe;fill-opacity:0.815686;"/>
   </g>
   <g id="patch_251">
    <path clip-path="url(#pf38b7c2f87)" d="M 229.666909 307.584 
L 232.913455 307.584 
L 232.913455 133.079848 
L 229.666909 133.079848 
z
" style="fill:#5eedfe;fill-opacity:0.815686;"/>
   </g>
   <g id="patch_252">
    <path clip-path="url(#pf38b7c2f87)" d="M 232.913455 307.584 
L 236.16 307.584 
L 236.16 79.101792 
L 232.913455 79.101792 
z
" style="fill:#5eedfe;fill-opacity:0.815686;"/>
   </g>
   <g id="patch_253">
    <path clip-path="url(#pf38b7c2f87)" d="M 236.16 307.584 
L 239.406545 307.584 
L 239.406545 54.144 
L 236.16 54.144 
z
" style="fill:#5eedfe;fill-opacity:0.815686;"/>
   </g>
   <g id="patch_254">
    <path clip-path="url(#pf38b7c2f87)" d="M 239.406545 307.584 
L 242.653091 307.584 
L 242.653091 143.809877 
L 239.406545 143.809877 
z
" style="fill:#5eedfe;fill-opacity:0.815686;"/>
   </g>
   <g id="patch_255">
    <path clip-path="url(#pf38b7c2f87)" d="M 242.653091 307.584 
L 245.899636 307.584 
L 245.899636 239.979354 
L 242.653091 239.979354 
z
" style="fill:#5eedfe;fill-opacity:0.815686;"/>
   </g>
   <g id="patch_256">
    <path clip-path="url(#pf38b7c2f87)" d="M 245.899636 307.584 
L 249.146182 307.584 
L 249.146182 282.316513 
L 245.899636 282.316513 
z
" style="fill:#5eedfe;fill-opacity:0.815686;"/>
   </g>
   <g id="patch_257">
    <path clip-path="url(#pf38b7c2f87)" d="M 249.146182 307.584 
L 252.392727 307.584 
L 252.392727 296.507841 
L 249.146182 296.507841 
z
" style="fill:#5eedfe;fill-opacity:0.815686;"/>
   </g>
   <g id="patch_258">
    <path clip-path="url(#pf38b7c2f87)" d="M 252.392727 307.584 
L 255.639273 307.584 
L 255.639273 297.637318 
L 252.392727 297.637318 
z
" style="fill:#5eedfe;fill-opacity:0.815686;"/>
   </g>
   <g id="patch_259">
    <path clip-path="url(#pf38b7c2f87)" d="M 255.639273 307.584 
L 258.885818 307.584 
L 258.885818 298.402447 
L 255.639273 298.402447 
z
" style="fill:#5eedfe;fill-opacity:0.815686;"/>
   </g>
   <g id="patch_260">
    <path clip-path="url(#pf38b7c2f87)" d="M 258.885818 307.584 
L 262.132364 307.584 
L 262.132364 297.200101 
L 258.885818 297.200101 
z
" style="fill:#5eedfe;fill-opacity:0.815686;"/>
   </g>
   <g id="patch_261">
    <path clip-path="url(#pf38b7c2f87)" d="M 262.132364 307.584 
L 265.378909 307.584 
L 265.378909 296.708232 
L 262.132364 296.708232 
z
" style="fill:#5eedfe;fill-opacity:0.815686;"/>
   </g>
   <g id="patch_262">
    <path clip-path="url(#pf38b7c2f87)" d="M 265.378909 307.584 
L 268.625455 307.584 
L 268.625455 295.633408 
L 265.378909 295.633408 
z
" style="fill:#5eedfe;fill-opacity:0.815686;"/>
   </g>
   <g id="patch_263">
    <path clip-path="url(#pf38b7c2f87)" d="M 268.625455 307.584 
L 271.872 307.584 
L 271.872 295.032235 
L 268.625455 295.032235 
z
" style="fill:#5eedfe;fill-opacity:0.815686;"/>
   </g>
   <g id="patch_264">
    <path clip-path="url(#pf38b7c2f87)" d="M 271.872 307.584 
L 275.118545 307.584 
L 275.118545 295.105104 
L 271.872 295.105104 
z
" style="fill:#5eedfe;fill-opacity:0.815686;"/>
   </g>
   <g id="patch_265">
    <path clip-path="url(#pf38b7c2f87)" d="M 275.118545 307.584 
L 278.365091 307.584 
L 278.365091 296.252798 
L 275.118545 296.252798 
z
" style="fill:#5eedfe;fill-opacity:0.815686;"/>
   </g>
   <g id="patch_266">
    <path clip-path="url(#pf38b7c2f87)" d="M 278.365091 307.584 
L 281.611636 307.584 
L 281.611636 297.036145 
L 278.365091 297.036145 
z
" style="fill:#5eedfe;fill-opacity:0.815686;"/>
   </g>
   <g id="patch_267">
    <path clip-path="url(#pf38b7c2f87)" d="M 281.611636 307.584 
L 284.858182 307.584 
L 284.858182 298.857882 
L 281.611636 298.857882 
z
" style="fill:#5eedfe;fill-opacity:0.815686;"/>
   </g>
   <g id="patch_268">
    <path clip-path="url(#pf38b7c2f87)" d="M 284.858182 307.584 
L 288.104727 307.584 
L 288.104727 301.390095 
L 284.858182 301.390095 
z
" style="fill:#5eedfe;fill-opacity:0.815686;"/>
   </g>
   <g id="patch_269">
    <path clip-path="url(#pf38b7c2f87)" d="M 288.104727 307.584 
L 291.351273 307.584 
L 291.351273 302.829267 
L 288.104727 302.829267 
z
" style="fill:#5eedfe;fill-opacity:0.815686;"/>
   </g>
   <g id="patch_270">
    <path clip-path="url(#pf38b7c2f87)" d="M 291.351273 307.584 
L 294.597818 307.584 
L 294.597818 303.758353 
L 291.351273 303.758353 
z
" style="fill:#5eedfe;fill-opacity:0.815686;"/>
   </g>
   <g id="patch_271">
    <path clip-path="url(#pf38b7c2f87)" d="M 294.597818 307.584 
L 297.844364 307.584 
L 297.844364 304.395961 
L 294.597818 304.395961 
z
" style="fill:#5eedfe;fill-opacity:0.815686;"/>
   </g>
   <g id="patch_272">
    <path clip-path="url(#pf38b7c2f87)" d="M 297.844364 307.584 
L 301.090909 307.584 
L 301.090909 304.687439 
L 297.844364 304.687439 
z
" style="fill:#5eedfe;fill-opacity:0.815686;"/>
   </g>
   <g id="patch_273">
    <path clip-path="url(#pf38b7c2f87)" d="M 301.090909 307.584 
L 304.337455 307.584 
L 304.337455 304.960699 
L 301.090909 304.960699 
z
" style="fill:#5eedfe;fill-opacity:0.815686;"/>
   </g>
   <g id="patch_274">
    <path clip-path="url(#pf38b7c2f87)" d="M 304.337455 307.584 
L 307.584 307.584 
L 307.584 304.960699 
L 304.337455 304.960699 
z
" style="fill:#5eedfe;fill-opacity:0.815686;"/>
   </g>
   <g id="patch_275">
    <path clip-path="url(#pf38b7c2f87)" d="M 307.584 307.584 
L 310.830545 307.584 
L 310.830545 304.997134 
L 307.584 304.997134 
z
" style="fill:#5eedfe;fill-opacity:0.815686;"/>
   </g>
   <g id="patch_276">
    <path clip-path="url(#pf38b7c2f87)" d="M 310.830545 307.584 
L 314.077091 307.584 
L 314.077091 305.58009 
L 310.830545 305.58009 
z
" style="fill:#5eedfe;fill-opacity:0.815686;"/>
   </g>
   <g id="patch_277">
    <path clip-path="url(#pf38b7c2f87)" d="M 314.077091 307.584 
L 317.323636 307.584 
L 317.323636 305.598307 
L 314.077091 305.598307 
z
" style="fill:#5eedfe;fill-opacity:0.815686;"/>
   </g>
   <g id="patch_278">
    <path clip-path="url(#pf38b7c2f87)" d="M 317.323636 307.584 
L 320.570182 307.584 
L 320.570182 305.58009 
L 317.323636 305.58009 
z
" style="fill:#5eedfe;fill-opacity:0.815686;"/>
   </g>
   <g id="patch_279">
    <path clip-path="url(#pf38b7c2f87)" d="M 320.570182 307.584 
L 323.816727 307.584 
L 323.816727 305.343264 
L 320.570182 305.343264 
z
" style="fill:#5eedfe;fill-opacity:0.815686;"/>
   </g>
   <g id="patch_280">
    <path clip-path="url(#pf38b7c2f87)" d="M 323.816727 307.584 
L 327.063273 307.584 
L 327.063273 305.252177 
L 323.816727 305.252177 
z
" style="fill:#5eedfe;fill-opacity:0.815686;"/>
   </g>
   <g id="patch_281">
    <path clip-path="url(#pf38b7c2f87)" d="M 327.063273 307.584 
L 330.309818 307.584 
L 330.309818 305.015351 
L 327.063273 305.015351 
z
" style="fill:#5eedfe;fill-opacity:0.815686;"/>
   </g>
   <g id="patch_282">
    <path clip-path="url(#pf38b7c2f87)" d="M 330.309818 307.584 
L 333.556364 307.584 
L 333.556364 304.978917 
L 330.309818 304.978917 
z
" style="fill:#5eedfe;fill-opacity:0.815686;"/>
   </g>
   <g id="patch_283">
    <path clip-path="url(#pf38b7c2f87)" d="M 333.556364 307.584 
L 336.802909 307.584 
L 336.802909 304.086266 
L 333.556364 304.086266 
z
" style="fill:#5eedfe;fill-opacity:0.815686;"/>
   </g>
   <g id="patch_284">
    <path clip-path="url(#pf38b7c2f87)" d="M 336.802909 307.584 
L 340.049455 307.584 
L 340.049455 304.1227 
L 336.802909 304.1227 
z
" style="fill:#5eedfe;fill-opacity:0.815686;"/>
   </g>
   <g id="patch_285">
    <path clip-path="url(#pf38b7c2f87)" d="M 340.049455 307.584 
L 343.296 307.584 
L 343.296 303.649049 
L 340.049455 303.649049 
z
" style="fill:#5eedfe;fill-opacity:0.815686;"/>
   </g>
   <g id="patch_286">
    <path clip-path="url(#pf38b7c2f87)" d="M 343.296 307.584 
L 346.542545 307.584 
L 346.542545 303.995179 
L 343.296 303.995179 
z
" style="fill:#5eedfe;fill-opacity:0.815686;"/>
   </g>
   <g id="patch_287">
    <path clip-path="url(#pf38b7c2f87)" d="M 346.542545 307.584 
L 349.789091 307.584 
L 349.789091 303.813005 
L 346.542545 303.813005 
z
" style="fill:#5eedfe;fill-opacity:0.815686;"/>
   </g>
   <g id="patch_288">
    <path clip-path="url(#pf38b7c2f87)" d="M 349.789091 307.584 
L 353.035636 307.584 
L 353.035636 303.15718 
L 349.789091 303.15718 
z
" style="fill:#5eedfe;fill-opacity:0.815686;"/>
   </g>
   <g id="patch_289">
    <path clip-path="url(#pf38b7c2f87)" d="M 353.035636 307.584 
L 356.282182 307.584 
L 356.282182 301.645139 
L 353.035636 301.645139 
z
" style="fill:#5eedfe;fill-opacity:0.815686;"/>
   </g>
   <g id="patch_290">
    <path clip-path="url(#pf38b7c2f87)" d="M 356.282182 307.584 
L 359.528727 307.584 
L 359.528727 299.714098 
L 356.282182 299.714098 
z
" style="fill:#5eedfe;fill-opacity:0.815686;"/>
   </g>
   <g id="patch_291">
    <path clip-path="url(#pf38b7c2f87)" d="M 359.528727 307.584 
L 362.775273 307.584 
L 362.775273 298.074535 
L 359.528727 298.074535 
z
" style="fill:#5eedfe;fill-opacity:0.815686;"/>
   </g>
   <g id="patch_292">
    <path clip-path="url(#pf38b7c2f87)" d="M 362.775273 307.584 
L 366.021818 307.584 
L 366.021818 295.706277 
L 362.775273 295.706277 
z
" style="fill:#5eedfe;fill-opacity:0.815686;"/>
   </g>
   <g id="patch_293">
    <path clip-path="url(#pf38b7c2f87)" d="M 366.021818 307.584 
L 369.268364 307.584 
L 369.268364 295.505886 
L 366.021818 295.505886 
z
" style="fill:#5eedfe;fill-opacity:0.815686;"/>
   </g>
   <g id="patch_294">
    <path clip-path="url(#pf38b7c2f87)" d="M 369.268364 307.584 
L 372.514909 307.584 
L 372.514909 295.086887 
L 369.268364 295.086887 
z
" style="fill:#5eedfe;fill-opacity:0.815686;"/>
   </g>
   <g id="patch_295">
    <path clip-path="url(#pf38b7c2f87)" d="M 372.514909 307.584 
L 375.761455 307.584 
L 375.761455 298.074535 
L 372.514909 298.074535 
z
" style="fill:#5eedfe;fill-opacity:0.815686;"/>
   </g>
   <g id="patch_296">
    <path clip-path="url(#pf38b7c2f87)" d="M 375.761455 307.584 
L 379.008 307.584 
L 379.008 301.226139 
L 375.761455 301.226139 
z
" style="fill:#5eedfe;fill-opacity:0.815686;"/>
   </g>
   <g id="patch_297">
    <path clip-path="url(#pf38b7c2f87)" d="M 379.008 307.584 
L 382.254545 307.584 
L 382.254545 302.920354 
L 379.008 302.920354 
z
" style="fill:#5eedfe;fill-opacity:0.815686;"/>
   </g>
   <g id="patch_298">
    <path clip-path="url(#pf38b7c2f87)" d="M 382.254545 307.584 
L 385.501091 307.584 
L 385.501091 302.683528 
L 382.254545 302.683528 
z
" style="fill:#5eedfe;fill-opacity:0.815686;"/>
   </g>
   <g id="patch_299">
    <path clip-path="url(#pf38b7c2f87)" d="M 385.501091 307.584 
L 388.747636 307.584 
L 388.747636 303.066093 
L 385.501091 303.066093 
z
" style="fill:#5eedfe;fill-opacity:0.815686;"/>
   </g>
   <g id="patch_300">
    <path clip-path="url(#pf38b7c2f87)" d="M 388.747636 307.584 
L 391.994182 307.584 
L 391.994182 303.50331 
L 388.747636 303.50331 
z
" style="fill:#5eedfe;fill-opacity:0.815686;"/>
   </g>
   <g id="patch_301">
    <path clip-path="url(#pf38b7c2f87)" d="M 391.994182 307.584 
L 395.240727 307.584 
L 395.240727 302.975006 
L 391.994182 302.975006 
z
" style="fill:#5eedfe;fill-opacity:0.815686;"/>
   </g>
   <g id="patch_302">
    <path clip-path="url(#pf38b7c2f87)" d="M 395.240727 307.584 
L 398.487273 307.584 
L 398.487273 303.120745 
L 395.240727 303.120745 
z
" style="fill:#5eedfe;fill-opacity:0.815686;"/>
   </g>
   <g id="matplotlib.axis_1">
    <g id="xtick_1">
     <g id="line2d_1">
      <defs>
       <path d="M 0 0 
L 0 3.5 
" id="mba10fbf598" style="stroke:#000000;stroke-width:0.8;"/>
      </defs>
      <g>
       <use style="stroke:#000000;stroke-width:0.8;" x="78.427147" xlink:href="#mba10fbf598" y="307.584"/>
      </g>
     </g>
     <g id="text_1">
      <!-- 100.0 us -->
      <defs>
       <path d="M 12.40625 8.296875 
L 28.515625 8.296875 
L 28.515625 63.921875 
L 10.984375 60.40625 
L 10.984375 69.390625 
L 28.421875 72.90625 
L 38.28125 72.90625 
L 38.28125 8.296875 
L 54.390625 8.296875 
L 54.390625 0 
L 12.40625 0 
z
" id="DejaVuSans-49"/>
       <path d="M 31.78125 66.40625 
Q 24.171875 66.40625 20.328125 58.90625 
Q 16.5 51.421875 16.5 36.375 
Q 16.5 21.390625 20.328125 13.890625 
Q 24.171875 6.390625 31.78125 6.390625 
Q 39.453125 6.390625 43.28125 13.890625 
Q 47.125 21.390625 47.125 36.375 
Q 47.125 51.421875 43.28125 58.90625 
Q 39.453125 66.40625 31.78125 66.40625 
z
M 31.78125 74.21875 
Q 44.046875 74.21875 50.515625 64.515625 
Q 56.984375 54.828125 56.984375 36.375 
Q 56.984375 17.96875 50.515625 8.265625 
Q 44.046875 -1.421875 31.78125 -1.421875 
Q 19.53125 -1.421875 13.0625 8.265625 
Q 6.59375 17.96875 6.59375 36.375 
Q 6.59375 54.828125 13.0625 64.515625 
Q 19.53125 74.21875 31.78125 74.21875 
z
" id="DejaVuSans-48"/>
       <path d="M 10.6875 12.40625 
L 21 12.40625 
L 21 0 
L 10.6875 0 
z
" id="DejaVuSans-46"/>
       <path id="DejaVuSans-32"/>
       <path d="M 8.5 21.578125 
L 8.5 54.6875 
L 17.484375 54.6875 
L 17.484375 21.921875 
Q 17.484375 14.15625 20.5 10.265625 
Q 23.53125 6.390625 29.59375 6.390625 
Q 36.859375 6.390625 41.078125 11.03125 
Q 45.3125 15.671875 45.3125 23.6875 
L 45.3125 54.6875 
L 54.296875 54.6875 
L 54.296875 0 
L 45.3125 0 
L 45.3125 8.40625 
Q 42.046875 3.421875 37.71875 1 
Q 33.40625 -1.421875 27.6875 -1.421875 
Q 18.265625 -1.421875 13.375 4.4375 
Q 8.5 10.296875 8.5 21.578125 
z
M 31.109375 56 
z
" id="DejaVuSans-117"/>
       <path d="M 44.28125 53.078125 
L 44.28125 44.578125 
Q 40.484375 46.53125 36.375 47.5 
Q 32.28125 48.484375 27.875 48.484375 
Q 21.1875 48.484375 17.84375 46.4375 
Q 14.5 44.390625 14.5 40.28125 
Q 14.5 37.15625 16.890625 35.375 
Q 19.28125 33.59375 26.515625 31.984375 
L 29.59375 31.296875 
Q 39.15625 29.25 43.1875 25.515625 
Q 47.21875 21.78125 47.21875 15.09375 
Q 47.21875 7.46875 41.1875 3.015625 
Q 35.15625 -1.421875 24.609375 -1.421875 
Q 20.21875 -1.421875 15.453125 -0.5625 
Q 10.6875 0.296875 5.421875 2 
L 5.421875 11.28125 
Q 10.40625 8.6875 15.234375 7.390625 
Q 20.0625 6.109375 24.8125 6.109375 
Q 31.15625 6.109375 34.5625 8.28125 
Q 37.984375 10.453125 37.984375 14.40625 
Q 37.984375 18.0625 35.515625 20.015625 
Q 33.0625 21.96875 24.703125 23.78125 
L 21.578125 24.515625 
Q 13.234375 26.265625 9.515625 29.90625 
Q 5.8125 33.546875 5.8125 39.890625 
Q 5.8125 47.609375 11.28125 51.796875 
Q 16.75 56 26.8125 56 
Q 31.78125 56 36.171875 55.265625 
Q 40.578125 54.546875 44.28125 53.078125 
z
" id="DejaVuSans-115"/>
      </defs>
      <g transform="translate(75.215909 321.470523)rotate(-335)scale(0.1 -0.1)">
       <use xlink:href="#DejaVuSans-49"/>
       <use x="63.623047" xlink:href="#DejaVuSans-48"/>
       <use x="127.246094" xlink:href="#DejaVuSans-48"/>
       <use x="190.869141" xlink:href="#DejaVuSans-46"/>
       <use x="222.65625" xlink:href="#DejaVuSans-48"/>
       <use x="286.279297" xlink:href="#DejaVuSans-32"/>
       <use x="318.066406" xlink:href="#DejaVuSans-117"/>
       <use x="381.445312" xlink:href="#DejaVuSans-115"/>
      </g>
     </g>
    </g>
    <g id="xtick_2">
     <g id="line2d_2">
      <g>
       <use style="stroke:#000000;stroke-width:0.8;" x="122.882103" xlink:href="#mba10fbf598" y="307.584"/>
      </g>
     </g>
     <g id="text_2">
      <!-- 120.0 us -->
      <defs>
       <path d="M 19.1875 8.296875 
L 53.609375 8.296875 
L 53.609375 0 
L 7.328125 0 
L 7.328125 8.296875 
Q 12.9375 14.109375 22.625 23.890625 
Q 32.328125 33.6875 34.8125 36.53125 
Q 39.546875 41.84375 41.421875 45.53125 
Q 43.3125 49.21875 43.3125 52.78125 
Q 43.3125 58.59375 39.234375 62.25 
Q 35.15625 65.921875 28.609375 65.921875 
Q 23.96875 65.921875 18.8125 64.3125 
Q 13.671875 62.703125 7.8125 59.421875 
L 7.8125 69.390625 
Q 13.765625 71.78125 18.9375 73 
Q 24.125 74.21875 28.421875 74.21875 
Q 39.75 74.21875 46.484375 68.546875 
Q 53.21875 62.890625 53.21875 53.421875 
Q 53.21875 48.921875 51.53125 44.890625 
Q 49.859375 40.875 45.40625 35.40625 
Q 44.1875 33.984375 37.640625 27.21875 
Q 31.109375 20.453125 19.1875 8.296875 
z
" id="DejaVuSans-50"/>
      </defs>
      <g transform="translate(119.670865 321.470523)rotate(-335)scale(0.1 -0.1)">
       <use xlink:href="#DejaVuSans-49"/>
       <use x="63.623047" xlink:href="#DejaVuSans-50"/>
       <use x="127.246094" xlink:href="#DejaVuSans-48"/>
       <use x="190.869141" xlink:href="#DejaVuSans-46"/>
       <use x="222.65625" xlink:href="#DejaVuSans-48"/>
       <use x="286.279297" xlink:href="#DejaVuSans-32"/>
       <use x="318.066406" xlink:href="#DejaVuSans-117"/>
       <use x="381.445312" xlink:href="#DejaVuSans-115"/>
      </g>
     </g>
    </g>
    <g id="xtick_3">
     <g id="line2d_3">
      <g>
       <use style="stroke:#000000;stroke-width:0.8;" x="167.337059" xlink:href="#mba10fbf598" y="307.584"/>
      </g>
     </g>
     <g id="text_3">
      <!-- 140.0 us -->
      <defs>
       <path d="M 37.796875 64.3125 
L 12.890625 25.390625 
L 37.796875 25.390625 
z
M 35.203125 72.90625 
L 47.609375 72.90625 
L 47.609375 25.390625 
L 58.015625 25.390625 
L 58.015625 17.1875 
L 47.609375 17.1875 
L 47.609375 0 
L 37.796875 0 
L 37.796875 17.1875 
L 4.890625 17.1875 
L 4.890625 26.703125 
z
" id="DejaVuSans-52"/>
      </defs>
      <g transform="translate(164.125821 321.470523)rotate(-335)scale(0.1 -0.1)">
       <use xlink:href="#DejaVuSans-49"/>
       <use x="63.623047" xlink:href="#DejaVuSans-52"/>
       <use x="127.246094" xlink:href="#DejaVuSans-48"/>
       <use x="190.869141" xlink:href="#DejaVuSans-46"/>
       <use x="222.65625" xlink:href="#DejaVuSans-48"/>
       <use x="286.279297" xlink:href="#DejaVuSans-32"/>
       <use x="318.066406" xlink:href="#DejaVuSans-117"/>
       <use x="381.445312" xlink:href="#DejaVuSans-115"/>
      </g>
     </g>
    </g>
    <g id="xtick_4">
     <g id="line2d_4">
      <g>
       <use style="stroke:#000000;stroke-width:0.8;" x="211.792016" xlink:href="#mba10fbf598" y="307.584"/>
      </g>
     </g>
     <g id="text_4">
      <!-- 160.0 us -->
      <defs>
       <path d="M 33.015625 40.375 
Q 26.375 40.375 22.484375 35.828125 
Q 18.609375 31.296875 18.609375 23.390625 
Q 18.609375 15.53125 22.484375 10.953125 
Q 26.375 6.390625 33.015625 6.390625 
Q 39.65625 6.390625 43.53125 10.953125 
Q 47.40625 15.53125 47.40625 23.390625 
Q 47.40625 31.296875 43.53125 35.828125 
Q 39.65625 40.375 33.015625 40.375 
z
M 52.59375 71.296875 
L 52.59375 62.3125 
Q 48.875 64.0625 45.09375 64.984375 
Q 41.3125 65.921875 37.59375 65.921875 
Q 27.828125 65.921875 22.671875 59.328125 
Q 17.53125 52.734375 16.796875 39.40625 
Q 19.671875 43.65625 24.015625 45.921875 
Q 28.375 48.1875 33.59375 48.1875 
Q 44.578125 48.1875 50.953125 41.515625 
Q 57.328125 34.859375 57.328125 23.390625 
Q 57.328125 12.15625 50.6875 5.359375 
Q 44.046875 -1.421875 33.015625 -1.421875 
Q 20.359375 -1.421875 13.671875 8.265625 
Q 6.984375 17.96875 6.984375 36.375 
Q 6.984375 53.65625 15.1875 63.9375 
Q 23.390625 74.21875 37.203125 74.21875 
Q 40.921875 74.21875 44.703125 73.484375 
Q 48.484375 72.75 52.59375 71.296875 
z
" id="DejaVuSans-54"/>
      </defs>
      <g transform="translate(208.580777 321.470523)rotate(-335)scale(0.1 -0.1)">
       <use xlink:href="#DejaVuSans-49"/>
       <use x="63.623047" xlink:href="#DejaVuSans-54"/>
       <use x="127.246094" xlink:href="#DejaVuSans-48"/>
       <use x="190.869141" xlink:href="#DejaVuSans-46"/>
       <use x="222.65625" xlink:href="#DejaVuSans-48"/>
       <use x="286.279297" xlink:href="#DejaVuSans-32"/>
       <use x="318.066406" xlink:href="#DejaVuSans-117"/>
       <use x="381.445312" xlink:href="#DejaVuSans-115"/>
      </g>
     </g>
    </g>
    <g id="xtick_5">
     <g id="line2d_5">
      <g>
       <use style="stroke:#000000;stroke-width:0.8;" x="256.246972" xlink:href="#mba10fbf598" y="307.584"/>
      </g>
     </g>
     <g id="text_5">
      <!-- 180.0 us -->
      <defs>
       <path d="M 31.78125 34.625 
Q 24.75 34.625 20.71875 30.859375 
Q 16.703125 27.09375 16.703125 20.515625 
Q 16.703125 13.921875 20.71875 10.15625 
Q 24.75 6.390625 31.78125 6.390625 
Q 38.8125 6.390625 42.859375 10.171875 
Q 46.921875 13.96875 46.921875 20.515625 
Q 46.921875 27.09375 42.890625 30.859375 
Q 38.875 34.625 31.78125 34.625 
z
M 21.921875 38.8125 
Q 15.578125 40.375 12.03125 44.71875 
Q 8.5 49.078125 8.5 55.328125 
Q 8.5 64.0625 14.71875 69.140625 
Q 20.953125 74.21875 31.78125 74.21875 
Q 42.671875 74.21875 48.875 69.140625 
Q 55.078125 64.0625 55.078125 55.328125 
Q 55.078125 49.078125 51.53125 44.71875 
Q 48 40.375 41.703125 38.8125 
Q 48.828125 37.15625 52.796875 32.3125 
Q 56.78125 27.484375 56.78125 20.515625 
Q 56.78125 9.90625 50.3125 4.234375 
Q 43.84375 -1.421875 31.78125 -1.421875 
Q 19.734375 -1.421875 13.25 4.234375 
Q 6.78125 9.90625 6.78125 20.515625 
Q 6.78125 27.484375 10.78125 32.3125 
Q 14.796875 37.15625 21.921875 38.8125 
z
M 18.3125 54.390625 
Q 18.3125 48.734375 21.84375 45.5625 
Q 25.390625 42.390625 31.78125 42.390625 
Q 38.140625 42.390625 41.71875 45.5625 
Q 45.3125 48.734375 45.3125 54.390625 
Q 45.3125 60.0625 41.71875 63.234375 
Q 38.140625 66.40625 31.78125 66.40625 
Q 25.390625 66.40625 21.84375 63.234375 
Q 18.3125 60.0625 18.3125 54.390625 
z
" id="DejaVuSans-56"/>
      </defs>
      <g transform="translate(253.035734 321.470523)rotate(-335)scale(0.1 -0.1)">
       <use xlink:href="#DejaVuSans-49"/>
       <use x="63.623047" xlink:href="#DejaVuSans-56"/>
       <use x="127.246094" xlink:href="#DejaVuSans-48"/>
       <use x="190.869141" xlink:href="#DejaVuSans-46"/>
       <use x="222.65625" xlink:href="#DejaVuSans-48"/>
       <use x="286.279297" xlink:href="#DejaVuSans-32"/>
       <use x="318.066406" xlink:href="#DejaVuSans-117"/>
       <use x="381.445312" xlink:href="#DejaVuSans-115"/>
      </g>
     </g>
    </g>
    <g id="xtick_6">
     <g id="line2d_6">
      <g>
       <use style="stroke:#000000;stroke-width:0.8;" x="300.701928" xlink:href="#mba10fbf598" y="307.584"/>
      </g>
     </g>
     <g id="text_6">
      <!-- 200.0 us -->
      <g transform="translate(297.49069 321.470523)rotate(-335)scale(0.1 -0.1)">
       <use xlink:href="#DejaVuSans-50"/>
       <use x="63.623047" xlink:href="#DejaVuSans-48"/>
       <use x="127.246094" xlink:href="#DejaVuSans-48"/>
       <use x="190.869141" xlink:href="#DejaVuSans-46"/>
       <use x="222.65625" xlink:href="#DejaVuSans-48"/>
       <use x="286.279297" xlink:href="#DejaVuSans-32"/>
       <use x="318.066406" xlink:href="#DejaVuSans-117"/>
       <use x="381.445312" xlink:href="#DejaVuSans-115"/>
      </g>
     </g>
    </g>
    <g id="xtick_7">
     <g id="line2d_7">
      <g>
       <use style="stroke:#000000;stroke-width:0.8;" x="345.156884" xlink:href="#mba10fbf598" y="307.584"/>
      </g>
     </g>
     <g id="text_7">
      <!-- 220.0 us -->
      <g transform="translate(341.945646 321.470523)rotate(-335)scale(0.1 -0.1)">
       <use xlink:href="#DejaVuSans-50"/>
       <use x="63.623047" xlink:href="#DejaVuSans-50"/>
       <use x="127.246094" xlink:href="#DejaVuSans-48"/>
       <use x="190.869141" xlink:href="#DejaVuSans-46"/>
       <use x="222.65625" xlink:href="#DejaVuSans-48"/>
       <use x="286.279297" xlink:href="#DejaVuSans-32"/>
       <use x="318.066406" xlink:href="#DejaVuSans-117"/>
       <use x="381.445312" xlink:href="#DejaVuSans-115"/>
      </g>
     </g>
    </g>
    <g id="xtick_8">
     <g id="line2d_8">
      <g>
       <use style="stroke:#000000;stroke-width:0.8;" x="389.611841" xlink:href="#mba10fbf598" y="307.584"/>
      </g>
     </g>
     <g id="text_8">
      <!-- 240.0 us -->
      <g transform="translate(386.400602 321.470523)rotate(-335)scale(0.1 -0.1)">
       <use xlink:href="#DejaVuSans-50"/>
       <use x="63.623047" xlink:href="#DejaVuSans-52"/>
       <use x="127.246094" xlink:href="#DejaVuSans-48"/>
       <use x="190.869141" xlink:href="#DejaVuSans-46"/>
       <use x="222.65625" xlink:href="#DejaVuSans-48"/>
       <use x="286.279297" xlink:href="#DejaVuSans-32"/>
       <use x="318.066406" xlink:href="#DejaVuSans-117"/>
       <use x="381.445312" xlink:href="#DejaVuSans-115"/>
      </g>
     </g>
    </g>
   </g>
   <g id="matplotlib.axis_2">
    <g id="ytick_1">
     <g id="line2d_9">
      <defs>
       <path d="M 0 0 
L -3.5 0 
" id="m22b825a61e" style="stroke:#000000;stroke-width:0.8;"/>
      </defs>
      <g>
       <use style="stroke:#000000;stroke-width:0.8;" x="57.6" xlink:href="#m22b825a61e" y="307.584"/>
      </g>
     </g>
     <g id="text_9">
      <!-- 0 -->
      <g transform="translate(44.2375 311.383219)scale(0.1 -0.1)">
       <use xlink:href="#DejaVuSans-48"/>
      </g>
     </g>
    </g>
    <g id="ytick_2">
     <g id="line2d_10">
      <g>
       <use style="stroke:#000000;stroke-width:0.8;" x="57.6" xlink:href="#m22b825a61e" y="271.149267"/>
      </g>
     </g>
     <g id="text_10">
      <!-- 2000 -->
      <g transform="translate(25.15 274.948486)scale(0.1 -0.1)">
       <use xlink:href="#DejaVuSans-50"/>
       <use x="63.623047" xlink:href="#DejaVuSans-48"/>
       <use x="127.246094" xlink:href="#DejaVuSans-48"/>
       <use x="190.869141" xlink:href="#DejaVuSans-48"/>
      </g>
     </g>
    </g>
    <g id="ytick_3">
     <g id="line2d_11">
      <g>
       <use style="stroke:#000000;stroke-width:0.8;" x="57.6" xlink:href="#m22b825a61e" y="234.714535"/>
      </g>
     </g>
     <g id="text_11">
      <!-- 4000 -->
      <g transform="translate(25.15 238.513754)scale(0.1 -0.1)">
       <use xlink:href="#DejaVuSans-52"/>
       <use x="63.623047" xlink:href="#DejaVuSans-48"/>
       <use x="127.246094" xlink:href="#DejaVuSans-48"/>
       <use x="190.869141" xlink:href="#DejaVuSans-48"/>
      </g>
     </g>
    </g>
    <g id="ytick_4">
     <g id="line2d_12">
      <g>
       <use style="stroke:#000000;stroke-width:0.8;" x="57.6" xlink:href="#m22b825a61e" y="198.279802"/>
      </g>
     </g>
     <g id="text_12">
      <!-- 6000 -->
      <g transform="translate(25.15 202.079021)scale(0.1 -0.1)">
       <use xlink:href="#DejaVuSans-54"/>
       <use x="63.623047" xlink:href="#DejaVuSans-48"/>
       <use x="127.246094" xlink:href="#DejaVuSans-48"/>
       <use x="190.869141" xlink:href="#DejaVuSans-48"/>
      </g>
     </g>
    </g>
    <g id="ytick_5">
     <g id="line2d_13">
      <g>
       <use style="stroke:#000000;stroke-width:0.8;" x="57.6" xlink:href="#m22b825a61e" y="161.84507"/>
      </g>
     </g>
     <g id="text_13">
      <!-- 8000 -->
      <g transform="translate(25.15 165.644288)scale(0.1 -0.1)">
       <use xlink:href="#DejaVuSans-56"/>
       <use x="63.623047" xlink:href="#DejaVuSans-48"/>
       <use x="127.246094" xlink:href="#DejaVuSans-48"/>
       <use x="190.869141" xlink:href="#DejaVuSans-48"/>
      </g>
     </g>
    </g>
    <g id="ytick_6">
     <g id="line2d_14">
      <g>
       <use style="stroke:#000000;stroke-width:0.8;" x="57.6" xlink:href="#m22b825a61e" y="125.410337"/>
      </g>
     </g>
     <g id="text_14">
      <!-- 10000 -->
      <g transform="translate(18.7875 129.209556)scale(0.1 -0.1)">
       <use xlink:href="#DejaVuSans-49"/>
       <use x="63.623047" xlink:href="#DejaVuSans-48"/>
       <use x="127.246094" xlink:href="#DejaVuSans-48"/>
       <use x="190.869141" xlink:href="#DejaVuSans-48"/>
       <use x="254.492188" xlink:href="#DejaVuSans-48"/>
      </g>
     </g>
    </g>
    <g id="ytick_7">
     <g id="line2d_15">
      <g>
       <use style="stroke:#000000;stroke-width:0.8;" x="57.6" xlink:href="#m22b825a61e" y="88.975604"/>
      </g>
     </g>
     <g id="text_15">
      <!-- 12000 -->
      <g transform="translate(18.7875 92.774823)scale(0.1 -0.1)">
       <use xlink:href="#DejaVuSans-49"/>
       <use x="63.623047" xlink:href="#DejaVuSans-50"/>
       <use x="127.246094" xlink:href="#DejaVuSans-48"/>
       <use x="190.869141" xlink:href="#DejaVuSans-48"/>
       <use x="254.492188" xlink:href="#DejaVuSans-48"/>
      </g>
     </g>
    </g>
    <g id="ytick_8">
     <g id="line2d_16">
      <g>
       <use style="stroke:#000000;stroke-width:0.8;" x="57.6" xlink:href="#m22b825a61e" y="52.540872"/>
      </g>
     </g>
     <g id="text_16">
      <!-- 14000 -->
      <g transform="translate(18.7875 56.340091)scale(0.1 -0.1)">
       <use xlink:href="#DejaVuSans-49"/>
       <use x="63.623047" xlink:href="#DejaVuSans-52"/>
       <use x="127.246094" xlink:href="#DejaVuSans-48"/>
       <use x="190.869141" xlink:href="#DejaVuSans-48"/>
       <use x="254.492188" xlink:href="#DejaVuSans-48"/>
      </g>
     </g>
    </g>
    <g id="text_17">
     <!-- Number of samples -->
     <defs>
      <path d="M 9.8125 72.90625 
L 23.09375 72.90625 
L 55.421875 11.921875 
L 55.421875 72.90625 
L 64.984375 72.90625 
L 64.984375 0 
L 51.703125 0 
L 19.390625 60.984375 
L 19.390625 0 
L 9.8125 0 
z
" id="DejaVuSans-78"/>
      <path d="M 52 44.1875 
Q 55.375 50.25 60.0625 53.125 
Q 64.75 56 71.09375 56 
Q 79.640625 56 84.28125 50.015625 
Q 88.921875 44.046875 88.921875 33.015625 
L 88.921875 0 
L 79.890625 0 
L 79.890625 32.71875 
Q 79.890625 40.578125 77.09375 44.375 
Q 74.3125 48.1875 68.609375 48.1875 
Q 61.625 48.1875 57.5625 43.546875 
Q 53.515625 38.921875 53.515625 30.90625 
L 53.515625 0 
L 44.484375 0 
L 44.484375 32.71875 
Q 44.484375 40.625 41.703125 44.40625 
Q 38.921875 48.1875 33.109375 48.1875 
Q 26.21875 48.1875 22.15625 43.53125 
Q 18.109375 38.875 18.109375 30.90625 
L 18.109375 0 
L 9.078125 0 
L 9.078125 54.6875 
L 18.109375 54.6875 
L 18.109375 46.1875 
Q 21.1875 51.21875 25.484375 53.609375 
Q 29.78125 56 35.6875 56 
Q 41.65625 56 45.828125 52.96875 
Q 50 49.953125 52 44.1875 
z
" id="DejaVuSans-109"/>
      <path d="M 48.6875 27.296875 
Q 48.6875 37.203125 44.609375 42.84375 
Q 40.53125 48.484375 33.40625 48.484375 
Q 26.265625 48.484375 22.1875 42.84375 
Q 18.109375 37.203125 18.109375 27.296875 
Q 18.109375 17.390625 22.1875 11.75 
Q 26.265625 6.109375 33.40625 6.109375 
Q 40.53125 6.109375 44.609375 11.75 
Q 48.6875 17.390625 48.6875 27.296875 
z
M 18.109375 46.390625 
Q 20.953125 51.265625 25.265625 53.625 
Q 29.59375 56 35.59375 56 
Q 45.5625 56 51.78125 48.09375 
Q 58.015625 40.1875 58.015625 27.296875 
Q 58.015625 14.40625 51.78125 6.484375 
Q 45.5625 -1.421875 35.59375 -1.421875 
Q 29.59375 -1.421875 25.265625 0.953125 
Q 20.953125 3.328125 18.109375 8.203125 
L 18.109375 0 
L 9.078125 0 
L 9.078125 75.984375 
L 18.109375 75.984375 
z
" id="DejaVuSans-98"/>
      <path d="M 56.203125 29.59375 
L 56.203125 25.203125 
L 14.890625 25.203125 
Q 15.484375 15.921875 20.484375 11.0625 
Q 25.484375 6.203125 34.421875 6.203125 
Q 39.59375 6.203125 44.453125 7.46875 
Q 49.3125 8.734375 54.109375 11.28125 
L 54.109375 2.78125 
Q 49.265625 0.734375 44.1875 -0.34375 
Q 39.109375 -1.421875 33.890625 -1.421875 
Q 20.796875 -1.421875 13.15625 6.1875 
Q 5.515625 13.8125 5.515625 26.8125 
Q 5.515625 40.234375 12.765625 48.109375 
Q 20.015625 56 32.328125 56 
Q 43.359375 56 49.78125 48.890625 
Q 56.203125 41.796875 56.203125 29.59375 
z
M 47.21875 32.234375 
Q 47.125 39.59375 43.09375 43.984375 
Q 39.0625 48.390625 32.421875 48.390625 
Q 24.90625 48.390625 20.390625 44.140625 
Q 15.875 39.890625 15.1875 32.171875 
z
" id="DejaVuSans-101"/>
      <path d="M 41.109375 46.296875 
Q 39.59375 47.171875 37.8125 47.578125 
Q 36.03125 48 33.890625 48 
Q 26.265625 48 22.1875 43.046875 
Q 18.109375 38.09375 18.109375 28.8125 
L 18.109375 0 
L 9.078125 0 
L 9.078125 54.6875 
L 18.109375 54.6875 
L 18.109375 46.1875 
Q 20.953125 51.171875 25.484375 53.578125 
Q 30.03125 56 36.53125 56 
Q 37.453125 56 38.578125 55.875 
Q 39.703125 55.765625 41.0625 55.515625 
z
" id="DejaVuSans-114"/>
      <path d="M 30.609375 48.390625 
Q 23.390625 48.390625 19.1875 42.75 
Q 14.984375 37.109375 14.984375 27.296875 
Q 14.984375 17.484375 19.15625 11.84375 
Q 23.34375 6.203125 30.609375 6.203125 
Q 37.796875 6.203125 41.984375 11.859375 
Q 46.1875 17.53125 46.1875 27.296875 
Q 46.1875 37.015625 41.984375 42.703125 
Q 37.796875 48.390625 30.609375 48.390625 
z
M 30.609375 56 
Q 42.328125 56 49.015625 48.375 
Q 55.71875 40.765625 55.71875 27.296875 
Q 55.71875 13.875 49.015625 6.21875 
Q 42.328125 -1.421875 30.609375 -1.421875 
Q 18.84375 -1.421875 12.171875 6.21875 
Q 5.515625 13.875 5.515625 27.296875 
Q 5.515625 40.765625 12.171875 48.375 
Q 18.84375 56 30.609375 56 
z
" id="DejaVuSans-111"/>
      <path d="M 37.109375 75.984375 
L 37.109375 68.5 
L 28.515625 68.5 
Q 23.6875 68.5 21.796875 66.546875 
Q 19.921875 64.59375 19.921875 59.515625 
L 19.921875 54.6875 
L 34.71875 54.6875 
L 34.71875 47.703125 
L 19.921875 47.703125 
L 19.921875 0 
L 10.890625 0 
L 10.890625 47.703125 
L 2.296875 47.703125 
L 2.296875 54.6875 
L 10.890625 54.6875 
L 10.890625 58.5 
Q 10.890625 67.625 15.140625 71.796875 
Q 19.390625 75.984375 28.609375 75.984375 
z
" id="DejaVuSans-102"/>
      <path d="M 34.28125 27.484375 
Q 23.390625 27.484375 19.1875 25 
Q 14.984375 22.515625 14.984375 16.5 
Q 14.984375 11.71875 18.140625 8.90625 
Q 21.296875 6.109375 26.703125 6.109375 
Q 34.1875 6.109375 38.703125 11.40625 
Q 43.21875 16.703125 43.21875 25.484375 
L 43.21875 27.484375 
z
M 52.203125 31.203125 
L 52.203125 0 
L 43.21875 0 
L 43.21875 8.296875 
Q 40.140625 3.328125 35.546875 0.953125 
Q 30.953125 -1.421875 24.3125 -1.421875 
Q 15.921875 -1.421875 10.953125 3.296875 
Q 6 8.015625 6 15.921875 
Q 6 25.140625 12.171875 29.828125 
Q 18.359375 34.515625 30.609375 34.515625 
L 43.21875 34.515625 
L 43.21875 35.40625 
Q 43.21875 41.609375 39.140625 45 
Q 35.0625 48.390625 27.6875 48.390625 
Q 23 48.390625 18.546875 47.265625 
Q 14.109375 46.140625 10.015625 43.890625 
L 10.015625 52.203125 
Q 14.9375 54.109375 19.578125 55.046875 
Q 24.21875 56 28.609375 56 
Q 40.484375 56 46.34375 49.84375 
Q 52.203125 43.703125 52.203125 31.203125 
z
" id="DejaVuSans-97"/>
      <path d="M 18.109375 8.203125 
L 18.109375 -20.796875 
L 9.078125 -20.796875 
L 9.078125 54.6875 
L 18.109375 54.6875 
L 18.109375 46.390625 
Q 20.953125 51.265625 25.265625 53.625 
Q 29.59375 56 35.59375 56 
Q 45.5625 56 51.78125 48.09375 
Q 58.015625 40.1875 58.015625 27.296875 
Q 58.015625 14.40625 51.78125 6.484375 
Q 45.5625 -1.421875 35.59375 -1.421875 
Q 29.59375 -1.421875 25.265625 0.953125 
Q 20.953125 3.328125 18.109375 8.203125 
z
M 48.6875 27.296875 
Q 48.6875 37.203125 44.609375 42.84375 
Q 40.53125 48.484375 33.40625 48.484375 
Q 26.265625 48.484375 22.1875 42.84375 
Q 18.109375 37.203125 18.109375 27.296875 
Q 18.109375 17.390625 22.1875 11.75 
Q 26.265625 6.109375 33.40625 6.109375 
Q 40.53125 6.109375 44.609375 11.75 
Q 48.6875 17.390625 48.6875 27.296875 
z
" id="DejaVuSans-112"/>
      <path d="M 9.421875 75.984375 
L 18.40625 75.984375 
L 18.40625 0 
L 9.421875 0 
z
" id="DejaVuSans-108"/>
     </defs>
     <g transform="translate(12.707812 223.395187)rotate(-90)scale(0.1 -0.1)">
      <use xlink:href="#DejaVuSans-78"/>
      <use x="74.804688" xlink:href="#DejaVuSans-117"/>
      <use x="138.183594" xlink:href="#DejaVuSans-109"/>
      <use x="235.595703" xlink:href="#DejaVuSans-98"/>
      <use x="299.072266" xlink:href="#DejaVuSans-101"/>
      <use x="360.595703" xlink:href="#DejaVuSans-114"/>
      <use x="401.708984" xlink:href="#DejaVuSans-32"/>
      <use x="433.496094" xlink:href="#DejaVuSans-111"/>
      <use x="494.677734" xlink:href="#DejaVuSans-102"/>
      <use x="529.882812" xlink:href="#DejaVuSans-32"/>
      <use x="561.669922" xlink:href="#DejaVuSans-115"/>
      <use x="613.769531" xlink:href="#DejaVuSans-97"/>
      <use x="675.048828" xlink:href="#DejaVuSans-109"/>
      <use x="772.460938" xlink:href="#DejaVuSans-112"/>
      <use x="835.9375" xlink:href="#DejaVuSans-108"/>
      <use x="863.720703" xlink:href="#DejaVuSans-101"/>
      <use x="925.244141" xlink:href="#DejaVuSans-115"/>
     </g>
    </g>
   </g>
   <g id="line2d_17">
    <path clip-path="url(#pf38b7c2f87)" d="M 230.03633 307.584 
L 230.03633 41.472 
" style="fill:none;stroke:#fe6f5e;stroke-dasharray:5.55,2.4;stroke-dashoffset:0;stroke-width:1.5;"/>
   </g>
   <g id="line2d_18">
    <path clip-path="url(#pf38b7c2f87)" d="M 241.356784 307.584 
L 241.356784 41.472 
" style="fill:none;stroke:#5e9dfe;stroke-dasharray:5.55,2.4;stroke-dashoffset:0;stroke-width:1.5;"/>
   </g>
   <g id="line2d_19">
    <path clip-path="url(#pf38b7c2f87)" d="M 236.144441 307.584 
L 236.144441 41.472 
" style="fill:none;stroke:#5eedfe;stroke-dasharray:5.55,2.4;stroke-dashoffset:0;stroke-width:1.5;"/>
   </g>
   <g id="patch_303">
    <path d="M 57.6 307.584 
L 57.6 41.472 
" style="fill:none;stroke:#000000;stroke-linecap:square;stroke-linejoin:miter;stroke-width:0.8;"/>
   </g>
   <g id="patch_304">
    <path d="M 414.72 307.584 
L 414.72 41.472 
" style="fill:none;stroke:#000000;stroke-linecap:square;stroke-linejoin:miter;stroke-width:0.8;"/>
   </g>
   <g id="patch_305">
    <path d="M 57.6 307.584 
L 414.72 307.584 
" style="fill:none;stroke:#000000;stroke-linecap:square;stroke-linejoin:miter;stroke-width:0.8;"/>
   </g>
   <g id="patch_306">
    <path d="M 57.6 41.472 
L 414.72 41.472 
" style="fill:none;stroke:#000000;stroke-linecap:square;stroke-linejoin:miter;stroke-width:0.8;"/>
   </g>
   <g id="text_18">
    <!-- submit samples -->
    <defs>
     <path d="M 9.421875 54.6875 
L 18.40625 54.6875 
L 18.40625 0 
L 9.421875 0 
z
M 9.421875 75.984375 
L 18.40625 75.984375 
L 18.40625 64.59375 
L 9.421875 64.59375 
z
" id="DejaVuSans-105"/>
     <path d="M 18.3125 70.21875 
L 18.3125 54.6875 
L 36.8125 54.6875 
L 36.8125 47.703125 
L 18.3125 47.703125 
L 18.3125 18.015625 
Q 18.3125 11.328125 20.140625 9.421875 
Q 21.96875 7.515625 27.59375 7.515625 
L 36.8125 7.515625 
L 36.8125 0 
L 27.59375 0 
Q 17.1875 0 13.234375 3.875 
Q 9.28125 7.765625 9.28125 18.015625 
L 9.28125 47.703125 
L 2.6875 47.703125 
L 2.6875 54.6875 
L 9.28125 54.6875 
L 9.28125 70.21875 
z
" id="DejaVuSans-116"/>
    </defs>
    <g transform="translate(188.712187 35.472)scale(0.12 -0.12)">
     <use xlink:href="#DejaVuSans-115"/>
     <use x="52.099609" xlink:href="#DejaVuSans-117"/>
     <use x="115.478516" xlink:href="#DejaVuSans-98"/>
     <use x="178.955078" xlink:href="#DejaVuSans-109"/>
     <use x="276.367188" xlink:href="#DejaVuSans-105"/>
     <use x="304.150391" xlink:href="#DejaVuSans-116"/>
     <use x="343.359375" xlink:href="#DejaVuSans-32"/>
     <use x="375.146484" xlink:href="#DejaVuSans-115"/>
     <use x="427.246094" xlink:href="#DejaVuSans-97"/>
     <use x="488.525391" xlink:href="#DejaVuSans-109"/>
     <use x="585.9375" xlink:href="#DejaVuSans-112"/>
     <use x="649.414062" xlink:href="#DejaVuSans-108"/>
     <use x="677.197266" xlink:href="#DejaVuSans-101"/>
     <use x="738.720703" xlink:href="#DejaVuSans-115"/>
    </g>
   </g>
   <g id="legend_1">
    <g id="patch_307">
     <path d="M 344.146563 94.062625 
L 407.72 94.062625 
Q 409.72 94.062625 409.72 92.062625 
L 409.72 48.472 
Q 409.72 46.472 407.72 46.472 
L 344.146563 46.472 
Q 342.146563 46.472 342.146563 48.472 
L 342.146563 92.062625 
Q 342.146563 94.062625 344.146563 94.062625 
z
" style="fill:#ffffff;opacity:0.8;stroke:#cccccc;stroke-linejoin:miter;"/>
    </g>
    <g id="patch_308">
     <path d="M 346.146563 58.070437 
L 366.146563 58.070437 
L 366.146563 51.070437 
L 346.146563 51.070437 
z
" style="fill:#fe6f5e;fill-opacity:0.815686;"/>
    </g>
    <g id="text_19">
     <!-- ash -->
     <defs>
      <path d="M 54.890625 33.015625 
L 54.890625 0 
L 45.90625 0 
L 45.90625 32.71875 
Q 45.90625 40.484375 42.875 44.328125 
Q 39.84375 48.1875 33.796875 48.1875 
Q 26.515625 48.1875 22.3125 43.546875 
Q 18.109375 38.921875 18.109375 30.90625 
L 18.109375 0 
L 9.078125 0 
L 9.078125 75.984375 
L 18.109375 75.984375 
L 18.109375 46.1875 
Q 21.34375 51.125 25.703125 53.5625 
Q 30.078125 56 35.796875 56 
Q 45.21875 56 50.046875 50.171875 
Q 54.890625 44.34375 54.890625 33.015625 
z
" id="DejaVuSans-104"/>
     </defs>
     <g transform="translate(374.146563 58.070437)scale(0.1 -0.1)">
      <use xlink:href="#DejaVuSans-97"/>
      <use x="61.279297" xlink:href="#DejaVuSans-115"/>
      <use x="113.378906" xlink:href="#DejaVuSans-104"/>
     </g>
    </g>
    <g id="patch_309">
     <path d="M 346.146563 72.748562 
L 366.146563 72.748562 
L 366.146563 65.748562 
L 346.146563 65.748562 
z
" style="fill:#5e9dfe;fill-opacity:0.815686;"/>
    </g>
    <g id="text_20">
     <!-- vy_ST -->
     <defs>
      <path d="M 2.984375 54.6875 
L 12.5 54.6875 
L 29.59375 8.796875 
L 46.6875 54.6875 
L 56.203125 54.6875 
L 35.6875 0 
L 23.484375 0 
z
" id="DejaVuSans-118"/>
      <path d="M 32.171875 -5.078125 
Q 28.375 -14.84375 24.75 -17.8125 
Q 21.140625 -20.796875 15.09375 -20.796875 
L 7.90625 -20.796875 
L 7.90625 -13.28125 
L 13.1875 -13.28125 
Q 16.890625 -13.28125 18.9375 -11.515625 
Q 21 -9.765625 23.484375 -3.21875 
L 25.09375 0.875 
L 2.984375 54.6875 
L 12.5 54.6875 
L 29.59375 11.921875 
L 46.6875 54.6875 
L 56.203125 54.6875 
z
" id="DejaVuSans-121"/>
      <path d="M 50.984375 -16.609375 
L 50.984375 -23.578125 
L -0.984375 -23.578125 
L -0.984375 -16.609375 
z
" id="DejaVuSans-95"/>
      <path d="M 53.515625 70.515625 
L 53.515625 60.890625 
Q 47.90625 63.578125 42.921875 64.890625 
Q 37.9375 66.21875 33.296875 66.21875 
Q 25.25 66.21875 20.875 63.09375 
Q 16.5 59.96875 16.5 54.203125 
Q 16.5 49.359375 19.40625 46.890625 
Q 22.3125 44.4375 30.421875 42.921875 
L 36.375 41.703125 
Q 47.40625 39.59375 52.65625 34.296875 
Q 57.90625 29 57.90625 20.125 
Q 57.90625 9.515625 50.796875 4.046875 
Q 43.703125 -1.421875 29.984375 -1.421875 
Q 24.8125 -1.421875 18.96875 -0.25 
Q 13.140625 0.921875 6.890625 3.21875 
L 6.890625 13.375 
Q 12.890625 10.015625 18.65625 8.296875 
Q 24.421875 6.59375 29.984375 6.59375 
Q 38.421875 6.59375 43.015625 9.90625 
Q 47.609375 13.234375 47.609375 19.390625 
Q 47.609375 24.75 44.3125 27.78125 
Q 41.015625 30.8125 33.5 32.328125 
L 27.484375 33.5 
Q 16.453125 35.6875 11.515625 40.375 
Q 6.59375 45.0625 6.59375 53.421875 
Q 6.59375 63.09375 13.40625 68.65625 
Q 20.21875 74.21875 32.171875 74.21875 
Q 37.3125 74.21875 42.625 73.28125 
Q 47.953125 72.359375 53.515625 70.515625 
z
" id="DejaVuSans-83"/>
      <path d="M -0.296875 72.90625 
L 61.375 72.90625 
L 61.375 64.59375 
L 35.5 64.59375 
L 35.5 0 
L 25.59375 0 
L 25.59375 64.59375 
L -0.296875 64.59375 
z
" id="DejaVuSans-84"/>
     </defs>
     <g transform="translate(374.146563 72.748562)scale(0.1 -0.1)">
      <use xlink:href="#DejaVuSans-118"/>
      <use x="59.179688" xlink:href="#DejaVuSans-121"/>
      <use x="118.359375" xlink:href="#DejaVuSans-95"/>
      <use x="168.359375" xlink:href="#DejaVuSans-83"/>
      <use x="231.835938" xlink:href="#DejaVuSans-84"/>
     </g>
    </g>
    <g id="patch_310">
     <path d="M 346.146563 87.704812 
L 366.146563 87.704812 
L 366.146563 80.704812 
L 346.146563 80.704812 
z
" style="fill:#5eedfe;fill-opacity:0.815686;"/>
    </g>
    <g id="text_21">
     <!-- vy_MT -->
     <defs>
      <path d="M 9.8125 72.90625 
L 24.515625 72.90625 
L 43.109375 23.296875 
L 61.8125 72.90625 
L 76.515625 72.90625 
L 76.515625 0 
L 66.890625 0 
L 66.890625 64.015625 
L 48.09375 14.015625 
L 38.1875 14.015625 
L 19.390625 64.015625 
L 19.390625 0 
L 9.8125 0 
z
" id="DejaVuSans-77"/>
     </defs>
     <g transform="translate(374.146563 87.704812)scale(0.1 -0.1)">
      <use xlink:href="#DejaVuSans-118"/>
      <use x="59.179688" xlink:href="#DejaVuSans-121"/>
      <use x="118.359375" xlink:href="#DejaVuSans-95"/>
      <use x="168.359375" xlink:href="#DejaVuSans-77"/>
      <use x="254.638672" xlink:href="#DejaVuSans-84"/>
     </g>
    </g>
   </g>
  </g>
 </g>
 <defs>
  <clipPath id="pf38b7c2f87">
   <rect height="266.112" width="357.12" x="57.6" y="41.472"/>
  </clipPath>
 </defs>
</svg>
