<?xml version="1.0" encoding="utf-8" standalone="no"?>
<!DOCTYPE svg PUBLIC "-//W3C//DTD SVG 1.1//EN"
  "http://www.w3.org/Graphics/SVG/1.1/DTD/svg11.dtd">
<!-- Created with matplotlib (https://matplotlib.org/) -->
<svg height="345.6pt" version="1.1" viewBox="0 0 460.8 345.6" width="460.8pt" xmlns="http://www.w3.org/2000/svg" xmlns:xlink="http://www.w3.org/1999/xlink">
 <defs>
  <style type="text/css">
*{stroke-linecap:butt;stroke-linejoin:round;}
  </style>
 </defs>
 <g id="figure_1">
  <g id="patch_1">
   <path d="M 0 345.6 
L 460.8 345.6 
L 460.8 0 
L 0 0 
z
" style="fill:#ffffff;"/>
  </g>
  <g id="axes_1">
   <g id="patch_2">
    <path d="M 57.6 307.584 
L 414.72 307.584 
L 414.72 41.472 
L 57.6 41.472 
z
" style="fill:#ffffff;"/>
   </g>
   <g id="patch_3">
    <path clip-path="url(#pf21f9493e2)" d="M 73.832727 307.584 
L 76.828114 307.584 
L 76.828114 307.575648 
L 73.832727 307.575648 
z
" style="fill:#fe6f5e;fill-opacity:0.815686;"/>
   </g>
   <g id="patch_4">
    <path clip-path="url(#pf21f9493e2)" d="M 76.828114 307.584 
L 79.823502 307.584 
L 79.823502 307.584 
L 76.828114 307.584 
z
" style="fill:#fe6f5e;fill-opacity:0.815686;"/>
   </g>
   <g id="patch_5">
    <path clip-path="url(#pf21f9493e2)" d="M 79.823502 307.584 
L 82.818889 307.584 
L 82.818889 307.584 
L 79.823502 307.584 
z
" style="fill:#fe6f5e;fill-opacity:0.815686;"/>
   </g>
   <g id="patch_6">
    <path clip-path="url(#pf21f9493e2)" d="M 82.818889 307.584 
L 85.814276 307.584 
L 85.814276 307.575648 
L 82.818889 307.575648 
z
" style="fill:#fe6f5e;fill-opacity:0.815686;"/>
   </g>
   <g id="patch_7">
    <path clip-path="url(#pf21f9493e2)" d="M 85.814276 307.584 
L 88.809663 307.584 
L 88.809663 307.550592 
L 85.814276 307.550592 
z
" style="fill:#fe6f5e;fill-opacity:0.815686;"/>
   </g>
   <g id="patch_8">
    <path clip-path="url(#pf21f9493e2)" d="M 88.809663 307.584 
L 91.80505 307.584 
L 91.80505 307.391905 
L 88.809663 307.391905 
z
" style="fill:#fe6f5e;fill-opacity:0.815686;"/>
   </g>
   <g id="patch_9">
    <path clip-path="url(#pf21f9493e2)" d="M 91.80505 307.584 
L 94.800437 307.584 
L 94.800437 307.383553 
L 91.80505 307.383553 
z
" style="fill:#fe6f5e;fill-opacity:0.815686;"/>
   </g>
   <g id="patch_10">
    <path clip-path="url(#pf21f9493e2)" d="M 94.800437 307.584 
L 97.795824 307.584 
L 97.795824 307.375201 
L 94.800437 307.375201 
z
" style="fill:#fe6f5e;fill-opacity:0.815686;"/>
   </g>
   <g id="patch_11">
    <path clip-path="url(#pf21f9493e2)" d="M 97.795824 307.584 
L 100.791212 307.584 
L 100.791212 307.458721 
L 97.795824 307.458721 
z
" style="fill:#fe6f5e;fill-opacity:0.815686;"/>
   </g>
   <g id="patch_12">
    <path clip-path="url(#pf21f9493e2)" d="M 100.791212 307.584 
L 103.786599 307.584 
L 103.786599 307.550592 
L 100.791212 307.550592 
z
" style="fill:#fe6f5e;fill-opacity:0.815686;"/>
   </g>
   <g id="patch_13">
    <path clip-path="url(#pf21f9493e2)" d="M 103.786599 307.584 
L 106.781986 307.584 
L 106.781986 307.584 
L 103.786599 307.584 
z
" style="fill:#fe6f5e;fill-opacity:0.815686;"/>
   </g>
   <g id="patch_14">
    <path clip-path="url(#pf21f9493e2)" d="M 106.781986 307.584 
L 109.777373 307.584 
L 109.777373 307.584 
L 106.781986 307.584 
z
" style="fill:#fe6f5e;fill-opacity:0.815686;"/>
   </g>
   <g id="patch_15">
    <path clip-path="url(#pf21f9493e2)" d="M 109.777373 307.584 
L 112.77276 307.584 
L 112.77276 307.584 
L 109.777373 307.584 
z
" style="fill:#fe6f5e;fill-opacity:0.815686;"/>
   </g>
   <g id="patch_16">
    <path clip-path="url(#pf21f9493e2)" d="M 112.77276 307.584 
L 115.768147 307.584 
L 115.768147 307.584 
L 112.77276 307.584 
z
" style="fill:#fe6f5e;fill-opacity:0.815686;"/>
   </g>
   <g id="patch_17">
    <path clip-path="url(#pf21f9493e2)" d="M 115.768147 307.584 
L 118.763534 307.584 
L 118.763534 307.584 
L 115.768147 307.584 
z
" style="fill:#fe6f5e;fill-opacity:0.815686;"/>
   </g>
   <g id="patch_18">
    <path clip-path="url(#pf21f9493e2)" d="M 118.763534 307.584 
L 121.758921 307.584 
L 121.758921 307.584 
L 118.763534 307.584 
z
" style="fill:#fe6f5e;fill-opacity:0.815686;"/>
   </g>
   <g id="patch_19">
    <path clip-path="url(#pf21f9493e2)" d="M 121.758921 307.584 
L 124.754309 307.584 
L 124.754309 307.575648 
L 121.758921 307.575648 
z
" style="fill:#fe6f5e;fill-opacity:0.815686;"/>
   </g>
   <g id="patch_20">
    <path clip-path="url(#pf21f9493e2)" d="M 124.754309 307.584 
L 127.749696 307.584 
L 127.749696 307.584 
L 124.754309 307.584 
z
" style="fill:#fe6f5e;fill-opacity:0.815686;"/>
   </g>
   <g id="patch_21">
    <path clip-path="url(#pf21f9493e2)" d="M 127.749696 307.584 
L 130.745083 307.584 
L 130.745083 307.584 
L 127.749696 307.584 
z
" style="fill:#fe6f5e;fill-opacity:0.815686;"/>
   </g>
   <g id="patch_22">
    <path clip-path="url(#pf21f9493e2)" d="M 130.745083 307.584 
L 133.74047 307.584 
L 133.74047 307.584 
L 130.745083 307.584 
z
" style="fill:#fe6f5e;fill-opacity:0.815686;"/>
   </g>
   <g id="patch_23">
    <path clip-path="url(#pf21f9493e2)" d="M 133.74047 307.584 
L 136.735857 307.584 
L 136.735857 307.575648 
L 133.74047 307.575648 
z
" style="fill:#fe6f5e;fill-opacity:0.815686;"/>
   </g>
   <g id="patch_24">
    <path clip-path="url(#pf21f9493e2)" d="M 136.735857 307.584 
L 139.731244 307.584 
L 139.731244 307.584 
L 136.735857 307.584 
z
" style="fill:#fe6f5e;fill-opacity:0.815686;"/>
   </g>
   <g id="patch_25">
    <path clip-path="url(#pf21f9493e2)" d="M 139.731244 307.584 
L 142.726631 307.584 
L 142.726631 307.584 
L 139.731244 307.584 
z
" style="fill:#fe6f5e;fill-opacity:0.815686;"/>
   </g>
   <g id="patch_26">
    <path clip-path="url(#pf21f9493e2)" d="M 142.726631 307.584 
L 145.722019 307.584 
L 145.722019 307.584 
L 142.726631 307.584 
z
" style="fill:#fe6f5e;fill-opacity:0.815686;"/>
   </g>
   <g id="patch_27">
    <path clip-path="url(#pf21f9493e2)" d="M 145.722019 307.584 
L 148.717406 307.584 
L 148.717406 307.584 
L 145.722019 307.584 
z
" style="fill:#fe6f5e;fill-opacity:0.815686;"/>
   </g>
   <g id="patch_28">
    <path clip-path="url(#pf21f9493e2)" d="M 148.717406 307.584 
L 151.712793 307.584 
L 151.712793 307.584 
L 148.717406 307.584 
z
" style="fill:#fe6f5e;fill-opacity:0.815686;"/>
   </g>
   <g id="patch_29">
    <path clip-path="url(#pf21f9493e2)" d="M 151.712793 307.584 
L 154.70818 307.584 
L 154.70818 307.584 
L 151.712793 307.584 
z
" style="fill:#fe6f5e;fill-opacity:0.815686;"/>
   </g>
   <g id="patch_30">
    <path clip-path="url(#pf21f9493e2)" d="M 154.70818 307.584 
L 157.703567 307.584 
L 157.703567 307.584 
L 154.70818 307.584 
z
" style="fill:#fe6f5e;fill-opacity:0.815686;"/>
   </g>
   <g id="patch_31">
    <path clip-path="url(#pf21f9493e2)" d="M 157.703567 307.584 
L 160.698954 307.584 
L 160.698954 307.584 
L 157.703567 307.584 
z
" style="fill:#fe6f5e;fill-opacity:0.815686;"/>
   </g>
   <g id="patch_32">
    <path clip-path="url(#pf21f9493e2)" d="M 160.698954 307.584 
L 163.694341 307.584 
L 163.694341 307.584 
L 160.698954 307.584 
z
" style="fill:#fe6f5e;fill-opacity:0.815686;"/>
   </g>
   <g id="patch_33">
    <path clip-path="url(#pf21f9493e2)" d="M 163.694341 307.584 
L 166.689729 307.584 
L 166.689729 307.584 
L 163.694341 307.584 
z
" style="fill:#fe6f5e;fill-opacity:0.815686;"/>
   </g>
   <g id="patch_34">
    <path clip-path="url(#pf21f9493e2)" d="M 166.689729 307.584 
L 169.685116 307.584 
L 169.685116 307.584 
L 166.689729 307.584 
z
" style="fill:#fe6f5e;fill-opacity:0.815686;"/>
   </g>
   <g id="patch_35">
    <path clip-path="url(#pf21f9493e2)" d="M 169.685116 307.584 
L 172.680503 307.584 
L 172.680503 307.584 
L 169.685116 307.584 
z
" style="fill:#fe6f5e;fill-opacity:0.815686;"/>
   </g>
   <g id="patch_36">
    <path clip-path="url(#pf21f9493e2)" d="M 172.680503 307.584 
L 175.67589 307.584 
L 175.67589 307.517184 
L 172.680503 307.517184 
z
" style="fill:#fe6f5e;fill-opacity:0.815686;"/>
   </g>
   <g id="patch_37">
    <path clip-path="url(#pf21f9493e2)" d="M 175.67589 307.584 
L 178.671277 307.584 
L 178.671277 305.546124 
L 175.67589 305.546124 
z
" style="fill:#fe6f5e;fill-opacity:0.815686;"/>
   </g>
   <g id="patch_38">
    <path clip-path="url(#pf21f9493e2)" d="M 178.671277 307.584 
L 181.666664 307.584 
L 181.666664 304.936431 
L 178.671277 304.936431 
z
" style="fill:#fe6f5e;fill-opacity:0.815686;"/>
   </g>
   <g id="patch_39">
    <path clip-path="url(#pf21f9493e2)" d="M 181.666664 307.584 
L 184.662051 307.584 
L 184.662051 303.984308 
L 181.666664 303.984308 
z
" style="fill:#fe6f5e;fill-opacity:0.815686;"/>
   </g>
   <g id="patch_40">
    <path clip-path="url(#pf21f9493e2)" d="M 184.662051 307.584 
L 187.657439 307.584 
L 187.657439 302.121823 
L 184.662051 302.121823 
z
" style="fill:#fe6f5e;fill-opacity:0.815686;"/>
   </g>
   <g id="patch_41">
    <path clip-path="url(#pf21f9493e2)" d="M 187.657439 307.584 
L 190.652826 307.584 
L 190.652826 292.350039 
L 187.657439 292.350039 
z
" style="fill:#fe6f5e;fill-opacity:0.815686;"/>
   </g>
   <g id="patch_42">
    <path clip-path="url(#pf21f9493e2)" d="M 190.652826 307.584 
L 193.648213 307.584 
L 193.648213 281.642835 
L 190.652826 281.642835 
z
" style="fill:#fe6f5e;fill-opacity:0.815686;"/>
   </g>
   <g id="patch_43">
    <path clip-path="url(#pf21f9493e2)" d="M 193.648213 307.584 
L 196.6436 307.584 
L 196.6436 256.344771 
L 193.648213 256.344771 
z
" style="fill:#fe6f5e;fill-opacity:0.815686;"/>
   </g>
   <g id="patch_44">
    <path clip-path="url(#pf21f9493e2)" d="M 196.6436 307.584 
L 199.638987 307.584 
L 199.638987 182.471751 
L 196.6436 182.471751 
z
" style="fill:#fe6f5e;fill-opacity:0.815686;"/>
   </g>
   <g id="patch_45">
    <path clip-path="url(#pf21f9493e2)" d="M 199.638987 307.584 
L 202.634374 307.584 
L 202.634374 54.144 
L 199.638987 54.144 
z
" style="fill:#fe6f5e;fill-opacity:0.815686;"/>
   </g>
   <g id="patch_46">
    <path clip-path="url(#pf21f9493e2)" d="M 202.634374 307.584 
L 205.629761 307.584 
L 205.629761 93.523456 
L 202.634374 93.523456 
z
" style="fill:#fe6f5e;fill-opacity:0.815686;"/>
   </g>
   <g id="patch_47">
    <path clip-path="url(#pf21f9493e2)" d="M 205.629761 307.584 
L 208.625149 307.584 
L 208.625149 237.435951 
L 205.629761 237.435951 
z
" style="fill:#fe6f5e;fill-opacity:0.815686;"/>
   </g>
   <g id="patch_48">
    <path clip-path="url(#pf21f9493e2)" d="M 208.625149 307.584 
L 211.620536 307.584 
L 211.620536 292.583893 
L 208.625149 292.583893 
z
" style="fill:#fe6f5e;fill-opacity:0.815686;"/>
   </g>
   <g id="patch_49">
    <path clip-path="url(#pf21f9493e2)" d="M 211.620536 307.584 
L 214.615923 307.584 
L 214.615923 302.689756 
L 211.620536 302.689756 
z
" style="fill:#fe6f5e;fill-opacity:0.815686;"/>
   </g>
   <g id="patch_50">
    <path clip-path="url(#pf21f9493e2)" d="M 214.615923 307.584 
L 217.61131 307.584 
L 217.61131 299.490958 
L 214.615923 299.490958 
z
" style="fill:#fe6f5e;fill-opacity:0.815686;"/>
   </g>
   <g id="patch_51">
    <path clip-path="url(#pf21f9493e2)" d="M 217.61131 307.584 
L 220.606697 307.584 
L 220.606697 295.131239 
L 217.61131 295.131239 
z
" style="fill:#fe6f5e;fill-opacity:0.815686;"/>
   </g>
   <g id="patch_52">
    <path clip-path="url(#pf21f9493e2)" d="M 220.606697 307.584 
L 223.602084 307.584 
L 223.602084 301.946432 
L 220.606697 301.946432 
z
" style="fill:#fe6f5e;fill-opacity:0.815686;"/>
   </g>
   <g id="patch_53">
    <path clip-path="url(#pf21f9493e2)" d="M 223.602084 307.584 
L 226.597471 307.584 
L 226.597471 305.596235 
L 223.602084 305.596235 
z
" style="fill:#fe6f5e;fill-opacity:0.815686;"/>
   </g>
   <g id="patch_54">
    <path clip-path="url(#pf21f9493e2)" d="M 226.597471 307.584 
L 229.592858 307.584 
L 229.592858 306.748805 
L 226.597471 306.748805 
z
" style="fill:#fe6f5e;fill-opacity:0.815686;"/>
   </g>
   <g id="patch_55">
    <path clip-path="url(#pf21f9493e2)" d="M 229.592858 307.584 
L 232.588246 307.584 
L 232.588246 307.467073 
L 229.592858 307.467073 
z
" style="fill:#fe6f5e;fill-opacity:0.815686;"/>
   </g>
   <g id="patch_56">
    <path clip-path="url(#pf21f9493e2)" d="M 232.588246 307.584 
L 235.583633 307.584 
L 235.583633 307.467073 
L 232.588246 307.467073 
z
" style="fill:#fe6f5e;fill-opacity:0.815686;"/>
   </g>
   <g id="patch_57">
    <path clip-path="url(#pf21f9493e2)" d="M 235.583633 307.584 
L 238.57902 307.584 
L 238.57902 307.492129 
L 235.583633 307.492129 
z
" style="fill:#fe6f5e;fill-opacity:0.815686;"/>
   </g>
   <g id="patch_58">
    <path clip-path="url(#pf21f9493e2)" d="M 238.57902 307.584 
L 241.574407 307.584 
L 241.574407 307.458721 
L 238.57902 307.458721 
z
" style="fill:#fe6f5e;fill-opacity:0.815686;"/>
   </g>
   <g id="patch_59">
    <path clip-path="url(#pf21f9493e2)" d="M 241.574407 307.584 
L 244.569794 307.584 
L 244.569794 307.458721 
L 241.574407 307.458721 
z
" style="fill:#fe6f5e;fill-opacity:0.815686;"/>
   </g>
   <g id="patch_60">
    <path clip-path="url(#pf21f9493e2)" d="M 244.569794 307.584 
L 247.565181 307.584 
L 247.565181 307.442017 
L 244.569794 307.442017 
z
" style="fill:#fe6f5e;fill-opacity:0.815686;"/>
   </g>
   <g id="patch_61">
    <path clip-path="url(#pf21f9493e2)" d="M 247.565181 307.584 
L 250.560568 307.584 
L 250.560568 307.492129 
L 247.565181 307.492129 
z
" style="fill:#fe6f5e;fill-opacity:0.815686;"/>
   </g>
   <g id="patch_62">
    <path clip-path="url(#pf21f9493e2)" d="M 250.560568 307.584 
L 253.555956 307.584 
L 253.555956 307.533888 
L 250.560568 307.533888 
z
" style="fill:#fe6f5e;fill-opacity:0.815686;"/>
   </g>
   <g id="patch_63">
    <path clip-path="url(#pf21f9493e2)" d="M 253.555956 307.584 
L 256.551343 307.584 
L 256.551343 307.558944 
L 253.555956 307.558944 
z
" style="fill:#fe6f5e;fill-opacity:0.815686;"/>
   </g>
   <g id="patch_64">
    <path clip-path="url(#pf21f9493e2)" d="M 256.551343 307.584 
L 259.54673 307.584 
L 259.54673 307.567296 
L 256.551343 307.567296 
z
" style="fill:#fe6f5e;fill-opacity:0.815686;"/>
   </g>
   <g id="patch_65">
    <path clip-path="url(#pf21f9493e2)" d="M 259.54673 307.584 
L 262.542117 307.584 
L 262.542117 307.558944 
L 259.54673 307.558944 
z
" style="fill:#fe6f5e;fill-opacity:0.815686;"/>
   </g>
   <g id="patch_66">
    <path clip-path="url(#pf21f9493e2)" d="M 262.542117 307.584 
L 265.537504 307.584 
L 265.537504 307.54224 
L 262.542117 307.54224 
z
" style="fill:#fe6f5e;fill-opacity:0.815686;"/>
   </g>
   <g id="patch_67">
    <path clip-path="url(#pf21f9493e2)" d="M 265.537504 307.584 
L 268.532891 307.584 
L 268.532891 307.508832 
L 265.537504 307.508832 
z
" style="fill:#fe6f5e;fill-opacity:0.815686;"/>
   </g>
   <g id="patch_68">
    <path clip-path="url(#pf21f9493e2)" d="M 268.532891 307.584 
L 271.528278 307.584 
L 271.528278 307.533888 
L 268.532891 307.533888 
z
" style="fill:#fe6f5e;fill-opacity:0.815686;"/>
   </g>
   <g id="patch_69">
    <path clip-path="url(#pf21f9493e2)" d="M 271.528278 307.584 
L 274.523666 307.584 
L 274.523666 307.575648 
L 271.528278 307.575648 
z
" style="fill:#fe6f5e;fill-opacity:0.815686;"/>
   </g>
   <g id="patch_70">
    <path clip-path="url(#pf21f9493e2)" d="M 274.523666 307.584 
L 277.519053 307.584 
L 277.519053 307.533888 
L 274.523666 307.533888 
z
" style="fill:#fe6f5e;fill-opacity:0.815686;"/>
   </g>
   <g id="patch_71">
    <path clip-path="url(#pf21f9493e2)" d="M 277.519053 307.584 
L 280.51444 307.584 
L 280.51444 307.550592 
L 277.519053 307.550592 
z
" style="fill:#fe6f5e;fill-opacity:0.815686;"/>
   </g>
   <g id="patch_72">
    <path clip-path="url(#pf21f9493e2)" d="M 280.51444 307.584 
L 283.509827 307.584 
L 283.509827 307.575648 
L 280.51444 307.575648 
z
" style="fill:#fe6f5e;fill-opacity:0.815686;"/>
   </g>
   <g id="patch_73">
    <path clip-path="url(#pf21f9493e2)" d="M 283.509827 307.584 
L 286.505214 307.584 
L 286.505214 307.54224 
L 283.509827 307.54224 
z
" style="fill:#fe6f5e;fill-opacity:0.815686;"/>
   </g>
   <g id="patch_74">
    <path clip-path="url(#pf21f9493e2)" d="M 286.505214 307.584 
L 289.500601 307.584 
L 289.500601 307.54224 
L 286.505214 307.54224 
z
" style="fill:#fe6f5e;fill-opacity:0.815686;"/>
   </g>
   <g id="patch_75">
    <path clip-path="url(#pf21f9493e2)" d="M 289.500601 307.584 
L 292.495988 307.584 
L 292.495988 307.54224 
L 289.500601 307.54224 
z
" style="fill:#fe6f5e;fill-opacity:0.815686;"/>
   </g>
   <g id="patch_76">
    <path clip-path="url(#pf21f9493e2)" d="M 292.495988 307.584 
L 295.491376 307.584 
L 295.491376 307.525536 
L 292.495988 307.525536 
z
" style="fill:#fe6f5e;fill-opacity:0.815686;"/>
   </g>
   <g id="patch_77">
    <path clip-path="url(#pf21f9493e2)" d="M 295.491376 307.584 
L 298.486763 307.584 
L 298.486763 307.584 
L 295.491376 307.584 
z
" style="fill:#fe6f5e;fill-opacity:0.815686;"/>
   </g>
   <g id="patch_78">
    <path clip-path="url(#pf21f9493e2)" d="M 298.486763 307.584 
L 301.48215 307.584 
L 301.48215 307.533888 
L 298.486763 307.533888 
z
" style="fill:#fe6f5e;fill-opacity:0.815686;"/>
   </g>
   <g id="patch_79">
    <path clip-path="url(#pf21f9493e2)" d="M 301.48215 307.584 
L 304.477537 307.584 
L 304.477537 307.550592 
L 301.48215 307.550592 
z
" style="fill:#fe6f5e;fill-opacity:0.815686;"/>
   </g>
   <g id="patch_80">
    <path clip-path="url(#pf21f9493e2)" d="M 304.477537 307.584 
L 307.472924 307.584 
L 307.472924 307.550592 
L 304.477537 307.550592 
z
" style="fill:#fe6f5e;fill-opacity:0.815686;"/>
   </g>
   <g id="patch_81">
    <path clip-path="url(#pf21f9493e2)" d="M 307.472924 307.584 
L 310.468311 307.584 
L 310.468311 307.508832 
L 307.472924 307.508832 
z
" style="fill:#fe6f5e;fill-opacity:0.815686;"/>
   </g>
   <g id="patch_82">
    <path clip-path="url(#pf21f9493e2)" d="M 310.468311 307.584 
L 313.463698 307.584 
L 313.463698 307.575648 
L 310.468311 307.575648 
z
" style="fill:#fe6f5e;fill-opacity:0.815686;"/>
   </g>
   <g id="patch_83">
    <path clip-path="url(#pf21f9493e2)" d="M 313.463698 307.584 
L 316.459085 307.584 
L 316.459085 307.54224 
L 313.463698 307.54224 
z
" style="fill:#fe6f5e;fill-opacity:0.815686;"/>
   </g>
   <g id="patch_84">
    <path clip-path="url(#pf21f9493e2)" d="M 316.459085 307.584 
L 319.454473 307.584 
L 319.454473 307.567296 
L 316.459085 307.567296 
z
" style="fill:#fe6f5e;fill-opacity:0.815686;"/>
   </g>
   <g id="patch_85">
    <path clip-path="url(#pf21f9493e2)" d="M 319.454473 307.584 
L 322.44986 307.584 
L 322.44986 307.525536 
L 319.454473 307.525536 
z
" style="fill:#fe6f5e;fill-opacity:0.815686;"/>
   </g>
   <g id="patch_86">
    <path clip-path="url(#pf21f9493e2)" d="M 322.44986 307.584 
L 325.445247 307.584 
L 325.445247 307.54224 
L 322.44986 307.54224 
z
" style="fill:#fe6f5e;fill-opacity:0.815686;"/>
   </g>
   <g id="patch_87">
    <path clip-path="url(#pf21f9493e2)" d="M 325.445247 307.584 
L 328.440634 307.584 
L 328.440634 307.558944 
L 325.445247 307.558944 
z
" style="fill:#fe6f5e;fill-opacity:0.815686;"/>
   </g>
   <g id="patch_88">
    <path clip-path="url(#pf21f9493e2)" d="M 328.440634 307.584 
L 331.436021 307.584 
L 331.436021 307.54224 
L 328.440634 307.54224 
z
" style="fill:#fe6f5e;fill-opacity:0.815686;"/>
   </g>
   <g id="patch_89">
    <path clip-path="url(#pf21f9493e2)" d="M 331.436021 307.584 
L 334.431408 307.584 
L 334.431408 307.558944 
L 331.436021 307.558944 
z
" style="fill:#fe6f5e;fill-opacity:0.815686;"/>
   </g>
   <g id="patch_90">
    <path clip-path="url(#pf21f9493e2)" d="M 334.431408 307.584 
L 337.426795 307.584 
L 337.426795 307.558944 
L 334.431408 307.558944 
z
" style="fill:#fe6f5e;fill-opacity:0.815686;"/>
   </g>
   <g id="patch_91">
    <path clip-path="url(#pf21f9493e2)" d="M 337.426795 307.584 
L 340.422183 307.584 
L 340.422183 307.567296 
L 337.426795 307.567296 
z
" style="fill:#fe6f5e;fill-opacity:0.815686;"/>
   </g>
   <g id="patch_92">
    <path clip-path="url(#pf21f9493e2)" d="M 340.422183 307.584 
L 343.41757 307.584 
L 343.41757 307.567296 
L 340.422183 307.567296 
z
" style="fill:#fe6f5e;fill-opacity:0.815686;"/>
   </g>
   <g id="patch_93">
    <path clip-path="url(#pf21f9493e2)" d="M 343.41757 307.584 
L 346.412957 307.584 
L 346.412957 307.558944 
L 343.41757 307.558944 
z
" style="fill:#fe6f5e;fill-opacity:0.815686;"/>
   </g>
   <g id="patch_94">
    <path clip-path="url(#pf21f9493e2)" d="M 346.412957 307.584 
L 349.408344 307.584 
L 349.408344 307.575648 
L 346.412957 307.575648 
z
" style="fill:#fe6f5e;fill-opacity:0.815686;"/>
   </g>
   <g id="patch_95">
    <path clip-path="url(#pf21f9493e2)" d="M 349.408344 307.584 
L 352.403731 307.584 
L 352.403731 307.567296 
L 349.408344 307.567296 
z
" style="fill:#fe6f5e;fill-opacity:0.815686;"/>
   </g>
   <g id="patch_96">
    <path clip-path="url(#pf21f9493e2)" d="M 352.403731 307.584 
L 355.399118 307.584 
L 355.399118 307.567296 
L 352.403731 307.567296 
z
" style="fill:#fe6f5e;fill-opacity:0.815686;"/>
   </g>
   <g id="patch_97">
    <path clip-path="url(#pf21f9493e2)" d="M 355.399118 307.584 
L 358.394505 307.584 
L 358.394505 307.525536 
L 355.399118 307.525536 
z
" style="fill:#fe6f5e;fill-opacity:0.815686;"/>
   </g>
   <g id="patch_98">
    <path clip-path="url(#pf21f9493e2)" d="M 358.394505 307.584 
L 361.389893 307.584 
L 361.389893 307.550592 
L 358.394505 307.550592 
z
" style="fill:#fe6f5e;fill-opacity:0.815686;"/>
   </g>
   <g id="patch_99">
    <path clip-path="url(#pf21f9493e2)" d="M 361.389893 307.584 
L 364.38528 307.584 
L 364.38528 307.567296 
L 361.389893 307.567296 
z
" style="fill:#fe6f5e;fill-opacity:0.815686;"/>
   </g>
   <g id="patch_100">
    <path clip-path="url(#pf21f9493e2)" d="M 364.38528 307.584 
L 367.380667 307.584 
L 367.380667 307.575648 
L 364.38528 307.575648 
z
" style="fill:#fe6f5e;fill-opacity:0.815686;"/>
   </g>
   <g id="patch_101">
    <path clip-path="url(#pf21f9493e2)" d="M 367.380667 307.584 
L 370.376054 307.584 
L 370.376054 307.584 
L 367.380667 307.584 
z
" style="fill:#fe6f5e;fill-opacity:0.815686;"/>
   </g>
   <g id="patch_102">
    <path clip-path="url(#pf21f9493e2)" d="M 370.376054 307.584 
L 373.371441 307.584 
L 373.371441 307.567296 
L 370.376054 307.567296 
z
" style="fill:#fe6f5e;fill-opacity:0.815686;"/>
   </g>
   <g id="patch_103">
    <path clip-path="url(#pf21f9493e2)" d="M 84.789924 307.584 
L 86.791962 307.584 
L 86.791962 307.567296 
L 84.789924 307.567296 
z
" style="fill:#5e9dfe;fill-opacity:0.815686;"/>
   </g>
   <g id="patch_104">
    <path clip-path="url(#pf21f9493e2)" d="M 86.791962 307.584 
L 88.794 307.584 
L 88.794 307.584 
L 86.791962 307.584 
z
" style="fill:#5e9dfe;fill-opacity:0.815686;"/>
   </g>
   <g id="patch_105">
    <path clip-path="url(#pf21f9493e2)" d="M 88.794 307.584 
L 90.796039 307.584 
L 90.796039 307.475425 
L 88.794 307.475425 
z
" style="fill:#5e9dfe;fill-opacity:0.815686;"/>
   </g>
   <g id="patch_106">
    <path clip-path="url(#pf21f9493e2)" d="M 90.796039 307.584 
L 92.798077 307.584 
L 92.798077 307.383553 
L 90.796039 307.383553 
z
" style="fill:#5e9dfe;fill-opacity:0.815686;"/>
   </g>
   <g id="patch_107">
    <path clip-path="url(#pf21f9493e2)" d="M 92.798077 307.584 
L 94.800115 307.584 
L 94.800115 307.442017 
L 92.798077 307.442017 
z
" style="fill:#5e9dfe;fill-opacity:0.815686;"/>
   </g>
   <g id="patch_108">
    <path clip-path="url(#pf21f9493e2)" d="M 94.800115 307.584 
L 96.802153 307.584 
L 96.802153 307.450369 
L 94.800115 307.450369 
z
" style="fill:#5e9dfe;fill-opacity:0.815686;"/>
   </g>
   <g id="patch_109">
    <path clip-path="url(#pf21f9493e2)" d="M 96.802153 307.584 
L 98.804191 307.584 
L 98.804191 307.475425 
L 96.802153 307.475425 
z
" style="fill:#5e9dfe;fill-opacity:0.815686;"/>
   </g>
   <g id="patch_110">
    <path clip-path="url(#pf21f9493e2)" d="M 98.804191 307.584 
L 100.806229 307.584 
L 100.806229 307.492129 
L 98.804191 307.492129 
z
" style="fill:#5e9dfe;fill-opacity:0.815686;"/>
   </g>
   <g id="patch_111">
    <path clip-path="url(#pf21f9493e2)" d="M 100.806229 307.584 
L 102.808267 307.584 
L 102.808267 307.575648 
L 100.806229 307.575648 
z
" style="fill:#5e9dfe;fill-opacity:0.815686;"/>
   </g>
   <g id="patch_112">
    <path clip-path="url(#pf21f9493e2)" d="M 102.808267 307.584 
L 104.810306 307.584 
L 104.810306 307.584 
L 102.808267 307.584 
z
" style="fill:#5e9dfe;fill-opacity:0.815686;"/>
   </g>
   <g id="patch_113">
    <path clip-path="url(#pf21f9493e2)" d="M 104.810306 307.584 
L 106.812344 307.584 
L 106.812344 307.584 
L 104.810306 307.584 
z
" style="fill:#5e9dfe;fill-opacity:0.815686;"/>
   </g>
   <g id="patch_114">
    <path clip-path="url(#pf21f9493e2)" d="M 106.812344 307.584 
L 108.814382 307.584 
L 108.814382 307.584 
L 106.812344 307.584 
z
" style="fill:#5e9dfe;fill-opacity:0.815686;"/>
   </g>
   <g id="patch_115">
    <path clip-path="url(#pf21f9493e2)" d="M 108.814382 307.584 
L 110.81642 307.584 
L 110.81642 307.584 
L 108.814382 307.584 
z
" style="fill:#5e9dfe;fill-opacity:0.815686;"/>
   </g>
   <g id="patch_116">
    <path clip-path="url(#pf21f9493e2)" d="M 110.81642 307.584 
L 112.818458 307.584 
L 112.818458 307.584 
L 110.81642 307.584 
z
" style="fill:#5e9dfe;fill-opacity:0.815686;"/>
   </g>
   <g id="patch_117">
    <path clip-path="url(#pf21f9493e2)" d="M 112.818458 307.584 
L 114.820496 307.584 
L 114.820496 307.584 
L 112.818458 307.584 
z
" style="fill:#5e9dfe;fill-opacity:0.815686;"/>
   </g>
   <g id="patch_118">
    <path clip-path="url(#pf21f9493e2)" d="M 114.820496 307.584 
L 116.822534 307.584 
L 116.822534 307.584 
L 114.820496 307.584 
z
" style="fill:#5e9dfe;fill-opacity:0.815686;"/>
   </g>
   <g id="patch_119">
    <path clip-path="url(#pf21f9493e2)" d="M 116.822534 307.584 
L 118.824573 307.584 
L 118.824573 307.584 
L 116.822534 307.584 
z
" style="fill:#5e9dfe;fill-opacity:0.815686;"/>
   </g>
   <g id="patch_120">
    <path clip-path="url(#pf21f9493e2)" d="M 118.824573 307.584 
L 120.826611 307.584 
L 120.826611 307.584 
L 118.824573 307.584 
z
" style="fill:#5e9dfe;fill-opacity:0.815686;"/>
   </g>
   <g id="patch_121">
    <path clip-path="url(#pf21f9493e2)" d="M 120.826611 307.584 
L 122.828649 307.584 
L 122.828649 307.584 
L 120.826611 307.584 
z
" style="fill:#5e9dfe;fill-opacity:0.815686;"/>
   </g>
   <g id="patch_122">
    <path clip-path="url(#pf21f9493e2)" d="M 122.828649 307.584 
L 124.830687 307.584 
L 124.830687 307.584 
L 122.828649 307.584 
z
" style="fill:#5e9dfe;fill-opacity:0.815686;"/>
   </g>
   <g id="patch_123">
    <path clip-path="url(#pf21f9493e2)" d="M 124.830687 307.584 
L 126.832725 307.584 
L 126.832725 307.584 
L 124.830687 307.584 
z
" style="fill:#5e9dfe;fill-opacity:0.815686;"/>
   </g>
   <g id="patch_124">
    <path clip-path="url(#pf21f9493e2)" d="M 126.832725 307.584 
L 128.834763 307.584 
L 128.834763 307.584 
L 126.832725 307.584 
z
" style="fill:#5e9dfe;fill-opacity:0.815686;"/>
   </g>
   <g id="patch_125">
    <path clip-path="url(#pf21f9493e2)" d="M 128.834763 307.584 
L 130.836802 307.584 
L 130.836802 307.584 
L 128.834763 307.584 
z
" style="fill:#5e9dfe;fill-opacity:0.815686;"/>
   </g>
   <g id="patch_126">
    <path clip-path="url(#pf21f9493e2)" d="M 130.836802 307.584 
L 132.83884 307.584 
L 132.83884 307.584 
L 130.836802 307.584 
z
" style="fill:#5e9dfe;fill-opacity:0.815686;"/>
   </g>
   <g id="patch_127">
    <path clip-path="url(#pf21f9493e2)" d="M 132.83884 307.584 
L 134.840878 307.584 
L 134.840878 307.584 
L 132.83884 307.584 
z
" style="fill:#5e9dfe;fill-opacity:0.815686;"/>
   </g>
   <g id="patch_128">
    <path clip-path="url(#pf21f9493e2)" d="M 134.840878 307.584 
L 136.842916 307.584 
L 136.842916 307.584 
L 134.840878 307.584 
z
" style="fill:#5e9dfe;fill-opacity:0.815686;"/>
   </g>
   <g id="patch_129">
    <path clip-path="url(#pf21f9493e2)" d="M 136.842916 307.584 
L 138.844954 307.584 
L 138.844954 307.584 
L 136.842916 307.584 
z
" style="fill:#5e9dfe;fill-opacity:0.815686;"/>
   </g>
   <g id="patch_130">
    <path clip-path="url(#pf21f9493e2)" d="M 138.844954 307.584 
L 140.846992 307.584 
L 140.846992 307.584 
L 138.844954 307.584 
z
" style="fill:#5e9dfe;fill-opacity:0.815686;"/>
   </g>
   <g id="patch_131">
    <path clip-path="url(#pf21f9493e2)" d="M 140.846992 307.584 
L 142.84903 307.584 
L 142.84903 307.584 
L 140.846992 307.584 
z
" style="fill:#5e9dfe;fill-opacity:0.815686;"/>
   </g>
   <g id="patch_132">
    <path clip-path="url(#pf21f9493e2)" d="M 142.84903 307.584 
L 144.851069 307.584 
L 144.851069 307.584 
L 142.84903 307.584 
z
" style="fill:#5e9dfe;fill-opacity:0.815686;"/>
   </g>
   <g id="patch_133">
    <path clip-path="url(#pf21f9493e2)" d="M 144.851069 307.584 
L 146.853107 307.584 
L 146.853107 307.584 
L 144.851069 307.584 
z
" style="fill:#5e9dfe;fill-opacity:0.815686;"/>
   </g>
   <g id="patch_134">
    <path clip-path="url(#pf21f9493e2)" d="M 146.853107 307.584 
L 148.855145 307.584 
L 148.855145 307.584 
L 146.853107 307.584 
z
" style="fill:#5e9dfe;fill-opacity:0.815686;"/>
   </g>
   <g id="patch_135">
    <path clip-path="url(#pf21f9493e2)" d="M 148.855145 307.584 
L 150.857183 307.584 
L 150.857183 307.584 
L 148.855145 307.584 
z
" style="fill:#5e9dfe;fill-opacity:0.815686;"/>
   </g>
   <g id="patch_136">
    <path clip-path="url(#pf21f9493e2)" d="M 150.857183 307.584 
L 152.859221 307.584 
L 152.859221 307.584 
L 150.857183 307.584 
z
" style="fill:#5e9dfe;fill-opacity:0.815686;"/>
   </g>
   <g id="patch_137">
    <path clip-path="url(#pf21f9493e2)" d="M 152.859221 307.584 
L 154.861259 307.584 
L 154.861259 307.584 
L 152.859221 307.584 
z
" style="fill:#5e9dfe;fill-opacity:0.815686;"/>
   </g>
   <g id="patch_138">
    <path clip-path="url(#pf21f9493e2)" d="M 154.861259 307.584 
L 156.863297 307.584 
L 156.863297 307.584 
L 154.861259 307.584 
z
" style="fill:#5e9dfe;fill-opacity:0.815686;"/>
   </g>
   <g id="patch_139">
    <path clip-path="url(#pf21f9493e2)" d="M 156.863297 307.584 
L 158.865336 307.584 
L 158.865336 307.584 
L 156.863297 307.584 
z
" style="fill:#5e9dfe;fill-opacity:0.815686;"/>
   </g>
   <g id="patch_140">
    <path clip-path="url(#pf21f9493e2)" d="M 158.865336 307.584 
L 160.867374 307.584 
L 160.867374 307.584 
L 158.865336 307.584 
z
" style="fill:#5e9dfe;fill-opacity:0.815686;"/>
   </g>
   <g id="patch_141">
    <path clip-path="url(#pf21f9493e2)" d="M 160.867374 307.584 
L 162.869412 307.584 
L 162.869412 307.584 
L 160.867374 307.584 
z
" style="fill:#5e9dfe;fill-opacity:0.815686;"/>
   </g>
   <g id="patch_142">
    <path clip-path="url(#pf21f9493e2)" d="M 162.869412 307.584 
L 164.87145 307.584 
L 164.87145 307.584 
L 162.869412 307.584 
z
" style="fill:#5e9dfe;fill-opacity:0.815686;"/>
   </g>
   <g id="patch_143">
    <path clip-path="url(#pf21f9493e2)" d="M 164.87145 307.584 
L 166.873488 307.584 
L 166.873488 307.584 
L 164.87145 307.584 
z
" style="fill:#5e9dfe;fill-opacity:0.815686;"/>
   </g>
   <g id="patch_144">
    <path clip-path="url(#pf21f9493e2)" d="M 166.873488 307.584 
L 168.875526 307.584 
L 168.875526 307.584 
L 166.873488 307.584 
z
" style="fill:#5e9dfe;fill-opacity:0.815686;"/>
   </g>
   <g id="patch_145">
    <path clip-path="url(#pf21f9493e2)" d="M 168.875526 307.584 
L 170.877564 307.584 
L 170.877564 307.584 
L 168.875526 307.584 
z
" style="fill:#5e9dfe;fill-opacity:0.815686;"/>
   </g>
   <g id="patch_146">
    <path clip-path="url(#pf21f9493e2)" d="M 170.877564 307.584 
L 172.879603 307.584 
L 172.879603 307.584 
L 170.877564 307.584 
z
" style="fill:#5e9dfe;fill-opacity:0.815686;"/>
   </g>
   <g id="patch_147">
    <path clip-path="url(#pf21f9493e2)" d="M 172.879603 307.584 
L 174.881641 307.584 
L 174.881641 307.575648 
L 172.879603 307.575648 
z
" style="fill:#5e9dfe;fill-opacity:0.815686;"/>
   </g>
   <g id="patch_148">
    <path clip-path="url(#pf21f9493e2)" d="M 174.881641 307.584 
L 176.883679 307.584 
L 176.883679 307.391905 
L 174.881641 307.391905 
z
" style="fill:#5e9dfe;fill-opacity:0.815686;"/>
   </g>
   <g id="patch_149">
    <path clip-path="url(#pf21f9493e2)" d="M 176.883679 307.584 
L 178.885717 307.584 
L 178.885717 306.665285 
L 176.883679 306.665285 
z
" style="fill:#5e9dfe;fill-opacity:0.815686;"/>
   </g>
   <g id="patch_150">
    <path clip-path="url(#pf21f9493e2)" d="M 178.885717 307.584 
L 180.887755 307.584 
L 180.887755 306.105704 
L 178.885717 306.105704 
z
" style="fill:#5e9dfe;fill-opacity:0.815686;"/>
   </g>
   <g id="patch_151">
    <path clip-path="url(#pf21f9493e2)" d="M 180.887755 307.584 
L 182.889793 307.584 
L 182.889793 305.220397 
L 180.887755 305.220397 
z
" style="fill:#5e9dfe;fill-opacity:0.815686;"/>
   </g>
   <g id="patch_152">
    <path clip-path="url(#pf21f9493e2)" d="M 182.889793 307.584 
L 184.891831 307.584 
L 184.891831 305.028303 
L 182.889793 305.028303 
z
" style="fill:#5e9dfe;fill-opacity:0.815686;"/>
   </g>
   <g id="patch_153">
    <path clip-path="url(#pf21f9493e2)" d="M 184.891831 307.584 
L 186.89387 307.584 
L 186.89387 304.677521 
L 184.891831 304.677521 
z
" style="fill:#5e9dfe;fill-opacity:0.815686;"/>
   </g>
   <g id="patch_154">
    <path clip-path="url(#pf21f9493e2)" d="M 186.89387 307.584 
L 188.895908 307.584 
L 188.895908 302.731516 
L 186.89387 302.731516 
z
" style="fill:#5e9dfe;fill-opacity:0.815686;"/>
   </g>
   <g id="patch_155">
    <path clip-path="url(#pf21f9493e2)" d="M 188.895908 307.584 
L 190.897946 307.584 
L 190.897946 298.221461 
L 188.895908 298.221461 
z
" style="fill:#5e9dfe;fill-opacity:0.815686;"/>
   </g>
   <g id="patch_156">
    <path clip-path="url(#pf21f9493e2)" d="M 190.897946 307.584 
L 192.899984 307.584 
L 192.899984 291.297693 
L 190.897946 291.297693 
z
" style="fill:#5e9dfe;fill-opacity:0.815686;"/>
   </g>
   <g id="patch_157">
    <path clip-path="url(#pf21f9493e2)" d="M 192.899984 307.584 
L 194.902022 307.584 
L 194.902022 282.035377 
L 192.899984 282.035377 
z
" style="fill:#5e9dfe;fill-opacity:0.815686;"/>
   </g>
   <g id="patch_158">
    <path clip-path="url(#pf21f9493e2)" d="M 194.902022 307.584 
L 196.90406 307.584 
L 196.90406 267.770242 
L 194.902022 267.770242 
z
" style="fill:#5e9dfe;fill-opacity:0.815686;"/>
   </g>
   <g id="patch_159">
    <path clip-path="url(#pf21f9493e2)" d="M 196.90406 307.584 
L 198.906098 307.584 
L 198.906098 231.639696 
L 196.90406 231.639696 
z
" style="fill:#5e9dfe;fill-opacity:0.815686;"/>
   </g>
   <g id="patch_160">
    <path clip-path="url(#pf21f9493e2)" d="M 198.906098 307.584 
L 200.908137 307.584 
L 200.908137 165.191561 
L 198.906098 165.191561 
z
" style="fill:#5e9dfe;fill-opacity:0.815686;"/>
   </g>
   <g id="patch_161">
    <path clip-path="url(#pf21f9493e2)" d="M 200.908137 307.584 
L 202.910175 307.584 
L 202.910175 111.872696 
L 200.908137 111.872696 
z
" style="fill:#5e9dfe;fill-opacity:0.815686;"/>
   </g>
   <g id="patch_162">
    <path clip-path="url(#pf21f9493e2)" d="M 202.910175 307.584 
L 204.912213 307.584 
L 204.912213 154.342375 
L 202.910175 154.342375 
z
" style="fill:#5e9dfe;fill-opacity:0.815686;"/>
   </g>
   <g id="patch_163">
    <path clip-path="url(#pf21f9493e2)" d="M 204.912213 307.584 
L 206.914251 307.584 
L 206.914251 234.896957 
L 204.912213 234.896957 
z
" style="fill:#5e9dfe;fill-opacity:0.815686;"/>
   </g>
   <g id="patch_164">
    <path clip-path="url(#pf21f9493e2)" d="M 206.914251 307.584 
L 208.916289 307.584 
L 208.916289 281.801522 
L 206.914251 281.801522 
z
" style="fill:#5e9dfe;fill-opacity:0.815686;"/>
   </g>
   <g id="patch_165">
    <path clip-path="url(#pf21f9493e2)" d="M 208.916289 307.584 
L 210.918327 307.584 
L 210.918327 299.023249 
L 208.916289 299.023249 
z
" style="fill:#5e9dfe;fill-opacity:0.815686;"/>
   </g>
   <g id="patch_166">
    <path clip-path="url(#pf21f9493e2)" d="M 210.918327 307.584 
L 212.920366 307.584 
L 212.920366 304.051124 
L 210.918327 304.051124 
z
" style="fill:#5e9dfe;fill-opacity:0.815686;"/>
   </g>
   <g id="patch_167">
    <path clip-path="url(#pf21f9493e2)" d="M 212.920366 307.584 
L 214.922404 307.584 
L 214.922404 304.861263 
L 212.920366 304.861263 
z
" style="fill:#5e9dfe;fill-opacity:0.815686;"/>
   </g>
   <g id="patch_168">
    <path clip-path="url(#pf21f9493e2)" d="M 214.922404 307.584 
L 216.924442 307.584 
L 216.924442 302.915259 
L 214.922404 302.915259 
z
" style="fill:#5e9dfe;fill-opacity:0.815686;"/>
   </g>
   <g id="patch_169">
    <path clip-path="url(#pf21f9493e2)" d="M 216.924442 307.584 
L 218.92648 307.584 
L 218.92648 298.964785 
L 216.924442 298.964785 
z
" style="fill:#5e9dfe;fill-opacity:0.815686;"/>
   </g>
   <g id="patch_170">
    <path clip-path="url(#pf21f9493e2)" d="M 218.92648 307.584 
L 220.928518 307.584 
L 220.928518 299.282159 
L 218.92648 299.282159 
z
" style="fill:#5e9dfe;fill-opacity:0.815686;"/>
   </g>
   <g id="patch_171">
    <path clip-path="url(#pf21f9493e2)" d="M 220.928518 307.584 
L 222.930556 307.584 
L 222.930556 303.115705 
L 220.928518 303.115705 
z
" style="fill:#5e9dfe;fill-opacity:0.815686;"/>
   </g>
   <g id="patch_172">
    <path clip-path="url(#pf21f9493e2)" d="M 222.930556 307.584 
L 224.932594 307.584 
L 224.932594 305.679755 
L 222.930556 305.679755 
z
" style="fill:#5e9dfe;fill-opacity:0.815686;"/>
   </g>
   <g id="patch_173">
    <path clip-path="url(#pf21f9493e2)" d="M 224.932594 307.584 
L 226.934633 307.584 
L 226.934633 306.080649 
L 224.932594 306.080649 
z
" style="fill:#5e9dfe;fill-opacity:0.815686;"/>
   </g>
   <g id="patch_174">
    <path clip-path="url(#pf21f9493e2)" d="M 226.934633 307.584 
L 228.936671 307.584 
L 228.936671 306.698693 
L 226.934633 306.698693 
z
" style="fill:#5e9dfe;fill-opacity:0.815686;"/>
   </g>
   <g id="patch_175">
    <path clip-path="url(#pf21f9493e2)" d="M 228.936671 307.584 
L 230.938709 307.584 
L 230.938709 307.166402 
L 228.936671 307.166402 
z
" style="fill:#5e9dfe;fill-opacity:0.815686;"/>
   </g>
   <g id="patch_176">
    <path clip-path="url(#pf21f9493e2)" d="M 230.938709 307.584 
L 232.940747 307.584 
L 232.940747 307.508832 
L 230.938709 307.508832 
z
" style="fill:#5e9dfe;fill-opacity:0.815686;"/>
   </g>
   <g id="patch_177">
    <path clip-path="url(#pf21f9493e2)" d="M 232.940747 307.584 
L 234.942785 307.584 
L 234.942785 307.550592 
L 232.940747 307.550592 
z
" style="fill:#5e9dfe;fill-opacity:0.815686;"/>
   </g>
   <g id="patch_178">
    <path clip-path="url(#pf21f9493e2)" d="M 234.942785 307.584 
L 236.944823 307.584 
L 236.944823 307.525536 
L 234.942785 307.525536 
z
" style="fill:#5e9dfe;fill-opacity:0.815686;"/>
   </g>
   <g id="patch_179">
    <path clip-path="url(#pf21f9493e2)" d="M 236.944823 307.584 
L 238.946861 307.584 
L 238.946861 307.54224 
L 236.944823 307.54224 
z
" style="fill:#5e9dfe;fill-opacity:0.815686;"/>
   </g>
   <g id="patch_180">
    <path clip-path="url(#pf21f9493e2)" d="M 238.946861 307.584 
L 240.9489 307.584 
L 240.9489 307.54224 
L 238.946861 307.54224 
z
" style="fill:#5e9dfe;fill-opacity:0.815686;"/>
   </g>
   <g id="patch_181">
    <path clip-path="url(#pf21f9493e2)" d="M 240.9489 307.584 
L 242.950938 307.584 
L 242.950938 307.50048 
L 240.9489 307.50048 
z
" style="fill:#5e9dfe;fill-opacity:0.815686;"/>
   </g>
   <g id="patch_182">
    <path clip-path="url(#pf21f9493e2)" d="M 242.950938 307.584 
L 244.952976 307.584 
L 244.952976 307.508832 
L 242.950938 307.508832 
z
" style="fill:#5e9dfe;fill-opacity:0.815686;"/>
   </g>
   <g id="patch_183">
    <path clip-path="url(#pf21f9493e2)" d="M 244.952976 307.584 
L 246.955014 307.584 
L 246.955014 307.475425 
L 244.952976 307.475425 
z
" style="fill:#5e9dfe;fill-opacity:0.815686;"/>
   </g>
   <g id="patch_184">
    <path clip-path="url(#pf21f9493e2)" d="M 246.955014 307.584 
L 248.957052 307.584 
L 248.957052 307.533888 
L 246.955014 307.533888 
z
" style="fill:#5e9dfe;fill-opacity:0.815686;"/>
   </g>
   <g id="patch_185">
    <path clip-path="url(#pf21f9493e2)" d="M 248.957052 307.584 
L 250.95909 307.584 
L 250.95909 307.584 
L 248.957052 307.584 
z
" style="fill:#5e9dfe;fill-opacity:0.815686;"/>
   </g>
   <g id="patch_186">
    <path clip-path="url(#pf21f9493e2)" d="M 250.95909 307.584 
L 252.961128 307.584 
L 252.961128 307.584 
L 250.95909 307.584 
z
" style="fill:#5e9dfe;fill-opacity:0.815686;"/>
   </g>
   <g id="patch_187">
    <path clip-path="url(#pf21f9493e2)" d="M 252.961128 307.584 
L 254.963167 307.584 
L 254.963167 307.584 
L 252.961128 307.584 
z
" style="fill:#5e9dfe;fill-opacity:0.815686;"/>
   </g>
   <g id="patch_188">
    <path clip-path="url(#pf21f9493e2)" d="M 254.963167 307.584 
L 256.965205 307.584 
L 256.965205 307.584 
L 254.963167 307.584 
z
" style="fill:#5e9dfe;fill-opacity:0.815686;"/>
   </g>
   <g id="patch_189">
    <path clip-path="url(#pf21f9493e2)" d="M 256.965205 307.584 
L 258.967243 307.584 
L 258.967243 307.584 
L 256.965205 307.584 
z
" style="fill:#5e9dfe;fill-opacity:0.815686;"/>
   </g>
   <g id="patch_190">
    <path clip-path="url(#pf21f9493e2)" d="M 258.967243 307.584 
L 260.969281 307.584 
L 260.969281 307.584 
L 258.967243 307.584 
z
" style="fill:#5e9dfe;fill-opacity:0.815686;"/>
   </g>
   <g id="patch_191">
    <path clip-path="url(#pf21f9493e2)" d="M 260.969281 307.584 
L 262.971319 307.584 
L 262.971319 307.584 
L 260.969281 307.584 
z
" style="fill:#5e9dfe;fill-opacity:0.815686;"/>
   </g>
   <g id="patch_192">
    <path clip-path="url(#pf21f9493e2)" d="M 262.971319 307.584 
L 264.973357 307.584 
L 264.973357 307.584 
L 262.971319 307.584 
z
" style="fill:#5e9dfe;fill-opacity:0.815686;"/>
   </g>
   <g id="patch_193">
    <path clip-path="url(#pf21f9493e2)" d="M 264.973357 307.584 
L 266.975395 307.584 
L 266.975395 307.584 
L 264.973357 307.584 
z
" style="fill:#5e9dfe;fill-opacity:0.815686;"/>
   </g>
   <g id="patch_194">
    <path clip-path="url(#pf21f9493e2)" d="M 266.975395 307.584 
L 268.977434 307.584 
L 268.977434 307.584 
L 266.975395 307.584 
z
" style="fill:#5e9dfe;fill-opacity:0.815686;"/>
   </g>
   <g id="patch_195">
    <path clip-path="url(#pf21f9493e2)" d="M 268.977434 307.584 
L 270.979472 307.584 
L 270.979472 307.584 
L 268.977434 307.584 
z
" style="fill:#5e9dfe;fill-opacity:0.815686;"/>
   </g>
   <g id="patch_196">
    <path clip-path="url(#pf21f9493e2)" d="M 270.979472 307.584 
L 272.98151 307.584 
L 272.98151 307.567296 
L 270.979472 307.567296 
z
" style="fill:#5e9dfe;fill-opacity:0.815686;"/>
   </g>
   <g id="patch_197">
    <path clip-path="url(#pf21f9493e2)" d="M 272.98151 307.584 
L 274.983548 307.584 
L 274.983548 307.584 
L 272.98151 307.584 
z
" style="fill:#5e9dfe;fill-opacity:0.815686;"/>
   </g>
   <g id="patch_198">
    <path clip-path="url(#pf21f9493e2)" d="M 274.983548 307.584 
L 276.985586 307.584 
L 276.985586 307.558944 
L 274.983548 307.558944 
z
" style="fill:#5e9dfe;fill-opacity:0.815686;"/>
   </g>
   <g id="patch_199">
    <path clip-path="url(#pf21f9493e2)" d="M 276.985586 307.584 
L 278.987624 307.584 
L 278.987624 307.584 
L 276.985586 307.584 
z
" style="fill:#5e9dfe;fill-opacity:0.815686;"/>
   </g>
   <g id="patch_200">
    <path clip-path="url(#pf21f9493e2)" d="M 278.987624 307.584 
L 280.989662 307.584 
L 280.989662 307.584 
L 278.987624 307.584 
z
" style="fill:#5e9dfe;fill-opacity:0.815686;"/>
   </g>
   <g id="patch_201">
    <path clip-path="url(#pf21f9493e2)" d="M 280.989662 307.584 
L 282.991701 307.584 
L 282.991701 307.575648 
L 280.989662 307.575648 
z
" style="fill:#5e9dfe;fill-opacity:0.815686;"/>
   </g>
   <g id="patch_202">
    <path clip-path="url(#pf21f9493e2)" d="M 282.991701 307.584 
L 284.993739 307.584 
L 284.993739 307.575648 
L 282.991701 307.575648 
z
" style="fill:#5e9dfe;fill-opacity:0.815686;"/>
   </g>
   <g id="patch_203">
    <path clip-path="url(#pf21f9493e2)" d="M 84.55569 307.584 
L 87.695006 307.584 
L 87.695006 307.54224 
L 84.55569 307.54224 
z
" style="fill:#5eedfe;fill-opacity:0.815686;"/>
   </g>
   <g id="patch_204">
    <path clip-path="url(#pf21f9493e2)" d="M 87.695006 307.584 
L 90.834322 307.584 
L 90.834322 307.525536 
L 87.695006 307.525536 
z
" style="fill:#5eedfe;fill-opacity:0.815686;"/>
   </g>
   <g id="patch_205">
    <path clip-path="url(#pf21f9493e2)" d="M 90.834322 307.584 
L 93.973638 307.584 
L 93.973638 307.358497 
L 90.834322 307.358497 
z
" style="fill:#5eedfe;fill-opacity:0.815686;"/>
   </g>
   <g id="patch_206">
    <path clip-path="url(#pf21f9493e2)" d="M 93.973638 307.584 
L 97.112954 307.584 
L 97.112954 307.366849 
L 93.973638 307.366849 
z
" style="fill:#5eedfe;fill-opacity:0.815686;"/>
   </g>
   <g id="patch_207">
    <path clip-path="url(#pf21f9493e2)" d="M 97.112954 307.584 
L 100.252269 307.584 
L 100.252269 307.400257 
L 97.112954 307.400257 
z
" style="fill:#5eedfe;fill-opacity:0.815686;"/>
   </g>
   <g id="patch_208">
    <path clip-path="url(#pf21f9493e2)" d="M 100.252269 307.584 
L 103.391585 307.584 
L 103.391585 307.517184 
L 100.252269 307.517184 
z
" style="fill:#5eedfe;fill-opacity:0.815686;"/>
   </g>
   <g id="patch_209">
    <path clip-path="url(#pf21f9493e2)" d="M 103.391585 307.584 
L 106.530901 307.584 
L 106.530901 307.558944 
L 103.391585 307.558944 
z
" style="fill:#5eedfe;fill-opacity:0.815686;"/>
   </g>
   <g id="patch_210">
    <path clip-path="url(#pf21f9493e2)" d="M 106.530901 307.584 
L 109.670217 307.584 
L 109.670217 307.584 
L 106.530901 307.584 
z
" style="fill:#5eedfe;fill-opacity:0.815686;"/>
   </g>
   <g id="patch_211">
    <path clip-path="url(#pf21f9493e2)" d="M 109.670217 307.584 
L 112.809533 307.584 
L 112.809533 307.584 
L 109.670217 307.584 
z
" style="fill:#5eedfe;fill-opacity:0.815686;"/>
   </g>
   <g id="patch_212">
    <path clip-path="url(#pf21f9493e2)" d="M 112.809533 307.584 
L 115.948849 307.584 
L 115.948849 307.584 
L 112.809533 307.584 
z
" style="fill:#5eedfe;fill-opacity:0.815686;"/>
   </g>
   <g id="patch_213">
    <path clip-path="url(#pf21f9493e2)" d="M 115.948849 307.584 
L 119.088164 307.584 
L 119.088164 307.575648 
L 115.948849 307.575648 
z
" style="fill:#5eedfe;fill-opacity:0.815686;"/>
   </g>
   <g id="patch_214">
    <path clip-path="url(#pf21f9493e2)" d="M 119.088164 307.584 
L 122.22748 307.584 
L 122.22748 307.567296 
L 119.088164 307.567296 
z
" style="fill:#5eedfe;fill-opacity:0.815686;"/>
   </g>
   <g id="patch_215">
    <path clip-path="url(#pf21f9493e2)" d="M 122.22748 307.584 
L 125.366796 307.584 
L 125.366796 307.567296 
L 122.22748 307.567296 
z
" style="fill:#5eedfe;fill-opacity:0.815686;"/>
   </g>
   <g id="patch_216">
    <path clip-path="url(#pf21f9493e2)" d="M 125.366796 307.584 
L 128.506112 307.584 
L 128.506112 307.584 
L 125.366796 307.584 
z
" style="fill:#5eedfe;fill-opacity:0.815686;"/>
   </g>
   <g id="patch_217">
    <path clip-path="url(#pf21f9493e2)" d="M 128.506112 307.584 
L 131.645428 307.584 
L 131.645428 307.575648 
L 128.506112 307.575648 
z
" style="fill:#5eedfe;fill-opacity:0.815686;"/>
   </g>
   <g id="patch_218">
    <path clip-path="url(#pf21f9493e2)" d="M 131.645428 307.584 
L 134.784743 307.584 
L 134.784743 307.567296 
L 131.645428 307.567296 
z
" style="fill:#5eedfe;fill-opacity:0.815686;"/>
   </g>
   <g id="patch_219">
    <path clip-path="url(#pf21f9493e2)" d="M 134.784743 307.584 
L 137.924059 307.584 
L 137.924059 307.408609 
L 134.784743 307.408609 
z
" style="fill:#5eedfe;fill-opacity:0.815686;"/>
   </g>
   <g id="patch_220">
    <path clip-path="url(#pf21f9493e2)" d="M 137.924059 307.584 
L 141.063375 307.584 
L 141.063375 307.525536 
L 137.924059 307.525536 
z
" style="fill:#5eedfe;fill-opacity:0.815686;"/>
   </g>
   <g id="patch_221">
    <path clip-path="url(#pf21f9493e2)" d="M 141.063375 307.584 
L 144.202691 307.584 
L 144.202691 307.567296 
L 141.063375 307.567296 
z
" style="fill:#5eedfe;fill-opacity:0.815686;"/>
   </g>
   <g id="patch_222">
    <path clip-path="url(#pf21f9493e2)" d="M 144.202691 307.584 
L 147.342007 307.584 
L 147.342007 307.584 
L 144.202691 307.584 
z
" style="fill:#5eedfe;fill-opacity:0.815686;"/>
   </g>
   <g id="patch_223">
    <path clip-path="url(#pf21f9493e2)" d="M 147.342007 307.584 
L 150.481323 307.584 
L 150.481323 307.584 
L 147.342007 307.584 
z
" style="fill:#5eedfe;fill-opacity:0.815686;"/>
   </g>
   <g id="patch_224">
    <path clip-path="url(#pf21f9493e2)" d="M 150.481323 307.584 
L 153.620638 307.584 
L 153.620638 307.567296 
L 150.481323 307.567296 
z
" style="fill:#5eedfe;fill-opacity:0.815686;"/>
   </g>
   <g id="patch_225">
    <path clip-path="url(#pf21f9493e2)" d="M 153.620638 307.584 
L 156.759954 307.584 
L 156.759954 307.584 
L 153.620638 307.584 
z
" style="fill:#5eedfe;fill-opacity:0.815686;"/>
   </g>
   <g id="patch_226">
    <path clip-path="url(#pf21f9493e2)" d="M 156.759954 307.584 
L 159.89927 307.584 
L 159.89927 307.584 
L 156.759954 307.584 
z
" style="fill:#5eedfe;fill-opacity:0.815686;"/>
   </g>
   <g id="patch_227">
    <path clip-path="url(#pf21f9493e2)" d="M 159.89927 307.584 
L 163.038586 307.584 
L 163.038586 307.584 
L 159.89927 307.584 
z
" style="fill:#5eedfe;fill-opacity:0.815686;"/>
   </g>
   <g id="patch_228">
    <path clip-path="url(#pf21f9493e2)" d="M 163.038586 307.584 
L 166.177902 307.584 
L 166.177902 307.584 
L 163.038586 307.584 
z
" style="fill:#5eedfe;fill-opacity:0.815686;"/>
   </g>
   <g id="patch_229">
    <path clip-path="url(#pf21f9493e2)" d="M 166.177902 307.584 
L 169.317218 307.584 
L 169.317218 307.558944 
L 166.177902 307.558944 
z
" style="fill:#5eedfe;fill-opacity:0.815686;"/>
   </g>
   <g id="patch_230">
    <path clip-path="url(#pf21f9493e2)" d="M 169.317218 307.584 
L 172.456533 307.584 
L 172.456533 307.450369 
L 169.317218 307.450369 
z
" style="fill:#5eedfe;fill-opacity:0.815686;"/>
   </g>
   <g id="patch_231">
    <path clip-path="url(#pf21f9493e2)" d="M 172.456533 307.584 
L 175.595849 307.584 
L 175.595849 306.331207 
L 172.456533 306.331207 
z
" style="fill:#5eedfe;fill-opacity:0.815686;"/>
   </g>
   <g id="patch_232">
    <path clip-path="url(#pf21f9493e2)" d="M 175.595849 307.584 
L 178.735165 307.584 
L 178.735165 293.4692 
L 175.595849 293.4692 
z
" style="fill:#5eedfe;fill-opacity:0.815686;"/>
   </g>
   <g id="patch_233">
    <path clip-path="url(#pf21f9493e2)" d="M 178.735165 307.584 
L 181.874481 307.584 
L 181.874481 289.36004 
L 178.735165 289.36004 
z
" style="fill:#5eedfe;fill-opacity:0.815686;"/>
   </g>
   <g id="patch_234">
    <path clip-path="url(#pf21f9493e2)" d="M 181.874481 307.584 
L 185.013797 307.584 
L 185.013797 292.650709 
L 181.874481 292.650709 
z
" style="fill:#5eedfe;fill-opacity:0.815686;"/>
   </g>
   <g id="patch_235">
    <path clip-path="url(#pf21f9493e2)" d="M 185.013797 307.584 
L 188.153112 307.584 
L 188.153112 293.243697 
L 185.013797 293.243697 
z
" style="fill:#5eedfe;fill-opacity:0.815686;"/>
   </g>
   <g id="patch_236">
    <path clip-path="url(#pf21f9493e2)" d="M 188.153112 307.584 
L 191.292428 307.584 
L 191.292428 288.808811 
L 188.153112 288.808811 
z
" style="fill:#5eedfe;fill-opacity:0.815686;"/>
   </g>
   <g id="patch_237">
    <path clip-path="url(#pf21f9493e2)" d="M 191.292428 307.584 
L 194.431744 307.584 
L 194.431744 278.75306 
L 191.292428 278.75306 
z
" style="fill:#5eedfe;fill-opacity:0.815686;"/>
   </g>
   <g id="patch_238">
    <path clip-path="url(#pf21f9493e2)" d="M 194.431744 307.584 
L 197.57106 307.584 
L 197.57106 258.391 
L 194.431744 258.391 
z
" style="fill:#5eedfe;fill-opacity:0.815686;"/>
   </g>
   <g id="patch_239">
    <path clip-path="url(#pf21f9493e2)" d="M 197.57106 307.584 
L 200.710376 307.584 
L 200.710376 178.938875 
L 197.57106 178.938875 
z
" style="fill:#5eedfe;fill-opacity:0.815686;"/>
   </g>
   <g id="patch_240">
    <path clip-path="url(#pf21f9493e2)" d="M 200.710376 307.584 
L 203.849692 307.584 
L 203.849692 71.156927 
L 200.710376 71.156927 
z
" style="fill:#5eedfe;fill-opacity:0.815686;"/>
   </g>
   <g id="patch_241">
    <path clip-path="url(#pf21f9493e2)" d="M 203.849692 307.584 
L 206.989007 307.584 
L 206.989007 167.997817 
L 203.849692 167.997817 
z
" style="fill:#5eedfe;fill-opacity:0.815686;"/>
   </g>
   <g id="patch_242">
    <path clip-path="url(#pf21f9493e2)" d="M 206.989007 307.584 
L 210.128323 307.584 
L 210.128323 269.958454 
L 206.989007 269.958454 
z
" style="fill:#5eedfe;fill-opacity:0.815686;"/>
   </g>
   <g id="patch_243">
    <path clip-path="url(#pf21f9493e2)" d="M 210.128323 307.584 
L 213.267639 307.584 
L 213.267639 287.038197 
L 210.128323 287.038197 
z
" style="fill:#5eedfe;fill-opacity:0.815686;"/>
   </g>
   <g id="patch_244">
    <path clip-path="url(#pf21f9493e2)" d="M 213.267639 307.584 
L 216.406955 307.584 
L 216.406955 286.929621 
L 213.267639 286.929621 
z
" style="fill:#5eedfe;fill-opacity:0.815686;"/>
   </g>
   <g id="patch_245">
    <path clip-path="url(#pf21f9493e2)" d="M 216.406955 307.584 
L 219.546271 307.584 
L 219.546271 281.53426 
L 216.406955 281.53426 
z
" style="fill:#5eedfe;fill-opacity:0.815686;"/>
   </g>
   <g id="patch_246">
    <path clip-path="url(#pf21f9493e2)" d="M 219.546271 307.584 
L 222.685587 307.584 
L 222.685587 287.188532 
L 219.546271 287.188532 
z
" style="fill:#5eedfe;fill-opacity:0.815686;"/>
   </g>
   <g id="patch_247">
    <path clip-path="url(#pf21f9493e2)" d="M 222.685587 307.584 
L 225.824902 307.584 
L 225.824902 296.058305 
L 222.685587 296.058305 
z
" style="fill:#5eedfe;fill-opacity:0.815686;"/>
   </g>
   <g id="patch_248">
    <path clip-path="url(#pf21f9493e2)" d="M 225.824902 307.584 
L 228.964218 307.584 
L 228.964218 303.09065 
L 225.824902 303.09065 
z
" style="fill:#5eedfe;fill-opacity:0.815686;"/>
   </g>
   <g id="patch_249">
    <path clip-path="url(#pf21f9493e2)" d="M 228.964218 307.584 
L 232.103534 307.584 
L 232.103534 305.604587 
L 228.964218 305.604587 
z
" style="fill:#5eedfe;fill-opacity:0.815686;"/>
   </g>
   <g id="patch_250">
    <path clip-path="url(#pf21f9493e2)" d="M 232.103534 307.584 
L 235.24285 307.584 
L 235.24285 306.072297 
L 232.103534 306.072297 
z
" style="fill:#5eedfe;fill-opacity:0.815686;"/>
   </g>
   <g id="patch_251">
    <path clip-path="url(#pf21f9493e2)" d="M 235.24285 307.584 
L 238.382166 307.584 
L 238.382166 305.855146 
L 235.24285 305.855146 
z
" style="fill:#5eedfe;fill-opacity:0.815686;"/>
   </g>
   <g id="patch_252">
    <path clip-path="url(#pf21f9493e2)" d="M 238.382166 307.584 
L 241.521482 307.584 
L 241.521482 306.122408 
L 238.382166 306.122408 
z
" style="fill:#5eedfe;fill-opacity:0.815686;"/>
   </g>
   <g id="patch_253">
    <path clip-path="url(#pf21f9493e2)" d="M 241.521482 307.584 
L 244.660797 307.584 
L 244.660797 306.264391 
L 241.521482 306.264391 
z
" style="fill:#5eedfe;fill-opacity:0.815686;"/>
   </g>
   <g id="patch_254">
    <path clip-path="url(#pf21f9493e2)" d="M 244.660797 307.584 
L 247.800113 307.584 
L 247.800113 306.748805 
L 244.660797 306.748805 
z
" style="fill:#5eedfe;fill-opacity:0.815686;"/>
   </g>
   <g id="patch_255">
    <path clip-path="url(#pf21f9493e2)" d="M 247.800113 307.584 
L 250.939429 307.584 
L 250.939429 306.999363 
L 247.800113 306.999363 
z
" style="fill:#5eedfe;fill-opacity:0.815686;"/>
   </g>
   <g id="patch_256">
    <path clip-path="url(#pf21f9493e2)" d="M 250.939429 307.584 
L 254.078745 307.584 
L 254.078745 307.258274 
L 250.939429 307.258274 
z
" style="fill:#5eedfe;fill-opacity:0.815686;"/>
   </g>
   <g id="patch_257">
    <path clip-path="url(#pf21f9493e2)" d="M 254.078745 307.584 
L 257.218061 307.584 
L 257.218061 307.425313 
L 254.078745 307.425313 
z
" style="fill:#5eedfe;fill-opacity:0.815686;"/>
   </g>
   <g id="patch_258">
    <path clip-path="url(#pf21f9493e2)" d="M 257.218061 307.584 
L 260.357376 307.584 
L 260.357376 307.475425 
L 257.218061 307.475425 
z
" style="fill:#5eedfe;fill-opacity:0.815686;"/>
   </g>
   <g id="patch_259">
    <path clip-path="url(#pf21f9493e2)" d="M 260.357376 307.584 
L 263.496692 307.584 
L 263.496692 307.50048 
L 260.357376 307.50048 
z
" style="fill:#5eedfe;fill-opacity:0.815686;"/>
   </g>
   <g id="patch_260">
    <path clip-path="url(#pf21f9493e2)" d="M 263.496692 307.584 
L 266.636008 307.584 
L 266.636008 307.550592 
L 263.496692 307.550592 
z
" style="fill:#5eedfe;fill-opacity:0.815686;"/>
   </g>
   <g id="patch_261">
    <path clip-path="url(#pf21f9493e2)" d="M 266.636008 307.584 
L 269.775324 307.584 
L 269.775324 307.483777 
L 266.636008 307.483777 
z
" style="fill:#5eedfe;fill-opacity:0.815686;"/>
   </g>
   <g id="patch_262">
    <path clip-path="url(#pf21f9493e2)" d="M 269.775324 307.584 
L 272.91464 307.584 
L 272.91464 307.50048 
L 269.775324 307.50048 
z
" style="fill:#5eedfe;fill-opacity:0.815686;"/>
   </g>
   <g id="patch_263">
    <path clip-path="url(#pf21f9493e2)" d="M 272.91464 307.584 
L 276.053956 307.584 
L 276.053956 307.525536 
L 272.91464 307.525536 
z
" style="fill:#5eedfe;fill-opacity:0.815686;"/>
   </g>
   <g id="patch_264">
    <path clip-path="url(#pf21f9493e2)" d="M 276.053956 307.584 
L 279.193271 307.584 
L 279.193271 307.54224 
L 276.053956 307.54224 
z
" style="fill:#5eedfe;fill-opacity:0.815686;"/>
   </g>
   <g id="patch_265">
    <path clip-path="url(#pf21f9493e2)" d="M 279.193271 307.584 
L 282.332587 307.584 
L 282.332587 307.517184 
L 279.193271 307.517184 
z
" style="fill:#5eedfe;fill-opacity:0.815686;"/>
   </g>
   <g id="patch_266">
    <path clip-path="url(#pf21f9493e2)" d="M 282.332587 307.584 
L 285.471903 307.584 
L 285.471903 307.525536 
L 282.332587 307.525536 
z
" style="fill:#5eedfe;fill-opacity:0.815686;"/>
   </g>
   <g id="patch_267">
    <path clip-path="url(#pf21f9493e2)" d="M 285.471903 307.584 
L 288.611219 307.584 
L 288.611219 307.517184 
L 285.471903 307.517184 
z
" style="fill:#5eedfe;fill-opacity:0.815686;"/>
   </g>
   <g id="patch_268">
    <path clip-path="url(#pf21f9493e2)" d="M 288.611219 307.584 
L 291.750535 307.584 
L 291.750535 307.533888 
L 288.611219 307.533888 
z
" style="fill:#5eedfe;fill-opacity:0.815686;"/>
   </g>
   <g id="patch_269">
    <path clip-path="url(#pf21f9493e2)" d="M 291.750535 307.584 
L 294.889851 307.584 
L 294.889851 307.533888 
L 291.750535 307.533888 
z
" style="fill:#5eedfe;fill-opacity:0.815686;"/>
   </g>
   <g id="patch_270">
    <path clip-path="url(#pf21f9493e2)" d="M 294.889851 307.584 
L 298.029166 307.584 
L 298.029166 307.54224 
L 294.889851 307.54224 
z
" style="fill:#5eedfe;fill-opacity:0.815686;"/>
   </g>
   <g id="patch_271">
    <path clip-path="url(#pf21f9493e2)" d="M 298.029166 307.584 
L 301.168482 307.584 
L 301.168482 307.508832 
L 298.029166 307.508832 
z
" style="fill:#5eedfe;fill-opacity:0.815686;"/>
   </g>
   <g id="patch_272">
    <path clip-path="url(#pf21f9493e2)" d="M 301.168482 307.584 
L 304.307798 307.584 
L 304.307798 307.467073 
L 301.168482 307.467073 
z
" style="fill:#5eedfe;fill-opacity:0.815686;"/>
   </g>
   <g id="patch_273">
    <path clip-path="url(#pf21f9493e2)" d="M 304.307798 307.584 
L 307.447114 307.584 
L 307.447114 307.508832 
L 304.307798 307.508832 
z
" style="fill:#5eedfe;fill-opacity:0.815686;"/>
   </g>
   <g id="patch_274">
    <path clip-path="url(#pf21f9493e2)" d="M 307.447114 307.584 
L 310.58643 307.584 
L 310.58643 307.50048 
L 307.447114 307.50048 
z
" style="fill:#5eedfe;fill-opacity:0.815686;"/>
   </g>
   <g id="patch_275">
    <path clip-path="url(#pf21f9493e2)" d="M 310.58643 307.584 
L 313.725745 307.584 
L 313.725745 307.517184 
L 310.58643 307.517184 
z
" style="fill:#5eedfe;fill-opacity:0.815686;"/>
   </g>
   <g id="patch_276">
    <path clip-path="url(#pf21f9493e2)" d="M 313.725745 307.584 
L 316.865061 307.584 
L 316.865061 307.533888 
L 313.725745 307.533888 
z
" style="fill:#5eedfe;fill-opacity:0.815686;"/>
   </g>
   <g id="patch_277">
    <path clip-path="url(#pf21f9493e2)" d="M 316.865061 307.584 
L 320.004377 307.584 
L 320.004377 307.54224 
L 316.865061 307.54224 
z
" style="fill:#5eedfe;fill-opacity:0.815686;"/>
   </g>
   <g id="patch_278">
    <path clip-path="url(#pf21f9493e2)" d="M 320.004377 307.584 
L 323.143693 307.584 
L 323.143693 307.533888 
L 320.004377 307.533888 
z
" style="fill:#5eedfe;fill-opacity:0.815686;"/>
   </g>
   <g id="patch_279">
    <path clip-path="url(#pf21f9493e2)" d="M 323.143693 307.584 
L 326.283009 307.584 
L 326.283009 307.533888 
L 323.143693 307.533888 
z
" style="fill:#5eedfe;fill-opacity:0.815686;"/>
   </g>
   <g id="patch_280">
    <path clip-path="url(#pf21f9493e2)" d="M 326.283009 307.584 
L 329.422325 307.584 
L 329.422325 307.550592 
L 326.283009 307.550592 
z
" style="fill:#5eedfe;fill-opacity:0.815686;"/>
   </g>
   <g id="patch_281">
    <path clip-path="url(#pf21f9493e2)" d="M 329.422325 307.584 
L 332.56164 307.584 
L 332.56164 307.483777 
L 329.422325 307.483777 
z
" style="fill:#5eedfe;fill-opacity:0.815686;"/>
   </g>
   <g id="patch_282">
    <path clip-path="url(#pf21f9493e2)" d="M 332.56164 307.584 
L 335.700956 307.584 
L 335.700956 307.341793 
L 332.56164 307.341793 
z
" style="fill:#5eedfe;fill-opacity:0.815686;"/>
   </g>
   <g id="patch_283">
    <path clip-path="url(#pf21f9493e2)" d="M 335.700956 307.584 
L 338.840272 307.584 
L 338.840272 307.258274 
L 335.700956 307.258274 
z
" style="fill:#5eedfe;fill-opacity:0.815686;"/>
   </g>
   <g id="patch_284">
    <path clip-path="url(#pf21f9493e2)" d="M 338.840272 307.584 
L 341.979588 307.584 
L 341.979588 307.316738 
L 338.840272 307.316738 
z
" style="fill:#5eedfe;fill-opacity:0.815686;"/>
   </g>
   <g id="patch_285">
    <path clip-path="url(#pf21f9493e2)" d="M 341.979588 307.584 
L 345.118904 307.584 
L 345.118904 307.366849 
L 341.979588 307.366849 
z
" style="fill:#5eedfe;fill-opacity:0.815686;"/>
   </g>
   <g id="patch_286">
    <path clip-path="url(#pf21f9493e2)" d="M 345.118904 307.584 
L 348.25822 307.584 
L 348.25822 307.517184 
L 345.118904 307.517184 
z
" style="fill:#5eedfe;fill-opacity:0.815686;"/>
   </g>
   <g id="patch_287">
    <path clip-path="url(#pf21f9493e2)" d="M 348.25822 307.584 
L 351.397535 307.584 
L 351.397535 307.54224 
L 348.25822 307.54224 
z
" style="fill:#5eedfe;fill-opacity:0.815686;"/>
   </g>
   <g id="patch_288">
    <path clip-path="url(#pf21f9493e2)" d="M 351.397535 307.584 
L 354.536851 307.584 
L 354.536851 307.54224 
L 351.397535 307.54224 
z
" style="fill:#5eedfe;fill-opacity:0.815686;"/>
   </g>
   <g id="patch_289">
    <path clip-path="url(#pf21f9493e2)" d="M 354.536851 307.584 
L 357.676167 307.584 
L 357.676167 307.567296 
L 354.536851 307.567296 
z
" style="fill:#5eedfe;fill-opacity:0.815686;"/>
   </g>
   <g id="patch_290">
    <path clip-path="url(#pf21f9493e2)" d="M 357.676167 307.584 
L 360.815483 307.584 
L 360.815483 307.567296 
L 357.676167 307.567296 
z
" style="fill:#5eedfe;fill-opacity:0.815686;"/>
   </g>
   <g id="patch_291">
    <path clip-path="url(#pf21f9493e2)" d="M 360.815483 307.584 
L 363.954799 307.584 
L 363.954799 307.567296 
L 360.815483 307.567296 
z
" style="fill:#5eedfe;fill-opacity:0.815686;"/>
   </g>
   <g id="patch_292">
    <path clip-path="url(#pf21f9493e2)" d="M 363.954799 307.584 
L 367.094114 307.584 
L 367.094114 307.550592 
L 363.954799 307.550592 
z
" style="fill:#5eedfe;fill-opacity:0.815686;"/>
   </g>
   <g id="patch_293">
    <path clip-path="url(#pf21f9493e2)" d="M 367.094114 307.584 
L 370.23343 307.584 
L 370.23343 307.517184 
L 367.094114 307.517184 
z
" style="fill:#5eedfe;fill-opacity:0.815686;"/>
   </g>
   <g id="patch_294">
    <path clip-path="url(#pf21f9493e2)" d="M 370.23343 307.584 
L 373.372746 307.584 
L 373.372746 307.575648 
L 370.23343 307.575648 
z
" style="fill:#5eedfe;fill-opacity:0.815686;"/>
   </g>
   <g id="patch_295">
    <path clip-path="url(#pf21f9493e2)" d="M 373.372746 307.584 
L 376.512062 307.584 
L 376.512062 307.533888 
L 373.372746 307.533888 
z
" style="fill:#5eedfe;fill-opacity:0.815686;"/>
   </g>
   <g id="patch_296">
    <path clip-path="url(#pf21f9493e2)" d="M 376.512062 307.584 
L 379.651378 307.584 
L 379.651378 307.550592 
L 376.512062 307.550592 
z
" style="fill:#5eedfe;fill-opacity:0.815686;"/>
   </g>
   <g id="patch_297">
    <path clip-path="url(#pf21f9493e2)" d="M 379.651378 307.584 
L 382.790694 307.584 
L 382.790694 307.567296 
L 379.651378 307.567296 
z
" style="fill:#5eedfe;fill-opacity:0.815686;"/>
   </g>
   <g id="patch_298">
    <path clip-path="url(#pf21f9493e2)" d="M 382.790694 307.584 
L 385.930009 307.584 
L 385.930009 307.550592 
L 382.790694 307.550592 
z
" style="fill:#5eedfe;fill-opacity:0.815686;"/>
   </g>
   <g id="patch_299">
    <path clip-path="url(#pf21f9493e2)" d="M 385.930009 307.584 
L 389.069325 307.584 
L 389.069325 307.558944 
L 385.930009 307.558944 
z
" style="fill:#5eedfe;fill-opacity:0.815686;"/>
   </g>
   <g id="patch_300">
    <path clip-path="url(#pf21f9493e2)" d="M 389.069325 307.584 
L 392.208641 307.584 
L 392.208641 307.517184 
L 389.069325 307.517184 
z
" style="fill:#5eedfe;fill-opacity:0.815686;"/>
   </g>
   <g id="patch_301">
    <path clip-path="url(#pf21f9493e2)" d="M 392.208641 307.584 
L 395.347957 307.584 
L 395.347957 307.517184 
L 392.208641 307.517184 
z
" style="fill:#5eedfe;fill-opacity:0.815686;"/>
   </g>
   <g id="patch_302">
    <path clip-path="url(#pf21f9493e2)" d="M 395.347957 307.584 
L 398.487273 307.584 
L 398.487273 307.525536 
L 395.347957 307.525536 
z
" style="fill:#5eedfe;fill-opacity:0.815686;"/>
   </g>
   <g id="matplotlib.axis_1">
    <g id="xtick_1">
     <g id="line2d_1">
      <defs>
       <path d="M 0 0 
L 0 3.5 
" id="mc2be854a58" style="stroke:#000000;stroke-width:0.8;"/>
      </defs>
      <g>
       <use style="stroke:#000000;stroke-width:0.8;" x="79.185109" xlink:href="#mc2be854a58" y="307.584"/>
      </g>
     </g>
     <g id="text_1">
      <!-- 2.0 ms -->
      <defs>
       <path d="M 19.1875 8.296875 
L 53.609375 8.296875 
L 53.609375 0 
L 7.328125 0 
L 7.328125 8.296875 
Q 12.9375 14.109375 22.625 23.890625 
Q 32.328125 33.6875 34.8125 36.53125 
Q 39.546875 41.84375 41.421875 45.53125 
Q 43.3125 49.21875 43.3125 52.78125 
Q 43.3125 58.59375 39.234375 62.25 
Q 35.15625 65.921875 28.609375 65.921875 
Q 23.96875 65.921875 18.8125 64.3125 
Q 13.671875 62.703125 7.8125 59.421875 
L 7.8125 69.390625 
Q 13.765625 71.78125 18.9375 73 
Q 24.125 74.21875 28.421875 74.21875 
Q 39.75 74.21875 46.484375 68.546875 
Q 53.21875 62.890625 53.21875 53.421875 
Q 53.21875 48.921875 51.53125 44.890625 
Q 49.859375 40.875 45.40625 35.40625 
Q 44.1875 33.984375 37.640625 27.21875 
Q 31.109375 20.453125 19.1875 8.296875 
z
" id="DejaVuSans-50"/>
       <path d="M 10.6875 12.40625 
L 21 12.40625 
L 21 0 
L 10.6875 0 
z
" id="DejaVuSans-46"/>
       <path d="M 31.78125 66.40625 
Q 24.171875 66.40625 20.328125 58.90625 
Q 16.5 51.421875 16.5 36.375 
Q 16.5 21.390625 20.328125 13.890625 
Q 24.171875 6.390625 31.78125 6.390625 
Q 39.453125 6.390625 43.28125 13.890625 
Q 47.125 21.390625 47.125 36.375 
Q 47.125 51.421875 43.28125 58.90625 
Q 39.453125 66.40625 31.78125 66.40625 
z
M 31.78125 74.21875 
Q 44.046875 74.21875 50.515625 64.515625 
Q 56.984375 54.828125 56.984375 36.375 
Q 56.984375 17.96875 50.515625 8.265625 
Q 44.046875 -1.421875 31.78125 -1.421875 
Q 19.53125 -1.421875 13.0625 8.265625 
Q 6.59375 17.96875 6.59375 36.375 
Q 6.59375 54.828125 13.0625 64.515625 
Q 19.53125 74.21875 31.78125 74.21875 
z
" id="DejaVuSans-48"/>
       <path id="DejaVuSans-32"/>
       <path d="M 52 44.1875 
Q 55.375 50.25 60.0625 53.125 
Q 64.75 56 71.09375 56 
Q 79.640625 56 84.28125 50.015625 
Q 88.921875 44.046875 88.921875 33.015625 
L 88.921875 0 
L 79.890625 0 
L 79.890625 32.71875 
Q 79.890625 40.578125 77.09375 44.375 
Q 74.3125 48.1875 68.609375 48.1875 
Q 61.625 48.1875 57.5625 43.546875 
Q 53.515625 38.921875 53.515625 30.90625 
L 53.515625 0 
L 44.484375 0 
L 44.484375 32.71875 
Q 44.484375 40.625 41.703125 44.40625 
Q 38.921875 48.1875 33.109375 48.1875 
Q 26.21875 48.1875 22.15625 43.53125 
Q 18.109375 38.875 18.109375 30.90625 
L 18.109375 0 
L 9.078125 0 
L 9.078125 54.6875 
L 18.109375 54.6875 
L 18.109375 46.1875 
Q 21.1875 51.21875 25.484375 53.609375 
Q 29.78125 56 35.6875 56 
Q 41.65625 56 45.828125 52.96875 
Q 50 49.953125 52 44.1875 
z
" id="DejaVuSans-109"/>
       <path d="M 44.28125 53.078125 
L 44.28125 44.578125 
Q 40.484375 46.53125 36.375 47.5 
Q 32.28125 48.484375 27.875 48.484375 
Q 21.1875 48.484375 17.84375 46.4375 
Q 14.5 44.390625 14.5 40.28125 
Q 14.5 37.15625 16.890625 35.375 
Q 19.28125 33.59375 26.515625 31.984375 
L 29.59375 31.296875 
Q 39.15625 29.25 43.1875 25.515625 
Q 47.21875 21.78125 47.21875 15.09375 
Q 47.21875 7.46875 41.1875 3.015625 
Q 35.15625 -1.421875 24.609375 -1.421875 
Q 20.21875 -1.421875 15.453125 -0.5625 
Q 10.6875 0.296875 5.421875 2 
L 5.421875 11.28125 
Q 10.40625 8.6875 15.234375 7.390625 
Q 20.0625 6.109375 24.8125 6.109375 
Q 31.15625 6.109375 34.5625 8.28125 
Q 37.984375 10.453125 37.984375 14.40625 
Q 37.984375 18.0625 35.515625 20.015625 
Q 33.0625 21.96875 24.703125 23.78125 
L 21.578125 24.515625 
Q 13.234375 26.265625 9.515625 29.90625 
Q 5.8125 33.546875 5.8125 39.890625 
Q 5.8125 47.609375 11.28125 51.796875 
Q 16.75 56 26.8125 56 
Q 31.78125 56 36.171875 55.265625 
Q 40.578125 54.546875 44.28125 53.078125 
z
" id="DejaVuSans-115"/>
      </defs>
      <g transform="translate(75.97387 321.470523)rotate(-335)scale(0.1 -0.1)">
       <use xlink:href="#DejaVuSans-50"/>
       <use x="63.623047" xlink:href="#DejaVuSans-46"/>
       <use x="95.410156" xlink:href="#DejaVuSans-48"/>
       <use x="159.033203" xlink:href="#DejaVuSans-32"/>
       <use x="190.820312" xlink:href="#DejaVuSans-109"/>
       <use x="288.232422" xlink:href="#DejaVuSans-115"/>
      </g>
     </g>
    </g>
    <g id="xtick_2">
     <g id="line2d_2">
      <g>
       <use style="stroke:#000000;stroke-width:0.8;" x="127.590532" xlink:href="#mc2be854a58" y="307.584"/>
      </g>
     </g>
     <g id="text_2">
      <!-- 3.0 ms -->
      <defs>
       <path d="M 40.578125 39.3125 
Q 47.65625 37.796875 51.625 33 
Q 55.609375 28.21875 55.609375 21.1875 
Q 55.609375 10.40625 48.1875 4.484375 
Q 40.765625 -1.421875 27.09375 -1.421875 
Q 22.515625 -1.421875 17.65625 -0.515625 
Q 12.796875 0.390625 7.625 2.203125 
L 7.625 11.71875 
Q 11.71875 9.328125 16.59375 8.109375 
Q 21.484375 6.890625 26.8125 6.890625 
Q 36.078125 6.890625 40.9375 10.546875 
Q 45.796875 14.203125 45.796875 21.1875 
Q 45.796875 27.640625 41.28125 31.265625 
Q 36.765625 34.90625 28.71875 34.90625 
L 20.21875 34.90625 
L 20.21875 43.015625 
L 29.109375 43.015625 
Q 36.375 43.015625 40.234375 45.921875 
Q 44.09375 48.828125 44.09375 54.296875 
Q 44.09375 59.90625 40.109375 62.90625 
Q 36.140625 65.921875 28.71875 65.921875 
Q 24.65625 65.921875 20.015625 65.03125 
Q 15.375 64.15625 9.8125 62.3125 
L 9.8125 71.09375 
Q 15.4375 72.65625 20.34375 73.4375 
Q 25.25 74.21875 29.59375 74.21875 
Q 40.828125 74.21875 47.359375 69.109375 
Q 53.90625 64.015625 53.90625 55.328125 
Q 53.90625 49.265625 50.4375 45.09375 
Q 46.96875 40.921875 40.578125 39.3125 
z
" id="DejaVuSans-51"/>
      </defs>
      <g transform="translate(124.379294 321.470523)rotate(-335)scale(0.1 -0.1)">
       <use xlink:href="#DejaVuSans-51"/>
       <use x="63.623047" xlink:href="#DejaVuSans-46"/>
       <use x="95.410156" xlink:href="#DejaVuSans-48"/>
       <use x="159.033203" xlink:href="#DejaVuSans-32"/>
       <use x="190.820312" xlink:href="#DejaVuSans-109"/>
       <use x="288.232422" xlink:href="#DejaVuSans-115"/>
      </g>
     </g>
    </g>
    <g id="xtick_3">
     <g id="line2d_3">
      <g>
       <use style="stroke:#000000;stroke-width:0.8;" x="175.995955" xlink:href="#mc2be854a58" y="307.584"/>
      </g>
     </g>
     <g id="text_3">
      <!-- 4.0 ms -->
      <defs>
       <path d="M 37.796875 64.3125 
L 12.890625 25.390625 
L 37.796875 25.390625 
z
M 35.203125 72.90625 
L 47.609375 72.90625 
L 47.609375 25.390625 
L 58.015625 25.390625 
L 58.015625 17.1875 
L 47.609375 17.1875 
L 47.609375 0 
L 37.796875 0 
L 37.796875 17.1875 
L 4.890625 17.1875 
L 4.890625 26.703125 
z
" id="DejaVuSans-52"/>
      </defs>
      <g transform="translate(172.784717 321.470523)rotate(-335)scale(0.1 -0.1)">
       <use xlink:href="#DejaVuSans-52"/>
       <use x="63.623047" xlink:href="#DejaVuSans-46"/>
       <use x="95.410156" xlink:href="#DejaVuSans-48"/>
       <use x="159.033203" xlink:href="#DejaVuSans-32"/>
       <use x="190.820312" xlink:href="#DejaVuSans-109"/>
       <use x="288.232422" xlink:href="#DejaVuSans-115"/>
      </g>
     </g>
    </g>
    <g id="xtick_4">
     <g id="line2d_4">
      <g>
       <use style="stroke:#000000;stroke-width:0.8;" x="224.401379" xlink:href="#mc2be854a58" y="307.584"/>
      </g>
     </g>
     <g id="text_4">
      <!-- 5.0 ms -->
      <defs>
       <path d="M 10.796875 72.90625 
L 49.515625 72.90625 
L 49.515625 64.59375 
L 19.828125 64.59375 
L 19.828125 46.734375 
Q 21.96875 47.46875 24.109375 47.828125 
Q 26.265625 48.1875 28.421875 48.1875 
Q 40.625 48.1875 47.75 41.5 
Q 54.890625 34.8125 54.890625 23.390625 
Q 54.890625 11.625 47.5625 5.09375 
Q 40.234375 -1.421875 26.90625 -1.421875 
Q 22.3125 -1.421875 17.546875 -0.640625 
Q 12.796875 0.140625 7.71875 1.703125 
L 7.71875 11.625 
Q 12.109375 9.234375 16.796875 8.0625 
Q 21.484375 6.890625 26.703125 6.890625 
Q 35.15625 6.890625 40.078125 11.328125 
Q 45.015625 15.765625 45.015625 23.390625 
Q 45.015625 31 40.078125 35.4375 
Q 35.15625 39.890625 26.703125 39.890625 
Q 22.75 39.890625 18.8125 39.015625 
Q 14.890625 38.140625 10.796875 36.28125 
z
" id="DejaVuSans-53"/>
      </defs>
      <g transform="translate(221.19014 321.470523)rotate(-335)scale(0.1 -0.1)">
       <use xlink:href="#DejaVuSans-53"/>
       <use x="63.623047" xlink:href="#DejaVuSans-46"/>
       <use x="95.410156" xlink:href="#DejaVuSans-48"/>
       <use x="159.033203" xlink:href="#DejaVuSans-32"/>
       <use x="190.820312" xlink:href="#DejaVuSans-109"/>
       <use x="288.232422" xlink:href="#DejaVuSans-115"/>
      </g>
     </g>
    </g>
    <g id="xtick_5">
     <g id="line2d_5">
      <g>
       <use style="stroke:#000000;stroke-width:0.8;" x="272.806802" xlink:href="#mc2be854a58" y="307.584"/>
      </g>
     </g>
     <g id="text_5">
      <!-- 6.0 ms -->
      <defs>
       <path d="M 33.015625 40.375 
Q 26.375 40.375 22.484375 35.828125 
Q 18.609375 31.296875 18.609375 23.390625 
Q 18.609375 15.53125 22.484375 10.953125 
Q 26.375 6.390625 33.015625 6.390625 
Q 39.65625 6.390625 43.53125 10.953125 
Q 47.40625 15.53125 47.40625 23.390625 
Q 47.40625 31.296875 43.53125 35.828125 
Q 39.65625 40.375 33.015625 40.375 
z
M 52.59375 71.296875 
L 52.59375 62.3125 
Q 48.875 64.0625 45.09375 64.984375 
Q 41.3125 65.921875 37.59375 65.921875 
Q 27.828125 65.921875 22.671875 59.328125 
Q 17.53125 52.734375 16.796875 39.40625 
Q 19.671875 43.65625 24.015625 45.921875 
Q 28.375 48.1875 33.59375 48.1875 
Q 44.578125 48.1875 50.953125 41.515625 
Q 57.328125 34.859375 57.328125 23.390625 
Q 57.328125 12.15625 50.6875 5.359375 
Q 44.046875 -1.421875 33.015625 -1.421875 
Q 20.359375 -1.421875 13.671875 8.265625 
Q 6.984375 17.96875 6.984375 36.375 
Q 6.984375 53.65625 15.1875 63.9375 
Q 23.390625 74.21875 37.203125 74.21875 
Q 40.921875 74.21875 44.703125 73.484375 
Q 48.484375 72.75 52.59375 71.296875 
z
" id="DejaVuSans-54"/>
      </defs>
      <g transform="translate(269.595564 321.470523)rotate(-335)scale(0.1 -0.1)">
       <use xlink:href="#DejaVuSans-54"/>
       <use x="63.623047" xlink:href="#DejaVuSans-46"/>
       <use x="95.410156" xlink:href="#DejaVuSans-48"/>
       <use x="159.033203" xlink:href="#DejaVuSans-32"/>
       <use x="190.820312" xlink:href="#DejaVuSans-109"/>
       <use x="288.232422" xlink:href="#DejaVuSans-115"/>
      </g>
     </g>
    </g>
    <g id="xtick_6">
     <g id="line2d_6">
      <g>
       <use style="stroke:#000000;stroke-width:0.8;" x="321.212226" xlink:href="#mc2be854a58" y="307.584"/>
      </g>
     </g>
     <g id="text_6">
      <!-- 7.0 ms -->
      <defs>
       <path d="M 8.203125 72.90625 
L 55.078125 72.90625 
L 55.078125 68.703125 
L 28.609375 0 
L 18.3125 0 
L 43.21875 64.59375 
L 8.203125 64.59375 
z
" id="DejaVuSans-55"/>
      </defs>
      <g transform="translate(318.000987 321.470523)rotate(-335)scale(0.1 -0.1)">
       <use xlink:href="#DejaVuSans-55"/>
       <use x="63.623047" xlink:href="#DejaVuSans-46"/>
       <use x="95.410156" xlink:href="#DejaVuSans-48"/>
       <use x="159.033203" xlink:href="#DejaVuSans-32"/>
       <use x="190.820312" xlink:href="#DejaVuSans-109"/>
       <use x="288.232422" xlink:href="#DejaVuSans-115"/>
      </g>
     </g>
    </g>
    <g id="xtick_7">
     <g id="line2d_7">
      <g>
       <use style="stroke:#000000;stroke-width:0.8;" x="369.617649" xlink:href="#mc2be854a58" y="307.584"/>
      </g>
     </g>
     <g id="text_7">
      <!-- 8.0 ms -->
      <defs>
       <path d="M 31.78125 34.625 
Q 24.75 34.625 20.71875 30.859375 
Q 16.703125 27.09375 16.703125 20.515625 
Q 16.703125 13.921875 20.71875 10.15625 
Q 24.75 6.390625 31.78125 6.390625 
Q 38.8125 6.390625 42.859375 10.171875 
Q 46.921875 13.96875 46.921875 20.515625 
Q 46.921875 27.09375 42.890625 30.859375 
Q 38.875 34.625 31.78125 34.625 
z
M 21.921875 38.8125 
Q 15.578125 40.375 12.03125 44.71875 
Q 8.5 49.078125 8.5 55.328125 
Q 8.5 64.0625 14.71875 69.140625 
Q 20.953125 74.21875 31.78125 74.21875 
Q 42.671875 74.21875 48.875 69.140625 
Q 55.078125 64.0625 55.078125 55.328125 
Q 55.078125 49.078125 51.53125 44.71875 
Q 48 40.375 41.703125 38.8125 
Q 48.828125 37.15625 52.796875 32.3125 
Q 56.78125 27.484375 56.78125 20.515625 
Q 56.78125 9.90625 50.3125 4.234375 
Q 43.84375 -1.421875 31.78125 -1.421875 
Q 19.734375 -1.421875 13.25 4.234375 
Q 6.78125 9.90625 6.78125 20.515625 
Q 6.78125 27.484375 10.78125 32.3125 
Q 14.796875 37.15625 21.921875 38.8125 
z
M 18.3125 54.390625 
Q 18.3125 48.734375 21.84375 45.5625 
Q 25.390625 42.390625 31.78125 42.390625 
Q 38.140625 42.390625 41.71875 45.5625 
Q 45.3125 48.734375 45.3125 54.390625 
Q 45.3125 60.0625 41.71875 63.234375 
Q 38.140625 66.40625 31.78125 66.40625 
Q 25.390625 66.40625 21.84375 63.234375 
Q 18.3125 60.0625 18.3125 54.390625 
z
" id="DejaVuSans-56"/>
      </defs>
      <g transform="translate(366.40641 321.470523)rotate(-335)scale(0.1 -0.1)">
       <use xlink:href="#DejaVuSans-56"/>
       <use x="63.623047" xlink:href="#DejaVuSans-46"/>
       <use x="95.410156" xlink:href="#DejaVuSans-48"/>
       <use x="159.033203" xlink:href="#DejaVuSans-32"/>
       <use x="190.820312" xlink:href="#DejaVuSans-109"/>
       <use x="288.232422" xlink:href="#DejaVuSans-115"/>
      </g>
     </g>
    </g>
   </g>
   <g id="matplotlib.axis_2">
    <g id="ytick_1">
     <g id="line2d_8">
      <defs>
       <path d="M 0 0 
L -3.5 0 
" id="mbfa946dcba" style="stroke:#000000;stroke-width:0.8;"/>
      </defs>
      <g>
       <use style="stroke:#000000;stroke-width:0.8;" x="57.6" xlink:href="#mbfa946dcba" y="307.584"/>
      </g>
     </g>
     <g id="text_8">
      <!-- 0 -->
      <g transform="translate(44.2375 311.383219)scale(0.1 -0.1)">
       <use xlink:href="#DejaVuSans-48"/>
      </g>
     </g>
    </g>
    <g id="ytick_2">
     <g id="line2d_9">
      <g>
       <use style="stroke:#000000;stroke-width:0.8;" x="57.6" xlink:href="#mbfa946dcba" y="265.824237"/>
      </g>
     </g>
     <g id="text_9">
      <!-- 5000 -->
      <g transform="translate(25.15 269.623456)scale(0.1 -0.1)">
       <use xlink:href="#DejaVuSans-53"/>
       <use x="63.623047" xlink:href="#DejaVuSans-48"/>
       <use x="127.246094" xlink:href="#DejaVuSans-48"/>
       <use x="190.869141" xlink:href="#DejaVuSans-48"/>
      </g>
     </g>
    </g>
    <g id="ytick_3">
     <g id="line2d_10">
      <g>
       <use style="stroke:#000000;stroke-width:0.8;" x="57.6" xlink:href="#mbfa946dcba" y="224.064475"/>
      </g>
     </g>
     <g id="text_10">
      <!-- 10000 -->
      <defs>
       <path d="M 12.40625 8.296875 
L 28.515625 8.296875 
L 28.515625 63.921875 
L 10.984375 60.40625 
L 10.984375 69.390625 
L 28.421875 72.90625 
L 38.28125 72.90625 
L 38.28125 8.296875 
L 54.390625 8.296875 
L 54.390625 0 
L 12.40625 0 
z
" id="DejaVuSans-49"/>
      </defs>
      <g transform="translate(18.7875 227.863693)scale(0.1 -0.1)">
       <use xlink:href="#DejaVuSans-49"/>
       <use x="63.623047" xlink:href="#DejaVuSans-48"/>
       <use x="127.246094" xlink:href="#DejaVuSans-48"/>
       <use x="190.869141" xlink:href="#DejaVuSans-48"/>
       <use x="254.492188" xlink:href="#DejaVuSans-48"/>
      </g>
     </g>
    </g>
    <g id="ytick_4">
     <g id="line2d_11">
      <g>
       <use style="stroke:#000000;stroke-width:0.8;" x="57.6" xlink:href="#mbfa946dcba" y="182.304712"/>
      </g>
     </g>
     <g id="text_11">
      <!-- 15000 -->
      <g transform="translate(18.7875 186.103931)scale(0.1 -0.1)">
       <use xlink:href="#DejaVuSans-49"/>
       <use x="63.623047" xlink:href="#DejaVuSans-53"/>
       <use x="127.246094" xlink:href="#DejaVuSans-48"/>
       <use x="190.869141" xlink:href="#DejaVuSans-48"/>
       <use x="254.492188" xlink:href="#DejaVuSans-48"/>
      </g>
     </g>
    </g>
    <g id="ytick_5">
     <g id="line2d_12">
      <g>
       <use style="stroke:#000000;stroke-width:0.8;" x="57.6" xlink:href="#mbfa946dcba" y="140.544949"/>
      </g>
     </g>
     <g id="text_12">
      <!-- 20000 -->
      <g transform="translate(18.7875 144.344168)scale(0.1 -0.1)">
       <use xlink:href="#DejaVuSans-50"/>
       <use x="63.623047" xlink:href="#DejaVuSans-48"/>
       <use x="127.246094" xlink:href="#DejaVuSans-48"/>
       <use x="190.869141" xlink:href="#DejaVuSans-48"/>
       <use x="254.492188" xlink:href="#DejaVuSans-48"/>
      </g>
     </g>
    </g>
    <g id="ytick_6">
     <g id="line2d_13">
      <g>
       <use style="stroke:#000000;stroke-width:0.8;" x="57.6" xlink:href="#mbfa946dcba" y="98.785186"/>
      </g>
     </g>
     <g id="text_13">
      <!-- 25000 -->
      <g transform="translate(18.7875 102.584405)scale(0.1 -0.1)">
       <use xlink:href="#DejaVuSans-50"/>
       <use x="63.623047" xlink:href="#DejaVuSans-53"/>
       <use x="127.246094" xlink:href="#DejaVuSans-48"/>
       <use x="190.869141" xlink:href="#DejaVuSans-48"/>
       <use x="254.492188" xlink:href="#DejaVuSans-48"/>
      </g>
     </g>
    </g>
    <g id="ytick_7">
     <g id="line2d_14">
      <g>
       <use style="stroke:#000000;stroke-width:0.8;" x="57.6" xlink:href="#mbfa946dcba" y="57.025424"/>
      </g>
     </g>
     <g id="text_14">
      <!-- 30000 -->
      <g transform="translate(18.7875 60.824642)scale(0.1 -0.1)">
       <use xlink:href="#DejaVuSans-51"/>
       <use x="63.623047" xlink:href="#DejaVuSans-48"/>
       <use x="127.246094" xlink:href="#DejaVuSans-48"/>
       <use x="190.869141" xlink:href="#DejaVuSans-48"/>
       <use x="254.492188" xlink:href="#DejaVuSans-48"/>
      </g>
     </g>
    </g>
    <g id="text_15">
     <!-- Number of samples -->
     <defs>
      <path d="M 9.8125 72.90625 
L 23.09375 72.90625 
L 55.421875 11.921875 
L 55.421875 72.90625 
L 64.984375 72.90625 
L 64.984375 0 
L 51.703125 0 
L 19.390625 60.984375 
L 19.390625 0 
L 9.8125 0 
z
" id="DejaVuSans-78"/>
      <path d="M 8.5 21.578125 
L 8.5 54.6875 
L 17.484375 54.6875 
L 17.484375 21.921875 
Q 17.484375 14.15625 20.5 10.265625 
Q 23.53125 6.390625 29.59375 6.390625 
Q 36.859375 6.390625 41.078125 11.03125 
Q 45.3125 15.671875 45.3125 23.6875 
L 45.3125 54.6875 
L 54.296875 54.6875 
L 54.296875 0 
L 45.3125 0 
L 45.3125 8.40625 
Q 42.046875 3.421875 37.71875 1 
Q 33.40625 -1.421875 27.6875 -1.421875 
Q 18.265625 -1.421875 13.375 4.4375 
Q 8.5 10.296875 8.5 21.578125 
z
M 31.109375 56 
z
" id="DejaVuSans-117"/>
      <path d="M 48.6875 27.296875 
Q 48.6875 37.203125 44.609375 42.84375 
Q 40.53125 48.484375 33.40625 48.484375 
Q 26.265625 48.484375 22.1875 42.84375 
Q 18.109375 37.203125 18.109375 27.296875 
Q 18.109375 17.390625 22.1875 11.75 
Q 26.265625 6.109375 33.40625 6.109375 
Q 40.53125 6.109375 44.609375 11.75 
Q 48.6875 17.390625 48.6875 27.296875 
z
M 18.109375 46.390625 
Q 20.953125 51.265625 25.265625 53.625 
Q 29.59375 56 35.59375 56 
Q 45.5625 56 51.78125 48.09375 
Q 58.015625 40.1875 58.015625 27.296875 
Q 58.015625 14.40625 51.78125 6.484375 
Q 45.5625 -1.421875 35.59375 -1.421875 
Q 29.59375 -1.421875 25.265625 0.953125 
Q 20.953125 3.328125 18.109375 8.203125 
L 18.109375 0 
L 9.078125 0 
L 9.078125 75.984375 
L 18.109375 75.984375 
z
" id="DejaVuSans-98"/>
      <path d="M 56.203125 29.59375 
L 56.203125 25.203125 
L 14.890625 25.203125 
Q 15.484375 15.921875 20.484375 11.0625 
Q 25.484375 6.203125 34.421875 6.203125 
Q 39.59375 6.203125 44.453125 7.46875 
Q 49.3125 8.734375 54.109375 11.28125 
L 54.109375 2.78125 
Q 49.265625 0.734375 44.1875 -0.34375 
Q 39.109375 -1.421875 33.890625 -1.421875 
Q 20.796875 -1.421875 13.15625 6.1875 
Q 5.515625 13.8125 5.515625 26.8125 
Q 5.515625 40.234375 12.765625 48.109375 
Q 20.015625 56 32.328125 56 
Q 43.359375 56 49.78125 48.890625 
Q 56.203125 41.796875 56.203125 29.59375 
z
M 47.21875 32.234375 
Q 47.125 39.59375 43.09375 43.984375 
Q 39.0625 48.390625 32.421875 48.390625 
Q 24.90625 48.390625 20.390625 44.140625 
Q 15.875 39.890625 15.1875 32.171875 
z
" id="DejaVuSans-101"/>
      <path d="M 41.109375 46.296875 
Q 39.59375 47.171875 37.8125 47.578125 
Q 36.03125 48 33.890625 48 
Q 26.265625 48 22.1875 43.046875 
Q 18.109375 38.09375 18.109375 28.8125 
L 18.109375 0 
L 9.078125 0 
L 9.078125 54.6875 
L 18.109375 54.6875 
L 18.109375 46.1875 
Q 20.953125 51.171875 25.484375 53.578125 
Q 30.03125 56 36.53125 56 
Q 37.453125 56 38.578125 55.875 
Q 39.703125 55.765625 41.0625 55.515625 
z
" id="DejaVuSans-114"/>
      <path d="M 30.609375 48.390625 
Q 23.390625 48.390625 19.1875 42.75 
Q 14.984375 37.109375 14.984375 27.296875 
Q 14.984375 17.484375 19.15625 11.84375 
Q 23.34375 6.203125 30.609375 6.203125 
Q 37.796875 6.203125 41.984375 11.859375 
Q 46.1875 17.53125 46.1875 27.296875 
Q 46.1875 37.015625 41.984375 42.703125 
Q 37.796875 48.390625 30.609375 48.390625 
z
M 30.609375 56 
Q 42.328125 56 49.015625 48.375 
Q 55.71875 40.765625 55.71875 27.296875 
Q 55.71875 13.875 49.015625 6.21875 
Q 42.328125 -1.421875 30.609375 -1.421875 
Q 18.84375 -1.421875 12.171875 6.21875 
Q 5.515625 13.875 5.515625 27.296875 
Q 5.515625 40.765625 12.171875 48.375 
Q 18.84375 56 30.609375 56 
z
" id="DejaVuSans-111"/>
      <path d="M 37.109375 75.984375 
L 37.109375 68.5 
L 28.515625 68.5 
Q 23.6875 68.5 21.796875 66.546875 
Q 19.921875 64.59375 19.921875 59.515625 
L 19.921875 54.6875 
L 34.71875 54.6875 
L 34.71875 47.703125 
L 19.921875 47.703125 
L 19.921875 0 
L 10.890625 0 
L 10.890625 47.703125 
L 2.296875 47.703125 
L 2.296875 54.6875 
L 10.890625 54.6875 
L 10.890625 58.5 
Q 10.890625 67.625 15.140625 71.796875 
Q 19.390625 75.984375 28.609375 75.984375 
z
" id="DejaVuSans-102"/>
      <path d="M 34.28125 27.484375 
Q 23.390625 27.484375 19.1875 25 
Q 14.984375 22.515625 14.984375 16.5 
Q 14.984375 11.71875 18.140625 8.90625 
Q 21.296875 6.109375 26.703125 6.109375 
Q 34.1875 6.109375 38.703125 11.40625 
Q 43.21875 16.703125 43.21875 25.484375 
L 43.21875 27.484375 
z
M 52.203125 31.203125 
L 52.203125 0 
L 43.21875 0 
L 43.21875 8.296875 
Q 40.140625 3.328125 35.546875 0.953125 
Q 30.953125 -1.421875 24.3125 -1.421875 
Q 15.921875 -1.421875 10.953125 3.296875 
Q 6 8.015625 6 15.921875 
Q 6 25.140625 12.171875 29.828125 
Q 18.359375 34.515625 30.609375 34.515625 
L 43.21875 34.515625 
L 43.21875 35.40625 
Q 43.21875 41.609375 39.140625 45 
Q 35.0625 48.390625 27.6875 48.390625 
Q 23 48.390625 18.546875 47.265625 
Q 14.109375 46.140625 10.015625 43.890625 
L 10.015625 52.203125 
Q 14.9375 54.109375 19.578125 55.046875 
Q 24.21875 56 28.609375 56 
Q 40.484375 56 46.34375 49.84375 
Q 52.203125 43.703125 52.203125 31.203125 
z
" id="DejaVuSans-97"/>
      <path d="M 18.109375 8.203125 
L 18.109375 -20.796875 
L 9.078125 -20.796875 
L 9.078125 54.6875 
L 18.109375 54.6875 
L 18.109375 46.390625 
Q 20.953125 51.265625 25.265625 53.625 
Q 29.59375 56 35.59375 56 
Q 45.5625 56 51.78125 48.09375 
Q 58.015625 40.1875 58.015625 27.296875 
Q 58.015625 14.40625 51.78125 6.484375 
Q 45.5625 -1.421875 35.59375 -1.421875 
Q 29.59375 -1.421875 25.265625 0.953125 
Q 20.953125 3.328125 18.109375 8.203125 
z
M 48.6875 27.296875 
Q 48.6875 37.203125 44.609375 42.84375 
Q 40.53125 48.484375 33.40625 48.484375 
Q 26.265625 48.484375 22.1875 42.84375 
Q 18.109375 37.203125 18.109375 27.296875 
Q 18.109375 17.390625 22.1875 11.75 
Q 26.265625 6.109375 33.40625 6.109375 
Q 40.53125 6.109375 44.609375 11.75 
Q 48.6875 17.390625 48.6875 27.296875 
z
" id="DejaVuSans-112"/>
      <path d="M 9.421875 75.984375 
L 18.40625 75.984375 
L 18.40625 0 
L 9.421875 0 
z
" id="DejaVuSans-108"/>
     </defs>
     <g transform="translate(12.707812 223.395187)rotate(-90)scale(0.1 -0.1)">
      <use xlink:href="#DejaVuSans-78"/>
      <use x="74.804688" xlink:href="#DejaVuSans-117"/>
      <use x="138.183594" xlink:href="#DejaVuSans-109"/>
      <use x="235.595703" xlink:href="#DejaVuSans-98"/>
      <use x="299.072266" xlink:href="#DejaVuSans-101"/>
      <use x="360.595703" xlink:href="#DejaVuSans-114"/>
      <use x="401.708984" xlink:href="#DejaVuSans-32"/>
      <use x="433.496094" xlink:href="#DejaVuSans-111"/>
      <use x="494.677734" xlink:href="#DejaVuSans-102"/>
      <use x="529.882812" xlink:href="#DejaVuSans-32"/>
      <use x="561.669922" xlink:href="#DejaVuSans-115"/>
      <use x="613.769531" xlink:href="#DejaVuSans-97"/>
      <use x="675.048828" xlink:href="#DejaVuSans-109"/>
      <use x="772.460938" xlink:href="#DejaVuSans-112"/>
      <use x="835.9375" xlink:href="#DejaVuSans-108"/>
      <use x="863.720703" xlink:href="#DejaVuSans-101"/>
      <use x="925.244141" xlink:href="#DejaVuSans-115"/>
     </g>
    </g>
   </g>
   <g id="line2d_15">
    <path clip-path="url(#pf21f9493e2)" d="M 201.87681 307.584 
L 201.87681 41.472 
" style="fill:none;stroke:#fe6f5e;stroke-dasharray:5.55,2.4;stroke-dashoffset:0;stroke-width:1.5;"/>
   </g>
   <g id="line2d_16">
    <path clip-path="url(#pf21f9493e2)" d="M 201.838304 307.584 
L 201.838304 41.472 
" style="fill:none;stroke:#5e9dfe;stroke-dasharray:5.55,2.4;stroke-dashoffset:0;stroke-width:1.5;"/>
   </g>
   <g id="line2d_17">
    <path clip-path="url(#pf21f9493e2)" d="M 202.392691 307.584 
L 202.392691 41.472 
" style="fill:none;stroke:#5eedfe;stroke-dasharray:5.55,2.4;stroke-dashoffset:0;stroke-width:1.5;"/>
   </g>
   <g id="patch_303">
    <path d="M 57.6 307.584 
L 57.6 41.472 
" style="fill:none;stroke:#000000;stroke-linecap:square;stroke-linejoin:miter;stroke-width:0.8;"/>
   </g>
   <g id="patch_304">
    <path d="M 414.72 307.584 
L 414.72 41.472 
" style="fill:none;stroke:#000000;stroke-linecap:square;stroke-linejoin:miter;stroke-width:0.8;"/>
   </g>
   <g id="patch_305">
    <path d="M 57.6 307.584 
L 414.72 307.584 
" style="fill:none;stroke:#000000;stroke-linecap:square;stroke-linejoin:miter;stroke-width:0.8;"/>
   </g>
   <g id="patch_306">
    <path d="M 57.6 41.472 
L 414.72 41.472 
" style="fill:none;stroke:#000000;stroke-linecap:square;stroke-linejoin:miter;stroke-width:0.8;"/>
   </g>
   <g id="text_16">
    <!-- total samples -->
    <defs>
     <path d="M 18.3125 70.21875 
L 18.3125 54.6875 
L 36.8125 54.6875 
L 36.8125 47.703125 
L 18.3125 47.703125 
L 18.3125 18.015625 
Q 18.3125 11.328125 20.140625 9.421875 
Q 21.96875 7.515625 27.59375 7.515625 
L 36.8125 7.515625 
L 36.8125 0 
L 27.59375 0 
Q 17.1875 0 13.234375 3.875 
Q 9.28125 7.765625 9.28125 18.015625 
L 9.28125 47.703125 
L 2.6875 47.703125 
L 2.6875 54.6875 
L 9.28125 54.6875 
L 9.28125 70.21875 
z
" id="DejaVuSans-116"/>
    </defs>
    <g transform="translate(195.593437 35.472)scale(0.12 -0.12)">
     <use xlink:href="#DejaVuSans-116"/>
     <use x="39.208984" xlink:href="#DejaVuSans-111"/>
     <use x="100.390625" xlink:href="#DejaVuSans-116"/>
     <use x="139.599609" xlink:href="#DejaVuSans-97"/>
     <use x="200.878906" xlink:href="#DejaVuSans-108"/>
     <use x="228.662109" xlink:href="#DejaVuSans-32"/>
     <use x="260.449219" xlink:href="#DejaVuSans-115"/>
     <use x="312.548828" xlink:href="#DejaVuSans-97"/>
     <use x="373.828125" xlink:href="#DejaVuSans-109"/>
     <use x="471.240234" xlink:href="#DejaVuSans-112"/>
     <use x="534.716797" xlink:href="#DejaVuSans-108"/>
     <use x="562.5" xlink:href="#DejaVuSans-101"/>
     <use x="624.023438" xlink:href="#DejaVuSans-115"/>
    </g>
   </g>
   <g id="legend_1">
    <g id="patch_307">
     <path d="M 344.146563 94.062625 
L 407.72 94.062625 
Q 409.72 94.062625 409.72 92.062625 
L 409.72 48.472 
Q 409.72 46.472 407.72 46.472 
L 344.146563 46.472 
Q 342.146563 46.472 342.146563 48.472 
L 342.146563 92.062625 
Q 342.146563 94.062625 344.146563 94.062625 
z
" style="fill:#ffffff;opacity:0.8;stroke:#cccccc;stroke-linejoin:miter;"/>
    </g>
    <g id="patch_308">
     <path d="M 346.146563 58.070437 
L 366.146563 58.070437 
L 366.146563 51.070437 
L 346.146563 51.070437 
z
" style="fill:#fe6f5e;fill-opacity:0.815686;"/>
    </g>
    <g id="text_17">
     <!-- ash -->
     <defs>
      <path d="M 54.890625 33.015625 
L 54.890625 0 
L 45.90625 0 
L 45.90625 32.71875 
Q 45.90625 40.484375 42.875 44.328125 
Q 39.84375 48.1875 33.796875 48.1875 
Q 26.515625 48.1875 22.3125 43.546875 
Q 18.109375 38.921875 18.109375 30.90625 
L 18.109375 0 
L 9.078125 0 
L 9.078125 75.984375 
L 18.109375 75.984375 
L 18.109375 46.1875 
Q 21.34375 51.125 25.703125 53.5625 
Q 30.078125 56 35.796875 56 
Q 45.21875 56 50.046875 50.171875 
Q 54.890625 44.34375 54.890625 33.015625 
z
" id="DejaVuSans-104"/>
     </defs>
     <g transform="translate(374.146563 58.070437)scale(0.1 -0.1)">
      <use xlink:href="#DejaVuSans-97"/>
      <use x="61.279297" xlink:href="#DejaVuSans-115"/>
      <use x="113.378906" xlink:href="#DejaVuSans-104"/>
     </g>
    </g>
    <g id="patch_309">
     <path d="M 346.146563 72.748562 
L 366.146563 72.748562 
L 366.146563 65.748562 
L 346.146563 65.748562 
z
" style="fill:#5e9dfe;fill-opacity:0.815686;"/>
    </g>
    <g id="text_18">
     <!-- vy_ST -->
     <defs>
      <path d="M 2.984375 54.6875 
L 12.5 54.6875 
L 29.59375 8.796875 
L 46.6875 54.6875 
L 56.203125 54.6875 
L 35.6875 0 
L 23.484375 0 
z
" id="DejaVuSans-118"/>
      <path d="M 32.171875 -5.078125 
Q 28.375 -14.84375 24.75 -17.8125 
Q 21.140625 -20.796875 15.09375 -20.796875 
L 7.90625 -20.796875 
L 7.90625 -13.28125 
L 13.1875 -13.28125 
Q 16.890625 -13.28125 18.9375 -11.515625 
Q 21 -9.765625 23.484375 -3.21875 
L 25.09375 0.875 
L 2.984375 54.6875 
L 12.5 54.6875 
L 29.59375 11.921875 
L 46.6875 54.6875 
L 56.203125 54.6875 
z
" id="DejaVuSans-121"/>
      <path d="M 50.984375 -16.609375 
L 50.984375 -23.578125 
L -0.984375 -23.578125 
L -0.984375 -16.609375 
z
" id="DejaVuSans-95"/>
      <path d="M 53.515625 70.515625 
L 53.515625 60.890625 
Q 47.90625 63.578125 42.921875 64.890625 
Q 37.9375 66.21875 33.296875 66.21875 
Q 25.25 66.21875 20.875 63.09375 
Q 16.5 59.96875 16.5 54.203125 
Q 16.5 49.359375 19.40625 46.890625 
Q 22.3125 44.4375 30.421875 42.921875 
L 36.375 41.703125 
Q 47.40625 39.59375 52.65625 34.296875 
Q 57.90625 29 57.90625 20.125 
Q 57.90625 9.515625 50.796875 4.046875 
Q 43.703125 -1.421875 29.984375 -1.421875 
Q 24.8125 -1.421875 18.96875 -0.25 
Q 13.140625 0.921875 6.890625 3.21875 
L 6.890625 13.375 
Q 12.890625 10.015625 18.65625 8.296875 
Q 24.421875 6.59375 29.984375 6.59375 
Q 38.421875 6.59375 43.015625 9.90625 
Q 47.609375 13.234375 47.609375 19.390625 
Q 47.609375 24.75 44.3125 27.78125 
Q 41.015625 30.8125 33.5 32.328125 
L 27.484375 33.5 
Q 16.453125 35.6875 11.515625 40.375 
Q 6.59375 45.0625 6.59375 53.421875 
Q 6.59375 63.09375 13.40625 68.65625 
Q 20.21875 74.21875 32.171875 74.21875 
Q 37.3125 74.21875 42.625 73.28125 
Q 47.953125 72.359375 53.515625 70.515625 
z
" id="DejaVuSans-83"/>
      <path d="M -0.296875 72.90625 
L 61.375 72.90625 
L 61.375 64.59375 
L 35.5 64.59375 
L 35.5 0 
L 25.59375 0 
L 25.59375 64.59375 
L -0.296875 64.59375 
z
" id="DejaVuSans-84"/>
     </defs>
     <g transform="translate(374.146563 72.748562)scale(0.1 -0.1)">
      <use xlink:href="#DejaVuSans-118"/>
      <use x="59.179688" xlink:href="#DejaVuSans-121"/>
      <use x="118.359375" xlink:href="#DejaVuSans-95"/>
      <use x="168.359375" xlink:href="#DejaVuSans-83"/>
      <use x="231.835938" xlink:href="#DejaVuSans-84"/>
     </g>
    </g>
    <g id="patch_310">
     <path d="M 346.146563 87.704812 
L 366.146563 87.704812 
L 366.146563 80.704812 
L 346.146563 80.704812 
z
" style="fill:#5eedfe;fill-opacity:0.815686;"/>
    </g>
    <g id="text_19">
     <!-- vy_MT -->
     <defs>
      <path d="M 9.8125 72.90625 
L 24.515625 72.90625 
L 43.109375 23.296875 
L 61.8125 72.90625 
L 76.515625 72.90625 
L 76.515625 0 
L 66.890625 0 
L 66.890625 64.015625 
L 48.09375 14.015625 
L 38.1875 14.015625 
L 19.390625 64.015625 
L 19.390625 0 
L 9.8125 0 
z
" id="DejaVuSans-77"/>
     </defs>
     <g transform="translate(374.146563 87.704812)scale(0.1 -0.1)">
      <use xlink:href="#DejaVuSans-118"/>
      <use x="59.179688" xlink:href="#DejaVuSans-121"/>
      <use x="118.359375" xlink:href="#DejaVuSans-95"/>
      <use x="168.359375" xlink:href="#DejaVuSans-77"/>
      <use x="254.638672" xlink:href="#DejaVuSans-84"/>
     </g>
    </g>
   </g>
  </g>
 </g>
 <defs>
  <clipPath id="pf21f9493e2">
   <rect height="266.112" width="357.12" x="57.6" y="41.472"/>
  </clipPath>
 </defs>
</svg>
