<?xml version="1.0" encoding="utf-8" standalone="no"?>
<!DOCTYPE svg PUBLIC "-//W3C//DTD SVG 1.1//EN"
  "http://www.w3.org/Graphics/SVG/1.1/DTD/svg11.dtd">
<!-- Created with matplotlib (https://matplotlib.org/) -->
<svg height="345.6pt" version="1.1" viewBox="0 0 460.8 345.6" width="460.8pt" xmlns="http://www.w3.org/2000/svg" xmlns:xlink="http://www.w3.org/1999/xlink">
 <defs>
  <style type="text/css">
*{stroke-linecap:butt;stroke-linejoin:round;}
  </style>
 </defs>
 <g id="figure_1">
  <g id="patch_1">
   <path d="M 0 345.6 
L 460.8 345.6 
L 460.8 0 
L 0 0 
z
" style="fill:#ffffff;"/>
  </g>
  <g id="axes_1">
   <g id="patch_2">
    <path d="M 57.6 307.584 
L 414.72 307.584 
L 414.72 41.472 
L 57.6 41.472 
z
" style="fill:#ffffff;"/>
   </g>
   <g id="patch_3">
    <path clip-path="url(#pd6d2f628b5)" d="M 73.832727 307.584 
L 75.500491 307.584 
L 75.500491 306.88972 
L 73.832727 306.88972 
z
" style="fill:#fe6f5e;fill-opacity:0.815686;"/>
   </g>
   <g id="patch_4">
    <path clip-path="url(#pd6d2f628b5)" d="M 75.500491 307.584 
L 77.168254 307.584 
L 77.168254 307.084118 
L 75.500491 307.084118 
z
" style="fill:#fe6f5e;fill-opacity:0.815686;"/>
   </g>
   <g id="patch_5">
    <path clip-path="url(#pd6d2f628b5)" d="M 77.168254 307.584 
L 78.836017 307.584 
L 78.836017 306.917491 
L 77.168254 306.917491 
z
" style="fill:#fe6f5e;fill-opacity:0.815686;"/>
   </g>
   <g id="patch_6">
    <path clip-path="url(#pd6d2f628b5)" d="M 78.836017 307.584 
L 80.503781 307.584 
L 80.503781 306.695321 
L 78.836017 306.695321 
z
" style="fill:#fe6f5e;fill-opacity:0.815686;"/>
   </g>
   <g id="patch_7">
    <path clip-path="url(#pd6d2f628b5)" d="M 80.503781 307.584 
L 82.171544 307.584 
L 82.171544 307.000805 
L 80.503781 307.000805 
z
" style="fill:#fe6f5e;fill-opacity:0.815686;"/>
   </g>
   <g id="patch_8">
    <path clip-path="url(#pd6d2f628b5)" d="M 82.171544 307.584 
L 83.839307 307.584 
L 83.839307 306.778635 
L 82.171544 306.778635 
z
" style="fill:#fe6f5e;fill-opacity:0.815686;"/>
   </g>
   <g id="patch_9">
    <path clip-path="url(#pd6d2f628b5)" d="M 83.839307 307.584 
L 85.507071 307.584 
L 85.507071 307.000805 
L 83.839307 307.000805 
z
" style="fill:#fe6f5e;fill-opacity:0.815686;"/>
   </g>
   <g id="patch_10">
    <path clip-path="url(#pd6d2f628b5)" d="M 85.507071 307.584 
L 87.174834 307.584 
L 87.174834 307.000805 
L 85.507071 307.000805 
z
" style="fill:#fe6f5e;fill-opacity:0.815686;"/>
   </g>
   <g id="patch_11">
    <path clip-path="url(#pd6d2f628b5)" d="M 87.174834 307.584 
L 88.842598 307.584 
L 88.842598 307.139661 
L 87.174834 307.139661 
z
" style="fill:#fe6f5e;fill-opacity:0.815686;"/>
   </g>
   <g id="patch_12">
    <path clip-path="url(#pd6d2f628b5)" d="M 88.842598 307.584 
L 90.510361 307.584 
L 90.510361 306.806406 
L 88.842598 306.806406 
z
" style="fill:#fe6f5e;fill-opacity:0.815686;"/>
   </g>
   <g id="patch_13">
    <path clip-path="url(#pd6d2f628b5)" d="M 90.510361 307.584 
L 92.178124 307.584 
L 92.178124 306.084355 
L 90.510361 306.084355 
z
" style="fill:#fe6f5e;fill-opacity:0.815686;"/>
   </g>
   <g id="patch_14">
    <path clip-path="url(#pd6d2f628b5)" d="M 92.178124 307.584 
L 93.845888 307.584 
L 93.845888 305.306761 
L 92.178124 305.306761 
z
" style="fill:#fe6f5e;fill-opacity:0.815686;"/>
   </g>
   <g id="patch_15">
    <path clip-path="url(#pd6d2f628b5)" d="M 93.845888 307.584 
L 95.513651 307.584 
L 95.513651 302.251929 
L 93.845888 302.251929 
z
" style="fill:#fe6f5e;fill-opacity:0.815686;"/>
   </g>
   <g id="patch_16">
    <path clip-path="url(#pd6d2f628b5)" d="M 95.513651 307.584 
L 97.181414 307.584 
L 97.181414 298.919385 
L 95.513651 298.919385 
z
" style="fill:#fe6f5e;fill-opacity:0.815686;"/>
   </g>
   <g id="patch_17">
    <path clip-path="url(#pd6d2f628b5)" d="M 97.181414 307.584 
L 98.849178 307.584 
L 98.849178 294.42045 
L 97.181414 294.42045 
z
" style="fill:#fe6f5e;fill-opacity:0.815686;"/>
   </g>
   <g id="patch_18">
    <path clip-path="url(#pd6d2f628b5)" d="M 98.849178 307.584 
L 100.516941 307.584 
L 100.516941 289.088379 
L 98.849178 289.088379 
z
" style="fill:#fe6f5e;fill-opacity:0.815686;"/>
   </g>
   <g id="patch_19">
    <path clip-path="url(#pd6d2f628b5)" d="M 100.516941 307.584 
L 102.184704 307.584 
L 102.184704 279.618398 
L 100.516941 279.618398 
z
" style="fill:#fe6f5e;fill-opacity:0.815686;"/>
   </g>
   <g id="patch_20">
    <path clip-path="url(#pd6d2f628b5)" d="M 102.184704 307.584 
L 103.852468 307.584 
L 103.852468 246.459582 
L 102.184704 246.459582 
z
" style="fill:#fe6f5e;fill-opacity:0.815686;"/>
   </g>
   <g id="patch_21">
    <path clip-path="url(#pd6d2f628b5)" d="M 103.852468 307.584 
L 105.520231 307.584 
L 105.520231 190.833862 
L 103.852468 190.833862 
z
" style="fill:#fe6f5e;fill-opacity:0.815686;"/>
   </g>
   <g id="patch_22">
    <path clip-path="url(#pd6d2f628b5)" d="M 105.520231 307.584 
L 107.187995 307.584 
L 107.187995 131.292402 
L 105.520231 131.292402 
z
" style="fill:#fe6f5e;fill-opacity:0.815686;"/>
   </g>
   <g id="patch_23">
    <path clip-path="url(#pd6d2f628b5)" d="M 107.187995 307.584 
L 108.855758 307.584 
L 108.855758 87.830469 
L 107.187995 87.830469 
z
" style="fill:#fe6f5e;fill-opacity:0.815686;"/>
   </g>
   <g id="patch_24">
    <path clip-path="url(#pd6d2f628b5)" d="M 108.855758 307.584 
L 110.523521 307.584 
L 110.523521 84.359069 
L 108.855758 84.359069 
z
" style="fill:#fe6f5e;fill-opacity:0.815686;"/>
   </g>
   <g id="patch_25">
    <path clip-path="url(#pd6d2f628b5)" d="M 110.523521 307.584 
L 112.191285 307.584 
L 112.191285 91.885065 
L 110.523521 91.885065 
z
" style="fill:#fe6f5e;fill-opacity:0.815686;"/>
   </g>
   <g id="patch_26">
    <path clip-path="url(#pd6d2f628b5)" d="M 112.191285 307.584 
L 113.859048 307.584 
L 113.859048 108.575558 
L 112.191285 108.575558 
z
" style="fill:#fe6f5e;fill-opacity:0.815686;"/>
   </g>
   <g id="patch_27">
    <path clip-path="url(#pd6d2f628b5)" d="M 113.859048 307.584 
L 115.526811 307.584 
L 115.526811 129.403961 
L 113.859048 129.403961 
z
" style="fill:#fe6f5e;fill-opacity:0.815686;"/>
   </g>
   <g id="patch_28">
    <path clip-path="url(#pd6d2f628b5)" d="M 115.526811 307.584 
L 117.194575 307.584 
L 117.194575 142.984079 
L 115.526811 142.984079 
z
" style="fill:#fe6f5e;fill-opacity:0.815686;"/>
   </g>
   <g id="patch_29">
    <path clip-path="url(#pd6d2f628b5)" d="M 117.194575 307.584 
L 118.862338 307.584 
L 118.862338 163.673625 
L 117.194575 163.673625 
z
" style="fill:#fe6f5e;fill-opacity:0.815686;"/>
   </g>
   <g id="patch_30">
    <path clip-path="url(#pd6d2f628b5)" d="M 118.862338 307.584 
L 120.530102 307.584 
L 120.530102 170.449799 
L 118.862338 170.449799 
z
" style="fill:#fe6f5e;fill-opacity:0.815686;"/>
   </g>
   <g id="patch_31">
    <path clip-path="url(#pd6d2f628b5)" d="M 120.530102 307.584 
L 122.197865 307.584 
L 122.197865 185.751732 
L 120.530102 185.751732 
z
" style="fill:#fe6f5e;fill-opacity:0.815686;"/>
   </g>
   <g id="patch_32">
    <path clip-path="url(#pd6d2f628b5)" d="M 122.197865 307.584 
L 123.865628 307.584 
L 123.865628 196.471416 
L 122.197865 196.471416 
z
" style="fill:#fe6f5e;fill-opacity:0.815686;"/>
   </g>
   <g id="patch_33">
    <path clip-path="url(#pd6d2f628b5)" d="M 123.865628 307.584 
L 125.533392 307.584 
L 125.533392 213.217452 
L 123.865628 213.217452 
z
" style="fill:#fe6f5e;fill-opacity:0.815686;"/>
   </g>
   <g id="patch_34">
    <path clip-path="url(#pd6d2f628b5)" d="M 125.533392 307.584 
L 127.201155 307.584 
L 127.201155 224.659187 
L 125.533392 224.659187 
z
" style="fill:#fe6f5e;fill-opacity:0.815686;"/>
   </g>
   <g id="patch_35">
    <path clip-path="url(#pd6d2f628b5)" d="M 127.201155 307.584 
L 128.868918 307.584 
L 128.868918 236.628576 
L 127.201155 236.628576 
z
" style="fill:#fe6f5e;fill-opacity:0.815686;"/>
   </g>
   <g id="patch_36">
    <path clip-path="url(#pd6d2f628b5)" d="M 128.868918 307.584 
L 130.536682 307.584 
L 130.536682 246.209641 
L 128.868918 246.209641 
z
" style="fill:#fe6f5e;fill-opacity:0.815686;"/>
   </g>
   <g id="patch_37">
    <path clip-path="url(#pd6d2f628b5)" d="M 130.536682 307.584 
L 132.204445 307.584 
L 132.204445 256.207274 
L 130.536682 256.207274 
z
" style="fill:#fe6f5e;fill-opacity:0.815686;"/>
   </g>
   <g id="patch_38">
    <path clip-path="url(#pd6d2f628b5)" d="M 132.204445 307.584 
L 133.872208 307.584 
L 133.872208 265.149602 
L 132.204445 265.149602 
z
" style="fill:#fe6f5e;fill-opacity:0.815686;"/>
   </g>
   <g id="patch_39">
    <path clip-path="url(#pd6d2f628b5)" d="M 133.872208 307.584 
L 135.539972 307.584 
L 135.539972 272.120174 
L 133.872208 272.120174 
z
" style="fill:#fe6f5e;fill-opacity:0.815686;"/>
   </g>
   <g id="patch_40">
    <path clip-path="url(#pd6d2f628b5)" d="M 135.539972 307.584 
L 137.207735 307.584 
L 137.207735 276.42471 
L 135.539972 276.42471 
z
" style="fill:#fe6f5e;fill-opacity:0.815686;"/>
   </g>
   <g id="patch_41">
    <path clip-path="url(#pd6d2f628b5)" d="M 137.207735 307.584 
L 138.875499 307.584 
L 138.875499 282.923172 
L 137.207735 282.923172 
z
" style="fill:#fe6f5e;fill-opacity:0.815686;"/>
   </g>
   <g id="patch_42">
    <path clip-path="url(#pd6d2f628b5)" d="M 138.875499 307.584 
L 140.543262 307.584 
L 140.543262 288.505183 
L 138.875499 288.505183 
z
" style="fill:#fe6f5e;fill-opacity:0.815686;"/>
   </g>
   <g id="patch_43">
    <path clip-path="url(#pd6d2f628b5)" d="M 140.543262 307.584 
L 142.211025 307.584 
L 142.211025 291.532245 
L 140.543262 291.532245 
z
" style="fill:#fe6f5e;fill-opacity:0.815686;"/>
   </g>
   <g id="patch_44">
    <path clip-path="url(#pd6d2f628b5)" d="M 142.211025 307.584 
L 143.878789 307.584 
L 143.878789 294.087195 
L 142.211025 294.087195 
z
" style="fill:#fe6f5e;fill-opacity:0.815686;"/>
   </g>
   <g id="patch_45">
    <path clip-path="url(#pd6d2f628b5)" d="M 143.878789 307.584 
L 145.546552 307.584 
L 145.546552 297.614138 
L 143.878789 297.614138 
z
" style="fill:#fe6f5e;fill-opacity:0.815686;"/>
   </g>
   <g id="patch_46">
    <path clip-path="url(#pd6d2f628b5)" d="M 145.546552 307.584 
L 147.214315 307.584 
L 147.214315 300.113546 
L 145.546552 300.113546 
z
" style="fill:#fe6f5e;fill-opacity:0.815686;"/>
   </g>
   <g id="patch_47">
    <path clip-path="url(#pd6d2f628b5)" d="M 147.214315 307.584 
L 148.882079 307.584 
L 148.882079 301.696505 
L 147.214315 301.696505 
z
" style="fill:#fe6f5e;fill-opacity:0.815686;"/>
   </g>
   <g id="patch_48">
    <path clip-path="url(#pd6d2f628b5)" d="M 148.882079 307.584 
L 150.549842 307.584 
L 150.549842 302.835124 
L 148.882079 302.835124 
z
" style="fill:#fe6f5e;fill-opacity:0.815686;"/>
   </g>
   <g id="patch_49">
    <path clip-path="url(#pd6d2f628b5)" d="M 150.549842 307.584 
L 152.217605 307.584 
L 152.217605 303.945972 
L 150.549842 303.945972 
z
" style="fill:#fe6f5e;fill-opacity:0.815686;"/>
   </g>
   <g id="patch_50">
    <path clip-path="url(#pd6d2f628b5)" d="M 152.217605 307.584 
L 153.885369 307.584 
L 153.885369 305.056821 
L 152.217605 305.056821 
z
" style="fill:#fe6f5e;fill-opacity:0.815686;"/>
   </g>
   <g id="patch_51">
    <path clip-path="url(#pd6d2f628b5)" d="M 153.885369 307.584 
L 155.553132 307.584 
L 155.553132 305.029049 
L 153.885369 305.029049 
z
" style="fill:#fe6f5e;fill-opacity:0.815686;"/>
   </g>
   <g id="patch_52">
    <path clip-path="url(#pd6d2f628b5)" d="M 155.553132 307.584 
L 157.220896 307.584 
L 157.220896 305.640016 
L 155.553132 305.640016 
z
" style="fill:#fe6f5e;fill-opacity:0.815686;"/>
   </g>
   <g id="patch_53">
    <path clip-path="url(#pd6d2f628b5)" d="M 157.220896 307.584 
L 158.888659 307.584 
L 158.888659 306.028813 
L 157.220896 306.028813 
z
" style="fill:#fe6f5e;fill-opacity:0.815686;"/>
   </g>
   <g id="patch_54">
    <path clip-path="url(#pd6d2f628b5)" d="M 158.888659 307.584 
L 160.556422 307.584 
L 160.556422 306.639779 
L 158.888659 306.639779 
z
" style="fill:#fe6f5e;fill-opacity:0.815686;"/>
   </g>
   <g id="patch_55">
    <path clip-path="url(#pd6d2f628b5)" d="M 160.556422 307.584 
L 162.224186 307.584 
L 162.224186 306.639779 
L 160.556422 306.639779 
z
" style="fill:#fe6f5e;fill-opacity:0.815686;"/>
   </g>
   <g id="patch_56">
    <path clip-path="url(#pd6d2f628b5)" d="M 162.224186 307.584 
L 163.891949 307.584 
L 163.891949 307.000805 
L 162.224186 307.000805 
z
" style="fill:#fe6f5e;fill-opacity:0.815686;"/>
   </g>
   <g id="patch_57">
    <path clip-path="url(#pd6d2f628b5)" d="M 163.891949 307.584 
L 165.559712 307.584 
L 165.559712 307.028576 
L 163.891949 307.028576 
z
" style="fill:#fe6f5e;fill-opacity:0.815686;"/>
   </g>
   <g id="patch_58">
    <path clip-path="url(#pd6d2f628b5)" d="M 165.559712 307.584 
L 167.227476 307.584 
L 167.227476 307.278517 
L 165.559712 307.278517 
z
" style="fill:#fe6f5e;fill-opacity:0.815686;"/>
   </g>
   <g id="patch_59">
    <path clip-path="url(#pd6d2f628b5)" d="M 167.227476 307.584 
L 168.895239 307.584 
L 168.895239 307.278517 
L 167.227476 307.278517 
z
" style="fill:#fe6f5e;fill-opacity:0.815686;"/>
   </g>
   <g id="patch_60">
    <path clip-path="url(#pd6d2f628b5)" d="M 168.895239 307.584 
L 170.563002 307.584 
L 170.563002 307.334059 
L 168.895239 307.334059 
z
" style="fill:#fe6f5e;fill-opacity:0.815686;"/>
   </g>
   <g id="patch_61">
    <path clip-path="url(#pd6d2f628b5)" d="M 170.563002 307.584 
L 172.230766 307.584 
L 172.230766 307.334059 
L 170.563002 307.334059 
z
" style="fill:#fe6f5e;fill-opacity:0.815686;"/>
   </g>
   <g id="patch_62">
    <path clip-path="url(#pd6d2f628b5)" d="M 172.230766 307.584 
L 173.898529 307.584 
L 173.898529 307.445144 
L 172.230766 307.445144 
z
" style="fill:#fe6f5e;fill-opacity:0.815686;"/>
   </g>
   <g id="patch_63">
    <path clip-path="url(#pd6d2f628b5)" d="M 173.898529 307.584 
L 175.566293 307.584 
L 175.566293 307.500686 
L 173.898529 307.500686 
z
" style="fill:#fe6f5e;fill-opacity:0.815686;"/>
   </g>
   <g id="patch_64">
    <path clip-path="url(#pd6d2f628b5)" d="M 175.566293 307.584 
L 177.234056 307.584 
L 177.234056 307.528458 
L 175.566293 307.528458 
z
" style="fill:#fe6f5e;fill-opacity:0.815686;"/>
   </g>
   <g id="patch_65">
    <path clip-path="url(#pd6d2f628b5)" d="M 177.234056 307.584 
L 178.901819 307.584 
L 178.901819 307.556229 
L 177.234056 307.556229 
z
" style="fill:#fe6f5e;fill-opacity:0.815686;"/>
   </g>
   <g id="patch_66">
    <path clip-path="url(#pd6d2f628b5)" d="M 178.901819 307.584 
L 180.569583 307.584 
L 180.569583 307.472915 
L 178.901819 307.472915 
z
" style="fill:#fe6f5e;fill-opacity:0.815686;"/>
   </g>
   <g id="patch_67">
    <path clip-path="url(#pd6d2f628b5)" d="M 180.569583 307.584 
L 182.237346 307.584 
L 182.237346 307.556229 
L 180.569583 307.556229 
z
" style="fill:#fe6f5e;fill-opacity:0.815686;"/>
   </g>
   <g id="patch_68">
    <path clip-path="url(#pd6d2f628b5)" d="M 182.237346 307.584 
L 183.905109 307.584 
L 183.905109 307.472915 
L 182.237346 307.472915 
z
" style="fill:#fe6f5e;fill-opacity:0.815686;"/>
   </g>
   <g id="patch_69">
    <path clip-path="url(#pd6d2f628b5)" d="M 183.905109 307.584 
L 185.572873 307.584 
L 185.572873 307.528458 
L 183.905109 307.528458 
z
" style="fill:#fe6f5e;fill-opacity:0.815686;"/>
   </g>
   <g id="patch_70">
    <path clip-path="url(#pd6d2f628b5)" d="M 185.572873 307.584 
L 187.240636 307.584 
L 187.240636 307.556229 
L 185.572873 307.556229 
z
" style="fill:#fe6f5e;fill-opacity:0.815686;"/>
   </g>
   <g id="patch_71">
    <path clip-path="url(#pd6d2f628b5)" d="M 187.240636 307.584 
L 188.9084 307.584 
L 188.9084 307.528458 
L 187.240636 307.528458 
z
" style="fill:#fe6f5e;fill-opacity:0.815686;"/>
   </g>
   <g id="patch_72">
    <path clip-path="url(#pd6d2f628b5)" d="M 188.9084 307.584 
L 190.576163 307.584 
L 190.576163 307.556229 
L 188.9084 307.556229 
z
" style="fill:#fe6f5e;fill-opacity:0.815686;"/>
   </g>
   <g id="patch_73">
    <path clip-path="url(#pd6d2f628b5)" d="M 190.576163 307.584 
L 192.243926 307.584 
L 192.243926 307.500686 
L 190.576163 307.500686 
z
" style="fill:#fe6f5e;fill-opacity:0.815686;"/>
   </g>
   <g id="patch_74">
    <path clip-path="url(#pd6d2f628b5)" d="M 192.243926 307.584 
L 193.91169 307.584 
L 193.91169 307.528458 
L 192.243926 307.528458 
z
" style="fill:#fe6f5e;fill-opacity:0.815686;"/>
   </g>
   <g id="patch_75">
    <path clip-path="url(#pd6d2f628b5)" d="M 193.91169 307.584 
L 195.579453 307.584 
L 195.579453 307.472915 
L 193.91169 307.472915 
z
" style="fill:#fe6f5e;fill-opacity:0.815686;"/>
   </g>
   <g id="patch_76">
    <path clip-path="url(#pd6d2f628b5)" d="M 195.579453 307.584 
L 197.247216 307.584 
L 197.247216 307.556229 
L 195.579453 307.556229 
z
" style="fill:#fe6f5e;fill-opacity:0.815686;"/>
   </g>
   <g id="patch_77">
    <path clip-path="url(#pd6d2f628b5)" d="M 197.247216 307.584 
L 198.91498 307.584 
L 198.91498 307.500686 
L 197.247216 307.500686 
z
" style="fill:#fe6f5e;fill-opacity:0.815686;"/>
   </g>
   <g id="patch_78">
    <path clip-path="url(#pd6d2f628b5)" d="M 198.91498 307.584 
L 200.582743 307.584 
L 200.582743 307.528458 
L 198.91498 307.528458 
z
" style="fill:#fe6f5e;fill-opacity:0.815686;"/>
   </g>
   <g id="patch_79">
    <path clip-path="url(#pd6d2f628b5)" d="M 200.582743 307.584 
L 202.250506 307.584 
L 202.250506 307.584 
L 200.582743 307.584 
z
" style="fill:#fe6f5e;fill-opacity:0.815686;"/>
   </g>
   <g id="patch_80">
    <path clip-path="url(#pd6d2f628b5)" d="M 202.250506 307.584 
L 203.91827 307.584 
L 203.91827 307.472915 
L 202.250506 307.472915 
z
" style="fill:#fe6f5e;fill-opacity:0.815686;"/>
   </g>
   <g id="patch_81">
    <path clip-path="url(#pd6d2f628b5)" d="M 203.91827 307.584 
L 205.586033 307.584 
L 205.586033 307.528458 
L 203.91827 307.528458 
z
" style="fill:#fe6f5e;fill-opacity:0.815686;"/>
   </g>
   <g id="patch_82">
    <path clip-path="url(#pd6d2f628b5)" d="M 205.586033 307.584 
L 207.253797 307.584 
L 207.253797 307.472915 
L 205.586033 307.472915 
z
" style="fill:#fe6f5e;fill-opacity:0.815686;"/>
   </g>
   <g id="patch_83">
    <path clip-path="url(#pd6d2f628b5)" d="M 207.253797 307.584 
L 208.92156 307.584 
L 208.92156 307.556229 
L 207.253797 307.556229 
z
" style="fill:#fe6f5e;fill-opacity:0.815686;"/>
   </g>
   <g id="patch_84">
    <path clip-path="url(#pd6d2f628b5)" d="M 208.92156 307.584 
L 210.589323 307.584 
L 210.589323 307.584 
L 208.92156 307.584 
z
" style="fill:#fe6f5e;fill-opacity:0.815686;"/>
   </g>
   <g id="patch_85">
    <path clip-path="url(#pd6d2f628b5)" d="M 210.589323 307.584 
L 212.257087 307.584 
L 212.257087 307.528458 
L 210.589323 307.528458 
z
" style="fill:#fe6f5e;fill-opacity:0.815686;"/>
   </g>
   <g id="patch_86">
    <path clip-path="url(#pd6d2f628b5)" d="M 212.257087 307.584 
L 213.92485 307.584 
L 213.92485 307.556229 
L 212.257087 307.556229 
z
" style="fill:#fe6f5e;fill-opacity:0.815686;"/>
   </g>
   <g id="patch_87">
    <path clip-path="url(#pd6d2f628b5)" d="M 213.92485 307.584 
L 215.592613 307.584 
L 215.592613 307.556229 
L 213.92485 307.556229 
z
" style="fill:#fe6f5e;fill-opacity:0.815686;"/>
   </g>
   <g id="patch_88">
    <path clip-path="url(#pd6d2f628b5)" d="M 215.592613 307.584 
L 217.260377 307.584 
L 217.260377 307.528458 
L 215.592613 307.528458 
z
" style="fill:#fe6f5e;fill-opacity:0.815686;"/>
   </g>
   <g id="patch_89">
    <path clip-path="url(#pd6d2f628b5)" d="M 217.260377 307.584 
L 218.92814 307.584 
L 218.92814 307.584 
L 217.260377 307.584 
z
" style="fill:#fe6f5e;fill-opacity:0.815686;"/>
   </g>
   <g id="patch_90">
    <path clip-path="url(#pd6d2f628b5)" d="M 218.92814 307.584 
L 220.595903 307.584 
L 220.595903 307.584 
L 218.92814 307.584 
z
" style="fill:#fe6f5e;fill-opacity:0.815686;"/>
   </g>
   <g id="patch_91">
    <path clip-path="url(#pd6d2f628b5)" d="M 220.595903 307.584 
L 222.263667 307.584 
L 222.263667 307.584 
L 220.595903 307.584 
z
" style="fill:#fe6f5e;fill-opacity:0.815686;"/>
   </g>
   <g id="patch_92">
    <path clip-path="url(#pd6d2f628b5)" d="M 222.263667 307.584 
L 223.93143 307.584 
L 223.93143 307.528458 
L 222.263667 307.528458 
z
" style="fill:#fe6f5e;fill-opacity:0.815686;"/>
   </g>
   <g id="patch_93">
    <path clip-path="url(#pd6d2f628b5)" d="M 223.93143 307.584 
L 225.599194 307.584 
L 225.599194 307.528458 
L 223.93143 307.528458 
z
" style="fill:#fe6f5e;fill-opacity:0.815686;"/>
   </g>
   <g id="patch_94">
    <path clip-path="url(#pd6d2f628b5)" d="M 225.599194 307.584 
L 227.266957 307.584 
L 227.266957 307.528458 
L 225.599194 307.528458 
z
" style="fill:#fe6f5e;fill-opacity:0.815686;"/>
   </g>
   <g id="patch_95">
    <path clip-path="url(#pd6d2f628b5)" d="M 227.266957 307.584 
L 228.93472 307.584 
L 228.93472 307.556229 
L 227.266957 307.556229 
z
" style="fill:#fe6f5e;fill-opacity:0.815686;"/>
   </g>
   <g id="patch_96">
    <path clip-path="url(#pd6d2f628b5)" d="M 228.93472 307.584 
L 230.602484 307.584 
L 230.602484 307.556229 
L 228.93472 307.556229 
z
" style="fill:#fe6f5e;fill-opacity:0.815686;"/>
   </g>
   <g id="patch_97">
    <path clip-path="url(#pd6d2f628b5)" d="M 230.602484 307.584 
L 232.270247 307.584 
L 232.270247 307.584 
L 230.602484 307.584 
z
" style="fill:#fe6f5e;fill-opacity:0.815686;"/>
   </g>
   <g id="patch_98">
    <path clip-path="url(#pd6d2f628b5)" d="M 232.270247 307.584 
L 233.93801 307.584 
L 233.93801 307.556229 
L 232.270247 307.556229 
z
" style="fill:#fe6f5e;fill-opacity:0.815686;"/>
   </g>
   <g id="patch_99">
    <path clip-path="url(#pd6d2f628b5)" d="M 233.93801 307.584 
L 235.605774 307.584 
L 235.605774 307.556229 
L 233.93801 307.556229 
z
" style="fill:#fe6f5e;fill-opacity:0.815686;"/>
   </g>
   <g id="patch_100">
    <path clip-path="url(#pd6d2f628b5)" d="M 235.605774 307.584 
L 237.273537 307.584 
L 237.273537 307.584 
L 235.605774 307.584 
z
" style="fill:#fe6f5e;fill-opacity:0.815686;"/>
   </g>
   <g id="patch_101">
    <path clip-path="url(#pd6d2f628b5)" d="M 237.273537 307.584 
L 238.9413 307.584 
L 238.9413 307.528458 
L 237.273537 307.528458 
z
" style="fill:#fe6f5e;fill-opacity:0.815686;"/>
   </g>
   <g id="patch_102">
    <path clip-path="url(#pd6d2f628b5)" d="M 238.9413 307.584 
L 240.609064 307.584 
L 240.609064 307.500686 
L 238.9413 307.500686 
z
" style="fill:#fe6f5e;fill-opacity:0.815686;"/>
   </g>
   <g id="patch_103">
    <path clip-path="url(#pd6d2f628b5)" d="M 109.04389 307.584 
L 111.345963 307.584 
L 111.345963 307.500686 
L 109.04389 307.500686 
z
" style="fill:#5e9dfe;fill-opacity:0.815686;"/>
   </g>
   <g id="patch_104">
    <path clip-path="url(#pd6d2f628b5)" d="M 111.345963 307.584 
L 113.648035 307.584 
L 113.648035 307.556229 
L 111.345963 307.556229 
z
" style="fill:#5e9dfe;fill-opacity:0.815686;"/>
   </g>
   <g id="patch_105">
    <path clip-path="url(#pd6d2f628b5)" d="M 113.648035 307.584 
L 115.950108 307.584 
L 115.950108 307.528458 
L 113.648035 307.528458 
z
" style="fill:#5e9dfe;fill-opacity:0.815686;"/>
   </g>
   <g id="patch_106">
    <path clip-path="url(#pd6d2f628b5)" d="M 115.950108 307.584 
L 118.252181 307.584 
L 118.252181 307.417373 
L 115.950108 307.417373 
z
" style="fill:#5e9dfe;fill-opacity:0.815686;"/>
   </g>
   <g id="patch_107">
    <path clip-path="url(#pd6d2f628b5)" d="M 118.252181 307.584 
L 120.554254 307.584 
L 120.554254 307.528458 
L 118.252181 307.528458 
z
" style="fill:#5e9dfe;fill-opacity:0.815686;"/>
   </g>
   <g id="patch_108">
    <path clip-path="url(#pd6d2f628b5)" d="M 120.554254 307.584 
L 122.856326 307.584 
L 122.856326 307.334059 
L 120.554254 307.334059 
z
" style="fill:#5e9dfe;fill-opacity:0.815686;"/>
   </g>
   <g id="patch_109">
    <path clip-path="url(#pd6d2f628b5)" d="M 122.856326 307.584 
L 125.158399 307.584 
L 125.158399 307.167432 
L 122.856326 307.167432 
z
" style="fill:#5e9dfe;fill-opacity:0.815686;"/>
   </g>
   <g id="patch_110">
    <path clip-path="url(#pd6d2f628b5)" d="M 125.158399 307.584 
L 127.460472 307.584 
L 127.460472 307.167432 
L 125.158399 307.167432 
z
" style="fill:#5e9dfe;fill-opacity:0.815686;"/>
   </g>
   <g id="patch_111">
    <path clip-path="url(#pd6d2f628b5)" d="M 127.460472 307.584 
L 129.762545 307.584 
L 129.762545 306.528694 
L 127.460472 306.528694 
z
" style="fill:#5e9dfe;fill-opacity:0.815686;"/>
   </g>
   <g id="patch_112">
    <path clip-path="url(#pd6d2f628b5)" d="M 129.762545 307.584 
L 132.064617 307.584 
L 132.064617 305.806643 
L 129.762545 305.806643 
z
" style="fill:#5e9dfe;fill-opacity:0.815686;"/>
   </g>
   <g id="patch_113">
    <path clip-path="url(#pd6d2f628b5)" d="M 132.064617 307.584 
L 134.36669 307.584 
L 134.36669 305.50116 
L 132.064617 305.50116 
z
" style="fill:#5e9dfe;fill-opacity:0.815686;"/>
   </g>
   <g id="patch_114">
    <path clip-path="url(#pd6d2f628b5)" d="M 134.36669 307.584 
L 136.668763 307.584 
L 136.668763 305.445617 
L 134.36669 305.445617 
z
" style="fill:#5e9dfe;fill-opacity:0.815686;"/>
   </g>
   <g id="patch_115">
    <path clip-path="url(#pd6d2f628b5)" d="M 136.668763 307.584 
L 138.970836 307.584 
L 138.970836 305.223448 
L 136.668763 305.223448 
z
" style="fill:#5e9dfe;fill-opacity:0.815686;"/>
   </g>
   <g id="patch_116">
    <path clip-path="url(#pd6d2f628b5)" d="M 138.970836 307.584 
L 141.272908 307.584 
L 141.272908 304.529168 
L 138.970836 304.529168 
z
" style="fill:#5e9dfe;fill-opacity:0.815686;"/>
   </g>
   <g id="patch_117">
    <path clip-path="url(#pd6d2f628b5)" d="M 141.272908 307.584 
L 143.574981 307.584 
L 143.574981 304.501396 
L 141.272908 304.501396 
z
" style="fill:#5e9dfe;fill-opacity:0.815686;"/>
   </g>
   <g id="patch_118">
    <path clip-path="url(#pd6d2f628b5)" d="M 143.574981 307.584 
L 145.877054 307.584 
L 145.877054 302.779582 
L 143.574981 302.779582 
z
" style="fill:#5e9dfe;fill-opacity:0.815686;"/>
   </g>
   <g id="patch_119">
    <path clip-path="url(#pd6d2f628b5)" d="M 145.877054 307.584 
L 148.179127 307.584 
L 148.179127 300.946682 
L 145.877054 300.946682 
z
" style="fill:#5e9dfe;fill-opacity:0.815686;"/>
   </g>
   <g id="patch_120">
    <path clip-path="url(#pd6d2f628b5)" d="M 148.179127 307.584 
L 150.481199 307.584 
L 150.481199 298.697215 
L 148.179127 298.697215 
z
" style="fill:#5e9dfe;fill-opacity:0.815686;"/>
   </g>
   <g id="patch_121">
    <path clip-path="url(#pd6d2f628b5)" d="M 150.481199 307.584 
L 152.783272 307.584 
L 152.783272 294.642619 
L 150.481199 294.642619 
z
" style="fill:#5e9dfe;fill-opacity:0.815686;"/>
   </g>
   <g id="patch_122">
    <path clip-path="url(#pd6d2f628b5)" d="M 152.783272 307.584 
L 155.085345 307.584 
L 155.085345 290.060371 
L 152.783272 290.060371 
z
" style="fill:#5e9dfe;fill-opacity:0.815686;"/>
   </g>
   <g id="patch_123">
    <path clip-path="url(#pd6d2f628b5)" d="M 155.085345 307.584 
L 157.387418 307.584 
L 157.387418 283.173112 
L 155.085345 283.173112 
z
" style="fill:#5e9dfe;fill-opacity:0.815686;"/>
   </g>
   <g id="patch_124">
    <path clip-path="url(#pd6d2f628b5)" d="M 157.387418 307.584 
L 159.68949 307.584 
L 159.68949 273.231022 
L 157.387418 273.231022 
z
" style="fill:#5e9dfe;fill-opacity:0.815686;"/>
   </g>
   <g id="patch_125">
    <path clip-path="url(#pd6d2f628b5)" d="M 159.68949 307.584 
L 161.991563 307.584 
L 161.991563 260.0397 
L 159.68949 260.0397 
z
" style="fill:#5e9dfe;fill-opacity:0.815686;"/>
   </g>
   <g id="patch_126">
    <path clip-path="url(#pd6d2f628b5)" d="M 161.991563 307.584 
L 164.293636 307.584 
L 164.293636 244.79331 
L 161.991563 244.79331 
z
" style="fill:#5e9dfe;fill-opacity:0.815686;"/>
   </g>
   <g id="patch_127">
    <path clip-path="url(#pd6d2f628b5)" d="M 164.293636 307.584 
L 166.595709 307.584 
L 166.595709 218.71615 
L 164.293636 218.71615 
z
" style="fill:#5e9dfe;fill-opacity:0.815686;"/>
   </g>
   <g id="patch_128">
    <path clip-path="url(#pd6d2f628b5)" d="M 166.595709 307.584 
L 168.897781 307.584 
L 168.897781 187.029207 
L 166.595709 187.029207 
z
" style="fill:#5e9dfe;fill-opacity:0.815686;"/>
   </g>
   <g id="patch_129">
    <path clip-path="url(#pd6d2f628b5)" d="M 168.897781 307.584 
L 171.199854 307.584 
L 171.199854 158.619266 
L 168.897781 158.619266 
z
" style="fill:#5e9dfe;fill-opacity:0.815686;"/>
   </g>
   <g id="patch_130">
    <path clip-path="url(#pd6d2f628b5)" d="M 171.199854 307.584 
L 173.501927 307.584 
L 173.501927 124.266288 
L 171.199854 124.266288 
z
" style="fill:#5e9dfe;fill-opacity:0.815686;"/>
   </g>
   <g id="patch_131">
    <path clip-path="url(#pd6d2f628b5)" d="M 173.501927 307.584 
L 175.804 307.584 
L 175.804 114.074256 
L 173.501927 114.074256 
z
" style="fill:#5e9dfe;fill-opacity:0.815686;"/>
   </g>
   <g id="patch_132">
    <path clip-path="url(#pd6d2f628b5)" d="M 175.804 307.584 
L 178.106072 307.584 
L 178.106072 109.297609 
L 175.804 109.297609 
z
" style="fill:#5e9dfe;fill-opacity:0.815686;"/>
   </g>
   <g id="patch_133">
    <path clip-path="url(#pd6d2f628b5)" d="M 178.106072 307.584 
L 180.408145 307.584 
L 180.408145 104.076623 
L 178.106072 104.076623 
z
" style="fill:#5e9dfe;fill-opacity:0.815686;"/>
   </g>
   <g id="patch_134">
    <path clip-path="url(#pd6d2f628b5)" d="M 180.408145 307.584 
L 182.710218 307.584 
L 182.710218 106.9926 
L 180.408145 106.9926 
z
" style="fill:#5e9dfe;fill-opacity:0.815686;"/>
   </g>
   <g id="patch_135">
    <path clip-path="url(#pd6d2f628b5)" d="M 182.710218 307.584 
L 185.012291 307.584 
L 185.012291 123.183211 
L 182.710218 123.183211 
z
" style="fill:#5e9dfe;fill-opacity:0.815686;"/>
   </g>
   <g id="patch_136">
    <path clip-path="url(#pd6d2f628b5)" d="M 185.012291 307.584 
L 187.314363 307.584 
L 187.314363 136.180134 
L 185.012291 136.180134 
z
" style="fill:#5e9dfe;fill-opacity:0.815686;"/>
   </g>
   <g id="patch_137">
    <path clip-path="url(#pd6d2f628b5)" d="M 187.314363 307.584 
L 189.616436 307.584 
L 189.616436 164.451219 
L 187.314363 164.451219 
z
" style="fill:#5e9dfe;fill-opacity:0.815686;"/>
   </g>
   <g id="patch_138">
    <path clip-path="url(#pd6d2f628b5)" d="M 189.616436 307.584 
L 191.918509 307.584 
L 191.918509 183.585578 
L 189.616436 183.585578 
z
" style="fill:#5e9dfe;fill-opacity:0.815686;"/>
   </g>
   <g id="patch_139">
    <path clip-path="url(#pd6d2f628b5)" d="M 191.918509 307.584 
L 194.220582 307.584 
L 194.220582 204.164039 
L 191.918509 204.164039 
z
" style="fill:#5e9dfe;fill-opacity:0.815686;"/>
   </g>
   <g id="patch_140">
    <path clip-path="url(#pd6d2f628b5)" d="M 194.220582 307.584 
L 196.522655 307.584 
L 196.522655 228.297215 
L 194.220582 228.297215 
z
" style="fill:#5e9dfe;fill-opacity:0.815686;"/>
   </g>
   <g id="patch_141">
    <path clip-path="url(#pd6d2f628b5)" d="M 196.522655 307.584 
L 198.824727 307.584 
L 198.824727 244.404513 
L 196.522655 244.404513 
z
" style="fill:#5e9dfe;fill-opacity:0.815686;"/>
   </g>
   <g id="patch_142">
    <path clip-path="url(#pd6d2f628b5)" d="M 198.824727 307.584 
L 201.1268 307.584 
L 201.1268 258.123487 
L 198.824727 258.123487 
z
" style="fill:#5e9dfe;fill-opacity:0.815686;"/>
   </g>
   <g id="patch_143">
    <path clip-path="url(#pd6d2f628b5)" d="M 201.1268 307.584 
L 203.428873 307.584 
L 203.428873 265.288458 
L 201.1268 265.288458 
z
" style="fill:#5e9dfe;fill-opacity:0.815686;"/>
   </g>
   <g id="patch_144">
    <path clip-path="url(#pd6d2f628b5)" d="M 203.428873 307.584 
L 205.730946 307.584 
L 205.730946 275.980371 
L 203.428873 275.980371 
z
" style="fill:#5e9dfe;fill-opacity:0.815686;"/>
   </g>
   <g id="patch_145">
    <path clip-path="url(#pd6d2f628b5)" d="M 205.730946 307.584 
L 208.033018 307.584 
L 208.033018 283.062028 
L 205.730946 283.062028 
z
" style="fill:#5e9dfe;fill-opacity:0.815686;"/>
   </g>
   <g id="patch_146">
    <path clip-path="url(#pd6d2f628b5)" d="M 208.033018 307.584 
L 210.335091 307.584 
L 210.335091 285.311495 
L 208.033018 285.311495 
z
" style="fill:#5e9dfe;fill-opacity:0.815686;"/>
   </g>
   <g id="patch_147">
    <path clip-path="url(#pd6d2f628b5)" d="M 210.335091 307.584 
L 212.637164 307.584 
L 212.637164 287.894217 
L 210.335091 287.894217 
z
" style="fill:#5e9dfe;fill-opacity:0.815686;"/>
   </g>
   <g id="patch_148">
    <path clip-path="url(#pd6d2f628b5)" d="M 212.637164 307.584 
L 214.939237 307.584 
L 214.939237 290.810193 
L 212.637164 290.810193 
z
" style="fill:#5e9dfe;fill-opacity:0.815686;"/>
   </g>
   <g id="patch_149">
    <path clip-path="url(#pd6d2f628b5)" d="M 214.939237 307.584 
L 217.241309 307.584 
L 217.241309 292.976347 
L 214.939237 292.976347 
z
" style="fill:#5e9dfe;fill-opacity:0.815686;"/>
   </g>
   <g id="patch_150">
    <path clip-path="url(#pd6d2f628b5)" d="M 217.241309 307.584 
L 219.543382 307.584 
L 219.543382 294.698162 
L 217.241309 294.698162 
z
" style="fill:#5e9dfe;fill-opacity:0.815686;"/>
   </g>
   <g id="patch_151">
    <path clip-path="url(#pd6d2f628b5)" d="M 219.543382 307.584 
L 221.845455 307.584 
L 221.845455 296.72546 
L 219.543382 296.72546 
z
" style="fill:#5e9dfe;fill-opacity:0.815686;"/>
   </g>
   <g id="patch_152">
    <path clip-path="url(#pd6d2f628b5)" d="M 221.845455 307.584 
L 224.147528 307.584 
L 224.147528 297.641909 
L 221.845455 297.641909 
z
" style="fill:#5e9dfe;fill-opacity:0.815686;"/>
   </g>
   <g id="patch_153">
    <path clip-path="url(#pd6d2f628b5)" d="M 224.147528 307.584 
L 226.4496 307.584 
L 226.4496 299.169325 
L 224.147528 299.169325 
z
" style="fill:#5e9dfe;fill-opacity:0.815686;"/>
   </g>
   <g id="patch_154">
    <path clip-path="url(#pd6d2f628b5)" d="M 226.4496 307.584 
L 228.751673 307.584 
L 228.751673 300.613428 
L 226.4496 300.613428 
z
" style="fill:#5e9dfe;fill-opacity:0.815686;"/>
   </g>
   <g id="patch_155">
    <path clip-path="url(#pd6d2f628b5)" d="M 228.751673 307.584 
L 231.053746 307.584 
L 231.053746 302.113073 
L 228.751673 302.113073 
z
" style="fill:#5e9dfe;fill-opacity:0.815686;"/>
   </g>
   <g id="patch_156">
    <path clip-path="url(#pd6d2f628b5)" d="M 231.053746 307.584 
L 233.355819 307.584 
L 233.355819 303.335006 
L 231.053746 303.335006 
z
" style="fill:#5e9dfe;fill-opacity:0.815686;"/>
   </g>
   <g id="patch_157">
    <path clip-path="url(#pd6d2f628b5)" d="M 233.355819 307.584 
L 235.657891 307.584 
L 235.657891 304.251456 
L 233.355819 304.251456 
z
" style="fill:#5e9dfe;fill-opacity:0.815686;"/>
   </g>
   <g id="patch_158">
    <path clip-path="url(#pd6d2f628b5)" d="M 235.657891 307.584 
L 237.959964 307.584 
L 237.959964 305.195677 
L 235.657891 305.195677 
z
" style="fill:#5e9dfe;fill-opacity:0.815686;"/>
   </g>
   <g id="patch_159">
    <path clip-path="url(#pd6d2f628b5)" d="M 237.959964 307.584 
L 240.262037 307.584 
L 240.262037 305.640016 
L 237.959964 305.640016 
z
" style="fill:#5e9dfe;fill-opacity:0.815686;"/>
   </g>
   <g id="patch_160">
    <path clip-path="url(#pd6d2f628b5)" d="M 240.262037 307.584 
L 242.56411 307.584 
L 242.56411 306.223211 
L 240.262037 306.223211 
z
" style="fill:#5e9dfe;fill-opacity:0.815686;"/>
   </g>
   <g id="patch_161">
    <path clip-path="url(#pd6d2f628b5)" d="M 242.56411 307.584 
L 244.866182 307.584 
L 244.866182 306.223211 
L 242.56411 306.223211 
z
" style="fill:#5e9dfe;fill-opacity:0.815686;"/>
   </g>
   <g id="patch_162">
    <path clip-path="url(#pd6d2f628b5)" d="M 244.866182 307.584 
L 247.168255 307.584 
L 247.168255 307.11189 
L 244.866182 307.11189 
z
" style="fill:#5e9dfe;fill-opacity:0.815686;"/>
   </g>
   <g id="patch_163">
    <path clip-path="url(#pd6d2f628b5)" d="M 247.168255 307.584 
L 249.470328 307.584 
L 249.470328 307.056347 
L 247.168255 307.056347 
z
" style="fill:#5e9dfe;fill-opacity:0.815686;"/>
   </g>
   <g id="patch_164">
    <path clip-path="url(#pd6d2f628b5)" d="M 249.470328 307.584 
L 251.772401 307.584 
L 251.772401 307.195203 
L 249.470328 307.195203 
z
" style="fill:#5e9dfe;fill-opacity:0.815686;"/>
   </g>
   <g id="patch_165">
    <path clip-path="url(#pd6d2f628b5)" d="M 251.772401 307.584 
L 254.074473 307.584 
L 254.074473 307.195203 
L 251.772401 307.195203 
z
" style="fill:#5e9dfe;fill-opacity:0.815686;"/>
   </g>
   <g id="patch_166">
    <path clip-path="url(#pd6d2f628b5)" d="M 254.074473 307.584 
L 256.376546 307.584 
L 256.376546 307.195203 
L 254.074473 307.195203 
z
" style="fill:#5e9dfe;fill-opacity:0.815686;"/>
   </g>
   <g id="patch_167">
    <path clip-path="url(#pd6d2f628b5)" d="M 256.376546 307.584 
L 258.678619 307.584 
L 258.678619 307.222974 
L 256.376546 307.222974 
z
" style="fill:#5e9dfe;fill-opacity:0.815686;"/>
   </g>
   <g id="patch_168">
    <path clip-path="url(#pd6d2f628b5)" d="M 258.678619 307.584 
L 260.980692 307.584 
L 260.980692 307.417373 
L 258.678619 307.417373 
z
" style="fill:#5e9dfe;fill-opacity:0.815686;"/>
   </g>
   <g id="patch_169">
    <path clip-path="url(#pd6d2f628b5)" d="M 260.980692 307.584 
L 263.282764 307.584 
L 263.282764 307.500686 
L 260.980692 307.500686 
z
" style="fill:#5e9dfe;fill-opacity:0.815686;"/>
   </g>
   <g id="patch_170">
    <path clip-path="url(#pd6d2f628b5)" d="M 263.282764 307.584 
L 265.584837 307.584 
L 265.584837 307.472915 
L 263.282764 307.472915 
z
" style="fill:#5e9dfe;fill-opacity:0.815686;"/>
   </g>
   <g id="patch_171">
    <path clip-path="url(#pd6d2f628b5)" d="M 265.584837 307.584 
L 267.88691 307.584 
L 267.88691 307.417373 
L 265.584837 307.417373 
z
" style="fill:#5e9dfe;fill-opacity:0.815686;"/>
   </g>
   <g id="patch_172">
    <path clip-path="url(#pd6d2f628b5)" d="M 267.88691 307.584 
L 270.188983 307.584 
L 270.188983 307.500686 
L 267.88691 307.500686 
z
" style="fill:#5e9dfe;fill-opacity:0.815686;"/>
   </g>
   <g id="patch_173">
    <path clip-path="url(#pd6d2f628b5)" d="M 270.188983 307.584 
L 272.491055 307.584 
L 272.491055 307.389602 
L 270.188983 307.389602 
z
" style="fill:#5e9dfe;fill-opacity:0.815686;"/>
   </g>
   <g id="patch_174">
    <path clip-path="url(#pd6d2f628b5)" d="M 272.491055 307.584 
L 274.793128 307.584 
L 274.793128 307.500686 
L 272.491055 307.500686 
z
" style="fill:#5e9dfe;fill-opacity:0.815686;"/>
   </g>
   <g id="patch_175">
    <path clip-path="url(#pd6d2f628b5)" d="M 274.793128 307.584 
L 277.095201 307.584 
L 277.095201 307.528458 
L 274.793128 307.528458 
z
" style="fill:#5e9dfe;fill-opacity:0.815686;"/>
   </g>
   <g id="patch_176">
    <path clip-path="url(#pd6d2f628b5)" d="M 277.095201 307.584 
L 279.397274 307.584 
L 279.397274 307.500686 
L 277.095201 307.500686 
z
" style="fill:#5e9dfe;fill-opacity:0.815686;"/>
   </g>
   <g id="patch_177">
    <path clip-path="url(#pd6d2f628b5)" d="M 279.397274 307.584 
L 281.699346 307.584 
L 281.699346 307.472915 
L 279.397274 307.472915 
z
" style="fill:#5e9dfe;fill-opacity:0.815686;"/>
   </g>
   <g id="patch_178">
    <path clip-path="url(#pd6d2f628b5)" d="M 281.699346 307.584 
L 284.001419 307.584 
L 284.001419 307.500686 
L 281.699346 307.500686 
z
" style="fill:#5e9dfe;fill-opacity:0.815686;"/>
   </g>
   <g id="patch_179">
    <path clip-path="url(#pd6d2f628b5)" d="M 284.001419 307.584 
L 286.303492 307.584 
L 286.303492 307.584 
L 284.001419 307.584 
z
" style="fill:#5e9dfe;fill-opacity:0.815686;"/>
   </g>
   <g id="patch_180">
    <path clip-path="url(#pd6d2f628b5)" d="M 286.303492 307.584 
L 288.605565 307.584 
L 288.605565 307.556229 
L 286.303492 307.556229 
z
" style="fill:#5e9dfe;fill-opacity:0.815686;"/>
   </g>
   <g id="patch_181">
    <path clip-path="url(#pd6d2f628b5)" d="M 288.605565 307.584 
L 290.907638 307.584 
L 290.907638 307.556229 
L 288.605565 307.556229 
z
" style="fill:#5e9dfe;fill-opacity:0.815686;"/>
   </g>
   <g id="patch_182">
    <path clip-path="url(#pd6d2f628b5)" d="M 290.907638 307.584 
L 293.20971 307.584 
L 293.20971 307.528458 
L 290.907638 307.528458 
z
" style="fill:#5e9dfe;fill-opacity:0.815686;"/>
   </g>
   <g id="patch_183">
    <path clip-path="url(#pd6d2f628b5)" d="M 293.20971 307.584 
L 295.511783 307.584 
L 295.511783 307.556229 
L 293.20971 307.556229 
z
" style="fill:#5e9dfe;fill-opacity:0.815686;"/>
   </g>
   <g id="patch_184">
    <path clip-path="url(#pd6d2f628b5)" d="M 295.511783 307.584 
L 297.813856 307.584 
L 297.813856 307.584 
L 295.511783 307.584 
z
" style="fill:#5e9dfe;fill-opacity:0.815686;"/>
   </g>
   <g id="patch_185">
    <path clip-path="url(#pd6d2f628b5)" d="M 297.813856 307.584 
L 300.115929 307.584 
L 300.115929 307.445144 
L 297.813856 307.445144 
z
" style="fill:#5e9dfe;fill-opacity:0.815686;"/>
   </g>
   <g id="patch_186">
    <path clip-path="url(#pd6d2f628b5)" d="M 300.115929 307.584 
L 302.418001 307.584 
L 302.418001 307.584 
L 300.115929 307.584 
z
" style="fill:#5e9dfe;fill-opacity:0.815686;"/>
   </g>
   <g id="patch_187">
    <path clip-path="url(#pd6d2f628b5)" d="M 302.418001 307.584 
L 304.720074 307.584 
L 304.720074 307.528458 
L 302.418001 307.528458 
z
" style="fill:#5e9dfe;fill-opacity:0.815686;"/>
   </g>
   <g id="patch_188">
    <path clip-path="url(#pd6d2f628b5)" d="M 304.720074 307.584 
L 307.022147 307.584 
L 307.022147 307.584 
L 304.720074 307.584 
z
" style="fill:#5e9dfe;fill-opacity:0.815686;"/>
   </g>
   <g id="patch_189">
    <path clip-path="url(#pd6d2f628b5)" d="M 307.022147 307.584 
L 309.32422 307.584 
L 309.32422 307.584 
L 307.022147 307.584 
z
" style="fill:#5e9dfe;fill-opacity:0.815686;"/>
   </g>
   <g id="patch_190">
    <path clip-path="url(#pd6d2f628b5)" d="M 309.32422 307.584 
L 311.626292 307.584 
L 311.626292 307.528458 
L 309.32422 307.528458 
z
" style="fill:#5e9dfe;fill-opacity:0.815686;"/>
   </g>
   <g id="patch_191">
    <path clip-path="url(#pd6d2f628b5)" d="M 311.626292 307.584 
L 313.928365 307.584 
L 313.928365 307.528458 
L 311.626292 307.528458 
z
" style="fill:#5e9dfe;fill-opacity:0.815686;"/>
   </g>
   <g id="patch_192">
    <path clip-path="url(#pd6d2f628b5)" d="M 313.928365 307.584 
L 316.230438 307.584 
L 316.230438 307.584 
L 313.928365 307.584 
z
" style="fill:#5e9dfe;fill-opacity:0.815686;"/>
   </g>
   <g id="patch_193">
    <path clip-path="url(#pd6d2f628b5)" d="M 316.230438 307.584 
L 318.532511 307.584 
L 318.532511 307.445144 
L 316.230438 307.445144 
z
" style="fill:#5e9dfe;fill-opacity:0.815686;"/>
   </g>
   <g id="patch_194">
    <path clip-path="url(#pd6d2f628b5)" d="M 318.532511 307.584 
L 320.834583 307.584 
L 320.834583 307.472915 
L 318.532511 307.472915 
z
" style="fill:#5e9dfe;fill-opacity:0.815686;"/>
   </g>
   <g id="patch_195">
    <path clip-path="url(#pd6d2f628b5)" d="M 320.834583 307.584 
L 323.136656 307.584 
L 323.136656 307.500686 
L 320.834583 307.500686 
z
" style="fill:#5e9dfe;fill-opacity:0.815686;"/>
   </g>
   <g id="patch_196">
    <path clip-path="url(#pd6d2f628b5)" d="M 323.136656 307.584 
L 325.438729 307.584 
L 325.438729 307.556229 
L 323.136656 307.556229 
z
" style="fill:#5e9dfe;fill-opacity:0.815686;"/>
   </g>
   <g id="patch_197">
    <path clip-path="url(#pd6d2f628b5)" d="M 325.438729 307.584 
L 327.740802 307.584 
L 327.740802 307.472915 
L 325.438729 307.472915 
z
" style="fill:#5e9dfe;fill-opacity:0.815686;"/>
   </g>
   <g id="patch_198">
    <path clip-path="url(#pd6d2f628b5)" d="M 327.740802 307.584 
L 330.042874 307.584 
L 330.042874 307.528458 
L 327.740802 307.528458 
z
" style="fill:#5e9dfe;fill-opacity:0.815686;"/>
   </g>
   <g id="patch_199">
    <path clip-path="url(#pd6d2f628b5)" d="M 330.042874 307.584 
L 332.344947 307.584 
L 332.344947 307.556229 
L 330.042874 307.556229 
z
" style="fill:#5e9dfe;fill-opacity:0.815686;"/>
   </g>
   <g id="patch_200">
    <path clip-path="url(#pd6d2f628b5)" d="M 332.344947 307.584 
L 334.64702 307.584 
L 334.64702 307.528458 
L 332.344947 307.528458 
z
" style="fill:#5e9dfe;fill-opacity:0.815686;"/>
   </g>
   <g id="patch_201">
    <path clip-path="url(#pd6d2f628b5)" d="M 334.64702 307.584 
L 336.949093 307.584 
L 336.949093 307.584 
L 334.64702 307.584 
z
" style="fill:#5e9dfe;fill-opacity:0.815686;"/>
   </g>
   <g id="patch_202">
    <path clip-path="url(#pd6d2f628b5)" d="M 336.949093 307.584 
L 339.251165 307.584 
L 339.251165 307.528458 
L 336.949093 307.528458 
z
" style="fill:#5e9dfe;fill-opacity:0.815686;"/>
   </g>
   <g id="patch_203">
    <path clip-path="url(#pd6d2f628b5)" d="M 101.226249 307.584 
L 104.198859 307.584 
L 104.198859 307.472915 
L 101.226249 307.472915 
z
" style="fill:#5eedfe;fill-opacity:0.815686;"/>
   </g>
   <g id="patch_204">
    <path clip-path="url(#pd6d2f628b5)" d="M 104.198859 307.584 
L 107.171469 307.584 
L 107.171469 305.362304 
L 104.198859 305.362304 
z
" style="fill:#5eedfe;fill-opacity:0.815686;"/>
   </g>
   <g id="patch_205">
    <path clip-path="url(#pd6d2f628b5)" d="M 107.171469 307.584 
L 110.14408 307.584 
L 110.14408 303.807116 
L 107.171469 303.807116 
z
" style="fill:#5eedfe;fill-opacity:0.815686;"/>
   </g>
   <g id="patch_206">
    <path clip-path="url(#pd6d2f628b5)" d="M 110.14408 307.584 
L 113.11669 307.584 
L 113.11669 305.473389 
L 110.14408 305.473389 
z
" style="fill:#5eedfe;fill-opacity:0.815686;"/>
   </g>
   <g id="patch_207">
    <path clip-path="url(#pd6d2f628b5)" d="M 113.11669 307.584 
L 116.0893 307.584 
L 116.0893 305.528931 
L 113.11669 305.528931 
z
" style="fill:#5eedfe;fill-opacity:0.815686;"/>
   </g>
   <g id="patch_208">
    <path clip-path="url(#pd6d2f628b5)" d="M 116.0893 307.584 
L 119.06191 307.584 
L 119.06191 305.417846 
L 116.0893 305.417846 
z
" style="fill:#5eedfe;fill-opacity:0.815686;"/>
   </g>
   <g id="patch_209">
    <path clip-path="url(#pd6d2f628b5)" d="M 119.06191 307.584 
L 122.034521 307.584 
L 122.034521 306.084355 
L 119.06191 306.084355 
z
" style="fill:#5eedfe;fill-opacity:0.815686;"/>
   </g>
   <g id="patch_210">
    <path clip-path="url(#pd6d2f628b5)" d="M 122.034521 307.584 
L 125.007131 307.584 
L 125.007131 306.112126 
L 122.034521 306.112126 
z
" style="fill:#5eedfe;fill-opacity:0.815686;"/>
   </g>
   <g id="patch_211">
    <path clip-path="url(#pd6d2f628b5)" d="M 125.007131 307.584 
L 127.979741 307.584 
L 127.979741 305.584473 
L 125.007131 305.584473 
z
" style="fill:#5eedfe;fill-opacity:0.815686;"/>
   </g>
   <g id="patch_212">
    <path clip-path="url(#pd6d2f628b5)" d="M 127.979741 307.584 
L 130.952351 307.584 
L 130.952351 305.612245 
L 127.979741 305.612245 
z
" style="fill:#5eedfe;fill-opacity:0.815686;"/>
   </g>
   <g id="patch_213">
    <path clip-path="url(#pd6d2f628b5)" d="M 130.952351 307.584 
L 133.924962 307.584 
L 133.924962 306.223211 
L 130.952351 306.223211 
z
" style="fill:#5eedfe;fill-opacity:0.815686;"/>
   </g>
   <g id="patch_214">
    <path clip-path="url(#pd6d2f628b5)" d="M 133.924962 307.584 
L 136.897572 307.584 
L 136.897572 305.667787 
L 133.924962 305.667787 
z
" style="fill:#5eedfe;fill-opacity:0.815686;"/>
   </g>
   <g id="patch_215">
    <path clip-path="url(#pd6d2f628b5)" d="M 136.897572 307.584 
L 139.870182 307.584 
L 139.870182 304.306998 
L 136.897572 304.306998 
z
" style="fill:#5eedfe;fill-opacity:0.815686;"/>
   </g>
   <g id="patch_216">
    <path clip-path="url(#pd6d2f628b5)" d="M 139.870182 307.584 
L 142.842792 307.584 
L 142.842792 303.807116 
L 139.870182 303.807116 
z
" style="fill:#5eedfe;fill-opacity:0.815686;"/>
   </g>
   <g id="patch_217">
    <path clip-path="url(#pd6d2f628b5)" d="M 142.842792 307.584 
L 145.815403 307.584 
L 145.815403 301.974217 
L 142.842792 301.974217 
z
" style="fill:#5eedfe;fill-opacity:0.815686;"/>
   </g>
   <g id="patch_218">
    <path clip-path="url(#pd6d2f628b5)" d="M 145.815403 307.584 
L 148.788013 307.584 
L 148.788013 300.141318 
L 145.815403 300.141318 
z
" style="fill:#5eedfe;fill-opacity:0.815686;"/>
   </g>
   <g id="patch_219">
    <path clip-path="url(#pd6d2f628b5)" d="M 148.788013 307.584 
L 151.760623 307.584 
L 151.760623 296.031179 
L 148.788013 296.031179 
z
" style="fill:#5eedfe;fill-opacity:0.815686;"/>
   </g>
   <g id="patch_220">
    <path clip-path="url(#pd6d2f628b5)" d="M 151.760623 307.584 
L 154.733233 307.584 
L 154.733233 290.115913 
L 151.760623 290.115913 
z
" style="fill:#5eedfe;fill-opacity:0.815686;"/>
   </g>
   <g id="patch_221">
    <path clip-path="url(#pd6d2f628b5)" d="M 154.733233 307.584 
L 157.705844 307.584 
L 157.705844 281.395755 
L 154.733233 281.395755 
z
" style="fill:#5eedfe;fill-opacity:0.815686;"/>
   </g>
   <g id="patch_222">
    <path clip-path="url(#pd6d2f628b5)" d="M 157.705844 307.584 
L 160.678454 307.584 
L 160.678454 278.646406 
L 157.705844 278.646406 
z
" style="fill:#5eedfe;fill-opacity:0.815686;"/>
   </g>
   <g id="patch_223">
    <path clip-path="url(#pd6d2f628b5)" d="M 160.678454 307.584 
L 163.651064 307.584 
L 163.651064 275.202777 
L 160.678454 275.202777 
z
" style="fill:#5eedfe;fill-opacity:0.815686;"/>
   </g>
   <g id="patch_224">
    <path clip-path="url(#pd6d2f628b5)" d="M 163.651064 307.584 
L 166.623674 307.584 
L 166.623674 271.648063 
L 163.651064 271.648063 
z
" style="fill:#5eedfe;fill-opacity:0.815686;"/>
   </g>
   <g id="patch_225">
    <path clip-path="url(#pd6d2f628b5)" d="M 166.623674 307.584 
L 169.596284 307.584 
L 169.596284 262.150312 
L 166.623674 262.150312 
z
" style="fill:#5eedfe;fill-opacity:0.815686;"/>
   </g>
   <g id="patch_226">
    <path clip-path="url(#pd6d2f628b5)" d="M 169.596284 307.584 
L 172.568895 307.584 
L 172.568895 240.155519 
L 169.596284 240.155519 
z
" style="fill:#5eedfe;fill-opacity:0.815686;"/>
   </g>
   <g id="patch_227">
    <path clip-path="url(#pd6d2f628b5)" d="M 172.568895 307.584 
L 175.541505 307.584 
L 175.541505 193.583211 
L 172.568895 193.583211 
z
" style="fill:#5eedfe;fill-opacity:0.815686;"/>
   </g>
   <g id="patch_228">
    <path clip-path="url(#pd6d2f628b5)" d="M 175.541505 307.584 
L 178.514115 307.584 
L 178.514115 129.876071 
L 175.541505 129.876071 
z
" style="fill:#5eedfe;fill-opacity:0.815686;"/>
   </g>
   <g id="patch_229">
    <path clip-path="url(#pd6d2f628b5)" d="M 178.514115 307.584 
L 181.486725 307.584 
L 181.486725 88.191495 
L 178.514115 88.191495 
z
" style="fill:#5eedfe;fill-opacity:0.815686;"/>
   </g>
   <g id="patch_230">
    <path clip-path="url(#pd6d2f628b5)" d="M 181.486725 307.584 
L 184.459336 307.584 
L 184.459336 54.144 
L 181.486725 54.144 
z
" style="fill:#5eedfe;fill-opacity:0.815686;"/>
   </g>
   <g id="patch_231">
    <path clip-path="url(#pd6d2f628b5)" d="M 184.459336 307.584 
L 187.431946 307.584 
L 187.431946 54.977136 
L 184.459336 54.977136 
z
" style="fill:#5eedfe;fill-opacity:0.815686;"/>
   </g>
   <g id="patch_232">
    <path clip-path="url(#pd6d2f628b5)" d="M 187.431946 307.584 
L 190.404556 307.584 
L 190.404556 67.862974 
L 187.431946 67.862974 
z
" style="fill:#5eedfe;fill-opacity:0.815686;"/>
   </g>
   <g id="patch_233">
    <path clip-path="url(#pd6d2f628b5)" d="M 190.404556 307.584 
L 193.377166 307.584 
L 193.377166 94.606643 
L 190.404556 94.606643 
z
" style="fill:#5eedfe;fill-opacity:0.815686;"/>
   </g>
   <g id="patch_234">
    <path clip-path="url(#pd6d2f628b5)" d="M 193.377166 307.584 
L 196.349777 307.584 
L 196.349777 129.62613 
L 193.377166 129.62613 
z
" style="fill:#5eedfe;fill-opacity:0.815686;"/>
   </g>
   <g id="patch_235">
    <path clip-path="url(#pd6d2f628b5)" d="M 196.349777 307.584 
L 199.322387 307.584 
L 199.322387 169.672205 
L 196.349777 169.672205 
z
" style="fill:#5eedfe;fill-opacity:0.815686;"/>
   </g>
   <g id="patch_236">
    <path clip-path="url(#pd6d2f628b5)" d="M 199.322387 307.584 
L 202.294997 307.584 
L 202.294997 202.886564 
L 199.322387 202.886564 
z
" style="fill:#5eedfe;fill-opacity:0.815686;"/>
   </g>
   <g id="patch_237">
    <path clip-path="url(#pd6d2f628b5)" d="M 202.294997 307.584 
L 205.267607 307.584 
L 205.267607 231.740844 
L 202.294997 231.740844 
z
" style="fill:#5eedfe;fill-opacity:0.815686;"/>
   </g>
   <g id="patch_238">
    <path clip-path="url(#pd6d2f628b5)" d="M 205.267607 307.584 
L 208.240218 307.584 
L 208.240218 250.653034 
L 205.267607 250.653034 
z
" style="fill:#5eedfe;fill-opacity:0.815686;"/>
   </g>
   <g id="patch_239">
    <path clip-path="url(#pd6d2f628b5)" d="M 208.240218 307.584 
L 211.212828 307.584 
L 211.212828 264.288694 
L 208.240218 264.288694 
z
" style="fill:#5eedfe;fill-opacity:0.815686;"/>
   </g>
   <g id="patch_240">
    <path clip-path="url(#pd6d2f628b5)" d="M 211.212828 307.584 
L 214.185438 307.584 
L 214.185438 275.202777 
L 211.212828 275.202777 
z
" style="fill:#5eedfe;fill-opacity:0.815686;"/>
   </g>
   <g id="patch_241">
    <path clip-path="url(#pd6d2f628b5)" d="M 214.185438 307.584 
L 217.158048 307.584 
L 217.158048 279.729483 
L 214.185438 279.729483 
z
" style="fill:#5eedfe;fill-opacity:0.815686;"/>
   </g>
   <g id="patch_242">
    <path clip-path="url(#pd6d2f628b5)" d="M 217.158048 307.584 
L 220.130659 307.584 
L 220.130659 282.20112 
L 217.158048 282.20112 
z
" style="fill:#5eedfe;fill-opacity:0.815686;"/>
   </g>
   <g id="patch_243">
    <path clip-path="url(#pd6d2f628b5)" d="M 220.130659 307.584 
L 223.103269 307.584 
L 223.103269 279.229602 
L 220.130659 279.229602 
z
" style="fill:#5eedfe;fill-opacity:0.815686;"/>
   </g>
   <g id="patch_244">
    <path clip-path="url(#pd6d2f628b5)" d="M 223.103269 307.584 
L 226.075879 307.584 
L 226.075879 278.063211 
L 223.103269 278.063211 
z
" style="fill:#5eedfe;fill-opacity:0.815686;"/>
   </g>
   <g id="patch_245">
    <path clip-path="url(#pd6d2f628b5)" d="M 226.075879 307.584 
L 229.048489 307.584 
L 229.048489 279.701712 
L 226.075879 279.701712 
z
" style="fill:#5eedfe;fill-opacity:0.815686;"/>
   </g>
   <g id="patch_246">
    <path clip-path="url(#pd6d2f628b5)" d="M 229.048489 307.584 
L 232.021099 307.584 
L 232.021099 280.479306 
L 229.048489 280.479306 
z
" style="fill:#5eedfe;fill-opacity:0.815686;"/>
   </g>
   <g id="patch_247">
    <path clip-path="url(#pd6d2f628b5)" d="M 232.021099 307.584 
L 234.99371 307.584 
L 234.99371 282.339976 
L 232.021099 282.339976 
z
" style="fill:#5eedfe;fill-opacity:0.815686;"/>
   </g>
   <g id="patch_248">
    <path clip-path="url(#pd6d2f628b5)" d="M 234.99371 307.584 
L 237.96632 307.584 
L 237.96632 285.42258 
L 234.99371 285.42258 
z
" style="fill:#5eedfe;fill-opacity:0.815686;"/>
   </g>
   <g id="patch_249">
    <path clip-path="url(#pd6d2f628b5)" d="M 237.96632 307.584 
L 240.93893 307.584 
L 240.93893 290.060371 
L 237.96632 290.060371 
z
" style="fill:#5eedfe;fill-opacity:0.815686;"/>
   </g>
   <g id="patch_250">
    <path clip-path="url(#pd6d2f628b5)" d="M 240.93893 307.584 
L 243.91154 307.584 
L 243.91154 293.392915 
L 240.93893 293.392915 
z
" style="fill:#5eedfe;fill-opacity:0.815686;"/>
   </g>
   <g id="patch_251">
    <path clip-path="url(#pd6d2f628b5)" d="M 243.91154 307.584 
L 246.884151 307.584 
L 246.884151 295.892323 
L 243.91154 295.892323 
z
" style="fill:#5eedfe;fill-opacity:0.815686;"/>
   </g>
   <g id="patch_252">
    <path clip-path="url(#pd6d2f628b5)" d="M 246.884151 307.584 
L 249.856761 307.584 
L 249.856761 298.919385 
L 246.884151 298.919385 
z
" style="fill:#5eedfe;fill-opacity:0.815686;"/>
   </g>
   <g id="patch_253">
    <path clip-path="url(#pd6d2f628b5)" d="M 249.856761 307.584 
L 252.829371 307.584 
L 252.829371 301.36325 
L 249.856761 301.36325 
z
" style="fill:#5eedfe;fill-opacity:0.815686;"/>
   </g>
   <g id="patch_254">
    <path clip-path="url(#pd6d2f628b5)" d="M 252.829371 307.584 
L 255.801981 307.584 
L 255.801981 302.2797 
L 252.829371 302.2797 
z
" style="fill:#5eedfe;fill-opacity:0.815686;"/>
   </g>
   <g id="patch_255">
    <path clip-path="url(#pd6d2f628b5)" d="M 255.801981 307.584 
L 258.774592 307.584 
L 258.774592 303.640489 
L 255.801981 303.640489 
z
" style="fill:#5eedfe;fill-opacity:0.815686;"/>
   </g>
   <g id="patch_256">
    <path clip-path="url(#pd6d2f628b5)" d="M 258.774592 307.584 
L 261.747202 307.584 
L 261.747202 303.973744 
L 258.774592 303.973744 
z
" style="fill:#5eedfe;fill-opacity:0.815686;"/>
   </g>
   <g id="patch_257">
    <path clip-path="url(#pd6d2f628b5)" d="M 261.747202 307.584 
L 264.719812 307.584 
L 264.719812 304.334769 
L 261.747202 304.334769 
z
" style="fill:#5eedfe;fill-opacity:0.815686;"/>
   </g>
   <g id="patch_258">
    <path clip-path="url(#pd6d2f628b5)" d="M 264.719812 307.584 
L 267.692422 307.584 
L 267.692422 304.973507 
L 264.719812 304.973507 
z
" style="fill:#5eedfe;fill-opacity:0.815686;"/>
   </g>
   <g id="patch_259">
    <path clip-path="url(#pd6d2f628b5)" d="M 267.692422 307.584 
L 270.665033 307.584 
L 270.665033 305.362304 
L 267.692422 305.362304 
z
" style="fill:#5eedfe;fill-opacity:0.815686;"/>
   </g>
   <g id="patch_260">
    <path clip-path="url(#pd6d2f628b5)" d="M 270.665033 307.584 
L 273.637643 307.584 
L 273.637643 305.417846 
L 270.665033 305.417846 
z
" style="fill:#5eedfe;fill-opacity:0.815686;"/>
   </g>
   <g id="patch_261">
    <path clip-path="url(#pd6d2f628b5)" d="M 273.637643 307.584 
L 276.610253 307.584 
L 276.610253 305.723329 
L 273.637643 305.723329 
z
" style="fill:#5eedfe;fill-opacity:0.815686;"/>
   </g>
   <g id="patch_262">
    <path clip-path="url(#pd6d2f628b5)" d="M 276.610253 307.584 
L 279.582863 307.584 
L 279.582863 306.028813 
L 276.610253 306.028813 
z
" style="fill:#5eedfe;fill-opacity:0.815686;"/>
   </g>
   <g id="patch_263">
    <path clip-path="url(#pd6d2f628b5)" d="M 279.582863 307.584 
L 282.555473 307.584 
L 282.555473 306.223211 
L 279.582863 306.223211 
z
" style="fill:#5eedfe;fill-opacity:0.815686;"/>
   </g>
   <g id="patch_264">
    <path clip-path="url(#pd6d2f628b5)" d="M 282.555473 307.584 
L 285.528084 307.584 
L 285.528084 306.695321 
L 282.555473 306.695321 
z
" style="fill:#5eedfe;fill-opacity:0.815686;"/>
   </g>
   <g id="patch_265">
    <path clip-path="url(#pd6d2f628b5)" d="M 285.528084 307.584 
L 288.500694 307.584 
L 288.500694 306.556465 
L 285.528084 306.556465 
z
" style="fill:#5eedfe;fill-opacity:0.815686;"/>
   </g>
   <g id="patch_266">
    <path clip-path="url(#pd6d2f628b5)" d="M 288.500694 307.584 
L 291.473304 307.584 
L 291.473304 306.334296 
L 288.500694 306.334296 
z
" style="fill:#5eedfe;fill-opacity:0.815686;"/>
   </g>
   <g id="patch_267">
    <path clip-path="url(#pd6d2f628b5)" d="M 291.473304 307.584 
L 294.445914 307.584 
L 294.445914 306.612008 
L 291.473304 306.612008 
z
" style="fill:#5eedfe;fill-opacity:0.815686;"/>
   </g>
   <g id="patch_268">
    <path clip-path="url(#pd6d2f628b5)" d="M 294.445914 307.584 
L 297.418525 307.584 
L 297.418525 306.778635 
L 294.445914 306.778635 
z
" style="fill:#5eedfe;fill-opacity:0.815686;"/>
   </g>
   <g id="patch_269">
    <path clip-path="url(#pd6d2f628b5)" d="M 297.418525 307.584 
L 300.391135 307.584 
L 300.391135 306.445381 
L 297.418525 306.445381 
z
" style="fill:#5eedfe;fill-opacity:0.815686;"/>
   </g>
   <g id="patch_270">
    <path clip-path="url(#pd6d2f628b5)" d="M 300.391135 307.584 
L 303.363745 307.584 
L 303.363745 306.806406 
L 300.391135 306.806406 
z
" style="fill:#5eedfe;fill-opacity:0.815686;"/>
   </g>
   <g id="patch_271">
    <path clip-path="url(#pd6d2f628b5)" d="M 303.363745 307.584 
L 306.336355 307.584 
L 306.336355 306.66755 
L 303.363745 306.66755 
z
" style="fill:#5eedfe;fill-opacity:0.815686;"/>
   </g>
   <g id="patch_272">
    <path clip-path="url(#pd6d2f628b5)" d="M 306.336355 307.584 
L 309.308966 307.584 
L 309.308966 306.723093 
L 306.336355 306.723093 
z
" style="fill:#5eedfe;fill-opacity:0.815686;"/>
   </g>
   <g id="patch_273">
    <path clip-path="url(#pd6d2f628b5)" d="M 309.308966 307.584 
L 312.281576 307.584 
L 312.281576 306.612008 
L 309.308966 306.612008 
z
" style="fill:#5eedfe;fill-opacity:0.815686;"/>
   </g>
   <g id="patch_274">
    <path clip-path="url(#pd6d2f628b5)" d="M 312.281576 307.584 
L 315.254186 307.584 
L 315.254186 306.778635 
L 312.281576 306.778635 
z
" style="fill:#5eedfe;fill-opacity:0.815686;"/>
   </g>
   <g id="patch_275">
    <path clip-path="url(#pd6d2f628b5)" d="M 315.254186 307.584 
L 318.226796 307.584 
L 318.226796 306.806406 
L 315.254186 306.806406 
z
" style="fill:#5eedfe;fill-opacity:0.815686;"/>
   </g>
   <g id="patch_276">
    <path clip-path="url(#pd6d2f628b5)" d="M 318.226796 307.584 
L 321.199407 307.584 
L 321.199407 306.861949 
L 318.226796 306.861949 
z
" style="fill:#5eedfe;fill-opacity:0.815686;"/>
   </g>
   <g id="patch_277">
    <path clip-path="url(#pd6d2f628b5)" d="M 321.199407 307.584 
L 324.172017 307.584 
L 324.172017 306.66755 
L 321.199407 306.66755 
z
" style="fill:#5eedfe;fill-opacity:0.815686;"/>
   </g>
   <g id="patch_278">
    <path clip-path="url(#pd6d2f628b5)" d="M 324.172017 307.584 
L 327.144627 307.584 
L 327.144627 306.750864 
L 324.172017 306.750864 
z
" style="fill:#5eedfe;fill-opacity:0.815686;"/>
   </g>
   <g id="patch_279">
    <path clip-path="url(#pd6d2f628b5)" d="M 327.144627 307.584 
L 330.117237 307.584 
L 330.117237 306.528694 
L 327.144627 306.528694 
z
" style="fill:#5eedfe;fill-opacity:0.815686;"/>
   </g>
   <g id="patch_280">
    <path clip-path="url(#pd6d2f628b5)" d="M 330.117237 307.584 
L 333.089848 307.584 
L 333.089848 307.056347 
L 330.117237 307.056347 
z
" style="fill:#5eedfe;fill-opacity:0.815686;"/>
   </g>
   <g id="patch_281">
    <path clip-path="url(#pd6d2f628b5)" d="M 333.089848 307.584 
L 336.062458 307.584 
L 336.062458 307.11189 
L 333.089848 307.11189 
z
" style="fill:#5eedfe;fill-opacity:0.815686;"/>
   </g>
   <g id="patch_282">
    <path clip-path="url(#pd6d2f628b5)" d="M 336.062458 307.584 
L 339.035068 307.584 
L 339.035068 307.222974 
L 336.062458 307.222974 
z
" style="fill:#5eedfe;fill-opacity:0.815686;"/>
   </g>
   <g id="patch_283">
    <path clip-path="url(#pd6d2f628b5)" d="M 339.035068 307.584 
L 342.007678 307.584 
L 342.007678 306.945262 
L 339.035068 306.945262 
z
" style="fill:#5eedfe;fill-opacity:0.815686;"/>
   </g>
   <g id="patch_284">
    <path clip-path="url(#pd6d2f628b5)" d="M 342.007678 307.584 
L 344.980288 307.584 
L 344.980288 307.11189 
L 342.007678 307.11189 
z
" style="fill:#5eedfe;fill-opacity:0.815686;"/>
   </g>
   <g id="patch_285">
    <path clip-path="url(#pd6d2f628b5)" d="M 344.980288 307.584 
L 347.952899 307.584 
L 347.952899 307.250746 
L 344.980288 307.250746 
z
" style="fill:#5eedfe;fill-opacity:0.815686;"/>
   </g>
   <g id="patch_286">
    <path clip-path="url(#pd6d2f628b5)" d="M 347.952899 307.584 
L 350.925509 307.584 
L 350.925509 306.806406 
L 347.952899 306.806406 
z
" style="fill:#5eedfe;fill-opacity:0.815686;"/>
   </g>
   <g id="patch_287">
    <path clip-path="url(#pd6d2f628b5)" d="M 350.925509 307.584 
L 353.898119 307.584 
L 353.898119 307.195203 
L 350.925509 307.195203 
z
" style="fill:#5eedfe;fill-opacity:0.815686;"/>
   </g>
   <g id="patch_288">
    <path clip-path="url(#pd6d2f628b5)" d="M 353.898119 307.584 
L 356.870729 307.584 
L 356.870729 307.028576 
L 353.898119 307.028576 
z
" style="fill:#5eedfe;fill-opacity:0.815686;"/>
   </g>
   <g id="patch_289">
    <path clip-path="url(#pd6d2f628b5)" d="M 356.870729 307.584 
L 359.84334 307.584 
L 359.84334 307.222974 
L 356.870729 307.222974 
z
" style="fill:#5eedfe;fill-opacity:0.815686;"/>
   </g>
   <g id="patch_290">
    <path clip-path="url(#pd6d2f628b5)" d="M 359.84334 307.584 
L 362.81595 307.584 
L 362.81595 307.028576 
L 359.84334 307.028576 
z
" style="fill:#5eedfe;fill-opacity:0.815686;"/>
   </g>
   <g id="patch_291">
    <path clip-path="url(#pd6d2f628b5)" d="M 362.81595 307.584 
L 365.78856 307.584 
L 365.78856 307.056347 
L 362.81595 307.056347 
z
" style="fill:#5eedfe;fill-opacity:0.815686;"/>
   </g>
   <g id="patch_292">
    <path clip-path="url(#pd6d2f628b5)" d="M 365.78856 307.584 
L 368.76117 307.584 
L 368.76117 307.028576 
L 365.78856 307.028576 
z
" style="fill:#5eedfe;fill-opacity:0.815686;"/>
   </g>
   <g id="patch_293">
    <path clip-path="url(#pd6d2f628b5)" d="M 368.76117 307.584 
L 371.733781 307.584 
L 371.733781 307.167432 
L 368.76117 307.167432 
z
" style="fill:#5eedfe;fill-opacity:0.815686;"/>
   </g>
   <g id="patch_294">
    <path clip-path="url(#pd6d2f628b5)" d="M 371.733781 307.584 
L 374.706391 307.584 
L 374.706391 307.36183 
L 371.733781 307.36183 
z
" style="fill:#5eedfe;fill-opacity:0.815686;"/>
   </g>
   <g id="patch_295">
    <path clip-path="url(#pd6d2f628b5)" d="M 374.706391 307.584 
L 377.679001 307.584 
L 377.679001 307.389602 
L 374.706391 307.389602 
z
" style="fill:#5eedfe;fill-opacity:0.815686;"/>
   </g>
   <g id="patch_296">
    <path clip-path="url(#pd6d2f628b5)" d="M 377.679001 307.584 
L 380.651611 307.584 
L 380.651611 307.167432 
L 377.679001 307.167432 
z
" style="fill:#5eedfe;fill-opacity:0.815686;"/>
   </g>
   <g id="patch_297">
    <path clip-path="url(#pd6d2f628b5)" d="M 380.651611 307.584 
L 383.624222 307.584 
L 383.624222 307.306288 
L 380.651611 307.306288 
z
" style="fill:#5eedfe;fill-opacity:0.815686;"/>
   </g>
   <g id="patch_298">
    <path clip-path="url(#pd6d2f628b5)" d="M 383.624222 307.584 
L 386.596832 307.584 
L 386.596832 307.334059 
L 383.624222 307.334059 
z
" style="fill:#5eedfe;fill-opacity:0.815686;"/>
   </g>
   <g id="patch_299">
    <path clip-path="url(#pd6d2f628b5)" d="M 386.596832 307.584 
L 389.569442 307.584 
L 389.569442 307.250746 
L 386.596832 307.250746 
z
" style="fill:#5eedfe;fill-opacity:0.815686;"/>
   </g>
   <g id="patch_300">
    <path clip-path="url(#pd6d2f628b5)" d="M 389.569442 307.584 
L 392.542052 307.584 
L 392.542052 307.222974 
L 389.569442 307.222974 
z
" style="fill:#5eedfe;fill-opacity:0.815686;"/>
   </g>
   <g id="patch_301">
    <path clip-path="url(#pd6d2f628b5)" d="M 392.542052 307.584 
L 395.514662 307.584 
L 395.514662 307.417373 
L 392.542052 307.417373 
z
" style="fill:#5eedfe;fill-opacity:0.815686;"/>
   </g>
   <g id="patch_302">
    <path clip-path="url(#pd6d2f628b5)" d="M 395.514662 307.584 
L 398.487273 307.584 
L 398.487273 307.222974 
L 395.514662 307.222974 
z
" style="fill:#5eedfe;fill-opacity:0.815686;"/>
   </g>
   <g id="matplotlib.axis_1">
    <g id="xtick_1">
     <g id="line2d_1">
      <defs>
       <path d="M 0 0 
L 0 3.5 
" id="mcd9e216069" style="stroke:#000000;stroke-width:0.8;"/>
      </defs>
      <g>
       <use style="stroke:#000000;stroke-width:0.8;" x="104.46771" xlink:href="#mcd9e216069" y="307.584"/>
      </g>
     </g>
     <g id="text_1">
      <!-- 1.0 us -->
      <defs>
       <path d="M 12.40625 8.296875 
L 28.515625 8.296875 
L 28.515625 63.921875 
L 10.984375 60.40625 
L 10.984375 69.390625 
L 28.421875 72.90625 
L 38.28125 72.90625 
L 38.28125 8.296875 
L 54.390625 8.296875 
L 54.390625 0 
L 12.40625 0 
z
" id="DejaVuSans-49"/>
       <path d="M 10.6875 12.40625 
L 21 12.40625 
L 21 0 
L 10.6875 0 
z
" id="DejaVuSans-46"/>
       <path d="M 31.78125 66.40625 
Q 24.171875 66.40625 20.328125 58.90625 
Q 16.5 51.421875 16.5 36.375 
Q 16.5 21.390625 20.328125 13.890625 
Q 24.171875 6.390625 31.78125 6.390625 
Q 39.453125 6.390625 43.28125 13.890625 
Q 47.125 21.390625 47.125 36.375 
Q 47.125 51.421875 43.28125 58.90625 
Q 39.453125 66.40625 31.78125 66.40625 
z
M 31.78125 74.21875 
Q 44.046875 74.21875 50.515625 64.515625 
Q 56.984375 54.828125 56.984375 36.375 
Q 56.984375 17.96875 50.515625 8.265625 
Q 44.046875 -1.421875 31.78125 -1.421875 
Q 19.53125 -1.421875 13.0625 8.265625 
Q 6.59375 17.96875 6.59375 36.375 
Q 6.59375 54.828125 13.0625 64.515625 
Q 19.53125 74.21875 31.78125 74.21875 
z
" id="DejaVuSans-48"/>
       <path id="DejaVuSans-32"/>
       <path d="M 8.5 21.578125 
L 8.5 54.6875 
L 17.484375 54.6875 
L 17.484375 21.921875 
Q 17.484375 14.15625 20.5 10.265625 
Q 23.53125 6.390625 29.59375 6.390625 
Q 36.859375 6.390625 41.078125 11.03125 
Q 45.3125 15.671875 45.3125 23.6875 
L 45.3125 54.6875 
L 54.296875 54.6875 
L 54.296875 0 
L 45.3125 0 
L 45.3125 8.40625 
Q 42.046875 3.421875 37.71875 1 
Q 33.40625 -1.421875 27.6875 -1.421875 
Q 18.265625 -1.421875 13.375 4.4375 
Q 8.5 10.296875 8.5 21.578125 
z
M 31.109375 56 
z
" id="DejaVuSans-117"/>
       <path d="M 44.28125 53.078125 
L 44.28125 44.578125 
Q 40.484375 46.53125 36.375 47.5 
Q 32.28125 48.484375 27.875 48.484375 
Q 21.1875 48.484375 17.84375 46.4375 
Q 14.5 44.390625 14.5 40.28125 
Q 14.5 37.15625 16.890625 35.375 
Q 19.28125 33.59375 26.515625 31.984375 
L 29.59375 31.296875 
Q 39.15625 29.25 43.1875 25.515625 
Q 47.21875 21.78125 47.21875 15.09375 
Q 47.21875 7.46875 41.1875 3.015625 
Q 35.15625 -1.421875 24.609375 -1.421875 
Q 20.21875 -1.421875 15.453125 -0.5625 
Q 10.6875 0.296875 5.421875 2 
L 5.421875 11.28125 
Q 10.40625 8.6875 15.234375 7.390625 
Q 20.0625 6.109375 24.8125 6.109375 
Q 31.15625 6.109375 34.5625 8.28125 
Q 37.984375 10.453125 37.984375 14.40625 
Q 37.984375 18.0625 35.515625 20.015625 
Q 33.0625 21.96875 24.703125 23.78125 
L 21.578125 24.515625 
Q 13.234375 26.265625 9.515625 29.90625 
Q 5.8125 33.546875 5.8125 39.890625 
Q 5.8125 47.609375 11.28125 51.796875 
Q 16.75 56 26.8125 56 
Q 31.78125 56 36.171875 55.265625 
Q 40.578125 54.546875 44.28125 53.078125 
z
" id="DejaVuSans-115"/>
      </defs>
      <g transform="translate(101.256471 321.470523)rotate(-335)scale(0.1 -0.1)">
       <use xlink:href="#DejaVuSans-49"/>
       <use x="63.623047" xlink:href="#DejaVuSans-46"/>
       <use x="95.410156" xlink:href="#DejaVuSans-48"/>
       <use x="159.033203" xlink:href="#DejaVuSans-32"/>
       <use x="190.820312" xlink:href="#DejaVuSans-117"/>
       <use x="254.199219" xlink:href="#DejaVuSans-115"/>
      </g>
     </g>
    </g>
    <g id="xtick_2">
     <g id="line2d_2">
      <g>
       <use style="stroke:#000000;stroke-width:0.8;" x="168.025765" xlink:href="#mcd9e216069" y="307.584"/>
      </g>
     </g>
     <g id="text_2">
      <!-- 2.0 us -->
      <defs>
       <path d="M 19.1875 8.296875 
L 53.609375 8.296875 
L 53.609375 0 
L 7.328125 0 
L 7.328125 8.296875 
Q 12.9375 14.109375 22.625 23.890625 
Q 32.328125 33.6875 34.8125 36.53125 
Q 39.546875 41.84375 41.421875 45.53125 
Q 43.3125 49.21875 43.3125 52.78125 
Q 43.3125 58.59375 39.234375 62.25 
Q 35.15625 65.921875 28.609375 65.921875 
Q 23.96875 65.921875 18.8125 64.3125 
Q 13.671875 62.703125 7.8125 59.421875 
L 7.8125 69.390625 
Q 13.765625 71.78125 18.9375 73 
Q 24.125 74.21875 28.421875 74.21875 
Q 39.75 74.21875 46.484375 68.546875 
Q 53.21875 62.890625 53.21875 53.421875 
Q 53.21875 48.921875 51.53125 44.890625 
Q 49.859375 40.875 45.40625 35.40625 
Q 44.1875 33.984375 37.640625 27.21875 
Q 31.109375 20.453125 19.1875 8.296875 
z
" id="DejaVuSans-50"/>
      </defs>
      <g transform="translate(164.814526 321.470523)rotate(-335)scale(0.1 -0.1)">
       <use xlink:href="#DejaVuSans-50"/>
       <use x="63.623047" xlink:href="#DejaVuSans-46"/>
       <use x="95.410156" xlink:href="#DejaVuSans-48"/>
       <use x="159.033203" xlink:href="#DejaVuSans-32"/>
       <use x="190.820312" xlink:href="#DejaVuSans-117"/>
       <use x="254.199219" xlink:href="#DejaVuSans-115"/>
      </g>
     </g>
    </g>
    <g id="xtick_3">
     <g id="line2d_3">
      <g>
       <use style="stroke:#000000;stroke-width:0.8;" x="231.58382" xlink:href="#mcd9e216069" y="307.584"/>
      </g>
     </g>
     <g id="text_3">
      <!-- 3.0 us -->
      <defs>
       <path d="M 40.578125 39.3125 
Q 47.65625 37.796875 51.625 33 
Q 55.609375 28.21875 55.609375 21.1875 
Q 55.609375 10.40625 48.1875 4.484375 
Q 40.765625 -1.421875 27.09375 -1.421875 
Q 22.515625 -1.421875 17.65625 -0.515625 
Q 12.796875 0.390625 7.625 2.203125 
L 7.625 11.71875 
Q 11.71875 9.328125 16.59375 8.109375 
Q 21.484375 6.890625 26.8125 6.890625 
Q 36.078125 6.890625 40.9375 10.546875 
Q 45.796875 14.203125 45.796875 21.1875 
Q 45.796875 27.640625 41.28125 31.265625 
Q 36.765625 34.90625 28.71875 34.90625 
L 20.21875 34.90625 
L 20.21875 43.015625 
L 29.109375 43.015625 
Q 36.375 43.015625 40.234375 45.921875 
Q 44.09375 48.828125 44.09375 54.296875 
Q 44.09375 59.90625 40.109375 62.90625 
Q 36.140625 65.921875 28.71875 65.921875 
Q 24.65625 65.921875 20.015625 65.03125 
Q 15.375 64.15625 9.8125 62.3125 
L 9.8125 71.09375 
Q 15.4375 72.65625 20.34375 73.4375 
Q 25.25 74.21875 29.59375 74.21875 
Q 40.828125 74.21875 47.359375 69.109375 
Q 53.90625 64.015625 53.90625 55.328125 
Q 53.90625 49.265625 50.4375 45.09375 
Q 46.96875 40.921875 40.578125 39.3125 
z
" id="DejaVuSans-51"/>
      </defs>
      <g transform="translate(228.372582 321.470523)rotate(-335)scale(0.1 -0.1)">
       <use xlink:href="#DejaVuSans-51"/>
       <use x="63.623047" xlink:href="#DejaVuSans-46"/>
       <use x="95.410156" xlink:href="#DejaVuSans-48"/>
       <use x="159.033203" xlink:href="#DejaVuSans-32"/>
       <use x="190.820312" xlink:href="#DejaVuSans-117"/>
       <use x="254.199219" xlink:href="#DejaVuSans-115"/>
      </g>
     </g>
    </g>
    <g id="xtick_4">
     <g id="line2d_4">
      <g>
       <use style="stroke:#000000;stroke-width:0.8;" x="295.141875" xlink:href="#mcd9e216069" y="307.584"/>
      </g>
     </g>
     <g id="text_4">
      <!-- 4.0 us -->
      <defs>
       <path d="M 37.796875 64.3125 
L 12.890625 25.390625 
L 37.796875 25.390625 
z
M 35.203125 72.90625 
L 47.609375 72.90625 
L 47.609375 25.390625 
L 58.015625 25.390625 
L 58.015625 17.1875 
L 47.609375 17.1875 
L 47.609375 0 
L 37.796875 0 
L 37.796875 17.1875 
L 4.890625 17.1875 
L 4.890625 26.703125 
z
" id="DejaVuSans-52"/>
      </defs>
      <g transform="translate(291.930637 321.470523)rotate(-335)scale(0.1 -0.1)">
       <use xlink:href="#DejaVuSans-52"/>
       <use x="63.623047" xlink:href="#DejaVuSans-46"/>
       <use x="95.410156" xlink:href="#DejaVuSans-48"/>
       <use x="159.033203" xlink:href="#DejaVuSans-32"/>
       <use x="190.820312" xlink:href="#DejaVuSans-117"/>
       <use x="254.199219" xlink:href="#DejaVuSans-115"/>
      </g>
     </g>
    </g>
    <g id="xtick_5">
     <g id="line2d_5">
      <g>
       <use style="stroke:#000000;stroke-width:0.8;" x="358.69993" xlink:href="#mcd9e216069" y="307.584"/>
      </g>
     </g>
     <g id="text_5">
      <!-- 5.0 us -->
      <defs>
       <path d="M 10.796875 72.90625 
L 49.515625 72.90625 
L 49.515625 64.59375 
L 19.828125 64.59375 
L 19.828125 46.734375 
Q 21.96875 47.46875 24.109375 47.828125 
Q 26.265625 48.1875 28.421875 48.1875 
Q 40.625 48.1875 47.75 41.5 
Q 54.890625 34.8125 54.890625 23.390625 
Q 54.890625 11.625 47.5625 5.09375 
Q 40.234375 -1.421875 26.90625 -1.421875 
Q 22.3125 -1.421875 17.546875 -0.640625 
Q 12.796875 0.140625 7.71875 1.703125 
L 7.71875 11.625 
Q 12.109375 9.234375 16.796875 8.0625 
Q 21.484375 6.890625 26.703125 6.890625 
Q 35.15625 6.890625 40.078125 11.328125 
Q 45.015625 15.765625 45.015625 23.390625 
Q 45.015625 31 40.078125 35.4375 
Q 35.15625 39.890625 26.703125 39.890625 
Q 22.75 39.890625 18.8125 39.015625 
Q 14.890625 38.140625 10.796875 36.28125 
z
" id="DejaVuSans-53"/>
      </defs>
      <g transform="translate(355.488692 321.470523)rotate(-335)scale(0.1 -0.1)">
       <use xlink:href="#DejaVuSans-53"/>
       <use x="63.623047" xlink:href="#DejaVuSans-46"/>
       <use x="95.410156" xlink:href="#DejaVuSans-48"/>
       <use x="159.033203" xlink:href="#DejaVuSans-32"/>
       <use x="190.820312" xlink:href="#DejaVuSans-117"/>
       <use x="254.199219" xlink:href="#DejaVuSans-115"/>
      </g>
     </g>
    </g>
   </g>
   <g id="matplotlib.axis_2">
    <g id="ytick_1">
     <g id="line2d_6">
      <defs>
       <path d="M 0 0 
L -3.5 0 
" id="m97b234957d" style="stroke:#000000;stroke-width:0.8;"/>
      </defs>
      <g>
       <use style="stroke:#000000;stroke-width:0.8;" x="57.6" xlink:href="#m97b234957d" y="307.584"/>
      </g>
     </g>
     <g id="text_6">
      <!-- 0 -->
      <g transform="translate(44.2375 311.383219)scale(0.1 -0.1)">
       <use xlink:href="#DejaVuSans-48"/>
      </g>
     </g>
    </g>
    <g id="ytick_2">
     <g id="line2d_7">
      <g>
       <use style="stroke:#000000;stroke-width:0.8;" x="57.6" xlink:href="#m97b234957d" y="252.041594"/>
      </g>
     </g>
     <g id="text_7">
      <!-- 2000 -->
      <g transform="translate(25.15 255.840812)scale(0.1 -0.1)">
       <use xlink:href="#DejaVuSans-50"/>
       <use x="63.623047" xlink:href="#DejaVuSans-48"/>
       <use x="127.246094" xlink:href="#DejaVuSans-48"/>
       <use x="190.869141" xlink:href="#DejaVuSans-48"/>
      </g>
     </g>
    </g>
    <g id="ytick_3">
     <g id="line2d_8">
      <g>
       <use style="stroke:#000000;stroke-width:0.8;" x="57.6" xlink:href="#m97b234957d" y="196.499187"/>
      </g>
     </g>
     <g id="text_8">
      <!-- 4000 -->
      <g transform="translate(25.15 200.298406)scale(0.1 -0.1)">
       <use xlink:href="#DejaVuSans-52"/>
       <use x="63.623047" xlink:href="#DejaVuSans-48"/>
       <use x="127.246094" xlink:href="#DejaVuSans-48"/>
       <use x="190.869141" xlink:href="#DejaVuSans-48"/>
      </g>
     </g>
    </g>
    <g id="ytick_4">
     <g id="line2d_9">
      <g>
       <use style="stroke:#000000;stroke-width:0.8;" x="57.6" xlink:href="#m97b234957d" y="140.956781"/>
      </g>
     </g>
     <g id="text_9">
      <!-- 6000 -->
      <defs>
       <path d="M 33.015625 40.375 
Q 26.375 40.375 22.484375 35.828125 
Q 18.609375 31.296875 18.609375 23.390625 
Q 18.609375 15.53125 22.484375 10.953125 
Q 26.375 6.390625 33.015625 6.390625 
Q 39.65625 6.390625 43.53125 10.953125 
Q 47.40625 15.53125 47.40625 23.390625 
Q 47.40625 31.296875 43.53125 35.828125 
Q 39.65625 40.375 33.015625 40.375 
z
M 52.59375 71.296875 
L 52.59375 62.3125 
Q 48.875 64.0625 45.09375 64.984375 
Q 41.3125 65.921875 37.59375 65.921875 
Q 27.828125 65.921875 22.671875 59.328125 
Q 17.53125 52.734375 16.796875 39.40625 
Q 19.671875 43.65625 24.015625 45.921875 
Q 28.375 48.1875 33.59375 48.1875 
Q 44.578125 48.1875 50.953125 41.515625 
Q 57.328125 34.859375 57.328125 23.390625 
Q 57.328125 12.15625 50.6875 5.359375 
Q 44.046875 -1.421875 33.015625 -1.421875 
Q 20.359375 -1.421875 13.671875 8.265625 
Q 6.984375 17.96875 6.984375 36.375 
Q 6.984375 53.65625 15.1875 63.9375 
Q 23.390625 74.21875 37.203125 74.21875 
Q 40.921875 74.21875 44.703125 73.484375 
Q 48.484375 72.75 52.59375 71.296875 
z
" id="DejaVuSans-54"/>
      </defs>
      <g transform="translate(25.15 144.756)scale(0.1 -0.1)">
       <use xlink:href="#DejaVuSans-54"/>
       <use x="63.623047" xlink:href="#DejaVuSans-48"/>
       <use x="127.246094" xlink:href="#DejaVuSans-48"/>
       <use x="190.869141" xlink:href="#DejaVuSans-48"/>
      </g>
     </g>
    </g>
    <g id="ytick_5">
     <g id="line2d_10">
      <g>
       <use style="stroke:#000000;stroke-width:0.8;" x="57.6" xlink:href="#m97b234957d" y="85.414375"/>
      </g>
     </g>
     <g id="text_10">
      <!-- 8000 -->
      <defs>
       <path d="M 31.78125 34.625 
Q 24.75 34.625 20.71875 30.859375 
Q 16.703125 27.09375 16.703125 20.515625 
Q 16.703125 13.921875 20.71875 10.15625 
Q 24.75 6.390625 31.78125 6.390625 
Q 38.8125 6.390625 42.859375 10.171875 
Q 46.921875 13.96875 46.921875 20.515625 
Q 46.921875 27.09375 42.890625 30.859375 
Q 38.875 34.625 31.78125 34.625 
z
M 21.921875 38.8125 
Q 15.578125 40.375 12.03125 44.71875 
Q 8.5 49.078125 8.5 55.328125 
Q 8.5 64.0625 14.71875 69.140625 
Q 20.953125 74.21875 31.78125 74.21875 
Q 42.671875 74.21875 48.875 69.140625 
Q 55.078125 64.0625 55.078125 55.328125 
Q 55.078125 49.078125 51.53125 44.71875 
Q 48 40.375 41.703125 38.8125 
Q 48.828125 37.15625 52.796875 32.3125 
Q 56.78125 27.484375 56.78125 20.515625 
Q 56.78125 9.90625 50.3125 4.234375 
Q 43.84375 -1.421875 31.78125 -1.421875 
Q 19.734375 -1.421875 13.25 4.234375 
Q 6.78125 9.90625 6.78125 20.515625 
Q 6.78125 27.484375 10.78125 32.3125 
Q 14.796875 37.15625 21.921875 38.8125 
z
M 18.3125 54.390625 
Q 18.3125 48.734375 21.84375 45.5625 
Q 25.390625 42.390625 31.78125 42.390625 
Q 38.140625 42.390625 41.71875 45.5625 
Q 45.3125 48.734375 45.3125 54.390625 
Q 45.3125 60.0625 41.71875 63.234375 
Q 38.140625 66.40625 31.78125 66.40625 
Q 25.390625 66.40625 21.84375 63.234375 
Q 18.3125 60.0625 18.3125 54.390625 
z
" id="DejaVuSans-56"/>
      </defs>
      <g transform="translate(25.15 89.213594)scale(0.1 -0.1)">
       <use xlink:href="#DejaVuSans-56"/>
       <use x="63.623047" xlink:href="#DejaVuSans-48"/>
       <use x="127.246094" xlink:href="#DejaVuSans-48"/>
       <use x="190.869141" xlink:href="#DejaVuSans-48"/>
      </g>
     </g>
    </g>
    <g id="text_11">
     <!-- Number of samples -->
     <defs>
      <path d="M 9.8125 72.90625 
L 23.09375 72.90625 
L 55.421875 11.921875 
L 55.421875 72.90625 
L 64.984375 72.90625 
L 64.984375 0 
L 51.703125 0 
L 19.390625 60.984375 
L 19.390625 0 
L 9.8125 0 
z
" id="DejaVuSans-78"/>
      <path d="M 52 44.1875 
Q 55.375 50.25 60.0625 53.125 
Q 64.75 56 71.09375 56 
Q 79.640625 56 84.28125 50.015625 
Q 88.921875 44.046875 88.921875 33.015625 
L 88.921875 0 
L 79.890625 0 
L 79.890625 32.71875 
Q 79.890625 40.578125 77.09375 44.375 
Q 74.3125 48.1875 68.609375 48.1875 
Q 61.625 48.1875 57.5625 43.546875 
Q 53.515625 38.921875 53.515625 30.90625 
L 53.515625 0 
L 44.484375 0 
L 44.484375 32.71875 
Q 44.484375 40.625 41.703125 44.40625 
Q 38.921875 48.1875 33.109375 48.1875 
Q 26.21875 48.1875 22.15625 43.53125 
Q 18.109375 38.875 18.109375 30.90625 
L 18.109375 0 
L 9.078125 0 
L 9.078125 54.6875 
L 18.109375 54.6875 
L 18.109375 46.1875 
Q 21.1875 51.21875 25.484375 53.609375 
Q 29.78125 56 35.6875 56 
Q 41.65625 56 45.828125 52.96875 
Q 50 49.953125 52 44.1875 
z
" id="DejaVuSans-109"/>
      <path d="M 48.6875 27.296875 
Q 48.6875 37.203125 44.609375 42.84375 
Q 40.53125 48.484375 33.40625 48.484375 
Q 26.265625 48.484375 22.1875 42.84375 
Q 18.109375 37.203125 18.109375 27.296875 
Q 18.109375 17.390625 22.1875 11.75 
Q 26.265625 6.109375 33.40625 6.109375 
Q 40.53125 6.109375 44.609375 11.75 
Q 48.6875 17.390625 48.6875 27.296875 
z
M 18.109375 46.390625 
Q 20.953125 51.265625 25.265625 53.625 
Q 29.59375 56 35.59375 56 
Q 45.5625 56 51.78125 48.09375 
Q 58.015625 40.1875 58.015625 27.296875 
Q 58.015625 14.40625 51.78125 6.484375 
Q 45.5625 -1.421875 35.59375 -1.421875 
Q 29.59375 -1.421875 25.265625 0.953125 
Q 20.953125 3.328125 18.109375 8.203125 
L 18.109375 0 
L 9.078125 0 
L 9.078125 75.984375 
L 18.109375 75.984375 
z
" id="DejaVuSans-98"/>
      <path d="M 56.203125 29.59375 
L 56.203125 25.203125 
L 14.890625 25.203125 
Q 15.484375 15.921875 20.484375 11.0625 
Q 25.484375 6.203125 34.421875 6.203125 
Q 39.59375 6.203125 44.453125 7.46875 
Q 49.3125 8.734375 54.109375 11.28125 
L 54.109375 2.78125 
Q 49.265625 0.734375 44.1875 -0.34375 
Q 39.109375 -1.421875 33.890625 -1.421875 
Q 20.796875 -1.421875 13.15625 6.1875 
Q 5.515625 13.8125 5.515625 26.8125 
Q 5.515625 40.234375 12.765625 48.109375 
Q 20.015625 56 32.328125 56 
Q 43.359375 56 49.78125 48.890625 
Q 56.203125 41.796875 56.203125 29.59375 
z
M 47.21875 32.234375 
Q 47.125 39.59375 43.09375 43.984375 
Q 39.0625 48.390625 32.421875 48.390625 
Q 24.90625 48.390625 20.390625 44.140625 
Q 15.875 39.890625 15.1875 32.171875 
z
" id="DejaVuSans-101"/>
      <path d="M 41.109375 46.296875 
Q 39.59375 47.171875 37.8125 47.578125 
Q 36.03125 48 33.890625 48 
Q 26.265625 48 22.1875 43.046875 
Q 18.109375 38.09375 18.109375 28.8125 
L 18.109375 0 
L 9.078125 0 
L 9.078125 54.6875 
L 18.109375 54.6875 
L 18.109375 46.1875 
Q 20.953125 51.171875 25.484375 53.578125 
Q 30.03125 56 36.53125 56 
Q 37.453125 56 38.578125 55.875 
Q 39.703125 55.765625 41.0625 55.515625 
z
" id="DejaVuSans-114"/>
      <path d="M 30.609375 48.390625 
Q 23.390625 48.390625 19.1875 42.75 
Q 14.984375 37.109375 14.984375 27.296875 
Q 14.984375 17.484375 19.15625 11.84375 
Q 23.34375 6.203125 30.609375 6.203125 
Q 37.796875 6.203125 41.984375 11.859375 
Q 46.1875 17.53125 46.1875 27.296875 
Q 46.1875 37.015625 41.984375 42.703125 
Q 37.796875 48.390625 30.609375 48.390625 
z
M 30.609375 56 
Q 42.328125 56 49.015625 48.375 
Q 55.71875 40.765625 55.71875 27.296875 
Q 55.71875 13.875 49.015625 6.21875 
Q 42.328125 -1.421875 30.609375 -1.421875 
Q 18.84375 -1.421875 12.171875 6.21875 
Q 5.515625 13.875 5.515625 27.296875 
Q 5.515625 40.765625 12.171875 48.375 
Q 18.84375 56 30.609375 56 
z
" id="DejaVuSans-111"/>
      <path d="M 37.109375 75.984375 
L 37.109375 68.5 
L 28.515625 68.5 
Q 23.6875 68.5 21.796875 66.546875 
Q 19.921875 64.59375 19.921875 59.515625 
L 19.921875 54.6875 
L 34.71875 54.6875 
L 34.71875 47.703125 
L 19.921875 47.703125 
L 19.921875 0 
L 10.890625 0 
L 10.890625 47.703125 
L 2.296875 47.703125 
L 2.296875 54.6875 
L 10.890625 54.6875 
L 10.890625 58.5 
Q 10.890625 67.625 15.140625 71.796875 
Q 19.390625 75.984375 28.609375 75.984375 
z
" id="DejaVuSans-102"/>
      <path d="M 34.28125 27.484375 
Q 23.390625 27.484375 19.1875 25 
Q 14.984375 22.515625 14.984375 16.5 
Q 14.984375 11.71875 18.140625 8.90625 
Q 21.296875 6.109375 26.703125 6.109375 
Q 34.1875 6.109375 38.703125 11.40625 
Q 43.21875 16.703125 43.21875 25.484375 
L 43.21875 27.484375 
z
M 52.203125 31.203125 
L 52.203125 0 
L 43.21875 0 
L 43.21875 8.296875 
Q 40.140625 3.328125 35.546875 0.953125 
Q 30.953125 -1.421875 24.3125 -1.421875 
Q 15.921875 -1.421875 10.953125 3.296875 
Q 6 8.015625 6 15.921875 
Q 6 25.140625 12.171875 29.828125 
Q 18.359375 34.515625 30.609375 34.515625 
L 43.21875 34.515625 
L 43.21875 35.40625 
Q 43.21875 41.609375 39.140625 45 
Q 35.0625 48.390625 27.6875 48.390625 
Q 23 48.390625 18.546875 47.265625 
Q 14.109375 46.140625 10.015625 43.890625 
L 10.015625 52.203125 
Q 14.9375 54.109375 19.578125 55.046875 
Q 24.21875 56 28.609375 56 
Q 40.484375 56 46.34375 49.84375 
Q 52.203125 43.703125 52.203125 31.203125 
z
" id="DejaVuSans-97"/>
      <path d="M 18.109375 8.203125 
L 18.109375 -20.796875 
L 9.078125 -20.796875 
L 9.078125 54.6875 
L 18.109375 54.6875 
L 18.109375 46.390625 
Q 20.953125 51.265625 25.265625 53.625 
Q 29.59375 56 35.59375 56 
Q 45.5625 56 51.78125 48.09375 
Q 58.015625 40.1875 58.015625 27.296875 
Q 58.015625 14.40625 51.78125 6.484375 
Q 45.5625 -1.421875 35.59375 -1.421875 
Q 29.59375 -1.421875 25.265625 0.953125 
Q 20.953125 3.328125 18.109375 8.203125 
z
M 48.6875 27.296875 
Q 48.6875 37.203125 44.609375 42.84375 
Q 40.53125 48.484375 33.40625 48.484375 
Q 26.265625 48.484375 22.1875 42.84375 
Q 18.109375 37.203125 18.109375 27.296875 
Q 18.109375 17.390625 22.1875 11.75 
Q 26.265625 6.109375 33.40625 6.109375 
Q 40.53125 6.109375 44.609375 11.75 
Q 48.6875 17.390625 48.6875 27.296875 
z
" id="DejaVuSans-112"/>
      <path d="M 9.421875 75.984375 
L 18.40625 75.984375 
L 18.40625 0 
L 9.421875 0 
z
" id="DejaVuSans-108"/>
     </defs>
     <g transform="translate(19.070312 223.395187)rotate(-90)scale(0.1 -0.1)">
      <use xlink:href="#DejaVuSans-78"/>
      <use x="74.804688" xlink:href="#DejaVuSans-117"/>
      <use x="138.183594" xlink:href="#DejaVuSans-109"/>
      <use x="235.595703" xlink:href="#DejaVuSans-98"/>
      <use x="299.072266" xlink:href="#DejaVuSans-101"/>
      <use x="360.595703" xlink:href="#DejaVuSans-114"/>
      <use x="401.708984" xlink:href="#DejaVuSans-32"/>
      <use x="433.496094" xlink:href="#DejaVuSans-111"/>
      <use x="494.677734" xlink:href="#DejaVuSans-102"/>
      <use x="529.882812" xlink:href="#DejaVuSans-32"/>
      <use x="561.669922" xlink:href="#DejaVuSans-115"/>
      <use x="613.769531" xlink:href="#DejaVuSans-97"/>
      <use x="675.048828" xlink:href="#DejaVuSans-109"/>
      <use x="772.460938" xlink:href="#DejaVuSans-112"/>
      <use x="835.9375" xlink:href="#DejaVuSans-108"/>
      <use x="863.720703" xlink:href="#DejaVuSans-101"/>
      <use x="925.244141" xlink:href="#DejaVuSans-115"/>
     </g>
    </g>
   </g>
   <g id="line2d_11">
    <path clip-path="url(#pd6d2f628b5)" d="M 114.509883 307.584 
L 114.509883 41.472 
" style="fill:none;stroke:#fe6f5e;stroke-dasharray:5.55,2.4;stroke-dashoffset:0;stroke-width:1.5;"/>
   </g>
   <g id="line2d_12">
    <path clip-path="url(#pd6d2f628b5)" d="M 180.356028 307.584 
L 180.356028 41.472 
" style="fill:none;stroke:#5e9dfe;stroke-dasharray:5.55,2.4;stroke-dashoffset:0;stroke-width:1.5;"/>
   </g>
   <g id="line2d_13">
    <path clip-path="url(#pd6d2f628b5)" d="M 188.046552 307.584 
L 188.046552 41.472 
" style="fill:none;stroke:#5eedfe;stroke-dasharray:5.55,2.4;stroke-dashoffset:0;stroke-width:1.5;"/>
   </g>
   <g id="patch_303">
    <path d="M 57.6 307.584 
L 57.6 41.472 
" style="fill:none;stroke:#000000;stroke-linecap:square;stroke-linejoin:miter;stroke-width:0.8;"/>
   </g>
   <g id="patch_304">
    <path d="M 414.72 307.584 
L 414.72 41.472 
" style="fill:none;stroke:#000000;stroke-linecap:square;stroke-linejoin:miter;stroke-width:0.8;"/>
   </g>
   <g id="patch_305">
    <path d="M 57.6 307.584 
L 414.72 307.584 
" style="fill:none;stroke:#000000;stroke-linecap:square;stroke-linejoin:miter;stroke-width:0.8;"/>
   </g>
   <g id="patch_306">
    <path d="M 57.6 41.472 
L 414.72 41.472 
" style="fill:none;stroke:#000000;stroke-linecap:square;stroke-linejoin:miter;stroke-width:0.8;"/>
   </g>
   <g id="text_12">
    <!-- uniform samples -->
    <defs>
     <path d="M 54.890625 33.015625 
L 54.890625 0 
L 45.90625 0 
L 45.90625 32.71875 
Q 45.90625 40.484375 42.875 44.328125 
Q 39.84375 48.1875 33.796875 48.1875 
Q 26.515625 48.1875 22.3125 43.546875 
Q 18.109375 38.921875 18.109375 30.90625 
L 18.109375 0 
L 9.078125 0 
L 9.078125 54.6875 
L 18.109375 54.6875 
L 18.109375 46.1875 
Q 21.34375 51.125 25.703125 53.5625 
Q 30.078125 56 35.796875 56 
Q 45.21875 56 50.046875 50.171875 
Q 54.890625 44.34375 54.890625 33.015625 
z
" id="DejaVuSans-110"/>
     <path d="M 9.421875 54.6875 
L 18.40625 54.6875 
L 18.40625 0 
L 9.421875 0 
z
M 9.421875 75.984375 
L 18.40625 75.984375 
L 18.40625 64.59375 
L 9.421875 64.59375 
z
" id="DejaVuSans-105"/>
    </defs>
    <g transform="translate(185.9475 35.472)scale(0.12 -0.12)">
     <use xlink:href="#DejaVuSans-117"/>
     <use x="63.378906" xlink:href="#DejaVuSans-110"/>
     <use x="126.757812" xlink:href="#DejaVuSans-105"/>
     <use x="154.541016" xlink:href="#DejaVuSans-102"/>
     <use x="189.746094" xlink:href="#DejaVuSans-111"/>
     <use x="250.927734" xlink:href="#DejaVuSans-114"/>
     <use x="292.025391" xlink:href="#DejaVuSans-109"/>
     <use x="389.4375" xlink:href="#DejaVuSans-32"/>
     <use x="421.224609" xlink:href="#DejaVuSans-115"/>
     <use x="473.324219" xlink:href="#DejaVuSans-97"/>
     <use x="534.603516" xlink:href="#DejaVuSans-109"/>
     <use x="632.015625" xlink:href="#DejaVuSans-112"/>
     <use x="695.492188" xlink:href="#DejaVuSans-108"/>
     <use x="723.275391" xlink:href="#DejaVuSans-101"/>
     <use x="784.798828" xlink:href="#DejaVuSans-115"/>
    </g>
   </g>
   <g id="legend_1">
    <g id="patch_307">
     <path d="M 344.146563 94.062625 
L 407.72 94.062625 
Q 409.72 94.062625 409.72 92.062625 
L 409.72 48.472 
Q 409.72 46.472 407.72 46.472 
L 344.146563 46.472 
Q 342.146563 46.472 342.146563 48.472 
L 342.146563 92.062625 
Q 342.146563 94.062625 344.146563 94.062625 
z
" style="fill:#ffffff;opacity:0.8;stroke:#cccccc;stroke-linejoin:miter;"/>
    </g>
    <g id="patch_308">
     <path d="M 346.146563 58.070437 
L 366.146563 58.070437 
L 366.146563 51.070437 
L 346.146563 51.070437 
z
" style="fill:#fe6f5e;fill-opacity:0.815686;"/>
    </g>
    <g id="text_13">
     <!-- ash -->
     <defs>
      <path d="M 54.890625 33.015625 
L 54.890625 0 
L 45.90625 0 
L 45.90625 32.71875 
Q 45.90625 40.484375 42.875 44.328125 
Q 39.84375 48.1875 33.796875 48.1875 
Q 26.515625 48.1875 22.3125 43.546875 
Q 18.109375 38.921875 18.109375 30.90625 
L 18.109375 0 
L 9.078125 0 
L 9.078125 75.984375 
L 18.109375 75.984375 
L 18.109375 46.1875 
Q 21.34375 51.125 25.703125 53.5625 
Q 30.078125 56 35.796875 56 
Q 45.21875 56 50.046875 50.171875 
Q 54.890625 44.34375 54.890625 33.015625 
z
" id="DejaVuSans-104"/>
     </defs>
     <g transform="translate(374.146563 58.070437)scale(0.1 -0.1)">
      <use xlink:href="#DejaVuSans-97"/>
      <use x="61.279297" xlink:href="#DejaVuSans-115"/>
      <use x="113.378906" xlink:href="#DejaVuSans-104"/>
     </g>
    </g>
    <g id="patch_309">
     <path d="M 346.146563 72.748562 
L 366.146563 72.748562 
L 366.146563 65.748562 
L 346.146563 65.748562 
z
" style="fill:#5e9dfe;fill-opacity:0.815686;"/>
    </g>
    <g id="text_14">
     <!-- vy_ST -->
     <defs>
      <path d="M 2.984375 54.6875 
L 12.5 54.6875 
L 29.59375 8.796875 
L 46.6875 54.6875 
L 56.203125 54.6875 
L 35.6875 0 
L 23.484375 0 
z
" id="DejaVuSans-118"/>
      <path d="M 32.171875 -5.078125 
Q 28.375 -14.84375 24.75 -17.8125 
Q 21.140625 -20.796875 15.09375 -20.796875 
L 7.90625 -20.796875 
L 7.90625 -13.28125 
L 13.1875 -13.28125 
Q 16.890625 -13.28125 18.9375 -11.515625 
Q 21 -9.765625 23.484375 -3.21875 
L 25.09375 0.875 
L 2.984375 54.6875 
L 12.5 54.6875 
L 29.59375 11.921875 
L 46.6875 54.6875 
L 56.203125 54.6875 
z
" id="DejaVuSans-121"/>
      <path d="M 50.984375 -16.609375 
L 50.984375 -23.578125 
L -0.984375 -23.578125 
L -0.984375 -16.609375 
z
" id="DejaVuSans-95"/>
      <path d="M 53.515625 70.515625 
L 53.515625 60.890625 
Q 47.90625 63.578125 42.921875 64.890625 
Q 37.9375 66.21875 33.296875 66.21875 
Q 25.25 66.21875 20.875 63.09375 
Q 16.5 59.96875 16.5 54.203125 
Q 16.5 49.359375 19.40625 46.890625 
Q 22.3125 44.4375 30.421875 42.921875 
L 36.375 41.703125 
Q 47.40625 39.59375 52.65625 34.296875 
Q 57.90625 29 57.90625 20.125 
Q 57.90625 9.515625 50.796875 4.046875 
Q 43.703125 -1.421875 29.984375 -1.421875 
Q 24.8125 -1.421875 18.96875 -0.25 
Q 13.140625 0.921875 6.890625 3.21875 
L 6.890625 13.375 
Q 12.890625 10.015625 18.65625 8.296875 
Q 24.421875 6.59375 29.984375 6.59375 
Q 38.421875 6.59375 43.015625 9.90625 
Q 47.609375 13.234375 47.609375 19.390625 
Q 47.609375 24.75 44.3125 27.78125 
Q 41.015625 30.8125 33.5 32.328125 
L 27.484375 33.5 
Q 16.453125 35.6875 11.515625 40.375 
Q 6.59375 45.0625 6.59375 53.421875 
Q 6.59375 63.09375 13.40625 68.65625 
Q 20.21875 74.21875 32.171875 74.21875 
Q 37.3125 74.21875 42.625 73.28125 
Q 47.953125 72.359375 53.515625 70.515625 
z
" id="DejaVuSans-83"/>
      <path d="M -0.296875 72.90625 
L 61.375 72.90625 
L 61.375 64.59375 
L 35.5 64.59375 
L 35.5 0 
L 25.59375 0 
L 25.59375 64.59375 
L -0.296875 64.59375 
z
" id="DejaVuSans-84"/>
     </defs>
     <g transform="translate(374.146563 72.748562)scale(0.1 -0.1)">
      <use xlink:href="#DejaVuSans-118"/>
      <use x="59.179688" xlink:href="#DejaVuSans-121"/>
      <use x="118.359375" xlink:href="#DejaVuSans-95"/>
      <use x="168.359375" xlink:href="#DejaVuSans-83"/>
      <use x="231.835938" xlink:href="#DejaVuSans-84"/>
     </g>
    </g>
    <g id="patch_310">
     <path d="M 346.146563 87.704812 
L 366.146563 87.704812 
L 366.146563 80.704812 
L 346.146563 80.704812 
z
" style="fill:#5eedfe;fill-opacity:0.815686;"/>
    </g>
    <g id="text_15">
     <!-- vy_MT -->
     <defs>
      <path d="M 9.8125 72.90625 
L 24.515625 72.90625 
L 43.109375 23.296875 
L 61.8125 72.90625 
L 76.515625 72.90625 
L 76.515625 0 
L 66.890625 0 
L 66.890625 64.015625 
L 48.09375 14.015625 
L 38.1875 14.015625 
L 19.390625 64.015625 
L 19.390625 0 
L 9.8125 0 
z
" id="DejaVuSans-77"/>
     </defs>
     <g transform="translate(374.146563 87.704812)scale(0.1 -0.1)">
      <use xlink:href="#DejaVuSans-118"/>
      <use x="59.179688" xlink:href="#DejaVuSans-121"/>
      <use x="118.359375" xlink:href="#DejaVuSans-95"/>
      <use x="168.359375" xlink:href="#DejaVuSans-77"/>
      <use x="254.638672" xlink:href="#DejaVuSans-84"/>
     </g>
    </g>
   </g>
  </g>
 </g>
 <defs>
  <clipPath id="pd6d2f628b5">
   <rect height="266.112" width="357.12" x="57.6" y="41.472"/>
  </clipPath>
 </defs>
</svg>
