<?xml version="1.0" encoding="utf-8" standalone="no"?>
<!DOCTYPE svg PUBLIC "-//W3C//DTD SVG 1.1//EN"
  "http://www.w3.org/Graphics/SVG/1.1/DTD/svg11.dtd">
<!-- Created with matplotlib (https://matplotlib.org/) -->
<svg height="345.6pt" version="1.1" viewBox="0 0 460.8 345.6" width="460.8pt" xmlns="http://www.w3.org/2000/svg" xmlns:xlink="http://www.w3.org/1999/xlink">
 <defs>
  <style type="text/css">
*{stroke-linecap:butt;stroke-linejoin:round;}
  </style>
 </defs>
 <g id="figure_1">
  <g id="patch_1">
   <path d="M 0 345.6 
L 460.8 345.6 
L 460.8 0 
L 0 0 
z
" style="fill:#ffffff;"/>
  </g>
  <g id="axes_1">
   <g id="patch_2">
    <path d="M 57.6 307.584 
L 414.72 307.584 
L 414.72 41.472 
L 57.6 41.472 
z
" style="fill:#ffffff;"/>
   </g>
   <g id="patch_3">
    <path clip-path="url(#p7d1a38bcce)" d="M 75.744239 307.584 
L 78.591231 307.584 
L 78.591231 307.52602 
L 75.744239 307.52602 
z
" style="fill:#fe6f5e;fill-opacity:0.815686;"/>
   </g>
   <g id="patch_4">
    <path clip-path="url(#p7d1a38bcce)" d="M 78.591231 307.584 
L 81.438224 307.584 
L 81.438224 306.982452 
L 78.591231 306.982452 
z
" style="fill:#fe6f5e;fill-opacity:0.815686;"/>
   </g>
   <g id="patch_5">
    <path clip-path="url(#p7d1a38bcce)" d="M 81.438224 307.584 
L 84.285217 307.584 
L 84.285217 306.163478 
L 81.438224 306.163478 
z
" style="fill:#fe6f5e;fill-opacity:0.815686;"/>
   </g>
   <g id="patch_6">
    <path clip-path="url(#p7d1a38bcce)" d="M 84.285217 307.584 
L 87.132209 307.584 
L 87.132209 306.3954 
L 84.285217 306.3954 
z
" style="fill:#fe6f5e;fill-opacity:0.815686;"/>
   </g>
   <g id="patch_7">
    <path clip-path="url(#p7d1a38bcce)" d="M 87.132209 307.584 
L 89.979202 307.584 
L 89.979202 306.620074 
L 87.132209 306.620074 
z
" style="fill:#fe6f5e;fill-opacity:0.815686;"/>
   </g>
   <g id="patch_8">
    <path clip-path="url(#p7d1a38bcce)" d="M 89.979202 307.584 
L 92.826194 307.584 
L 92.826194 307.120156 
L 89.979202 307.120156 
z
" style="fill:#fe6f5e;fill-opacity:0.815686;"/>
   </g>
   <g id="patch_9">
    <path clip-path="url(#p7d1a38bcce)" d="M 92.826194 307.584 
L 95.673187 307.584 
L 95.673187 307.279602 
L 92.826194 307.279602 
z
" style="fill:#fe6f5e;fill-opacity:0.815686;"/>
   </g>
   <g id="patch_10">
    <path clip-path="url(#p7d1a38bcce)" d="M 95.673187 307.584 
L 98.520179 307.584 
L 98.520179 307.388316 
L 95.673187 307.388316 
z
" style="fill:#fe6f5e;fill-opacity:0.815686;"/>
   </g>
   <g id="patch_11">
    <path clip-path="url(#p7d1a38bcce)" d="M 98.520179 307.584 
L 101.367172 307.584 
L 101.367172 307.34483 
L 98.520179 307.34483 
z
" style="fill:#fe6f5e;fill-opacity:0.815686;"/>
   </g>
   <g id="patch_12">
    <path clip-path="url(#p7d1a38bcce)" d="M 101.367172 307.584 
L 104.214164 307.584 
L 104.214164 307.373821 
L 101.367172 307.373821 
z
" style="fill:#fe6f5e;fill-opacity:0.815686;"/>
   </g>
   <g id="patch_13">
    <path clip-path="url(#p7d1a38bcce)" d="M 104.214164 307.584 
L 107.061157 307.584 
L 107.061157 307.460791 
L 104.214164 307.460791 
z
" style="fill:#fe6f5e;fill-opacity:0.815686;"/>
   </g>
   <g id="patch_14">
    <path clip-path="url(#p7d1a38bcce)" d="M 107.061157 307.584 
L 109.908149 307.584 
L 109.908149 307.504277 
L 107.061157 307.504277 
z
" style="fill:#fe6f5e;fill-opacity:0.815686;"/>
   </g>
   <g id="patch_15">
    <path clip-path="url(#p7d1a38bcce)" d="M 109.908149 307.584 
L 112.755142 307.584 
L 112.755142 307.540515 
L 109.908149 307.540515 
z
" style="fill:#fe6f5e;fill-opacity:0.815686;"/>
   </g>
   <g id="patch_16">
    <path clip-path="url(#p7d1a38bcce)" d="M 112.755142 307.584 
L 115.602134 307.584 
L 115.602134 307.547762 
L 112.755142 307.547762 
z
" style="fill:#fe6f5e;fill-opacity:0.815686;"/>
   </g>
   <g id="patch_17">
    <path clip-path="url(#p7d1a38bcce)" d="M 115.602134 307.584 
L 118.449127 307.584 
L 118.449127 307.584 
L 115.602134 307.584 
z
" style="fill:#fe6f5e;fill-opacity:0.815686;"/>
   </g>
   <g id="patch_18">
    <path clip-path="url(#p7d1a38bcce)" d="M 118.449127 307.584 
L 121.29612 307.584 
L 121.29612 307.569505 
L 118.449127 307.569505 
z
" style="fill:#fe6f5e;fill-opacity:0.815686;"/>
   </g>
   <g id="patch_19">
    <path clip-path="url(#p7d1a38bcce)" d="M 121.29612 307.584 
L 124.143112 307.584 
L 124.143112 307.547762 
L 121.29612 307.547762 
z
" style="fill:#fe6f5e;fill-opacity:0.815686;"/>
   </g>
   <g id="patch_20">
    <path clip-path="url(#p7d1a38bcce)" d="M 124.143112 307.584 
L 126.990105 307.584 
L 126.990105 307.55501 
L 124.143112 307.55501 
z
" style="fill:#fe6f5e;fill-opacity:0.815686;"/>
   </g>
   <g id="patch_21">
    <path clip-path="url(#p7d1a38bcce)" d="M 126.990105 307.584 
L 129.837097 307.584 
L 129.837097 307.569505 
L 126.990105 307.569505 
z
" style="fill:#fe6f5e;fill-opacity:0.815686;"/>
   </g>
   <g id="patch_22">
    <path clip-path="url(#p7d1a38bcce)" d="M 129.837097 307.584 
L 132.68409 307.584 
L 132.68409 307.562257 
L 129.837097 307.562257 
z
" style="fill:#fe6f5e;fill-opacity:0.815686;"/>
   </g>
   <g id="patch_23">
    <path clip-path="url(#p7d1a38bcce)" d="M 132.68409 307.584 
L 135.531082 307.584 
L 135.531082 307.55501 
L 132.68409 307.55501 
z
" style="fill:#fe6f5e;fill-opacity:0.815686;"/>
   </g>
   <g id="patch_24">
    <path clip-path="url(#p7d1a38bcce)" d="M 135.531082 307.584 
L 138.378075 307.584 
L 138.378075 307.518772 
L 135.531082 307.518772 
z
" style="fill:#fe6f5e;fill-opacity:0.815686;"/>
   </g>
   <g id="patch_25">
    <path clip-path="url(#p7d1a38bcce)" d="M 138.378075 307.584 
L 141.225067 307.584 
L 141.225067 307.562257 
L 138.378075 307.562257 
z
" style="fill:#fe6f5e;fill-opacity:0.815686;"/>
   </g>
   <g id="patch_26">
    <path clip-path="url(#p7d1a38bcce)" d="M 141.225067 307.584 
L 144.07206 307.584 
L 144.07206 307.52602 
L 141.225067 307.52602 
z
" style="fill:#fe6f5e;fill-opacity:0.815686;"/>
   </g>
   <g id="patch_27">
    <path clip-path="url(#p7d1a38bcce)" d="M 144.07206 307.584 
L 146.919052 307.584 
L 146.919052 307.540515 
L 144.07206 307.540515 
z
" style="fill:#fe6f5e;fill-opacity:0.815686;"/>
   </g>
   <g id="patch_28">
    <path clip-path="url(#p7d1a38bcce)" d="M 146.919052 307.584 
L 149.766045 307.584 
L 149.766045 307.518772 
L 146.919052 307.518772 
z
" style="fill:#fe6f5e;fill-opacity:0.815686;"/>
   </g>
   <g id="patch_29">
    <path clip-path="url(#p7d1a38bcce)" d="M 149.766045 307.584 
L 152.613037 307.584 
L 152.613037 307.533267 
L 149.766045 307.533267 
z
" style="fill:#fe6f5e;fill-opacity:0.815686;"/>
   </g>
   <g id="patch_30">
    <path clip-path="url(#p7d1a38bcce)" d="M 152.613037 307.584 
L 155.46003 307.584 
L 155.46003 307.52602 
L 152.613037 307.52602 
z
" style="fill:#fe6f5e;fill-opacity:0.815686;"/>
   </g>
   <g id="patch_31">
    <path clip-path="url(#p7d1a38bcce)" d="M 155.46003 307.584 
L 158.307023 307.584 
L 158.307023 307.540515 
L 155.46003 307.540515 
z
" style="fill:#fe6f5e;fill-opacity:0.815686;"/>
   </g>
   <g id="patch_32">
    <path clip-path="url(#p7d1a38bcce)" d="M 158.307023 307.584 
L 161.154015 307.584 
L 161.154015 307.540515 
L 158.307023 307.540515 
z
" style="fill:#fe6f5e;fill-opacity:0.815686;"/>
   </g>
   <g id="patch_33">
    <path clip-path="url(#p7d1a38bcce)" d="M 161.154015 307.584 
L 164.001008 307.584 
L 164.001008 307.497029 
L 161.154015 307.497029 
z
" style="fill:#fe6f5e;fill-opacity:0.815686;"/>
   </g>
   <g id="patch_34">
    <path clip-path="url(#p7d1a38bcce)" d="M 164.001008 307.584 
L 166.848 307.584 
L 166.848 307.511524 
L 164.001008 307.511524 
z
" style="fill:#fe6f5e;fill-opacity:0.815686;"/>
   </g>
   <g id="patch_35">
    <path clip-path="url(#p7d1a38bcce)" d="M 166.848 307.584 
L 169.694993 307.584 
L 169.694993 307.540515 
L 166.848 307.540515 
z
" style="fill:#fe6f5e;fill-opacity:0.815686;"/>
   </g>
   <g id="patch_36">
    <path clip-path="url(#p7d1a38bcce)" d="M 169.694993 307.584 
L 172.541985 307.584 
L 172.541985 307.468039 
L 169.694993 307.468039 
z
" style="fill:#fe6f5e;fill-opacity:0.815686;"/>
   </g>
   <g id="patch_37">
    <path clip-path="url(#p7d1a38bcce)" d="M 172.541985 307.584 
L 175.388978 307.584 
L 175.388978 307.34483 
L 172.541985 307.34483 
z
" style="fill:#fe6f5e;fill-opacity:0.815686;"/>
   </g>
   <g id="patch_38">
    <path clip-path="url(#p7d1a38bcce)" d="M 175.388978 307.584 
L 178.23597 307.584 
L 178.23597 307.381068 
L 175.388978 307.381068 
z
" style="fill:#fe6f5e;fill-opacity:0.815686;"/>
   </g>
   <g id="patch_39">
    <path clip-path="url(#p7d1a38bcce)" d="M 178.23597 307.584 
L 181.082963 307.584 
L 181.082963 307.272355 
L 178.23597 307.272355 
z
" style="fill:#fe6f5e;fill-opacity:0.815686;"/>
   </g>
   <g id="patch_40">
    <path clip-path="url(#p7d1a38bcce)" d="M 181.082963 307.584 
L 183.929955 307.584 
L 183.929955 306.779521 
L 181.082963 306.779521 
z
" style="fill:#fe6f5e;fill-opacity:0.815686;"/>
   </g>
   <g id="patch_41">
    <path clip-path="url(#p7d1a38bcce)" d="M 183.929955 307.584 
L 186.776948 307.584 
L 186.776948 306.083755 
L 183.929955 306.083755 
z
" style="fill:#fe6f5e;fill-opacity:0.815686;"/>
   </g>
   <g id="patch_42">
    <path clip-path="url(#p7d1a38bcce)" d="M 186.776948 307.584 
L 189.62394 307.584 
L 189.62394 304.706718 
L 186.776948 304.706718 
z
" style="fill:#fe6f5e;fill-opacity:0.815686;"/>
   </g>
   <g id="patch_43">
    <path clip-path="url(#p7d1a38bcce)" d="M 189.62394 307.584 
L 192.470933 307.584 
L 192.470933 300.974223 
L 189.62394 300.974223 
z
" style="fill:#fe6f5e;fill-opacity:0.815686;"/>
   </g>
   <g id="patch_44">
    <path clip-path="url(#p7d1a38bcce)" d="M 192.470933 307.584 
L 195.317925 307.584 
L 195.317925 289.979672 
L 192.470933 289.979672 
z
" style="fill:#fe6f5e;fill-opacity:0.815686;"/>
   </g>
   <g id="patch_45">
    <path clip-path="url(#p7d1a38bcce)" d="M 195.317925 307.584 
L 198.164918 307.584 
L 198.164918 263.982666 
L 195.317925 263.982666 
z
" style="fill:#fe6f5e;fill-opacity:0.815686;"/>
   </g>
   <g id="patch_46">
    <path clip-path="url(#p7d1a38bcce)" d="M 198.164918 307.584 
L 201.011911 307.584 
L 201.011911 177.714934 
L 198.164918 177.714934 
z
" style="fill:#fe6f5e;fill-opacity:0.815686;"/>
   </g>
   <g id="patch_47">
    <path clip-path="url(#p7d1a38bcce)" d="M 201.011911 307.584 
L 203.858903 307.584 
L 203.858903 54.144 
L 201.011911 54.144 
z
" style="fill:#fe6f5e;fill-opacity:0.815686;"/>
   </g>
   <g id="patch_48">
    <path clip-path="url(#p7d1a38bcce)" d="M 203.858903 307.584 
L 206.705896 307.584 
L 206.705896 139.665233 
L 203.858903 139.665233 
z
" style="fill:#fe6f5e;fill-opacity:0.815686;"/>
   </g>
   <g id="patch_49">
    <path clip-path="url(#p7d1a38bcce)" d="M 206.705896 307.584 
L 209.552888 307.584 
L 209.552888 263.830467 
L 206.705896 263.830467 
z
" style="fill:#fe6f5e;fill-opacity:0.815686;"/>
   </g>
   <g id="patch_50">
    <path clip-path="url(#p7d1a38bcce)" d="M 209.552888 307.584 
L 212.399881 307.584 
L 212.399881 292.675765 
L 209.552888 292.675765 
z
" style="fill:#fe6f5e;fill-opacity:0.815686;"/>
   </g>
   <g id="patch_51">
    <path clip-path="url(#p7d1a38bcce)" d="M 212.399881 307.584 
L 215.246873 307.584 
L 215.246873 294.951499 
L 212.399881 294.951499 
z
" style="fill:#fe6f5e;fill-opacity:0.815686;"/>
   </g>
   <g id="patch_52">
    <path clip-path="url(#p7d1a38bcce)" d="M 215.246873 307.584 
L 218.093866 307.584 
L 218.093866 303.119502 
L 215.246873 303.119502 
z
" style="fill:#fe6f5e;fill-opacity:0.815686;"/>
   </g>
   <g id="patch_53">
    <path clip-path="url(#p7d1a38bcce)" d="M 218.093866 307.584 
L 220.940858 307.584 
L 220.940858 305.685139 
L 218.093866 305.685139 
z
" style="fill:#fe6f5e;fill-opacity:0.815686;"/>
   </g>
   <g id="patch_54">
    <path clip-path="url(#p7d1a38bcce)" d="M 220.940858 307.584 
L 223.787851 307.584 
L 223.787851 306.794016 
L 220.940858 306.794016 
z
" style="fill:#fe6f5e;fill-opacity:0.815686;"/>
   </g>
   <g id="patch_55">
    <path clip-path="url(#p7d1a38bcce)" d="M 223.787851 307.584 
L 226.634843 307.584 
L 226.634843 307.330335 
L 223.787851 307.330335 
z
" style="fill:#fe6f5e;fill-opacity:0.815686;"/>
   </g>
   <g id="patch_56">
    <path clip-path="url(#p7d1a38bcce)" d="M 226.634843 307.584 
L 229.481836 307.584 
L 229.481836 307.547762 
L 226.634843 307.547762 
z
" style="fill:#fe6f5e;fill-opacity:0.815686;"/>
   </g>
   <g id="patch_57">
    <path clip-path="url(#p7d1a38bcce)" d="M 229.481836 307.584 
L 232.328828 307.584 
L 232.328828 307.540515 
L 229.481836 307.540515 
z
" style="fill:#fe6f5e;fill-opacity:0.815686;"/>
   </g>
   <g id="patch_58">
    <path clip-path="url(#p7d1a38bcce)" d="M 232.328828 307.584 
L 235.175821 307.584 
L 235.175821 307.497029 
L 232.328828 307.497029 
z
" style="fill:#fe6f5e;fill-opacity:0.815686;"/>
   </g>
   <g id="patch_59">
    <path clip-path="url(#p7d1a38bcce)" d="M 235.175821 307.584 
L 238.022814 307.584 
L 238.022814 307.504277 
L 235.175821 307.504277 
z
" style="fill:#fe6f5e;fill-opacity:0.815686;"/>
   </g>
   <g id="patch_60">
    <path clip-path="url(#p7d1a38bcce)" d="M 238.022814 307.584 
L 240.869806 307.584 
L 240.869806 307.504277 
L 238.022814 307.504277 
z
" style="fill:#fe6f5e;fill-opacity:0.815686;"/>
   </g>
   <g id="patch_61">
    <path clip-path="url(#p7d1a38bcce)" d="M 240.869806 307.584 
L 243.716799 307.584 
L 243.716799 307.417306 
L 240.869806 307.417306 
z
" style="fill:#fe6f5e;fill-opacity:0.815686;"/>
   </g>
   <g id="patch_62">
    <path clip-path="url(#p7d1a38bcce)" d="M 243.716799 307.584 
L 246.563791 307.584 
L 246.563791 307.497029 
L 243.716799 307.497029 
z
" style="fill:#fe6f5e;fill-opacity:0.815686;"/>
   </g>
   <g id="patch_63">
    <path clip-path="url(#p7d1a38bcce)" d="M 246.563791 307.584 
L 249.410784 307.584 
L 249.410784 307.511524 
L 246.563791 307.511524 
z
" style="fill:#fe6f5e;fill-opacity:0.815686;"/>
   </g>
   <g id="patch_64">
    <path clip-path="url(#p7d1a38bcce)" d="M 249.410784 307.584 
L 252.257776 307.584 
L 252.257776 307.569505 
L 249.410784 307.569505 
z
" style="fill:#fe6f5e;fill-opacity:0.815686;"/>
   </g>
   <g id="patch_65">
    <path clip-path="url(#p7d1a38bcce)" d="M 252.257776 307.584 
L 255.104769 307.584 
L 255.104769 307.562257 
L 252.257776 307.562257 
z
" style="fill:#fe6f5e;fill-opacity:0.815686;"/>
   </g>
   <g id="patch_66">
    <path clip-path="url(#p7d1a38bcce)" d="M 255.104769 307.584 
L 257.951761 307.584 
L 257.951761 307.562257 
L 255.104769 307.562257 
z
" style="fill:#fe6f5e;fill-opacity:0.815686;"/>
   </g>
   <g id="patch_67">
    <path clip-path="url(#p7d1a38bcce)" d="M 257.951761 307.584 
L 260.798754 307.584 
L 260.798754 307.569505 
L 257.951761 307.569505 
z
" style="fill:#fe6f5e;fill-opacity:0.815686;"/>
   </g>
   <g id="patch_68">
    <path clip-path="url(#p7d1a38bcce)" d="M 260.798754 307.584 
L 263.645746 307.584 
L 263.645746 307.533267 
L 260.798754 307.533267 
z
" style="fill:#fe6f5e;fill-opacity:0.815686;"/>
   </g>
   <g id="patch_69">
    <path clip-path="url(#p7d1a38bcce)" d="M 263.645746 307.584 
L 266.492739 307.584 
L 266.492739 307.518772 
L 263.645746 307.518772 
z
" style="fill:#fe6f5e;fill-opacity:0.815686;"/>
   </g>
   <g id="patch_70">
    <path clip-path="url(#p7d1a38bcce)" d="M 266.492739 307.584 
L 269.339731 307.584 
L 269.339731 307.547762 
L 266.492739 307.547762 
z
" style="fill:#fe6f5e;fill-opacity:0.815686;"/>
   </g>
   <g id="patch_71">
    <path clip-path="url(#p7d1a38bcce)" d="M 269.339731 307.584 
L 272.186724 307.584 
L 272.186724 307.55501 
L 269.339731 307.55501 
z
" style="fill:#fe6f5e;fill-opacity:0.815686;"/>
   </g>
   <g id="patch_72">
    <path clip-path="url(#p7d1a38bcce)" d="M 272.186724 307.584 
L 275.033717 307.584 
L 275.033717 307.55501 
L 272.186724 307.55501 
z
" style="fill:#fe6f5e;fill-opacity:0.815686;"/>
   </g>
   <g id="patch_73">
    <path clip-path="url(#p7d1a38bcce)" d="M 275.033717 307.584 
L 277.880709 307.584 
L 277.880709 307.569505 
L 275.033717 307.569505 
z
" style="fill:#fe6f5e;fill-opacity:0.815686;"/>
   </g>
   <g id="patch_74">
    <path clip-path="url(#p7d1a38bcce)" d="M 277.880709 307.584 
L 280.727702 307.584 
L 280.727702 307.55501 
L 277.880709 307.55501 
z
" style="fill:#fe6f5e;fill-opacity:0.815686;"/>
   </g>
   <g id="patch_75">
    <path clip-path="url(#p7d1a38bcce)" d="M 280.727702 307.584 
L 283.574694 307.584 
L 283.574694 307.576752 
L 280.727702 307.576752 
z
" style="fill:#fe6f5e;fill-opacity:0.815686;"/>
   </g>
   <g id="patch_76">
    <path clip-path="url(#p7d1a38bcce)" d="M 283.574694 307.584 
L 286.421687 307.584 
L 286.421687 307.55501 
L 283.574694 307.55501 
z
" style="fill:#fe6f5e;fill-opacity:0.815686;"/>
   </g>
   <g id="patch_77">
    <path clip-path="url(#p7d1a38bcce)" d="M 286.421687 307.584 
L 289.268679 307.584 
L 289.268679 307.540515 
L 286.421687 307.540515 
z
" style="fill:#fe6f5e;fill-opacity:0.815686;"/>
   </g>
   <g id="patch_78">
    <path clip-path="url(#p7d1a38bcce)" d="M 289.268679 307.584 
L 292.115672 307.584 
L 292.115672 307.540515 
L 289.268679 307.540515 
z
" style="fill:#fe6f5e;fill-opacity:0.815686;"/>
   </g>
   <g id="patch_79">
    <path clip-path="url(#p7d1a38bcce)" d="M 292.115672 307.584 
L 294.962664 307.584 
L 294.962664 307.55501 
L 292.115672 307.55501 
z
" style="fill:#fe6f5e;fill-opacity:0.815686;"/>
   </g>
   <g id="patch_80">
    <path clip-path="url(#p7d1a38bcce)" d="M 294.962664 307.584 
L 297.809657 307.584 
L 297.809657 307.569505 
L 294.962664 307.569505 
z
" style="fill:#fe6f5e;fill-opacity:0.815686;"/>
   </g>
   <g id="patch_81">
    <path clip-path="url(#p7d1a38bcce)" d="M 297.809657 307.584 
L 300.656649 307.584 
L 300.656649 307.52602 
L 297.809657 307.52602 
z
" style="fill:#fe6f5e;fill-opacity:0.815686;"/>
   </g>
   <g id="patch_82">
    <path clip-path="url(#p7d1a38bcce)" d="M 300.656649 307.584 
L 303.503642 307.584 
L 303.503642 307.562257 
L 300.656649 307.562257 
z
" style="fill:#fe6f5e;fill-opacity:0.815686;"/>
   </g>
   <g id="patch_83">
    <path clip-path="url(#p7d1a38bcce)" d="M 303.503642 307.584 
L 306.350634 307.584 
L 306.350634 307.540515 
L 303.503642 307.540515 
z
" style="fill:#fe6f5e;fill-opacity:0.815686;"/>
   </g>
   <g id="patch_84">
    <path clip-path="url(#p7d1a38bcce)" d="M 306.350634 307.584 
L 309.197627 307.584 
L 309.197627 307.55501 
L 306.350634 307.55501 
z
" style="fill:#fe6f5e;fill-opacity:0.815686;"/>
   </g>
   <g id="patch_85">
    <path clip-path="url(#p7d1a38bcce)" d="M 309.197627 307.584 
L 312.04462 307.584 
L 312.04462 307.569505 
L 309.197627 307.569505 
z
" style="fill:#fe6f5e;fill-opacity:0.815686;"/>
   </g>
   <g id="patch_86">
    <path clip-path="url(#p7d1a38bcce)" d="M 312.04462 307.584 
L 314.891612 307.584 
L 314.891612 307.533267 
L 312.04462 307.533267 
z
" style="fill:#fe6f5e;fill-opacity:0.815686;"/>
   </g>
   <g id="patch_87">
    <path clip-path="url(#p7d1a38bcce)" d="M 314.891612 307.584 
L 317.738605 307.584 
L 317.738605 307.533267 
L 314.891612 307.533267 
z
" style="fill:#fe6f5e;fill-opacity:0.815686;"/>
   </g>
   <g id="patch_88">
    <path clip-path="url(#p7d1a38bcce)" d="M 317.738605 307.584 
L 320.585597 307.584 
L 320.585597 307.55501 
L 317.738605 307.55501 
z
" style="fill:#fe6f5e;fill-opacity:0.815686;"/>
   </g>
   <g id="patch_89">
    <path clip-path="url(#p7d1a38bcce)" d="M 320.585597 307.584 
L 323.43259 307.584 
L 323.43259 307.569505 
L 320.585597 307.569505 
z
" style="fill:#fe6f5e;fill-opacity:0.815686;"/>
   </g>
   <g id="patch_90">
    <path clip-path="url(#p7d1a38bcce)" d="M 323.43259 307.584 
L 326.279582 307.584 
L 326.279582 307.55501 
L 323.43259 307.55501 
z
" style="fill:#fe6f5e;fill-opacity:0.815686;"/>
   </g>
   <g id="patch_91">
    <path clip-path="url(#p7d1a38bcce)" d="M 326.279582 307.584 
L 329.126575 307.584 
L 329.126575 307.55501 
L 326.279582 307.55501 
z
" style="fill:#fe6f5e;fill-opacity:0.815686;"/>
   </g>
   <g id="patch_92">
    <path clip-path="url(#p7d1a38bcce)" d="M 329.126575 307.584 
L 331.973567 307.584 
L 331.973567 307.562257 
L 329.126575 307.562257 
z
" style="fill:#fe6f5e;fill-opacity:0.815686;"/>
   </g>
   <g id="patch_93">
    <path clip-path="url(#p7d1a38bcce)" d="M 331.973567 307.584 
L 334.82056 307.584 
L 334.82056 307.562257 
L 331.973567 307.562257 
z
" style="fill:#fe6f5e;fill-opacity:0.815686;"/>
   </g>
   <g id="patch_94">
    <path clip-path="url(#p7d1a38bcce)" d="M 334.82056 307.584 
L 337.667552 307.584 
L 337.667552 307.584 
L 334.82056 307.584 
z
" style="fill:#fe6f5e;fill-opacity:0.815686;"/>
   </g>
   <g id="patch_95">
    <path clip-path="url(#p7d1a38bcce)" d="M 337.667552 307.584 
L 340.514545 307.584 
L 340.514545 307.55501 
L 337.667552 307.55501 
z
" style="fill:#fe6f5e;fill-opacity:0.815686;"/>
   </g>
   <g id="patch_96">
    <path clip-path="url(#p7d1a38bcce)" d="M 340.514545 307.584 
L 343.361537 307.584 
L 343.361537 307.576752 
L 340.514545 307.576752 
z
" style="fill:#fe6f5e;fill-opacity:0.815686;"/>
   </g>
   <g id="patch_97">
    <path clip-path="url(#p7d1a38bcce)" d="M 343.361537 307.584 
L 346.20853 307.584 
L 346.20853 307.576752 
L 343.361537 307.576752 
z
" style="fill:#fe6f5e;fill-opacity:0.815686;"/>
   </g>
   <g id="patch_98">
    <path clip-path="url(#p7d1a38bcce)" d="M 346.20853 307.584 
L 349.055522 307.584 
L 349.055522 307.55501 
L 346.20853 307.55501 
z
" style="fill:#fe6f5e;fill-opacity:0.815686;"/>
   </g>
   <g id="patch_99">
    <path clip-path="url(#p7d1a38bcce)" d="M 349.055522 307.584 
L 351.902515 307.584 
L 351.902515 307.55501 
L 349.055522 307.55501 
z
" style="fill:#fe6f5e;fill-opacity:0.815686;"/>
   </g>
   <g id="patch_100">
    <path clip-path="url(#p7d1a38bcce)" d="M 351.902515 307.584 
L 354.749508 307.584 
L 354.749508 307.52602 
L 351.902515 307.52602 
z
" style="fill:#fe6f5e;fill-opacity:0.815686;"/>
   </g>
   <g id="patch_101">
    <path clip-path="url(#p7d1a38bcce)" d="M 354.749508 307.584 
L 357.5965 307.584 
L 357.5965 307.576752 
L 354.749508 307.576752 
z
" style="fill:#fe6f5e;fill-opacity:0.815686;"/>
   </g>
   <g id="patch_102">
    <path clip-path="url(#p7d1a38bcce)" d="M 357.5965 307.584 
L 360.443493 307.584 
L 360.443493 307.576752 
L 357.5965 307.576752 
z
" style="fill:#fe6f5e;fill-opacity:0.815686;"/>
   </g>
   <g id="patch_103">
    <path clip-path="url(#p7d1a38bcce)" d="M 73.832727 307.584 
L 75.830727 307.584 
L 75.830727 307.576752 
L 73.832727 307.576752 
z
" style="fill:#5e9dfe;fill-opacity:0.815686;"/>
   </g>
   <g id="patch_104">
    <path clip-path="url(#p7d1a38bcce)" d="M 75.830727 307.584 
L 77.828727 307.584 
L 77.828727 307.518772 
L 75.830727 307.518772 
z
" style="fill:#5e9dfe;fill-opacity:0.815686;"/>
   </g>
   <g id="patch_105">
    <path clip-path="url(#p7d1a38bcce)" d="M 77.828727 307.584 
L 79.826727 307.584 
L 79.826727 307.366573 
L 77.828727 307.366573 
z
" style="fill:#5e9dfe;fill-opacity:0.815686;"/>
   </g>
   <g id="patch_106">
    <path clip-path="url(#p7d1a38bcce)" d="M 79.826727 307.584 
L 81.824727 307.584 
L 81.824727 307.011443 
L 79.826727 307.011443 
z
" style="fill:#5e9dfe;fill-opacity:0.815686;"/>
   </g>
   <g id="patch_107">
    <path clip-path="url(#p7d1a38bcce)" d="M 81.824727 307.584 
L 83.822727 307.584 
L 83.822727 307.04768 
L 81.824727 307.04768 
z
" style="fill:#5e9dfe;fill-opacity:0.815686;"/>
   </g>
   <g id="patch_108">
    <path clip-path="url(#p7d1a38bcce)" d="M 83.822727 307.584 
L 85.820727 307.584 
L 85.820727 306.815758 
L 83.822727 306.815758 
z
" style="fill:#5e9dfe;fill-opacity:0.815686;"/>
   </g>
   <g id="patch_109">
    <path clip-path="url(#p7d1a38bcce)" d="M 85.820727 307.584 
L 87.818727 307.584 
L 87.818727 306.714293 
L 85.820727 306.714293 
z
" style="fill:#5e9dfe;fill-opacity:0.815686;"/>
   </g>
   <g id="patch_110">
    <path clip-path="url(#p7d1a38bcce)" d="M 87.818727 307.584 
L 89.816727 307.584 
L 89.816727 306.931719 
L 87.818727 306.931719 
z
" style="fill:#5e9dfe;fill-opacity:0.815686;"/>
   </g>
   <g id="patch_111">
    <path clip-path="url(#p7d1a38bcce)" d="M 89.816727 307.584 
L 91.814727 307.584 
L 91.814727 307.236117 
L 89.816727 307.236117 
z
" style="fill:#5e9dfe;fill-opacity:0.815686;"/>
   </g>
   <g id="patch_112">
    <path clip-path="url(#p7d1a38bcce)" d="M 91.814727 307.584 
L 93.812727 307.584 
L 93.812727 307.388316 
L 91.814727 307.388316 
z
" style="fill:#5e9dfe;fill-opacity:0.815686;"/>
   </g>
   <g id="patch_113">
    <path clip-path="url(#p7d1a38bcce)" d="M 93.812727 307.584 
L 95.810727 307.584 
L 95.810727 307.243365 
L 93.812727 307.243365 
z
" style="fill:#5e9dfe;fill-opacity:0.815686;"/>
   </g>
   <g id="patch_114">
    <path clip-path="url(#p7d1a38bcce)" d="M 95.810727 307.584 
L 97.808727 307.584 
L 97.808727 307.352078 
L 95.810727 307.352078 
z
" style="fill:#5e9dfe;fill-opacity:0.815686;"/>
   </g>
   <g id="patch_115">
    <path clip-path="url(#p7d1a38bcce)" d="M 97.808727 307.584 
L 99.806726 307.584 
L 99.806726 307.34483 
L 97.808727 307.34483 
z
" style="fill:#5e9dfe;fill-opacity:0.815686;"/>
   </g>
   <g id="patch_116">
    <path clip-path="url(#p7d1a38bcce)" d="M 99.806726 307.584 
L 101.804726 307.584 
L 101.804726 307.381068 
L 99.806726 307.381068 
z
" style="fill:#5e9dfe;fill-opacity:0.815686;"/>
   </g>
   <g id="patch_117">
    <path clip-path="url(#p7d1a38bcce)" d="M 101.804726 307.584 
L 103.802726 307.584 
L 103.802726 307.424554 
L 101.804726 307.424554 
z
" style="fill:#5e9dfe;fill-opacity:0.815686;"/>
   </g>
   <g id="patch_118">
    <path clip-path="url(#p7d1a38bcce)" d="M 103.802726 307.584 
L 105.800726 307.584 
L 105.800726 307.489782 
L 103.802726 307.489782 
z
" style="fill:#5e9dfe;fill-opacity:0.815686;"/>
   </g>
   <g id="patch_119">
    <path clip-path="url(#p7d1a38bcce)" d="M 105.800726 307.584 
L 107.798726 307.584 
L 107.798726 307.497029 
L 105.800726 307.497029 
z
" style="fill:#5e9dfe;fill-opacity:0.815686;"/>
   </g>
   <g id="patch_120">
    <path clip-path="url(#p7d1a38bcce)" d="M 107.798726 307.584 
L 109.796726 307.584 
L 109.796726 307.511524 
L 107.798726 307.511524 
z
" style="fill:#5e9dfe;fill-opacity:0.815686;"/>
   </g>
   <g id="patch_121">
    <path clip-path="url(#p7d1a38bcce)" d="M 109.796726 307.584 
L 111.794726 307.584 
L 111.794726 307.55501 
L 109.796726 307.55501 
z
" style="fill:#5e9dfe;fill-opacity:0.815686;"/>
   </g>
   <g id="patch_122">
    <path clip-path="url(#p7d1a38bcce)" d="M 111.794726 307.584 
L 113.792726 307.584 
L 113.792726 307.569505 
L 111.794726 307.569505 
z
" style="fill:#5e9dfe;fill-opacity:0.815686;"/>
   </g>
   <g id="patch_123">
    <path clip-path="url(#p7d1a38bcce)" d="M 113.792726 307.584 
L 115.790726 307.584 
L 115.790726 307.562257 
L 113.792726 307.562257 
z
" style="fill:#5e9dfe;fill-opacity:0.815686;"/>
   </g>
   <g id="patch_124">
    <path clip-path="url(#p7d1a38bcce)" d="M 115.790726 307.584 
L 117.788726 307.584 
L 117.788726 307.576752 
L 115.790726 307.576752 
z
" style="fill:#5e9dfe;fill-opacity:0.815686;"/>
   </g>
   <g id="patch_125">
    <path clip-path="url(#p7d1a38bcce)" d="M 117.788726 307.584 
L 119.786726 307.584 
L 119.786726 307.569505 
L 117.788726 307.569505 
z
" style="fill:#5e9dfe;fill-opacity:0.815686;"/>
   </g>
   <g id="patch_126">
    <path clip-path="url(#p7d1a38bcce)" d="M 119.786726 307.584 
L 121.784726 307.584 
L 121.784726 307.576752 
L 119.786726 307.576752 
z
" style="fill:#5e9dfe;fill-opacity:0.815686;"/>
   </g>
   <g id="patch_127">
    <path clip-path="url(#p7d1a38bcce)" d="M 121.784726 307.584 
L 123.782726 307.584 
L 123.782726 307.576752 
L 121.784726 307.576752 
z
" style="fill:#5e9dfe;fill-opacity:0.815686;"/>
   </g>
   <g id="patch_128">
    <path clip-path="url(#p7d1a38bcce)" d="M 123.782726 307.584 
L 125.780726 307.584 
L 125.780726 307.576752 
L 123.782726 307.576752 
z
" style="fill:#5e9dfe;fill-opacity:0.815686;"/>
   </g>
   <g id="patch_129">
    <path clip-path="url(#p7d1a38bcce)" d="M 125.780726 307.584 
L 127.778726 307.584 
L 127.778726 307.576752 
L 125.780726 307.576752 
z
" style="fill:#5e9dfe;fill-opacity:0.815686;"/>
   </g>
   <g id="patch_130">
    <path clip-path="url(#p7d1a38bcce)" d="M 127.778726 307.584 
L 129.776726 307.584 
L 129.776726 307.576752 
L 127.778726 307.576752 
z
" style="fill:#5e9dfe;fill-opacity:0.815686;"/>
   </g>
   <g id="patch_131">
    <path clip-path="url(#p7d1a38bcce)" d="M 129.776726 307.584 
L 131.774726 307.584 
L 131.774726 307.569505 
L 129.776726 307.569505 
z
" style="fill:#5e9dfe;fill-opacity:0.815686;"/>
   </g>
   <g id="patch_132">
    <path clip-path="url(#p7d1a38bcce)" d="M 131.774726 307.584 
L 133.772725 307.584 
L 133.772725 307.584 
L 131.774726 307.584 
z
" style="fill:#5e9dfe;fill-opacity:0.815686;"/>
   </g>
   <g id="patch_133">
    <path clip-path="url(#p7d1a38bcce)" d="M 133.772725 307.584 
L 135.770725 307.584 
L 135.770725 307.562257 
L 133.772725 307.562257 
z
" style="fill:#5e9dfe;fill-opacity:0.815686;"/>
   </g>
   <g id="patch_134">
    <path clip-path="url(#p7d1a38bcce)" d="M 135.770725 307.584 
L 137.768725 307.584 
L 137.768725 307.584 
L 135.770725 307.584 
z
" style="fill:#5e9dfe;fill-opacity:0.815686;"/>
   </g>
   <g id="patch_135">
    <path clip-path="url(#p7d1a38bcce)" d="M 137.768725 307.584 
L 139.766725 307.584 
L 139.766725 307.576752 
L 137.768725 307.576752 
z
" style="fill:#5e9dfe;fill-opacity:0.815686;"/>
   </g>
   <g id="patch_136">
    <path clip-path="url(#p7d1a38bcce)" d="M 139.766725 307.584 
L 141.764725 307.584 
L 141.764725 307.584 
L 139.766725 307.584 
z
" style="fill:#5e9dfe;fill-opacity:0.815686;"/>
   </g>
   <g id="patch_137">
    <path clip-path="url(#p7d1a38bcce)" d="M 141.764725 307.584 
L 143.762725 307.584 
L 143.762725 307.576752 
L 141.764725 307.576752 
z
" style="fill:#5e9dfe;fill-opacity:0.815686;"/>
   </g>
   <g id="patch_138">
    <path clip-path="url(#p7d1a38bcce)" d="M 143.762725 307.584 
L 145.760725 307.584 
L 145.760725 307.55501 
L 143.762725 307.55501 
z
" style="fill:#5e9dfe;fill-opacity:0.815686;"/>
   </g>
   <g id="patch_139">
    <path clip-path="url(#p7d1a38bcce)" d="M 145.760725 307.584 
L 147.758725 307.584 
L 147.758725 307.55501 
L 145.760725 307.55501 
z
" style="fill:#5e9dfe;fill-opacity:0.815686;"/>
   </g>
   <g id="patch_140">
    <path clip-path="url(#p7d1a38bcce)" d="M 147.758725 307.584 
L 149.756725 307.584 
L 149.756725 307.576752 
L 147.758725 307.576752 
z
" style="fill:#5e9dfe;fill-opacity:0.815686;"/>
   </g>
   <g id="patch_141">
    <path clip-path="url(#p7d1a38bcce)" d="M 149.756725 307.584 
L 151.754725 307.584 
L 151.754725 307.576752 
L 149.756725 307.576752 
z
" style="fill:#5e9dfe;fill-opacity:0.815686;"/>
   </g>
   <g id="patch_142">
    <path clip-path="url(#p7d1a38bcce)" d="M 151.754725 307.584 
L 153.752725 307.584 
L 153.752725 307.569505 
L 151.754725 307.569505 
z
" style="fill:#5e9dfe;fill-opacity:0.815686;"/>
   </g>
   <g id="patch_143">
    <path clip-path="url(#p7d1a38bcce)" d="M 153.752725 307.584 
L 155.750725 307.584 
L 155.750725 307.562257 
L 153.752725 307.562257 
z
" style="fill:#5e9dfe;fill-opacity:0.815686;"/>
   </g>
   <g id="patch_144">
    <path clip-path="url(#p7d1a38bcce)" d="M 155.750725 307.584 
L 157.748725 307.584 
L 157.748725 307.547762 
L 155.750725 307.547762 
z
" style="fill:#5e9dfe;fill-opacity:0.815686;"/>
   </g>
   <g id="patch_145">
    <path clip-path="url(#p7d1a38bcce)" d="M 157.748725 307.584 
L 159.746725 307.584 
L 159.746725 307.569505 
L 157.748725 307.569505 
z
" style="fill:#5e9dfe;fill-opacity:0.815686;"/>
   </g>
   <g id="patch_146">
    <path clip-path="url(#p7d1a38bcce)" d="M 159.746725 307.584 
L 161.744725 307.584 
L 161.744725 307.518772 
L 159.746725 307.518772 
z
" style="fill:#5e9dfe;fill-opacity:0.815686;"/>
   </g>
   <g id="patch_147">
    <path clip-path="url(#p7d1a38bcce)" d="M 161.744725 307.584 
L 163.742725 307.584 
L 163.742725 307.511524 
L 161.744725 307.511524 
z
" style="fill:#5e9dfe;fill-opacity:0.815686;"/>
   </g>
   <g id="patch_148">
    <path clip-path="url(#p7d1a38bcce)" d="M 163.742725 307.584 
L 165.740724 307.584 
L 165.740724 307.533267 
L 163.742725 307.533267 
z
" style="fill:#5e9dfe;fill-opacity:0.815686;"/>
   </g>
   <g id="patch_149">
    <path clip-path="url(#p7d1a38bcce)" d="M 165.740724 307.584 
L 167.738724 307.584 
L 167.738724 307.540515 
L 165.740724 307.540515 
z
" style="fill:#5e9dfe;fill-opacity:0.815686;"/>
   </g>
   <g id="patch_150">
    <path clip-path="url(#p7d1a38bcce)" d="M 167.738724 307.584 
L 169.736724 307.584 
L 169.736724 307.533267 
L 167.738724 307.533267 
z
" style="fill:#5e9dfe;fill-opacity:0.815686;"/>
   </g>
   <g id="patch_151">
    <path clip-path="url(#p7d1a38bcce)" d="M 169.736724 307.584 
L 171.734724 307.584 
L 171.734724 307.569505 
L 169.736724 307.569505 
z
" style="fill:#5e9dfe;fill-opacity:0.815686;"/>
   </g>
   <g id="patch_152">
    <path clip-path="url(#p7d1a38bcce)" d="M 171.734724 307.584 
L 173.732724 307.584 
L 173.732724 307.569505 
L 171.734724 307.569505 
z
" style="fill:#5e9dfe;fill-opacity:0.815686;"/>
   </g>
   <g id="patch_153">
    <path clip-path="url(#p7d1a38bcce)" d="M 173.732724 307.584 
L 175.730724 307.584 
L 175.730724 307.55501 
L 173.732724 307.55501 
z
" style="fill:#5e9dfe;fill-opacity:0.815686;"/>
   </g>
   <g id="patch_154">
    <path clip-path="url(#p7d1a38bcce)" d="M 175.730724 307.584 
L 177.728724 307.584 
L 177.728724 307.547762 
L 175.730724 307.547762 
z
" style="fill:#5e9dfe;fill-opacity:0.815686;"/>
   </g>
   <g id="patch_155">
    <path clip-path="url(#p7d1a38bcce)" d="M 177.728724 307.584 
L 179.726724 307.584 
L 179.726724 307.55501 
L 177.728724 307.55501 
z
" style="fill:#5e9dfe;fill-opacity:0.815686;"/>
   </g>
   <g id="patch_156">
    <path clip-path="url(#p7d1a38bcce)" d="M 179.726724 307.584 
L 181.724724 307.584 
L 181.724724 307.533267 
L 179.726724 307.533267 
z
" style="fill:#5e9dfe;fill-opacity:0.815686;"/>
   </g>
   <g id="patch_157">
    <path clip-path="url(#p7d1a38bcce)" d="M 181.724724 307.584 
L 183.722724 307.584 
L 183.722724 307.439049 
L 181.724724 307.439049 
z
" style="fill:#5e9dfe;fill-opacity:0.815686;"/>
   </g>
   <g id="patch_158">
    <path clip-path="url(#p7d1a38bcce)" d="M 183.722724 307.584 
L 185.720724 307.584 
L 185.720724 306.946215 
L 183.722724 306.946215 
z
" style="fill:#5e9dfe;fill-opacity:0.815686;"/>
   </g>
   <g id="patch_159">
    <path clip-path="url(#p7d1a38bcce)" d="M 185.720724 307.584 
L 187.718724 307.584 
L 187.718724 305.982289 
L 185.720724 305.982289 
z
" style="fill:#5e9dfe;fill-opacity:0.815686;"/>
   </g>
   <g id="patch_160">
    <path clip-path="url(#p7d1a38bcce)" d="M 187.718724 307.584 
L 189.716724 307.584 
L 189.716724 305.119829 
L 187.718724 305.119829 
z
" style="fill:#5e9dfe;fill-opacity:0.815686;"/>
   </g>
   <g id="patch_161">
    <path clip-path="url(#p7d1a38bcce)" d="M 189.716724 307.584 
L 191.714724 307.584 
L 191.714724 303.684812 
L 189.716724 303.684812 
z
" style="fill:#5e9dfe;fill-opacity:0.815686;"/>
   </g>
   <g id="patch_162">
    <path clip-path="url(#p7d1a38bcce)" d="M 191.714724 307.584 
L 193.712724 307.584 
L 193.712724 299.604434 
L 191.714724 299.604434 
z
" style="fill:#5e9dfe;fill-opacity:0.815686;"/>
   </g>
   <g id="patch_163">
    <path clip-path="url(#p7d1a38bcce)" d="M 193.712724 307.584 
L 195.710724 307.584 
L 195.710724 291.624868 
L 193.712724 291.624868 
z
" style="fill:#5e9dfe;fill-opacity:0.815686;"/>
   </g>
   <g id="patch_164">
    <path clip-path="url(#p7d1a38bcce)" d="M 195.710724 307.584 
L 197.708724 307.584 
L 197.708724 274.013292 
L 195.710724 274.013292 
z
" style="fill:#5e9dfe;fill-opacity:0.815686;"/>
   </g>
   <g id="patch_165">
    <path clip-path="url(#p7d1a38bcce)" d="M 197.708724 307.584 
L 199.706723 307.584 
L 199.706723 235.006913 
L 197.708724 235.006913 
z
" style="fill:#5e9dfe;fill-opacity:0.815686;"/>
   </g>
   <g id="patch_166">
    <path clip-path="url(#p7d1a38bcce)" d="M 199.706723 307.584 
L 201.704723 307.584 
L 201.704723 160.465736 
L 199.706723 160.465736 
z
" style="fill:#5e9dfe;fill-opacity:0.815686;"/>
   </g>
   <g id="patch_167">
    <path clip-path="url(#p7d1a38bcce)" d="M 201.704723 307.584 
L 203.702723 307.584 
L 203.702723 112.414399 
L 201.704723 112.414399 
z
" style="fill:#5e9dfe;fill-opacity:0.815686;"/>
   </g>
   <g id="patch_168">
    <path clip-path="url(#p7d1a38bcce)" d="M 203.702723 307.584 
L 205.700723 307.584 
L 205.700723 180.200848 
L 203.702723 180.200848 
z
" style="fill:#5e9dfe;fill-opacity:0.815686;"/>
   </g>
   <g id="patch_169">
    <path clip-path="url(#p7d1a38bcce)" d="M 205.700723 307.584 
L 207.698723 307.584 
L 207.698723 260.764749 
L 205.700723 260.764749 
z
" style="fill:#5e9dfe;fill-opacity:0.815686;"/>
   </g>
   <g id="patch_170">
    <path clip-path="url(#p7d1a38bcce)" d="M 207.698723 307.584 
L 209.696723 307.584 
L 209.696723 291.979999 
L 207.698723 291.979999 
z
" style="fill:#5e9dfe;fill-opacity:0.815686;"/>
   </g>
   <g id="patch_171">
    <path clip-path="url(#p7d1a38bcce)" d="M 209.696723 307.584 
L 211.694723 307.584 
L 211.694723 297.959237 
L 209.696723 297.959237 
z
" style="fill:#5e9dfe;fill-opacity:0.815686;"/>
   </g>
   <g id="patch_172">
    <path clip-path="url(#p7d1a38bcce)" d="M 211.694723 307.584 
L 213.692723 307.584 
L 213.692723 297.364937 
L 211.694723 297.364937 
z
" style="fill:#5e9dfe;fill-opacity:0.815686;"/>
   </g>
   <g id="patch_173">
    <path clip-path="url(#p7d1a38bcce)" d="M 213.692723 307.584 
L 215.690723 307.584 
L 215.690723 301.024956 
L 213.692723 301.024956 
z
" style="fill:#5e9dfe;fill-opacity:0.815686;"/>
   </g>
   <g id="patch_174">
    <path clip-path="url(#p7d1a38bcce)" d="M 215.690723 307.584 
L 217.688723 307.584 
L 217.688723 304.800936 
L 215.690723 304.800936 
z
" style="fill:#5e9dfe;fill-opacity:0.815686;"/>
   </g>
   <g id="patch_175">
    <path clip-path="url(#p7d1a38bcce)" d="M 217.688723 307.584 
L 219.686723 307.584 
L 219.686723 305.8011 
L 217.688723 305.8011 
z
" style="fill:#5e9dfe;fill-opacity:0.815686;"/>
   </g>
   <g id="patch_176">
    <path clip-path="url(#p7d1a38bcce)" d="M 219.686723 307.584 
L 221.684723 307.584 
L 221.684723 306.417142 
L 219.686723 306.417142 
z
" style="fill:#5e9dfe;fill-opacity:0.815686;"/>
   </g>
   <g id="patch_177">
    <path clip-path="url(#p7d1a38bcce)" d="M 221.684723 307.584 
L 223.682723 307.584 
L 223.682723 307.098413 
L 221.684723 307.098413 
z
" style="fill:#5e9dfe;fill-opacity:0.815686;"/>
   </g>
   <g id="patch_178">
    <path clip-path="url(#p7d1a38bcce)" d="M 223.682723 307.584 
L 225.680723 307.584 
L 225.680723 307.410059 
L 223.682723 307.410059 
z
" style="fill:#5e9dfe;fill-opacity:0.815686;"/>
   </g>
   <g id="patch_179">
    <path clip-path="url(#p7d1a38bcce)" d="M 225.680723 307.584 
L 227.678723 307.584 
L 227.678723 307.518772 
L 225.680723 307.518772 
z
" style="fill:#5e9dfe;fill-opacity:0.815686;"/>
   </g>
   <g id="patch_180">
    <path clip-path="url(#p7d1a38bcce)" d="M 227.678723 307.584 
L 229.676723 307.584 
L 229.676723 307.547762 
L 227.678723 307.547762 
z
" style="fill:#5e9dfe;fill-opacity:0.815686;"/>
   </g>
   <g id="patch_181">
    <path clip-path="url(#p7d1a38bcce)" d="M 229.676723 307.584 
L 231.674723 307.584 
L 231.674723 307.533267 
L 229.676723 307.533267 
z
" style="fill:#5e9dfe;fill-opacity:0.815686;"/>
   </g>
   <g id="patch_182">
    <path clip-path="url(#p7d1a38bcce)" d="M 231.674723 307.584 
L 233.672722 307.584 
L 233.672722 307.569505 
L 231.674723 307.569505 
z
" style="fill:#5e9dfe;fill-opacity:0.815686;"/>
   </g>
   <g id="patch_183">
    <path clip-path="url(#p7d1a38bcce)" d="M 233.672722 307.584 
L 235.670722 307.584 
L 235.670722 307.540515 
L 233.672722 307.540515 
z
" style="fill:#5e9dfe;fill-opacity:0.815686;"/>
   </g>
   <g id="patch_184">
    <path clip-path="url(#p7d1a38bcce)" d="M 235.670722 307.584 
L 237.668722 307.584 
L 237.668722 307.52602 
L 235.670722 307.52602 
z
" style="fill:#5e9dfe;fill-opacity:0.815686;"/>
   </g>
   <g id="patch_185">
    <path clip-path="url(#p7d1a38bcce)" d="M 237.668722 307.584 
L 239.666722 307.584 
L 239.666722 307.533267 
L 237.668722 307.533267 
z
" style="fill:#5e9dfe;fill-opacity:0.815686;"/>
   </g>
   <g id="patch_186">
    <path clip-path="url(#p7d1a38bcce)" d="M 239.666722 307.584 
L 241.664722 307.584 
L 241.664722 307.52602 
L 239.666722 307.52602 
z
" style="fill:#5e9dfe;fill-opacity:0.815686;"/>
   </g>
   <g id="patch_187">
    <path clip-path="url(#p7d1a38bcce)" d="M 241.664722 307.584 
L 243.662722 307.584 
L 243.662722 307.518772 
L 241.664722 307.518772 
z
" style="fill:#5e9dfe;fill-opacity:0.815686;"/>
   </g>
   <g id="patch_188">
    <path clip-path="url(#p7d1a38bcce)" d="M 243.662722 307.584 
L 245.660722 307.584 
L 245.660722 307.518772 
L 243.662722 307.518772 
z
" style="fill:#5e9dfe;fill-opacity:0.815686;"/>
   </g>
   <g id="patch_189">
    <path clip-path="url(#p7d1a38bcce)" d="M 245.660722 307.584 
L 247.658722 307.584 
L 247.658722 307.562257 
L 245.660722 307.562257 
z
" style="fill:#5e9dfe;fill-opacity:0.815686;"/>
   </g>
   <g id="patch_190">
    <path clip-path="url(#p7d1a38bcce)" d="M 247.658722 307.584 
L 249.656722 307.584 
L 249.656722 307.576752 
L 247.658722 307.576752 
z
" style="fill:#5e9dfe;fill-opacity:0.815686;"/>
   </g>
   <g id="patch_191">
    <path clip-path="url(#p7d1a38bcce)" d="M 249.656722 307.584 
L 251.654722 307.584 
L 251.654722 307.584 
L 249.656722 307.584 
z
" style="fill:#5e9dfe;fill-opacity:0.815686;"/>
   </g>
   <g id="patch_192">
    <path clip-path="url(#p7d1a38bcce)" d="M 251.654722 307.584 
L 253.652722 307.584 
L 253.652722 307.584 
L 251.654722 307.584 
z
" style="fill:#5e9dfe;fill-opacity:0.815686;"/>
   </g>
   <g id="patch_193">
    <path clip-path="url(#p7d1a38bcce)" d="M 253.652722 307.584 
L 255.650722 307.584 
L 255.650722 307.584 
L 253.652722 307.584 
z
" style="fill:#5e9dfe;fill-opacity:0.815686;"/>
   </g>
   <g id="patch_194">
    <path clip-path="url(#p7d1a38bcce)" d="M 255.650722 307.584 
L 257.648722 307.584 
L 257.648722 307.584 
L 255.650722 307.584 
z
" style="fill:#5e9dfe;fill-opacity:0.815686;"/>
   </g>
   <g id="patch_195">
    <path clip-path="url(#p7d1a38bcce)" d="M 257.648722 307.584 
L 259.646722 307.584 
L 259.646722 307.584 
L 257.648722 307.584 
z
" style="fill:#5e9dfe;fill-opacity:0.815686;"/>
   </g>
   <g id="patch_196">
    <path clip-path="url(#p7d1a38bcce)" d="M 259.646722 307.584 
L 261.644722 307.584 
L 261.644722 307.584 
L 259.646722 307.584 
z
" style="fill:#5e9dfe;fill-opacity:0.815686;"/>
   </g>
   <g id="patch_197">
    <path clip-path="url(#p7d1a38bcce)" d="M 261.644722 307.584 
L 263.642722 307.584 
L 263.642722 307.576752 
L 261.644722 307.576752 
z
" style="fill:#5e9dfe;fill-opacity:0.815686;"/>
   </g>
   <g id="patch_198">
    <path clip-path="url(#p7d1a38bcce)" d="M 263.642722 307.584 
L 265.640721 307.584 
L 265.640721 307.562257 
L 263.642722 307.562257 
z
" style="fill:#5e9dfe;fill-opacity:0.815686;"/>
   </g>
   <g id="patch_199">
    <path clip-path="url(#p7d1a38bcce)" d="M 265.640721 307.584 
L 267.638721 307.584 
L 267.638721 307.576752 
L 265.640721 307.576752 
z
" style="fill:#5e9dfe;fill-opacity:0.815686;"/>
   </g>
   <g id="patch_200">
    <path clip-path="url(#p7d1a38bcce)" d="M 267.638721 307.584 
L 269.636721 307.584 
L 269.636721 307.584 
L 267.638721 307.584 
z
" style="fill:#5e9dfe;fill-opacity:0.815686;"/>
   </g>
   <g id="patch_201">
    <path clip-path="url(#p7d1a38bcce)" d="M 269.636721 307.584 
L 271.634721 307.584 
L 271.634721 307.576752 
L 269.636721 307.576752 
z
" style="fill:#5e9dfe;fill-opacity:0.815686;"/>
   </g>
   <g id="patch_202">
    <path clip-path="url(#p7d1a38bcce)" d="M 271.634721 307.584 
L 273.632721 307.584 
L 273.632721 307.576752 
L 271.634721 307.576752 
z
" style="fill:#5e9dfe;fill-opacity:0.815686;"/>
   </g>
   <g id="patch_203">
    <path clip-path="url(#p7d1a38bcce)" d="M 76.114769 307.584 
L 79.338494 307.584 
L 79.338494 307.301345 
L 76.114769 307.301345 
z
" style="fill:#5eedfe;fill-opacity:0.815686;"/>
   </g>
   <g id="patch_204">
    <path clip-path="url(#p7d1a38bcce)" d="M 79.338494 307.584 
L 82.562219 307.584 
L 82.562219 307.040433 
L 79.338494 307.040433 
z
" style="fill:#5eedfe;fill-opacity:0.815686;"/>
   </g>
   <g id="patch_205">
    <path clip-path="url(#p7d1a38bcce)" d="M 82.562219 307.584 
L 85.785944 307.584 
L 85.785944 306.177973 
L 82.562219 306.177973 
z
" style="fill:#5eedfe;fill-opacity:0.815686;"/>
   </g>
   <g id="patch_206">
    <path clip-path="url(#p7d1a38bcce)" d="M 85.785944 307.584 
L 89.009669 307.584 
L 89.009669 306.09825 
L 85.785944 306.09825 
z
" style="fill:#5eedfe;fill-opacity:0.815686;"/>
   </g>
   <g id="patch_207">
    <path clip-path="url(#p7d1a38bcce)" d="M 89.009669 307.584 
L 92.233394 307.584 
L 92.233394 303.648574 
L 89.009669 303.648574 
z
" style="fill:#5eedfe;fill-opacity:0.815686;"/>
   </g>
   <g id="patch_208">
    <path clip-path="url(#p7d1a38bcce)" d="M 92.233394 307.584 
L 95.457119 307.584 
L 95.457119 295.777721 
L 92.233394 295.777721 
z
" style="fill:#5eedfe;fill-opacity:0.815686;"/>
   </g>
   <g id="patch_209">
    <path clip-path="url(#p7d1a38bcce)" d="M 95.457119 307.584 
L 98.680844 307.584 
L 98.680844 275.165655 
L 95.457119 275.165655 
z
" style="fill:#5eedfe;fill-opacity:0.815686;"/>
   </g>
   <g id="patch_210">
    <path clip-path="url(#p7d1a38bcce)" d="M 98.680844 307.584 
L 101.904569 307.584 
L 101.904569 269.643012 
L 98.680844 269.643012 
z
" style="fill:#5eedfe;fill-opacity:0.815686;"/>
   </g>
   <g id="patch_211">
    <path clip-path="url(#p7d1a38bcce)" d="M 101.904569 307.584 
L 105.128294 307.584 
L 105.128294 277.057268 
L 101.904569 277.057268 
z
" style="fill:#5eedfe;fill-opacity:0.815686;"/>
   </g>
   <g id="patch_212">
    <path clip-path="url(#p7d1a38bcce)" d="M 105.128294 307.584 
L 108.352019 307.584 
L 108.352019 294.50215 
L 105.128294 294.50215 
z
" style="fill:#5eedfe;fill-opacity:0.815686;"/>
   </g>
   <g id="patch_213">
    <path clip-path="url(#p7d1a38bcce)" d="M 108.352019 307.584 
L 111.575745 307.584 
L 111.575745 304.032695 
L 108.352019 304.032695 
z
" style="fill:#5eedfe;fill-opacity:0.815686;"/>
   </g>
   <g id="patch_214">
    <path clip-path="url(#p7d1a38bcce)" d="M 111.575745 307.584 
L 114.79947 307.584 
L 114.79947 306.351914 
L 111.575745 306.351914 
z
" style="fill:#5eedfe;fill-opacity:0.815686;"/>
   </g>
   <g id="patch_215">
    <path clip-path="url(#p7d1a38bcce)" d="M 114.79947 307.584 
L 118.023195 307.584 
L 118.023195 306.685302 
L 114.79947 306.685302 
z
" style="fill:#5eedfe;fill-opacity:0.815686;"/>
   </g>
   <g id="patch_216">
    <path clip-path="url(#p7d1a38bcce)" d="M 118.023195 307.584 
L 121.24692 307.584 
L 121.24692 306.808511 
L 118.023195 306.808511 
z
" style="fill:#5eedfe;fill-opacity:0.815686;"/>
   </g>
   <g id="patch_217">
    <path clip-path="url(#p7d1a38bcce)" d="M 121.24692 307.584 
L 124.470645 307.584 
L 124.470645 307.011443 
L 121.24692 307.011443 
z
" style="fill:#5eedfe;fill-opacity:0.815686;"/>
   </g>
   <g id="patch_218">
    <path clip-path="url(#p7d1a38bcce)" d="M 124.470645 307.584 
L 127.69437 307.584 
L 127.69437 307.004195 
L 124.470645 307.004195 
z
" style="fill:#5eedfe;fill-opacity:0.815686;"/>
   </g>
   <g id="patch_219">
    <path clip-path="url(#p7d1a38bcce)" d="M 127.69437 307.584 
L 130.918095 307.584 
L 130.918095 306.880986 
L 127.69437 306.880986 
z
" style="fill:#5eedfe;fill-opacity:0.815686;"/>
   </g>
   <g id="patch_220">
    <path clip-path="url(#p7d1a38bcce)" d="M 130.918095 307.584 
L 134.14182 307.584 
L 134.14182 307.01869 
L 130.918095 307.01869 
z
" style="fill:#5eedfe;fill-opacity:0.815686;"/>
   </g>
   <g id="patch_221">
    <path clip-path="url(#p7d1a38bcce)" d="M 134.14182 307.584 
L 137.365545 307.584 
L 137.365545 307.01869 
L 134.14182 307.01869 
z
" style="fill:#5eedfe;fill-opacity:0.815686;"/>
   </g>
   <g id="patch_222">
    <path clip-path="url(#p7d1a38bcce)" d="M 137.365545 307.584 
L 140.58927 307.584 
L 140.58927 306.975205 
L 137.365545 306.975205 
z
" style="fill:#5eedfe;fill-opacity:0.815686;"/>
   </g>
   <g id="patch_223">
    <path clip-path="url(#p7d1a38bcce)" d="M 140.58927 307.584 
L 143.812995 307.584 
L 143.812995 306.859244 
L 140.58927 306.859244 
z
" style="fill:#5eedfe;fill-opacity:0.815686;"/>
   </g>
   <g id="patch_224">
    <path clip-path="url(#p7d1a38bcce)" d="M 143.812995 307.584 
L 147.03672 307.584 
L 147.03672 306.880986 
L 143.812995 306.880986 
z
" style="fill:#5eedfe;fill-opacity:0.815686;"/>
   </g>
   <g id="patch_225">
    <path clip-path="url(#p7d1a38bcce)" d="M 147.03672 307.584 
L 150.260445 307.584 
L 150.260445 306.66356 
L 147.03672 306.66356 
z
" style="fill:#5eedfe;fill-opacity:0.815686;"/>
   </g>
   <g id="patch_226">
    <path clip-path="url(#p7d1a38bcce)" d="M 150.260445 307.584 
L 153.48417 307.584 
L 153.48417 306.794016 
L 150.260445 306.794016 
z
" style="fill:#5eedfe;fill-opacity:0.815686;"/>
   </g>
   <g id="patch_227">
    <path clip-path="url(#p7d1a38bcce)" d="M 153.48417 307.584 
L 156.707895 307.584 
L 156.707895 306.96071 
L 153.48417 306.96071 
z
" style="fill:#5eedfe;fill-opacity:0.815686;"/>
   </g>
   <g id="patch_228">
    <path clip-path="url(#p7d1a38bcce)" d="M 156.707895 307.584 
L 159.93162 307.584 
L 159.93162 307.163641 
L 156.707895 307.163641 
z
" style="fill:#5eedfe;fill-opacity:0.815686;"/>
   </g>
   <g id="patch_229">
    <path clip-path="url(#p7d1a38bcce)" d="M 159.93162 307.584 
L 163.155345 307.584 
L 163.155345 307.359326 
L 159.93162 307.359326 
z
" style="fill:#5eedfe;fill-opacity:0.815686;"/>
   </g>
   <g id="patch_230">
    <path clip-path="url(#p7d1a38bcce)" d="M 163.155345 307.584 
L 166.37907 307.584 
L 166.37907 307.31584 
L 163.155345 307.31584 
z
" style="fill:#5eedfe;fill-opacity:0.815686;"/>
   </g>
   <g id="patch_231">
    <path clip-path="url(#p7d1a38bcce)" d="M 166.37907 307.584 
L 169.602795 307.584 
L 169.602795 307.330335 
L 166.37907 307.330335 
z
" style="fill:#5eedfe;fill-opacity:0.815686;"/>
   </g>
   <g id="patch_232">
    <path clip-path="url(#p7d1a38bcce)" d="M 169.602795 307.584 
L 172.82652 307.584 
L 172.82652 307.366573 
L 169.602795 307.366573 
z
" style="fill:#5eedfe;fill-opacity:0.815686;"/>
   </g>
   <g id="patch_233">
    <path clip-path="url(#p7d1a38bcce)" d="M 172.82652 307.584 
L 176.050245 307.584 
L 176.050245 306.967957 
L 172.82652 306.967957 
z
" style="fill:#5eedfe;fill-opacity:0.815686;"/>
   </g>
   <g id="patch_234">
    <path clip-path="url(#p7d1a38bcce)" d="M 176.050245 307.584 
L 179.27397 307.584 
L 179.27397 306.45338 
L 176.050245 306.45338 
z
" style="fill:#5eedfe;fill-opacity:0.815686;"/>
   </g>
   <g id="patch_235">
    <path clip-path="url(#p7d1a38bcce)" d="M 179.27397 307.584 
L 182.497695 307.584 
L 182.497695 306.272191 
L 179.27397 306.272191 
z
" style="fill:#5eedfe;fill-opacity:0.815686;"/>
   </g>
   <g id="patch_236">
    <path clip-path="url(#p7d1a38bcce)" d="M 182.497695 307.584 
L 185.72142 307.584 
L 185.72142 306.612827 
L 182.497695 306.612827 
z
" style="fill:#5eedfe;fill-opacity:0.815686;"/>
   </g>
   <g id="patch_237">
    <path clip-path="url(#p7d1a38bcce)" d="M 185.72142 307.584 
L 188.945145 307.584 
L 188.945145 306.598332 
L 185.72142 306.598332 
z
" style="fill:#5eedfe;fill-opacity:0.815686;"/>
   </g>
   <g id="patch_238">
    <path clip-path="url(#p7d1a38bcce)" d="M 188.945145 307.584 
L 192.16887 307.584 
L 192.16887 304.221131 
L 188.945145 304.221131 
z
" style="fill:#5eedfe;fill-opacity:0.815686;"/>
   </g>
   <g id="patch_239">
    <path clip-path="url(#p7d1a38bcce)" d="M 192.16887 307.584 
L 195.392595 307.584 
L 195.392595 295.27764 
L 192.16887 295.27764 
z
" style="fill:#5eedfe;fill-opacity:0.815686;"/>
   </g>
   <g id="patch_240">
    <path clip-path="url(#p7d1a38bcce)" d="M 195.392595 307.584 
L 198.61632 307.584 
L 198.61632 266.584541 
L 195.392595 266.584541 
z
" style="fill:#5eedfe;fill-opacity:0.815686;"/>
   </g>
   <g id="patch_241">
    <path clip-path="url(#p7d1a38bcce)" d="M 198.61632 307.584 
L 201.840046 307.584 
L 201.840046 164.814274 
L 198.61632 164.814274 
z
" style="fill:#5eedfe;fill-opacity:0.815686;"/>
   </g>
   <g id="patch_242">
    <path clip-path="url(#p7d1a38bcce)" d="M 201.840046 307.584 
L 205.063771 307.584 
L 205.063771 78.974148 
L 201.840046 78.974148 
z
" style="fill:#5eedfe;fill-opacity:0.815686;"/>
   </g>
   <g id="patch_243">
    <path clip-path="url(#p7d1a38bcce)" d="M 205.063771 307.584 
L 208.287496 307.584 
L 208.287496 227.317249 
L 205.063771 227.317249 
z
" style="fill:#5eedfe;fill-opacity:0.815686;"/>
   </g>
   <g id="patch_244">
    <path clip-path="url(#p7d1a38bcce)" d="M 208.287496 307.584 
L 211.511221 307.584 
L 211.511221 289.718759 
L 208.287496 289.718759 
z
" style="fill:#5eedfe;fill-opacity:0.815686;"/>
   </g>
   <g id="patch_245">
    <path clip-path="url(#p7d1a38bcce)" d="M 211.511221 307.584 
L 214.734946 307.584 
L 214.734946 294.705082 
L 211.511221 294.705082 
z
" style="fill:#5eedfe;fill-opacity:0.815686;"/>
   </g>
   <g id="patch_246">
    <path clip-path="url(#p7d1a38bcce)" d="M 214.734946 307.584 
L 217.958671 307.584 
L 217.958671 301.988882 
L 214.734946 301.988882 
z
" style="fill:#5eedfe;fill-opacity:0.815686;"/>
   </g>
   <g id="patch_247">
    <path clip-path="url(#p7d1a38bcce)" d="M 217.958671 307.584 
L 221.182396 307.584 
L 221.182396 304.576262 
L 217.958671 304.576262 
z
" style="fill:#5eedfe;fill-opacity:0.815686;"/>
   </g>
   <g id="patch_248">
    <path clip-path="url(#p7d1a38bcce)" d="M 221.182396 307.584 
L 224.406121 307.584 
L 224.406121 305.322761 
L 221.182396 305.322761 
z
" style="fill:#5eedfe;fill-opacity:0.815686;"/>
   </g>
   <g id="patch_249">
    <path clip-path="url(#p7d1a38bcce)" d="M 224.406121 307.584 
L 227.629846 307.584 
L 227.629846 305.511197 
L 224.406121 305.511197 
z
" style="fill:#5eedfe;fill-opacity:0.815686;"/>
   </g>
   <g id="patch_250">
    <path clip-path="url(#p7d1a38bcce)" d="M 227.629846 307.584 
L 230.853571 307.584 
L 230.853571 306.257696 
L 227.629846 306.257696 
z
" style="fill:#5eedfe;fill-opacity:0.815686;"/>
   </g>
   <g id="patch_251">
    <path clip-path="url(#p7d1a38bcce)" d="M 230.853571 307.584 
L 234.077296 307.584 
L 234.077296 306.75053 
L 230.853571 306.75053 
z
" style="fill:#5eedfe;fill-opacity:0.815686;"/>
   </g>
   <g id="patch_252">
    <path clip-path="url(#p7d1a38bcce)" d="M 234.077296 307.584 
L 237.301021 307.584 
L 237.301021 307.033185 
L 234.077296 307.033185 
z
" style="fill:#5eedfe;fill-opacity:0.815686;"/>
   </g>
   <g id="patch_253">
    <path clip-path="url(#p7d1a38bcce)" d="M 237.301021 307.584 
L 240.524746 307.584 
L 240.524746 307.31584 
L 237.301021 307.31584 
z
" style="fill:#5eedfe;fill-opacity:0.815686;"/>
   </g>
   <g id="patch_254">
    <path clip-path="url(#p7d1a38bcce)" d="M 240.524746 307.584 
L 243.748471 307.584 
L 243.748471 307.301345 
L 240.524746 307.301345 
z
" style="fill:#5eedfe;fill-opacity:0.815686;"/>
   </g>
   <g id="patch_255">
    <path clip-path="url(#p7d1a38bcce)" d="M 243.748471 307.584 
L 246.972196 307.584 
L 246.972196 307.460791 
L 243.748471 307.460791 
z
" style="fill:#5eedfe;fill-opacity:0.815686;"/>
   </g>
   <g id="patch_256">
    <path clip-path="url(#p7d1a38bcce)" d="M 246.972196 307.584 
L 250.195921 307.584 
L 250.195921 307.533267 
L 246.972196 307.533267 
z
" style="fill:#5eedfe;fill-opacity:0.815686;"/>
   </g>
   <g id="patch_257">
    <path clip-path="url(#p7d1a38bcce)" d="M 250.195921 307.584 
L 253.419646 307.584 
L 253.419646 307.547762 
L 250.195921 307.547762 
z
" style="fill:#5eedfe;fill-opacity:0.815686;"/>
   </g>
   <g id="patch_258">
    <path clip-path="url(#p7d1a38bcce)" d="M 253.419646 307.584 
L 256.643371 307.584 
L 256.643371 307.562257 
L 253.419646 307.562257 
z
" style="fill:#5eedfe;fill-opacity:0.815686;"/>
   </g>
   <g id="patch_259">
    <path clip-path="url(#p7d1a38bcce)" d="M 256.643371 307.584 
L 259.867096 307.584 
L 259.867096 307.547762 
L 256.643371 307.547762 
z
" style="fill:#5eedfe;fill-opacity:0.815686;"/>
   </g>
   <g id="patch_260">
    <path clip-path="url(#p7d1a38bcce)" d="M 259.867096 307.584 
L 263.090821 307.584 
L 263.090821 307.562257 
L 259.867096 307.562257 
z
" style="fill:#5eedfe;fill-opacity:0.815686;"/>
   </g>
   <g id="patch_261">
    <path clip-path="url(#p7d1a38bcce)" d="M 263.090821 307.584 
L 266.314546 307.584 
L 266.314546 307.52602 
L 263.090821 307.52602 
z
" style="fill:#5eedfe;fill-opacity:0.815686;"/>
   </g>
   <g id="patch_262">
    <path clip-path="url(#p7d1a38bcce)" d="M 266.314546 307.584 
L 269.538271 307.584 
L 269.538271 307.533267 
L 266.314546 307.533267 
z
" style="fill:#5eedfe;fill-opacity:0.815686;"/>
   </g>
   <g id="patch_263">
    <path clip-path="url(#p7d1a38bcce)" d="M 269.538271 307.584 
L 272.761996 307.584 
L 272.761996 307.540515 
L 269.538271 307.540515 
z
" style="fill:#5eedfe;fill-opacity:0.815686;"/>
   </g>
   <g id="patch_264">
    <path clip-path="url(#p7d1a38bcce)" d="M 272.761996 307.584 
L 275.985721 307.584 
L 275.985721 307.576752 
L 272.761996 307.576752 
z
" style="fill:#5eedfe;fill-opacity:0.815686;"/>
   </g>
   <g id="patch_265">
    <path clip-path="url(#p7d1a38bcce)" d="M 275.985721 307.584 
L 279.209446 307.584 
L 279.209446 307.569505 
L 275.985721 307.569505 
z
" style="fill:#5eedfe;fill-opacity:0.815686;"/>
   </g>
   <g id="patch_266">
    <path clip-path="url(#p7d1a38bcce)" d="M 279.209446 307.584 
L 282.433171 307.584 
L 282.433171 307.533267 
L 279.209446 307.533267 
z
" style="fill:#5eedfe;fill-opacity:0.815686;"/>
   </g>
   <g id="patch_267">
    <path clip-path="url(#p7d1a38bcce)" d="M 282.433171 307.584 
L 285.656896 307.584 
L 285.656896 307.547762 
L 282.433171 307.547762 
z
" style="fill:#5eedfe;fill-opacity:0.815686;"/>
   </g>
   <g id="patch_268">
    <path clip-path="url(#p7d1a38bcce)" d="M 285.656896 307.584 
L 288.880622 307.584 
L 288.880622 307.547762 
L 285.656896 307.547762 
z
" style="fill:#5eedfe;fill-opacity:0.815686;"/>
   </g>
   <g id="patch_269">
    <path clip-path="url(#p7d1a38bcce)" d="M 288.880622 307.584 
L 292.104347 307.584 
L 292.104347 307.497029 
L 288.880622 307.497029 
z
" style="fill:#5eedfe;fill-opacity:0.815686;"/>
   </g>
   <g id="patch_270">
    <path clip-path="url(#p7d1a38bcce)" d="M 292.104347 307.584 
L 295.328072 307.584 
L 295.328072 307.489782 
L 292.104347 307.489782 
z
" style="fill:#5eedfe;fill-opacity:0.815686;"/>
   </g>
   <g id="patch_271">
    <path clip-path="url(#p7d1a38bcce)" d="M 295.328072 307.584 
L 298.551797 307.584 
L 298.551797 307.489782 
L 295.328072 307.489782 
z
" style="fill:#5eedfe;fill-opacity:0.815686;"/>
   </g>
   <g id="patch_272">
    <path clip-path="url(#p7d1a38bcce)" d="M 298.551797 307.584 
L 301.775522 307.584 
L 301.775522 307.533267 
L 298.551797 307.533267 
z
" style="fill:#5eedfe;fill-opacity:0.815686;"/>
   </g>
   <g id="patch_273">
    <path clip-path="url(#p7d1a38bcce)" d="M 301.775522 307.584 
L 304.999247 307.584 
L 304.999247 307.504277 
L 301.775522 307.504277 
z
" style="fill:#5eedfe;fill-opacity:0.815686;"/>
   </g>
   <g id="patch_274">
    <path clip-path="url(#p7d1a38bcce)" d="M 304.999247 307.584 
L 308.222972 307.584 
L 308.222972 307.55501 
L 304.999247 307.55501 
z
" style="fill:#5eedfe;fill-opacity:0.815686;"/>
   </g>
   <g id="patch_275">
    <path clip-path="url(#p7d1a38bcce)" d="M 308.222972 307.584 
L 311.446697 307.584 
L 311.446697 307.533267 
L 308.222972 307.533267 
z
" style="fill:#5eedfe;fill-opacity:0.815686;"/>
   </g>
   <g id="patch_276">
    <path clip-path="url(#p7d1a38bcce)" d="M 311.446697 307.584 
L 314.670422 307.584 
L 314.670422 307.497029 
L 311.446697 307.497029 
z
" style="fill:#5eedfe;fill-opacity:0.815686;"/>
   </g>
   <g id="patch_277">
    <path clip-path="url(#p7d1a38bcce)" d="M 314.670422 307.584 
L 317.894147 307.584 
L 317.894147 307.52602 
L 314.670422 307.52602 
z
" style="fill:#5eedfe;fill-opacity:0.815686;"/>
   </g>
   <g id="patch_278">
    <path clip-path="url(#p7d1a38bcce)" d="M 317.894147 307.584 
L 321.117872 307.584 
L 321.117872 307.453544 
L 317.894147 307.453544 
z
" style="fill:#5eedfe;fill-opacity:0.815686;"/>
   </g>
   <g id="patch_279">
    <path clip-path="url(#p7d1a38bcce)" d="M 321.117872 307.584 
L 324.341597 307.584 
L 324.341597 307.31584 
L 321.117872 307.31584 
z
" style="fill:#5eedfe;fill-opacity:0.815686;"/>
   </g>
   <g id="patch_280">
    <path clip-path="url(#p7d1a38bcce)" d="M 324.341597 307.584 
L 327.565322 307.584 
L 327.565322 307.250612 
L 324.341597 307.250612 
z
" style="fill:#5eedfe;fill-opacity:0.815686;"/>
   </g>
   <g id="patch_281">
    <path clip-path="url(#p7d1a38bcce)" d="M 327.565322 307.584 
L 330.789047 307.584 
L 330.789047 307.395563 
L 327.565322 307.395563 
z
" style="fill:#5eedfe;fill-opacity:0.815686;"/>
   </g>
   <g id="patch_282">
    <path clip-path="url(#p7d1a38bcce)" d="M 330.789047 307.584 
L 334.012772 307.584 
L 334.012772 307.504277 
L 330.789047 307.504277 
z
" style="fill:#5eedfe;fill-opacity:0.815686;"/>
   </g>
   <g id="patch_283">
    <path clip-path="url(#p7d1a38bcce)" d="M 334.012772 307.584 
L 337.236497 307.584 
L 337.236497 307.533267 
L 334.012772 307.533267 
z
" style="fill:#5eedfe;fill-opacity:0.815686;"/>
   </g>
   <g id="patch_284">
    <path clip-path="url(#p7d1a38bcce)" d="M 337.236497 307.584 
L 340.460222 307.584 
L 340.460222 307.562257 
L 337.236497 307.562257 
z
" style="fill:#5eedfe;fill-opacity:0.815686;"/>
   </g>
   <g id="patch_285">
    <path clip-path="url(#p7d1a38bcce)" d="M 340.460222 307.584 
L 343.683947 307.584 
L 343.683947 307.533267 
L 340.460222 307.533267 
z
" style="fill:#5eedfe;fill-opacity:0.815686;"/>
   </g>
   <g id="patch_286">
    <path clip-path="url(#p7d1a38bcce)" d="M 343.683947 307.584 
L 346.907672 307.584 
L 346.907672 307.562257 
L 343.683947 307.562257 
z
" style="fill:#5eedfe;fill-opacity:0.815686;"/>
   </g>
   <g id="patch_287">
    <path clip-path="url(#p7d1a38bcce)" d="M 346.907672 307.584 
L 350.131397 307.584 
L 350.131397 307.576752 
L 346.907672 307.576752 
z
" style="fill:#5eedfe;fill-opacity:0.815686;"/>
   </g>
   <g id="patch_288">
    <path clip-path="url(#p7d1a38bcce)" d="M 350.131397 307.584 
L 353.355122 307.584 
L 353.355122 307.576752 
L 350.131397 307.576752 
z
" style="fill:#5eedfe;fill-opacity:0.815686;"/>
   </g>
   <g id="patch_289">
    <path clip-path="url(#p7d1a38bcce)" d="M 353.355122 307.584 
L 356.578847 307.584 
L 356.578847 307.55501 
L 353.355122 307.55501 
z
" style="fill:#5eedfe;fill-opacity:0.815686;"/>
   </g>
   <g id="patch_290">
    <path clip-path="url(#p7d1a38bcce)" d="M 356.578847 307.584 
L 359.802572 307.584 
L 359.802572 307.547762 
L 356.578847 307.547762 
z
" style="fill:#5eedfe;fill-opacity:0.815686;"/>
   </g>
   <g id="patch_291">
    <path clip-path="url(#p7d1a38bcce)" d="M 359.802572 307.584 
L 363.026297 307.584 
L 363.026297 307.52602 
L 359.802572 307.52602 
z
" style="fill:#5eedfe;fill-opacity:0.815686;"/>
   </g>
   <g id="patch_292">
    <path clip-path="url(#p7d1a38bcce)" d="M 363.026297 307.584 
L 366.250022 307.584 
L 366.250022 307.55501 
L 363.026297 307.55501 
z
" style="fill:#5eedfe;fill-opacity:0.815686;"/>
   </g>
   <g id="patch_293">
    <path clip-path="url(#p7d1a38bcce)" d="M 366.250022 307.584 
L 369.473747 307.584 
L 369.473747 307.55501 
L 366.250022 307.55501 
z
" style="fill:#5eedfe;fill-opacity:0.815686;"/>
   </g>
   <g id="patch_294">
    <path clip-path="url(#p7d1a38bcce)" d="M 369.473747 307.584 
L 372.697472 307.584 
L 372.697472 307.55501 
L 369.473747 307.55501 
z
" style="fill:#5eedfe;fill-opacity:0.815686;"/>
   </g>
   <g id="patch_295">
    <path clip-path="url(#p7d1a38bcce)" d="M 372.697472 307.584 
L 375.921197 307.584 
L 375.921197 307.569505 
L 372.697472 307.569505 
z
" style="fill:#5eedfe;fill-opacity:0.815686;"/>
   </g>
   <g id="patch_296">
    <path clip-path="url(#p7d1a38bcce)" d="M 375.921197 307.584 
L 379.144923 307.584 
L 379.144923 307.55501 
L 375.921197 307.55501 
z
" style="fill:#5eedfe;fill-opacity:0.815686;"/>
   </g>
   <g id="patch_297">
    <path clip-path="url(#p7d1a38bcce)" d="M 379.144923 307.584 
L 382.368648 307.584 
L 382.368648 307.504277 
L 379.144923 307.504277 
z
" style="fill:#5eedfe;fill-opacity:0.815686;"/>
   </g>
   <g id="patch_298">
    <path clip-path="url(#p7d1a38bcce)" d="M 382.368648 307.584 
L 385.592373 307.584 
L 385.592373 307.533267 
L 382.368648 307.533267 
z
" style="fill:#5eedfe;fill-opacity:0.815686;"/>
   </g>
   <g id="patch_299">
    <path clip-path="url(#p7d1a38bcce)" d="M 385.592373 307.584 
L 388.816098 307.584 
L 388.816098 307.518772 
L 385.592373 307.518772 
z
" style="fill:#5eedfe;fill-opacity:0.815686;"/>
   </g>
   <g id="patch_300">
    <path clip-path="url(#p7d1a38bcce)" d="M 388.816098 307.584 
L 392.039823 307.584 
L 392.039823 307.562257 
L 388.816098 307.562257 
z
" style="fill:#5eedfe;fill-opacity:0.815686;"/>
   </g>
   <g id="patch_301">
    <path clip-path="url(#p7d1a38bcce)" d="M 392.039823 307.584 
L 395.263548 307.584 
L 395.263548 307.569505 
L 392.039823 307.569505 
z
" style="fill:#5eedfe;fill-opacity:0.815686;"/>
   </g>
   <g id="patch_302">
    <path clip-path="url(#p7d1a38bcce)" d="M 395.263548 307.584 
L 398.487273 307.584 
L 398.487273 307.547762 
L 395.263548 307.547762 
z
" style="fill:#5eedfe;fill-opacity:0.815686;"/>
   </g>
   <g id="matplotlib.axis_1">
    <g id="xtick_1">
     <g id="line2d_1">
      <defs>
       <path d="M 0 0 
L 0 3.5 
" id="m1359784e27" style="stroke:#000000;stroke-width:0.8;"/>
      </defs>
      <g>
       <use style="stroke:#000000;stroke-width:0.8;" x="58.710635" xlink:href="#m1359784e27" y="307.584"/>
      </g>
     </g>
     <g id="text_1">
      <!-- 1.0 ms -->
      <defs>
       <path d="M 12.40625 8.296875 
L 28.515625 8.296875 
L 28.515625 63.921875 
L 10.984375 60.40625 
L 10.984375 69.390625 
L 28.421875 72.90625 
L 38.28125 72.90625 
L 38.28125 8.296875 
L 54.390625 8.296875 
L 54.390625 0 
L 12.40625 0 
z
" id="DejaVuSans-49"/>
       <path d="M 10.6875 12.40625 
L 21 12.40625 
L 21 0 
L 10.6875 0 
z
" id="DejaVuSans-46"/>
       <path d="M 31.78125 66.40625 
Q 24.171875 66.40625 20.328125 58.90625 
Q 16.5 51.421875 16.5 36.375 
Q 16.5 21.390625 20.328125 13.890625 
Q 24.171875 6.390625 31.78125 6.390625 
Q 39.453125 6.390625 43.28125 13.890625 
Q 47.125 21.390625 47.125 36.375 
Q 47.125 51.421875 43.28125 58.90625 
Q 39.453125 66.40625 31.78125 66.40625 
z
M 31.78125 74.21875 
Q 44.046875 74.21875 50.515625 64.515625 
Q 56.984375 54.828125 56.984375 36.375 
Q 56.984375 17.96875 50.515625 8.265625 
Q 44.046875 -1.421875 31.78125 -1.421875 
Q 19.53125 -1.421875 13.0625 8.265625 
Q 6.59375 17.96875 6.59375 36.375 
Q 6.59375 54.828125 13.0625 64.515625 
Q 19.53125 74.21875 31.78125 74.21875 
z
" id="DejaVuSans-48"/>
       <path id="DejaVuSans-32"/>
       <path d="M 52 44.1875 
Q 55.375 50.25 60.0625 53.125 
Q 64.75 56 71.09375 56 
Q 79.640625 56 84.28125 50.015625 
Q 88.921875 44.046875 88.921875 33.015625 
L 88.921875 0 
L 79.890625 0 
L 79.890625 32.71875 
Q 79.890625 40.578125 77.09375 44.375 
Q 74.3125 48.1875 68.609375 48.1875 
Q 61.625 48.1875 57.5625 43.546875 
Q 53.515625 38.921875 53.515625 30.90625 
L 53.515625 0 
L 44.484375 0 
L 44.484375 32.71875 
Q 44.484375 40.625 41.703125 44.40625 
Q 38.921875 48.1875 33.109375 48.1875 
Q 26.21875 48.1875 22.15625 43.53125 
Q 18.109375 38.875 18.109375 30.90625 
L 18.109375 0 
L 9.078125 0 
L 9.078125 54.6875 
L 18.109375 54.6875 
L 18.109375 46.1875 
Q 21.1875 51.21875 25.484375 53.609375 
Q 29.78125 56 35.6875 56 
Q 41.65625 56 45.828125 52.96875 
Q 50 49.953125 52 44.1875 
z
" id="DejaVuSans-109"/>
       <path d="M 44.28125 53.078125 
L 44.28125 44.578125 
Q 40.484375 46.53125 36.375 47.5 
Q 32.28125 48.484375 27.875 48.484375 
Q 21.1875 48.484375 17.84375 46.4375 
Q 14.5 44.390625 14.5 40.28125 
Q 14.5 37.15625 16.890625 35.375 
Q 19.28125 33.59375 26.515625 31.984375 
L 29.59375 31.296875 
Q 39.15625 29.25 43.1875 25.515625 
Q 47.21875 21.78125 47.21875 15.09375 
Q 47.21875 7.46875 41.1875 3.015625 
Q 35.15625 -1.421875 24.609375 -1.421875 
Q 20.21875 -1.421875 15.453125 -0.5625 
Q 10.6875 0.296875 5.421875 2 
L 5.421875 11.28125 
Q 10.40625 8.6875 15.234375 7.390625 
Q 20.0625 6.109375 24.8125 6.109375 
Q 31.15625 6.109375 34.5625 8.28125 
Q 37.984375 10.453125 37.984375 14.40625 
Q 37.984375 18.0625 35.515625 20.015625 
Q 33.0625 21.96875 24.703125 23.78125 
L 21.578125 24.515625 
Q 13.234375 26.265625 9.515625 29.90625 
Q 5.8125 33.546875 5.8125 39.890625 
Q 5.8125 47.609375 11.28125 51.796875 
Q 16.75 56 26.8125 56 
Q 31.78125 56 36.171875 55.265625 
Q 40.578125 54.546875 44.28125 53.078125 
z
" id="DejaVuSans-115"/>
      </defs>
      <g transform="translate(55.499397 321.470523)rotate(-335)scale(0.1 -0.1)">
       <use xlink:href="#DejaVuSans-49"/>
       <use x="63.623047" xlink:href="#DejaVuSans-46"/>
       <use x="95.410156" xlink:href="#DejaVuSans-48"/>
       <use x="159.033203" xlink:href="#DejaVuSans-32"/>
       <use x="190.820312" xlink:href="#DejaVuSans-109"/>
       <use x="288.232422" xlink:href="#DejaVuSans-115"/>
      </g>
     </g>
    </g>
    <g id="xtick_2">
     <g id="line2d_2">
      <g>
       <use style="stroke:#000000;stroke-width:0.8;" x="104.409968" xlink:href="#m1359784e27" y="307.584"/>
      </g>
     </g>
     <g id="text_2">
      <!-- 2.0 ms -->
      <defs>
       <path d="M 19.1875 8.296875 
L 53.609375 8.296875 
L 53.609375 0 
L 7.328125 0 
L 7.328125 8.296875 
Q 12.9375 14.109375 22.625 23.890625 
Q 32.328125 33.6875 34.8125 36.53125 
Q 39.546875 41.84375 41.421875 45.53125 
Q 43.3125 49.21875 43.3125 52.78125 
Q 43.3125 58.59375 39.234375 62.25 
Q 35.15625 65.921875 28.609375 65.921875 
Q 23.96875 65.921875 18.8125 64.3125 
Q 13.671875 62.703125 7.8125 59.421875 
L 7.8125 69.390625 
Q 13.765625 71.78125 18.9375 73 
Q 24.125 74.21875 28.421875 74.21875 
Q 39.75 74.21875 46.484375 68.546875 
Q 53.21875 62.890625 53.21875 53.421875 
Q 53.21875 48.921875 51.53125 44.890625 
Q 49.859375 40.875 45.40625 35.40625 
Q 44.1875 33.984375 37.640625 27.21875 
Q 31.109375 20.453125 19.1875 8.296875 
z
" id="DejaVuSans-50"/>
      </defs>
      <g transform="translate(101.198729 321.470523)rotate(-335)scale(0.1 -0.1)">
       <use xlink:href="#DejaVuSans-50"/>
       <use x="63.623047" xlink:href="#DejaVuSans-46"/>
       <use x="95.410156" xlink:href="#DejaVuSans-48"/>
       <use x="159.033203" xlink:href="#DejaVuSans-32"/>
       <use x="190.820312" xlink:href="#DejaVuSans-109"/>
       <use x="288.232422" xlink:href="#DejaVuSans-115"/>
      </g>
     </g>
    </g>
    <g id="xtick_3">
     <g id="line2d_3">
      <g>
       <use style="stroke:#000000;stroke-width:0.8;" x="150.1093" xlink:href="#m1359784e27" y="307.584"/>
      </g>
     </g>
     <g id="text_3">
      <!-- 3.0 ms -->
      <defs>
       <path d="M 40.578125 39.3125 
Q 47.65625 37.796875 51.625 33 
Q 55.609375 28.21875 55.609375 21.1875 
Q 55.609375 10.40625 48.1875 4.484375 
Q 40.765625 -1.421875 27.09375 -1.421875 
Q 22.515625 -1.421875 17.65625 -0.515625 
Q 12.796875 0.390625 7.625 2.203125 
L 7.625 11.71875 
Q 11.71875 9.328125 16.59375 8.109375 
Q 21.484375 6.890625 26.8125 6.890625 
Q 36.078125 6.890625 40.9375 10.546875 
Q 45.796875 14.203125 45.796875 21.1875 
Q 45.796875 27.640625 41.28125 31.265625 
Q 36.765625 34.90625 28.71875 34.90625 
L 20.21875 34.90625 
L 20.21875 43.015625 
L 29.109375 43.015625 
Q 36.375 43.015625 40.234375 45.921875 
Q 44.09375 48.828125 44.09375 54.296875 
Q 44.09375 59.90625 40.109375 62.90625 
Q 36.140625 65.921875 28.71875 65.921875 
Q 24.65625 65.921875 20.015625 65.03125 
Q 15.375 64.15625 9.8125 62.3125 
L 9.8125 71.09375 
Q 15.4375 72.65625 20.34375 73.4375 
Q 25.25 74.21875 29.59375 74.21875 
Q 40.828125 74.21875 47.359375 69.109375 
Q 53.90625 64.015625 53.90625 55.328125 
Q 53.90625 49.265625 50.4375 45.09375 
Q 46.96875 40.921875 40.578125 39.3125 
z
" id="DejaVuSans-51"/>
      </defs>
      <g transform="translate(146.898061 321.470523)rotate(-335)scale(0.1 -0.1)">
       <use xlink:href="#DejaVuSans-51"/>
       <use x="63.623047" xlink:href="#DejaVuSans-46"/>
       <use x="95.410156" xlink:href="#DejaVuSans-48"/>
       <use x="159.033203" xlink:href="#DejaVuSans-32"/>
       <use x="190.820312" xlink:href="#DejaVuSans-109"/>
       <use x="288.232422" xlink:href="#DejaVuSans-115"/>
      </g>
     </g>
    </g>
    <g id="xtick_4">
     <g id="line2d_4">
      <g>
       <use style="stroke:#000000;stroke-width:0.8;" x="195.808632" xlink:href="#m1359784e27" y="307.584"/>
      </g>
     </g>
     <g id="text_4">
      <!-- 4.0 ms -->
      <defs>
       <path d="M 37.796875 64.3125 
L 12.890625 25.390625 
L 37.796875 25.390625 
z
M 35.203125 72.90625 
L 47.609375 72.90625 
L 47.609375 25.390625 
L 58.015625 25.390625 
L 58.015625 17.1875 
L 47.609375 17.1875 
L 47.609375 0 
L 37.796875 0 
L 37.796875 17.1875 
L 4.890625 17.1875 
L 4.890625 26.703125 
z
" id="DejaVuSans-52"/>
      </defs>
      <g transform="translate(192.597394 321.470523)rotate(-335)scale(0.1 -0.1)">
       <use xlink:href="#DejaVuSans-52"/>
       <use x="63.623047" xlink:href="#DejaVuSans-46"/>
       <use x="95.410156" xlink:href="#DejaVuSans-48"/>
       <use x="159.033203" xlink:href="#DejaVuSans-32"/>
       <use x="190.820312" xlink:href="#DejaVuSans-109"/>
       <use x="288.232422" xlink:href="#DejaVuSans-115"/>
      </g>
     </g>
    </g>
    <g id="xtick_5">
     <g id="line2d_5">
      <g>
       <use style="stroke:#000000;stroke-width:0.8;" x="241.507964" xlink:href="#m1359784e27" y="307.584"/>
      </g>
     </g>
     <g id="text_5">
      <!-- 5.0 ms -->
      <defs>
       <path d="M 10.796875 72.90625 
L 49.515625 72.90625 
L 49.515625 64.59375 
L 19.828125 64.59375 
L 19.828125 46.734375 
Q 21.96875 47.46875 24.109375 47.828125 
Q 26.265625 48.1875 28.421875 48.1875 
Q 40.625 48.1875 47.75 41.5 
Q 54.890625 34.8125 54.890625 23.390625 
Q 54.890625 11.625 47.5625 5.09375 
Q 40.234375 -1.421875 26.90625 -1.421875 
Q 22.3125 -1.421875 17.546875 -0.640625 
Q 12.796875 0.140625 7.71875 1.703125 
L 7.71875 11.625 
Q 12.109375 9.234375 16.796875 8.0625 
Q 21.484375 6.890625 26.703125 6.890625 
Q 35.15625 6.890625 40.078125 11.328125 
Q 45.015625 15.765625 45.015625 23.390625 
Q 45.015625 31 40.078125 35.4375 
Q 35.15625 39.890625 26.703125 39.890625 
Q 22.75 39.890625 18.8125 39.015625 
Q 14.890625 38.140625 10.796875 36.28125 
z
" id="DejaVuSans-53"/>
      </defs>
      <g transform="translate(238.296726 321.470523)rotate(-335)scale(0.1 -0.1)">
       <use xlink:href="#DejaVuSans-53"/>
       <use x="63.623047" xlink:href="#DejaVuSans-46"/>
       <use x="95.410156" xlink:href="#DejaVuSans-48"/>
       <use x="159.033203" xlink:href="#DejaVuSans-32"/>
       <use x="190.820312" xlink:href="#DejaVuSans-109"/>
       <use x="288.232422" xlink:href="#DejaVuSans-115"/>
      </g>
     </g>
    </g>
    <g id="xtick_6">
     <g id="line2d_6">
      <g>
       <use style="stroke:#000000;stroke-width:0.8;" x="287.207297" xlink:href="#m1359784e27" y="307.584"/>
      </g>
     </g>
     <g id="text_6">
      <!-- 6.0 ms -->
      <defs>
       <path d="M 33.015625 40.375 
Q 26.375 40.375 22.484375 35.828125 
Q 18.609375 31.296875 18.609375 23.390625 
Q 18.609375 15.53125 22.484375 10.953125 
Q 26.375 6.390625 33.015625 6.390625 
Q 39.65625 6.390625 43.53125 10.953125 
Q 47.40625 15.53125 47.40625 23.390625 
Q 47.40625 31.296875 43.53125 35.828125 
Q 39.65625 40.375 33.015625 40.375 
z
M 52.59375 71.296875 
L 52.59375 62.3125 
Q 48.875 64.0625 45.09375 64.984375 
Q 41.3125 65.921875 37.59375 65.921875 
Q 27.828125 65.921875 22.671875 59.328125 
Q 17.53125 52.734375 16.796875 39.40625 
Q 19.671875 43.65625 24.015625 45.921875 
Q 28.375 48.1875 33.59375 48.1875 
Q 44.578125 48.1875 50.953125 41.515625 
Q 57.328125 34.859375 57.328125 23.390625 
Q 57.328125 12.15625 50.6875 5.359375 
Q 44.046875 -1.421875 33.015625 -1.421875 
Q 20.359375 -1.421875 13.671875 8.265625 
Q 6.984375 17.96875 6.984375 36.375 
Q 6.984375 53.65625 15.1875 63.9375 
Q 23.390625 74.21875 37.203125 74.21875 
Q 40.921875 74.21875 44.703125 73.484375 
Q 48.484375 72.75 52.59375 71.296875 
z
" id="DejaVuSans-54"/>
      </defs>
      <g transform="translate(283.996058 321.470523)rotate(-335)scale(0.1 -0.1)">
       <use xlink:href="#DejaVuSans-54"/>
       <use x="63.623047" xlink:href="#DejaVuSans-46"/>
       <use x="95.410156" xlink:href="#DejaVuSans-48"/>
       <use x="159.033203" xlink:href="#DejaVuSans-32"/>
       <use x="190.820312" xlink:href="#DejaVuSans-109"/>
       <use x="288.232422" xlink:href="#DejaVuSans-115"/>
      </g>
     </g>
    </g>
    <g id="xtick_7">
     <g id="line2d_7">
      <g>
       <use style="stroke:#000000;stroke-width:0.8;" x="332.906629" xlink:href="#m1359784e27" y="307.584"/>
      </g>
     </g>
     <g id="text_7">
      <!-- 7.0 ms -->
      <defs>
       <path d="M 8.203125 72.90625 
L 55.078125 72.90625 
L 55.078125 68.703125 
L 28.609375 0 
L 18.3125 0 
L 43.21875 64.59375 
L 8.203125 64.59375 
z
" id="DejaVuSans-55"/>
      </defs>
      <g transform="translate(329.69539 321.470523)rotate(-335)scale(0.1 -0.1)">
       <use xlink:href="#DejaVuSans-55"/>
       <use x="63.623047" xlink:href="#DejaVuSans-46"/>
       <use x="95.410156" xlink:href="#DejaVuSans-48"/>
       <use x="159.033203" xlink:href="#DejaVuSans-32"/>
       <use x="190.820312" xlink:href="#DejaVuSans-109"/>
       <use x="288.232422" xlink:href="#DejaVuSans-115"/>
      </g>
     </g>
    </g>
    <g id="xtick_8">
     <g id="line2d_8">
      <g>
       <use style="stroke:#000000;stroke-width:0.8;" x="378.605961" xlink:href="#m1359784e27" y="307.584"/>
      </g>
     </g>
     <g id="text_8">
      <!-- 8.0 ms -->
      <defs>
       <path d="M 31.78125 34.625 
Q 24.75 34.625 20.71875 30.859375 
Q 16.703125 27.09375 16.703125 20.515625 
Q 16.703125 13.921875 20.71875 10.15625 
Q 24.75 6.390625 31.78125 6.390625 
Q 38.8125 6.390625 42.859375 10.171875 
Q 46.921875 13.96875 46.921875 20.515625 
Q 46.921875 27.09375 42.890625 30.859375 
Q 38.875 34.625 31.78125 34.625 
z
M 21.921875 38.8125 
Q 15.578125 40.375 12.03125 44.71875 
Q 8.5 49.078125 8.5 55.328125 
Q 8.5 64.0625 14.71875 69.140625 
Q 20.953125 74.21875 31.78125 74.21875 
Q 42.671875 74.21875 48.875 69.140625 
Q 55.078125 64.0625 55.078125 55.328125 
Q 55.078125 49.078125 51.53125 44.71875 
Q 48 40.375 41.703125 38.8125 
Q 48.828125 37.15625 52.796875 32.3125 
Q 56.78125 27.484375 56.78125 20.515625 
Q 56.78125 9.90625 50.3125 4.234375 
Q 43.84375 -1.421875 31.78125 -1.421875 
Q 19.734375 -1.421875 13.25 4.234375 
Q 6.78125 9.90625 6.78125 20.515625 
Q 6.78125 27.484375 10.78125 32.3125 
Q 14.796875 37.15625 21.921875 38.8125 
z
M 18.3125 54.390625 
Q 18.3125 48.734375 21.84375 45.5625 
Q 25.390625 42.390625 31.78125 42.390625 
Q 38.140625 42.390625 41.71875 45.5625 
Q 45.3125 48.734375 45.3125 54.390625 
Q 45.3125 60.0625 41.71875 63.234375 
Q 38.140625 66.40625 31.78125 66.40625 
Q 25.390625 66.40625 21.84375 63.234375 
Q 18.3125 60.0625 18.3125 54.390625 
z
" id="DejaVuSans-56"/>
      </defs>
      <g transform="translate(375.394723 321.470523)rotate(-335)scale(0.1 -0.1)">
       <use xlink:href="#DejaVuSans-56"/>
       <use x="63.623047" xlink:href="#DejaVuSans-46"/>
       <use x="95.410156" xlink:href="#DejaVuSans-48"/>
       <use x="159.033203" xlink:href="#DejaVuSans-32"/>
       <use x="190.820312" xlink:href="#DejaVuSans-109"/>
       <use x="288.232422" xlink:href="#DejaVuSans-115"/>
      </g>
     </g>
    </g>
   </g>
   <g id="matplotlib.axis_2">
    <g id="ytick_1">
     <g id="line2d_9">
      <defs>
       <path d="M 0 0 
L -3.5 0 
" id="m700b60c3a6" style="stroke:#000000;stroke-width:0.8;"/>
      </defs>
      <g>
       <use style="stroke:#000000;stroke-width:0.8;" x="57.6" xlink:href="#m700b60c3a6" y="307.584"/>
      </g>
     </g>
     <g id="text_9">
      <!-- 0 -->
      <g transform="translate(44.2375 311.383219)scale(0.1 -0.1)">
       <use xlink:href="#DejaVuSans-48"/>
      </g>
     </g>
    </g>
    <g id="ytick_2">
     <g id="line2d_10">
      <g>
       <use style="stroke:#000000;stroke-width:0.8;" x="57.6" xlink:href="#m700b60c3a6" y="271.346189"/>
      </g>
     </g>
     <g id="text_10">
      <!-- 5000 -->
      <g transform="translate(25.15 275.145408)scale(0.1 -0.1)">
       <use xlink:href="#DejaVuSans-53"/>
       <use x="63.623047" xlink:href="#DejaVuSans-48"/>
       <use x="127.246094" xlink:href="#DejaVuSans-48"/>
       <use x="190.869141" xlink:href="#DejaVuSans-48"/>
      </g>
     </g>
    </g>
    <g id="ytick_3">
     <g id="line2d_11">
      <g>
       <use style="stroke:#000000;stroke-width:0.8;" x="57.6" xlink:href="#m700b60c3a6" y="235.108379"/>
      </g>
     </g>
     <g id="text_11">
      <!-- 10000 -->
      <g transform="translate(18.7875 238.907597)scale(0.1 -0.1)">
       <use xlink:href="#DejaVuSans-49"/>
       <use x="63.623047" xlink:href="#DejaVuSans-48"/>
       <use x="127.246094" xlink:href="#DejaVuSans-48"/>
       <use x="190.869141" xlink:href="#DejaVuSans-48"/>
       <use x="254.492188" xlink:href="#DejaVuSans-48"/>
      </g>
     </g>
    </g>
    <g id="ytick_4">
     <g id="line2d_12">
      <g>
       <use style="stroke:#000000;stroke-width:0.8;" x="57.6" xlink:href="#m700b60c3a6" y="198.870568"/>
      </g>
     </g>
     <g id="text_12">
      <!-- 15000 -->
      <g transform="translate(18.7875 202.669787)scale(0.1 -0.1)">
       <use xlink:href="#DejaVuSans-49"/>
       <use x="63.623047" xlink:href="#DejaVuSans-53"/>
       <use x="127.246094" xlink:href="#DejaVuSans-48"/>
       <use x="190.869141" xlink:href="#DejaVuSans-48"/>
       <use x="254.492188" xlink:href="#DejaVuSans-48"/>
      </g>
     </g>
    </g>
    <g id="ytick_5">
     <g id="line2d_13">
      <g>
       <use style="stroke:#000000;stroke-width:0.8;" x="57.6" xlink:href="#m700b60c3a6" y="162.632757"/>
      </g>
     </g>
     <g id="text_13">
      <!-- 20000 -->
      <g transform="translate(18.7875 166.431976)scale(0.1 -0.1)">
       <use xlink:href="#DejaVuSans-50"/>
       <use x="63.623047" xlink:href="#DejaVuSans-48"/>
       <use x="127.246094" xlink:href="#DejaVuSans-48"/>
       <use x="190.869141" xlink:href="#DejaVuSans-48"/>
       <use x="254.492188" xlink:href="#DejaVuSans-48"/>
      </g>
     </g>
    </g>
    <g id="ytick_6">
     <g id="line2d_14">
      <g>
       <use style="stroke:#000000;stroke-width:0.8;" x="57.6" xlink:href="#m700b60c3a6" y="126.394947"/>
      </g>
     </g>
     <g id="text_14">
      <!-- 25000 -->
      <g transform="translate(18.7875 130.194166)scale(0.1 -0.1)">
       <use xlink:href="#DejaVuSans-50"/>
       <use x="63.623047" xlink:href="#DejaVuSans-53"/>
       <use x="127.246094" xlink:href="#DejaVuSans-48"/>
       <use x="190.869141" xlink:href="#DejaVuSans-48"/>
       <use x="254.492188" xlink:href="#DejaVuSans-48"/>
      </g>
     </g>
    </g>
    <g id="ytick_7">
     <g id="line2d_15">
      <g>
       <use style="stroke:#000000;stroke-width:0.8;" x="57.6" xlink:href="#m700b60c3a6" y="90.157136"/>
      </g>
     </g>
     <g id="text_15">
      <!-- 30000 -->
      <g transform="translate(18.7875 93.956355)scale(0.1 -0.1)">
       <use xlink:href="#DejaVuSans-51"/>
       <use x="63.623047" xlink:href="#DejaVuSans-48"/>
       <use x="127.246094" xlink:href="#DejaVuSans-48"/>
       <use x="190.869141" xlink:href="#DejaVuSans-48"/>
       <use x="254.492188" xlink:href="#DejaVuSans-48"/>
      </g>
     </g>
    </g>
    <g id="ytick_8">
     <g id="line2d_16">
      <g>
       <use style="stroke:#000000;stroke-width:0.8;" x="57.6" xlink:href="#m700b60c3a6" y="53.919326"/>
      </g>
     </g>
     <g id="text_16">
      <!-- 35000 -->
      <g transform="translate(18.7875 57.718544)scale(0.1 -0.1)">
       <use xlink:href="#DejaVuSans-51"/>
       <use x="63.623047" xlink:href="#DejaVuSans-53"/>
       <use x="127.246094" xlink:href="#DejaVuSans-48"/>
       <use x="190.869141" xlink:href="#DejaVuSans-48"/>
       <use x="254.492188" xlink:href="#DejaVuSans-48"/>
      </g>
     </g>
    </g>
    <g id="text_17">
     <!-- Number of samples -->
     <defs>
      <path d="M 9.8125 72.90625 
L 23.09375 72.90625 
L 55.421875 11.921875 
L 55.421875 72.90625 
L 64.984375 72.90625 
L 64.984375 0 
L 51.703125 0 
L 19.390625 60.984375 
L 19.390625 0 
L 9.8125 0 
z
" id="DejaVuSans-78"/>
      <path d="M 8.5 21.578125 
L 8.5 54.6875 
L 17.484375 54.6875 
L 17.484375 21.921875 
Q 17.484375 14.15625 20.5 10.265625 
Q 23.53125 6.390625 29.59375 6.390625 
Q 36.859375 6.390625 41.078125 11.03125 
Q 45.3125 15.671875 45.3125 23.6875 
L 45.3125 54.6875 
L 54.296875 54.6875 
L 54.296875 0 
L 45.3125 0 
L 45.3125 8.40625 
Q 42.046875 3.421875 37.71875 1 
Q 33.40625 -1.421875 27.6875 -1.421875 
Q 18.265625 -1.421875 13.375 4.4375 
Q 8.5 10.296875 8.5 21.578125 
z
M 31.109375 56 
z
" id="DejaVuSans-117"/>
      <path d="M 48.6875 27.296875 
Q 48.6875 37.203125 44.609375 42.84375 
Q 40.53125 48.484375 33.40625 48.484375 
Q 26.265625 48.484375 22.1875 42.84375 
Q 18.109375 37.203125 18.109375 27.296875 
Q 18.109375 17.390625 22.1875 11.75 
Q 26.265625 6.109375 33.40625 6.109375 
Q 40.53125 6.109375 44.609375 11.75 
Q 48.6875 17.390625 48.6875 27.296875 
z
M 18.109375 46.390625 
Q 20.953125 51.265625 25.265625 53.625 
Q 29.59375 56 35.59375 56 
Q 45.5625 56 51.78125 48.09375 
Q 58.015625 40.1875 58.015625 27.296875 
Q 58.015625 14.40625 51.78125 6.484375 
Q 45.5625 -1.421875 35.59375 -1.421875 
Q 29.59375 -1.421875 25.265625 0.953125 
Q 20.953125 3.328125 18.109375 8.203125 
L 18.109375 0 
L 9.078125 0 
L 9.078125 75.984375 
L 18.109375 75.984375 
z
" id="DejaVuSans-98"/>
      <path d="M 56.203125 29.59375 
L 56.203125 25.203125 
L 14.890625 25.203125 
Q 15.484375 15.921875 20.484375 11.0625 
Q 25.484375 6.203125 34.421875 6.203125 
Q 39.59375 6.203125 44.453125 7.46875 
Q 49.3125 8.734375 54.109375 11.28125 
L 54.109375 2.78125 
Q 49.265625 0.734375 44.1875 -0.34375 
Q 39.109375 -1.421875 33.890625 -1.421875 
Q 20.796875 -1.421875 13.15625 6.1875 
Q 5.515625 13.8125 5.515625 26.8125 
Q 5.515625 40.234375 12.765625 48.109375 
Q 20.015625 56 32.328125 56 
Q 43.359375 56 49.78125 48.890625 
Q 56.203125 41.796875 56.203125 29.59375 
z
M 47.21875 32.234375 
Q 47.125 39.59375 43.09375 43.984375 
Q 39.0625 48.390625 32.421875 48.390625 
Q 24.90625 48.390625 20.390625 44.140625 
Q 15.875 39.890625 15.1875 32.171875 
z
" id="DejaVuSans-101"/>
      <path d="M 41.109375 46.296875 
Q 39.59375 47.171875 37.8125 47.578125 
Q 36.03125 48 33.890625 48 
Q 26.265625 48 22.1875 43.046875 
Q 18.109375 38.09375 18.109375 28.8125 
L 18.109375 0 
L 9.078125 0 
L 9.078125 54.6875 
L 18.109375 54.6875 
L 18.109375 46.1875 
Q 20.953125 51.171875 25.484375 53.578125 
Q 30.03125 56 36.53125 56 
Q 37.453125 56 38.578125 55.875 
Q 39.703125 55.765625 41.0625 55.515625 
z
" id="DejaVuSans-114"/>
      <path d="M 30.609375 48.390625 
Q 23.390625 48.390625 19.1875 42.75 
Q 14.984375 37.109375 14.984375 27.296875 
Q 14.984375 17.484375 19.15625 11.84375 
Q 23.34375 6.203125 30.609375 6.203125 
Q 37.796875 6.203125 41.984375 11.859375 
Q 46.1875 17.53125 46.1875 27.296875 
Q 46.1875 37.015625 41.984375 42.703125 
Q 37.796875 48.390625 30.609375 48.390625 
z
M 30.609375 56 
Q 42.328125 56 49.015625 48.375 
Q 55.71875 40.765625 55.71875 27.296875 
Q 55.71875 13.875 49.015625 6.21875 
Q 42.328125 -1.421875 30.609375 -1.421875 
Q 18.84375 -1.421875 12.171875 6.21875 
Q 5.515625 13.875 5.515625 27.296875 
Q 5.515625 40.765625 12.171875 48.375 
Q 18.84375 56 30.609375 56 
z
" id="DejaVuSans-111"/>
      <path d="M 37.109375 75.984375 
L 37.109375 68.5 
L 28.515625 68.5 
Q 23.6875 68.5 21.796875 66.546875 
Q 19.921875 64.59375 19.921875 59.515625 
L 19.921875 54.6875 
L 34.71875 54.6875 
L 34.71875 47.703125 
L 19.921875 47.703125 
L 19.921875 0 
L 10.890625 0 
L 10.890625 47.703125 
L 2.296875 47.703125 
L 2.296875 54.6875 
L 10.890625 54.6875 
L 10.890625 58.5 
Q 10.890625 67.625 15.140625 71.796875 
Q 19.390625 75.984375 28.609375 75.984375 
z
" id="DejaVuSans-102"/>
      <path d="M 34.28125 27.484375 
Q 23.390625 27.484375 19.1875 25 
Q 14.984375 22.515625 14.984375 16.5 
Q 14.984375 11.71875 18.140625 8.90625 
Q 21.296875 6.109375 26.703125 6.109375 
Q 34.1875 6.109375 38.703125 11.40625 
Q 43.21875 16.703125 43.21875 25.484375 
L 43.21875 27.484375 
z
M 52.203125 31.203125 
L 52.203125 0 
L 43.21875 0 
L 43.21875 8.296875 
Q 40.140625 3.328125 35.546875 0.953125 
Q 30.953125 -1.421875 24.3125 -1.421875 
Q 15.921875 -1.421875 10.953125 3.296875 
Q 6 8.015625 6 15.921875 
Q 6 25.140625 12.171875 29.828125 
Q 18.359375 34.515625 30.609375 34.515625 
L 43.21875 34.515625 
L 43.21875 35.40625 
Q 43.21875 41.609375 39.140625 45 
Q 35.0625 48.390625 27.6875 48.390625 
Q 23 48.390625 18.546875 47.265625 
Q 14.109375 46.140625 10.015625 43.890625 
L 10.015625 52.203125 
Q 14.9375 54.109375 19.578125 55.046875 
Q 24.21875 56 28.609375 56 
Q 40.484375 56 46.34375 49.84375 
Q 52.203125 43.703125 52.203125 31.203125 
z
" id="DejaVuSans-97"/>
      <path d="M 18.109375 8.203125 
L 18.109375 -20.796875 
L 9.078125 -20.796875 
L 9.078125 54.6875 
L 18.109375 54.6875 
L 18.109375 46.390625 
Q 20.953125 51.265625 25.265625 53.625 
Q 29.59375 56 35.59375 56 
Q 45.5625 56 51.78125 48.09375 
Q 58.015625 40.1875 58.015625 27.296875 
Q 58.015625 14.40625 51.78125 6.484375 
Q 45.5625 -1.421875 35.59375 -1.421875 
Q 29.59375 -1.421875 25.265625 0.953125 
Q 20.953125 3.328125 18.109375 8.203125 
z
M 48.6875 27.296875 
Q 48.6875 37.203125 44.609375 42.84375 
Q 40.53125 48.484375 33.40625 48.484375 
Q 26.265625 48.484375 22.1875 42.84375 
Q 18.109375 37.203125 18.109375 27.296875 
Q 18.109375 17.390625 22.1875 11.75 
Q 26.265625 6.109375 33.40625 6.109375 
Q 40.53125 6.109375 44.609375 11.75 
Q 48.6875 17.390625 48.6875 27.296875 
z
" id="DejaVuSans-112"/>
      <path d="M 9.421875 75.984375 
L 18.40625 75.984375 
L 18.40625 0 
L 9.421875 0 
z
" id="DejaVuSans-108"/>
     </defs>
     <g transform="translate(12.707812 223.395187)rotate(-90)scale(0.1 -0.1)">
      <use xlink:href="#DejaVuSans-78"/>
      <use x="74.804688" xlink:href="#DejaVuSans-117"/>
      <use x="138.183594" xlink:href="#DejaVuSans-109"/>
      <use x="235.595703" xlink:href="#DejaVuSans-98"/>
      <use x="299.072266" xlink:href="#DejaVuSans-101"/>
      <use x="360.595703" xlink:href="#DejaVuSans-114"/>
      <use x="401.708984" xlink:href="#DejaVuSans-32"/>
      <use x="433.496094" xlink:href="#DejaVuSans-111"/>
      <use x="494.677734" xlink:href="#DejaVuSans-102"/>
      <use x="529.882812" xlink:href="#DejaVuSans-32"/>
      <use x="561.669922" xlink:href="#DejaVuSans-115"/>
      <use x="613.769531" xlink:href="#DejaVuSans-97"/>
      <use x="675.048828" xlink:href="#DejaVuSans-109"/>
      <use x="772.460938" xlink:href="#DejaVuSans-112"/>
      <use x="835.9375" xlink:href="#DejaVuSans-108"/>
      <use x="863.720703" xlink:href="#DejaVuSans-101"/>
      <use x="925.244141" xlink:href="#DejaVuSans-115"/>
     </g>
    </g>
   </g>
   <g id="line2d_17">
    <path clip-path="url(#p7d1a38bcce)" d="M 202.739484 307.584 
L 202.739484 41.472 
" style="fill:none;stroke:#fe6f5e;stroke-dasharray:5.55,2.4;stroke-dashoffset:0;stroke-width:1.5;"/>
   </g>
   <g id="line2d_18">
    <path clip-path="url(#p7d1a38bcce)" d="M 202.365984 307.584 
L 202.365984 41.472 
" style="fill:none;stroke:#5e9dfe;stroke-dasharray:5.55,2.4;stroke-dashoffset:0;stroke-width:1.5;"/>
   </g>
   <g id="line2d_19">
    <path clip-path="url(#p7d1a38bcce)" d="M 201.93184 307.584 
L 201.93184 41.472 
" style="fill:none;stroke:#5eedfe;stroke-dasharray:5.55,2.4;stroke-dashoffset:0;stroke-width:1.5;"/>
   </g>
   <g id="patch_303">
    <path d="M 57.6 307.584 
L 57.6 41.472 
" style="fill:none;stroke:#000000;stroke-linecap:square;stroke-linejoin:miter;stroke-width:0.8;"/>
   </g>
   <g id="patch_304">
    <path d="M 414.72 307.584 
L 414.72 41.472 
" style="fill:none;stroke:#000000;stroke-linecap:square;stroke-linejoin:miter;stroke-width:0.8;"/>
   </g>
   <g id="patch_305">
    <path d="M 57.6 307.584 
L 414.72 307.584 
" style="fill:none;stroke:#000000;stroke-linecap:square;stroke-linejoin:miter;stroke-width:0.8;"/>
   </g>
   <g id="patch_306">
    <path d="M 57.6 41.472 
L 414.72 41.472 
" style="fill:none;stroke:#000000;stroke-linecap:square;stroke-linejoin:miter;stroke-width:0.8;"/>
   </g>
   <g id="text_18">
    <!-- wait samples -->
    <defs>
     <path d="M 4.203125 54.6875 
L 13.1875 54.6875 
L 24.421875 12.015625 
L 35.59375 54.6875 
L 46.1875 54.6875 
L 57.421875 12.015625 
L 68.609375 54.6875 
L 77.59375 54.6875 
L 63.28125 0 
L 52.6875 0 
L 40.921875 44.828125 
L 29.109375 0 
L 18.5 0 
z
" id="DejaVuSans-119"/>
     <path d="M 9.421875 54.6875 
L 18.40625 54.6875 
L 18.40625 0 
L 9.421875 0 
z
M 9.421875 75.984375 
L 18.40625 75.984375 
L 18.40625 64.59375 
L 9.421875 64.59375 
z
" id="DejaVuSans-105"/>
     <path d="M 18.3125 70.21875 
L 18.3125 54.6875 
L 36.8125 54.6875 
L 36.8125 47.703125 
L 18.3125 47.703125 
L 18.3125 18.015625 
Q 18.3125 11.328125 20.140625 9.421875 
Q 21.96875 7.515625 27.59375 7.515625 
L 36.8125 7.515625 
L 36.8125 0 
L 27.59375 0 
Q 17.1875 0 13.234375 3.875 
Q 9.28125 7.765625 9.28125 18.015625 
L 9.28125 47.703125 
L 2.6875 47.703125 
L 2.6875 54.6875 
L 9.28125 54.6875 
L 9.28125 70.21875 
z
" id="DejaVuSans-116"/>
    </defs>
    <g transform="translate(196.71 35.472)scale(0.12 -0.12)">
     <use xlink:href="#DejaVuSans-119"/>
     <use x="81.787109" xlink:href="#DejaVuSans-97"/>
     <use x="143.066406" xlink:href="#DejaVuSans-105"/>
     <use x="170.849609" xlink:href="#DejaVuSans-116"/>
     <use x="210.058594" xlink:href="#DejaVuSans-32"/>
     <use x="241.845703" xlink:href="#DejaVuSans-115"/>
     <use x="293.945312" xlink:href="#DejaVuSans-97"/>
     <use x="355.224609" xlink:href="#DejaVuSans-109"/>
     <use x="452.636719" xlink:href="#DejaVuSans-112"/>
     <use x="516.113281" xlink:href="#DejaVuSans-108"/>
     <use x="543.896484" xlink:href="#DejaVuSans-101"/>
     <use x="605.419922" xlink:href="#DejaVuSans-115"/>
    </g>
   </g>
   <g id="legend_1">
    <g id="patch_307">
     <path d="M 344.146563 94.062625 
L 407.72 94.062625 
Q 409.72 94.062625 409.72 92.062625 
L 409.72 48.472 
Q 409.72 46.472 407.72 46.472 
L 344.146563 46.472 
Q 342.146563 46.472 342.146563 48.472 
L 342.146563 92.062625 
Q 342.146563 94.062625 344.146563 94.062625 
z
" style="fill:#ffffff;opacity:0.8;stroke:#cccccc;stroke-linejoin:miter;"/>
    </g>
    <g id="patch_308">
     <path d="M 346.146563 58.070437 
L 366.146563 58.070437 
L 366.146563 51.070437 
L 346.146563 51.070437 
z
" style="fill:#fe6f5e;fill-opacity:0.815686;"/>
    </g>
    <g id="text_19">
     <!-- ash -->
     <defs>
      <path d="M 54.890625 33.015625 
L 54.890625 0 
L 45.90625 0 
L 45.90625 32.71875 
Q 45.90625 40.484375 42.875 44.328125 
Q 39.84375 48.1875 33.796875 48.1875 
Q 26.515625 48.1875 22.3125 43.546875 
Q 18.109375 38.921875 18.109375 30.90625 
L 18.109375 0 
L 9.078125 0 
L 9.078125 75.984375 
L 18.109375 75.984375 
L 18.109375 46.1875 
Q 21.34375 51.125 25.703125 53.5625 
Q 30.078125 56 35.796875 56 
Q 45.21875 56 50.046875 50.171875 
Q 54.890625 44.34375 54.890625 33.015625 
z
" id="DejaVuSans-104"/>
     </defs>
     <g transform="translate(374.146563 58.070437)scale(0.1 -0.1)">
      <use xlink:href="#DejaVuSans-97"/>
      <use x="61.279297" xlink:href="#DejaVuSans-115"/>
      <use x="113.378906" xlink:href="#DejaVuSans-104"/>
     </g>
    </g>
    <g id="patch_309">
     <path d="M 346.146563 72.748562 
L 366.146563 72.748562 
L 366.146563 65.748562 
L 346.146563 65.748562 
z
" style="fill:#5e9dfe;fill-opacity:0.815686;"/>
    </g>
    <g id="text_20">
     <!-- vy_ST -->
     <defs>
      <path d="M 2.984375 54.6875 
L 12.5 54.6875 
L 29.59375 8.796875 
L 46.6875 54.6875 
L 56.203125 54.6875 
L 35.6875 0 
L 23.484375 0 
z
" id="DejaVuSans-118"/>
      <path d="M 32.171875 -5.078125 
Q 28.375 -14.84375 24.75 -17.8125 
Q 21.140625 -20.796875 15.09375 -20.796875 
L 7.90625 -20.796875 
L 7.90625 -13.28125 
L 13.1875 -13.28125 
Q 16.890625 -13.28125 18.9375 -11.515625 
Q 21 -9.765625 23.484375 -3.21875 
L 25.09375 0.875 
L 2.984375 54.6875 
L 12.5 54.6875 
L 29.59375 11.921875 
L 46.6875 54.6875 
L 56.203125 54.6875 
z
" id="DejaVuSans-121"/>
      <path d="M 50.984375 -16.609375 
L 50.984375 -23.578125 
L -0.984375 -23.578125 
L -0.984375 -16.609375 
z
" id="DejaVuSans-95"/>
      <path d="M 53.515625 70.515625 
L 53.515625 60.890625 
Q 47.90625 63.578125 42.921875 64.890625 
Q 37.9375 66.21875 33.296875 66.21875 
Q 25.25 66.21875 20.875 63.09375 
Q 16.5 59.96875 16.5 54.203125 
Q 16.5 49.359375 19.40625 46.890625 
Q 22.3125 44.4375 30.421875 42.921875 
L 36.375 41.703125 
Q 47.40625 39.59375 52.65625 34.296875 
Q 57.90625 29 57.90625 20.125 
Q 57.90625 9.515625 50.796875 4.046875 
Q 43.703125 -1.421875 29.984375 -1.421875 
Q 24.8125 -1.421875 18.96875 -0.25 
Q 13.140625 0.921875 6.890625 3.21875 
L 6.890625 13.375 
Q 12.890625 10.015625 18.65625 8.296875 
Q 24.421875 6.59375 29.984375 6.59375 
Q 38.421875 6.59375 43.015625 9.90625 
Q 47.609375 13.234375 47.609375 19.390625 
Q 47.609375 24.75 44.3125 27.78125 
Q 41.015625 30.8125 33.5 32.328125 
L 27.484375 33.5 
Q 16.453125 35.6875 11.515625 40.375 
Q 6.59375 45.0625 6.59375 53.421875 
Q 6.59375 63.09375 13.40625 68.65625 
Q 20.21875 74.21875 32.171875 74.21875 
Q 37.3125 74.21875 42.625 73.28125 
Q 47.953125 72.359375 53.515625 70.515625 
z
" id="DejaVuSans-83"/>
      <path d="M -0.296875 72.90625 
L 61.375 72.90625 
L 61.375 64.59375 
L 35.5 64.59375 
L 35.5 0 
L 25.59375 0 
L 25.59375 64.59375 
L -0.296875 64.59375 
z
" id="DejaVuSans-84"/>
     </defs>
     <g transform="translate(374.146563 72.748562)scale(0.1 -0.1)">
      <use xlink:href="#DejaVuSans-118"/>
      <use x="59.179688" xlink:href="#DejaVuSans-121"/>
      <use x="118.359375" xlink:href="#DejaVuSans-95"/>
      <use x="168.359375" xlink:href="#DejaVuSans-83"/>
      <use x="231.835938" xlink:href="#DejaVuSans-84"/>
     </g>
    </g>
    <g id="patch_310">
     <path d="M 346.146563 87.704812 
L 366.146563 87.704812 
L 366.146563 80.704812 
L 346.146563 80.704812 
z
" style="fill:#5eedfe;fill-opacity:0.815686;"/>
    </g>
    <g id="text_21">
     <!-- vy_MT -->
     <defs>
      <path d="M 9.8125 72.90625 
L 24.515625 72.90625 
L 43.109375 23.296875 
L 61.8125 72.90625 
L 76.515625 72.90625 
L 76.515625 0 
L 66.890625 0 
L 66.890625 64.015625 
L 48.09375 14.015625 
L 38.1875 14.015625 
L 19.390625 64.015625 
L 19.390625 0 
L 9.8125 0 
z
" id="DejaVuSans-77"/>
     </defs>
     <g transform="translate(374.146563 87.704812)scale(0.1 -0.1)">
      <use xlink:href="#DejaVuSans-118"/>
      <use x="59.179688" xlink:href="#DejaVuSans-121"/>
      <use x="118.359375" xlink:href="#DejaVuSans-95"/>
      <use x="168.359375" xlink:href="#DejaVuSans-77"/>
      <use x="254.638672" xlink:href="#DejaVuSans-84"/>
     </g>
    </g>
   </g>
  </g>
 </g>
 <defs>
  <clipPath id="p7d1a38bcce">
   <rect height="266.112" width="357.12" x="57.6" y="41.472"/>
  </clipPath>
 </defs>
</svg>
