<?xml version="1.0" encoding="UTF-8" standalone="no"?><svg xmlns="http://www.w3.org/2000/svg" xmlns:xlink="http://www.w3.org/1999/xlink" contentScriptType="application/ecmascript" contentStyleType="text/css" height="649px" preserveAspectRatio="none" style="width:1048px;height:649px;" version="1.1" viewBox="0 0 1048 649" width="1048px" zoomAndPan="magnify"><defs><filter height="300%" id="f13w2kxebv8h8c" width="300%" x="-1" y="-1"><feGaussianBlur result="blurOut" stdDeviation="2.0"/><feColorMatrix in="blurOut" result="blurOut2" type="matrix" values="0 0 0 0 0 0 0 0 0 0 0 0 0 0 0 0 0 0 .4 0"/><feOffset dx="4.0" dy="4.0" in="blurOut2" result="blurOut3"/><feBlend in="SourceGraphic" in2="blurOut3" mode="normal"/></filter></defs><g><!--MD5=[77a0c14de6685fa065b9b4e019b7f347]
entity Instance--><rect fill="#66FF98" filter="url(#f13w2kxebv8h8c)" height="53.6" style="stroke: #333333; stroke-width: 1.0;" width="75" x="414.5" y="9.5"/><rect fill="#66FF98" height="5" style="stroke: #333333; stroke-width: 1.0;" width="10" x="409.5" y="14.5"/><rect fill="#66FF98" height="5" style="stroke: #333333; stroke-width: 1.0;" width="10" x="409.5" y="53.1"/><text fill="#000000" font-family="Fira Sans" font-size="14" font-style="italic" lengthAdjust="spacingAndGlyphs" textLength="36" x="434" y="32.59">«Vrc»</text><text fill="#000000" font-family="Fira Sans" font-size="14" lengthAdjust="spacingAndGlyphs" textLength="55" x="424.5" y="49.39">Instance</text><path d="M249,8 L249,64.8 A0,0 0 0 0 249,64.8 L379,64.8 A0,0 0 0 0 379,64.8 L379,40.5 L414.48,36.5 L379,32.5 L379,18 L369,8 L249,8 A0,0 0 0 0 249,8 " fill="#FBFB77" filter="url(#f13w2kxebv8h8c)" style="stroke: #A80036; stroke-width: 1.0;"/><path d="M369,8 L369,18 L379,18 L369,8 " fill="#FBFB77" style="stroke: #A80036; stroke-width: 1.0;"/><text fill="#66FF98" font-family="Fira Sans" font-size="13" lengthAdjust="spacingAndGlyphs" textLength="35" x="255" y="25.155">Green</text><text fill="#000000" font-family="Fira Sans" font-size="13" lengthAdjust="spacingAndGlyphs" textLength="41" x="293" y="25.155">= done</text><text fill="#66CDFF" font-family="Fira Sans" font-size="13" lengthAdjust="spacingAndGlyphs" textLength="27" x="255" y="40.755">Blue</text><text fill="#000000" font-family="Fira Sans" font-size="13" lengthAdjust="spacingAndGlyphs" textLength="79" x="285" y="40.755">= in-progress</text><text fill="#FF6680" font-family="Fira Sans" font-size="13" lengthAdjust="spacingAndGlyphs" textLength="23" x="255" y="56.355">Red</text><text fill="#000000" font-family="Fira Sans" font-size="13" lengthAdjust="spacingAndGlyphs" textLength="60" x="281" y="56.355">= planned</text><!--MD5=[8d6925f44e0e1541670b54b5f2c3eb41]
entity Window--><rect fill="#66FF98" filter="url(#f13w2kxebv8h8c)" height="36.8" style="stroke: #333333; stroke-width: 1.0;" width="70" x="96" y="18"/><rect fill="#66FF98" height="5" style="stroke: #333333; stroke-width: 1.0;" width="10" x="91" y="23"/><rect fill="#66FF98" height="5" style="stroke: #333333; stroke-width: 1.0;" width="10" x="91" y="44.8"/><text fill="#000000" font-family="Fira Sans" font-size="14" lengthAdjust="spacingAndGlyphs" textLength="50" x="106" y="41.09">Window</text><!--MD5=[5789a701af2564c361c8c4b0bb67bc5e]
entity PhysicalDevice--><rect fill="#66FF98" filter="url(#f13w2kxebv8h8c)" height="36.8" style="stroke: #333333; stroke-width: 1.0;" width="116" x="403" y="126"/><rect fill="#66FF98" height="5" style="stroke: #333333; stroke-width: 1.0;" width="10" x="398" y="131"/><rect fill="#66FF98" height="5" style="stroke: #333333; stroke-width: 1.0;" width="10" x="398" y="152.8"/><text fill="#000000" font-family="Fira Sans" font-size="14" lengthAdjust="spacingAndGlyphs" textLength="96" x="413" y="149.09">PhysicalDevice</text><!--MD5=[d5b65137a7b1bf40136b14d6cc3c273c]
entity Surface--><rect fill="#66FF98" filter="url(#f13w2kxebv8h8c)" height="36.8" style="stroke: #333333; stroke-width: 1.0;" width="69" x="96.5" y="126"/><rect fill="#66FF98" height="5" style="stroke: #333333; stroke-width: 1.0;" width="10" x="91.5" y="131"/><rect fill="#66FF98" height="5" style="stroke: #333333; stroke-width: 1.0;" width="10" x="91.5" y="152.8"/><text fill="#000000" font-family="Fira Sans" font-size="14" lengthAdjust="spacingAndGlyphs" textLength="49" x="106.5" y="149.09">Surface</text><!--MD5=[1481f43b514325438f831f19ea58e9e2]
entity Device--><rect fill="#66FF98" filter="url(#f13w2kxebv8h8c)" height="53.6" style="stroke: #333333; stroke-width: 1.0;" width="63" x="442.5" y="224"/><rect fill="#66FF98" height="5" style="stroke: #333333; stroke-width: 1.0;" width="10" x="437.5" y="229"/><rect fill="#66FF98" height="5" style="stroke: #333333; stroke-width: 1.0;" width="10" x="437.5" y="267.6"/><text fill="#000000" font-family="Fira Sans" font-size="14" font-style="italic" lengthAdjust="spacingAndGlyphs" textLength="36" x="456" y="247.09">«Vrc»</text><text fill="#000000" font-family="Fira Sans" font-size="14" lengthAdjust="spacingAndGlyphs" textLength="43" x="452.5" y="263.89">Device</text><!--MD5=[9762e67b79b719797c568dcdd43c32f7]
entity Queue--><rect fill="#66CDFF" filter="url(#f13w2kxebv8h8c)" height="53.6" style="stroke: #333333; stroke-width: 1.0;" width="62" x="541" y="224"/><rect fill="#66CDFF" height="5" style="stroke: #333333; stroke-width: 1.0;" width="10" x="536" y="229"/><rect fill="#66CDFF" height="5" style="stroke: #333333; stroke-width: 1.0;" width="10" x="536" y="267.6"/><text fill="#000000" font-family="Fira Sans" font-size="14" font-style="italic" lengthAdjust="spacingAndGlyphs" textLength="36" x="554" y="247.09">«Vrc»</text><text fill="#000000" font-family="Fira Sans" font-size="14" lengthAdjust="spacingAndGlyphs" textLength="42" x="551" y="263.89">Queue</text><!--MD5=[7a22288d6da5f69922be8ffcf0fcbe4e]
entity Swapchain--><rect fill="#66CDFF" filter="url(#f13w2kxebv8h8c)" height="53.6" style="stroke: #333333; stroke-width: 1.0;" width="89" x="60.5" y="339"/><rect fill="#66CDFF" height="5" style="stroke: #333333; stroke-width: 1.0;" width="10" x="55.5" y="344"/><rect fill="#66CDFF" height="5" style="stroke: #333333; stroke-width: 1.0;" width="10" x="55.5" y="382.6"/><text fill="#000000" font-family="Fira Sans" font-size="14" font-style="italic" lengthAdjust="spacingAndGlyphs" textLength="36" x="87" y="362.09">«Vrc»</text><text fill="#000000" font-family="Fira Sans" font-size="14" lengthAdjust="spacingAndGlyphs" textLength="69" x="70.5" y="378.89">Swapchain</text><!--MD5=[53b911199a3644c85b37bbf4df7dfa26]
entity SwapchainImage--><rect fill="#66CDFF" filter="url(#f13w2kxebv8h8c)" height="53.6" style="stroke: #333333; stroke-width: 1.0;" width="128" x="6" y="470"/><rect fill="#66CDFF" height="5" style="stroke: #333333; stroke-width: 1.0;" width="10" x="1" y="475"/><rect fill="#66CDFF" height="5" style="stroke: #333333; stroke-width: 1.0;" width="10" x="1" y="513.6"/><text fill="#000000" font-family="Fira Sans" font-size="14" font-style="italic" lengthAdjust="spacingAndGlyphs" textLength="36" x="52" y="493.09">«Vrc»</text><text fill="#000000" font-family="Fira Sans" font-size="14" lengthAdjust="spacingAndGlyphs" textLength="108" x="16" y="509.89">SwapchainImage</text><!--MD5=[f474ca078bd78d29e43d9c9138696efb]
entity Image--><rect fill="#66CDFF" filter="url(#f13w2kxebv8h8c)" height="53.6" style="stroke: #333333; stroke-width: 1.0;" width="59" x="184.5" y="339"/><rect fill="#66CDFF" height="5" style="stroke: #333333; stroke-width: 1.0;" width="10" x="179.5" y="344"/><rect fill="#66CDFF" height="5" style="stroke: #333333; stroke-width: 1.0;" width="10" x="179.5" y="382.6"/><text fill="#000000" font-family="Fira Sans" font-size="14" font-style="italic" lengthAdjust="spacingAndGlyphs" textLength="36" x="196" y="362.09">«Vrc»</text><text fill="#000000" font-family="Fira Sans" font-size="14" lengthAdjust="spacingAndGlyphs" textLength="39" x="194.5" y="378.89">Image</text><!--MD5=[ff74cdb9d7cee1f338d42fda4bfd5a89]
entity Buffer--><rect fill="#FF6680" filter="url(#f13w2kxebv8h8c)" height="53.6" style="stroke: #333333; stroke-width: 1.0;" width="60" x="962" y="339"/><rect fill="#FF6680" height="5" style="stroke: #333333; stroke-width: 1.0;" width="10" x="957" y="344"/><rect fill="#FF6680" height="5" style="stroke: #333333; stroke-width: 1.0;" width="10" x="957" y="382.6"/><text fill="#000000" font-family="Fira Sans" font-size="14" font-style="italic" lengthAdjust="spacingAndGlyphs" textLength="36" x="974" y="362.09">«Vrc»</text><text fill="#000000" font-family="Fira Sans" font-size="14" lengthAdjust="spacingAndGlyphs" textLength="40" x="972" y="378.89">Buffer</text><!--MD5=[1d6feb955f00a8743cca3180655ae592]
entity ImageView--><rect fill="#FF6680" filter="url(#f13w2kxebv8h8c)" height="53.6" style="stroke: #333333; stroke-width: 1.0;" width="89" x="169.5" y="470"/><rect fill="#FF6680" height="5" style="stroke: #333333; stroke-width: 1.0;" width="10" x="164.5" y="475"/><rect fill="#FF6680" height="5" style="stroke: #333333; stroke-width: 1.0;" width="10" x="164.5" y="513.6"/><text fill="#000000" font-family="Fira Sans" font-size="14" font-style="italic" lengthAdjust="spacingAndGlyphs" textLength="36" x="196" y="493.09">«Vrc»</text><text fill="#000000" font-family="Fira Sans" font-size="14" lengthAdjust="spacingAndGlyphs" textLength="69" x="179.5" y="509.89">ImageView</text><!--MD5=[dfc4c350ab723b9a18f1debdf57a4051]
entity BufferView--><rect fill="#FF6680" filter="url(#f13w2kxebv8h8c)" height="53.6" style="stroke: #333333; stroke-width: 1.0;" width="90" x="947" y="470"/><rect fill="#FF6680" height="5" style="stroke: #333333; stroke-width: 1.0;" width="10" x="942" y="475"/><rect fill="#FF6680" height="5" style="stroke: #333333; stroke-width: 1.0;" width="10" x="942" y="513.6"/><text fill="#000000" font-family="Fira Sans" font-size="14" font-style="italic" lengthAdjust="spacingAndGlyphs" textLength="36" x="974" y="493.09">«Vrc»</text><text fill="#000000" font-family="Fira Sans" font-size="14" lengthAdjust="spacingAndGlyphs" textLength="70" x="957" y="509.89">BufferView</text><!--MD5=[94b42f345d8efb9f3882644b7664390d]
entity CommandPool--><rect fill="#FF6680" filter="url(#f13w2kxebv8h8c)" height="53.6" style="stroke: #333333; stroke-width: 1.0;" width="112" x="279" y="339"/><rect fill="#FF6680" height="5" style="stroke: #333333; stroke-width: 1.0;" width="10" x="274" y="344"/><rect fill="#FF6680" height="5" style="stroke: #333333; stroke-width: 1.0;" width="10" x="274" y="382.6"/><text fill="#000000" font-family="Fira Sans" font-size="14" font-style="italic" lengthAdjust="spacingAndGlyphs" textLength="36" x="317" y="362.09">«Vrc»</text><text fill="#000000" font-family="Fira Sans" font-size="14" lengthAdjust="spacingAndGlyphs" textLength="92" x="289" y="378.89">CommandPool</text><!--MD5=[ac29b704edc6d673d29ab010a0a75737]
entity CommandBuffer--><rect fill="#FF6680" filter="url(#f13w2kxebv8h8c)" height="53.6" style="stroke: #333333; stroke-width: 1.0;" width="124" x="294" y="470"/><rect fill="#FF6680" height="5" style="stroke: #333333; stroke-width: 1.0;" width="10" x="289" y="475"/><rect fill="#FF6680" height="5" style="stroke: #333333; stroke-width: 1.0;" width="10" x="289" y="513.6"/><text fill="#000000" font-family="Fira Sans" font-size="14" font-style="italic" lengthAdjust="spacingAndGlyphs" textLength="36" x="338" y="493.09">«Vrc»</text><text fill="#000000" font-family="Fira Sans" font-size="14" lengthAdjust="spacingAndGlyphs" textLength="104" x="304" y="509.89">CommandBuffer</text><!--MD5=[aaa86911056d77c0094bc9419cc48a1e]
entity RenderPass--><rect fill="#FF6680" filter="url(#f13w2kxebv8h8c)" height="53.6" style="stroke: #333333; stroke-width: 1.0;" width="95" x="426.5" y="339"/><rect fill="#FF6680" height="5" style="stroke: #333333; stroke-width: 1.0;" width="10" x="421.5" y="344"/><rect fill="#FF6680" height="5" style="stroke: #333333; stroke-width: 1.0;" width="10" x="421.5" y="382.6"/><text fill="#000000" font-family="Fira Sans" font-size="14" font-style="italic" lengthAdjust="spacingAndGlyphs" textLength="36" x="456" y="362.09">«Vrc»</text><text fill="#000000" font-family="Fira Sans" font-size="14" lengthAdjust="spacingAndGlyphs" textLength="75" x="436.5" y="378.89">RenderPass</text><!--MD5=[90701dc8c13adb3d9edc282c27eb9529]
entity FrameBuffer--><rect fill="#FF6680" filter="url(#f13w2kxebv8h8c)" height="53.6" style="stroke: #333333; stroke-width: 1.0;" width="100" x="453" y="470"/><rect fill="#FF6680" height="5" style="stroke: #333333; stroke-width: 1.0;" width="10" x="448" y="475"/><rect fill="#FF6680" height="5" style="stroke: #333333; stroke-width: 1.0;" width="10" x="448" y="513.6"/><text fill="#000000" font-family="Fira Sans" font-size="14" font-style="italic" lengthAdjust="spacingAndGlyphs" textLength="36" x="485" y="493.09">«Vrc»</text><text fill="#000000" font-family="Fira Sans" font-size="14" lengthAdjust="spacingAndGlyphs" textLength="80" x="463" y="509.89">FrameBuffer</text><!--MD5=[1ffdb862bcd5a17046dc5b2ba3c3c467]
entity ComputePipeline--><rect fill="#FF6680" filter="url(#f13w2kxebv8h8c)" height="53.6" style="stroke: #333333; stroke-width: 1.0;" width="129" x="510.5" y="585"/><rect fill="#FF6680" height="5" style="stroke: #333333; stroke-width: 1.0;" width="10" x="505.5" y="590"/><rect fill="#FF6680" height="5" style="stroke: #333333; stroke-width: 1.0;" width="10" x="505.5" y="628.6"/><text fill="#000000" font-family="Fira Sans" font-size="14" font-style="italic" lengthAdjust="spacingAndGlyphs" textLength="36" x="557" y="608.09">«Vrc»</text><text fill="#000000" font-family="Fira Sans" font-size="14" lengthAdjust="spacingAndGlyphs" textLength="109" x="520.5" y="624.89">ComputePipeline</text><!--MD5=[2547e0e8dfc9762fafe4ea6f3eb9cf06]
entity GraphicsPipeline--><rect fill="#FF6680" filter="url(#f13w2kxebv8h8c)" height="53.6" style="stroke: #333333; stroke-width: 1.0;" width="128" x="675" y="585"/><rect fill="#FF6680" height="5" style="stroke: #333333; stroke-width: 1.0;" width="10" x="670" y="590"/><rect fill="#FF6680" height="5" style="stroke: #333333; stroke-width: 1.0;" width="10" x="670" y="628.6"/><text fill="#000000" font-family="Fira Sans" font-size="14" font-style="italic" lengthAdjust="spacingAndGlyphs" textLength="36" x="721" y="608.09">«Vrc»</text><text fill="#000000" font-family="Fira Sans" font-size="14" lengthAdjust="spacingAndGlyphs" textLength="108" x="685" y="624.89">GraphicsPipeline</text><!--MD5=[b3cee5650c30f405e16a7ecef5202e47]
entity DescriptorSetLayout--><rect fill="#FF6680" filter="url(#f13w2kxebv8h8c)" height="53.6" style="stroke: #333333; stroke-width: 1.0;" width="150" x="628" y="339"/><rect fill="#FF6680" height="5" style="stroke: #333333; stroke-width: 1.0;" width="10" x="623" y="344"/><rect fill="#FF6680" height="5" style="stroke: #333333; stroke-width: 1.0;" width="10" x="623" y="382.6"/><text fill="#000000" font-family="Fira Sans" font-size="14" font-style="italic" lengthAdjust="spacingAndGlyphs" textLength="36" x="685" y="362.09">«Vrc»</text><text fill="#000000" font-family="Fira Sans" font-size="14" lengthAdjust="spacingAndGlyphs" textLength="130" x="638" y="378.89">DescriptorSetLayout</text><!--MD5=[79872d1326fc3a5beee5b28ed20020ae]
entity PipelineLayout--><rect fill="#FF6680" filter="url(#f13w2kxebv8h8c)" height="53.6" style="stroke: #333333; stroke-width: 1.0;" width="115" x="599.5" y="470"/><rect fill="#FF6680" height="5" style="stroke: #333333; stroke-width: 1.0;" width="10" x="594.5" y="475"/><rect fill="#FF6680" height="5" style="stroke: #333333; stroke-width: 1.0;" width="10" x="594.5" y="513.6"/><text fill="#000000" font-family="Fira Sans" font-size="14" font-style="italic" lengthAdjust="spacingAndGlyphs" textLength="36" x="639" y="493.09">«Vrc»</text><text fill="#000000" font-family="Fira Sans" font-size="14" lengthAdjust="spacingAndGlyphs" textLength="95" x="609.5" y="509.89">PipelineLayout</text><!--MD5=[525b145ed559d8349860a43fb55391e9]
entity DescriptorPool--><rect fill="#FF6680" filter="url(#f13w2kxebv8h8c)" height="53.6" style="stroke: #333333; stroke-width: 1.0;" width="114" x="813" y="339"/><rect fill="#FF6680" height="5" style="stroke: #333333; stroke-width: 1.0;" width="10" x="808" y="344"/><rect fill="#FF6680" height="5" style="stroke: #333333; stroke-width: 1.0;" width="10" x="808" y="382.6"/><text fill="#000000" font-family="Fira Sans" font-size="14" font-style="italic" lengthAdjust="spacingAndGlyphs" textLength="36" x="852" y="362.09">«Vrc»</text><text fill="#000000" font-family="Fira Sans" font-size="14" lengthAdjust="spacingAndGlyphs" textLength="94" x="823" y="378.89">DescriptorPool</text><!--MD5=[9e0743f2801aced260ae37367b66ae02]
entity DescriptorSet--><rect fill="#FF6680" filter="url(#f13w2kxebv8h8c)" height="53.6" style="stroke: #333333; stroke-width: 1.0;" width="107" x="775.5" y="470"/><rect fill="#FF6680" height="5" style="stroke: #333333; stroke-width: 1.0;" width="10" x="770.5" y="475"/><rect fill="#FF6680" height="5" style="stroke: #333333; stroke-width: 1.0;" width="10" x="770.5" y="513.6"/><text fill="#000000" font-family="Fira Sans" font-size="14" font-style="italic" lengthAdjust="spacingAndGlyphs" textLength="36" x="811" y="493.09">«Vrc»</text><text fill="#000000" font-family="Fira Sans" font-size="14" lengthAdjust="spacingAndGlyphs" textLength="87" x="785.5" y="509.89">DescriptorSet</text><!--MD5=[178d138ca418f22dbf706354932801c4]
reverse link Instance to PhysicalDevice--><path d="M454.66,68.83 C456.24,87.45 458.19,110.39 459.5,125.89 " fill="none" id="Instance&lt;-PhysicalDevice" style="stroke: #000000; stroke-width: 1.0;"/><polygon fill="#000000" points="454.22,63.7,450.979,73.0003,454.634,68.6828,458.9515,72.3379,454.22,63.7" style="stroke: #000000; stroke-width: 1.0;"/><!--MD5=[f2ba400cd7de414d9a9741dfbead0412]
reverse link Instance to Surface--><path d="M409.84,59.14 C405.21,61.23 400.54,63.23 396,65 C315.32,96.5 216.67,122.61 165.5,135.26 " fill="none" id="Instance&lt;-Surface" style="stroke: #000000; stroke-width: 1.0;"/><polygon fill="#000000" points="414.43,57.02,404.5819,57.14,409.886,59.1062,407.9198,64.4104,414.43,57.02" style="stroke: #000000; stroke-width: 1.0;"/><!--MD5=[3e0807e64cb1f9217d9bd62b2a7fecf2]
reverse link Window to Surface--><path d="M131,60.07 C131,79.76 131,107.93 131,125.97 " fill="none" id="Window&lt;-Surface" style="stroke: #000000; stroke-width: 1.0;"/><polygon fill="#000000" points="131,55,127,64,131,60,135,64,131,55" style="stroke: #000000; stroke-width: 1.0;"/><!--MD5=[5244d0020466267193e1ddb4dd69dca4]
reverse link PhysicalDevice to Device--><path d="M463.87,168.55 C465.9,184.92 468.64,206.93 470.76,223.94 " fill="none" id="PhysicalDevice&lt;-Device" style="stroke: #000000; stroke-width: 1.0;"/><polygon fill="#000000" points="463.21,163.23,460.3472,172.6536,463.8249,168.192,468.2864,171.6698,463.21,163.23" style="stroke: #000000; stroke-width: 1.0;"/><!--MD5=[23f64212de97a3cd89d252a40558ec97]
reverse link Surface to Swapchain--><path d="M128.3,168.34 C123.44,209.34 113.27,295.22 108.12,338.65 " fill="none" id="Surface&lt;-Swapchain" style="stroke: #000000; stroke-width: 1.0;"/><polygon fill="#000000" points="128.92,163.09,123.8944,171.5602,128.335,168.0557,131.8395,172.4962,128.92,163.09" style="stroke: #000000; stroke-width: 1.0;"/><text fill="#000000" font-family="Fira Sans" font-size="13" lengthAdjust="spacingAndGlyphs" textLength="32" x="123" y="255.655">«Vrc»</text><!--MD5=[836376d7c55fb2cb32bc2405f03f9175]
reverse link Device to Queue--><path d="M511,251 C520.98,251 530.97,251 540.96,251 " fill="none" id="Device&lt;-Queue" style="stroke: #000000; stroke-width: 1.0;"/><polygon fill="#000000" points="505.77,251,514.77,255,510.77,251,514.77,247,505.77,251" style="stroke: #000000; stroke-width: 1.0;"/><!--MD5=[a200845958dec60fbdad90130c563747]
reverse link Device to Swapchain--><path d="M437.13,260.91 C379.04,275.29 262.93,305.43 167,339 C161.38,340.97 155.54,343.18 149.79,345.47 " fill="none" id="Device&lt;-Swapchain" style="stroke: #000000; stroke-width: 1.0;"/><polygon fill="#000000" points="442.23,259.65,432.5381,257.8985,437.3726,260.8358,434.4354,265.6703,442.23,259.65" style="stroke: #000000; stroke-width: 1.0;"/><!--MD5=[5d2fc20e973026d3d70a36b451111cd3]
reverse link Device to Image--><path d="M437.64,265.35 C394.78,281.44 321.71,309.93 261,339 C255.28,341.74 249.28,344.86 243.56,347.96 " fill="none" id="Device&lt;-Image" style="stroke: #000000; stroke-width: 1.0;"/><polygon fill="#000000" points="442.46,263.55,432.628,262.9747,437.7801,265.3103,435.4445,270.4625,442.46,263.55" style="stroke: #000000; stroke-width: 1.0;"/><!--MD5=[7ed3f5b949e2f9f39ea6c581de42e9cd]
reverse link Device to Buffer--><path d="M510.25,272.97 C514.46,274.88 518.76,276.62 523,278 C703.14,336.84 765.38,278.59 945,339 C950.66,340.9 956.42,343.48 961.89,346.27 " fill="none" id="Device&lt;-Buffer" style="stroke: #000000; stroke-width: 1.0;"/><polygon fill="#000000" points="505.72,270.84,512.1636,278.2885,510.2451,272.9669,515.5667,271.0484,505.72,270.84" style="stroke: #000000; stroke-width: 1.0;"/><!--MD5=[f6bcffb38d475edb517ffdcb614f3bef]
reverse link Device to CommandPool--><path d="M438.44,280.91 C416.54,298.71 388.67,321.37 367.38,338.68 " fill="none" id="Device&lt;-CommandPool" style="stroke: #000000; stroke-width: 1.0;"/><polygon fill="#000000" points="442.46,277.64,432.9515,280.2069,438.5781,280.7913,437.9937,286.4179,442.46,277.64" style="stroke: #000000; stroke-width: 1.0;"/><!--MD5=[e0ad2de0215056282daeafd13a4afdde]
reverse link Device to RenderPass--><path d="M474,283.49 C474,300.96 474,322.42 474,338.93 " fill="none" id="Device&lt;-RenderPass" style="stroke: #000000; stroke-width: 1.0;"/><polygon fill="#000000" points="474,278.21,470,287.21,474,283.21,478,287.21,474,278.21" style="stroke: #000000; stroke-width: 1.0;"/><!--MD5=[1d8ab4b6eb246067a2f851c4a30eda2c]
reverse link Device to DescriptorSetLayout--><path d="M510.22,271.84 C514.49,273.99 518.82,276.09 523,278 C556.8,293.4 567.37,292.23 601,308 C620.65,317.21 641.7,328.68 659.54,338.91 " fill="none" id="Device&lt;-DescriptorSetLayout" style="stroke: #000000; stroke-width: 1.0;"/><polygon fill="#000000" points="505.61,269.49,511.8026,277.1484,510.0619,271.7661,515.4443,270.0254,505.61,269.49" style="stroke: #000000; stroke-width: 1.0;"/><!--MD5=[3937ff7c3a8065a35bc08cc152bd53f5]
reverse link Device to PipelineLayout--><path d="M496.77,282.36 C532.98,330.64 603.08,424.11 637.28,469.71 " fill="none" id="Device&lt;-PipelineLayout" style="stroke: #000000; stroke-width: 1.0;"/><polygon fill="#000000" points="493.58,278.11,495.78,287.71,496.58,282.11,502.18,282.91,493.58,278.11" style="stroke: #000000; stroke-width: 1.0;"/><!--MD5=[c683be054c18037a04d3c894258f63c1]
reverse link Device to DescriptorPool--><path d="M510.16,272.55 C514.42,274.56 518.75,276.43 523,278 C639.2,320.97 675.84,305.1 795,339 C800.83,340.66 806.88,342.52 812.88,344.45 " fill="none" id="Device&lt;-DescriptorPool" style="stroke: #000000; stroke-width: 1.0;"/><polygon fill="#000000" points="505.59,270.33,511.938,277.8602,510.0875,272.5145,515.4332,270.6641,505.59,270.33" style="stroke: #000000; stroke-width: 1.0;"/><!--MD5=[dfa72a60997d7779d3371d7381ce0441]
reverse link Swapchain to SwapchainImage--><path d="M96.6,397.96 C90.63,419.95 82.71,449.14 77.07,469.93 " fill="none" id="Swapchain&lt;-SwapchainImage" style="stroke: #000000; stroke-width: 1.0;"/><polygon fill="#000000" points="97.92,393.11,91.6967,400.7435,96.6068,397.9345,99.4159,402.8446,97.92,393.11" style="stroke: #000000; stroke-width: 1.0;"/><!--MD5=[18bdaaed14c411f280be5392ec14f6b7]
reverse link Image to SwapchainImage--><path d="M180.97,396.59 C156.27,418.72 122.8,448.7 99.1,469.93 " fill="none" id="Image&lt;-SwapchainImage" style="stroke: #000000; stroke-width: 1.0; stroke-dasharray: 7.0,7.0;"/><polygon fill="#000000" points="184.86,393.11,175.488,396.1376,181.1364,396.4469,180.8271,402.0953,184.86,393.11" style="stroke: #000000; stroke-width: 1.0;"/><text fill="#000000" font-family="Fira Sans" font-size="13" lengthAdjust="spacingAndGlyphs" textLength="43" x="152" y="436.155">Inlined</text><!--MD5=[7edb7ac24b13a7ee42ee0a9c329f1ffc]
reverse link Image to ImageView--><path d="M214,398.24 C214,420.19 214,449.22 214,469.93 " fill="none" id="Image&lt;-ImageView" style="stroke: #000000; stroke-width: 1.0;"/><polygon fill="#000000" points="214,393.11,210,402.11,214,398.11,218,402.11,214,393.11" style="stroke: #000000; stroke-width: 1.0;"/><!--MD5=[9e5a877cae309ef4a8edae84f5d290eb]
reverse link Buffer to BufferView--><path d="M992,398.24 C992,420.19 992,449.22 992,469.93 " fill="none" id="Buffer&lt;-BufferView" style="stroke: #000000; stroke-width: 1.0;"/><polygon fill="#000000" points="992,393.11,988,402.11,992,398.11,996,402.11,992,393.11" style="stroke: #000000; stroke-width: 1.0;"/><!--MD5=[a98ba249a758eccde728ad10bb3a8e03]
reverse link CommandPool to CommandBuffer--><path d="M340.09,398.24 C343.66,420.19 348.39,449.22 351.76,469.93 " fill="none" id="CommandPool&lt;-CommandBuffer" style="stroke: #000000; stroke-width: 1.0;"/><polygon fill="#000000" points="339.25,393.11,336.7437,402.6346,340.0511,398.0454,344.6403,401.3528,339.25,393.11" style="stroke: #000000; stroke-width: 1.0;"/><!--MD5=[a7febcd2bed0c22eca4c8729479453ee]
reverse link RenderPass to FrameBuffer--><path d="M481.02,398.24 C485.96,420.19 492.48,449.22 497.14,469.93 " fill="none" id="RenderPass&lt;-FrameBuffer" style="stroke: #000000; stroke-width: 1.0; stroke-dasharray: 7.0,7.0;"/><polygon fill="#000000" points="479.87,393.11,477.9506,402.77,480.9713,397.9872,485.7541,401.0079,479.87,393.11" style="stroke: #000000; stroke-width: 1.0;"/><!--MD5=[13b699461f32b51a6848d9a573756111]
reverse link DescriptorSetLayout to DescriptorSet--><path d="M732.17,396.86 C753.76,418.97 782.89,448.79 803.54,469.93 " fill="none" id="DescriptorSetLayout&lt;-DescriptorSet" style="stroke: #000000; stroke-width: 1.0; stroke-dasharray: 7.0,7.0;"/><polygon fill="#000000" points="728.5,393.11,731.9236,402.3446,731.9923,396.6882,737.6488,396.7569,728.5,393.11" style="stroke: #000000; stroke-width: 1.0;"/><!--MD5=[8f0c79ef6bb73fab9785932495789586]
reverse link DescriptorSetLayout to PipelineLayout--><path d="M691.96,397.96 C684.12,419.95 673.71,449.14 666.29,469.93 " fill="none" id="DescriptorSetLayout&lt;-PipelineLayout" style="stroke: #000000; stroke-width: 1.0; stroke-dasharray: 7.0,7.0;"/><polygon fill="#000000" points="693.69,393.11,686.9125,400.256,692.0192,397.8226,694.4526,402.9293,693.69,393.11" style="stroke: #000000; stroke-width: 1.0;"/><!--MD5=[7e0dc7a75d00bc06b584df322f2c74b4]
reverse link PipelineLayout to ComputePipeline--><path d="M634.8,528.59 C622.01,546.22 606.11,568.13 593.92,584.93 " fill="none" id="PipelineLayout&lt;-ComputePipeline" style="stroke: #000000; stroke-width: 1.0; stroke-dasharray: 7.0,7.0;"/><polygon fill="#000000" points="637.98,524.21,629.4609,529.1521,635.0468,528.2592,635.9396,533.8452,637.98,524.21" style="stroke: #000000; stroke-width: 1.0;"/><!--MD5=[27cc0bccccfed3058d66055fcc0a1ef1]
reverse link PipelineLayout to GraphicsPipeline--><path d="M679.2,528.59 C691.99,546.22 707.89,568.13 720.08,584.93 " fill="none" id="PipelineLayout&lt;-GraphicsPipeline" style="stroke: #000000; stroke-width: 1.0; stroke-dasharray: 7.0,7.0;"/><polygon fill="#000000" points="676.02,524.21,678.0604,533.8452,678.9532,528.2592,684.5391,529.1521,676.02,524.21" style="stroke: #000000; stroke-width: 1.0;"/><!--MD5=[a938b21e95382d85ef65afae3004fc90]
reverse link DescriptorPool to DescriptorSet--><path d="M860.16,397.96 C853.17,419.95 843.89,449.14 837.28,469.93 " fill="none" id="DescriptorPool&lt;-DescriptorSet" style="stroke: #000000; stroke-width: 1.0;"/><polygon fill="#000000" points="861.7,393.11,855.1649,400.4784,860.1875,397.8758,862.7901,402.8983,861.7,393.11" style="stroke: #000000; stroke-width: 1.0;"/><!--MD5=[f2739e706b0d733425e070f8d2109494]
@startuml object_dependency_graph

skinparam {
	defaultFontName Fira Sans

	ArrowColor #black
	ComponentBorderColor #333
	ComponentBorderThickness 1
}

note left of [Instance]
	<color 66FF98>Green</color> = done
	<color 66CDFF>Blue</color> = in-progress
	<color FF6680>Red</color> = planned
end note

component [Instance] <<Vrc>> #66FF98
component [Window] #66FF98

component [PhysicalDevice] #66FF98
component [Surface] #66FF98

component [Device] <<Vrc>> #66FF98

component [Queue] <<Vrc>> #66CDFF
component [Swapchain] <<Vrc>> #66CDFF
component [SwapchainImage] <<Vrc>> #66CDFF

component [Image] <<Vrc>> #66CDFF
component [Buffer] <<Vrc>> #FF6680

component [ImageView] <<Vrc>> #FF6680
component [BufferView] <<Vrc>> #FF6680

component [CommandPool] <<Vrc>> #FF6680
component [CommandBuffer] <<Vrc>> #FF6680

component [RenderPass] <<Vrc>> #FF6680
component [FrameBuffer] <<Vrc>> #FF6680
component [ComputePipeline] <<Vrc>> #FF6680
component [GraphicsPipeline] <<Vrc>> #FF6680

component [DescriptorSetLayout] <<Vrc>> #FF6680
component [PipelineLayout] <<Vrc>> #FF6680

component [DescriptorPool] <<Vrc>> #FF6680

component [DescriptorSet] <<Vrc>> #FF6680

[Instance] <- - [PhysicalDevice]
[Instance] <- - [Surface]

[Window] <- - [Surface]
[PhysicalDevice] <- - [Device]
[Surface] <- - [Swapchain] : <<Vrc>>

[Device] <- [Queue]
[Device] <- - [Swapchain]
[Device] <- - [Image]
[Device] <- - [Buffer]
[Device] <- - [CommandPool]
[Device] <- - [RenderPass]
[Device] <- - [DescriptorSetLayout]
[Device] <- - [PipelineLayout]
[Device] <- - [DescriptorPool]

[Swapchain] <- - [SwapchainImage]

[Image] <.. [SwapchainImage] : Inlined
[Image] <- - [ImageView]
[Buffer] <- - [BufferView]

[CommandPool] <- - [CommandBuffer]

[RenderPass] <.. [FrameBuffer]
[DescriptorSetLayout] <.. [DescriptorSet]
[DescriptorSetLayout] <.. [PipelineLayout]
[PipelineLayout] <.. [ComputePipeline]
[PipelineLayout] <.. [GraphicsPipeline]
[DescriptorPool] <- - [DescriptorSet]

@enduml

PlantUML version 1.2020.02(Sun Mar 01 11:22:07 CET 2020)
(GPL source distribution)
Java Runtime: OpenJDK Runtime Environment
JVM: OpenJDK 64-Bit Server VM
Java Version: 13.0.1+9
Operating System: Mac OS X
Default Encoding: UTF-8
Language: en
Country: CZ
--></g></svg>