<?xml version="1.0" encoding="UTF-8" standalone="no"?><svg xmlns="http://www.w3.org/2000/svg" xmlns:xlink="http://www.w3.org/1999/xlink" contentScriptType="application/ecmascript" contentStyleType="text/css" height="681px" preserveAspectRatio="none" style="width:1016px;height:681px;" version="1.1" viewBox="0 0 1016 681" width="1016px" zoomAndPan="magnify"><defs><filter height="300%" id="f2bp2xn5g4x9s" width="300%" x="-1" y="-1"><feGaussianBlur result="blurOut" stdDeviation="2.0"/><feColorMatrix in="blurOut" result="blurOut2" type="matrix" values="0 0 0 0 0 0 0 0 0 0 0 0 0 0 0 0 0 0 .4 0"/><feOffset dx="4.0" dy="4.0" in="blurOut2" result="blurOut3"/><feBlend in="SourceGraphic" in2="blurOut3" mode="normal"/></filter></defs><g><!--MD5=[8d6925f44e0e1541670b54b5f2c3eb41]
entity Window--><rect fill="#66FF98" filter="url(#f2bp2xn5g4x9s)" height="36.8" style="stroke: #333333; stroke-width: 1.0;" width="70" x="312" y="18"/><rect fill="#66FF98" height="5" style="stroke: #333333; stroke-width: 1.0;" width="10" x="307" y="23"/><rect fill="#66FF98" height="5" style="stroke: #333333; stroke-width: 1.0;" width="10" x="307" y="44.8"/><text fill="#000000" font-family="Fira Sans" font-size="14" lengthAdjust="spacingAndGlyphs" textLength="50" x="322" y="41.09">Window</text><path d="M147,8 L147,64.8 A0,0 0 0 0 147,64.8 L277,64.8 A0,0 0 0 0 277,64.8 L277,40.5 L311.79,36.5 L277,32.5 L277,18 L267,8 L147,8 A0,0 0 0 0 147,8 " fill="#FBFB77" filter="url(#f2bp2xn5g4x9s)" style="stroke: #A80036; stroke-width: 1.0;"/><path d="M267,8 L267,18 L277,18 L267,8 " fill="#FBFB77" style="stroke: #A80036; stroke-width: 1.0;"/><text fill="#66FF98" font-family="Fira Sans" font-size="13" lengthAdjust="spacingAndGlyphs" textLength="35" x="153" y="25.155">Green</text><text fill="#000000" font-family="Fira Sans" font-size="13" lengthAdjust="spacingAndGlyphs" textLength="41" x="191" y="25.155">= done</text><text fill="#66CDFF" font-family="Fira Sans" font-size="13" lengthAdjust="spacingAndGlyphs" textLength="27" x="153" y="40.755">Blue</text><text fill="#000000" font-family="Fira Sans" font-size="13" lengthAdjust="spacingAndGlyphs" textLength="79" x="183" y="40.755">= in-progress</text><text fill="#FF6680" font-family="Fira Sans" font-size="13" lengthAdjust="spacingAndGlyphs" textLength="23" x="153" y="56.355">Red</text><text fill="#000000" font-family="Fira Sans" font-size="13" lengthAdjust="spacingAndGlyphs" textLength="60" x="179" y="56.355">= planned</text><!--MD5=[77a0c14de6685fa065b9b4e019b7f347]
entity Instance--><rect fill="#66FF98" filter="url(#f2bp2xn5g4x9s)" height="53.6" style="stroke: #333333; stroke-width: 1.0;" width="75" x="427.5" y="9.5"/><rect fill="#66FF98" height="5" style="stroke: #333333; stroke-width: 1.0;" width="10" x="422.5" y="14.5"/><rect fill="#66FF98" height="5" style="stroke: #333333; stroke-width: 1.0;" width="10" x="422.5" y="53.1"/><text fill="#000000" font-family="Fira Sans" font-size="14" font-style="italic" lengthAdjust="spacingAndGlyphs" textLength="36" x="447" y="32.59">«Vrc»</text><text fill="#000000" font-family="Fira Sans" font-size="14" lengthAdjust="spacingAndGlyphs" textLength="55" x="437.5" y="49.39">Instance</text><!--MD5=[5789a701af2564c361c8c4b0bb67bc5e]
entity PhysicalDevice--><rect fill="#66FF98" filter="url(#f2bp2xn5g4x9s)" height="36.8" style="stroke: #333333; stroke-width: 1.0;" width="116" x="417" y="126"/><rect fill="#66FF98" height="5" style="stroke: #333333; stroke-width: 1.0;" width="10" x="412" y="131"/><rect fill="#66FF98" height="5" style="stroke: #333333; stroke-width: 1.0;" width="10" x="412" y="152.8"/><text fill="#000000" font-family="Fira Sans" font-size="14" lengthAdjust="spacingAndGlyphs" textLength="96" x="427" y="149.09">PhysicalDevice</text><!--MD5=[d5b65137a7b1bf40136b14d6cc3c273c]
entity Surface--><rect fill="#66FF98" filter="url(#f2bp2xn5g4x9s)" height="36.8" style="stroke: #333333; stroke-width: 1.0;" width="69" x="312.5" y="126"/><rect fill="#66FF98" height="5" style="stroke: #333333; stroke-width: 1.0;" width="10" x="307.5" y="131"/><rect fill="#66FF98" height="5" style="stroke: #333333; stroke-width: 1.0;" width="10" x="307.5" y="152.8"/><text fill="#000000" font-family="Fira Sans" font-size="14" lengthAdjust="spacingAndGlyphs" textLength="49" x="322.5" y="149.09">Surface</text><!--MD5=[1481f43b514325438f831f19ea58e9e2]
entity Device--><rect fill="#66FF98" filter="url(#f2bp2xn5g4x9s)" height="53.6" style="stroke: #333333; stroke-width: 1.0;" width="63" x="443.5" y="240"/><rect fill="#66FF98" height="5" style="stroke: #333333; stroke-width: 1.0;" width="10" x="438.5" y="245"/><rect fill="#66FF98" height="5" style="stroke: #333333; stroke-width: 1.0;" width="10" x="438.5" y="283.6"/><text fill="#000000" font-family="Fira Sans" font-size="14" font-style="italic" lengthAdjust="spacingAndGlyphs" textLength="36" x="457" y="263.09">«Vrc»</text><text fill="#000000" font-family="Fira Sans" font-size="14" lengthAdjust="spacingAndGlyphs" textLength="43" x="453.5" y="279.89">Device</text><!--MD5=[9762e67b79b719797c568dcdd43c32f7]
entity Queue--><rect fill="#66FF98" filter="url(#f2bp2xn5g4x9s)" height="53.6" style="stroke: #333333; stroke-width: 1.0;" width="62" x="764" y="240"/><rect fill="#66FF98" height="5" style="stroke: #333333; stroke-width: 1.0;" width="10" x="759" y="245"/><rect fill="#66FF98" height="5" style="stroke: #333333; stroke-width: 1.0;" width="10" x="759" y="283.6"/><text fill="#000000" font-family="Fira Sans" font-size="14" font-style="italic" lengthAdjust="spacingAndGlyphs" textLength="36" x="777" y="263.09">«Vrc»</text><text fill="#000000" font-family="Fira Sans" font-size="14" lengthAdjust="spacingAndGlyphs" textLength="42" x="774" y="279.89">Queue</text><!--MD5=[7a22288d6da5f69922be8ffcf0fcbe4e]
entity Swapchain--><rect fill="#66FF98" filter="url(#f2bp2xn5g4x9s)" height="53.6" style="stroke: #333333; stroke-width: 1.0;" width="89" x="302.5" y="240"/><rect fill="#66FF98" height="5" style="stroke: #333333; stroke-width: 1.0;" width="10" x="297.5" y="245"/><rect fill="#66FF98" height="5" style="stroke: #333333; stroke-width: 1.0;" width="10" x="297.5" y="283.6"/><text fill="#000000" font-family="Fira Sans" font-size="14" font-style="italic" lengthAdjust="spacingAndGlyphs" textLength="36" x="329" y="263.09">«Vrc»</text><text fill="#000000" font-family="Fira Sans" font-size="14" lengthAdjust="spacingAndGlyphs" textLength="69" x="312.5" y="279.89">Swapchain</text><!--MD5=[53b911199a3644c85b37bbf4df7dfa26]
entity SwapchainImage--><rect fill="#66CDFF" filter="url(#f2bp2xn5g4x9s)" height="53.6" style="stroke: #333333; stroke-width: 1.0;" width="128" x="6" y="486"/><rect fill="#66CDFF" height="5" style="stroke: #333333; stroke-width: 1.0;" width="10" x="1" y="491"/><rect fill="#66CDFF" height="5" style="stroke: #333333; stroke-width: 1.0;" width="10" x="1" y="529.6"/><text fill="#000000" font-family="Fira Sans" font-size="14" font-style="italic" lengthAdjust="spacingAndGlyphs" textLength="36" x="52" y="509.09">«Vrc»</text><text fill="#000000" font-family="Fira Sans" font-size="14" lengthAdjust="spacingAndGlyphs" textLength="108" x="16" y="525.89">SwapchainImage</text><!--MD5=[f474ca078bd78d29e43d9c9138696efb]
entity Image--><rect fill="#66CDFF" filter="url(#f2bp2xn5g4x9s)" height="53.6" style="stroke: #333333; stroke-width: 1.0;" width="59" x="184.5" y="355"/><rect fill="#66CDFF" height="5" style="stroke: #333333; stroke-width: 1.0;" width="10" x="179.5" y="360"/><rect fill="#66CDFF" height="5" style="stroke: #333333; stroke-width: 1.0;" width="10" x="179.5" y="398.6"/><text fill="#000000" font-family="Fira Sans" font-size="14" font-style="italic" lengthAdjust="spacingAndGlyphs" textLength="36" x="196" y="378.09">«Vrc»</text><text fill="#000000" font-family="Fira Sans" font-size="14" lengthAdjust="spacingAndGlyphs" textLength="39" x="194.5" y="394.89">Image</text><!--MD5=[ff74cdb9d7cee1f338d42fda4bfd5a89]
entity Buffer--><rect fill="#FF6680" filter="url(#f2bp2xn5g4x9s)" height="53.6" style="stroke: #333333; stroke-width: 1.0;" width="60" x="319" y="355"/><rect fill="#FF6680" height="5" style="stroke: #333333; stroke-width: 1.0;" width="10" x="314" y="360"/><rect fill="#FF6680" height="5" style="stroke: #333333; stroke-width: 1.0;" width="10" x="314" y="398.6"/><text fill="#000000" font-family="Fira Sans" font-size="14" font-style="italic" lengthAdjust="spacingAndGlyphs" textLength="36" x="331" y="378.09">«Vrc»</text><text fill="#000000" font-family="Fira Sans" font-size="14" lengthAdjust="spacingAndGlyphs" textLength="40" x="329" y="394.89">Buffer</text><!--MD5=[1d6feb955f00a8743cca3180655ae592]
entity ImageView--><rect fill="#FF6680" filter="url(#f2bp2xn5g4x9s)" height="53.6" style="stroke: #333333; stroke-width: 1.0;" width="89" x="169.5" y="486"/><rect fill="#FF6680" height="5" style="stroke: #333333; stroke-width: 1.0;" width="10" x="164.5" y="491"/><rect fill="#FF6680" height="5" style="stroke: #333333; stroke-width: 1.0;" width="10" x="164.5" y="529.6"/><text fill="#000000" font-family="Fira Sans" font-size="14" font-style="italic" lengthAdjust="spacingAndGlyphs" textLength="36" x="196" y="509.09">«Vrc»</text><text fill="#000000" font-family="Fira Sans" font-size="14" lengthAdjust="spacingAndGlyphs" textLength="69" x="179.5" y="525.89">ImageView</text><!--MD5=[dfc4c350ab723b9a18f1debdf57a4051]
entity BufferView--><rect fill="#FF6680" filter="url(#f2bp2xn5g4x9s)" height="53.6" style="stroke: #333333; stroke-width: 1.0;" width="90" x="294" y="486"/><rect fill="#FF6680" height="5" style="stroke: #333333; stroke-width: 1.0;" width="10" x="289" y="491"/><rect fill="#FF6680" height="5" style="stroke: #333333; stroke-width: 1.0;" width="10" x="289" y="529.6"/><text fill="#000000" font-family="Fira Sans" font-size="14" font-style="italic" lengthAdjust="spacingAndGlyphs" textLength="36" x="321" y="509.09">«Vrc»</text><text fill="#000000" font-family="Fira Sans" font-size="14" lengthAdjust="spacingAndGlyphs" textLength="70" x="304" y="525.89">BufferView</text><!--MD5=[94b42f345d8efb9f3882644b7664390d]
entity CommandPool--><rect fill="#66FF98" filter="url(#f2bp2xn5g4x9s)" height="53.6" style="stroke: #333333; stroke-width: 1.0;" width="112" x="419" y="355"/><rect fill="#66FF98" height="5" style="stroke: #333333; stroke-width: 1.0;" width="10" x="414" y="360"/><rect fill="#66FF98" height="5" style="stroke: #333333; stroke-width: 1.0;" width="10" x="414" y="398.6"/><text fill="#000000" font-family="Fira Sans" font-size="14" font-style="italic" lengthAdjust="spacingAndGlyphs" textLength="36" x="457" y="378.09">«Vrc»</text><text fill="#000000" font-family="Fira Sans" font-size="14" lengthAdjust="spacingAndGlyphs" textLength="92" x="429" y="394.89">CommandPool</text><!--MD5=[ac29b704edc6d673d29ab010a0a75737]
entity CommandBuffer--><rect fill="#66CDFF" filter="url(#f2bp2xn5g4x9s)" height="53.6" style="stroke: #333333; stroke-width: 1.0;" width="124" x="419" y="486"/><rect fill="#66CDFF" height="5" style="stroke: #333333; stroke-width: 1.0;" width="10" x="414" y="491"/><rect fill="#66CDFF" height="5" style="stroke: #333333; stroke-width: 1.0;" width="10" x="414" y="529.6"/><text fill="#000000" font-family="Fira Sans" font-size="14" font-style="italic" lengthAdjust="spacingAndGlyphs" textLength="36" x="463" y="509.09">«Vrc»</text><text fill="#000000" font-family="Fira Sans" font-size="14" lengthAdjust="spacingAndGlyphs" textLength="104" x="429" y="525.89">CommandBuffer</text><!--MD5=[aaa86911056d77c0094bc9419cc48a1e]
entity RenderPass--><rect fill="#FF6680" filter="url(#f2bp2xn5g4x9s)" height="53.6" style="stroke: #333333; stroke-width: 1.0;" width="95" x="566.5" y="355"/><rect fill="#FF6680" height="5" style="stroke: #333333; stroke-width: 1.0;" width="10" x="561.5" y="360"/><rect fill="#FF6680" height="5" style="stroke: #333333; stroke-width: 1.0;" width="10" x="561.5" y="398.6"/><text fill="#000000" font-family="Fira Sans" font-size="14" font-style="italic" lengthAdjust="spacingAndGlyphs" textLength="36" x="596" y="378.09">«Vrc»</text><text fill="#000000" font-family="Fira Sans" font-size="14" lengthAdjust="spacingAndGlyphs" textLength="75" x="576.5" y="394.89">RenderPass</text><!--MD5=[90701dc8c13adb3d9edc282c27eb9529]
entity FrameBuffer--><rect fill="#FF6680" filter="url(#f2bp2xn5g4x9s)" height="53.6" style="stroke: #333333; stroke-width: 1.0;" width="100" x="578" y="486"/><rect fill="#FF6680" height="5" style="stroke: #333333; stroke-width: 1.0;" width="10" x="573" y="491"/><rect fill="#FF6680" height="5" style="stroke: #333333; stroke-width: 1.0;" width="10" x="573" y="529.6"/><text fill="#000000" font-family="Fira Sans" font-size="14" font-style="italic" lengthAdjust="spacingAndGlyphs" textLength="36" x="610" y="509.09">«Vrc»</text><text fill="#000000" font-family="Fira Sans" font-size="14" lengthAdjust="spacingAndGlyphs" textLength="80" x="588" y="525.89">FrameBuffer</text><!--MD5=[1ffdb862bcd5a17046dc5b2ba3c3c467]
entity ComputePipeline--><rect fill="#FF6680" filter="url(#f2bp2xn5g4x9s)" height="53.6" style="stroke: #333333; stroke-width: 1.0;" width="129" x="624.5" y="617"/><rect fill="#FF6680" height="5" style="stroke: #333333; stroke-width: 1.0;" width="10" x="619.5" y="622"/><rect fill="#FF6680" height="5" style="stroke: #333333; stroke-width: 1.0;" width="10" x="619.5" y="660.6"/><text fill="#000000" font-family="Fira Sans" font-size="14" font-style="italic" lengthAdjust="spacingAndGlyphs" textLength="36" x="671" y="640.09">«Vrc»</text><text fill="#000000" font-family="Fira Sans" font-size="14" lengthAdjust="spacingAndGlyphs" textLength="109" x="634.5" y="656.89">ComputePipeline</text><!--MD5=[2547e0e8dfc9762fafe4ea6f3eb9cf06]
entity GraphicsPipeline--><rect fill="#FF6680" filter="url(#f2bp2xn5g4x9s)" height="53.6" style="stroke: #333333; stroke-width: 1.0;" width="128" x="789" y="617"/><rect fill="#FF6680" height="5" style="stroke: #333333; stroke-width: 1.0;" width="10" x="784" y="622"/><rect fill="#FF6680" height="5" style="stroke: #333333; stroke-width: 1.0;" width="10" x="784" y="660.6"/><text fill="#000000" font-family="Fira Sans" font-size="14" font-style="italic" lengthAdjust="spacingAndGlyphs" textLength="36" x="835" y="640.09">«Vrc»</text><text fill="#000000" font-family="Fira Sans" font-size="14" lengthAdjust="spacingAndGlyphs" textLength="108" x="799" y="656.89">GraphicsPipeline</text><!--MD5=[b3cee5650c30f405e16a7ecef5202e47]
entity DescriptorSetLayout--><rect fill="#FF6680" filter="url(#f2bp2xn5g4x9s)" height="53.6" style="stroke: #333333; stroke-width: 1.0;" width="150" x="697" y="355"/><rect fill="#FF6680" height="5" style="stroke: #333333; stroke-width: 1.0;" width="10" x="692" y="360"/><rect fill="#FF6680" height="5" style="stroke: #333333; stroke-width: 1.0;" width="10" x="692" y="398.6"/><text fill="#000000" font-family="Fira Sans" font-size="14" font-style="italic" lengthAdjust="spacingAndGlyphs" textLength="36" x="754" y="378.09">«Vrc»</text><text fill="#000000" font-family="Fira Sans" font-size="14" lengthAdjust="spacingAndGlyphs" textLength="130" x="707" y="394.89">DescriptorSetLayout</text><!--MD5=[79872d1326fc3a5beee5b28ed20020ae]
entity PipelineLayout--><rect fill="#FF6680" filter="url(#f2bp2xn5g4x9s)" height="53.6" style="stroke: #333333; stroke-width: 1.0;" width="115" x="713.5" y="486"/><rect fill="#FF6680" height="5" style="stroke: #333333; stroke-width: 1.0;" width="10" x="708.5" y="491"/><rect fill="#FF6680" height="5" style="stroke: #333333; stroke-width: 1.0;" width="10" x="708.5" y="529.6"/><text fill="#000000" font-family="Fira Sans" font-size="14" font-style="italic" lengthAdjust="spacingAndGlyphs" textLength="36" x="753" y="509.09">«Vrc»</text><text fill="#000000" font-family="Fira Sans" font-size="14" lengthAdjust="spacingAndGlyphs" textLength="95" x="723.5" y="525.89">PipelineLayout</text><!--MD5=[525b145ed559d8349860a43fb55391e9]
entity DescriptorPool--><rect fill="#FF6680" filter="url(#f2bp2xn5g4x9s)" height="53.6" style="stroke: #333333; stroke-width: 1.0;" width="114" x="891" y="355"/><rect fill="#FF6680" height="5" style="stroke: #333333; stroke-width: 1.0;" width="10" x="886" y="360"/><rect fill="#FF6680" height="5" style="stroke: #333333; stroke-width: 1.0;" width="10" x="886" y="398.6"/><text fill="#000000" font-family="Fira Sans" font-size="14" font-style="italic" lengthAdjust="spacingAndGlyphs" textLength="36" x="930" y="378.09">«Vrc»</text><text fill="#000000" font-family="Fira Sans" font-size="14" lengthAdjust="spacingAndGlyphs" textLength="94" x="901" y="394.89">DescriptorPool</text><!--MD5=[9e0743f2801aced260ae37367b66ae02]
entity DescriptorSet--><rect fill="#FF6680" filter="url(#f2bp2xn5g4x9s)" height="53.6" style="stroke: #333333; stroke-width: 1.0;" width="107" x="884.5" y="486"/><rect fill="#FF6680" height="5" style="stroke: #333333; stroke-width: 1.0;" width="10" x="879.5" y="491"/><rect fill="#FF6680" height="5" style="stroke: #333333; stroke-width: 1.0;" width="10" x="879.5" y="529.6"/><text fill="#000000" font-family="Fira Sans" font-size="14" font-style="italic" lengthAdjust="spacingAndGlyphs" textLength="36" x="920" y="509.09">«Vrc»</text><text fill="#000000" font-family="Fira Sans" font-size="14" lengthAdjust="spacingAndGlyphs" textLength="87" x="894.5" y="525.89">DescriptorSet</text><!--MD5=[1fb0ef48e8900ffbbad7e616a7fe040d]
entity Semaphore--><rect fill="#66FF98" filter="url(#f2bp2xn5g4x9s)" height="53.6" style="stroke: #333333; stroke-width: 1.0;" width="93" x="635.5" y="240"/><rect fill="#66FF98" height="5" style="stroke: #333333; stroke-width: 1.0;" width="10" x="630.5" y="245"/><rect fill="#66FF98" height="5" style="stroke: #333333; stroke-width: 1.0;" width="10" x="630.5" y="283.6"/><text fill="#000000" font-family="Fira Sans" font-size="14" font-style="italic" lengthAdjust="spacingAndGlyphs" textLength="36" x="664" y="263.09">«Vrc»</text><text fill="#000000" font-family="Fira Sans" font-size="14" lengthAdjust="spacingAndGlyphs" textLength="73" x="645.5" y="279.89">Semaphore</text><!--MD5=[6127d90547417416cc3e17b601189e55]
entity Fence--><rect fill="#66FF98" filter="url(#f2bp2xn5g4x9s)" height="53.6" style="stroke: #333333; stroke-width: 1.0;" width="58" x="542" y="240"/><rect fill="#66FF98" height="5" style="stroke: #333333; stroke-width: 1.0;" width="10" x="537" y="245"/><rect fill="#66FF98" height="5" style="stroke: #333333; stroke-width: 1.0;" width="10" x="537" y="283.6"/><text fill="#000000" font-family="Fira Sans" font-size="14" font-style="italic" lengthAdjust="spacingAndGlyphs" textLength="36" x="553" y="263.09">«Vrc»</text><text fill="#000000" font-family="Fira Sans" font-size="14" lengthAdjust="spacingAndGlyphs" textLength="38" x="552" y="279.89">Fence</text><!--MD5=[178d138ca418f22dbf706354932801c4]
reverse link Instance to PhysicalDevice--><path d="M467.96,68.83 C469.71,87.45 471.88,110.39 473.34,125.89 " fill="none" id="Instance&lt;-PhysicalDevice" style="stroke: #000000; stroke-width: 1.0;"/><polygon fill="#000000" points="467.47,63.7,464.3109,73.0285,467.9278,68.679,472.2773,72.2959,467.47,63.7" style="stroke: #000000; stroke-width: 1.0;"/><!--MD5=[f2ba400cd7de414d9a9741dfbead0412]
reverse link Instance to Surface--><path d="M431.97,67.17 C410.93,86.07 384.38,109.93 366.61,125.89 " fill="none" id="Instance&lt;-Surface" style="stroke: #000000; stroke-width: 1.0;"/><polygon fill="#000000" points="435.83,63.7,426.4587,66.7296,432.1072,67.0377,431.7991,72.6862,435.83,63.7" style="stroke: #000000; stroke-width: 1.0;"/><!--MD5=[3e0807e64cb1f9217d9bd62b2a7fecf2]
reverse link Window to Surface--><path d="M347,60.07 C347,79.76 347,107.93 347,125.97 " fill="none" id="Window&lt;-Surface" style="stroke: #000000; stroke-width: 1.0;"/><polygon fill="#000000" points="347,55,343,64,347,60,351,64,347,55" style="stroke: #000000; stroke-width: 1.0;"/><!--MD5=[5244d0020466267193e1ddb4dd69dca4]
reverse link PhysicalDevice to Device--><path d="M475,168.22 C475,188.5 475,218.22 475,239.56 " fill="none" id="PhysicalDevice&lt;-Device" style="stroke: #000000; stroke-width: 1.0;"/><polygon fill="#000000" points="475,163.02,471,172.02,475,168.02,479,172.02,475,163.02" style="stroke: #000000; stroke-width: 1.0;"/><!--MD5=[23f64212de97a3cd89d252a40558ec97]
reverse link Surface to Swapchain--><path d="M347,168.22 C347,188.5 347,218.22 347,239.56 " fill="none" id="Surface&lt;-Swapchain" style="stroke: #000000; stroke-width: 1.0;"/><polygon fill="#000000" points="347,163.02,343,172.02,347,168.02,351,172.02,347,163.02" style="stroke: #000000; stroke-width: 1.0;"/><text fill="#000000" font-family="Fira Sans" font-size="13" lengthAdjust="spacingAndGlyphs" textLength="32" x="348" y="206.155">«Vrc»</text><!--MD5=[836376d7c55fb2cb32bc2405f03f9175]
reverse link Device to Queue--><path d="M498.01,235.73 C509.68,222.51 525.08,208.56 542.5,201.5 C619.11,170.44 652.01,170.15 728.5,201.5 C747.54,209.3 764.06,225.48 775.87,239.81 " fill="none" id="Device&lt;-Queue" style="stroke: #000000; stroke-width: 1.0;"/><polygon fill="#000000" points="494.51,239.8,503.412,235.5864,497.771,236.0098,497.3477,230.3688,494.51,239.8" style="stroke: #000000; stroke-width: 1.0;"/><!--MD5=[b7d130e6921a3f709b353c7e82ef4519]
link Swapchain to Device--><path d="M392,267 C407.34,267 422.68,267 438.02,267 " fill="none" id="Swapchain-&gt;Device" style="stroke: #000000; stroke-width: 1.0;"/><polygon fill="#000000" points="443.23,267,434.23,263,438.23,267,434.23,271,443.23,267" style="stroke: #000000; stroke-width: 1.0;"/><!--MD5=[5d2fc20e973026d3d70a36b451111cd3]
reverse link Device to Image--><path d="M438.66,283.73 C386.54,306.3 291.56,347.42 243.52,368.22 " fill="none" id="Device&lt;-Image" style="stroke: #000000; stroke-width: 1.0;"/><polygon fill="#000000" points="443.26,281.74,433.4117,281.6345,438.6695,283.7216,436.5823,288.9794,443.26,281.74" style="stroke: #000000; stroke-width: 1.0;"/><!--MD5=[7ed3f5b949e2f9f39ea6c581de42e9cd]
reverse link Device to Buffer--><path d="M441.88,297.7 C422.07,315.47 397.12,337.85 378.07,354.93 " fill="none" id="Device&lt;-Buffer" style="stroke: #000000; stroke-width: 1.0;"/><polygon fill="#000000" points="445.78,294.21,436.4023,297.2197,442.0501,297.5398,441.7299,303.1876,445.78,294.21" style="stroke: #000000; stroke-width: 1.0;"/><!--MD5=[f6bcffb38d475edb517ffdcb614f3bef]
reverse link Device to CommandPool--><path d="M475,299.49 C475,316.96 475,338.42 475,354.93 " fill="none" id="Device&lt;-CommandPool" style="stroke: #000000; stroke-width: 1.0;"/><polygon fill="#000000" points="475,294.21,471,303.21,475,299.21,479,303.21,475,294.21" style="stroke: #000000; stroke-width: 1.0;"/><!--MD5=[e0ad2de0215056282daeafd13a4afdde]
reverse link Device to RenderPass--><path d="M510.56,296.91 C532.46,314.71 560.33,337.37 581.62,354.68 " fill="none" id="Device&lt;-RenderPass" style="stroke: #000000; stroke-width: 1.0;"/><polygon fill="#000000" points="506.54,293.64,511.0063,302.4179,510.4219,296.7913,516.0485,296.2069,506.54,293.64" style="stroke: #000000; stroke-width: 1.0;"/><!--MD5=[1d8ab4b6eb246067a2f851c4a30eda2c]
reverse link Device to DescriptorSetLayout--><path d="M511.24,287.6 C515.82,289.85 520.49,292.04 525,294 C581.52,318.5 647.41,341.44 696.91,357.61 " fill="none" id="Device&lt;-DescriptorSetLayout" style="stroke: #000000; stroke-width: 1.0;"/><polygon fill="#000000" points="506.68,285.33,512.9507,292.9246,511.155,287.5603,516.5193,285.7646,506.68,285.33" style="stroke: #000000; stroke-width: 1.0;"/><!--MD5=[c683be054c18037a04d3c894258f63c1]
reverse link Device to DescriptorPool--><path d="M511.17,288.41 C515.74,290.51 520.42,292.44 525,294 C670.31,343.53 715.9,318.43 865,355 C873.36,357.05 882.11,359.48 890.67,362.01 " fill="none" id="Device&lt;-DescriptorPool" style="stroke: #000000; stroke-width: 1.0;"/><polygon fill="#000000" points="506.64,286.26,513.0552,293.733,511.1569,288.4041,516.4858,286.5059,506.64,286.26" style="stroke: #000000; stroke-width: 1.0;"/><!--MD5=[a6617f030d72c66593096a7c7dae5bb8]
reverse link Device to Semaphore--><path d="M498.01,235.73 C509.68,222.51 525.08,208.56 542.5,201.5 C566.39,191.81 576.18,192.94 600.5,201.5 C622.25,209.16 642.47,225.34 657.34,239.7 " fill="none" id="Device&lt;-Semaphore" style="stroke: #000000; stroke-width: 1.0;"/><polygon fill="#000000" points="494.51,239.8,503.412,235.5864,497.771,236.0098,497.3477,230.3688,494.51,239.8" style="stroke: #000000; stroke-width: 1.0;"/><!--MD5=[53e1f28dac411f1d6c7512e37e08761c]
reverse link Device to Fence--><path d="M512.08,267 C522.03,267 531.99,267 541.94,267 " fill="none" id="Device&lt;-Fence" style="stroke: #000000; stroke-width: 1.0;"/><polygon fill="#000000" points="506.88,267,515.8914,270.9743,511.88,266.9857,515.8685,262.9743,506.88,267" style="stroke: #000000; stroke-width: 1.0;"/><!--MD5=[dfa72a60997d7779d3371d7381ce0441]
reverse link Swapchain to SwapchainImage--><path d="M297.04,283.47 C258.2,297.4 204.74,320.96 167,355 C125.48,392.44 95.49,451.79 80.61,485.78 " fill="none" id="Swapchain&lt;-SwapchainImage" style="stroke: #000000; stroke-width: 1.0;"/><polygon fill="#000000" points="302.18,281.65,292.3628,280.861,297.4629,283.3081,295.0158,288.4083,302.18,281.65" style="stroke: #000000; stroke-width: 1.0;"/><!--MD5=[18bdaaed14c411f280be5392ec14f6b7]
reverse link Image to SwapchainImage--><path d="M180.97,412.59 C156.27,434.72 122.8,464.7 99.1,485.93 " fill="none" id="Image&lt;-SwapchainImage" style="stroke: #000000; stroke-width: 1.0; stroke-dasharray: 7.0,7.0;"/><polygon fill="#000000" points="184.86,409.11,175.488,412.1376,181.1364,412.4469,180.8271,418.0953,184.86,409.11" style="stroke: #000000; stroke-width: 1.0;"/><text fill="#000000" font-family="Fira Sans" font-size="13" lengthAdjust="spacingAndGlyphs" textLength="43" x="152" y="452.155">Inlined</text><!--MD5=[7edb7ac24b13a7ee42ee0a9c329f1ffc]
reverse link Image to ImageView--><path d="M214,414.24 C214,436.19 214,465.22 214,485.93 " fill="none" id="Image&lt;-ImageView" style="stroke: #000000; stroke-width: 1.0;"/><polygon fill="#000000" points="214,409.11,210,418.11,214,414.11,218,418.11,214,409.11" style="stroke: #000000; stroke-width: 1.0;"/><!--MD5=[9e5a877cae309ef4a8edae84f5d290eb]
reverse link Buffer to BufferView--><path d="M346.58,414.24 C344.88,436.19 342.63,465.22 341.02,485.93 " fill="none" id="Buffer&lt;-BufferView" style="stroke: #000000; stroke-width: 1.0;"/><polygon fill="#000000" points="346.98,409.11,342.2711,417.7602,346.579,414.0939,350.2453,418.4018,346.98,409.11" style="stroke: #000000; stroke-width: 1.0;"/><!--MD5=[a98ba249a758eccde728ad10bb3a8e03]
reverse link CommandPool to CommandBuffer--><path d="M476.45,414.24 C477.47,436.19 478.82,465.22 479.79,485.93 " fill="none" id="CommandPool&lt;-CommandBuffer" style="stroke: #000000; stroke-width: 1.0;"/><polygon fill="#000000" points="476.21,409.11,472.6264,418.2837,476.439,414.1048,480.618,417.9174,476.21,409.11" style="stroke: #000000; stroke-width: 1.0;"/><!--MD5=[a7febcd2bed0c22eca4c8729479453ee]
reverse link RenderPass to FrameBuffer--><path d="M617.39,414.24 C619.77,436.19 622.92,465.22 625.17,485.93 " fill="none" id="RenderPass&lt;-FrameBuffer" style="stroke: #000000; stroke-width: 1.0; stroke-dasharray: 7.0,7.0;"/><polygon fill="#000000" points="616.83,409.11,613.804,418.4825,617.3586,414.082,621.7591,417.6367,616.83,409.11" style="stroke: #000000; stroke-width: 1.0;"/><!--MD5=[13b699461f32b51a6848d9a573756111]
reverse link DescriptorSetLayout to DescriptorSet--><path d="M816.44,411.97 C828.81,420.4 842.11,429.82 854,439 C873.12,453.76 893.59,471.51 909.54,485.81 " fill="none" id="DescriptorSetLayout&lt;-DescriptorSet" style="stroke: #000000; stroke-width: 1.0; stroke-dasharray: 7.0,7.0;"/><polygon fill="#000000" points="812.28,409.15,817.4834,417.5121,816.4181,411.9565,821.9737,410.8911,812.28,409.15" style="stroke: #000000; stroke-width: 1.0;"/><text fill="#000000" font-family="Fira Sans" font-size="13" lengthAdjust="spacingAndGlyphs" textLength="35" x="874" y="452.155">Copy?</text><!--MD5=[8f0c79ef6bb73fab9785932495789586]
reverse link DescriptorSetLayout to PipelineLayout--><path d="M766.11,414.05 C764.82,422.14 763.65,430.87 763,439 C761.76,454.51 763.52,471.81 765.7,485.68 " fill="none" id="DescriptorSetLayout&lt;-PipelineLayout" style="stroke: #000000; stroke-width: 1.0; stroke-dasharray: 7.0,7.0;"/><polygon fill="#000000" points="766.92,409.11,761.5334,417.3553,766.1211,414.0458,769.4307,418.6335,766.92,409.11" style="stroke: #000000; stroke-width: 1.0;"/><text fill="#000000" font-family="Fira Sans" font-size="13" lengthAdjust="spacingAndGlyphs" textLength="85" x="764" y="452.155">Copy? + Device</text><!--MD5=[7e0dc7a75d00bc06b584df322f2c74b4]
reverse link PipelineLayout to ComputePipeline--><path d="M751.67,544.41 C737.65,566.46 718.9,595.96 705.57,616.93 " fill="none" id="PipelineLayout&lt;-ComputePipeline" style="stroke: #000000; stroke-width: 1.0; stroke-dasharray: 7.0,7.0;"/><polygon fill="#000000" points="754.41,540.11,746.2131,545.5699,751.733,544.333,752.9699,549.853,754.41,540.11" style="stroke: #000000; stroke-width: 1.0;"/><text fill="#000000" font-family="Fira Sans" font-size="13" lengthAdjust="spacingAndGlyphs" textLength="35" x="735" y="583.155">Copy?</text><!--MD5=[27cc0bccccfed3058d66055fcc0a1ef1]
reverse link PipelineLayout to GraphicsPipeline--><path d="M790.33,544.41 C804.35,566.46 823.1,595.96 836.43,616.93 " fill="none" id="PipelineLayout&lt;-GraphicsPipeline" style="stroke: #000000; stroke-width: 1.0; stroke-dasharray: 7.0,7.0;"/><polygon fill="#000000" points="787.59,540.11,789.0301,549.853,790.267,544.333,795.7869,545.5699,787.59,540.11" style="stroke: #000000; stroke-width: 1.0;"/><text fill="#000000" font-family="Fira Sans" font-size="13" lengthAdjust="spacingAndGlyphs" textLength="35" x="817" y="583.155">Copy?</text><!--MD5=[a938b21e95382d85ef65afae3004fc90]
reverse link DescriptorPool to DescriptorSet--><path d="M945.58,414.24 C943.88,436.19 941.63,465.22 940.02,485.93 " fill="none" id="DescriptorPool&lt;-DescriptorSet" style="stroke: #000000; stroke-width: 1.0;"/><polygon fill="#000000" points="945.98,409.11,941.2711,417.7602,945.579,414.0939,949.2453,418.4018,945.98,409.11" style="stroke: #000000; stroke-width: 1.0;"/><!--MD5=[40954a5f9d1abcf251fd34f91d4e75d1]
@startuml object_dependency_graph

skinparam {
	defaultFontName Fira Sans

	ArrowColor #black
	ComponentBorderColor #333
	ComponentBorderThickness 1
}

note left of [Window]
	<color 66FF98>Green</color> = done
	<color 66CDFF>Blue</color> = in-progress
	<color FF6680>Red</color> = planned
end note

component [Instance] <<Vrc>> #66FF98
component [Window] #66FF98

component [PhysicalDevice] #66FF98
component [Surface] #66FF98

component [Device] <<Vrc>> #66FF98

component [Queue] <<Vrc>> #66FF98
component [Swapchain] <<Vrc>> #66FF98
component [SwapchainImage] <<Vrc>> #66CDFF

component [Image] <<Vrc>> #66CDFF
component [Buffer] <<Vrc>> #FF6680

component [ImageView] <<Vrc>> #FF6680
component [BufferView] <<Vrc>> #FF6680

component [CommandPool] <<Vrc>> #66FF98
component [CommandBuffer] <<Vrc>> #66CDFF

component [RenderPass] <<Vrc>> #FF6680
component [FrameBuffer] <<Vrc>> #FF6680
component [ComputePipeline] <<Vrc>> #FF6680
component [GraphicsPipeline] <<Vrc>> #FF6680

component [DescriptorSetLayout] <<Vrc>> #FF6680
component [PipelineLayout] <<Vrc>> #FF6680

component [DescriptorPool] <<Vrc>> #FF6680
component [DescriptorSet] <<Vrc>> #FF6680

component [Semaphore] <<Vrc>> #66FF98
component [Fence] <<Vrc>> #66FF98

[Instance] <- - [PhysicalDevice]
[Instance] <- - [Surface]

[Window] <- - [Surface]
[PhysicalDevice] <- - [Device]
[Surface] <- - [Swapchain] : <<Vrc>>

[Device] <- [Queue]
[Swapchain] -> [Device]
[Device] <- - [Image]
[Device] <- - [Buffer]
[Device] <- - [CommandPool]
[Device] <- - [RenderPass]
[Device] <- - [DescriptorSetLayout]
[Device] <- - [DescriptorPool]
[Device] <- [Semaphore]
[Device] <- [Fence]

[Swapchain] <- - [SwapchainImage]

[Image] <.. [SwapchainImage] : Inlined
[Image] <- - [ImageView]
[Buffer] <- - [BufferView]

[CommandPool] <- - [CommandBuffer]

[RenderPass] <.. [FrameBuffer]
[DescriptorSetLayout] <.. [DescriptorSet] : Copy?
[DescriptorSetLayout] <.. [PipelineLayout] : Copy? + Device
[PipelineLayout] <.. [ComputePipeline] : Copy?
[PipelineLayout] <.. [GraphicsPipeline] : Copy?
[DescriptorPool] <- - [DescriptorSet]

@enduml

PlantUML version 1.2020.02(Sun Mar 01 11:22:07 CET 2020)
(GPL source distribution)
Java Runtime: OpenJDK Runtime Environment
JVM: OpenJDK 64-Bit Server VM
Java Version: 13.0.1+9
Operating System: Mac OS X
Default Encoding: UTF-8
Language: en
Country: CZ
--></g></svg>