<?xml version="1.0" encoding="UTF-8" standalone="no"?><svg xmlns="http://www.w3.org/2000/svg" xmlns:xlink="http://www.w3.org/1999/xlink" contentScriptType="application/ecmascript" contentStyleType="text/css" height="665px" preserveAspectRatio="none" style="width:983px;height:665px;" version="1.1" viewBox="0 0 983 665" width="983px" zoomAndPan="magnify"><defs><filter height="300%" id="f5qjde7q02aaa" width="300%" x="-1" y="-1"><feGaussianBlur result="blurOut" stdDeviation="2.0"/><feColorMatrix in="blurOut" result="blurOut2" type="matrix" values="0 0 0 0 0 0 0 0 0 0 0 0 0 0 0 0 0 0 .4 0"/><feOffset dx="4.0" dy="4.0" in="blurOut2" result="blurOut3"/><feBlend in="SourceGraphic" in2="blurOut3" mode="normal"/></filter></defs><g><!--MD5=[77a0c14de6685fa065b9b4e019b7f347]
entity Instance--><rect fill="#66FF98" filter="url(#f5qjde7q02aaa)" height="53.6" style="stroke: #333333; stroke-width: 1.0;" width="75" x="345.5" y="9.5"/><rect fill="#66FF98" height="5" style="stroke: #333333; stroke-width: 1.0;" width="10" x="340.5" y="14.5"/><rect fill="#66FF98" height="5" style="stroke: #333333; stroke-width: 1.0;" width="10" x="340.5" y="53.1"/><text fill="#000000" font-family="Fira Sans" font-size="14" font-style="italic" lengthAdjust="spacingAndGlyphs" textLength="36" x="365" y="32.59">«Vrc»</text><text fill="#000000" font-family="Fira Sans" font-size="14" lengthAdjust="spacingAndGlyphs" textLength="55" x="355.5" y="49.39">Instance</text><path d="M180,8 L180,64.8 A0,0 0 0 0 180,64.8 L310,64.8 A0,0 0 0 0 310,64.8 L310,40.5 L345.48,36.5 L310,32.5 L310,18 L300,8 L180,8 A0,0 0 0 0 180,8 " fill="#FBFB77" filter="url(#f5qjde7q02aaa)" style="stroke: #A80036; stroke-width: 1.0;"/><path d="M300,8 L300,18 L310,18 L300,8 " fill="#FBFB77" style="stroke: #A80036; stroke-width: 1.0;"/><text fill="#66FF98" font-family="Fira Sans" font-size="13" lengthAdjust="spacingAndGlyphs" textLength="35" x="186" y="25.155">Green</text><text fill="#000000" font-family="Fira Sans" font-size="13" lengthAdjust="spacingAndGlyphs" textLength="41" x="224" y="25.155">= done</text><text fill="#66CDFF" font-family="Fira Sans" font-size="13" lengthAdjust="spacingAndGlyphs" textLength="27" x="186" y="40.755">Blue</text><text fill="#000000" font-family="Fira Sans" font-size="13" lengthAdjust="spacingAndGlyphs" textLength="79" x="216" y="40.755">= in-progress</text><text fill="#FF6680" font-family="Fira Sans" font-size="13" lengthAdjust="spacingAndGlyphs" textLength="23" x="186" y="56.355">Red</text><text fill="#000000" font-family="Fira Sans" font-size="13" lengthAdjust="spacingAndGlyphs" textLength="60" x="212" y="56.355">= planned</text><!--MD5=[8d6925f44e0e1541670b54b5f2c3eb41]
entity Window--><rect fill="#66FF98" filter="url(#f5qjde7q02aaa)" height="36.8" style="stroke: #333333; stroke-width: 1.0;" width="70" x="73" y="18"/><rect fill="#66FF98" height="5" style="stroke: #333333; stroke-width: 1.0;" width="10" x="68" y="23"/><rect fill="#66FF98" height="5" style="stroke: #333333; stroke-width: 1.0;" width="10" x="68" y="44.8"/><text fill="#000000" font-family="Fira Sans" font-size="14" lengthAdjust="spacingAndGlyphs" textLength="50" x="83" y="41.09">Window</text><!--MD5=[5789a701af2564c361c8c4b0bb67bc5e]
entity PhysicalDevice--><rect fill="#66FF98" filter="url(#f5qjde7q02aaa)" height="36.8" style="stroke: #333333; stroke-width: 1.0;" width="116" x="343" y="126"/><rect fill="#66FF98" height="5" style="stroke: #333333; stroke-width: 1.0;" width="10" x="338" y="131"/><rect fill="#66FF98" height="5" style="stroke: #333333; stroke-width: 1.0;" width="10" x="338" y="152.8"/><text fill="#000000" font-family="Fira Sans" font-size="14" lengthAdjust="spacingAndGlyphs" textLength="96" x="353" y="149.09">PhysicalDevice</text><!--MD5=[d5b65137a7b1bf40136b14d6cc3c273c]
entity Surface--><rect fill="#66FF98" filter="url(#f5qjde7q02aaa)" height="36.8" style="stroke: #333333; stroke-width: 1.0;" width="69" x="73.5" y="126"/><rect fill="#66FF98" height="5" style="stroke: #333333; stroke-width: 1.0;" width="10" x="68.5" y="131"/><rect fill="#66FF98" height="5" style="stroke: #333333; stroke-width: 1.0;" width="10" x="68.5" y="152.8"/><text fill="#000000" font-family="Fira Sans" font-size="14" lengthAdjust="spacingAndGlyphs" textLength="49" x="83.5" y="149.09">Surface</text><!--MD5=[1481f43b514325438f831f19ea58e9e2]
entity Device--><rect fill="#66FF98" filter="url(#f5qjde7q02aaa)" height="53.6" style="stroke: #333333; stroke-width: 1.0;" width="63" x="397.5" y="224"/><rect fill="#66FF98" height="5" style="stroke: #333333; stroke-width: 1.0;" width="10" x="392.5" y="229"/><rect fill="#66FF98" height="5" style="stroke: #333333; stroke-width: 1.0;" width="10" x="392.5" y="267.6"/><text fill="#000000" font-family="Fira Sans" font-size="14" font-style="italic" lengthAdjust="spacingAndGlyphs" textLength="36" x="411" y="247.09">«Vrc»</text><text fill="#000000" font-family="Fira Sans" font-size="14" lengthAdjust="spacingAndGlyphs" textLength="43" x="407.5" y="263.89">Device</text><!--MD5=[9762e67b79b719797c568dcdd43c32f7]
entity Queue--><rect fill="#66CDFF" filter="url(#f5qjde7q02aaa)" height="53.6" style="stroke: #333333; stroke-width: 1.0;" width="62" x="496" y="224"/><rect fill="#66CDFF" height="5" style="stroke: #333333; stroke-width: 1.0;" width="10" x="491" y="229"/><rect fill="#66CDFF" height="5" style="stroke: #333333; stroke-width: 1.0;" width="10" x="491" y="267.6"/><text fill="#000000" font-family="Fira Sans" font-size="14" font-style="italic" lengthAdjust="spacingAndGlyphs" textLength="36" x="509" y="247.09">«Vrc»</text><text fill="#000000" font-family="Fira Sans" font-size="14" lengthAdjust="spacingAndGlyphs" textLength="42" x="506" y="263.89">Queue</text><!--MD5=[7a22288d6da5f69922be8ffcf0fcbe4e]
entity Swapchain--><rect fill="#66CDFF" filter="url(#f5qjde7q02aaa)" height="53.6" style="stroke: #333333; stroke-width: 1.0;" width="89" x="62.5" y="339"/><rect fill="#66CDFF" height="5" style="stroke: #333333; stroke-width: 1.0;" width="10" x="57.5" y="344"/><rect fill="#66CDFF" height="5" style="stroke: #333333; stroke-width: 1.0;" width="10" x="57.5" y="382.6"/><text fill="#000000" font-family="Fira Sans" font-size="14" font-style="italic" lengthAdjust="spacingAndGlyphs" textLength="36" x="89" y="362.09">«Vrc»</text><text fill="#000000" font-family="Fira Sans" font-size="14" lengthAdjust="spacingAndGlyphs" textLength="69" x="72.5" y="378.89">Swapchain</text><!--MD5=[53b911199a3644c85b37bbf4df7dfa26]
entity SwapchainImage--><rect fill="#66CDFF" filter="url(#f5qjde7q02aaa)" height="53.6" style="stroke: #333333; stroke-width: 1.0;" width="128" x="6" y="470"/><rect fill="#66CDFF" height="5" style="stroke: #333333; stroke-width: 1.0;" width="10" x="1" y="475"/><rect fill="#66CDFF" height="5" style="stroke: #333333; stroke-width: 1.0;" width="10" x="1" y="513.6"/><text fill="#000000" font-family="Fira Sans" font-size="14" font-style="italic" lengthAdjust="spacingAndGlyphs" textLength="36" x="52" y="493.09">«Vrc»</text><text fill="#000000" font-family="Fira Sans" font-size="14" lengthAdjust="spacingAndGlyphs" textLength="108" x="16" y="509.89">SwapchainImage</text><!--MD5=[f474ca078bd78d29e43d9c9138696efb]
entity Image--><rect fill="#66CDFF" filter="url(#f5qjde7q02aaa)" height="53.6" style="stroke: #333333; stroke-width: 1.0;" width="59" x="186.5" y="339"/><rect fill="#66CDFF" height="5" style="stroke: #333333; stroke-width: 1.0;" width="10" x="181.5" y="344"/><rect fill="#66CDFF" height="5" style="stroke: #333333; stroke-width: 1.0;" width="10" x="181.5" y="382.6"/><text fill="#000000" font-family="Fira Sans" font-size="14" font-style="italic" lengthAdjust="spacingAndGlyphs" textLength="36" x="198" y="362.09">«Vrc»</text><text fill="#000000" font-family="Fira Sans" font-size="14" lengthAdjust="spacingAndGlyphs" textLength="39" x="196.5" y="378.89">Image</text><!--MD5=[ff74cdb9d7cee1f338d42fda4bfd5a89]
entity Buffer--><rect fill="#FF6680" filter="url(#f5qjde7q02aaa)" height="53.6" style="stroke: #333333; stroke-width: 1.0;" width="60" x="897" y="339"/><rect fill="#FF6680" height="5" style="stroke: #333333; stroke-width: 1.0;" width="10" x="892" y="344"/><rect fill="#FF6680" height="5" style="stroke: #333333; stroke-width: 1.0;" width="10" x="892" y="382.6"/><text fill="#000000" font-family="Fira Sans" font-size="14" font-style="italic" lengthAdjust="spacingAndGlyphs" textLength="36" x="909" y="362.09">«Vrc»</text><text fill="#000000" font-family="Fira Sans" font-size="14" lengthAdjust="spacingAndGlyphs" textLength="40" x="907" y="378.89">Buffer</text><!--MD5=[1d6feb955f00a8743cca3180655ae592]
entity ImageView--><rect fill="#FF6680" filter="url(#f5qjde7q02aaa)" height="53.6" style="stroke: #333333; stroke-width: 1.0;" width="89" x="169.5" y="470"/><rect fill="#FF6680" height="5" style="stroke: #333333; stroke-width: 1.0;" width="10" x="164.5" y="475"/><rect fill="#FF6680" height="5" style="stroke: #333333; stroke-width: 1.0;" width="10" x="164.5" y="513.6"/><text fill="#000000" font-family="Fira Sans" font-size="14" font-style="italic" lengthAdjust="spacingAndGlyphs" textLength="36" x="196" y="493.09">«Vrc»</text><text fill="#000000" font-family="Fira Sans" font-size="14" lengthAdjust="spacingAndGlyphs" textLength="69" x="179.5" y="509.89">ImageView</text><!--MD5=[dfc4c350ab723b9a18f1debdf57a4051]
entity BufferView--><rect fill="#FF6680" filter="url(#f5qjde7q02aaa)" height="53.6" style="stroke: #333333; stroke-width: 1.0;" width="90" x="882" y="470"/><rect fill="#FF6680" height="5" style="stroke: #333333; stroke-width: 1.0;" width="10" x="877" y="475"/><rect fill="#FF6680" height="5" style="stroke: #333333; stroke-width: 1.0;" width="10" x="877" y="513.6"/><text fill="#000000" font-family="Fira Sans" font-size="14" font-style="italic" lengthAdjust="spacingAndGlyphs" textLength="36" x="909" y="493.09">«Vrc»</text><text fill="#000000" font-family="Fira Sans" font-size="14" lengthAdjust="spacingAndGlyphs" textLength="70" x="892" y="509.89">BufferView</text><!--MD5=[94b42f345d8efb9f3882644b7664390d]
entity CommandPool--><rect fill="#66CDFF" filter="url(#f5qjde7q02aaa)" height="53.6" style="stroke: #333333; stroke-width: 1.0;" width="112" x="285" y="339"/><rect fill="#66CDFF" height="5" style="stroke: #333333; stroke-width: 1.0;" width="10" x="280" y="344"/><rect fill="#66CDFF" height="5" style="stroke: #333333; stroke-width: 1.0;" width="10" x="280" y="382.6"/><text fill="#000000" font-family="Fira Sans" font-size="14" font-style="italic" lengthAdjust="spacingAndGlyphs" textLength="36" x="323" y="362.09">«Vrc»</text><text fill="#000000" font-family="Fira Sans" font-size="14" lengthAdjust="spacingAndGlyphs" textLength="92" x="295" y="378.89">CommandPool</text><!--MD5=[ac29b704edc6d673d29ab010a0a75737]
entity CommandBuffer--><rect fill="#66CDFF" filter="url(#f5qjde7q02aaa)" height="53.6" style="stroke: #333333; stroke-width: 1.0;" width="124" x="294" y="470"/><rect fill="#66CDFF" height="5" style="stroke: #333333; stroke-width: 1.0;" width="10" x="289" y="475"/><rect fill="#66CDFF" height="5" style="stroke: #333333; stroke-width: 1.0;" width="10" x="289" y="513.6"/><text fill="#000000" font-family="Fira Sans" font-size="14" font-style="italic" lengthAdjust="spacingAndGlyphs" textLength="36" x="338" y="493.09">«Vrc»</text><text fill="#000000" font-family="Fira Sans" font-size="14" lengthAdjust="spacingAndGlyphs" textLength="104" x="304" y="509.89">CommandBuffer</text><!--MD5=[aaa86911056d77c0094bc9419cc48a1e]
entity RenderPass--><rect fill="#FF6680" filter="url(#f5qjde7q02aaa)" height="53.6" style="stroke: #333333; stroke-width: 1.0;" width="95" x="432.5" y="339"/><rect fill="#FF6680" height="5" style="stroke: #333333; stroke-width: 1.0;" width="10" x="427.5" y="344"/><rect fill="#FF6680" height="5" style="stroke: #333333; stroke-width: 1.0;" width="10" x="427.5" y="382.6"/><text fill="#000000" font-family="Fira Sans" font-size="14" font-style="italic" lengthAdjust="spacingAndGlyphs" textLength="36" x="462" y="362.09">«Vrc»</text><text fill="#000000" font-family="Fira Sans" font-size="14" lengthAdjust="spacingAndGlyphs" textLength="75" x="442.5" y="378.89">RenderPass</text><!--MD5=[90701dc8c13adb3d9edc282c27eb9529]
entity FrameBuffer--><rect fill="#FF6680" filter="url(#f5qjde7q02aaa)" height="53.6" style="stroke: #333333; stroke-width: 1.0;" width="100" x="453" y="470"/><rect fill="#FF6680" height="5" style="stroke: #333333; stroke-width: 1.0;" width="10" x="448" y="475"/><rect fill="#FF6680" height="5" style="stroke: #333333; stroke-width: 1.0;" width="10" x="448" y="513.6"/><text fill="#000000" font-family="Fira Sans" font-size="14" font-style="italic" lengthAdjust="spacingAndGlyphs" textLength="36" x="485" y="493.09">«Vrc»</text><text fill="#000000" font-family="Fira Sans" font-size="14" lengthAdjust="spacingAndGlyphs" textLength="80" x="463" y="509.89">FrameBuffer</text><!--MD5=[1ffdb862bcd5a17046dc5b2ba3c3c467]
entity ComputePipeline--><rect fill="#FF6680" filter="url(#f5qjde7q02aaa)" height="53.6" style="stroke: #333333; stroke-width: 1.0;" width="129" x="641.5" y="601"/><rect fill="#FF6680" height="5" style="stroke: #333333; stroke-width: 1.0;" width="10" x="636.5" y="606"/><rect fill="#FF6680" height="5" style="stroke: #333333; stroke-width: 1.0;" width="10" x="636.5" y="644.6"/><text fill="#000000" font-family="Fira Sans" font-size="14" font-style="italic" lengthAdjust="spacingAndGlyphs" textLength="36" x="688" y="624.09">«Vrc»</text><text fill="#000000" font-family="Fira Sans" font-size="14" lengthAdjust="spacingAndGlyphs" textLength="109" x="651.5" y="640.89">ComputePipeline</text><!--MD5=[2547e0e8dfc9762fafe4ea6f3eb9cf06]
entity GraphicsPipeline--><rect fill="#FF6680" filter="url(#f5qjde7q02aaa)" height="53.6" style="stroke: #333333; stroke-width: 1.0;" width="128" x="806" y="601"/><rect fill="#FF6680" height="5" style="stroke: #333333; stroke-width: 1.0;" width="10" x="801" y="606"/><rect fill="#FF6680" height="5" style="stroke: #333333; stroke-width: 1.0;" width="10" x="801" y="644.6"/><text fill="#000000" font-family="Fira Sans" font-size="14" font-style="italic" lengthAdjust="spacingAndGlyphs" textLength="36" x="852" y="624.09">«Vrc»</text><text fill="#000000" font-family="Fira Sans" font-size="14" lengthAdjust="spacingAndGlyphs" textLength="108" x="816" y="640.89">GraphicsPipeline</text><!--MD5=[b3cee5650c30f405e16a7ecef5202e47]
entity DescriptorSetLayout--><rect fill="#FF6680" filter="url(#f5qjde7q02aaa)" height="53.6" style="stroke: #333333; stroke-width: 1.0;" width="150" x="712" y="339"/><rect fill="#FF6680" height="5" style="stroke: #333333; stroke-width: 1.0;" width="10" x="707" y="344"/><rect fill="#FF6680" height="5" style="stroke: #333333; stroke-width: 1.0;" width="10" x="707" y="382.6"/><text fill="#000000" font-family="Fira Sans" font-size="14" font-style="italic" lengthAdjust="spacingAndGlyphs" textLength="36" x="769" y="362.09">«Vrc»</text><text fill="#000000" font-family="Fira Sans" font-size="14" lengthAdjust="spacingAndGlyphs" textLength="130" x="722" y="378.89">DescriptorSetLayout</text><!--MD5=[79872d1326fc3a5beee5b28ed20020ae]
entity PipelineLayout--><rect fill="#FF6680" filter="url(#f5qjde7q02aaa)" height="53.6" style="stroke: #333333; stroke-width: 1.0;" width="115" x="730.5" y="470"/><rect fill="#FF6680" height="5" style="stroke: #333333; stroke-width: 1.0;" width="10" x="725.5" y="475"/><rect fill="#FF6680" height="5" style="stroke: #333333; stroke-width: 1.0;" width="10" x="725.5" y="513.6"/><text fill="#000000" font-family="Fira Sans" font-size="14" font-style="italic" lengthAdjust="spacingAndGlyphs" textLength="36" x="770" y="493.09">«Vrc»</text><text fill="#000000" font-family="Fira Sans" font-size="14" lengthAdjust="spacingAndGlyphs" textLength="95" x="740.5" y="509.89">PipelineLayout</text><!--MD5=[525b145ed559d8349860a43fb55391e9]
entity DescriptorPool--><rect fill="#FF6680" filter="url(#f5qjde7q02aaa)" height="53.6" style="stroke: #333333; stroke-width: 1.0;" width="114" x="563" y="339"/><rect fill="#FF6680" height="5" style="stroke: #333333; stroke-width: 1.0;" width="10" x="558" y="344"/><rect fill="#FF6680" height="5" style="stroke: #333333; stroke-width: 1.0;" width="10" x="558" y="382.6"/><text fill="#000000" font-family="Fira Sans" font-size="14" font-style="italic" lengthAdjust="spacingAndGlyphs" textLength="36" x="602" y="362.09">«Vrc»</text><text fill="#000000" font-family="Fira Sans" font-size="14" lengthAdjust="spacingAndGlyphs" textLength="94" x="573" y="378.89">DescriptorPool</text><!--MD5=[9e0743f2801aced260ae37367b66ae02]
entity DescriptorSet--><rect fill="#FF6680" filter="url(#f5qjde7q02aaa)" height="53.6" style="stroke: #333333; stroke-width: 1.0;" width="107" x="588.5" y="470"/><rect fill="#FF6680" height="5" style="stroke: #333333; stroke-width: 1.0;" width="10" x="583.5" y="475"/><rect fill="#FF6680" height="5" style="stroke: #333333; stroke-width: 1.0;" width="10" x="583.5" y="513.6"/><text fill="#000000" font-family="Fira Sans" font-size="14" font-style="italic" lengthAdjust="spacingAndGlyphs" textLength="36" x="624" y="493.09">«Vrc»</text><text fill="#000000" font-family="Fira Sans" font-size="14" lengthAdjust="spacingAndGlyphs" textLength="87" x="598.5" y="509.89">DescriptorSet</text><!--MD5=[178d138ca418f22dbf706354932801c4]
reverse link Instance to PhysicalDevice--><path d="M388.32,68.83 C391.48,87.45 395.38,110.39 398.01,125.89 " fill="none" id="Instance&lt;-PhysicalDevice" style="stroke: #000000; stroke-width: 1.0;"/><polygon fill="#000000" points="387.45,63.7,384.9975,73.2386,388.2789,68.6308,392.8867,71.9123,387.45,63.7" style="stroke: #000000; stroke-width: 1.0;"/><!--MD5=[f2ba400cd7de414d9a9741dfbead0412]
reverse link Instance to Surface--><path d="M340.73,58.88 C336.13,61.02 331.49,63.1 327,65 C263.02,92.07 186.15,118.2 142.6,132.44 " fill="none" id="Instance&lt;-Surface" style="stroke: #000000; stroke-width: 1.0;"/><polygon fill="#000000" points="345.31,56.72,335.4633,56.9284,340.7849,58.8469,338.8664,64.1685,345.31,56.72" style="stroke: #000000; stroke-width: 1.0;"/><!--MD5=[3e0807e64cb1f9217d9bd62b2a7fecf2]
reverse link Window to Surface--><path d="M108,60.07 C108,79.76 108,107.93 108,125.97 " fill="none" id="Window&lt;-Surface" style="stroke: #000000; stroke-width: 1.0;"/><polygon fill="#000000" points="108,55,104,64,108,60,112,64,108,55" style="stroke: #000000; stroke-width: 1.0;"/><!--MD5=[5244d0020466267193e1ddb4dd69dca4]
reverse link PhysicalDevice to Device--><path d="M407.06,168.12 C411.46,184.54 417.42,206.78 422.02,223.94 " fill="none" id="PhysicalDevice&lt;-Device" style="stroke: #000000; stroke-width: 1.0;"/><polygon fill="#000000" points="405.75,163.23,404.2273,172.9604,407.0499,168.0581,411.9522,170.8806,405.75,163.23" style="stroke: #000000; stroke-width: 1.0;"/><!--MD5=[23f64212de97a3cd89d252a40558ec97]
reverse link Surface to Swapchain--><path d="M107.9,168.34 C107.71,209.34 107.32,295.22 107.12,338.65 " fill="none" id="Surface&lt;-Swapchain" style="stroke: #000000; stroke-width: 1.0;"/><polygon fill="#000000" points="107.92,163.09,103.8686,172.067,107.8914,168.0899,111.8685,172.1127,107.92,163.09" style="stroke: #000000; stroke-width: 1.0;"/><text fill="#000000" font-family="Fira Sans" font-size="13" lengthAdjust="spacingAndGlyphs" textLength="32" x="109" y="255.655">«Vrc»</text><!--MD5=[836376d7c55fb2cb32bc2405f03f9175]
reverse link Device to Queue--><path d="M466,251 C475.98,251 485.97,251 495.96,251 " fill="none" id="Device&lt;-Queue" style="stroke: #000000; stroke-width: 1.0;"/><polygon fill="#000000" points="460.77,251,469.77,255,465.77,251,469.77,247,460.77,251" style="stroke: #000000; stroke-width: 1.0;"/><!--MD5=[a200845958dec60fbdad90130c563747]
reverse link Device to Swapchain--><path d="M392.05,263.41 C341.36,279.28 247.6,309.42 169,339 C163.32,341.14 157.39,343.48 151.54,345.86 " fill="none" id="Device&lt;-Swapchain" style="stroke: #000000; stroke-width: 1.0;"/><polygon fill="#000000" points="397.12,261.83,387.3377,260.6865,392.3461,263.3165,389.7161,268.3248,397.12,261.83" style="stroke: #000000; stroke-width: 1.0;"/><!--MD5=[5d2fc20e973026d3d70a36b451111cd3]
reverse link Device to Image--><path d="M392.68,271.27 C351.22,293.26 284.17,328.83 245.7,349.24 " fill="none" id="Device&lt;-Image" style="stroke: #000000; stroke-width: 1.0;"/><polygon fill="#000000" points="397.11,268.92,387.2842,269.5929,392.6904,271.2581,391.0252,276.6643,397.11,268.92" style="stroke: #000000; stroke-width: 1.0;"/><!--MD5=[7ed3f5b949e2f9f39ea6c581de42e9cd]
reverse link Device to Buffer--><path d="M465.26,272.94 C469.47,274.86 473.77,276.6 478,278 C649.58,334.71 708.92,280.79 880,339 C885.65,340.92 891.41,343.51 896.88,346.31 " fill="none" id="Device&lt;-Buffer" style="stroke: #000000; stroke-width: 1.0;"/><polygon fill="#000000" points="460.74,270.8,467.1745,278.2564,465.2625,272.9324,470.5864,271.0204,460.74,270.8" style="stroke: #000000; stroke-width: 1.0;"/><!--MD5=[f6bcffb38d475edb517ffdcb614f3bef]
reverse link Device to CommandPool--><path d="M405.18,282.59 C391.45,300.22 374.38,322.13 361.3,338.93 " fill="none" id="Device&lt;-CommandPool" style="stroke: #000000; stroke-width: 1.0;"/><polygon fill="#000000" points="408.59,278.21,399.9036,282.8519,405.5173,282.1545,406.2148,287.7681,408.59,278.21" style="stroke: #000000; stroke-width: 1.0;"/><!--MD5=[e0ad2de0215056282daeafd13a4afdde]
reverse link Device to RenderPass--><path d="M443.01,283.04 C450.93,300.59 460.72,322.28 468.24,338.93 " fill="none" id="Device&lt;-RenderPass" style="stroke: #000000; stroke-width: 1.0;"/><polygon fill="#000000" points="440.83,278.21,440.8871,288.0587,442.8872,282.7672,448.1787,284.7672,440.83,278.21" style="stroke: #000000; stroke-width: 1.0;"/><!--MD5=[1d8ab4b6eb246067a2f851c4a30eda2c]
reverse link Device to DescriptorSetLayout--><path d="M465.25,272.33 C469.49,274.38 473.8,276.32 478,278 C571,315.25 598.57,311.82 695,339 C700.43,340.53 706.04,342.11 711.69,343.71 " fill="none" id="Device&lt;-DescriptorSetLayout" style="stroke: #000000; stroke-width: 1.0;"/><polygon fill="#000000" points="460.69,270.07,466.9704,277.6566,465.1678,272.2947,470.5298,270.4921,460.69,270.07" style="stroke: #000000; stroke-width: 1.0;"/><!--MD5=[c683be054c18037a04d3c894258f63c1]
reverse link Device to DescriptorPool--><path d="M465.07,273.34 C496.54,291.96 542.28,319.02 575.91,338.91 " fill="none" id="Device&lt;-DescriptorPool" style="stroke: #000000; stroke-width: 1.0;"/><polygon fill="#000000" points="460.54,270.66,466.2507,278.6842,464.8438,273.2051,470.3229,271.7981,460.54,270.66" style="stroke: #000000; stroke-width: 1.0;"/><!--MD5=[dfa72a60997d7779d3371d7381ce0441]
reverse link Swapchain to SwapchainImage--><path d="M98.12,397.96 C91.81,419.95 83.44,449.14 77.48,469.93 " fill="none" id="Swapchain&lt;-SwapchainImage" style="stroke: #000000; stroke-width: 1.0;"/><polygon fill="#000000" points="99.51,393.11,93.1973,400.6698,98.1402,397.9187,100.8913,402.8615,99.51,393.11" style="stroke: #000000; stroke-width: 1.0;"/><!--MD5=[18bdaaed14c411f280be5392ec14f6b7]
reverse link Image to SwapchainImage--><path d="M182.51,396.59 C157.47,418.72 123.53,448.7 99.5,469.93 " fill="none" id="Image&lt;-SwapchainImage" style="stroke: #000000; stroke-width: 1.0; stroke-dasharray: 7.0,7.0;"/><polygon fill="#000000" points="186.45,393.11,177.0546,396.0641,182.7004,396.4176,182.3468,402.0634,186.45,393.11" style="stroke: #000000; stroke-width: 1.0;"/><text fill="#000000" font-family="Fira Sans" font-size="13" lengthAdjust="spacingAndGlyphs" textLength="43" x="153" y="436.155">Inlined</text><!--MD5=[7edb7ac24b13a7ee42ee0a9c329f1ffc]
reverse link Image to ImageView--><path d="M215.52,398.24 C215.18,420.19 214.73,449.22 214.4,469.93 " fill="none" id="Image&lt;-ImageView" style="stroke: #000000; stroke-width: 1.0;"/><polygon fill="#000000" points="215.6,393.11,211.4718,402.0519,215.5286,398.1095,219.471,402.1662,215.6,393.11" style="stroke: #000000; stroke-width: 1.0;"/><!--MD5=[9e5a877cae309ef4a8edae84f5d290eb]
reverse link Buffer to BufferView--><path d="M927,398.24 C927,420.19 927,449.22 927,469.93 " fill="none" id="Buffer&lt;-BufferView" style="stroke: #000000; stroke-width: 1.0;"/><polygon fill="#000000" points="927,393.11,923,402.11,927,398.11,931,402.11,927,393.11" style="stroke: #000000; stroke-width: 1.0;"/><!--MD5=[a98ba249a758eccde728ad10bb3a8e03]
reverse link CommandPool to CommandBuffer--><path d="M344.63,398.24 C347.19,420.19 350.56,449.22 352.97,469.93 " fill="none" id="CommandPool&lt;-CommandBuffer" style="stroke: #000000; stroke-width: 1.0;"/><polygon fill="#000000" points="344.04,393.11,341.0939,402.5079,344.611,398.0773,349.0416,401.5944,344.04,393.11" style="stroke: #000000; stroke-width: 1.0;"/><!--MD5=[a7febcd2bed0c22eca4c8729479453ee]
reverse link RenderPass to FrameBuffer--><path d="M485.57,398.24 C489.48,420.19 494.66,449.22 498.35,469.93 " fill="none" id="RenderPass&lt;-FrameBuffer" style="stroke: #000000; stroke-width: 1.0; stroke-dasharray: 7.0,7.0;"/><polygon fill="#000000" points="484.65,393.11,482.2829,402.6702,485.523,398.0332,490.16,401.2733,484.65,393.11" style="stroke: #000000; stroke-width: 1.0;"/><!--MD5=[13b699461f32b51a6848d9a573756111]
reverse link DescriptorSetLayout to DescriptorSet--><path d="M753.74,396.59 C728.87,418.72 695.17,448.7 671.3,469.93 " fill="none" id="DescriptorSetLayout&lt;-DescriptorSet" style="stroke: #000000; stroke-width: 1.0; stroke-dasharray: 7.0,7.0;"/><polygon fill="#000000" points="757.66,393.11,748.2702,396.0818,753.9167,396.4247,753.5738,402.0712,757.66,393.11" style="stroke: #000000; stroke-width: 1.0;"/><text fill="#000000" font-family="Fira Sans" font-size="13" lengthAdjust="spacingAndGlyphs" textLength="35" x="724" y="436.155">Copy?</text><!--MD5=[8f0c79ef6bb73fab9785932495789586]
reverse link DescriptorSetLayout to PipelineLayout--><path d="M787.24,398.24 C787.41,420.19 787.64,449.22 787.8,469.93 " fill="none" id="DescriptorSetLayout&lt;-PipelineLayout" style="stroke: #000000; stroke-width: 1.0; stroke-dasharray: 7.0,7.0;"/><polygon fill="#000000" points="787.2,393.11,783.2773,402.144,787.2429,398.1098,791.277,402.0754,787.2,393.11" style="stroke: #000000; stroke-width: 1.0;"/><text fill="#000000" font-family="Fira Sans" font-size="13" lengthAdjust="spacingAndGlyphs" textLength="85" x="788" y="436.155">Copy? + Device</text><!--MD5=[7e0dc7a75d00bc06b584df322f2c74b4]
reverse link PipelineLayout to ComputePipeline--><path d="M768.67,528.41 C754.65,550.46 735.9,579.96 722.57,600.93 " fill="none" id="PipelineLayout&lt;-ComputePipeline" style="stroke: #000000; stroke-width: 1.0; stroke-dasharray: 7.0,7.0;"/><polygon fill="#000000" points="771.41,524.11,763.2131,529.5699,768.733,528.333,769.9699,533.853,771.41,524.11" style="stroke: #000000; stroke-width: 1.0;"/><text fill="#000000" font-family="Fira Sans" font-size="13" lengthAdjust="spacingAndGlyphs" textLength="35" x="752" y="567.155">Copy?</text><!--MD5=[27cc0bccccfed3058d66055fcc0a1ef1]
reverse link PipelineLayout to GraphicsPipeline--><path d="M807.33,528.41 C821.35,550.46 840.1,579.96 853.43,600.93 " fill="none" id="PipelineLayout&lt;-GraphicsPipeline" style="stroke: #000000; stroke-width: 1.0; stroke-dasharray: 7.0,7.0;"/><polygon fill="#000000" points="804.59,524.11,806.0301,533.853,807.267,528.333,812.7869,529.5699,804.59,524.11" style="stroke: #000000; stroke-width: 1.0;"/><text fill="#000000" font-family="Fira Sans" font-size="13" lengthAdjust="spacingAndGlyphs" textLength="35" x="834" y="567.155">Copy?</text><!--MD5=[a938b21e95382d85ef65afae3004fc90]
reverse link DescriptorPool to DescriptorSet--><path d="M625.33,398.24 C629.07,420.19 634.02,449.22 637.55,469.93 " fill="none" id="DescriptorPool&lt;-DescriptorSet" style="stroke: #000000; stroke-width: 1.0;"/><polygon fill="#000000" points="624.45,393.11,622.0243,402.6555,625.2928,398.0385,629.9099,401.3069,624.45,393.11" style="stroke: #000000; stroke-width: 1.0;"/><!--MD5=[83ba3c6735df9e7dee0c51fb7a3e8f49]
@startuml object_dependency_graph

skinparam {
	defaultFontName Fira Sans

	ArrowColor #black
	ComponentBorderColor #333
	ComponentBorderThickness 1
}

note left of [Instance]
	<color 66FF98>Green</color> = done
	<color 66CDFF>Blue</color> = in-progress
	<color FF6680>Red</color> = planned
end note

component [Instance] <<Vrc>> #66FF98
component [Window] #66FF98

component [PhysicalDevice] #66FF98
component [Surface] #66FF98

component [Device] <<Vrc>> #66FF98

component [Queue] <<Vrc>> #66CDFF
component [Swapchain] <<Vrc>> #66CDFF
component [SwapchainImage] <<Vrc>> #66CDFF

component [Image] <<Vrc>> #66CDFF
component [Buffer] <<Vrc>> #FF6680

component [ImageView] <<Vrc>> #FF6680
component [BufferView] <<Vrc>> #FF6680

component [CommandPool] <<Vrc>> #66CDFF
component [CommandBuffer] <<Vrc>> #66CDFF

component [RenderPass] <<Vrc>> #FF6680
component [FrameBuffer] <<Vrc>> #FF6680
component [ComputePipeline] <<Vrc>> #FF6680
component [GraphicsPipeline] <<Vrc>> #FF6680

component [DescriptorSetLayout] <<Vrc>> #FF6680
component [PipelineLayout] <<Vrc>> #FF6680

component [DescriptorPool] <<Vrc>> #FF6680

component [DescriptorSet] <<Vrc>> #FF6680

[Instance] <- - [PhysicalDevice]
[Instance] <- - [Surface]

[Window] <- - [Surface]
[PhysicalDevice] <- - [Device]
[Surface] <- - [Swapchain] : <<Vrc>>

[Device] <- [Queue]
[Device] <- - [Swapchain]
[Device] <- - [Image]
[Device] <- - [Buffer]
[Device] <- - [CommandPool]
[Device] <- - [RenderPass]
[Device] <- - [DescriptorSetLayout]
[Device] <- - [DescriptorPool]

[Swapchain] <- - [SwapchainImage]

[Image] <.. [SwapchainImage] : Inlined
[Image] <- - [ImageView]
[Buffer] <- - [BufferView]

[CommandPool] <- - [CommandBuffer]

[RenderPass] <.. [FrameBuffer]
[DescriptorSetLayout] <.. [DescriptorSet] : Copy?
[DescriptorSetLayout] <.. [PipelineLayout] : Copy? + Device
[PipelineLayout] <.. [ComputePipeline] : Copy?
[PipelineLayout] <.. [GraphicsPipeline] : Copy?
[DescriptorPool] <- - [DescriptorSet]

@enduml

PlantUML version 1.2020.02(Sun Mar 01 11:22:07 CET 2020)
(GPL source distribution)
Java Runtime: OpenJDK Runtime Environment
JVM: OpenJDK 64-Bit Server VM
Java Version: 13.0.1+9
Operating System: Mac OS X
Default Encoding: UTF-8
Language: en
Country: CZ
--></g></svg>