<?xml version="1.0" encoding="UTF-8" standalone="no"?><svg xmlns="http://www.w3.org/2000/svg" xmlns:xlink="http://www.w3.org/1999/xlink" contentScriptType="application/ecmascript" contentStyleType="text/css" height="551px" preserveAspectRatio="none" style="width:1026px;height:551px;" version="1.1" viewBox="0 0 1026 551" width="1026px" zoomAndPan="magnify"><defs><filter height="300%" id="f1cwirmfkimq0q" width="300%" x="-1" y="-1"><feGaussianBlur result="blurOut" stdDeviation="2.0"/><feColorMatrix in="blurOut" result="blurOut2" type="matrix" values="0 0 0 0 0 0 0 0 0 0 0 0 0 0 0 0 0 0 .4 0"/><feOffset dx="4.0" dy="4.0" in="blurOut2" result="blurOut3"/><feBlend in="SourceGraphic" in2="blurOut3" mode="normal"/></filter></defs><g><!--MD5=[77a0c14de6685fa065b9b4e019b7f347]
entity Instance--><rect fill="#66FF98" filter="url(#f1cwirmfkimq0q)" height="53.6" style="stroke: #333333; stroke-width: 1.0;" width="75" x="345.5" y="9.5"/><rect fill="#66FF98" height="5" style="stroke: #333333; stroke-width: 1.0;" width="10" x="340.5" y="14.5"/><rect fill="#66FF98" height="5" style="stroke: #333333; stroke-width: 1.0;" width="10" x="340.5" y="53.1"/><text fill="#000000" font-family="Fira Sans" font-size="14" font-style="italic" lengthAdjust="spacingAndGlyphs" textLength="36" x="365" y="32.59">«Vrc»</text><text fill="#000000" font-family="Fira Sans" font-size="14" lengthAdjust="spacingAndGlyphs" textLength="55" x="355.5" y="49.39">Instance</text><path d="M180,8 L180,64.8 A0,0 0 0 0 180,64.8 L310,64.8 A0,0 0 0 0 310,64.8 L310,40.5 L345.48,36.5 L310,32.5 L310,18 L300,8 L180,8 A0,0 0 0 0 180,8 " fill="#FBFB77" filter="url(#f1cwirmfkimq0q)" style="stroke: #A80036; stroke-width: 1.0;"/><path d="M300,8 L300,18 L310,18 L300,8 " fill="#FBFB77" style="stroke: #A80036; stroke-width: 1.0;"/><text fill="#66FF98" font-family="Fira Sans" font-size="13" lengthAdjust="spacingAndGlyphs" textLength="35" x="186" y="25.155">Green</text><text fill="#000000" font-family="Fira Sans" font-size="13" lengthAdjust="spacingAndGlyphs" textLength="41" x="224" y="25.155">= done</text><text fill="#66CDFF" font-family="Fira Sans" font-size="13" lengthAdjust="spacingAndGlyphs" textLength="27" x="186" y="40.755">Blue</text><text fill="#000000" font-family="Fira Sans" font-size="13" lengthAdjust="spacingAndGlyphs" textLength="79" x="216" y="40.755">= in-progress</text><text fill="#FF6680" font-family="Fira Sans" font-size="13" lengthAdjust="spacingAndGlyphs" textLength="23" x="186" y="56.355">Red</text><text fill="#000000" font-family="Fira Sans" font-size="13" lengthAdjust="spacingAndGlyphs" textLength="60" x="212" y="56.355">= planned</text><!--MD5=[8d6925f44e0e1541670b54b5f2c3eb41]
entity Window--><rect fill="#66FF98" filter="url(#f1cwirmfkimq0q)" height="36.8" style="stroke: #333333; stroke-width: 1.0;" width="70" x="476" y="18"/><rect fill="#66FF98" height="5" style="stroke: #333333; stroke-width: 1.0;" width="10" x="471" y="23"/><rect fill="#66FF98" height="5" style="stroke: #333333; stroke-width: 1.0;" width="10" x="471" y="44.8"/><text fill="#000000" font-family="Fira Sans" font-size="14" lengthAdjust="spacingAndGlyphs" textLength="50" x="486" y="41.09">Window</text><!--MD5=[5789a701af2564c361c8c4b0bb67bc5e]
entity PhysicalDevice--><rect fill="#66FF98" filter="url(#f1cwirmfkimq0q)" height="36.8" style="stroke: #333333; stroke-width: 1.0;" width="116" x="305" y="134.5"/><rect fill="#66FF98" height="5" style="stroke: #333333; stroke-width: 1.0;" width="10" x="300" y="139.5"/><rect fill="#66FF98" height="5" style="stroke: #333333; stroke-width: 1.0;" width="10" x="300" y="161.3"/><text fill="#000000" font-family="Fira Sans" font-size="14" lengthAdjust="spacingAndGlyphs" textLength="96" x="315" y="157.59">PhysicalDevice</text><!--MD5=[d5b65137a7b1bf40136b14d6cc3c273c]
entity Surface--><rect fill="#66FF98" filter="url(#f1cwirmfkimq0q)" height="36.8" style="stroke: #333333; stroke-width: 1.0;" width="69" x="476.5" y="134.5"/><rect fill="#66FF98" height="5" style="stroke: #333333; stroke-width: 1.0;" width="10" x="471.5" y="139.5"/><rect fill="#66FF98" height="5" style="stroke: #333333; stroke-width: 1.0;" width="10" x="471.5" y="161.3"/><text fill="#000000" font-family="Fira Sans" font-size="14" lengthAdjust="spacingAndGlyphs" textLength="49" x="486.5" y="157.59">Surface</text><!--MD5=[1481f43b514325438f831f19ea58e9e2]
entity Device--><rect fill="#66FF98" filter="url(#f1cwirmfkimq0q)" height="53.6" style="stroke: #333333; stroke-width: 1.0;" width="63" x="274.5" y="241"/><rect fill="#66FF98" height="5" style="stroke: #333333; stroke-width: 1.0;" width="10" x="269.5" y="246"/><rect fill="#66FF98" height="5" style="stroke: #333333; stroke-width: 1.0;" width="10" x="269.5" y="284.6"/><text fill="#000000" font-family="Fira Sans" font-size="14" font-style="italic" lengthAdjust="spacingAndGlyphs" textLength="36" x="288" y="264.09">«Vrc»</text><text fill="#000000" font-family="Fira Sans" font-size="14" lengthAdjust="spacingAndGlyphs" textLength="43" x="284.5" y="280.89">Device</text><!--MD5=[9762e67b79b719797c568dcdd43c32f7]
entity Queue--><rect fill="#66CDFF" filter="url(#f1cwirmfkimq0q)" height="53.6" style="stroke: #333333; stroke-width: 1.0;" width="62" x="393" y="356"/><rect fill="#66CDFF" height="5" style="stroke: #333333; stroke-width: 1.0;" width="10" x="388" y="361"/><rect fill="#66CDFF" height="5" style="stroke: #333333; stroke-width: 1.0;" width="10" x="388" y="399.6"/><text fill="#000000" font-family="Fira Sans" font-size="14" font-style="italic" lengthAdjust="spacingAndGlyphs" textLength="36" x="406" y="379.09">«Vrc»</text><text fill="#000000" font-family="Fira Sans" font-size="14" lengthAdjust="spacingAndGlyphs" textLength="42" x="403" y="395.89">Queue</text><!--MD5=[7a22288d6da5f69922be8ffcf0fcbe4e]
entity Swapchain--><rect fill="#66CDFF" filter="url(#f1cwirmfkimq0q)" height="53.6" style="stroke: #333333; stroke-width: 1.0;" width="89" x="490.5" y="356"/><rect fill="#66CDFF" height="5" style="stroke: #333333; stroke-width: 1.0;" width="10" x="485.5" y="361"/><rect fill="#66CDFF" height="5" style="stroke: #333333; stroke-width: 1.0;" width="10" x="485.5" y="399.6"/><text fill="#000000" font-family="Fira Sans" font-size="14" font-style="italic" lengthAdjust="spacingAndGlyphs" textLength="36" x="517" y="379.09">«Vrc»</text><text fill="#000000" font-family="Fira Sans" font-size="14" lengthAdjust="spacingAndGlyphs" textLength="69" x="500.5" y="395.89">Swapchain</text><!--MD5=[53b911199a3644c85b37bbf4df7dfa26]
entity SwapchainImage--><rect fill="#66CDFF" filter="url(#f1cwirmfkimq0q)" height="53.6" style="stroke: #333333; stroke-width: 1.0;" width="128" x="367" y="487"/><rect fill="#66CDFF" height="5" style="stroke: #333333; stroke-width: 1.0;" width="10" x="362" y="492"/><rect fill="#66CDFF" height="5" style="stroke: #333333; stroke-width: 1.0;" width="10" x="362" y="530.6"/><text fill="#000000" font-family="Fira Sans" font-size="14" font-style="italic" lengthAdjust="spacingAndGlyphs" textLength="36" x="413" y="510.09">«Vrc»</text><text fill="#000000" font-family="Fira Sans" font-size="14" lengthAdjust="spacingAndGlyphs" textLength="108" x="377" y="526.89">SwapchainImage</text><!--MD5=[f474ca078bd78d29e43d9c9138696efb]
entity Image--><rect fill="#66CDFF" filter="url(#f1cwirmfkimq0q)" height="53.6" style="stroke: #333333; stroke-width: 1.0;" width="59" x="139.5" y="356"/><rect fill="#66CDFF" height="5" style="stroke: #333333; stroke-width: 1.0;" width="10" x="134.5" y="361"/><rect fill="#66CDFF" height="5" style="stroke: #333333; stroke-width: 1.0;" width="10" x="134.5" y="399.6"/><text fill="#000000" font-family="Fira Sans" font-size="14" font-style="italic" lengthAdjust="spacingAndGlyphs" textLength="36" x="151" y="379.09">«Vrc»</text><text fill="#000000" font-family="Fira Sans" font-size="14" lengthAdjust="spacingAndGlyphs" textLength="39" x="149.5" y="395.89">Image</text><!--MD5=[ff74cdb9d7cee1f338d42fda4bfd5a89]
entity Buffer--><rect fill="#FF6680" filter="url(#f1cwirmfkimq0q)" height="53.6" style="stroke: #333333; stroke-width: 1.0;" width="60" x="29" y="356"/><rect fill="#FF6680" height="5" style="stroke: #333333; stroke-width: 1.0;" width="10" x="24" y="361"/><rect fill="#FF6680" height="5" style="stroke: #333333; stroke-width: 1.0;" width="10" x="24" y="399.6"/><text fill="#000000" font-family="Fira Sans" font-size="14" font-style="italic" lengthAdjust="spacingAndGlyphs" textLength="36" x="41" y="379.09">«Vrc»</text><text fill="#000000" font-family="Fira Sans" font-size="14" lengthAdjust="spacingAndGlyphs" textLength="40" x="39" y="395.89">Buffer</text><!--MD5=[1d6feb955f00a8743cca3180655ae592]
entity ImageView--><rect fill="#FF6680" filter="url(#f1cwirmfkimq0q)" height="53.6" style="stroke: #333333; stroke-width: 1.0;" width="89" x="131.5" y="487"/><rect fill="#FF6680" height="5" style="stroke: #333333; stroke-width: 1.0;" width="10" x="126.5" y="492"/><rect fill="#FF6680" height="5" style="stroke: #333333; stroke-width: 1.0;" width="10" x="126.5" y="530.6"/><text fill="#000000" font-family="Fira Sans" font-size="14" font-style="italic" lengthAdjust="spacingAndGlyphs" textLength="36" x="158" y="510.09">«Vrc»</text><text fill="#000000" font-family="Fira Sans" font-size="14" lengthAdjust="spacingAndGlyphs" textLength="69" x="141.5" y="526.89">ImageView</text><!--MD5=[dfc4c350ab723b9a18f1debdf57a4051]
entity BufferView--><rect fill="#FF6680" filter="url(#f1cwirmfkimq0q)" height="53.6" style="stroke: #333333; stroke-width: 1.0;" width="90" x="6" y="487"/><rect fill="#FF6680" height="5" style="stroke: #333333; stroke-width: 1.0;" width="10" x="1" y="492"/><rect fill="#FF6680" height="5" style="stroke: #333333; stroke-width: 1.0;" width="10" x="1" y="530.6"/><text fill="#000000" font-family="Fira Sans" font-size="14" font-style="italic" lengthAdjust="spacingAndGlyphs" textLength="36" x="33" y="510.09">«Vrc»</text><text fill="#000000" font-family="Fira Sans" font-size="14" lengthAdjust="spacingAndGlyphs" textLength="70" x="16" y="526.89">BufferView</text><!--MD5=[94b42f345d8efb9f3882644b7664390d]
entity CommandPool--><rect fill="#FF6680" filter="url(#f1cwirmfkimq0q)" height="53.6" style="stroke: #333333; stroke-width: 1.0;" width="112" x="589" y="9.5"/><rect fill="#FF6680" height="5" style="stroke: #333333; stroke-width: 1.0;" width="10" x="584" y="14.5"/><rect fill="#FF6680" height="5" style="stroke: #333333; stroke-width: 1.0;" width="10" x="584" y="53.1"/><text fill="#000000" font-family="Fira Sans" font-size="14" font-style="italic" lengthAdjust="spacingAndGlyphs" textLength="36" x="627" y="32.59">«Vrc»</text><text fill="#000000" font-family="Fira Sans" font-size="14" lengthAdjust="spacingAndGlyphs" textLength="92" x="599" y="49.39">CommandPool</text><!--MD5=[ac29b704edc6d673d29ab010a0a75737]
entity CommandBuffer--><rect fill="#FF6680" filter="url(#f1cwirmfkimq0q)" height="53.6" style="stroke: #333333; stroke-width: 1.0;" width="124" x="234" y="356"/><rect fill="#FF6680" height="5" style="stroke: #333333; stroke-width: 1.0;" width="10" x="229" y="361"/><rect fill="#FF6680" height="5" style="stroke: #333333; stroke-width: 1.0;" width="10" x="229" y="399.6"/><text fill="#000000" font-family="Fira Sans" font-size="14" font-style="italic" lengthAdjust="spacingAndGlyphs" textLength="36" x="278" y="379.09">«Vrc»</text><text fill="#000000" font-family="Fira Sans" font-size="14" lengthAdjust="spacingAndGlyphs" textLength="104" x="244" y="395.89">CommandBuffer</text><!--MD5=[aaa86911056d77c0094bc9419cc48a1e]
entity RenderPass--><rect fill="#FF6680" filter="url(#f1cwirmfkimq0q)" height="53.6" style="stroke: #333333; stroke-width: 1.0;" width="95" x="736.5" y="9.5"/><rect fill="#FF6680" height="5" style="stroke: #333333; stroke-width: 1.0;" width="10" x="731.5" y="14.5"/><rect fill="#FF6680" height="5" style="stroke: #333333; stroke-width: 1.0;" width="10" x="731.5" y="53.1"/><text fill="#000000" font-family="Fira Sans" font-size="14" font-style="italic" lengthAdjust="spacingAndGlyphs" textLength="36" x="766" y="32.59">«Vrc»</text><text fill="#000000" font-family="Fira Sans" font-size="14" lengthAdjust="spacingAndGlyphs" textLength="75" x="746.5" y="49.39">RenderPass</text><!--MD5=[90701dc8c13adb3d9edc282c27eb9529]
entity FrameBuffer--><rect fill="#FF6680" filter="url(#f1cwirmfkimq0q)" height="53.6" style="stroke: #333333; stroke-width: 1.0;" width="100" x="867" y="9.5"/><rect fill="#FF6680" height="5" style="stroke: #333333; stroke-width: 1.0;" width="10" x="862" y="14.5"/><rect fill="#FF6680" height="5" style="stroke: #333333; stroke-width: 1.0;" width="10" x="862" y="53.1"/><text fill="#000000" font-family="Fira Sans" font-size="14" font-style="italic" lengthAdjust="spacingAndGlyphs" textLength="36" x="899" y="32.59">«Vrc»</text><text fill="#000000" font-family="Fira Sans" font-size="14" lengthAdjust="spacingAndGlyphs" textLength="80" x="877" y="49.39">FrameBuffer</text><!--MD5=[1ffdb862bcd5a17046dc5b2ba3c3c467]
entity ComputePipeline--><rect fill="#FF6680" filter="url(#f1cwirmfkimq0q)" height="53.6" style="stroke: #333333; stroke-width: 1.0;" width="129" x="580.5" y="126"/><rect fill="#FF6680" height="5" style="stroke: #333333; stroke-width: 1.0;" width="10" x="575.5" y="131"/><rect fill="#FF6680" height="5" style="stroke: #333333; stroke-width: 1.0;" width="10" x="575.5" y="169.6"/><text fill="#000000" font-family="Fira Sans" font-size="14" font-style="italic" lengthAdjust="spacingAndGlyphs" textLength="36" x="627" y="149.09">«Vrc»</text><text fill="#000000" font-family="Fira Sans" font-size="14" lengthAdjust="spacingAndGlyphs" textLength="109" x="590.5" y="165.89">ComputePipeline</text><!--MD5=[2547e0e8dfc9762fafe4ea6f3eb9cf06]
entity GraphicsPipeline--><rect fill="#FF6680" filter="url(#f1cwirmfkimq0q)" height="53.6" style="stroke: #333333; stroke-width: 1.0;" width="128" x="745" y="126"/><rect fill="#FF6680" height="5" style="stroke: #333333; stroke-width: 1.0;" width="10" x="740" y="131"/><rect fill="#FF6680" height="5" style="stroke: #333333; stroke-width: 1.0;" width="10" x="740" y="169.6"/><text fill="#000000" font-family="Fira Sans" font-size="14" font-style="italic" lengthAdjust="spacingAndGlyphs" textLength="36" x="791" y="149.09">«Vrc»</text><text fill="#000000" font-family="Fira Sans" font-size="14" lengthAdjust="spacingAndGlyphs" textLength="108" x="755" y="165.89">GraphicsPipeline</text><!--MD5=[9e0743f2801aced260ae37367b66ae02]
entity DescriptorSet--><rect fill="#FF6680" filter="url(#f1cwirmfkimq0q)" height="53.6" style="stroke: #333333; stroke-width: 1.0;" width="107" x="908.5" y="126"/><rect fill="#FF6680" height="5" style="stroke: #333333; stroke-width: 1.0;" width="10" x="903.5" y="131"/><rect fill="#FF6680" height="5" style="stroke: #333333; stroke-width: 1.0;" width="10" x="903.5" y="169.6"/><text fill="#000000" font-family="Fira Sans" font-size="14" font-style="italic" lengthAdjust="spacingAndGlyphs" textLength="36" x="944" y="149.09">«Vrc»</text><text fill="#000000" font-family="Fira Sans" font-size="14" lengthAdjust="spacingAndGlyphs" textLength="87" x="918.5" y="165.89">DescriptorSet</text><!--MD5=[178d138ca418f22dbf706354932801c4]
reverse link Instance to PhysicalDevice--><path d="M377.55,68.72 C373.86,89.83 369.12,116.94 366.08,134.4 " fill="none" id="Instance&lt;-PhysicalDevice" style="stroke: #000000; stroke-width: 1.0;"/><polygon fill="#000000" points="378.41,63.77,372.9041,71.9361,377.5394,68.6936,380.7819,73.329,378.41,63.77" style="stroke: #000000; stroke-width: 1.0;"/><!--MD5=[f2ba400cd7de414d9a9741dfbead0412]
reverse link Instance to Surface--><path d="M416.12,67.13 C439.96,88.45 471.32,116.5 491.32,134.4 " fill="none" id="Instance&lt;-Surface" style="stroke: #000000; stroke-width: 1.0;"/><polygon fill="#000000" points="412.37,63.77,416.4201,72.7476,416.0999,67.0998,421.7477,66.7797,412.37,63.77" style="stroke: #000000; stroke-width: 1.0;"/><!--MD5=[3e0807e64cb1f9217d9bd62b2a7fecf2]
reverse link Window to Surface--><path d="M511,60.41 C511,82.15 511,114.37 511,134.24 " fill="none" id="Window&lt;-Surface" style="stroke: #000000; stroke-width: 1.0;"/><polygon fill="#000000" points="511,55.39,507,64.39,511,60.39,515,64.39,511,55.39" style="stroke: #000000; stroke-width: 1.0;"/><!--MD5=[5244d0020466267193e1ddb4dd69dca4]
reverse link PhysicalDevice to Device--><path d="M351.81,176.18 C342.48,194.68 329.16,221.08 319.29,240.65 " fill="none" id="PhysicalDevice&lt;-Device" style="stroke: #000000; stroke-width: 1.0;"/><polygon fill="#000000" points="354.09,171.66,346.4554,177.882,351.8311,176.1206,353.5925,181.4963,354.09,171.66" style="stroke: #000000; stroke-width: 1.0;"/><!--MD5=[23f64212de97a3cd89d252a40558ec97]
reverse link Surface to Swapchain--><path d="M513.39,176.7 C517.87,219.26 527.51,310.84 532.25,355.89 " fill="none" id="Surface&lt;-Swapchain" style="stroke: #000000; stroke-width: 1.0;"/><polygon fill="#000000" points="512.84,171.51,509.814,180.8825,513.3686,176.482,517.7691,180.0367,512.84,171.51" style="stroke: #000000; stroke-width: 1.0;"/><text fill="#000000" font-family="Fira Sans" font-size="13" lengthAdjust="spacingAndGlyphs" textLength="32" x="527" y="272.655">«Vrc»</text><!--MD5=[836376d7c55fb2cb32bc2405f03f9175]
reverse link Device to Queue--><path d="M337.01,298.7 C355.57,316.47 378.94,338.85 396.78,355.93 " fill="none" id="Device&lt;-Queue" style="stroke: #000000; stroke-width: 1.0;"/><polygon fill="#000000" points="333.37,295.21,337.1089,304.3216,336.9832,298.6661,342.6387,298.5404,333.37,295.21" style="stroke: #000000; stroke-width: 1.0;"/><!--MD5=[a200845958dec60fbdad90130c563747]
reverse link Device to Swapchain--><path d="M342.62,287.07 C382.82,306.91 447.37,338.76 490.46,360.02 " fill="none" id="Device&lt;-Swapchain" style="stroke: #000000; stroke-width: 1.0;"/><polygon fill="#000000" points="337.84,284.71,344.1301,292.2885,342.3207,286.9289,347.6803,285.1194,337.84,284.71" style="stroke: #000000; stroke-width: 1.0;"/><!--MD5=[5d2fc20e973026d3d70a36b451111cd3]
reverse link Device to Image--><path d="M270.15,298.57 C247.92,316.91 219.71,340.18 198.73,357.48 " fill="none" id="Device&lt;-Image" style="stroke: #000000; stroke-width: 1.0;"/><polygon fill="#000000" points="274.23,295.21,264.7436,297.8572,270.3749,298.394,269.838,304.0254,274.23,295.21" style="stroke: #000000; stroke-width: 1.0;"/><!--MD5=[7ed3f5b949e2f9f39ea6c581de42e9cd]
reverse link Device to Buffer--><path d="M269.86,285.53 C221,307.89 134.76,347.34 89.19,368.19 " fill="none" id="Device&lt;-Buffer" style="stroke: #000000; stroke-width: 1.0;"/><polygon fill="#000000" points="274.47,283.43,264.6219,283.55,269.926,285.5162,267.9598,290.8204,274.47,283.43" style="stroke: #000000; stroke-width: 1.0;"/><!--MD5=[60a05d036b1b062f3cd4e02193d4b827]
reverse link Device to CommandBuffer--><path d="M303.21,300.49 C301.67,317.96 299.77,339.42 298.31,355.93 " fill="none" id="Device&lt;-CommandBuffer" style="stroke: #000000; stroke-width: 1.0;"/><polygon fill="#000000" points="303.68,295.21,298.8972,303.8196,303.2364,300.1903,306.8657,304.5294,303.68,295.21" style="stroke: #000000; stroke-width: 1.0;"/><!--MD5=[dfa72a60997d7779d3371d7381ce0441]
reverse link Swapchain to SwapchainImage--><path d="M510.7,414.14 C492.91,436.21 468.99,465.87 452.01,486.93 " fill="none" id="Swapchain&lt;-SwapchainImage" style="stroke: #000000; stroke-width: 1.0;"/><polygon fill="#000000" points="513.95,410.11,505.1882,414.6078,510.8126,414.0032,511.4173,419.6276,513.95,410.11" style="stroke: #000000; stroke-width: 1.0;"/><!--MD5=[18bdaaed14c411f280be5392ec14f6b7]
reverse link Image to SwapchainImage--><path d="M203.29,403.27 C207.55,405.58 211.86,407.87 216,410 C269.16,437.41 330.81,466.69 374.42,487 " fill="none" id="Image&lt;-SwapchainImage" style="stroke: #000000; stroke-width: 1.0; stroke-dasharray: 7.0,7.0;"/><polygon fill="#000000" points="198.69,400.77,204.6952,408.5762,203.0855,403.1533,208.5084,401.5435,198.69,400.77" style="stroke: #000000; stroke-width: 1.0;"/><text fill="#000000" font-family="Fira Sans" font-size="13" lengthAdjust="spacingAndGlyphs" textLength="43" x="311" y="453.155">Inlined</text><!--MD5=[7edb7ac24b13a7ee42ee0a9c329f1ffc]
reverse link Image to ImageView--><path d="M170.7,415.24 C171.89,437.19 173.46,466.22 174.59,486.93 " fill="none" id="Image&lt;-ImageView" style="stroke: #000000; stroke-width: 1.0;"/><polygon fill="#000000" points="170.42,410.11,166.9152,419.3141,170.6918,415.1026,174.9033,418.8792,170.42,410.11" style="stroke: #000000; stroke-width: 1.0;"/><!--MD5=[9e5a877cae309ef4a8edae84f5d290eb]
reverse link Buffer to BufferView--><path d="M57.06,415.24 C55.7,437.19 53.9,466.22 52.62,486.93 " fill="none" id="Buffer&lt;-BufferView" style="stroke: #000000; stroke-width: 1.0;"/><polygon fill="#000000" points="57.38,410.11,52.8482,418.8543,57.0805,415.101,60.8338,419.3334,57.38,410.11" style="stroke: #000000; stroke-width: 1.0;"/><!--MD5=[d6af0f91fb3e76fb970c8d4a62ed8ff4]
link CommandPool to RenderPass--><!--MD5=[894003e448f2fced4619e54f2c1a79e0]
link RenderPass to FrameBuffer--><!--MD5=[03d06786dcd985359e6660479c1574b0]
link CommandPool to ComputePipeline--><!--MD5=[ff73cb592bcd0b4ad94e69a2271e6783]
link ComputePipeline to GraphicsPipeline--><!--MD5=[68842829f90bf121880721e6947a85e0]
link GraphicsPipeline to DescriptorSet--><!--MD5=[e21bd4b8041a2b0be48c7ebc29f4da9e]
@startuml object_dependency_graph

skinparam {
	defaultFontName Fira Sans

	ArrowColor #black
	ComponentBorderColor #333
	ComponentBorderThickness 1
}

note left of [Instance]
	<color 66FF98>Green</color> = done
	<color 66CDFF>Blue</color> = in-progress
	<color FF6680>Red</color> = planned
end note

component [Instance] <<Vrc>> #66FF98
component [Window] #66FF98

component [PhysicalDevice] #66FF98
component [Surface] #66FF98

component [Device] <<Vrc>> #66FF98

component [Queue] <<Vrc>> #66CDFF
component [Swapchain] <<Vrc>> #66CDFF
component [SwapchainImage] <<Vrc>> #66CDFF

component [Image] <<Vrc>> #66CDFF
component [Buffer] <<Vrc>> #FF6680

component [ImageView] <<Vrc>> #FF6680
component [BufferView] <<Vrc>> #FF6680

component [CommandPool] <<Vrc>> #FF6680
component [CommandBuffer] <<Vrc>> #FF6680

component [RenderPass] <<Vrc>> #FF6680
component [FrameBuffer] <<Vrc>> #FF6680
component [ComputePipeline] <<Vrc>> #FF6680
component [GraphicsPipeline] <<Vrc>> #FF6680
component [DescriptorSet] <<Vrc>> #FF6680

[Instance] <- - [PhysicalDevice]
[Instance] <- - [Surface]
[Window] <- - [Surface]

[PhysicalDevice] <- - [Device]
[Surface] <- - [Swapchain] : <<Vrc>>

[Device] <- - [Queue]
[Device] <- - [Swapchain]
[Device] <- - [Image]
[Device] <- - [Buffer]
[Device] <- - [CommandBuffer]

[Swapchain] <- - [SwapchainImage]

[Image] <.. [SwapchainImage] : Inlined
[Image] <- - [ImageView]

[Buffer] <- - [BufferView]

@enduml

PlantUML version 1.2020.02(Sun Mar 01 11:22:07 CET 2020)
(GPL source distribution)
Java Runtime: OpenJDK Runtime Environment
JVM: OpenJDK 64-Bit Server VM
Java Version: 13.0.1+9
Operating System: Mac OS X
Default Encoding: UTF-8
Language: en
Country: CZ
--></g></svg>