<?xml version="1.0" encoding="utf-8" standalone="no"?>
<!DOCTYPE svg PUBLIC "-//W3C//DTD SVG 1.1//EN"
  "http://www.w3.org/Graphics/SVG/1.1/DTD/svg11.dtd">
<!-- Created with matplotlib (https://matplotlib.org/) -->
<svg height="345.6pt" version="1.1" viewBox="0 0 460.8 345.6" width="460.8pt" xmlns="http://www.w3.org/2000/svg" xmlns:xlink="http://www.w3.org/1999/xlink">
 <defs>
  <style type="text/css">
*{stroke-linecap:butt;stroke-linejoin:round;}
  </style>
 </defs>
 <g id="figure_1">
  <g id="patch_1">
   <path d="M 0 345.6 
L 460.8 345.6 
L 460.8 0 
L 0 0 
z
" style="fill:#ffffff;"/>
  </g>
  <g id="axes_1">
   <g id="patch_2">
    <path d="M 57.6 307.584 
L 414.72 307.584 
L 414.72 41.472 
L 57.6 41.472 
z
" style="fill:#ffffff;"/>
   </g>
   <g id="patch_3">
    <path clip-path="url(#p132d145698)" d="M 73.832727 307.584 
L 75.698484 307.584 
L 75.698484 307.548384 
L 73.832727 307.548384 
z
" style="fill:#fe6f5e;fill-opacity:0.815686;"/>
   </g>
   <g id="patch_4">
    <path clip-path="url(#p132d145698)" d="M 75.698484 307.584 
L 77.56424 307.584 
L 77.56424 307.584 
L 75.698484 307.584 
z
" style="fill:#fe6f5e;fill-opacity:0.815686;"/>
   </g>
   <g id="patch_5">
    <path clip-path="url(#p132d145698)" d="M 77.56424 307.584 
L 79.429996 307.584 
L 79.429996 307.584 
L 77.56424 307.584 
z
" style="fill:#fe6f5e;fill-opacity:0.815686;"/>
   </g>
   <g id="patch_6">
    <path clip-path="url(#p132d145698)" d="M 79.429996 307.584 
L 81.295752 307.584 
L 81.295752 307.548384 
L 79.429996 307.548384 
z
" style="fill:#fe6f5e;fill-opacity:0.815686;"/>
   </g>
   <g id="patch_7">
    <path clip-path="url(#p132d145698)" d="M 81.295752 307.584 
L 83.161509 307.584 
L 83.161509 307.548384 
L 81.295752 307.548384 
z
" style="fill:#fe6f5e;fill-opacity:0.815686;"/>
   </g>
   <g id="patch_8">
    <path clip-path="url(#p132d145698)" d="M 83.161509 307.584 
L 85.027265 307.584 
L 85.027265 307.26346 
L 83.161509 307.26346 
z
" style="fill:#fe6f5e;fill-opacity:0.815686;"/>
   </g>
   <g id="patch_9">
    <path clip-path="url(#p132d145698)" d="M 85.027265 307.584 
L 86.893021 307.584 
L 86.893021 307.26346 
L 85.027265 307.26346 
z
" style="fill:#fe6f5e;fill-opacity:0.815686;"/>
   </g>
   <g id="patch_10">
    <path clip-path="url(#p132d145698)" d="M 86.893021 307.584 
L 88.758778 307.584 
L 88.758778 306.907305 
L 86.893021 306.907305 
z
" style="fill:#fe6f5e;fill-opacity:0.815686;"/>
   </g>
   <g id="patch_11">
    <path clip-path="url(#p132d145698)" d="M 88.758778 307.584 
L 90.624534 307.584 
L 90.624534 306.729228 
L 88.758778 306.729228 
z
" style="fill:#fe6f5e;fill-opacity:0.815686;"/>
   </g>
   <g id="patch_12">
    <path clip-path="url(#p132d145698)" d="M 90.624534 307.584 
L 92.49029 307.584 
L 92.49029 305.589531 
L 90.624534 305.589531 
z
" style="fill:#fe6f5e;fill-opacity:0.815686;"/>
   </g>
   <g id="patch_13">
    <path clip-path="url(#p132d145698)" d="M 92.49029 307.584 
L 94.356046 307.584 
L 94.356046 305.019683 
L 92.49029 305.019683 
z
" style="fill:#fe6f5e;fill-opacity:0.815686;"/>
   </g>
   <g id="patch_14">
    <path clip-path="url(#p132d145698)" d="M 94.356046 307.584 
L 96.221803 307.584 
L 96.221803 302.134826 
L 94.356046 302.134826 
z
" style="fill:#fe6f5e;fill-opacity:0.815686;"/>
   </g>
   <g id="patch_15">
    <path clip-path="url(#p132d145698)" d="M 96.221803 307.584 
L 98.087559 307.584 
L 98.087559 299.071892 
L 96.221803 299.071892 
z
" style="fill:#fe6f5e;fill-opacity:0.815686;"/>
   </g>
   <g id="patch_16">
    <path clip-path="url(#p132d145698)" d="M 98.087559 307.584 
L 99.953315 307.584 
L 99.953315 293.729565 
L 98.087559 293.729565 
z
" style="fill:#fe6f5e;fill-opacity:0.815686;"/>
   </g>
   <g id="patch_17">
    <path clip-path="url(#p132d145698)" d="M 99.953315 307.584 
L 101.819072 307.584 
L 101.819072 289.95432 
L 99.953315 289.95432 
z
" style="fill:#fe6f5e;fill-opacity:0.815686;"/>
   </g>
   <g id="patch_18">
    <path clip-path="url(#p132d145698)" d="M 101.819072 307.584 
L 103.684828 307.584 
L 103.684828 284.113376 
L 101.819072 284.113376 
z
" style="fill:#fe6f5e;fill-opacity:0.815686;"/>
   </g>
   <g id="patch_19">
    <path clip-path="url(#p132d145698)" d="M 103.684828 307.584 
L 105.550584 307.584 
L 105.550584 275.957423 
L 103.684828 275.957423 
z
" style="fill:#fe6f5e;fill-opacity:0.815686;"/>
   </g>
   <g id="patch_20">
    <path clip-path="url(#p132d145698)" d="M 105.550584 307.584 
L 107.41634 307.584 
L 107.41634 269.048013 
L 105.550584 269.048013 
z
" style="fill:#fe6f5e;fill-opacity:0.815686;"/>
   </g>
   <g id="patch_21">
    <path clip-path="url(#p132d145698)" d="M 107.41634 307.584 
L 109.282097 307.584 
L 109.282097 252.522415 
L 107.41634 252.522415 
z
" style="fill:#fe6f5e;fill-opacity:0.815686;"/>
   </g>
   <g id="patch_22">
    <path clip-path="url(#p132d145698)" d="M 109.282097 307.584 
L 111.147853 307.584 
L 111.147853 219.364371 
L 109.282097 219.364371 
z
" style="fill:#fe6f5e;fill-opacity:0.815686;"/>
   </g>
   <g id="patch_23">
    <path clip-path="url(#p132d145698)" d="M 111.147853 307.584 
L 113.013609 307.584 
L 113.013609 187.488486 
L 111.147853 187.488486 
z
" style="fill:#fe6f5e;fill-opacity:0.815686;"/>
   </g>
   <g id="patch_24">
    <path clip-path="url(#p132d145698)" d="M 113.013609 307.584 
L 114.879366 307.584 
L 114.879366 145.818334 
L 113.013609 145.818334 
z
" style="fill:#fe6f5e;fill-opacity:0.815686;"/>
   </g>
   <g id="patch_25">
    <path clip-path="url(#p132d145698)" d="M 114.879366 307.584 
L 116.745122 307.584 
L 116.745122 111.128823 
L 114.879366 111.128823 
z
" style="fill:#fe6f5e;fill-opacity:0.815686;"/>
   </g>
   <g id="patch_26">
    <path clip-path="url(#p132d145698)" d="M 116.745122 307.584 
L 118.610878 307.584 
L 118.610878 89.332128 
L 116.745122 89.332128 
z
" style="fill:#fe6f5e;fill-opacity:0.815686;"/>
   </g>
   <g id="patch_27">
    <path clip-path="url(#p132d145698)" d="M 118.610878 307.584 
L 120.476634 307.584 
L 120.476634 73.874995 
L 118.610878 73.874995 
z
" style="fill:#fe6f5e;fill-opacity:0.815686;"/>
   </g>
   <g id="patch_28">
    <path clip-path="url(#p132d145698)" d="M 120.476634 307.584 
L 122.342391 307.584 
L 122.342391 71.310678 
L 120.476634 71.310678 
z
" style="fill:#fe6f5e;fill-opacity:0.815686;"/>
   </g>
   <g id="patch_29">
    <path clip-path="url(#p132d145698)" d="M 122.342391 307.584 
L 124.208147 307.584 
L 124.208147 75.406462 
L 122.342391 75.406462 
z
" style="fill:#fe6f5e;fill-opacity:0.815686;"/>
   </g>
   <g id="patch_30">
    <path clip-path="url(#p132d145698)" d="M 124.208147 307.584 
L 126.073903 307.584 
L 126.073903 91.041673 
L 124.208147 91.041673 
z
" style="fill:#fe6f5e;fill-opacity:0.815686;"/>
   </g>
   <g id="patch_31">
    <path clip-path="url(#p132d145698)" d="M 126.073903 307.584 
L 127.93966 307.584 
L 127.93966 114.476681 
L 126.073903 114.476681 
z
" style="fill:#fe6f5e;fill-opacity:0.815686;"/>
   </g>
   <g id="patch_32">
    <path clip-path="url(#p132d145698)" d="M 127.93966 307.584 
L 129.805416 307.584 
L 129.805416 127.333882 
L 127.93966 127.333882 
z
" style="fill:#fe6f5e;fill-opacity:0.815686;"/>
   </g>
   <g id="patch_33">
    <path clip-path="url(#p132d145698)" d="M 129.805416 307.584 
L 131.671172 307.584 
L 131.671172 145.92518 
L 129.805416 145.92518 
z
" style="fill:#fe6f5e;fill-opacity:0.815686;"/>
   </g>
   <g id="patch_34">
    <path clip-path="url(#p132d145698)" d="M 131.671172 307.584 
L 133.536928 307.584 
L 133.536928 163.269936 
L 131.671172 163.269936 
z
" style="fill:#fe6f5e;fill-opacity:0.815686;"/>
   </g>
   <g id="patch_35">
    <path clip-path="url(#p132d145698)" d="M 133.536928 307.584 
L 135.402685 307.584 
L 135.402685 179.11884 
L 133.536928 179.11884 
z
" style="fill:#fe6f5e;fill-opacity:0.815686;"/>
   </g>
   <g id="patch_36">
    <path clip-path="url(#p132d145698)" d="M 135.402685 307.584 
L 137.268441 307.584 
L 137.268441 195.822516 
L 135.402685 195.822516 
z
" style="fill:#fe6f5e;fill-opacity:0.815686;"/>
   </g>
   <g id="patch_37">
    <path clip-path="url(#p132d145698)" d="M 137.268441 307.584 
L 139.134197 307.584 
L 139.134197 214.485046 
L 137.268441 214.485046 
z
" style="fill:#fe6f5e;fill-opacity:0.815686;"/>
   </g>
   <g id="patch_38">
    <path clip-path="url(#p132d145698)" d="M 139.134197 307.584 
L 140.999954 307.584 
L 140.999954 230.155872 
L 139.134197 230.155872 
z
" style="fill:#fe6f5e;fill-opacity:0.815686;"/>
   </g>
   <g id="patch_39">
    <path clip-path="url(#p132d145698)" d="M 140.999954 307.584 
L 142.86571 307.584 
L 142.86571 241.303528 
L 140.999954 241.303528 
z
" style="fill:#fe6f5e;fill-opacity:0.815686;"/>
   </g>
   <g id="patch_40">
    <path clip-path="url(#p132d145698)" d="M 142.86571 307.584 
L 144.731466 307.584 
L 144.731466 254.552499 
L 142.86571 254.552499 
z
" style="fill:#fe6f5e;fill-opacity:0.815686;"/>
   </g>
   <g id="patch_41">
    <path clip-path="url(#p132d145698)" d="M 144.731466 307.584 
L 146.597222 307.584 
L 146.597222 265.985079 
L 144.731466 265.985079 
z
" style="fill:#fe6f5e;fill-opacity:0.815686;"/>
   </g>
   <g id="patch_42">
    <path clip-path="url(#p132d145698)" d="M 146.597222 307.584 
L 148.462979 307.584 
L 148.462979 275.957423 
L 146.597222 275.957423 
z
" style="fill:#fe6f5e;fill-opacity:0.815686;"/>
   </g>
   <g id="patch_43">
    <path clip-path="url(#p132d145698)" d="M 148.462979 307.584 
L 150.328735 307.584 
L 150.328735 283.044911 
L 148.462979 283.044911 
z
" style="fill:#fe6f5e;fill-opacity:0.815686;"/>
   </g>
   <g id="patch_44">
    <path clip-path="url(#p132d145698)" d="M 150.328735 307.584 
L 152.194491 307.584 
L 152.194491 288.422853 
L 150.328735 288.422853 
z
" style="fill:#fe6f5e;fill-opacity:0.815686;"/>
   </g>
   <g id="patch_45">
    <path clip-path="url(#p132d145698)" d="M 152.194491 307.584 
L 154.060248 307.584 
L 154.060248 293.124101 
L 152.194491 293.124101 
z
" style="fill:#fe6f5e;fill-opacity:0.815686;"/>
   </g>
   <g id="patch_46">
    <path clip-path="url(#p132d145698)" d="M 154.060248 307.584 
L 155.926004 307.584 
L 155.926004 296.721268 
L 154.060248 296.721268 
z
" style="fill:#fe6f5e;fill-opacity:0.815686;"/>
   </g>
   <g id="patch_47">
    <path clip-path="url(#p132d145698)" d="M 155.926004 307.584 
L 157.79176 307.584 
L 157.79176 299.036277 
L 155.926004 299.036277 
z
" style="fill:#fe6f5e;fill-opacity:0.815686;"/>
   </g>
   <g id="patch_48">
    <path clip-path="url(#p132d145698)" d="M 157.79176 307.584 
L 159.657516 307.584 
L 159.657516 301.956749 
L 157.79176 301.956749 
z
" style="fill:#fe6f5e;fill-opacity:0.815686;"/>
   </g>
   <g id="patch_49">
    <path clip-path="url(#p132d145698)" d="M 159.657516 307.584 
L 161.523273 307.584 
L 161.523273 303.416985 
L 159.657516 303.416985 
z
" style="fill:#fe6f5e;fill-opacity:0.815686;"/>
   </g>
   <g id="patch_50">
    <path clip-path="url(#p132d145698)" d="M 161.523273 307.584 
L 163.389029 307.584 
L 163.389029 304.449835 
L 161.523273 304.449835 
z
" style="fill:#fe6f5e;fill-opacity:0.815686;"/>
   </g>
   <g id="patch_51">
    <path clip-path="url(#p132d145698)" d="M 163.389029 307.584 
L 165.254785 307.584 
L 165.254785 304.521066 
L 163.389029 304.521066 
z
" style="fill:#fe6f5e;fill-opacity:0.815686;"/>
   </g>
   <g id="patch_52">
    <path clip-path="url(#p132d145698)" d="M 165.254785 307.584 
L 167.120542 307.584 
L 167.120542 305.696378 
L 165.254785 305.696378 
z
" style="fill:#fe6f5e;fill-opacity:0.815686;"/>
   </g>
   <g id="patch_53">
    <path clip-path="url(#p132d145698)" d="M 167.120542 307.584 
L 168.986298 307.584 
L 168.986298 306.444304 
L 167.120542 306.444304 
z
" style="fill:#fe6f5e;fill-opacity:0.815686;"/>
   </g>
   <g id="patch_54">
    <path clip-path="url(#p132d145698)" d="M 168.986298 307.584 
L 170.852054 307.584 
L 170.852054 306.693612 
L 168.986298 306.693612 
z
" style="fill:#fe6f5e;fill-opacity:0.815686;"/>
   </g>
   <g id="patch_55">
    <path clip-path="url(#p132d145698)" d="M 170.852054 307.584 
L 172.71781 307.584 
L 172.71781 306.764843 
L 170.852054 306.764843 
z
" style="fill:#fe6f5e;fill-opacity:0.815686;"/>
   </g>
   <g id="patch_56">
    <path clip-path="url(#p132d145698)" d="M 172.71781 307.584 
L 174.583567 307.584 
L 174.583567 306.978536 
L 172.71781 306.978536 
z
" style="fill:#fe6f5e;fill-opacity:0.815686;"/>
   </g>
   <g id="patch_57">
    <path clip-path="url(#p132d145698)" d="M 174.583567 307.584 
L 176.449323 307.584 
L 176.449323 307.299076 
L 174.583567 307.299076 
z
" style="fill:#fe6f5e;fill-opacity:0.815686;"/>
   </g>
   <g id="patch_58">
    <path clip-path="url(#p132d145698)" d="M 176.449323 307.584 
L 178.315079 307.584 
L 178.315079 307.049767 
L 176.449323 307.049767 
z
" style="fill:#fe6f5e;fill-opacity:0.815686;"/>
   </g>
   <g id="patch_59">
    <path clip-path="url(#p132d145698)" d="M 178.315079 307.584 
L 180.180836 307.584 
L 180.180836 307.370307 
L 178.315079 307.370307 
z
" style="fill:#fe6f5e;fill-opacity:0.815686;"/>
   </g>
   <g id="patch_60">
    <path clip-path="url(#p132d145698)" d="M 180.180836 307.584 
L 182.046592 307.584 
L 182.046592 307.405922 
L 180.180836 307.405922 
z
" style="fill:#fe6f5e;fill-opacity:0.815686;"/>
   </g>
   <g id="patch_61">
    <path clip-path="url(#p132d145698)" d="M 182.046592 307.584 
L 183.912348 307.584 
L 183.912348 307.370307 
L 182.046592 307.370307 
z
" style="fill:#fe6f5e;fill-opacity:0.815686;"/>
   </g>
   <g id="patch_62">
    <path clip-path="url(#p132d145698)" d="M 183.912348 307.584 
L 185.778104 307.584 
L 185.778104 307.477153 
L 183.912348 307.477153 
z
" style="fill:#fe6f5e;fill-opacity:0.815686;"/>
   </g>
   <g id="patch_63">
    <path clip-path="url(#p132d145698)" d="M 185.778104 307.584 
L 187.643861 307.584 
L 187.643861 307.405922 
L 185.778104 307.405922 
z
" style="fill:#fe6f5e;fill-opacity:0.815686;"/>
   </g>
   <g id="patch_64">
    <path clip-path="url(#p132d145698)" d="M 187.643861 307.584 
L 189.509617 307.584 
L 189.509617 307.477153 
L 187.643861 307.477153 
z
" style="fill:#fe6f5e;fill-opacity:0.815686;"/>
   </g>
   <g id="patch_65">
    <path clip-path="url(#p132d145698)" d="M 189.509617 307.584 
L 191.375373 307.584 
L 191.375373 307.477153 
L 189.509617 307.477153 
z
" style="fill:#fe6f5e;fill-opacity:0.815686;"/>
   </g>
   <g id="patch_66">
    <path clip-path="url(#p132d145698)" d="M 191.375373 307.584 
L 193.24113 307.584 
L 193.24113 307.584 
L 191.375373 307.584 
z
" style="fill:#fe6f5e;fill-opacity:0.815686;"/>
   </g>
   <g id="patch_67">
    <path clip-path="url(#p132d145698)" d="M 193.24113 307.584 
L 195.106886 307.584 
L 195.106886 307.405922 
L 193.24113 307.405922 
z
" style="fill:#fe6f5e;fill-opacity:0.815686;"/>
   </g>
   <g id="patch_68">
    <path clip-path="url(#p132d145698)" d="M 195.106886 307.584 
L 196.972642 307.584 
L 196.972642 307.548384 
L 195.106886 307.548384 
z
" style="fill:#fe6f5e;fill-opacity:0.815686;"/>
   </g>
   <g id="patch_69">
    <path clip-path="url(#p132d145698)" d="M 196.972642 307.584 
L 198.838398 307.584 
L 198.838398 307.477153 
L 196.972642 307.477153 
z
" style="fill:#fe6f5e;fill-opacity:0.815686;"/>
   </g>
   <g id="patch_70">
    <path clip-path="url(#p132d145698)" d="M 198.838398 307.584 
L 200.704155 307.584 
L 200.704155 307.477153 
L 198.838398 307.477153 
z
" style="fill:#fe6f5e;fill-opacity:0.815686;"/>
   </g>
   <g id="patch_71">
    <path clip-path="url(#p132d145698)" d="M 200.704155 307.584 
L 202.569911 307.584 
L 202.569911 307.441538 
L 200.704155 307.441538 
z
" style="fill:#fe6f5e;fill-opacity:0.815686;"/>
   </g>
   <g id="patch_72">
    <path clip-path="url(#p132d145698)" d="M 202.569911 307.584 
L 204.435667 307.584 
L 204.435667 307.512769 
L 202.569911 307.512769 
z
" style="fill:#fe6f5e;fill-opacity:0.815686;"/>
   </g>
   <g id="patch_73">
    <path clip-path="url(#p132d145698)" d="M 204.435667 307.584 
L 206.301424 307.584 
L 206.301424 307.477153 
L 204.435667 307.477153 
z
" style="fill:#fe6f5e;fill-opacity:0.815686;"/>
   </g>
   <g id="patch_74">
    <path clip-path="url(#p132d145698)" d="M 206.301424 307.584 
L 208.16718 307.584 
L 208.16718 307.548384 
L 206.301424 307.548384 
z
" style="fill:#fe6f5e;fill-opacity:0.815686;"/>
   </g>
   <g id="patch_75">
    <path clip-path="url(#p132d145698)" d="M 208.16718 307.584 
L 210.032936 307.584 
L 210.032936 307.512769 
L 208.16718 307.512769 
z
" style="fill:#fe6f5e;fill-opacity:0.815686;"/>
   </g>
   <g id="patch_76">
    <path clip-path="url(#p132d145698)" d="M 210.032936 307.584 
L 211.898692 307.584 
L 211.898692 307.584 
L 210.032936 307.584 
z
" style="fill:#fe6f5e;fill-opacity:0.815686;"/>
   </g>
   <g id="patch_77">
    <path clip-path="url(#p132d145698)" d="M 211.898692 307.584 
L 213.764449 307.584 
L 213.764449 307.512769 
L 211.898692 307.512769 
z
" style="fill:#fe6f5e;fill-opacity:0.815686;"/>
   </g>
   <g id="patch_78">
    <path clip-path="url(#p132d145698)" d="M 213.764449 307.584 
L 215.630205 307.584 
L 215.630205 307.548384 
L 213.764449 307.548384 
z
" style="fill:#fe6f5e;fill-opacity:0.815686;"/>
   </g>
   <g id="patch_79">
    <path clip-path="url(#p132d145698)" d="M 215.630205 307.584 
L 217.495961 307.584 
L 217.495961 307.584 
L 215.630205 307.584 
z
" style="fill:#fe6f5e;fill-opacity:0.815686;"/>
   </g>
   <g id="patch_80">
    <path clip-path="url(#p132d145698)" d="M 217.495961 307.584 
L 219.361718 307.584 
L 219.361718 307.584 
L 217.495961 307.584 
z
" style="fill:#fe6f5e;fill-opacity:0.815686;"/>
   </g>
   <g id="patch_81">
    <path clip-path="url(#p132d145698)" d="M 219.361718 307.584 
L 221.227474 307.584 
L 221.227474 307.477153 
L 219.361718 307.477153 
z
" style="fill:#fe6f5e;fill-opacity:0.815686;"/>
   </g>
   <g id="patch_82">
    <path clip-path="url(#p132d145698)" d="M 221.227474 307.584 
L 223.09323 307.584 
L 223.09323 307.548384 
L 221.227474 307.548384 
z
" style="fill:#fe6f5e;fill-opacity:0.815686;"/>
   </g>
   <g id="patch_83">
    <path clip-path="url(#p132d145698)" d="M 223.09323 307.584 
L 224.958986 307.584 
L 224.958986 307.512769 
L 223.09323 307.512769 
z
" style="fill:#fe6f5e;fill-opacity:0.815686;"/>
   </g>
   <g id="patch_84">
    <path clip-path="url(#p132d145698)" d="M 224.958986 307.584 
L 226.824743 307.584 
L 226.824743 307.477153 
L 224.958986 307.477153 
z
" style="fill:#fe6f5e;fill-opacity:0.815686;"/>
   </g>
   <g id="patch_85">
    <path clip-path="url(#p132d145698)" d="M 226.824743 307.584 
L 228.690499 307.584 
L 228.690499 307.548384 
L 226.824743 307.548384 
z
" style="fill:#fe6f5e;fill-opacity:0.815686;"/>
   </g>
   <g id="patch_86">
    <path clip-path="url(#p132d145698)" d="M 228.690499 307.584 
L 230.556255 307.584 
L 230.556255 307.548384 
L 228.690499 307.548384 
z
" style="fill:#fe6f5e;fill-opacity:0.815686;"/>
   </g>
   <g id="patch_87">
    <path clip-path="url(#p132d145698)" d="M 230.556255 307.584 
L 232.422012 307.584 
L 232.422012 307.548384 
L 230.556255 307.548384 
z
" style="fill:#fe6f5e;fill-opacity:0.815686;"/>
   </g>
   <g id="patch_88">
    <path clip-path="url(#p132d145698)" d="M 232.422012 307.584 
L 234.287768 307.584 
L 234.287768 307.584 
L 232.422012 307.584 
z
" style="fill:#fe6f5e;fill-opacity:0.815686;"/>
   </g>
   <g id="patch_89">
    <path clip-path="url(#p132d145698)" d="M 234.287768 307.584 
L 236.153524 307.584 
L 236.153524 307.548384 
L 234.287768 307.548384 
z
" style="fill:#fe6f5e;fill-opacity:0.815686;"/>
   </g>
   <g id="patch_90">
    <path clip-path="url(#p132d145698)" d="M 236.153524 307.584 
L 238.01928 307.584 
L 238.01928 307.512769 
L 236.153524 307.512769 
z
" style="fill:#fe6f5e;fill-opacity:0.815686;"/>
   </g>
   <g id="patch_91">
    <path clip-path="url(#p132d145698)" d="M 238.01928 307.584 
L 239.885037 307.584 
L 239.885037 307.584 
L 238.01928 307.584 
z
" style="fill:#fe6f5e;fill-opacity:0.815686;"/>
   </g>
   <g id="patch_92">
    <path clip-path="url(#p132d145698)" d="M 239.885037 307.584 
L 241.750793 307.584 
L 241.750793 307.548384 
L 239.885037 307.548384 
z
" style="fill:#fe6f5e;fill-opacity:0.815686;"/>
   </g>
   <g id="patch_93">
    <path clip-path="url(#p132d145698)" d="M 241.750793 307.584 
L 243.616549 307.584 
L 243.616549 307.548384 
L 241.750793 307.548384 
z
" style="fill:#fe6f5e;fill-opacity:0.815686;"/>
   </g>
   <g id="patch_94">
    <path clip-path="url(#p132d145698)" d="M 243.616549 307.584 
L 245.482306 307.584 
L 245.482306 307.548384 
L 243.616549 307.548384 
z
" style="fill:#fe6f5e;fill-opacity:0.815686;"/>
   </g>
   <g id="patch_95">
    <path clip-path="url(#p132d145698)" d="M 245.482306 307.584 
L 247.348062 307.584 
L 247.348062 307.512769 
L 245.482306 307.512769 
z
" style="fill:#fe6f5e;fill-opacity:0.815686;"/>
   </g>
   <g id="patch_96">
    <path clip-path="url(#p132d145698)" d="M 247.348062 307.584 
L 249.213818 307.584 
L 249.213818 307.548384 
L 247.348062 307.548384 
z
" style="fill:#fe6f5e;fill-opacity:0.815686;"/>
   </g>
   <g id="patch_97">
    <path clip-path="url(#p132d145698)" d="M 249.213818 307.584 
L 251.079574 307.584 
L 251.079574 307.584 
L 249.213818 307.584 
z
" style="fill:#fe6f5e;fill-opacity:0.815686;"/>
   </g>
   <g id="patch_98">
    <path clip-path="url(#p132d145698)" d="M 251.079574 307.584 
L 252.945331 307.584 
L 252.945331 307.584 
L 251.079574 307.584 
z
" style="fill:#fe6f5e;fill-opacity:0.815686;"/>
   </g>
   <g id="patch_99">
    <path clip-path="url(#p132d145698)" d="M 252.945331 307.584 
L 254.811087 307.584 
L 254.811087 307.548384 
L 252.945331 307.548384 
z
" style="fill:#fe6f5e;fill-opacity:0.815686;"/>
   </g>
   <g id="patch_100">
    <path clip-path="url(#p132d145698)" d="M 254.811087 307.584 
L 256.676843 307.584 
L 256.676843 307.584 
L 254.811087 307.584 
z
" style="fill:#fe6f5e;fill-opacity:0.815686;"/>
   </g>
   <g id="patch_101">
    <path clip-path="url(#p132d145698)" d="M 256.676843 307.584 
L 258.5426 307.584 
L 258.5426 307.512769 
L 256.676843 307.512769 
z
" style="fill:#fe6f5e;fill-opacity:0.815686;"/>
   </g>
   <g id="patch_102">
    <path clip-path="url(#p132d145698)" d="M 258.5426 307.584 
L 260.408356 307.584 
L 260.408356 307.512769 
L 258.5426 307.512769 
z
" style="fill:#fe6f5e;fill-opacity:0.815686;"/>
   </g>
   <g id="patch_103">
    <path clip-path="url(#p132d145698)" d="M 112.471799 307.584 
L 115.04342 307.584 
L 115.04342 307.405922 
L 112.471799 307.405922 
z
" style="fill:#5e9dfe;fill-opacity:0.815686;"/>
   </g>
   <g id="patch_104">
    <path clip-path="url(#p132d145698)" d="M 115.04342 307.584 
L 117.615041 307.584 
L 117.615041 307.370307 
L 115.04342 307.370307 
z
" style="fill:#5e9dfe;fill-opacity:0.815686;"/>
   </g>
   <g id="patch_105">
    <path clip-path="url(#p132d145698)" d="M 117.615041 307.584 
L 120.186662 307.584 
L 120.186662 307.512769 
L 117.615041 307.512769 
z
" style="fill:#5e9dfe;fill-opacity:0.815686;"/>
   </g>
   <g id="patch_106">
    <path clip-path="url(#p132d145698)" d="M 120.186662 307.584 
L 122.758282 307.584 
L 122.758282 307.370307 
L 120.186662 307.370307 
z
" style="fill:#5e9dfe;fill-opacity:0.815686;"/>
   </g>
   <g id="patch_107">
    <path clip-path="url(#p132d145698)" d="M 122.758282 307.584 
L 125.329903 307.584 
L 125.329903 307.512769 
L 122.758282 307.512769 
z
" style="fill:#5e9dfe;fill-opacity:0.815686;"/>
   </g>
   <g id="patch_108">
    <path clip-path="url(#p132d145698)" d="M 125.329903 307.584 
L 127.901524 307.584 
L 127.901524 307.441538 
L 125.329903 307.441538 
z
" style="fill:#5e9dfe;fill-opacity:0.815686;"/>
   </g>
   <g id="patch_109">
    <path clip-path="url(#p132d145698)" d="M 127.901524 307.584 
L 130.473145 307.584 
L 130.473145 307.370307 
L 127.901524 307.370307 
z
" style="fill:#5e9dfe;fill-opacity:0.815686;"/>
   </g>
   <g id="patch_110">
    <path clip-path="url(#p132d145698)" d="M 130.473145 307.584 
L 133.044766 307.584 
L 133.044766 307.085383 
L 130.473145 307.085383 
z
" style="fill:#5e9dfe;fill-opacity:0.815686;"/>
   </g>
   <g id="patch_111">
    <path clip-path="url(#p132d145698)" d="M 133.044766 307.584 
L 135.616387 307.584 
L 135.616387 306.301841 
L 133.044766 306.301841 
z
" style="fill:#5e9dfe;fill-opacity:0.815686;"/>
   </g>
   <g id="patch_112">
    <path clip-path="url(#p132d145698)" d="M 135.616387 307.584 
L 138.188008 307.584 
L 138.188008 304.022449 
L 135.616387 304.022449 
z
" style="fill:#5e9dfe;fill-opacity:0.815686;"/>
   </g>
   <g id="patch_113">
    <path clip-path="url(#p132d145698)" d="M 138.188008 307.584 
L 140.759629 307.584 
L 140.759629 303.77314 
L 138.188008 303.77314 
z
" style="fill:#5e9dfe;fill-opacity:0.815686;"/>
   </g>
   <g id="patch_114">
    <path clip-path="url(#p132d145698)" d="M 140.759629 307.584 
L 143.33125 307.584 
L 143.33125 304.378604 
L 140.759629 304.378604 
z
" style="fill:#5e9dfe;fill-opacity:0.815686;"/>
   </g>
   <g id="patch_115">
    <path clip-path="url(#p132d145698)" d="M 143.33125 307.584 
L 145.90287 307.584 
L 145.90287 302.918368 
L 143.33125 302.918368 
z
" style="fill:#5e9dfe;fill-opacity:0.815686;"/>
   </g>
   <g id="patch_116">
    <path clip-path="url(#p132d145698)" d="M 145.90287 307.584 
L 148.474491 307.584 
L 148.474491 301.422516 
L 145.90287 301.422516 
z
" style="fill:#5e9dfe;fill-opacity:0.815686;"/>
   </g>
   <g id="patch_117">
    <path clip-path="url(#p132d145698)" d="M 148.474491 307.584 
L 151.046112 307.584 
L 151.046112 298.395197 
L 148.474491 298.395197 
z
" style="fill:#5e9dfe;fill-opacity:0.815686;"/>
   </g>
   <g id="patch_118">
    <path clip-path="url(#p132d145698)" d="M 151.046112 307.584 
L 153.617733 307.584 
L 153.617733 295.937727 
L 151.046112 295.937727 
z
" style="fill:#5e9dfe;fill-opacity:0.815686;"/>
   </g>
   <g id="patch_119">
    <path clip-path="url(#p132d145698)" d="M 153.617733 307.584 
L 156.189354 307.584 
L 156.189354 292.091251 
L 153.617733 292.091251 
z
" style="fill:#5e9dfe;fill-opacity:0.815686;"/>
   </g>
   <g id="patch_120">
    <path clip-path="url(#p132d145698)" d="M 156.189354 307.584 
L 158.760975 307.584 
L 158.760975 289.776243 
L 156.189354 289.776243 
z
" style="fill:#5e9dfe;fill-opacity:0.815686;"/>
   </g>
   <g id="patch_121">
    <path clip-path="url(#p132d145698)" d="M 158.760975 307.584 
L 161.332596 307.584 
L 161.332596 283.116142 
L 158.760975 283.116142 
z
" style="fill:#5e9dfe;fill-opacity:0.815686;"/>
   </g>
   <g id="patch_122">
    <path clip-path="url(#p132d145698)" d="M 161.332596 307.584 
L 163.904217 307.584 
L 163.904217 278.272432 
L 161.332596 278.272432 
z
" style="fill:#5e9dfe;fill-opacity:0.815686;"/>
   </g>
   <g id="patch_123">
    <path clip-path="url(#p132d145698)" d="M 163.904217 307.584 
L 166.475838 307.584 
L 166.475838 262.102988 
L 163.904217 262.102988 
z
" style="fill:#5e9dfe;fill-opacity:0.815686;"/>
   </g>
   <g id="patch_124">
    <path clip-path="url(#p132d145698)" d="M 166.475838 307.584 
L 169.047458 307.584 
L 169.047458 229.586024 
L 166.475838 229.586024 
z
" style="fill:#5e9dfe;fill-opacity:0.815686;"/>
   </g>
   <g id="patch_125">
    <path clip-path="url(#p132d145698)" d="M 169.047458 307.584 
L 171.619079 307.584 
L 171.619079 185.600863 
L 169.047458 185.600863 
z
" style="fill:#5e9dfe;fill-opacity:0.815686;"/>
   </g>
   <g id="patch_126">
    <path clip-path="url(#p132d145698)" d="M 171.619079 307.584 
L 174.1907 307.584 
L 174.1907 143.823865 
L 171.619079 143.823865 
z
" style="fill:#5e9dfe;fill-opacity:0.815686;"/>
   </g>
   <g id="patch_127">
    <path clip-path="url(#p132d145698)" d="M 174.1907 307.584 
L 176.762321 307.584 
L 176.762321 99.375703 
L 174.1907 99.375703 
z
" style="fill:#5e9dfe;fill-opacity:0.815686;"/>
   </g>
   <g id="patch_128">
    <path clip-path="url(#p132d145698)" d="M 176.762321 307.584 
L 179.333942 307.584 
L 179.333942 75.477693 
L 176.762321 75.477693 
z
" style="fill:#5e9dfe;fill-opacity:0.815686;"/>
   </g>
   <g id="patch_129">
    <path clip-path="url(#p132d145698)" d="M 179.333942 307.584 
L 181.905563 307.584 
L 181.905563 68.212128 
L 179.333942 68.212128 
z
" style="fill:#5e9dfe;fill-opacity:0.815686;"/>
   </g>
   <g id="patch_130">
    <path clip-path="url(#p132d145698)" d="M 181.905563 307.584 
L 184.477184 307.584 
L 184.477184 54.144 
L 181.905563 54.144 
z
" style="fill:#5e9dfe;fill-opacity:0.815686;"/>
   </g>
   <g id="patch_131">
    <path clip-path="url(#p132d145698)" d="M 184.477184 307.584 
L 187.048805 307.584 
L 187.048805 61.480796 
L 184.477184 61.480796 
z
" style="fill:#5e9dfe;fill-opacity:0.815686;"/>
   </g>
   <g id="patch_132">
    <path clip-path="url(#p132d145698)" d="M 187.048805 307.584 
L 189.620426 307.584 
L 189.620426 68.888823 
L 187.048805 68.888823 
z
" style="fill:#5e9dfe;fill-opacity:0.815686;"/>
   </g>
   <g id="patch_133">
    <path clip-path="url(#p132d145698)" d="M 189.620426 307.584 
L 192.192046 307.584 
L 192.192046 85.200728 
L 189.620426 85.200728 
z
" style="fill:#5e9dfe;fill-opacity:0.815686;"/>
   </g>
   <g id="patch_134">
    <path clip-path="url(#p132d145698)" d="M 192.192046 307.584 
L 194.763667 307.584 
L 194.763667 103.115332 
L 192.192046 103.115332 
z
" style="fill:#5e9dfe;fill-opacity:0.815686;"/>
   </g>
   <g id="patch_135">
    <path clip-path="url(#p132d145698)" d="M 194.763667 307.584 
L 197.335288 307.584 
L 197.335288 137.377457 
L 194.763667 137.377457 
z
" style="fill:#5e9dfe;fill-opacity:0.815686;"/>
   </g>
   <g id="patch_136">
    <path clip-path="url(#p132d145698)" d="M 197.335288 307.584 
L 199.906909 307.584 
L 199.906909 157.607069 
L 197.335288 157.607069 
z
" style="fill:#5e9dfe;fill-opacity:0.815686;"/>
   </g>
   <g id="patch_137">
    <path clip-path="url(#p132d145698)" d="M 199.906909 307.584 
L 202.47853 307.584 
L 202.47853 186.241943 
L 199.906909 186.241943 
z
" style="fill:#5e9dfe;fill-opacity:0.815686;"/>
   </g>
   <g id="patch_138">
    <path clip-path="url(#p132d145698)" d="M 202.47853 307.584 
L 205.050151 307.584 
L 205.050151 207.682482 
L 202.47853 207.682482 
z
" style="fill:#5e9dfe;fill-opacity:0.815686;"/>
   </g>
   <g id="patch_139">
    <path clip-path="url(#p132d145698)" d="M 205.050151 307.584 
L 207.621772 307.584 
L 207.621772 229.479177 
L 205.050151 229.479177 
z
" style="fill:#5e9dfe;fill-opacity:0.815686;"/>
   </g>
   <g id="patch_140">
    <path clip-path="url(#p132d145698)" d="M 207.621772 307.584 
L 210.193393 307.584 
L 210.193393 249.281403 
L 207.621772 249.281403 
z
" style="fill:#5e9dfe;fill-opacity:0.815686;"/>
   </g>
   <g id="patch_141">
    <path clip-path="url(#p132d145698)" d="M 210.193393 307.584 
L 212.765014 307.584 
L 212.765014 262.56599 
L 210.193393 262.56599 
z
" style="fill:#5e9dfe;fill-opacity:0.815686;"/>
   </g>
   <g id="patch_142">
    <path clip-path="url(#p132d145698)" d="M 212.765014 307.584 
L 215.336634 307.584 
L 215.336634 273.499953 
L 212.765014 273.499953 
z
" style="fill:#5e9dfe;fill-opacity:0.815686;"/>
   </g>
   <g id="patch_143">
    <path clip-path="url(#p132d145698)" d="M 215.336634 307.584 
L 217.908255 307.584 
L 217.908255 284.148992 
L 215.336634 284.148992 
z
" style="fill:#5e9dfe;fill-opacity:0.815686;"/>
   </g>
   <g id="patch_144">
    <path clip-path="url(#p132d145698)" d="M 217.908255 307.584 
L 220.479876 307.584 
L 220.479876 289.24201 
L 217.908255 289.24201 
z
" style="fill:#5e9dfe;fill-opacity:0.815686;"/>
   </g>
   <g id="patch_145">
    <path clip-path="url(#p132d145698)" d="M 220.479876 307.584 
L 223.051497 307.584 
L 223.051497 294.726799 
L 220.479876 294.726799 
z
" style="fill:#5e9dfe;fill-opacity:0.815686;"/>
   </g>
   <g id="patch_146">
    <path clip-path="url(#p132d145698)" d="M 223.051497 307.584 
L 225.623118 307.584 
L 225.623118 297.860965 
L 223.051497 297.860965 
z
" style="fill:#5e9dfe;fill-opacity:0.815686;"/>
   </g>
   <g id="patch_147">
    <path clip-path="url(#p132d145698)" d="M 225.623118 307.584 
L 228.194739 307.584 
L 228.194739 300.99513 
L 225.623118 300.99513 
z
" style="fill:#5e9dfe;fill-opacity:0.815686;"/>
   </g>
   <g id="patch_148">
    <path clip-path="url(#p132d145698)" d="M 228.194739 307.584 
L 230.76636 307.584 
L 230.76636 303.310138 
L 228.194739 303.310138 
z
" style="fill:#5e9dfe;fill-opacity:0.815686;"/>
   </g>
   <g id="patch_149">
    <path clip-path="url(#p132d145698)" d="M 230.76636 307.584 
L 233.337981 307.584 
L 233.337981 303.915602 
L 230.76636 303.915602 
z
" style="fill:#5e9dfe;fill-opacity:0.815686;"/>
   </g>
   <g id="patch_150">
    <path clip-path="url(#p132d145698)" d="M 233.337981 307.584 
L 235.909602 307.584 
L 235.909602 304.663528 
L 233.337981 304.663528 
z
" style="fill:#5e9dfe;fill-opacity:0.815686;"/>
   </g>
   <g id="patch_151">
    <path clip-path="url(#p132d145698)" d="M 235.909602 307.584 
L 238.481222 307.584 
L 238.481222 305.83884 
L 235.909602 305.83884 
z
" style="fill:#5e9dfe;fill-opacity:0.815686;"/>
   </g>
   <g id="patch_152">
    <path clip-path="url(#p132d145698)" d="M 238.481222 307.584 
L 241.052843 307.584 
L 241.052843 305.910071 
L 238.481222 305.910071 
z
" style="fill:#5e9dfe;fill-opacity:0.815686;"/>
   </g>
   <g id="patch_153">
    <path clip-path="url(#p132d145698)" d="M 241.052843 307.584 
L 243.624464 307.584 
L 243.624464 306.622381 
L 241.052843 306.622381 
z
" style="fill:#5e9dfe;fill-opacity:0.815686;"/>
   </g>
   <g id="patch_154">
    <path clip-path="url(#p132d145698)" d="M 243.624464 307.584 
L 246.196085 307.584 
L 246.196085 306.836074 
L 243.624464 306.836074 
z
" style="fill:#5e9dfe;fill-opacity:0.815686;"/>
   </g>
   <g id="patch_155">
    <path clip-path="url(#p132d145698)" d="M 246.196085 307.584 
L 248.767706 307.584 
L 248.767706 306.907305 
L 246.196085 306.907305 
z
" style="fill:#5e9dfe;fill-opacity:0.815686;"/>
   </g>
   <g id="patch_156">
    <path clip-path="url(#p132d145698)" d="M 248.767706 307.584 
L 251.339327 307.584 
L 251.339327 307.120998 
L 248.767706 307.120998 
z
" style="fill:#5e9dfe;fill-opacity:0.815686;"/>
   </g>
   <g id="patch_157">
    <path clip-path="url(#p132d145698)" d="M 251.339327 307.584 
L 253.910948 307.584 
L 253.910948 307.299076 
L 251.339327 307.299076 
z
" style="fill:#5e9dfe;fill-opacity:0.815686;"/>
   </g>
   <g id="patch_158">
    <path clip-path="url(#p132d145698)" d="M 253.910948 307.584 
L 256.482569 307.584 
L 256.482569 307.370307 
L 253.910948 307.370307 
z
" style="fill:#5e9dfe;fill-opacity:0.815686;"/>
   </g>
   <g id="patch_159">
    <path clip-path="url(#p132d145698)" d="M 256.482569 307.584 
L 259.05419 307.584 
L 259.05419 307.26346 
L 256.482569 307.26346 
z
" style="fill:#5e9dfe;fill-opacity:0.815686;"/>
   </g>
   <g id="patch_160">
    <path clip-path="url(#p132d145698)" d="M 259.05419 307.584 
L 261.62581 307.584 
L 261.62581 307.334691 
L 259.05419 307.334691 
z
" style="fill:#5e9dfe;fill-opacity:0.815686;"/>
   </g>
   <g id="patch_161">
    <path clip-path="url(#p132d145698)" d="M 261.62581 307.584 
L 264.197431 307.584 
L 264.197431 307.26346 
L 261.62581 307.26346 
z
" style="fill:#5e9dfe;fill-opacity:0.815686;"/>
   </g>
   <g id="patch_162">
    <path clip-path="url(#p132d145698)" d="M 264.197431 307.584 
L 266.769052 307.584 
L 266.769052 307.548384 
L 264.197431 307.548384 
z
" style="fill:#5e9dfe;fill-opacity:0.815686;"/>
   </g>
   <g id="patch_163">
    <path clip-path="url(#p132d145698)" d="M 266.769052 307.584 
L 269.340673 307.584 
L 269.340673 307.512769 
L 266.769052 307.512769 
z
" style="fill:#5e9dfe;fill-opacity:0.815686;"/>
   </g>
   <g id="patch_164">
    <path clip-path="url(#p132d145698)" d="M 269.340673 307.584 
L 271.912294 307.584 
L 271.912294 307.370307 
L 269.340673 307.370307 
z
" style="fill:#5e9dfe;fill-opacity:0.815686;"/>
   </g>
   <g id="patch_165">
    <path clip-path="url(#p132d145698)" d="M 271.912294 307.584 
L 274.483915 307.584 
L 274.483915 307.548384 
L 271.912294 307.548384 
z
" style="fill:#5e9dfe;fill-opacity:0.815686;"/>
   </g>
   <g id="patch_166">
    <path clip-path="url(#p132d145698)" d="M 274.483915 307.584 
L 277.055536 307.584 
L 277.055536 307.512769 
L 274.483915 307.512769 
z
" style="fill:#5e9dfe;fill-opacity:0.815686;"/>
   </g>
   <g id="patch_167">
    <path clip-path="url(#p132d145698)" d="M 277.055536 307.584 
L 279.627157 307.584 
L 279.627157 307.584 
L 277.055536 307.584 
z
" style="fill:#5e9dfe;fill-opacity:0.815686;"/>
   </g>
   <g id="patch_168">
    <path clip-path="url(#p132d145698)" d="M 279.627157 307.584 
L 282.198778 307.584 
L 282.198778 307.441538 
L 279.627157 307.441538 
z
" style="fill:#5e9dfe;fill-opacity:0.815686;"/>
   </g>
   <g id="patch_169">
    <path clip-path="url(#p132d145698)" d="M 282.198778 307.584 
L 284.770398 307.584 
L 284.770398 307.548384 
L 282.198778 307.548384 
z
" style="fill:#5e9dfe;fill-opacity:0.815686;"/>
   </g>
   <g id="patch_170">
    <path clip-path="url(#p132d145698)" d="M 284.770398 307.584 
L 287.342019 307.584 
L 287.342019 307.584 
L 284.770398 307.584 
z
" style="fill:#5e9dfe;fill-opacity:0.815686;"/>
   </g>
   <g id="patch_171">
    <path clip-path="url(#p132d145698)" d="M 287.342019 307.584 
L 289.91364 307.584 
L 289.91364 307.477153 
L 287.342019 307.477153 
z
" style="fill:#5e9dfe;fill-opacity:0.815686;"/>
   </g>
   <g id="patch_172">
    <path clip-path="url(#p132d145698)" d="M 289.91364 307.584 
L 292.485261 307.584 
L 292.485261 307.548384 
L 289.91364 307.548384 
z
" style="fill:#5e9dfe;fill-opacity:0.815686;"/>
   </g>
   <g id="patch_173">
    <path clip-path="url(#p132d145698)" d="M 292.485261 307.584 
L 295.056882 307.584 
L 295.056882 307.584 
L 292.485261 307.584 
z
" style="fill:#5e9dfe;fill-opacity:0.815686;"/>
   </g>
   <g id="patch_174">
    <path clip-path="url(#p132d145698)" d="M 295.056882 307.584 
L 297.628503 307.584 
L 297.628503 307.477153 
L 295.056882 307.477153 
z
" style="fill:#5e9dfe;fill-opacity:0.815686;"/>
   </g>
   <g id="patch_175">
    <path clip-path="url(#p132d145698)" d="M 297.628503 307.584 
L 300.200124 307.584 
L 300.200124 307.477153 
L 297.628503 307.477153 
z
" style="fill:#5e9dfe;fill-opacity:0.815686;"/>
   </g>
   <g id="patch_176">
    <path clip-path="url(#p132d145698)" d="M 300.200124 307.584 
L 302.771745 307.584 
L 302.771745 307.584 
L 300.200124 307.584 
z
" style="fill:#5e9dfe;fill-opacity:0.815686;"/>
   </g>
   <g id="patch_177">
    <path clip-path="url(#p132d145698)" d="M 302.771745 307.584 
L 305.343366 307.584 
L 305.343366 307.405922 
L 302.771745 307.405922 
z
" style="fill:#5e9dfe;fill-opacity:0.815686;"/>
   </g>
   <g id="patch_178">
    <path clip-path="url(#p132d145698)" d="M 305.343366 307.584 
L 307.914986 307.584 
L 307.914986 307.584 
L 305.343366 307.584 
z
" style="fill:#5e9dfe;fill-opacity:0.815686;"/>
   </g>
   <g id="patch_179">
    <path clip-path="url(#p132d145698)" d="M 307.914986 307.584 
L 310.486607 307.584 
L 310.486607 307.584 
L 307.914986 307.584 
z
" style="fill:#5e9dfe;fill-opacity:0.815686;"/>
   </g>
   <g id="patch_180">
    <path clip-path="url(#p132d145698)" d="M 310.486607 307.584 
L 313.058228 307.584 
L 313.058228 307.584 
L 310.486607 307.584 
z
" style="fill:#5e9dfe;fill-opacity:0.815686;"/>
   </g>
   <g id="patch_181">
    <path clip-path="url(#p132d145698)" d="M 313.058228 307.584 
L 315.629849 307.584 
L 315.629849 307.548384 
L 313.058228 307.548384 
z
" style="fill:#5e9dfe;fill-opacity:0.815686;"/>
   </g>
   <g id="patch_182">
    <path clip-path="url(#p132d145698)" d="M 315.629849 307.584 
L 318.20147 307.584 
L 318.20147 307.584 
L 315.629849 307.584 
z
" style="fill:#5e9dfe;fill-opacity:0.815686;"/>
   </g>
   <g id="patch_183">
    <path clip-path="url(#p132d145698)" d="M 318.20147 307.584 
L 320.773091 307.584 
L 320.773091 307.548384 
L 318.20147 307.548384 
z
" style="fill:#5e9dfe;fill-opacity:0.815686;"/>
   </g>
   <g id="patch_184">
    <path clip-path="url(#p132d145698)" d="M 320.773091 307.584 
L 323.344712 307.584 
L 323.344712 307.584 
L 320.773091 307.584 
z
" style="fill:#5e9dfe;fill-opacity:0.815686;"/>
   </g>
   <g id="patch_185">
    <path clip-path="url(#p132d145698)" d="M 323.344712 307.584 
L 325.916333 307.584 
L 325.916333 307.584 
L 323.344712 307.584 
z
" style="fill:#5e9dfe;fill-opacity:0.815686;"/>
   </g>
   <g id="patch_186">
    <path clip-path="url(#p132d145698)" d="M 325.916333 307.584 
L 328.487954 307.584 
L 328.487954 307.477153 
L 325.916333 307.477153 
z
" style="fill:#5e9dfe;fill-opacity:0.815686;"/>
   </g>
   <g id="patch_187">
    <path clip-path="url(#p132d145698)" d="M 328.487954 307.584 
L 331.059574 307.584 
L 331.059574 307.548384 
L 328.487954 307.548384 
z
" style="fill:#5e9dfe;fill-opacity:0.815686;"/>
   </g>
   <g id="patch_188">
    <path clip-path="url(#p132d145698)" d="M 331.059574 307.584 
L 333.631195 307.584 
L 333.631195 307.548384 
L 331.059574 307.548384 
z
" style="fill:#5e9dfe;fill-opacity:0.815686;"/>
   </g>
   <g id="patch_189">
    <path clip-path="url(#p132d145698)" d="M 333.631195 307.584 
L 336.202816 307.584 
L 336.202816 307.548384 
L 333.631195 307.548384 
z
" style="fill:#5e9dfe;fill-opacity:0.815686;"/>
   </g>
   <g id="patch_190">
    <path clip-path="url(#p132d145698)" d="M 336.202816 307.584 
L 338.774437 307.584 
L 338.774437 307.548384 
L 336.202816 307.548384 
z
" style="fill:#5e9dfe;fill-opacity:0.815686;"/>
   </g>
   <g id="patch_191">
    <path clip-path="url(#p132d145698)" d="M 338.774437 307.584 
L 341.346058 307.584 
L 341.346058 307.584 
L 338.774437 307.584 
z
" style="fill:#5e9dfe;fill-opacity:0.815686;"/>
   </g>
   <g id="patch_192">
    <path clip-path="url(#p132d145698)" d="M 341.346058 307.584 
L 343.917679 307.584 
L 343.917679 307.584 
L 341.346058 307.584 
z
" style="fill:#5e9dfe;fill-opacity:0.815686;"/>
   </g>
   <g id="patch_193">
    <path clip-path="url(#p132d145698)" d="M 343.917679 307.584 
L 346.4893 307.584 
L 346.4893 307.584 
L 343.917679 307.584 
z
" style="fill:#5e9dfe;fill-opacity:0.815686;"/>
   </g>
   <g id="patch_194">
    <path clip-path="url(#p132d145698)" d="M 346.4893 307.584 
L 349.060921 307.584 
L 349.060921 307.512769 
L 346.4893 307.512769 
z
" style="fill:#5e9dfe;fill-opacity:0.815686;"/>
   </g>
   <g id="patch_195">
    <path clip-path="url(#p132d145698)" d="M 349.060921 307.584 
L 351.632542 307.584 
L 351.632542 307.584 
L 349.060921 307.584 
z
" style="fill:#5e9dfe;fill-opacity:0.815686;"/>
   </g>
   <g id="patch_196">
    <path clip-path="url(#p132d145698)" d="M 351.632542 307.584 
L 354.204162 307.584 
L 354.204162 307.477153 
L 351.632542 307.477153 
z
" style="fill:#5e9dfe;fill-opacity:0.815686;"/>
   </g>
   <g id="patch_197">
    <path clip-path="url(#p132d145698)" d="M 354.204162 307.584 
L 356.775783 307.584 
L 356.775783 307.584 
L 354.204162 307.584 
z
" style="fill:#5e9dfe;fill-opacity:0.815686;"/>
   </g>
   <g id="patch_198">
    <path clip-path="url(#p132d145698)" d="M 356.775783 307.584 
L 359.347404 307.584 
L 359.347404 307.548384 
L 356.775783 307.548384 
z
" style="fill:#5e9dfe;fill-opacity:0.815686;"/>
   </g>
   <g id="patch_199">
    <path clip-path="url(#p132d145698)" d="M 359.347404 307.584 
L 361.919025 307.584 
L 361.919025 307.548384 
L 359.347404 307.548384 
z
" style="fill:#5e9dfe;fill-opacity:0.815686;"/>
   </g>
   <g id="patch_200">
    <path clip-path="url(#p132d145698)" d="M 361.919025 307.584 
L 364.490646 307.584 
L 364.490646 307.584 
L 361.919025 307.584 
z
" style="fill:#5e9dfe;fill-opacity:0.815686;"/>
   </g>
   <g id="patch_201">
    <path clip-path="url(#p132d145698)" d="M 364.490646 307.584 
L 367.062267 307.584 
L 367.062267 307.584 
L 364.490646 307.584 
z
" style="fill:#5e9dfe;fill-opacity:0.815686;"/>
   </g>
   <g id="patch_202">
    <path clip-path="url(#p132d145698)" d="M 367.062267 307.584 
L 369.633888 307.584 
L 369.633888 307.512769 
L 367.062267 307.512769 
z
" style="fill:#5e9dfe;fill-opacity:0.815686;"/>
   </g>
   <g id="patch_203">
    <path clip-path="url(#p132d145698)" d="M 93.979729 307.584 
L 97.024805 307.584 
L 97.024805 306.907305 
L 93.979729 306.907305 
z
" style="fill:#5eedfe;fill-opacity:0.815686;"/>
   </g>
   <g id="patch_204">
    <path clip-path="url(#p132d145698)" d="M 97.024805 307.584 
L 100.06988 307.584 
L 100.06988 305.304607 
L 97.024805 305.304607 
z
" style="fill:#5eedfe;fill-opacity:0.815686;"/>
   </g>
   <g id="patch_205">
    <path clip-path="url(#p132d145698)" d="M 100.06988 307.584 
L 103.114956 307.584 
L 103.114956 304.022449 
L 100.06988 304.022449 
z
" style="fill:#5eedfe;fill-opacity:0.815686;"/>
   </g>
   <g id="patch_206">
    <path clip-path="url(#p132d145698)" d="M 103.114956 307.584 
L 106.160031 307.584 
L 106.160031 300.817052 
L 103.114956 300.817052 
z
" style="fill:#5eedfe;fill-opacity:0.815686;"/>
   </g>
   <g id="patch_207">
    <path clip-path="url(#p132d145698)" d="M 106.160031 307.584 
L 109.205106 307.584 
L 109.205106 296.578806 
L 106.160031 296.578806 
z
" style="fill:#5eedfe;fill-opacity:0.815686;"/>
   </g>
   <g id="patch_208">
    <path clip-path="url(#p132d145698)" d="M 109.205106 307.584 
L 112.250182 307.584 
L 112.250182 292.874793 
L 109.205106 292.874793 
z
" style="fill:#5eedfe;fill-opacity:0.815686;"/>
   </g>
   <g id="patch_209">
    <path clip-path="url(#p132d145698)" d="M 112.250182 307.584 
L 115.295257 307.584 
L 115.295257 291.129632 
L 112.250182 291.129632 
z
" style="fill:#5eedfe;fill-opacity:0.815686;"/>
   </g>
   <g id="patch_210">
    <path clip-path="url(#p132d145698)" d="M 115.295257 307.584 
L 118.340333 307.584 
L 118.340333 286.713309 
L 115.295257 286.713309 
z
" style="fill:#5eedfe;fill-opacity:0.815686;"/>
   </g>
   <g id="patch_211">
    <path clip-path="url(#p132d145698)" d="M 118.340333 307.584 
L 121.385408 307.584 
L 121.385408 287.461234 
L 118.340333 287.461234 
z
" style="fill:#5eedfe;fill-opacity:0.815686;"/>
   </g>
   <g id="patch_212">
    <path clip-path="url(#p132d145698)" d="M 121.385408 307.584 
L 124.430484 307.584 
L 124.430484 285.929767 
L 121.385408 285.929767 
z
" style="fill:#5eedfe;fill-opacity:0.815686;"/>
   </g>
   <g id="patch_213">
    <path clip-path="url(#p132d145698)" d="M 124.430484 307.584 
L 127.475559 307.584 
L 127.475559 284.469531 
L 124.430484 284.469531 
z
" style="fill:#5eedfe;fill-opacity:0.815686;"/>
   </g>
   <g id="patch_214">
    <path clip-path="url(#p132d145698)" d="M 127.475559 307.584 
L 130.520634 307.584 
L 130.520634 285.537997 
L 127.475559 285.537997 
z
" style="fill:#5eedfe;fill-opacity:0.815686;"/>
   </g>
   <g id="patch_215">
    <path clip-path="url(#p132d145698)" d="M 130.520634 307.584 
L 133.56571 307.584 
L 133.56571 285.680459 
L 130.520634 285.680459 
z
" style="fill:#5eedfe;fill-opacity:0.815686;"/>
   </g>
   <g id="patch_216">
    <path clip-path="url(#p132d145698)" d="M 133.56571 307.584 
L 136.610785 307.584 
L 136.610785 285.253073 
L 133.56571 285.253073 
z
" style="fill:#5eedfe;fill-opacity:0.815686;"/>
   </g>
   <g id="patch_217">
    <path clip-path="url(#p132d145698)" d="M 136.610785 307.584 
L 139.655861 307.584 
L 139.655861 285.253073 
L 136.610785 285.253073 
z
" style="fill:#5eedfe;fill-opacity:0.815686;"/>
   </g>
   <g id="patch_218">
    <path clip-path="url(#p132d145698)" d="M 139.655861 307.584 
L 142.700936 307.584 
L 142.700936 284.255838 
L 139.655861 284.255838 
z
" style="fill:#5eedfe;fill-opacity:0.815686;"/>
   </g>
   <g id="patch_219">
    <path clip-path="url(#p132d145698)" d="M 142.700936 307.584 
L 145.746012 307.584 
L 145.746012 279.768283 
L 142.700936 279.768283 
z
" style="fill:#5eedfe;fill-opacity:0.815686;"/>
   </g>
   <g id="patch_220">
    <path clip-path="url(#p132d145698)" d="M 145.746012 307.584 
L 148.791087 307.584 
L 148.791087 277.025889 
L 145.746012 277.025889 
z
" style="fill:#5eedfe;fill-opacity:0.815686;"/>
   </g>
   <g id="patch_221">
    <path clip-path="url(#p132d145698)" d="M 148.791087 307.584 
L 151.836162 307.584 
L 151.836162 268.050779 
L 148.791087 268.050779 
z
" style="fill:#5eedfe;fill-opacity:0.815686;"/>
   </g>
   <g id="patch_222">
    <path clip-path="url(#p132d145698)" d="M 151.836162 307.584 
L 154.881238 307.584 
L 154.881238 263.100223 
L 151.836162 263.100223 
z
" style="fill:#5eedfe;fill-opacity:0.815686;"/>
   </g>
   <g id="patch_223">
    <path clip-path="url(#p132d145698)" d="M 154.881238 307.584 
L 157.926313 307.584 
L 157.926313 260.50029 
L 154.881238 260.50029 
z
" style="fill:#5eedfe;fill-opacity:0.815686;"/>
   </g>
   <g id="patch_224">
    <path clip-path="url(#p132d145698)" d="M 157.926313 307.584 
L 160.971389 307.584 
L 160.971389 257.366125 
L 157.926313 257.366125 
z
" style="fill:#5eedfe;fill-opacity:0.815686;"/>
   </g>
   <g id="patch_225">
    <path clip-path="url(#p132d145698)" d="M 160.971389 307.584 
L 164.016464 307.584 
L 164.016464 251.418334 
L 160.971389 251.418334 
z
" style="fill:#5eedfe;fill-opacity:0.815686;"/>
   </g>
   <g id="patch_226">
    <path clip-path="url(#p132d145698)" d="M 164.016464 307.584 
L 167.06154 307.584 
L 167.06154 239.950138 
L 164.016464 239.950138 
z
" style="fill:#5eedfe;fill-opacity:0.815686;"/>
   </g>
   <g id="patch_227">
    <path clip-path="url(#p132d145698)" d="M 167.06154 307.584 
L 170.106615 307.584 
L 170.106615 219.827373 
L 167.06154 219.827373 
z
" style="fill:#5eedfe;fill-opacity:0.815686;"/>
   </g>
   <g id="patch_228">
    <path clip-path="url(#p132d145698)" d="M 170.106615 307.584 
L 173.151691 307.584 
L 173.151691 181.611926 
L 170.106615 181.611926 
z
" style="fill:#5eedfe;fill-opacity:0.815686;"/>
   </g>
   <g id="patch_229">
    <path clip-path="url(#p132d145698)" d="M 173.151691 307.584 
L 176.196766 307.584 
L 176.196766 152.905821 
L 173.151691 152.905821 
z
" style="fill:#5eedfe;fill-opacity:0.815686;"/>
   </g>
   <g id="patch_230">
    <path clip-path="url(#p132d145698)" d="M 176.196766 307.584 
L 179.241841 307.584 
L 179.241841 129.185889 
L 176.196766 129.185889 
z
" style="fill:#5eedfe;fill-opacity:0.815686;"/>
   </g>
   <g id="patch_231">
    <path clip-path="url(#p132d145698)" d="M 179.241841 307.584 
L 182.286917 307.584 
L 182.286917 119.96147 
L 179.241841 119.96147 
z
" style="fill:#5eedfe;fill-opacity:0.815686;"/>
   </g>
   <g id="patch_232">
    <path clip-path="url(#p132d145698)" d="M 182.286917 307.584 
L 185.331992 307.584 
L 185.331992 106.854961 
L 182.286917 106.854961 
z
" style="fill:#5eedfe;fill-opacity:0.815686;"/>
   </g>
   <g id="patch_233">
    <path clip-path="url(#p132d145698)" d="M 185.331992 307.584 
L 188.377068 307.584 
L 188.377068 109.419278 
L 185.331992 109.419278 
z
" style="fill:#5eedfe;fill-opacity:0.815686;"/>
   </g>
   <g id="patch_234">
    <path clip-path="url(#p132d145698)" d="M 188.377068 307.584 
L 191.422143 307.584 
L 191.422143 112.090442 
L 188.377068 112.090442 
z
" style="fill:#5eedfe;fill-opacity:0.815686;"/>
   </g>
   <g id="patch_235">
    <path clip-path="url(#p132d145698)" d="M 191.422143 307.584 
L 194.467219 307.584 
L 194.467219 128.295501 
L 191.422143 128.295501 
z
" style="fill:#5eedfe;fill-opacity:0.815686;"/>
   </g>
   <g id="patch_236">
    <path clip-path="url(#p132d145698)" d="M 194.467219 307.584 
L 197.512294 307.584 
L 197.512294 144.607406 
L 194.467219 144.607406 
z
" style="fill:#5eedfe;fill-opacity:0.815686;"/>
   </g>
   <g id="patch_237">
    <path clip-path="url(#p132d145698)" d="M 197.512294 307.584 
L 200.557369 307.584 
L 200.557369 158.782381 
L 197.512294 158.782381 
z
" style="fill:#5eedfe;fill-opacity:0.815686;"/>
   </g>
   <g id="patch_238">
    <path clip-path="url(#p132d145698)" d="M 200.557369 307.584 
L 203.602445 307.584 
L 203.602445 181.362617 
L 200.557369 181.362617 
z
" style="fill:#5eedfe;fill-opacity:0.815686;"/>
   </g>
   <g id="patch_239">
    <path clip-path="url(#p132d145698)" d="M 203.602445 307.584 
L 206.64752 307.584 
L 206.64752 203.586698 
L 203.602445 203.586698 
z
" style="fill:#5eedfe;fill-opacity:0.815686;"/>
   </g>
   <g id="patch_240">
    <path clip-path="url(#p132d145698)" d="M 206.64752 307.584 
L 209.692596 307.584 
L 209.692596 214.912432 
L 206.64752 214.912432 
z
" style="fill:#5eedfe;fill-opacity:0.815686;"/>
   </g>
   <g id="patch_241">
    <path clip-path="url(#p132d145698)" d="M 209.692596 307.584 
L 212.737671 307.584 
L 212.737671 233.50373 
L 209.692596 233.50373 
z
" style="fill:#5eedfe;fill-opacity:0.815686;"/>
   </g>
   <g id="patch_242">
    <path clip-path="url(#p132d145698)" d="M 212.737671 307.584 
L 215.782747 307.584 
L 215.782747 250.349868 
L 212.737671 250.349868 
z
" style="fill:#5eedfe;fill-opacity:0.815686;"/>
   </g>
   <g id="patch_243">
    <path clip-path="url(#p132d145698)" d="M 215.782747 307.584 
L 218.827822 307.584 
L 218.827822 260.678368 
L 215.782747 260.678368 
z
" style="fill:#5eedfe;fill-opacity:0.815686;"/>
   </g>
   <g id="patch_244">
    <path clip-path="url(#p132d145698)" d="M 218.827822 307.584 
L 221.872897 307.584 
L 221.872897 272.395872 
L 218.827822 272.395872 
z
" style="fill:#5eedfe;fill-opacity:0.815686;"/>
   </g>
   <g id="patch_245">
    <path clip-path="url(#p132d145698)" d="M 221.872897 307.584 
L 224.917973 307.584 
L 224.917973 278.343663 
L 221.872897 278.343663 
z
" style="fill:#5eedfe;fill-opacity:0.815686;"/>
   </g>
   <g id="patch_246">
    <path clip-path="url(#p132d145698)" d="M 224.917973 307.584 
L 227.963048 307.584 
L 227.963048 280.516209 
L 224.917973 280.516209 
z
" style="fill:#5eedfe;fill-opacity:0.815686;"/>
   </g>
   <g id="patch_247">
    <path clip-path="url(#p132d145698)" d="M 227.963048 307.584 
L 231.008124 307.584 
L 231.008124 284.647609 
L 227.963048 284.647609 
z
" style="fill:#5eedfe;fill-opacity:0.815686;"/>
   </g>
   <g id="patch_248">
    <path clip-path="url(#p132d145698)" d="M 231.008124 307.584 
L 234.053199 307.584 
L 234.053199 283.864067 
L 231.008124 283.864067 
z
" style="fill:#5eedfe;fill-opacity:0.815686;"/>
   </g>
   <g id="patch_249">
    <path clip-path="url(#p132d145698)" d="M 234.053199 307.584 
L 237.098275 307.584 
L 237.098275 285.716074 
L 234.053199 285.716074 
z
" style="fill:#5eedfe;fill-opacity:0.815686;"/>
   </g>
   <g id="patch_250">
    <path clip-path="url(#p132d145698)" d="M 237.098275 307.584 
L 240.14335 307.584 
L 240.14335 286.464 
L 237.098275 286.464 
z
" style="fill:#5eedfe;fill-opacity:0.815686;"/>
   </g>
   <g id="patch_251">
    <path clip-path="url(#p132d145698)" d="M 240.14335 307.584 
L 243.188426 307.584 
L 243.188426 286.535231 
L 240.14335 286.535231 
z
" style="fill:#5eedfe;fill-opacity:0.815686;"/>
   </g>
   <g id="patch_252">
    <path clip-path="url(#p132d145698)" d="M 243.188426 307.584 
L 246.233501 307.584 
L 246.233501 285.395535 
L 243.188426 285.395535 
z
" style="fill:#5eedfe;fill-opacity:0.815686;"/>
   </g>
   <g id="patch_253">
    <path clip-path="url(#p132d145698)" d="M 246.233501 307.584 
L 249.278576 307.584 
L 249.278576 285.039379 
L 246.233501 285.039379 
z
" style="fill:#5eedfe;fill-opacity:0.815686;"/>
   </g>
   <g id="patch_254">
    <path clip-path="url(#p132d145698)" d="M 249.278576 307.584 
L 252.323652 307.584 
L 252.323652 288.173545 
L 249.278576 288.173545 
z
" style="fill:#5eedfe;fill-opacity:0.815686;"/>
   </g>
   <g id="patch_255">
    <path clip-path="url(#p132d145698)" d="M 252.323652 307.584 
L 255.368727 307.584 
L 255.368727 289.028317 
L 252.323652 289.028317 
z
" style="fill:#5eedfe;fill-opacity:0.815686;"/>
   </g>
   <g id="patch_256">
    <path clip-path="url(#p132d145698)" d="M 255.368727 307.584 
L 258.413803 307.584 
L 258.413803 289.883089 
L 255.368727 289.883089 
z
" style="fill:#5eedfe;fill-opacity:0.815686;"/>
   </g>
   <g id="patch_257">
    <path clip-path="url(#p132d145698)" d="M 258.413803 307.584 
L 261.458878 307.584 
L 261.458878 292.483022 
L 258.413803 292.483022 
z
" style="fill:#5eedfe;fill-opacity:0.815686;"/>
   </g>
   <g id="patch_258">
    <path clip-path="url(#p132d145698)" d="M 261.458878 307.584 
L 264.503954 307.584 
L 264.503954 295.189801 
L 261.458878 295.189801 
z
" style="fill:#5eedfe;fill-opacity:0.815686;"/>
   </g>
   <g id="patch_259">
    <path clip-path="url(#p132d145698)" d="M 264.503954 307.584 
L 267.549029 307.584 
L 267.549029 296.47196 
L 264.503954 296.47196 
z
" style="fill:#5eedfe;fill-opacity:0.815686;"/>
   </g>
   <g id="patch_260">
    <path clip-path="url(#p132d145698)" d="M 267.549029 307.584 
L 270.594104 307.584 
L 270.594104 299.534894 
L 267.549029 299.534894 
z
" style="fill:#5eedfe;fill-opacity:0.815686;"/>
   </g>
   <g id="patch_261">
    <path clip-path="url(#p132d145698)" d="M 270.594104 307.584 
L 273.63918 307.584 
L 273.63918 301.636209 
L 270.594104 301.636209 
z
" style="fill:#5eedfe;fill-opacity:0.815686;"/>
   </g>
   <g id="patch_262">
    <path clip-path="url(#p132d145698)" d="M 273.63918 307.584 
L 276.684255 307.584 
L 276.684255 302.170442 
L 273.63918 302.170442 
z
" style="fill:#5eedfe;fill-opacity:0.815686;"/>
   </g>
   <g id="patch_263">
    <path clip-path="url(#p132d145698)" d="M 276.684255 307.584 
L 279.729331 307.584 
L 279.729331 303.986833 
L 276.684255 303.986833 
z
" style="fill:#5eedfe;fill-opacity:0.815686;"/>
   </g>
   <g id="patch_264">
    <path clip-path="url(#p132d145698)" d="M 279.729331 307.584 
L 282.774406 307.584 
L 282.774406 304.627912 
L 279.729331 304.627912 
z
" style="fill:#5eedfe;fill-opacity:0.815686;"/>
   </g>
   <g id="patch_265">
    <path clip-path="url(#p132d145698)" d="M 282.774406 307.584 
L 285.819482 307.584 
L 285.819482 305.233376 
L 282.774406 305.233376 
z
" style="fill:#5eedfe;fill-opacity:0.815686;"/>
   </g>
   <g id="patch_266">
    <path clip-path="url(#p132d145698)" d="M 285.819482 307.584 
L 288.864557 307.584 
L 288.864557 306.052533 
L 285.819482 306.052533 
z
" style="fill:#5eedfe;fill-opacity:0.815686;"/>
   </g>
   <g id="patch_267">
    <path clip-path="url(#p132d145698)" d="M 288.864557 307.584 
L 291.909632 307.584 
L 291.909632 306.622381 
L 288.864557 306.622381 
z
" style="fill:#5eedfe;fill-opacity:0.815686;"/>
   </g>
   <g id="patch_268">
    <path clip-path="url(#p132d145698)" d="M 291.909632 307.584 
L 294.954708 307.584 
L 294.954708 306.622381 
L 291.909632 306.622381 
z
" style="fill:#5eedfe;fill-opacity:0.815686;"/>
   </g>
   <g id="patch_269">
    <path clip-path="url(#p132d145698)" d="M 294.954708 307.584 
L 297.999783 307.584 
L 297.999783 306.479919 
L 294.954708 306.479919 
z
" style="fill:#5eedfe;fill-opacity:0.815686;"/>
   </g>
   <g id="patch_270">
    <path clip-path="url(#p132d145698)" d="M 297.999783 307.584 
L 301.044859 307.584 
L 301.044859 306.978536 
L 297.999783 306.978536 
z
" style="fill:#5eedfe;fill-opacity:0.815686;"/>
   </g>
   <g id="patch_271">
    <path clip-path="url(#p132d145698)" d="M 301.044859 307.584 
L 304.089934 307.584 
L 304.089934 307.049767 
L 301.044859 307.049767 
z
" style="fill:#5eedfe;fill-opacity:0.815686;"/>
   </g>
   <g id="patch_272">
    <path clip-path="url(#p132d145698)" d="M 304.089934 307.584 
L 307.13501 307.584 
L 307.13501 307.26346 
L 304.089934 307.26346 
z
" style="fill:#5eedfe;fill-opacity:0.815686;"/>
   </g>
   <g id="patch_273">
    <path clip-path="url(#p132d145698)" d="M 307.13501 307.584 
L 310.180085 307.584 
L 310.180085 307.227845 
L 307.13501 307.227845 
z
" style="fill:#5eedfe;fill-opacity:0.815686;"/>
   </g>
   <g id="patch_274">
    <path clip-path="url(#p132d145698)" d="M 310.180085 307.584 
L 313.225161 307.584 
L 313.225161 307.014152 
L 310.180085 307.014152 
z
" style="fill:#5eedfe;fill-opacity:0.815686;"/>
   </g>
   <g id="patch_275">
    <path clip-path="url(#p132d145698)" d="M 313.225161 307.584 
L 316.270236 307.584 
L 316.270236 307.334691 
L 313.225161 307.334691 
z
" style="fill:#5eedfe;fill-opacity:0.815686;"/>
   </g>
   <g id="patch_276">
    <path clip-path="url(#p132d145698)" d="M 316.270236 307.584 
L 319.315311 307.584 
L 319.315311 307.334691 
L 316.270236 307.334691 
z
" style="fill:#5eedfe;fill-opacity:0.815686;"/>
   </g>
   <g id="patch_277">
    <path clip-path="url(#p132d145698)" d="M 319.315311 307.584 
L 322.360387 307.584 
L 322.360387 307.334691 
L 319.315311 307.334691 
z
" style="fill:#5eedfe;fill-opacity:0.815686;"/>
   </g>
   <g id="patch_278">
    <path clip-path="url(#p132d145698)" d="M 322.360387 307.584 
L 325.405462 307.584 
L 325.405462 307.334691 
L 322.360387 307.334691 
z
" style="fill:#5eedfe;fill-opacity:0.815686;"/>
   </g>
   <g id="patch_279">
    <path clip-path="url(#p132d145698)" d="M 325.405462 307.584 
L 328.450538 307.584 
L 328.450538 307.192229 
L 325.405462 307.192229 
z
" style="fill:#5eedfe;fill-opacity:0.815686;"/>
   </g>
   <g id="patch_280">
    <path clip-path="url(#p132d145698)" d="M 328.450538 307.584 
L 331.495613 307.584 
L 331.495613 307.405922 
L 328.450538 307.405922 
z
" style="fill:#5eedfe;fill-opacity:0.815686;"/>
   </g>
   <g id="patch_281">
    <path clip-path="url(#p132d145698)" d="M 331.495613 307.584 
L 334.540689 307.584 
L 334.540689 307.299076 
L 331.495613 307.299076 
z
" style="fill:#5eedfe;fill-opacity:0.815686;"/>
   </g>
   <g id="patch_282">
    <path clip-path="url(#p132d145698)" d="M 334.540689 307.584 
L 337.585764 307.584 
L 337.585764 307.405922 
L 334.540689 307.405922 
z
" style="fill:#5eedfe;fill-opacity:0.815686;"/>
   </g>
   <g id="patch_283">
    <path clip-path="url(#p132d145698)" d="M 337.585764 307.584 
L 340.630839 307.584 
L 340.630839 307.405922 
L 337.585764 307.405922 
z
" style="fill:#5eedfe;fill-opacity:0.815686;"/>
   </g>
   <g id="patch_284">
    <path clip-path="url(#p132d145698)" d="M 340.630839 307.584 
L 343.675915 307.584 
L 343.675915 307.227845 
L 340.630839 307.227845 
z
" style="fill:#5eedfe;fill-opacity:0.815686;"/>
   </g>
   <g id="patch_285">
    <path clip-path="url(#p132d145698)" d="M 343.675915 307.584 
L 346.72099 307.584 
L 346.72099 307.334691 
L 343.675915 307.334691 
z
" style="fill:#5eedfe;fill-opacity:0.815686;"/>
   </g>
   <g id="patch_286">
    <path clip-path="url(#p132d145698)" d="M 346.72099 307.584 
L 349.766066 307.584 
L 349.766066 307.405922 
L 346.72099 307.405922 
z
" style="fill:#5eedfe;fill-opacity:0.815686;"/>
   </g>
   <g id="patch_287">
    <path clip-path="url(#p132d145698)" d="M 349.766066 307.584 
L 352.811141 307.584 
L 352.811141 307.370307 
L 349.766066 307.370307 
z
" style="fill:#5eedfe;fill-opacity:0.815686;"/>
   </g>
   <g id="patch_288">
    <path clip-path="url(#p132d145698)" d="M 352.811141 307.584 
L 355.856217 307.584 
L 355.856217 307.441538 
L 352.811141 307.441538 
z
" style="fill:#5eedfe;fill-opacity:0.815686;"/>
   </g>
   <g id="patch_289">
    <path clip-path="url(#p132d145698)" d="M 355.856217 307.584 
L 358.901292 307.584 
L 358.901292 307.441538 
L 355.856217 307.441538 
z
" style="fill:#5eedfe;fill-opacity:0.815686;"/>
   </g>
   <g id="patch_290">
    <path clip-path="url(#p132d145698)" d="M 358.901292 307.584 
L 361.946368 307.584 
L 361.946368 307.512769 
L 358.901292 307.512769 
z
" style="fill:#5eedfe;fill-opacity:0.815686;"/>
   </g>
   <g id="patch_291">
    <path clip-path="url(#p132d145698)" d="M 361.946368 307.584 
L 364.991443 307.584 
L 364.991443 307.548384 
L 361.946368 307.548384 
z
" style="fill:#5eedfe;fill-opacity:0.815686;"/>
   </g>
   <g id="patch_292">
    <path clip-path="url(#p132d145698)" d="M 364.991443 307.584 
L 368.036518 307.584 
L 368.036518 307.441538 
L 364.991443 307.441538 
z
" style="fill:#5eedfe;fill-opacity:0.815686;"/>
   </g>
   <g id="patch_293">
    <path clip-path="url(#p132d145698)" d="M 368.036518 307.584 
L 371.081594 307.584 
L 371.081594 307.405922 
L 368.036518 307.405922 
z
" style="fill:#5eedfe;fill-opacity:0.815686;"/>
   </g>
   <g id="patch_294">
    <path clip-path="url(#p132d145698)" d="M 371.081594 307.584 
L 374.126669 307.584 
L 374.126669 307.441538 
L 371.081594 307.441538 
z
" style="fill:#5eedfe;fill-opacity:0.815686;"/>
   </g>
   <g id="patch_295">
    <path clip-path="url(#p132d145698)" d="M 374.126669 307.584 
L 377.171745 307.584 
L 377.171745 307.512769 
L 374.126669 307.512769 
z
" style="fill:#5eedfe;fill-opacity:0.815686;"/>
   </g>
   <g id="patch_296">
    <path clip-path="url(#p132d145698)" d="M 377.171745 307.584 
L 380.21682 307.584 
L 380.21682 307.441538 
L 377.171745 307.441538 
z
" style="fill:#5eedfe;fill-opacity:0.815686;"/>
   </g>
   <g id="patch_297">
    <path clip-path="url(#p132d145698)" d="M 380.21682 307.584 
L 383.261896 307.584 
L 383.261896 307.512769 
L 380.21682 307.512769 
z
" style="fill:#5eedfe;fill-opacity:0.815686;"/>
   </g>
   <g id="patch_298">
    <path clip-path="url(#p132d145698)" d="M 383.261896 307.584 
L 386.306971 307.584 
L 386.306971 307.370307 
L 383.261896 307.370307 
z
" style="fill:#5eedfe;fill-opacity:0.815686;"/>
   </g>
   <g id="patch_299">
    <path clip-path="url(#p132d145698)" d="M 386.306971 307.584 
L 389.352046 307.584 
L 389.352046 307.405922 
L 386.306971 307.405922 
z
" style="fill:#5eedfe;fill-opacity:0.815686;"/>
   </g>
   <g id="patch_300">
    <path clip-path="url(#p132d145698)" d="M 389.352046 307.584 
L 392.397122 307.584 
L 392.397122 307.477153 
L 389.352046 307.477153 
z
" style="fill:#5eedfe;fill-opacity:0.815686;"/>
   </g>
   <g id="patch_301">
    <path clip-path="url(#p132d145698)" d="M 392.397122 307.584 
L 395.442197 307.584 
L 395.442197 307.370307 
L 392.397122 307.370307 
z
" style="fill:#5eedfe;fill-opacity:0.815686;"/>
   </g>
   <g id="patch_302">
    <path clip-path="url(#p132d145698)" d="M 395.442197 307.584 
L 398.487273 307.584 
L 398.487273 307.334691 
L 395.442197 307.334691 
z
" style="fill:#5eedfe;fill-opacity:0.815686;"/>
   </g>
   <g id="matplotlib.axis_1">
    <g id="xtick_1">
     <g id="line2d_1">
      <defs>
       <path d="M 0 0 
L 0 3.5 
" id="m48a4efd5f1" style="stroke:#000000;stroke-width:0.8;"/>
      </defs>
      <g>
       <use style="stroke:#000000;stroke-width:0.8;" x="87.719768" xlink:href="#m48a4efd5f1" y="307.584"/>
      </g>
     </g>
     <g id="text_1">
      <!-- 1.0 us -->
      <defs>
       <path d="M 12.40625 8.296875 
L 28.515625 8.296875 
L 28.515625 63.921875 
L 10.984375 60.40625 
L 10.984375 69.390625 
L 28.421875 72.90625 
L 38.28125 72.90625 
L 38.28125 8.296875 
L 54.390625 8.296875 
L 54.390625 0 
L 12.40625 0 
z
" id="DejaVuSans-49"/>
       <path d="M 10.6875 12.40625 
L 21 12.40625 
L 21 0 
L 10.6875 0 
z
" id="DejaVuSans-46"/>
       <path d="M 31.78125 66.40625 
Q 24.171875 66.40625 20.328125 58.90625 
Q 16.5 51.421875 16.5 36.375 
Q 16.5 21.390625 20.328125 13.890625 
Q 24.171875 6.390625 31.78125 6.390625 
Q 39.453125 6.390625 43.28125 13.890625 
Q 47.125 21.390625 47.125 36.375 
Q 47.125 51.421875 43.28125 58.90625 
Q 39.453125 66.40625 31.78125 66.40625 
z
M 31.78125 74.21875 
Q 44.046875 74.21875 50.515625 64.515625 
Q 56.984375 54.828125 56.984375 36.375 
Q 56.984375 17.96875 50.515625 8.265625 
Q 44.046875 -1.421875 31.78125 -1.421875 
Q 19.53125 -1.421875 13.0625 8.265625 
Q 6.59375 17.96875 6.59375 36.375 
Q 6.59375 54.828125 13.0625 64.515625 
Q 19.53125 74.21875 31.78125 74.21875 
z
" id="DejaVuSans-48"/>
       <path id="DejaVuSans-32"/>
       <path d="M 8.5 21.578125 
L 8.5 54.6875 
L 17.484375 54.6875 
L 17.484375 21.921875 
Q 17.484375 14.15625 20.5 10.265625 
Q 23.53125 6.390625 29.59375 6.390625 
Q 36.859375 6.390625 41.078125 11.03125 
Q 45.3125 15.671875 45.3125 23.6875 
L 45.3125 54.6875 
L 54.296875 54.6875 
L 54.296875 0 
L 45.3125 0 
L 45.3125 8.40625 
Q 42.046875 3.421875 37.71875 1 
Q 33.40625 -1.421875 27.6875 -1.421875 
Q 18.265625 -1.421875 13.375 4.4375 
Q 8.5 10.296875 8.5 21.578125 
z
M 31.109375 56 
z
" id="DejaVuSans-117"/>
       <path d="M 44.28125 53.078125 
L 44.28125 44.578125 
Q 40.484375 46.53125 36.375 47.5 
Q 32.28125 48.484375 27.875 48.484375 
Q 21.1875 48.484375 17.84375 46.4375 
Q 14.5 44.390625 14.5 40.28125 
Q 14.5 37.15625 16.890625 35.375 
Q 19.28125 33.59375 26.515625 31.984375 
L 29.59375 31.296875 
Q 39.15625 29.25 43.1875 25.515625 
Q 47.21875 21.78125 47.21875 15.09375 
Q 47.21875 7.46875 41.1875 3.015625 
Q 35.15625 -1.421875 24.609375 -1.421875 
Q 20.21875 -1.421875 15.453125 -0.5625 
Q 10.6875 0.296875 5.421875 2 
L 5.421875 11.28125 
Q 10.40625 8.6875 15.234375 7.390625 
Q 20.0625 6.109375 24.8125 6.109375 
Q 31.15625 6.109375 34.5625 8.28125 
Q 37.984375 10.453125 37.984375 14.40625 
Q 37.984375 18.0625 35.515625 20.015625 
Q 33.0625 21.96875 24.703125 23.78125 
L 21.578125 24.515625 
Q 13.234375 26.265625 9.515625 29.90625 
Q 5.8125 33.546875 5.8125 39.890625 
Q 5.8125 47.609375 11.28125 51.796875 
Q 16.75 56 26.8125 56 
Q 31.78125 56 36.171875 55.265625 
Q 40.578125 54.546875 44.28125 53.078125 
z
" id="DejaVuSans-115"/>
      </defs>
      <g transform="translate(84.508529 321.470523)rotate(-335)scale(0.1 -0.1)">
       <use xlink:href="#DejaVuSans-49"/>
       <use x="63.623047" xlink:href="#DejaVuSans-46"/>
       <use x="95.410156" xlink:href="#DejaVuSans-48"/>
       <use x="159.033203" xlink:href="#DejaVuSans-32"/>
       <use x="190.820312" xlink:href="#DejaVuSans-117"/>
       <use x="254.199219" xlink:href="#DejaVuSans-115"/>
      </g>
     </g>
    </g>
    <g id="xtick_2">
     <g id="line2d_2">
      <g>
       <use style="stroke:#000000;stroke-width:0.8;" x="159.673346" xlink:href="#m48a4efd5f1" y="307.584"/>
      </g>
     </g>
     <g id="text_2">
      <!-- 2.0 us -->
      <defs>
       <path d="M 19.1875 8.296875 
L 53.609375 8.296875 
L 53.609375 0 
L 7.328125 0 
L 7.328125 8.296875 
Q 12.9375 14.109375 22.625 23.890625 
Q 32.328125 33.6875 34.8125 36.53125 
Q 39.546875 41.84375 41.421875 45.53125 
Q 43.3125 49.21875 43.3125 52.78125 
Q 43.3125 58.59375 39.234375 62.25 
Q 35.15625 65.921875 28.609375 65.921875 
Q 23.96875 65.921875 18.8125 64.3125 
Q 13.671875 62.703125 7.8125 59.421875 
L 7.8125 69.390625 
Q 13.765625 71.78125 18.9375 73 
Q 24.125 74.21875 28.421875 74.21875 
Q 39.75 74.21875 46.484375 68.546875 
Q 53.21875 62.890625 53.21875 53.421875 
Q 53.21875 48.921875 51.53125 44.890625 
Q 49.859375 40.875 45.40625 35.40625 
Q 44.1875 33.984375 37.640625 27.21875 
Q 31.109375 20.453125 19.1875 8.296875 
z
" id="DejaVuSans-50"/>
      </defs>
      <g transform="translate(156.462108 321.470523)rotate(-335)scale(0.1 -0.1)">
       <use xlink:href="#DejaVuSans-50"/>
       <use x="63.623047" xlink:href="#DejaVuSans-46"/>
       <use x="95.410156" xlink:href="#DejaVuSans-48"/>
       <use x="159.033203" xlink:href="#DejaVuSans-32"/>
       <use x="190.820312" xlink:href="#DejaVuSans-117"/>
       <use x="254.199219" xlink:href="#DejaVuSans-115"/>
      </g>
     </g>
    </g>
    <g id="xtick_3">
     <g id="line2d_3">
      <g>
       <use style="stroke:#000000;stroke-width:0.8;" x="231.626925" xlink:href="#m48a4efd5f1" y="307.584"/>
      </g>
     </g>
     <g id="text_3">
      <!-- 3.0 us -->
      <defs>
       <path d="M 40.578125 39.3125 
Q 47.65625 37.796875 51.625 33 
Q 55.609375 28.21875 55.609375 21.1875 
Q 55.609375 10.40625 48.1875 4.484375 
Q 40.765625 -1.421875 27.09375 -1.421875 
Q 22.515625 -1.421875 17.65625 -0.515625 
Q 12.796875 0.390625 7.625 2.203125 
L 7.625 11.71875 
Q 11.71875 9.328125 16.59375 8.109375 
Q 21.484375 6.890625 26.8125 6.890625 
Q 36.078125 6.890625 40.9375 10.546875 
Q 45.796875 14.203125 45.796875 21.1875 
Q 45.796875 27.640625 41.28125 31.265625 
Q 36.765625 34.90625 28.71875 34.90625 
L 20.21875 34.90625 
L 20.21875 43.015625 
L 29.109375 43.015625 
Q 36.375 43.015625 40.234375 45.921875 
Q 44.09375 48.828125 44.09375 54.296875 
Q 44.09375 59.90625 40.109375 62.90625 
Q 36.140625 65.921875 28.71875 65.921875 
Q 24.65625 65.921875 20.015625 65.03125 
Q 15.375 64.15625 9.8125 62.3125 
L 9.8125 71.09375 
Q 15.4375 72.65625 20.34375 73.4375 
Q 25.25 74.21875 29.59375 74.21875 
Q 40.828125 74.21875 47.359375 69.109375 
Q 53.90625 64.015625 53.90625 55.328125 
Q 53.90625 49.265625 50.4375 45.09375 
Q 46.96875 40.921875 40.578125 39.3125 
z
" id="DejaVuSans-51"/>
      </defs>
      <g transform="translate(228.415686 321.470523)rotate(-335)scale(0.1 -0.1)">
       <use xlink:href="#DejaVuSans-51"/>
       <use x="63.623047" xlink:href="#DejaVuSans-46"/>
       <use x="95.410156" xlink:href="#DejaVuSans-48"/>
       <use x="159.033203" xlink:href="#DejaVuSans-32"/>
       <use x="190.820312" xlink:href="#DejaVuSans-117"/>
       <use x="254.199219" xlink:href="#DejaVuSans-115"/>
      </g>
     </g>
    </g>
    <g id="xtick_4">
     <g id="line2d_4">
      <g>
       <use style="stroke:#000000;stroke-width:0.8;" x="303.580503" xlink:href="#m48a4efd5f1" y="307.584"/>
      </g>
     </g>
     <g id="text_4">
      <!-- 4.0 us -->
      <defs>
       <path d="M 37.796875 64.3125 
L 12.890625 25.390625 
L 37.796875 25.390625 
z
M 35.203125 72.90625 
L 47.609375 72.90625 
L 47.609375 25.390625 
L 58.015625 25.390625 
L 58.015625 17.1875 
L 47.609375 17.1875 
L 47.609375 0 
L 37.796875 0 
L 37.796875 17.1875 
L 4.890625 17.1875 
L 4.890625 26.703125 
z
" id="DejaVuSans-52"/>
      </defs>
      <g transform="translate(300.369264 321.470523)rotate(-335)scale(0.1 -0.1)">
       <use xlink:href="#DejaVuSans-52"/>
       <use x="63.623047" xlink:href="#DejaVuSans-46"/>
       <use x="95.410156" xlink:href="#DejaVuSans-48"/>
       <use x="159.033203" xlink:href="#DejaVuSans-32"/>
       <use x="190.820312" xlink:href="#DejaVuSans-117"/>
       <use x="254.199219" xlink:href="#DejaVuSans-115"/>
      </g>
     </g>
    </g>
    <g id="xtick_5">
     <g id="line2d_5">
      <g>
       <use style="stroke:#000000;stroke-width:0.8;" x="375.534081" xlink:href="#m48a4efd5f1" y="307.584"/>
      </g>
     </g>
     <g id="text_5">
      <!-- 5.0 us -->
      <defs>
       <path d="M 10.796875 72.90625 
L 49.515625 72.90625 
L 49.515625 64.59375 
L 19.828125 64.59375 
L 19.828125 46.734375 
Q 21.96875 47.46875 24.109375 47.828125 
Q 26.265625 48.1875 28.421875 48.1875 
Q 40.625 48.1875 47.75 41.5 
Q 54.890625 34.8125 54.890625 23.390625 
Q 54.890625 11.625 47.5625 5.09375 
Q 40.234375 -1.421875 26.90625 -1.421875 
Q 22.3125 -1.421875 17.546875 -0.640625 
Q 12.796875 0.140625 7.71875 1.703125 
L 7.71875 11.625 
Q 12.109375 9.234375 16.796875 8.0625 
Q 21.484375 6.890625 26.703125 6.890625 
Q 35.15625 6.890625 40.078125 11.328125 
Q 45.015625 15.765625 45.015625 23.390625 
Q 45.015625 31 40.078125 35.4375 
Q 35.15625 39.890625 26.703125 39.890625 
Q 22.75 39.890625 18.8125 39.015625 
Q 14.890625 38.140625 10.796875 36.28125 
z
" id="DejaVuSans-53"/>
      </defs>
      <g transform="translate(372.322843 321.470523)rotate(-335)scale(0.1 -0.1)">
       <use xlink:href="#DejaVuSans-53"/>
       <use x="63.623047" xlink:href="#DejaVuSans-46"/>
       <use x="95.410156" xlink:href="#DejaVuSans-48"/>
       <use x="159.033203" xlink:href="#DejaVuSans-32"/>
       <use x="190.820312" xlink:href="#DejaVuSans-117"/>
       <use x="254.199219" xlink:href="#DejaVuSans-115"/>
      </g>
     </g>
    </g>
   </g>
   <g id="matplotlib.axis_2">
    <g id="ytick_1">
     <g id="line2d_6">
      <defs>
       <path d="M 0 0 
L -3.5 0 
" id="m4ecb33c8fe" style="stroke:#000000;stroke-width:0.8;"/>
      </defs>
      <g>
       <use style="stroke:#000000;stroke-width:0.8;" x="57.6" xlink:href="#m4ecb33c8fe" y="307.584"/>
      </g>
     </g>
     <g id="text_6">
      <!-- 0 -->
      <g transform="translate(44.2375 311.383219)scale(0.1 -0.1)">
       <use xlink:href="#DejaVuSans-48"/>
      </g>
     </g>
    </g>
    <g id="ytick_2">
     <g id="line2d_7">
      <g>
       <use style="stroke:#000000;stroke-width:0.8;" x="57.6" xlink:href="#m4ecb33c8fe" y="271.968486"/>
      </g>
     </g>
     <g id="text_7">
      <!-- 1000 -->
      <g transform="translate(25.15 275.767704)scale(0.1 -0.1)">
       <use xlink:href="#DejaVuSans-49"/>
       <use x="63.623047" xlink:href="#DejaVuSans-48"/>
       <use x="127.246094" xlink:href="#DejaVuSans-48"/>
       <use x="190.869141" xlink:href="#DejaVuSans-48"/>
      </g>
     </g>
    </g>
    <g id="ytick_3">
     <g id="line2d_8">
      <g>
       <use style="stroke:#000000;stroke-width:0.8;" x="57.6" xlink:href="#m4ecb33c8fe" y="236.352971"/>
      </g>
     </g>
     <g id="text_8">
      <!-- 2000 -->
      <g transform="translate(25.15 240.15219)scale(0.1 -0.1)">
       <use xlink:href="#DejaVuSans-50"/>
       <use x="63.623047" xlink:href="#DejaVuSans-48"/>
       <use x="127.246094" xlink:href="#DejaVuSans-48"/>
       <use x="190.869141" xlink:href="#DejaVuSans-48"/>
      </g>
     </g>
    </g>
    <g id="ytick_4">
     <g id="line2d_9">
      <g>
       <use style="stroke:#000000;stroke-width:0.8;" x="57.6" xlink:href="#m4ecb33c8fe" y="200.737457"/>
      </g>
     </g>
     <g id="text_9">
      <!-- 3000 -->
      <g transform="translate(25.15 204.536676)scale(0.1 -0.1)">
       <use xlink:href="#DejaVuSans-51"/>
       <use x="63.623047" xlink:href="#DejaVuSans-48"/>
       <use x="127.246094" xlink:href="#DejaVuSans-48"/>
       <use x="190.869141" xlink:href="#DejaVuSans-48"/>
      </g>
     </g>
    </g>
    <g id="ytick_5">
     <g id="line2d_10">
      <g>
       <use style="stroke:#000000;stroke-width:0.8;" x="57.6" xlink:href="#m4ecb33c8fe" y="165.121943"/>
      </g>
     </g>
     <g id="text_10">
      <!-- 4000 -->
      <g transform="translate(25.15 168.921161)scale(0.1 -0.1)">
       <use xlink:href="#DejaVuSans-52"/>
       <use x="63.623047" xlink:href="#DejaVuSans-48"/>
       <use x="127.246094" xlink:href="#DejaVuSans-48"/>
       <use x="190.869141" xlink:href="#DejaVuSans-48"/>
      </g>
     </g>
    </g>
    <g id="ytick_6">
     <g id="line2d_11">
      <g>
       <use style="stroke:#000000;stroke-width:0.8;" x="57.6" xlink:href="#m4ecb33c8fe" y="129.506428"/>
      </g>
     </g>
     <g id="text_11">
      <!-- 5000 -->
      <g transform="translate(25.15 133.305647)scale(0.1 -0.1)">
       <use xlink:href="#DejaVuSans-53"/>
       <use x="63.623047" xlink:href="#DejaVuSans-48"/>
       <use x="127.246094" xlink:href="#DejaVuSans-48"/>
       <use x="190.869141" xlink:href="#DejaVuSans-48"/>
      </g>
     </g>
    </g>
    <g id="ytick_7">
     <g id="line2d_12">
      <g>
       <use style="stroke:#000000;stroke-width:0.8;" x="57.6" xlink:href="#m4ecb33c8fe" y="93.890914"/>
      </g>
     </g>
     <g id="text_12">
      <!-- 6000 -->
      <defs>
       <path d="M 33.015625 40.375 
Q 26.375 40.375 22.484375 35.828125 
Q 18.609375 31.296875 18.609375 23.390625 
Q 18.609375 15.53125 22.484375 10.953125 
Q 26.375 6.390625 33.015625 6.390625 
Q 39.65625 6.390625 43.53125 10.953125 
Q 47.40625 15.53125 47.40625 23.390625 
Q 47.40625 31.296875 43.53125 35.828125 
Q 39.65625 40.375 33.015625 40.375 
z
M 52.59375 71.296875 
L 52.59375 62.3125 
Q 48.875 64.0625 45.09375 64.984375 
Q 41.3125 65.921875 37.59375 65.921875 
Q 27.828125 65.921875 22.671875 59.328125 
Q 17.53125 52.734375 16.796875 39.40625 
Q 19.671875 43.65625 24.015625 45.921875 
Q 28.375 48.1875 33.59375 48.1875 
Q 44.578125 48.1875 50.953125 41.515625 
Q 57.328125 34.859375 57.328125 23.390625 
Q 57.328125 12.15625 50.6875 5.359375 
Q 44.046875 -1.421875 33.015625 -1.421875 
Q 20.359375 -1.421875 13.671875 8.265625 
Q 6.984375 17.96875 6.984375 36.375 
Q 6.984375 53.65625 15.1875 63.9375 
Q 23.390625 74.21875 37.203125 74.21875 
Q 40.921875 74.21875 44.703125 73.484375 
Q 48.484375 72.75 52.59375 71.296875 
z
" id="DejaVuSans-54"/>
      </defs>
      <g transform="translate(25.15 97.690133)scale(0.1 -0.1)">
       <use xlink:href="#DejaVuSans-54"/>
       <use x="63.623047" xlink:href="#DejaVuSans-48"/>
       <use x="127.246094" xlink:href="#DejaVuSans-48"/>
       <use x="190.869141" xlink:href="#DejaVuSans-48"/>
      </g>
     </g>
    </g>
    <g id="ytick_8">
     <g id="line2d_13">
      <g>
       <use style="stroke:#000000;stroke-width:0.8;" x="57.6" xlink:href="#m4ecb33c8fe" y="58.2754"/>
      </g>
     </g>
     <g id="text_13">
      <!-- 7000 -->
      <defs>
       <path d="M 8.203125 72.90625 
L 55.078125 72.90625 
L 55.078125 68.703125 
L 28.609375 0 
L 18.3125 0 
L 43.21875 64.59375 
L 8.203125 64.59375 
z
" id="DejaVuSans-55"/>
      </defs>
      <g transform="translate(25.15 62.074618)scale(0.1 -0.1)">
       <use xlink:href="#DejaVuSans-55"/>
       <use x="63.623047" xlink:href="#DejaVuSans-48"/>
       <use x="127.246094" xlink:href="#DejaVuSans-48"/>
       <use x="190.869141" xlink:href="#DejaVuSans-48"/>
      </g>
     </g>
    </g>
    <g id="text_14">
     <!-- Number of samples -->
     <defs>
      <path d="M 9.8125 72.90625 
L 23.09375 72.90625 
L 55.421875 11.921875 
L 55.421875 72.90625 
L 64.984375 72.90625 
L 64.984375 0 
L 51.703125 0 
L 19.390625 60.984375 
L 19.390625 0 
L 9.8125 0 
z
" id="DejaVuSans-78"/>
      <path d="M 52 44.1875 
Q 55.375 50.25 60.0625 53.125 
Q 64.75 56 71.09375 56 
Q 79.640625 56 84.28125 50.015625 
Q 88.921875 44.046875 88.921875 33.015625 
L 88.921875 0 
L 79.890625 0 
L 79.890625 32.71875 
Q 79.890625 40.578125 77.09375 44.375 
Q 74.3125 48.1875 68.609375 48.1875 
Q 61.625 48.1875 57.5625 43.546875 
Q 53.515625 38.921875 53.515625 30.90625 
L 53.515625 0 
L 44.484375 0 
L 44.484375 32.71875 
Q 44.484375 40.625 41.703125 44.40625 
Q 38.921875 48.1875 33.109375 48.1875 
Q 26.21875 48.1875 22.15625 43.53125 
Q 18.109375 38.875 18.109375 30.90625 
L 18.109375 0 
L 9.078125 0 
L 9.078125 54.6875 
L 18.109375 54.6875 
L 18.109375 46.1875 
Q 21.1875 51.21875 25.484375 53.609375 
Q 29.78125 56 35.6875 56 
Q 41.65625 56 45.828125 52.96875 
Q 50 49.953125 52 44.1875 
z
" id="DejaVuSans-109"/>
      <path d="M 48.6875 27.296875 
Q 48.6875 37.203125 44.609375 42.84375 
Q 40.53125 48.484375 33.40625 48.484375 
Q 26.265625 48.484375 22.1875 42.84375 
Q 18.109375 37.203125 18.109375 27.296875 
Q 18.109375 17.390625 22.1875 11.75 
Q 26.265625 6.109375 33.40625 6.109375 
Q 40.53125 6.109375 44.609375 11.75 
Q 48.6875 17.390625 48.6875 27.296875 
z
M 18.109375 46.390625 
Q 20.953125 51.265625 25.265625 53.625 
Q 29.59375 56 35.59375 56 
Q 45.5625 56 51.78125 48.09375 
Q 58.015625 40.1875 58.015625 27.296875 
Q 58.015625 14.40625 51.78125 6.484375 
Q 45.5625 -1.421875 35.59375 -1.421875 
Q 29.59375 -1.421875 25.265625 0.953125 
Q 20.953125 3.328125 18.109375 8.203125 
L 18.109375 0 
L 9.078125 0 
L 9.078125 75.984375 
L 18.109375 75.984375 
z
" id="DejaVuSans-98"/>
      <path d="M 56.203125 29.59375 
L 56.203125 25.203125 
L 14.890625 25.203125 
Q 15.484375 15.921875 20.484375 11.0625 
Q 25.484375 6.203125 34.421875 6.203125 
Q 39.59375 6.203125 44.453125 7.46875 
Q 49.3125 8.734375 54.109375 11.28125 
L 54.109375 2.78125 
Q 49.265625 0.734375 44.1875 -0.34375 
Q 39.109375 -1.421875 33.890625 -1.421875 
Q 20.796875 -1.421875 13.15625 6.1875 
Q 5.515625 13.8125 5.515625 26.8125 
Q 5.515625 40.234375 12.765625 48.109375 
Q 20.015625 56 32.328125 56 
Q 43.359375 56 49.78125 48.890625 
Q 56.203125 41.796875 56.203125 29.59375 
z
M 47.21875 32.234375 
Q 47.125 39.59375 43.09375 43.984375 
Q 39.0625 48.390625 32.421875 48.390625 
Q 24.90625 48.390625 20.390625 44.140625 
Q 15.875 39.890625 15.1875 32.171875 
z
" id="DejaVuSans-101"/>
      <path d="M 41.109375 46.296875 
Q 39.59375 47.171875 37.8125 47.578125 
Q 36.03125 48 33.890625 48 
Q 26.265625 48 22.1875 43.046875 
Q 18.109375 38.09375 18.109375 28.8125 
L 18.109375 0 
L 9.078125 0 
L 9.078125 54.6875 
L 18.109375 54.6875 
L 18.109375 46.1875 
Q 20.953125 51.171875 25.484375 53.578125 
Q 30.03125 56 36.53125 56 
Q 37.453125 56 38.578125 55.875 
Q 39.703125 55.765625 41.0625 55.515625 
z
" id="DejaVuSans-114"/>
      <path d="M 30.609375 48.390625 
Q 23.390625 48.390625 19.1875 42.75 
Q 14.984375 37.109375 14.984375 27.296875 
Q 14.984375 17.484375 19.15625 11.84375 
Q 23.34375 6.203125 30.609375 6.203125 
Q 37.796875 6.203125 41.984375 11.859375 
Q 46.1875 17.53125 46.1875 27.296875 
Q 46.1875 37.015625 41.984375 42.703125 
Q 37.796875 48.390625 30.609375 48.390625 
z
M 30.609375 56 
Q 42.328125 56 49.015625 48.375 
Q 55.71875 40.765625 55.71875 27.296875 
Q 55.71875 13.875 49.015625 6.21875 
Q 42.328125 -1.421875 30.609375 -1.421875 
Q 18.84375 -1.421875 12.171875 6.21875 
Q 5.515625 13.875 5.515625 27.296875 
Q 5.515625 40.765625 12.171875 48.375 
Q 18.84375 56 30.609375 56 
z
" id="DejaVuSans-111"/>
      <path d="M 37.109375 75.984375 
L 37.109375 68.5 
L 28.515625 68.5 
Q 23.6875 68.5 21.796875 66.546875 
Q 19.921875 64.59375 19.921875 59.515625 
L 19.921875 54.6875 
L 34.71875 54.6875 
L 34.71875 47.703125 
L 19.921875 47.703125 
L 19.921875 0 
L 10.890625 0 
L 10.890625 47.703125 
L 2.296875 47.703125 
L 2.296875 54.6875 
L 10.890625 54.6875 
L 10.890625 58.5 
Q 10.890625 67.625 15.140625 71.796875 
Q 19.390625 75.984375 28.609375 75.984375 
z
" id="DejaVuSans-102"/>
      <path d="M 34.28125 27.484375 
Q 23.390625 27.484375 19.1875 25 
Q 14.984375 22.515625 14.984375 16.5 
Q 14.984375 11.71875 18.140625 8.90625 
Q 21.296875 6.109375 26.703125 6.109375 
Q 34.1875 6.109375 38.703125 11.40625 
Q 43.21875 16.703125 43.21875 25.484375 
L 43.21875 27.484375 
z
M 52.203125 31.203125 
L 52.203125 0 
L 43.21875 0 
L 43.21875 8.296875 
Q 40.140625 3.328125 35.546875 0.953125 
Q 30.953125 -1.421875 24.3125 -1.421875 
Q 15.921875 -1.421875 10.953125 3.296875 
Q 6 8.015625 6 15.921875 
Q 6 25.140625 12.171875 29.828125 
Q 18.359375 34.515625 30.609375 34.515625 
L 43.21875 34.515625 
L 43.21875 35.40625 
Q 43.21875 41.609375 39.140625 45 
Q 35.0625 48.390625 27.6875 48.390625 
Q 23 48.390625 18.546875 47.265625 
Q 14.109375 46.140625 10.015625 43.890625 
L 10.015625 52.203125 
Q 14.9375 54.109375 19.578125 55.046875 
Q 24.21875 56 28.609375 56 
Q 40.484375 56 46.34375 49.84375 
Q 52.203125 43.703125 52.203125 31.203125 
z
" id="DejaVuSans-97"/>
      <path d="M 18.109375 8.203125 
L 18.109375 -20.796875 
L 9.078125 -20.796875 
L 9.078125 54.6875 
L 18.109375 54.6875 
L 18.109375 46.390625 
Q 20.953125 51.265625 25.265625 53.625 
Q 29.59375 56 35.59375 56 
Q 45.5625 56 51.78125 48.09375 
Q 58.015625 40.1875 58.015625 27.296875 
Q 58.015625 14.40625 51.78125 6.484375 
Q 45.5625 -1.421875 35.59375 -1.421875 
Q 29.59375 -1.421875 25.265625 0.953125 
Q 20.953125 3.328125 18.109375 8.203125 
z
M 48.6875 27.296875 
Q 48.6875 37.203125 44.609375 42.84375 
Q 40.53125 48.484375 33.40625 48.484375 
Q 26.265625 48.484375 22.1875 42.84375 
Q 18.109375 37.203125 18.109375 27.296875 
Q 18.109375 17.390625 22.1875 11.75 
Q 26.265625 6.109375 33.40625 6.109375 
Q 40.53125 6.109375 44.609375 11.75 
Q 48.6875 17.390625 48.6875 27.296875 
z
" id="DejaVuSans-112"/>
      <path d="M 9.421875 75.984375 
L 18.40625 75.984375 
L 18.40625 0 
L 9.421875 0 
z
" id="DejaVuSans-108"/>
     </defs>
     <g transform="translate(19.070312 223.395187)rotate(-90)scale(0.1 -0.1)">
      <use xlink:href="#DejaVuSans-78"/>
      <use x="74.804688" xlink:href="#DejaVuSans-117"/>
      <use x="138.183594" xlink:href="#DejaVuSans-109"/>
      <use x="235.595703" xlink:href="#DejaVuSans-98"/>
      <use x="299.072266" xlink:href="#DejaVuSans-101"/>
      <use x="360.595703" xlink:href="#DejaVuSans-114"/>
      <use x="401.708984" xlink:href="#DejaVuSans-32"/>
      <use x="433.496094" xlink:href="#DejaVuSans-111"/>
      <use x="494.677734" xlink:href="#DejaVuSans-102"/>
      <use x="529.882812" xlink:href="#DejaVuSans-32"/>
      <use x="561.669922" xlink:href="#DejaVuSans-115"/>
      <use x="613.769531" xlink:href="#DejaVuSans-97"/>
      <use x="675.048828" xlink:href="#DejaVuSans-109"/>
      <use x="772.460938" xlink:href="#DejaVuSans-112"/>
      <use x="835.9375" xlink:href="#DejaVuSans-108"/>
      <use x="863.720703" xlink:href="#DejaVuSans-101"/>
      <use x="925.244141" xlink:href="#DejaVuSans-115"/>
     </g>
    </g>
   </g>
   <g id="line2d_14">
    <path clip-path="url(#p132d145698)" d="M 124.056325 307.584 
L 124.056325 41.472 
" style="fill:none;stroke:#fe6f5e;stroke-dasharray:5.55,2.4;stroke-dashoffset:0;stroke-width:1.5;"/>
   </g>
   <g id="line2d_15">
    <path clip-path="url(#p132d145698)" d="M 186.224217 307.584 
L 186.224217 41.472 
" style="fill:none;stroke:#5e9dfe;stroke-dasharray:5.55,2.4;stroke-dashoffset:0;stroke-width:1.5;"/>
   </g>
   <g id="line2d_16">
    <path clip-path="url(#p132d145698)" d="M 187.807195 307.584 
L 187.807195 41.472 
" style="fill:none;stroke:#5eedfe;stroke-dasharray:5.55,2.4;stroke-dashoffset:0;stroke-width:1.5;"/>
   </g>
   <g id="patch_303">
    <path d="M 57.6 307.584 
L 57.6 41.472 
" style="fill:none;stroke:#000000;stroke-linecap:square;stroke-linejoin:miter;stroke-width:0.8;"/>
   </g>
   <g id="patch_304">
    <path d="M 414.72 307.584 
L 414.72 41.472 
" style="fill:none;stroke:#000000;stroke-linecap:square;stroke-linejoin:miter;stroke-width:0.8;"/>
   </g>
   <g id="patch_305">
    <path d="M 57.6 307.584 
L 414.72 307.584 
" style="fill:none;stroke:#000000;stroke-linecap:square;stroke-linejoin:miter;stroke-width:0.8;"/>
   </g>
   <g id="patch_306">
    <path d="M 57.6 41.472 
L 414.72 41.472 
" style="fill:none;stroke:#000000;stroke-linecap:square;stroke-linejoin:miter;stroke-width:0.8;"/>
   </g>
   <g id="text_15">
    <!-- uniform samples -->
    <defs>
     <path d="M 54.890625 33.015625 
L 54.890625 0 
L 45.90625 0 
L 45.90625 32.71875 
Q 45.90625 40.484375 42.875 44.328125 
Q 39.84375 48.1875 33.796875 48.1875 
Q 26.515625 48.1875 22.3125 43.546875 
Q 18.109375 38.921875 18.109375 30.90625 
L 18.109375 0 
L 9.078125 0 
L 9.078125 54.6875 
L 18.109375 54.6875 
L 18.109375 46.1875 
Q 21.34375 51.125 25.703125 53.5625 
Q 30.078125 56 35.796875 56 
Q 45.21875 56 50.046875 50.171875 
Q 54.890625 44.34375 54.890625 33.015625 
z
" id="DejaVuSans-110"/>
     <path d="M 9.421875 54.6875 
L 18.40625 54.6875 
L 18.40625 0 
L 9.421875 0 
z
M 9.421875 75.984375 
L 18.40625 75.984375 
L 18.40625 64.59375 
L 9.421875 64.59375 
z
" id="DejaVuSans-105"/>
    </defs>
    <g transform="translate(186.051562 35.472)scale(0.12 -0.12)">
     <use xlink:href="#DejaVuSans-117"/>
     <use x="63.378906" xlink:href="#DejaVuSans-110"/>
     <use x="126.757812" xlink:href="#DejaVuSans-105"/>
     <use x="154.541016" xlink:href="#DejaVuSans-102"/>
     <use x="189.746094" xlink:href="#DejaVuSans-111"/>
     <use x="250.927734" xlink:href="#DejaVuSans-114"/>
     <use x="290.291016" xlink:href="#DejaVuSans-109"/>
     <use x="387.703125" xlink:href="#DejaVuSans-32"/>
     <use x="419.490234" xlink:href="#DejaVuSans-115"/>
     <use x="471.589844" xlink:href="#DejaVuSans-97"/>
     <use x="532.869141" xlink:href="#DejaVuSans-109"/>
     <use x="630.28125" xlink:href="#DejaVuSans-112"/>
     <use x="693.757812" xlink:href="#DejaVuSans-108"/>
     <use x="721.541016" xlink:href="#DejaVuSans-101"/>
     <use x="783.064453" xlink:href="#DejaVuSans-115"/>
    </g>
   </g>
   <g id="legend_1">
    <g id="patch_307">
     <path d="M 344.146563 94.062625 
L 407.72 94.062625 
Q 409.72 94.062625 409.72 92.062625 
L 409.72 48.472 
Q 409.72 46.472 407.72 46.472 
L 344.146563 46.472 
Q 342.146563 46.472 342.146563 48.472 
L 342.146563 92.062625 
Q 342.146563 94.062625 344.146563 94.062625 
z
" style="fill:#ffffff;opacity:0.8;stroke:#cccccc;stroke-linejoin:miter;"/>
    </g>
    <g id="patch_308">
     <path d="M 346.146563 58.070437 
L 366.146563 58.070437 
L 366.146563 51.070437 
L 346.146563 51.070437 
z
" style="fill:#fe6f5e;fill-opacity:0.815686;"/>
    </g>
    <g id="text_16">
     <!-- ash -->
     <defs>
      <path d="M 54.890625 33.015625 
L 54.890625 0 
L 45.90625 0 
L 45.90625 32.71875 
Q 45.90625 40.484375 42.875 44.328125 
Q 39.84375 48.1875 33.796875 48.1875 
Q 26.515625 48.1875 22.3125 43.546875 
Q 18.109375 38.921875 18.109375 30.90625 
L 18.109375 0 
L 9.078125 0 
L 9.078125 75.984375 
L 18.109375 75.984375 
L 18.109375 46.1875 
Q 21.34375 51.125 25.703125 53.5625 
Q 30.078125 56 35.796875 56 
Q 45.21875 56 50.046875 50.171875 
Q 54.890625 44.34375 54.890625 33.015625 
z
" id="DejaVuSans-104"/>
     </defs>
     <g transform="translate(374.146563 58.070437)scale(0.1 -0.1)">
      <use xlink:href="#DejaVuSans-97"/>
      <use x="61.279297" xlink:href="#DejaVuSans-115"/>
      <use x="113.378906" xlink:href="#DejaVuSans-104"/>
     </g>
    </g>
    <g id="patch_309">
     <path d="M 346.146563 72.748562 
L 366.146563 72.748562 
L 366.146563 65.748562 
L 346.146563 65.748562 
z
" style="fill:#5e9dfe;fill-opacity:0.815686;"/>
    </g>
    <g id="text_17">
     <!-- vy_ST -->
     <defs>
      <path d="M 2.984375 54.6875 
L 12.5 54.6875 
L 29.59375 8.796875 
L 46.6875 54.6875 
L 56.203125 54.6875 
L 35.6875 0 
L 23.484375 0 
z
" id="DejaVuSans-118"/>
      <path d="M 32.171875 -5.078125 
Q 28.375 -14.84375 24.75 -17.8125 
Q 21.140625 -20.796875 15.09375 -20.796875 
L 7.90625 -20.796875 
L 7.90625 -13.28125 
L 13.1875 -13.28125 
Q 16.890625 -13.28125 18.9375 -11.515625 
Q 21 -9.765625 23.484375 -3.21875 
L 25.09375 0.875 
L 2.984375 54.6875 
L 12.5 54.6875 
L 29.59375 11.921875 
L 46.6875 54.6875 
L 56.203125 54.6875 
z
" id="DejaVuSans-121"/>
      <path d="M 50.984375 -16.609375 
L 50.984375 -23.578125 
L -0.984375 -23.578125 
L -0.984375 -16.609375 
z
" id="DejaVuSans-95"/>
      <path d="M 53.515625 70.515625 
L 53.515625 60.890625 
Q 47.90625 63.578125 42.921875 64.890625 
Q 37.9375 66.21875 33.296875 66.21875 
Q 25.25 66.21875 20.875 63.09375 
Q 16.5 59.96875 16.5 54.203125 
Q 16.5 49.359375 19.40625 46.890625 
Q 22.3125 44.4375 30.421875 42.921875 
L 36.375 41.703125 
Q 47.40625 39.59375 52.65625 34.296875 
Q 57.90625 29 57.90625 20.125 
Q 57.90625 9.515625 50.796875 4.046875 
Q 43.703125 -1.421875 29.984375 -1.421875 
Q 24.8125 -1.421875 18.96875 -0.25 
Q 13.140625 0.921875 6.890625 3.21875 
L 6.890625 13.375 
Q 12.890625 10.015625 18.65625 8.296875 
Q 24.421875 6.59375 29.984375 6.59375 
Q 38.421875 6.59375 43.015625 9.90625 
Q 47.609375 13.234375 47.609375 19.390625 
Q 47.609375 24.75 44.3125 27.78125 
Q 41.015625 30.8125 33.5 32.328125 
L 27.484375 33.5 
Q 16.453125 35.6875 11.515625 40.375 
Q 6.59375 45.0625 6.59375 53.421875 
Q 6.59375 63.09375 13.40625 68.65625 
Q 20.21875 74.21875 32.171875 74.21875 
Q 37.3125 74.21875 42.625 73.28125 
Q 47.953125 72.359375 53.515625 70.515625 
z
" id="DejaVuSans-83"/>
      <path d="M -0.296875 72.90625 
L 61.375 72.90625 
L 61.375 64.59375 
L 35.5 64.59375 
L 35.5 0 
L 25.59375 0 
L 25.59375 64.59375 
L -0.296875 64.59375 
z
" id="DejaVuSans-84"/>
     </defs>
     <g transform="translate(374.146563 72.748562)scale(0.1 -0.1)">
      <use xlink:href="#DejaVuSans-118"/>
      <use x="59.179688" xlink:href="#DejaVuSans-121"/>
      <use x="118.359375" xlink:href="#DejaVuSans-95"/>
      <use x="168.359375" xlink:href="#DejaVuSans-83"/>
      <use x="231.835938" xlink:href="#DejaVuSans-84"/>
     </g>
    </g>
    <g id="patch_310">
     <path d="M 346.146563 87.704812 
L 366.146563 87.704812 
L 366.146563 80.704812 
L 346.146563 80.704812 
z
" style="fill:#5eedfe;fill-opacity:0.815686;"/>
    </g>
    <g id="text_18">
     <!-- vy_MT -->
     <defs>
      <path d="M 9.8125 72.90625 
L 24.515625 72.90625 
L 43.109375 23.296875 
L 61.8125 72.90625 
L 76.515625 72.90625 
L 76.515625 0 
L 66.890625 0 
L 66.890625 64.015625 
L 48.09375 14.015625 
L 38.1875 14.015625 
L 19.390625 64.015625 
L 19.390625 0 
L 9.8125 0 
z
" id="DejaVuSans-77"/>
     </defs>
     <g transform="translate(374.146563 87.704812)scale(0.1 -0.1)">
      <use xlink:href="#DejaVuSans-118"/>
      <use x="59.179688" xlink:href="#DejaVuSans-121"/>
      <use x="118.359375" xlink:href="#DejaVuSans-95"/>
      <use x="168.359375" xlink:href="#DejaVuSans-77"/>
      <use x="254.638672" xlink:href="#DejaVuSans-84"/>
     </g>
    </g>
   </g>
  </g>
 </g>
 <defs>
  <clipPath id="p132d145698">
   <rect height="266.112" width="357.12" x="57.6" y="41.472"/>
  </clipPath>
 </defs>
</svg>
