<?xml version="1.0" encoding="UTF-8" standalone="no"?><svg xmlns="http://www.w3.org/2000/svg" xmlns:xlink="http://www.w3.org/1999/xlink" contentScriptType="application/ecmascript" contentStyleType="text/css" height="649px" preserveAspectRatio="none" style="width:1064px;height:649px;" version="1.1" viewBox="0 0 1064 649" width="1064px" zoomAndPan="magnify"><defs><filter height="300%" id="f10rnz0i97j4e6" width="300%" x="-1" y="-1"><feGaussianBlur result="blurOut" stdDeviation="2.0"/><feColorMatrix in="blurOut" result="blurOut2" type="matrix" values="0 0 0 0 0 0 0 0 0 0 0 0 0 0 0 0 0 0 .4 0"/><feOffset dx="4.0" dy="4.0" in="blurOut2" result="blurOut3"/><feBlend in="SourceGraphic" in2="blurOut3" mode="normal"/></filter></defs><g><!--MD5=[8d6925f44e0e1541670b54b5f2c3eb41]
entity Window--><rect fill="#66FF98" filter="url(#f10rnz0i97j4e6)" height="36.8" style="stroke: #333333; stroke-width: 1.0;" width="70" x="223" y="18"/><rect fill="#66FF98" height="5" style="stroke: #333333; stroke-width: 1.0;" width="10" x="218" y="23"/><rect fill="#66FF98" height="5" style="stroke: #333333; stroke-width: 1.0;" width="10" x="218" y="44.8"/><text fill="#000000" font-family="Fira Sans" font-size="14" lengthAdjust="spacingAndGlyphs" textLength="50" x="233" y="41.09">Window</text><path d="M58,8 L58,64.8 A0,0 0 0 0 58,64.8 L188,64.8 A0,0 0 0 0 188,64.8 L188,40.5 L222.79,36.5 L188,32.5 L188,18 L178,8 L58,8 A0,0 0 0 0 58,8 " fill="#FBFB77" filter="url(#f10rnz0i97j4e6)" style="stroke: #A80036; stroke-width: 1.0;"/><path d="M178,8 L178,18 L188,18 L178,8 " fill="#FBFB77" style="stroke: #A80036; stroke-width: 1.0;"/><text fill="#66FF98" font-family="Fira Sans" font-size="13" lengthAdjust="spacingAndGlyphs" textLength="35" x="64" y="25.155">Green</text><text fill="#000000" font-family="Fira Sans" font-size="13" lengthAdjust="spacingAndGlyphs" textLength="41" x="102" y="25.155">= done</text><text fill="#66CDFF" font-family="Fira Sans" font-size="13" lengthAdjust="spacingAndGlyphs" textLength="27" x="64" y="40.755">Blue</text><text fill="#000000" font-family="Fira Sans" font-size="13" lengthAdjust="spacingAndGlyphs" textLength="79" x="94" y="40.755">= in-progress</text><text fill="#FF6680" font-family="Fira Sans" font-size="13" lengthAdjust="spacingAndGlyphs" textLength="23" x="64" y="56.355">Red</text><text fill="#000000" font-family="Fira Sans" font-size="13" lengthAdjust="spacingAndGlyphs" textLength="60" x="90" y="56.355">= planned</text><!--MD5=[77a0c14de6685fa065b9b4e019b7f347]
entity Instance--><rect fill="#66FF98" filter="url(#f10rnz0i97j4e6)" height="53.6" style="stroke: #333333; stroke-width: 1.0;" width="75" x="347.5" y="9.5"/><rect fill="#66FF98" height="5" style="stroke: #333333; stroke-width: 1.0;" width="10" x="342.5" y="14.5"/><rect fill="#66FF98" height="5" style="stroke: #333333; stroke-width: 1.0;" width="10" x="342.5" y="53.1"/><text fill="#000000" font-family="Fira Sans" font-size="14" font-style="italic" lengthAdjust="spacingAndGlyphs" textLength="36" x="367" y="32.59">«Vrc»</text><text fill="#000000" font-family="Fira Sans" font-size="14" lengthAdjust="spacingAndGlyphs" textLength="55" x="357.5" y="49.39">Instance</text><!--MD5=[5789a701af2564c361c8c4b0bb67bc5e]
entity PhysicalDevice--><rect fill="#66FF98" filter="url(#f10rnz0i97j4e6)" height="36.8" style="stroke: #333333; stroke-width: 1.0;" width="116" x="347" y="126"/><rect fill="#66FF98" height="5" style="stroke: #333333; stroke-width: 1.0;" width="10" x="342" y="131"/><rect fill="#66FF98" height="5" style="stroke: #333333; stroke-width: 1.0;" width="10" x="342" y="152.8"/><text fill="#000000" font-family="Fira Sans" font-size="14" lengthAdjust="spacingAndGlyphs" textLength="96" x="357" y="149.09">PhysicalDevice</text><!--MD5=[d5b65137a7b1bf40136b14d6cc3c273c]
entity Surface--><rect fill="#66FF98" filter="url(#f10rnz0i97j4e6)" height="36.8" style="stroke: #333333; stroke-width: 1.0;" width="69" x="223.5" y="126"/><rect fill="#66FF98" height="5" style="stroke: #333333; stroke-width: 1.0;" width="10" x="218.5" y="131"/><rect fill="#66FF98" height="5" style="stroke: #333333; stroke-width: 1.0;" width="10" x="218.5" y="152.8"/><text fill="#000000" font-family="Fira Sans" font-size="14" lengthAdjust="spacingAndGlyphs" textLength="49" x="233.5" y="149.09">Surface</text><!--MD5=[1481f43b514325438f831f19ea58e9e2]
entity Device--><rect fill="#66FF98" filter="url(#f10rnz0i97j4e6)" height="53.6" style="stroke: #333333; stroke-width: 1.0;" width="63" x="392.5" y="240"/><rect fill="#66FF98" height="5" style="stroke: #333333; stroke-width: 1.0;" width="10" x="387.5" y="245"/><rect fill="#66FF98" height="5" style="stroke: #333333; stroke-width: 1.0;" width="10" x="387.5" y="283.6"/><text fill="#000000" font-family="Fira Sans" font-size="14" font-style="italic" lengthAdjust="spacingAndGlyphs" textLength="36" x="406" y="263.09">«Vrc»</text><text fill="#000000" font-family="Fira Sans" font-size="14" lengthAdjust="spacingAndGlyphs" textLength="43" x="402.5" y="279.89">Device</text><!--MD5=[9762e67b79b719797c568dcdd43c32f7]
entity Queue--><rect fill="#66FF98" filter="url(#f10rnz0i97j4e6)" height="53.6" style="stroke: #333333; stroke-width: 1.0;" width="62" x="713" y="240"/><rect fill="#66FF98" height="5" style="stroke: #333333; stroke-width: 1.0;" width="10" x="708" y="245"/><rect fill="#66FF98" height="5" style="stroke: #333333; stroke-width: 1.0;" width="10" x="708" y="283.6"/><text fill="#000000" font-family="Fira Sans" font-size="14" font-style="italic" lengthAdjust="spacingAndGlyphs" textLength="36" x="726" y="263.09">«Vrc»</text><text fill="#000000" font-family="Fira Sans" font-size="14" lengthAdjust="spacingAndGlyphs" textLength="42" x="723" y="279.89">Queue</text><!--MD5=[7a22288d6da5f69922be8ffcf0fcbe4e]
entity Swapchain--><rect fill="#66FF98" filter="url(#f10rnz0i97j4e6)" height="53.6" style="stroke: #333333; stroke-width: 1.0;" width="89" x="114.5" y="240"/><rect fill="#66FF98" height="5" style="stroke: #333333; stroke-width: 1.0;" width="10" x="109.5" y="245"/><rect fill="#66FF98" height="5" style="stroke: #333333; stroke-width: 1.0;" width="10" x="109.5" y="283.6"/><text fill="#000000" font-family="Fira Sans" font-size="14" font-style="italic" lengthAdjust="spacingAndGlyphs" textLength="36" x="141" y="263.09">«Vrc»</text><text fill="#000000" font-family="Fira Sans" font-size="14" lengthAdjust="spacingAndGlyphs" textLength="69" x="124.5" y="279.89">Swapchain</text><!--MD5=[53b911199a3644c85b37bbf4df7dfa26]
entity SwapchainImage--><rect fill="#66FF98" filter="url(#f10rnz0i97j4e6)" height="53.6" style="stroke: #333333; stroke-width: 1.0;" width="128" x="6" y="355"/><rect fill="#66FF98" height="5" style="stroke: #333333; stroke-width: 1.0;" width="10" x="1" y="360"/><rect fill="#66FF98" height="5" style="stroke: #333333; stroke-width: 1.0;" width="10" x="1" y="398.6"/><text fill="#000000" font-family="Fira Sans" font-size="14" font-style="italic" lengthAdjust="spacingAndGlyphs" textLength="36" x="52" y="378.09">«Vrc»</text><text fill="#000000" font-family="Fira Sans" font-size="14" lengthAdjust="spacingAndGlyphs" textLength="108" x="16" y="394.89">SwapchainImage</text><!--MD5=[360a9fe16172005fda0bb8dc90e86e09]
entity DeviceMemory--><rect fill="#66FF98" filter="url(#f10rnz0i97j4e6)" height="36.8" style="stroke: #333333; stroke-width: 1.0;" width="114" x="239" y="248.5"/><rect fill="#66FF98" height="5" style="stroke: #333333; stroke-width: 1.0;" width="10" x="234" y="253.5"/><rect fill="#66FF98" height="5" style="stroke: #333333; stroke-width: 1.0;" width="10" x="234" y="275.3"/><text fill="#000000" font-family="Fira Sans" font-size="14" lengthAdjust="spacingAndGlyphs" textLength="94" x="249" y="271.59">DeviceMemory</text><!--MD5=[f474ca078bd78d29e43d9c9138696efb]
entity Image--><rect fill="#66FF98" filter="url(#f10rnz0i97j4e6)" height="53.6" style="stroke: #333333; stroke-width: 1.0;" width="59" x="264.5" y="355"/><rect fill="#66FF98" height="5" style="stroke: #333333; stroke-width: 1.0;" width="10" x="259.5" y="360"/><rect fill="#66FF98" height="5" style="stroke: #333333; stroke-width: 1.0;" width="10" x="259.5" y="398.6"/><text fill="#000000" font-family="Fira Sans" font-size="14" font-style="italic" lengthAdjust="spacingAndGlyphs" textLength="36" x="276" y="378.09">«Vrc»</text><text fill="#000000" font-family="Fira Sans" font-size="14" lengthAdjust="spacingAndGlyphs" textLength="39" x="274.5" y="394.89">Image</text><!--MD5=[ff74cdb9d7cee1f338d42fda4bfd5a89]
entity Buffer--><rect fill="#66FF98" filter="url(#f10rnz0i97j4e6)" height="53.6" style="stroke: #333333; stroke-width: 1.0;" width="60" x="169" y="355"/><rect fill="#66FF98" height="5" style="stroke: #333333; stroke-width: 1.0;" width="10" x="164" y="360"/><rect fill="#66FF98" height="5" style="stroke: #333333; stroke-width: 1.0;" width="10" x="164" y="398.6"/><text fill="#000000" font-family="Fira Sans" font-size="14" font-style="italic" lengthAdjust="spacingAndGlyphs" textLength="36" x="181" y="378.09">«Vrc»</text><text fill="#000000" font-family="Fira Sans" font-size="14" lengthAdjust="spacingAndGlyphs" textLength="40" x="179" y="394.89">Buffer</text><!--MD5=[996a4ef807561e4ac30c80deecd9e11a]
entity Sampler--><rect fill="#66FF98" filter="url(#f10rnz0i97j4e6)" height="53.6" style="stroke: #333333; stroke-width: 1.0;" width="73" x="693.5" y="355"/><rect fill="#66FF98" height="5" style="stroke: #333333; stroke-width: 1.0;" width="10" x="688.5" y="360"/><rect fill="#66FF98" height="5" style="stroke: #333333; stroke-width: 1.0;" width="10" x="688.5" y="398.6"/><text fill="#000000" font-family="Fira Sans" font-size="14" font-style="italic" lengthAdjust="spacingAndGlyphs" textLength="36" x="712" y="378.09">«Vrc»</text><text fill="#000000" font-family="Fira Sans" font-size="14" lengthAdjust="spacingAndGlyphs" textLength="53" x="703.5" y="394.89">Sampler</text><!--MD5=[1d6feb955f00a8743cca3180655ae592]
entity ImageView--><rect fill="#66FF98" filter="url(#f10rnz0i97j4e6)" height="53.6" style="stroke: #333333; stroke-width: 1.0;" width="89" x="251.5" y="470"/><rect fill="#66FF98" height="5" style="stroke: #333333; stroke-width: 1.0;" width="10" x="246.5" y="475"/><rect fill="#66FF98" height="5" style="stroke: #333333; stroke-width: 1.0;" width="10" x="246.5" y="513.6"/><text fill="#000000" font-family="Fira Sans" font-size="14" font-style="italic" lengthAdjust="spacingAndGlyphs" textLength="36" x="278" y="493.09">«Vrc»</text><text fill="#000000" font-family="Fira Sans" font-size="14" lengthAdjust="spacingAndGlyphs" textLength="69" x="261.5" y="509.89">ImageView</text><!--MD5=[dfc4c350ab723b9a18f1debdf57a4051]
entity BufferView--><rect fill="#66FF98" filter="url(#f10rnz0i97j4e6)" height="53.6" style="stroke: #333333; stroke-width: 1.0;" width="90" x="126" y="470"/><rect fill="#66FF98" height="5" style="stroke: #333333; stroke-width: 1.0;" width="10" x="121" y="475"/><rect fill="#66FF98" height="5" style="stroke: #333333; stroke-width: 1.0;" width="10" x="121" y="513.6"/><text fill="#000000" font-family="Fira Sans" font-size="14" font-style="italic" lengthAdjust="spacingAndGlyphs" textLength="36" x="153" y="493.09">«Vrc»</text><text fill="#000000" font-family="Fira Sans" font-size="14" lengthAdjust="spacingAndGlyphs" textLength="70" x="136" y="509.89">BufferView</text><!--MD5=[94b42f345d8efb9f3882644b7664390d]
entity CommandPool--><rect fill="#66FF98" filter="url(#f10rnz0i97j4e6)" height="53.6" style="stroke: #333333; stroke-width: 1.0;" width="112" x="802" y="355"/><rect fill="#66FF98" height="5" style="stroke: #333333; stroke-width: 1.0;" width="10" x="797" y="360"/><rect fill="#66FF98" height="5" style="stroke: #333333; stroke-width: 1.0;" width="10" x="797" y="398.6"/><text fill="#000000" font-family="Fira Sans" font-size="14" font-style="italic" lengthAdjust="spacingAndGlyphs" textLength="36" x="840" y="378.09">«Vrc»</text><text fill="#000000" font-family="Fira Sans" font-size="14" lengthAdjust="spacingAndGlyphs" textLength="92" x="812" y="394.89">CommandPool</text><!--MD5=[ac29b704edc6d673d29ab010a0a75737]
entity CommandBuffer--><rect fill="#66CDFF" filter="url(#f10rnz0i97j4e6)" height="53.6" style="stroke: #333333; stroke-width: 1.0;" width="124" x="794" y="470"/><rect fill="#66CDFF" height="5" style="stroke: #333333; stroke-width: 1.0;" width="10" x="789" y="475"/><rect fill="#66CDFF" height="5" style="stroke: #333333; stroke-width: 1.0;" width="10" x="789" y="513.6"/><text fill="#000000" font-family="Fira Sans" font-size="14" font-style="italic" lengthAdjust="spacingAndGlyphs" textLength="36" x="838" y="493.09">«Vrc»</text><text fill="#000000" font-family="Fira Sans" font-size="14" lengthAdjust="spacingAndGlyphs" textLength="104" x="804" y="509.89">CommandBuffer</text><!--MD5=[aaa86911056d77c0094bc9419cc48a1e]
entity RenderPass--><rect fill="#66FF98" filter="url(#f10rnz0i97j4e6)" height="53.6" style="stroke: #333333; stroke-width: 1.0;" width="95" x="953.5" y="355"/><rect fill="#66FF98" height="5" style="stroke: #333333; stroke-width: 1.0;" width="10" x="948.5" y="360"/><rect fill="#66FF98" height="5" style="stroke: #333333; stroke-width: 1.0;" width="10" x="948.5" y="398.6"/><text fill="#000000" font-family="Fira Sans" font-size="14" font-style="italic" lengthAdjust="spacingAndGlyphs" textLength="36" x="983" y="378.09">«Vrc»</text><text fill="#000000" font-family="Fira Sans" font-size="14" lengthAdjust="spacingAndGlyphs" textLength="75" x="963.5" y="394.89">RenderPass</text><!--MD5=[90701dc8c13adb3d9edc282c27eb9529]
entity FrameBuffer--><rect fill="#66FF98" filter="url(#f10rnz0i97j4e6)" height="53.6" style="stroke: #333333; stroke-width: 1.0;" width="100" x="953" y="470"/><rect fill="#66FF98" height="5" style="stroke: #333333; stroke-width: 1.0;" width="10" x="948" y="475"/><rect fill="#66FF98" height="5" style="stroke: #333333; stroke-width: 1.0;" width="10" x="948" y="513.6"/><text fill="#000000" font-family="Fira Sans" font-size="14" font-style="italic" lengthAdjust="spacingAndGlyphs" textLength="36" x="985" y="493.09">«Vrc»</text><text fill="#000000" font-family="Fira Sans" font-size="14" lengthAdjust="spacingAndGlyphs" textLength="80" x="963" y="509.89">FrameBuffer</text><!--MD5=[2547e0e8dfc9762fafe4ea6f3eb9cf06]
entity GraphicsPipeline--><rect fill="#66CDFF" filter="url(#f10rnz0i97j4e6)" height="53.6" style="stroke: #333333; stroke-width: 1.0;" width="128" x="370" y="585"/><rect fill="#66CDFF" height="5" style="stroke: #333333; stroke-width: 1.0;" width="10" x="365" y="590"/><rect fill="#66CDFF" height="5" style="stroke: #333333; stroke-width: 1.0;" width="10" x="365" y="628.6"/><text fill="#000000" font-family="Fira Sans" font-size="14" font-style="italic" lengthAdjust="spacingAndGlyphs" textLength="36" x="416" y="608.09">«Vrc»</text><text fill="#000000" font-family="Fira Sans" font-size="14" lengthAdjust="spacingAndGlyphs" textLength="108" x="380" y="624.89">GraphicsPipeline</text><!--MD5=[b3cee5650c30f405e16a7ecef5202e47]
entity DescriptorSetLayout--><rect fill="#66FF98" filter="url(#f10rnz0i97j4e6)" height="53.6" style="stroke: #333333; stroke-width: 1.0;" width="150" x="359" y="355"/><rect fill="#66FF98" height="5" style="stroke: #333333; stroke-width: 1.0;" width="10" x="354" y="360"/><rect fill="#66FF98" height="5" style="stroke: #333333; stroke-width: 1.0;" width="10" x="354" y="398.6"/><text fill="#000000" font-family="Fira Sans" font-size="14" font-style="italic" lengthAdjust="spacingAndGlyphs" textLength="36" x="416" y="378.09">«Vrc»</text><text fill="#000000" font-family="Fira Sans" font-size="14" lengthAdjust="spacingAndGlyphs" textLength="130" x="369" y="394.89">DescriptorSetLayout</text><!--MD5=[79872d1326fc3a5beee5b28ed20020ae]
entity PipelineLayout--><rect fill="#66FF98" filter="url(#f10rnz0i97j4e6)" height="53.6" style="stroke: #333333; stroke-width: 1.0;" width="115" x="376.5" y="470"/><rect fill="#66FF98" height="5" style="stroke: #333333; stroke-width: 1.0;" width="10" x="371.5" y="475"/><rect fill="#66FF98" height="5" style="stroke: #333333; stroke-width: 1.0;" width="10" x="371.5" y="513.6"/><text fill="#000000" font-family="Fira Sans" font-size="14" font-style="italic" lengthAdjust="spacingAndGlyphs" textLength="36" x="416" y="493.09">«Vrc»</text><text fill="#000000" font-family="Fira Sans" font-size="14" lengthAdjust="spacingAndGlyphs" textLength="95" x="386.5" y="509.89">PipelineLayout</text><!--MD5=[525b145ed559d8349860a43fb55391e9]
entity DescriptorPool--><rect fill="#66FF98" filter="url(#f10rnz0i97j4e6)" height="53.6" style="stroke: #333333; stroke-width: 1.0;" width="114" x="544" y="355"/><rect fill="#66FF98" height="5" style="stroke: #333333; stroke-width: 1.0;" width="10" x="539" y="360"/><rect fill="#66FF98" height="5" style="stroke: #333333; stroke-width: 1.0;" width="10" x="539" y="398.6"/><text fill="#000000" font-family="Fira Sans" font-size="14" font-style="italic" lengthAdjust="spacingAndGlyphs" textLength="36" x="583" y="378.09">«Vrc»</text><text fill="#000000" font-family="Fira Sans" font-size="14" lengthAdjust="spacingAndGlyphs" textLength="94" x="554" y="394.89">DescriptorPool</text><!--MD5=[9e0743f2801aced260ae37367b66ae02]
entity DescriptorSet--><rect fill="#66FF98" filter="url(#f10rnz0i97j4e6)" height="53.6" style="stroke: #333333; stroke-width: 1.0;" width="107" x="536.5" y="470"/><rect fill="#66FF98" height="5" style="stroke: #333333; stroke-width: 1.0;" width="10" x="531.5" y="475"/><rect fill="#66FF98" height="5" style="stroke: #333333; stroke-width: 1.0;" width="10" x="531.5" y="513.6"/><text fill="#000000" font-family="Fira Sans" font-size="14" font-style="italic" lengthAdjust="spacingAndGlyphs" textLength="36" x="572" y="493.09">«Vrc»</text><text fill="#000000" font-family="Fira Sans" font-size="14" lengthAdjust="spacingAndGlyphs" textLength="87" x="546.5" y="509.89">DescriptorSet</text><!--MD5=[1fb0ef48e8900ffbbad7e616a7fe040d]
entity Semaphore--><rect fill="#66FF98" filter="url(#f10rnz0i97j4e6)" height="53.6" style="stroke: #333333; stroke-width: 1.0;" width="93" x="584.5" y="240"/><rect fill="#66FF98" height="5" style="stroke: #333333; stroke-width: 1.0;" width="10" x="579.5" y="245"/><rect fill="#66FF98" height="5" style="stroke: #333333; stroke-width: 1.0;" width="10" x="579.5" y="283.6"/><text fill="#000000" font-family="Fira Sans" font-size="14" font-style="italic" lengthAdjust="spacingAndGlyphs" textLength="36" x="613" y="263.09">«Vrc»</text><text fill="#000000" font-family="Fira Sans" font-size="14" lengthAdjust="spacingAndGlyphs" textLength="73" x="594.5" y="279.89">Semaphore</text><!--MD5=[6127d90547417416cc3e17b601189e55]
entity Fence--><rect fill="#66FF98" filter="url(#f10rnz0i97j4e6)" height="53.6" style="stroke: #333333; stroke-width: 1.0;" width="58" x="491" y="240"/><rect fill="#66FF98" height="5" style="stroke: #333333; stroke-width: 1.0;" width="10" x="486" y="245"/><rect fill="#66FF98" height="5" style="stroke: #333333; stroke-width: 1.0;" width="10" x="486" y="283.6"/><text fill="#000000" font-family="Fira Sans" font-size="14" font-style="italic" lengthAdjust="spacingAndGlyphs" textLength="36" x="502" y="263.09">«Vrc»</text><text fill="#000000" font-family="Fira Sans" font-size="14" lengthAdjust="spacingAndGlyphs" textLength="38" x="501" y="279.89">Fence</text><!--MD5=[178d138ca418f22dbf706354932801c4]
reverse link Instance to PhysicalDevice--><path d="M390.91,68.83 C394.43,87.45 398.75,110.39 401.68,125.89 " fill="none" id="Instance&lt;-PhysicalDevice" style="stroke: #000000; stroke-width: 1.0;"/><polygon fill="#000000" points="389.94,63.7,387.6806,73.2862,390.8683,68.6131,395.5415,71.8008,389.94,63.7" style="stroke: #000000; stroke-width: 1.0;"/><!--MD5=[f2ba400cd7de414d9a9741dfbead0412]
reverse link Instance to Surface--><path d="M349.73,66.94 C327.04,85.88 298.31,109.86 279.1,125.89 " fill="none" id="Instance&lt;-Surface" style="stroke: #000000; stroke-width: 1.0;"/><polygon fill="#000000" points="353.61,63.7,344.1343,66.3853,349.7677,66.8995,349.2535,72.533,353.61,63.7" style="stroke: #000000; stroke-width: 1.0;"/><!--MD5=[3e0807e64cb1f9217d9bd62b2a7fecf2]
reverse link Window to Surface--><path d="M258,60.07 C258,79.76 258,107.93 258,125.97 " fill="none" id="Window&lt;-Surface" style="stroke: #000000; stroke-width: 1.0;"/><polygon fill="#000000" points="258,55,254,64,258,60,262,64,258,55" style="stroke: #000000; stroke-width: 1.0;"/><!--MD5=[5244d0020466267193e1ddb4dd69dca4]
reverse link PhysicalDevice to Device--><path d="M408.54,167.96 C411.74,188.25 416.45,218.12 419.83,239.56 " fill="none" id="PhysicalDevice&lt;-Device" style="stroke: #000000; stroke-width: 1.0;"/><polygon fill="#000000" points="407.76,163.02,405.1957,172.5292,408.531,167.9602,413.1,171.2955,407.76,163.02" style="stroke: #000000; stroke-width: 1.0;"/><!--MD5=[23f64212de97a3cd89d252a40558ec97]
reverse link Surface to Swapchain--><path d="M240.39,166.94 C223.71,187.24 198.63,217.76 180.72,239.56 " fill="none" id="Surface&lt;-Swapchain" style="stroke: #000000; stroke-width: 1.0;"/><polygon fill="#000000" points="243.6,163.02,234.7846,167.412,240.416,166.8751,240.9528,172.5064,243.6,163.02" style="stroke: #000000; stroke-width: 1.0;"/><text fill="#000000" font-family="Fira Sans" font-size="13" lengthAdjust="spacingAndGlyphs" textLength="32" x="219" y="206.155">«Vrc»</text><!--MD5=[836376d7c55fb2cb32bc2405f03f9175]
reverse link Device to Queue--><path d="M447.01,235.73 C458.68,222.51 474.08,208.56 491.5,201.5 C568.11,170.44 601.01,170.15 677.5,201.5 C696.54,209.3 713.06,225.48 724.87,239.81 " fill="none" id="Device&lt;-Queue" style="stroke: #000000; stroke-width: 1.0;"/><polygon fill="#000000" points="443.51,239.8,452.412,235.5864,446.771,236.0098,446.3477,230.3688,443.51,239.8" style="stroke: #000000; stroke-width: 1.0;"/><!--MD5=[b7d130e6921a3f709b353c7e82ef4519]
link Swapchain to Device--><path d="M182.93,239.71 C197.39,225.35 217.12,209.17 238.5,201.5 C286.61,184.23 305.93,182.81 353.5,201.5 C371.55,208.59 387.73,222.72 400.02,236.05 " fill="none" id="Swapchain-&gt;Device" style="stroke: #000000; stroke-width: 1.0;"/><polygon fill="#000000" points="403.38,239.78,400.3325,230.4145,400.0352,236.0635,394.3861,235.7662,403.38,239.78" style="stroke: #000000; stroke-width: 1.0;"/><!--MD5=[8dcd14a4fc26f7f563640c609deb838b]
link DeviceMemory to Device--><path d="M353.25,267 C364.59,267 375.94,267 387.28,267 " fill="none" id="DeviceMemory-&gt;Device" style="stroke: #000000; stroke-width: 1.0;"/><polygon fill="#000000" points="392.49,267,383.49,263,387.49,267,383.49,271,392.49,267" style="stroke: #000000; stroke-width: 1.0;"/><!--MD5=[5d2fc20e973026d3d70a36b451111cd3]
reverse link Device to Image--><path d="M390.06,297.5 C369.42,315.44 343.32,338.13 323.54,355.32 " fill="none" id="Device&lt;-Image" style="stroke: #000000; stroke-width: 1.0;"/><polygon fill="#000000" points="393.85,294.21,384.4303,297.0857,390.073,297.4863,389.6724,303.1289,393.85,294.21" style="stroke: #000000; stroke-width: 1.0;"/><!--MD5=[7ed3f5b949e2f9f39ea6c581de42e9cd]
reverse link Device to Buffer--><path d="M387.62,285.83 C337.84,310.25 253.82,351.48 247,355 C241.19,358 235.02,361.27 229.12,364.45 " fill="none" id="Device&lt;-Buffer" style="stroke: #000000; stroke-width: 1.0;"/><polygon fill="#000000" points="392.33,283.53,382.4882,283.9017,387.8408,285.7317,386.0109,291.0844,392.33,283.53" style="stroke: #000000; stroke-width: 1.0;"/><!--MD5=[7b8416ac739858399dd6984897e43142]
reverse link Device to Sampler--><path d="M460.15,287.8 C464.75,290.02 469.45,292.15 474,294 C560.87,329.34 588.6,321 676,355 C681.72,357.23 687.67,359.81 693.45,362.46 " fill="none" id="Device&lt;-Sampler" style="stroke: #000000; stroke-width: 1.0;"/><polygon fill="#000000" points="455.59,285.55,461.8897,293.1205,460.0735,287.7632,465.4309,285.9469,455.59,285.55" style="stroke: #000000; stroke-width: 1.0;"/><!--MD5=[f6bcffb38d475edb517ffdcb614f3bef]
reverse link Device to CommandPool--><path d="M460.19,288.33 C464.76,290.45 469.43,292.4 474,294 C540.26,317.21 716.26,336.54 784,355 C789.78,356.58 795.76,358.38 801.7,360.28 " fill="none" id="Device&lt;-CommandPool" style="stroke: #000000; stroke-width: 1.0;"/><polygon fill="#000000" points="455.67,286.18,462.0659,293.6695,460.1814,288.3358,465.5151,286.4513,455.67,286.18" style="stroke: #000000; stroke-width: 1.0;"/><!--MD5=[e0ad2de0215056282daeafd13a4afdde]
reverse link Device to RenderPass--><path d="M460.1,288.61 C464.68,290.67 469.38,292.54 474,294 C571.91,324.93 832.42,329.96 932,355 C938.95,356.75 946.16,358.98 953.19,361.39 " fill="none" id="Device&lt;-RenderPass" style="stroke: #000000; stroke-width: 1.0;"/><polygon fill="#000000" points="455.57,286.49,462.0328,293.9218,460.1006,288.6052,465.4172,286.6729,455.57,286.49" style="stroke: #000000; stroke-width: 1.0;"/><!--MD5=[1d8ab4b6eb246067a2f851c4a30eda2c]
reverse link Device to DescriptorSetLayout--><path d="M426.79,299.49 C428.33,316.96 430.23,338.42 431.69,354.93 " fill="none" id="Device&lt;-DescriptorSetLayout" style="stroke: #000000; stroke-width: 1.0;"/><polygon fill="#000000" points="426.32,294.21,423.1343,303.5294,426.7636,299.1903,431.1028,302.8196,426.32,294.21" style="stroke: #000000; stroke-width: 1.0;"/><!--MD5=[c683be054c18037a04d3c894258f63c1]
reverse link Device to DescriptorPool--><path d="M460.19,291.1 C489.16,309.6 529.78,335.53 559.96,354.8 " fill="none" id="Device&lt;-DescriptorPool" style="stroke: #000000; stroke-width: 1.0;"/><polygon fill="#000000" points="455.64,288.2,461.0801,296.4101,459.8565,290.8872,465.3795,289.6636,455.64,288.2" style="stroke: #000000; stroke-width: 1.0;"/><!--MD5=[a6617f030d72c66593096a7c7dae5bb8]
reverse link Device to Semaphore--><path d="M447.01,235.73 C458.68,222.51 474.08,208.56 491.5,201.5 C515.39,191.81 525.18,192.94 549.5,201.5 C571.25,209.16 591.47,225.34 606.34,239.7 " fill="none" id="Device&lt;-Semaphore" style="stroke: #000000; stroke-width: 1.0;"/><polygon fill="#000000" points="443.51,239.8,452.412,235.5864,446.771,236.0098,446.3477,230.3688,443.51,239.8" style="stroke: #000000; stroke-width: 1.0;"/><!--MD5=[53e1f28dac411f1d6c7512e37e08761c]
reverse link Device to Fence--><path d="M461.08,267 C471.03,267 480.99,267 490.94,267 " fill="none" id="Device&lt;-Fence" style="stroke: #000000; stroke-width: 1.0;"/><polygon fill="#000000" points="455.88,267,464.8914,270.9743,460.88,266.9857,464.8685,262.9743,455.88,267" style="stroke: #000000; stroke-width: 1.0;"/><!--MD5=[dfa72a60997d7779d3371d7381ce0441]
reverse link Swapchain to SwapchainImage--><path d="M135.26,298.14 C121.32,315.84 103.87,337.99 90.53,354.93 " fill="none" id="Swapchain&lt;-SwapchainImage" style="stroke: #000000; stroke-width: 1.0;"/><polygon fill="#000000" points="138.36,294.21,129.6448,298.7974,135.2627,298.1351,135.925,303.7531,138.36,294.21" style="stroke: #000000; stroke-width: 1.0;"/><!--MD5=[5bc88fbc58c7663c0a64956f6397e8b3]
link DeviceMemory to Image--><path d="M295.69,285.66 C295.39,302.71 294.92,328.91 294.56,349.53 " fill="none" id="DeviceMemory-&gt;Image" style="stroke: #000000; stroke-width: 1.0; stroke-dasharray: 7.0,7.0;"/><polygon fill="#000000" points="294.47,354.65,298.6241,345.7201,294.5559,349.6507,290.6253,345.5826,294.47,354.65" style="stroke: #000000; stroke-width: 1.0;"/><!--MD5=[e179ef9d6e9b3ede8436d2f0b381d8ca]
link DeviceMemory to Buffer--><path d="M266.87,285.68 C252.5,295.54 235.77,308.88 224,324 C218.01,331.7 213.13,341.06 209.33,349.94 " fill="none" id="DeviceMemory-&gt;Buffer" style="stroke: #000000; stroke-width: 1.0; stroke-dasharray: 7.0,7.0;"/><polygon fill="#000000" points="207.33,354.82,214.4481,348.0132,209.2287,350.1945,207.0473,344.9752,207.33,354.82" style="stroke: #000000; stroke-width: 1.0;"/><!--MD5=[0249f1fc86a30a4b7a7dc57462ceee3a]
reverse link SwapchainImage to Image--><path d="M110.07,352.12 C127.15,341.16 147.88,330.08 168.5,324.5 C194.24,317.54 203.54,315.1 228.5,324.5 C244.93,330.69 259.91,343.07 271.4,354.77 " fill="none" id="SwapchainImage&lt;-Image" style="stroke: #000000; stroke-width: 1.0; stroke-dasharray: 7.0,7.0;"/><polygon fill="#000000" points="105.8,354.9,115.5239,353.3361,109.9886,352.1695,111.1551,346.6343,105.8,354.9" style="stroke: #000000; stroke-width: 1.0;"/><!--MD5=[7edb7ac24b13a7ee42ee0a9c329f1ffc]
reverse link Image to ImageView--><path d="M294.56,414.49 C294.87,431.96 295.25,453.42 295.54,469.93 " fill="none" id="Image&lt;-ImageView" style="stroke: #000000; stroke-width: 1.0;"/><polygon fill="#000000" points="294.46,409.21,290.6149,418.2772,294.5457,414.2093,298.6137,418.1401,294.46,409.21" style="stroke: #000000; stroke-width: 1.0;"/><!--MD5=[9e5a877cae309ef4a8edae84f5d290eb]
reverse link Buffer to BufferView--><path d="M191.2,414.49 C186.87,431.96 181.55,453.42 177.46,469.93 " fill="none" id="Buffer&lt;-BufferView" style="stroke: #000000; stroke-width: 1.0;"/><polygon fill="#000000" points="192.51,409.21,186.4681,416.9879,191.3108,414.0641,194.2346,418.9067,192.51,409.21" style="stroke: #000000; stroke-width: 1.0;"/><!--MD5=[a98ba249a758eccde728ad10bb3a8e03]
reverse link CommandPool to CommandBuffer--><path d="M857.44,414.49 C857.13,431.96 856.75,453.42 856.46,469.93 " fill="none" id="CommandPool&lt;-CommandBuffer" style="stroke: #000000; stroke-width: 1.0;"/><polygon fill="#000000" points="857.54,409.21,853.3863,418.1401,857.4543,414.2093,861.3851,418.2772,857.54,409.21" style="stroke: #000000; stroke-width: 1.0;"/><!--MD5=[a7febcd2bed0c22eca4c8729479453ee]
reverse link RenderPass to FrameBuffer--><path d="M1001.56,414.49 C1001.87,431.96 1002.25,453.42 1002.54,469.93 " fill="none" id="RenderPass&lt;-FrameBuffer" style="stroke: #000000; stroke-width: 1.0; stroke-dasharray: 7.0,7.0;"/><polygon fill="#000000" points="1001.46,409.21,997.6149,418.2772,1001.5457,414.2093,1005.6137,418.1401,1001.46,409.21" style="stroke: #000000; stroke-width: 1.0;"/><!--MD5=[13b699461f32b51a6848d9a573756111]
reverse link DescriptorSetLayout to DescriptorSet--><path d="M474.39,412.26 C499.02,430.1 530.23,452.71 554.01,469.93 " fill="none" id="DescriptorSetLayout&lt;-DescriptorSet" style="stroke: #000000; stroke-width: 1.0;"/><polygon fill="#000000" points="470.18,409.21,475.1167,417.7323,474.2274,412.1458,479.8139,411.2565,470.18,409.21" style="stroke: #000000; stroke-width: 1.0;"/><!--MD5=[8f0c79ef6bb73fab9785932495789586]
reverse link DescriptorSetLayout to PipelineLayout--><path d="M434,414.49 C434,431.96 434,453.42 434,469.93 " fill="none" id="DescriptorSetLayout&lt;-PipelineLayout" style="stroke: #000000; stroke-width: 1.0;"/><polygon fill="#000000" points="434,409.21,430,418.21,434,414.21,438,418.21,434,409.21" style="stroke: #000000; stroke-width: 1.0;"/><!--MD5=[27cc0bccccfed3058d66055fcc0a1ef1]
reverse link PipelineLayout to GraphicsPipeline--><path d="M434,529.49 C434,546.96 434,568.42 434,584.93 " fill="none" id="PipelineLayout&lt;-GraphicsPipeline" style="stroke: #000000; stroke-width: 1.0;"/><polygon fill="#000000" points="434,524.21,430,533.21,434,529.21,438,533.21,434,524.21" style="stroke: #000000; stroke-width: 1.0;"/><!--MD5=[a938b21e95382d85ef65afae3004fc90]
reverse link DescriptorPool to DescriptorSet--><path d="M597.93,414.49 C596.23,431.96 594.15,453.42 592.54,469.93 " fill="none" id="DescriptorPool&lt;-DescriptorSet" style="stroke: #000000; stroke-width: 1.0;"/><polygon fill="#000000" points="598.45,409.21,593.6205,417.7935,597.9793,414.1878,601.585,418.5466,598.45,409.21" style="stroke: #000000; stroke-width: 1.0;"/><!--MD5=[90973e6bd6ae5d9eb9ff2be6ca38ff71]
@startuml object_dependency_graph

skinparam {
	defaultFontName Fira Sans

	ArrowColor #black
	ComponentBorderColor #333
	ComponentBorderThickness 1
}

note left of [Window]
	<color 66FF98>Green</color> = done
	<color 66CDFF>Blue</color> = in-progress
	<color FF6680>Red</color> = planned
end note

component [Instance] <<Vrc>> #66FF98
component [Window] #66FF98

component [PhysicalDevice] #66FF98
component [Surface] #66FF98

component [Device] <<Vrc>> #66FF98

component [Queue] <<Vrc>> #66FF98
component [Swapchain] <<Vrc>> #66FF98
component [SwapchainImage] <<Vrc>> #66FF98

component [DeviceMemory] #66FF98

component [Image] <<Vrc>> #66FF98
component [Buffer] <<Vrc>> #66FF98
component [Sampler] <<Vrc>> #66FF98

component [ImageView] <<Vrc>> #66FF98
component [BufferView] <<Vrc>> #66FF98

component [CommandPool] <<Vrc>> #66FF98
component [CommandBuffer] <<Vrc>> #66CDFF

component [RenderPass] <<Vrc>> #66FF98
component [FrameBuffer] <<Vrc>> #66FF98
component [GraphicsPipeline] <<Vrc>> #66CDFF

component [DescriptorSetLayout] <<Vrc>> #66FF98
component [PipelineLayout] <<Vrc>> #66FF98

component [DescriptorPool] <<Vrc>> #66FF98
component [DescriptorSet] <<Vrc>> #66FF98

component [Semaphore] <<Vrc>> #66FF98
component [Fence] <<Vrc>> #66FF98

[Instance] <- - [PhysicalDevice]
[Instance] <- - [Surface]

[Window] <- - [Surface]
[PhysicalDevice] <- - [Device]
[Surface] <- - [Swapchain] : <<Vrc>>

[Device] <- [Queue]
[Swapchain] -> [Device]
[DeviceMemory] -> [Device]
[Device] <- - [Image]
[Device] <- - [Buffer]
[Device] <- - [Sampler]
[Device] <- - [CommandPool]
[Device] <- - [RenderPass]
[Device] <- - [DescriptorSetLayout]
[Device] <- - [DescriptorPool]
[Device] <- [Semaphore]
[Device] <- [Fence]

[Swapchain] <- - [SwapchainImage]

[DeviceMemory] ..> [Image]
[DeviceMemory] ..> [Buffer]

[SwapchainImage] <. [Image]
[Image] <- - [ImageView]
[Buffer] <- - [BufferView]

[CommandPool] <- - [CommandBuffer]

[RenderPass] <.. [FrameBuffer]
[DescriptorSetLayout] <- - [DescriptorSet]
[DescriptorSetLayout] <- - [PipelineLayout]
[PipelineLayout] <- - [GraphicsPipeline]
[DescriptorPool] <- - [DescriptorSet]

@enduml

PlantUML version 1.2020.05(Thu Mar 19 22:17:32 CET 2020)
(MIT source distribution)
Java Runtime: OpenJDK Runtime Environment
JVM: OpenJDK 64-Bit Server VM
Java Version: 13.0.1+9
Operating System: Mac OS X
Default Encoding: UTF-8
Language: en
Country: CZ
--></g></svg>