<?xml version="1.0" encoding="UTF-8" standalone="no"?><svg xmlns="http://www.w3.org/2000/svg" xmlns:xlink="http://www.w3.org/1999/xlink" contentScriptType="application/ecmascript" contentStyleType="text/css" height="681px" preserveAspectRatio="none" style="width:955px;height:681px;" version="1.1" viewBox="0 0 955 681" width="955px" zoomAndPan="magnify"><defs><filter height="300%" id="f15gphlcyfm1l5" width="300%" x="-1" y="-1"><feGaussianBlur result="blurOut" stdDeviation="2.0"/><feColorMatrix in="blurOut" result="blurOut2" type="matrix" values="0 0 0 0 0 0 0 0 0 0 0 0 0 0 0 0 0 0 .4 0"/><feOffset dx="4.0" dy="4.0" in="blurOut2" result="blurOut3"/><feBlend in="SourceGraphic" in2="blurOut3" mode="normal"/></filter></defs><g><!--MD5=[8d6925f44e0e1541670b54b5f2c3eb41]
entity Window--><rect fill="#66FF98" filter="url(#f15gphlcyfm1l5)" height="36.8" style="stroke: #333333; stroke-width: 1.0;" width="70" x="221" y="18"/><rect fill="#66FF98" height="5" style="stroke: #333333; stroke-width: 1.0;" width="10" x="216" y="23"/><rect fill="#66FF98" height="5" style="stroke: #333333; stroke-width: 1.0;" width="10" x="216" y="44.8"/><text fill="#000000" font-family="Fira Sans" font-size="14" lengthAdjust="spacingAndGlyphs" textLength="50" x="231" y="41.09">Window</text><path d="M56,8 L56,64.8 A0,0 0 0 0 56,64.8 L186,64.8 A0,0 0 0 0 186,64.8 L186,40.5 L220.79,36.5 L186,32.5 L186,18 L176,8 L56,8 A0,0 0 0 0 56,8 " fill="#FBFB77" filter="url(#f15gphlcyfm1l5)" style="stroke: #A80036; stroke-width: 1.0;"/><path d="M176,8 L176,18 L186,18 L176,8 " fill="#FBFB77" style="stroke: #A80036; stroke-width: 1.0;"/><text fill="#66FF98" font-family="Fira Sans" font-size="13" lengthAdjust="spacingAndGlyphs" textLength="35" x="62" y="25.155">Green</text><text fill="#000000" font-family="Fira Sans" font-size="13" lengthAdjust="spacingAndGlyphs" textLength="41" x="100" y="25.155">= done</text><text fill="#66CDFF" font-family="Fira Sans" font-size="13" lengthAdjust="spacingAndGlyphs" textLength="27" x="62" y="40.755">Blue</text><text fill="#000000" font-family="Fira Sans" font-size="13" lengthAdjust="spacingAndGlyphs" textLength="79" x="92" y="40.755">= in-progress</text><text fill="#FF6680" font-family="Fira Sans" font-size="13" lengthAdjust="spacingAndGlyphs" textLength="23" x="62" y="56.355">Red</text><text fill="#000000" font-family="Fira Sans" font-size="13" lengthAdjust="spacingAndGlyphs" textLength="60" x="88" y="56.355">= planned</text><!--MD5=[77a0c14de6685fa065b9b4e019b7f347]
entity Instance--><rect fill="#66FF98" filter="url(#f15gphlcyfm1l5)" height="53.6" style="stroke: #333333; stroke-width: 1.0;" width="75" x="344.5" y="9.5"/><rect fill="#66FF98" height="5" style="stroke: #333333; stroke-width: 1.0;" width="10" x="339.5" y="14.5"/><rect fill="#66FF98" height="5" style="stroke: #333333; stroke-width: 1.0;" width="10" x="339.5" y="53.1"/><text fill="#000000" font-family="Fira Sans" font-size="14" font-style="italic" lengthAdjust="spacingAndGlyphs" textLength="36" x="364" y="32.59">«Vrc»</text><text fill="#000000" font-family="Fira Sans" font-size="14" lengthAdjust="spacingAndGlyphs" textLength="55" x="354.5" y="49.39">Instance</text><!--MD5=[5789a701af2564c361c8c4b0bb67bc5e]
entity PhysicalDevice--><rect fill="#66FF98" filter="url(#f15gphlcyfm1l5)" height="36.8" style="stroke: #333333; stroke-width: 1.0;" width="116" x="343" y="126"/><rect fill="#66FF98" height="5" style="stroke: #333333; stroke-width: 1.0;" width="10" x="338" y="131"/><rect fill="#66FF98" height="5" style="stroke: #333333; stroke-width: 1.0;" width="10" x="338" y="152.8"/><text fill="#000000" font-family="Fira Sans" font-size="14" lengthAdjust="spacingAndGlyphs" textLength="96" x="353" y="149.09">PhysicalDevice</text><!--MD5=[d5b65137a7b1bf40136b14d6cc3c273c]
entity Surface--><rect fill="#66FF98" filter="url(#f15gphlcyfm1l5)" height="36.8" style="stroke: #333333; stroke-width: 1.0;" width="69" x="221.5" y="126"/><rect fill="#66FF98" height="5" style="stroke: #333333; stroke-width: 1.0;" width="10" x="216.5" y="131"/><rect fill="#66FF98" height="5" style="stroke: #333333; stroke-width: 1.0;" width="10" x="216.5" y="152.8"/><text fill="#000000" font-family="Fira Sans" font-size="14" lengthAdjust="spacingAndGlyphs" textLength="49" x="231.5" y="149.09">Surface</text><!--MD5=[1481f43b514325438f831f19ea58e9e2]
entity Device--><rect fill="#66FF98" filter="url(#f15gphlcyfm1l5)" height="53.6" style="stroke: #333333; stroke-width: 1.0;" width="63" x="386.5" y="240"/><rect fill="#66FF98" height="5" style="stroke: #333333; stroke-width: 1.0;" width="10" x="381.5" y="245"/><rect fill="#66FF98" height="5" style="stroke: #333333; stroke-width: 1.0;" width="10" x="381.5" y="283.6"/><text fill="#000000" font-family="Fira Sans" font-size="14" font-style="italic" lengthAdjust="spacingAndGlyphs" textLength="36" x="400" y="263.09">«Vrc»</text><text fill="#000000" font-family="Fira Sans" font-size="14" lengthAdjust="spacingAndGlyphs" textLength="43" x="396.5" y="279.89">Device</text><!--MD5=[9762e67b79b719797c568dcdd43c32f7]
entity Queue--><rect fill="#66FF98" filter="url(#f15gphlcyfm1l5)" height="53.6" style="stroke: #333333; stroke-width: 1.0;" width="62" x="707" y="240"/><rect fill="#66FF98" height="5" style="stroke: #333333; stroke-width: 1.0;" width="10" x="702" y="245"/><rect fill="#66FF98" height="5" style="stroke: #333333; stroke-width: 1.0;" width="10" x="702" y="283.6"/><text fill="#000000" font-family="Fira Sans" font-size="14" font-style="italic" lengthAdjust="spacingAndGlyphs" textLength="36" x="720" y="263.09">«Vrc»</text><text fill="#000000" font-family="Fira Sans" font-size="14" lengthAdjust="spacingAndGlyphs" textLength="42" x="717" y="279.89">Queue</text><!--MD5=[7a22288d6da5f69922be8ffcf0fcbe4e]
entity Swapchain--><rect fill="#66FF98" filter="url(#f15gphlcyfm1l5)" height="53.6" style="stroke: #333333; stroke-width: 1.0;" width="89" x="112.5" y="240"/><rect fill="#66FF98" height="5" style="stroke: #333333; stroke-width: 1.0;" width="10" x="107.5" y="245"/><rect fill="#66FF98" height="5" style="stroke: #333333; stroke-width: 1.0;" width="10" x="107.5" y="283.6"/><text fill="#000000" font-family="Fira Sans" font-size="14" font-style="italic" lengthAdjust="spacingAndGlyphs" textLength="36" x="139" y="263.09">«Vrc»</text><text fill="#000000" font-family="Fira Sans" font-size="14" lengthAdjust="spacingAndGlyphs" textLength="69" x="122.5" y="279.89">Swapchain</text><!--MD5=[53b911199a3644c85b37bbf4df7dfa26]
entity SwapchainImage--><rect fill="#66FF98" filter="url(#f15gphlcyfm1l5)" height="53.6" style="stroke: #333333; stroke-width: 1.0;" width="128" x="6" y="355"/><rect fill="#66FF98" height="5" style="stroke: #333333; stroke-width: 1.0;" width="10" x="1" y="360"/><rect fill="#66FF98" height="5" style="stroke: #333333; stroke-width: 1.0;" width="10" x="1" y="398.6"/><text fill="#000000" font-family="Fira Sans" font-size="14" font-style="italic" lengthAdjust="spacingAndGlyphs" textLength="36" x="52" y="378.09">«Vrc»</text><text fill="#000000" font-family="Fira Sans" font-size="14" lengthAdjust="spacingAndGlyphs" textLength="108" x="16" y="394.89">SwapchainImage</text><!--MD5=[360a9fe16172005fda0bb8dc90e86e09]
entity DeviceMemory--><rect fill="#66FF98" filter="url(#f15gphlcyfm1l5)" height="36.8" style="stroke: #333333; stroke-width: 1.0;" width="114" x="237" y="248.5"/><rect fill="#66FF98" height="5" style="stroke: #333333; stroke-width: 1.0;" width="10" x="232" y="253.5"/><rect fill="#66FF98" height="5" style="stroke: #333333; stroke-width: 1.0;" width="10" x="232" y="275.3"/><text fill="#000000" font-family="Fira Sans" font-size="14" lengthAdjust="spacingAndGlyphs" textLength="94" x="247" y="271.59">DeviceMemory</text><!--MD5=[f474ca078bd78d29e43d9c9138696efb]
entity Image--><rect fill="#66FF98" filter="url(#f15gphlcyfm1l5)" height="53.6" style="stroke: #333333; stroke-width: 1.0;" width="59" x="169.5" y="355"/><rect fill="#66FF98" height="5" style="stroke: #333333; stroke-width: 1.0;" width="10" x="164.5" y="360"/><rect fill="#66FF98" height="5" style="stroke: #333333; stroke-width: 1.0;" width="10" x="164.5" y="398.6"/><text fill="#000000" font-family="Fira Sans" font-size="14" font-style="italic" lengthAdjust="spacingAndGlyphs" textLength="36" x="181" y="378.09">«Vrc»</text><text fill="#000000" font-family="Fira Sans" font-size="14" lengthAdjust="spacingAndGlyphs" textLength="39" x="179.5" y="394.89">Image</text><!--MD5=[ff74cdb9d7cee1f338d42fda4bfd5a89]
entity Buffer--><rect fill="#66FF98" filter="url(#f15gphlcyfm1l5)" height="53.6" style="stroke: #333333; stroke-width: 1.0;" width="60" x="264" y="355"/><rect fill="#66FF98" height="5" style="stroke: #333333; stroke-width: 1.0;" width="10" x="259" y="360"/><rect fill="#66FF98" height="5" style="stroke: #333333; stroke-width: 1.0;" width="10" x="259" y="398.6"/><text fill="#000000" font-family="Fira Sans" font-size="14" font-style="italic" lengthAdjust="spacingAndGlyphs" textLength="36" x="276" y="378.09">«Vrc»</text><text fill="#000000" font-family="Fira Sans" font-size="14" lengthAdjust="spacingAndGlyphs" textLength="40" x="274" y="394.89">Buffer</text><!--MD5=[1d6feb955f00a8743cca3180655ae592]
entity ImageView--><rect fill="#66FF98" filter="url(#f15gphlcyfm1l5)" height="53.6" style="stroke: #333333; stroke-width: 1.0;" width="89" x="125.5" y="486"/><rect fill="#66FF98" height="5" style="stroke: #333333; stroke-width: 1.0;" width="10" x="120.5" y="491"/><rect fill="#66FF98" height="5" style="stroke: #333333; stroke-width: 1.0;" width="10" x="120.5" y="529.6"/><text fill="#000000" font-family="Fira Sans" font-size="14" font-style="italic" lengthAdjust="spacingAndGlyphs" textLength="36" x="152" y="509.09">«Vrc»</text><text fill="#000000" font-family="Fira Sans" font-size="14" lengthAdjust="spacingAndGlyphs" textLength="69" x="135.5" y="525.89">ImageView</text><!--MD5=[dfc4c350ab723b9a18f1debdf57a4051]
entity BufferView--><rect fill="#66FF98" filter="url(#f15gphlcyfm1l5)" height="53.6" style="stroke: #333333; stroke-width: 1.0;" width="90" x="250" y="486"/><rect fill="#66FF98" height="5" style="stroke: #333333; stroke-width: 1.0;" width="10" x="245" y="491"/><rect fill="#66FF98" height="5" style="stroke: #333333; stroke-width: 1.0;" width="10" x="245" y="529.6"/><text fill="#000000" font-family="Fira Sans" font-size="14" font-style="italic" lengthAdjust="spacingAndGlyphs" textLength="36" x="277" y="509.09">«Vrc»</text><text fill="#000000" font-family="Fira Sans" font-size="14" lengthAdjust="spacingAndGlyphs" textLength="70" x="260" y="525.89">BufferView</text><!--MD5=[94b42f345d8efb9f3882644b7664390d]
entity CommandPool--><rect fill="#66FF98" filter="url(#f15gphlcyfm1l5)" height="53.6" style="stroke: #333333; stroke-width: 1.0;" width="112" x="693" y="355"/><rect fill="#66FF98" height="5" style="stroke: #333333; stroke-width: 1.0;" width="10" x="688" y="360"/><rect fill="#66FF98" height="5" style="stroke: #333333; stroke-width: 1.0;" width="10" x="688" y="398.6"/><text fill="#000000" font-family="Fira Sans" font-size="14" font-style="italic" lengthAdjust="spacingAndGlyphs" textLength="36" x="731" y="378.09">«Vrc»</text><text fill="#000000" font-family="Fira Sans" font-size="14" lengthAdjust="spacingAndGlyphs" textLength="92" x="703" y="394.89">CommandPool</text><!--MD5=[ac29b704edc6d673d29ab010a0a75737]
entity CommandBuffer--><rect fill="#66CDFF" filter="url(#f15gphlcyfm1l5)" height="53.6" style="stroke: #333333; stroke-width: 1.0;" width="124" x="685" y="486"/><rect fill="#66CDFF" height="5" style="stroke: #333333; stroke-width: 1.0;" width="10" x="680" y="491"/><rect fill="#66CDFF" height="5" style="stroke: #333333; stroke-width: 1.0;" width="10" x="680" y="529.6"/><text fill="#000000" font-family="Fira Sans" font-size="14" font-style="italic" lengthAdjust="spacingAndGlyphs" textLength="36" x="729" y="509.09">«Vrc»</text><text fill="#000000" font-family="Fira Sans" font-size="14" lengthAdjust="spacingAndGlyphs" textLength="104" x="695" y="525.89">CommandBuffer</text><!--MD5=[aaa86911056d77c0094bc9419cc48a1e]
entity RenderPass--><rect fill="#FF6680" filter="url(#f15gphlcyfm1l5)" height="53.6" style="stroke: #333333; stroke-width: 1.0;" width="95" x="844.5" y="355"/><rect fill="#FF6680" height="5" style="stroke: #333333; stroke-width: 1.0;" width="10" x="839.5" y="360"/><rect fill="#FF6680" height="5" style="stroke: #333333; stroke-width: 1.0;" width="10" x="839.5" y="398.6"/><text fill="#000000" font-family="Fira Sans" font-size="14" font-style="italic" lengthAdjust="spacingAndGlyphs" textLength="36" x="874" y="378.09">«Vrc»</text><text fill="#000000" font-family="Fira Sans" font-size="14" lengthAdjust="spacingAndGlyphs" textLength="75" x="854.5" y="394.89">RenderPass</text><!--MD5=[90701dc8c13adb3d9edc282c27eb9529]
entity FrameBuffer--><rect fill="#FF6680" filter="url(#f15gphlcyfm1l5)" height="53.6" style="stroke: #333333; stroke-width: 1.0;" width="100" x="844" y="486"/><rect fill="#FF6680" height="5" style="stroke: #333333; stroke-width: 1.0;" width="10" x="839" y="491"/><rect fill="#FF6680" height="5" style="stroke: #333333; stroke-width: 1.0;" width="10" x="839" y="529.6"/><text fill="#000000" font-family="Fira Sans" font-size="14" font-style="italic" lengthAdjust="spacingAndGlyphs" textLength="36" x="876" y="509.09">«Vrc»</text><text fill="#000000" font-family="Fira Sans" font-size="14" lengthAdjust="spacingAndGlyphs" textLength="80" x="854" y="525.89">FrameBuffer</text><!--MD5=[1ffdb862bcd5a17046dc5b2ba3c3c467]
entity ComputePipeline--><rect fill="#FF6680" filter="url(#f15gphlcyfm1l5)" height="53.6" style="stroke: #333333; stroke-width: 1.0;" width="129" x="287.5" y="617"/><rect fill="#FF6680" height="5" style="stroke: #333333; stroke-width: 1.0;" width="10" x="282.5" y="622"/><rect fill="#FF6680" height="5" style="stroke: #333333; stroke-width: 1.0;" width="10" x="282.5" y="660.6"/><text fill="#000000" font-family="Fira Sans" font-size="14" font-style="italic" lengthAdjust="spacingAndGlyphs" textLength="36" x="334" y="640.09">«Vrc»</text><text fill="#000000" font-family="Fira Sans" font-size="14" lengthAdjust="spacingAndGlyphs" textLength="109" x="297.5" y="656.89">ComputePipeline</text><!--MD5=[2547e0e8dfc9762fafe4ea6f3eb9cf06]
entity GraphicsPipeline--><rect fill="#FF6680" filter="url(#f15gphlcyfm1l5)" height="53.6" style="stroke: #333333; stroke-width: 1.0;" width="128" x="452" y="617"/><rect fill="#FF6680" height="5" style="stroke: #333333; stroke-width: 1.0;" width="10" x="447" y="622"/><rect fill="#FF6680" height="5" style="stroke: #333333; stroke-width: 1.0;" width="10" x="447" y="660.6"/><text fill="#000000" font-family="Fira Sans" font-size="14" font-style="italic" lengthAdjust="spacingAndGlyphs" textLength="36" x="498" y="640.09">«Vrc»</text><text fill="#000000" font-family="Fira Sans" font-size="14" lengthAdjust="spacingAndGlyphs" textLength="108" x="462" y="656.89">GraphicsPipeline</text><!--MD5=[b3cee5650c30f405e16a7ecef5202e47]
entity DescriptorSetLayout--><rect fill="#66FF98" filter="url(#f15gphlcyfm1l5)" height="53.6" style="stroke: #333333; stroke-width: 1.0;" width="150" x="359" y="355"/><rect fill="#66FF98" height="5" style="stroke: #333333; stroke-width: 1.0;" width="10" x="354" y="360"/><rect fill="#66FF98" height="5" style="stroke: #333333; stroke-width: 1.0;" width="10" x="354" y="398.6"/><text fill="#000000" font-family="Fira Sans" font-size="14" font-style="italic" lengthAdjust="spacingAndGlyphs" textLength="36" x="416" y="378.09">«Vrc»</text><text fill="#000000" font-family="Fira Sans" font-size="14" lengthAdjust="spacingAndGlyphs" textLength="130" x="369" y="394.89">DescriptorSetLayout</text><!--MD5=[79872d1326fc3a5beee5b28ed20020ae]
entity PipelineLayout--><rect fill="#66FF98" filter="url(#f15gphlcyfm1l5)" height="53.6" style="stroke: #333333; stroke-width: 1.0;" width="115" x="376.5" y="486"/><rect fill="#66FF98" height="5" style="stroke: #333333; stroke-width: 1.0;" width="10" x="371.5" y="491"/><rect fill="#66FF98" height="5" style="stroke: #333333; stroke-width: 1.0;" width="10" x="371.5" y="529.6"/><text fill="#000000" font-family="Fira Sans" font-size="14" font-style="italic" lengthAdjust="spacingAndGlyphs" textLength="36" x="416" y="509.09">«Vrc»</text><text fill="#000000" font-family="Fira Sans" font-size="14" lengthAdjust="spacingAndGlyphs" textLength="95" x="386.5" y="525.89">PipelineLayout</text><!--MD5=[525b145ed559d8349860a43fb55391e9]
entity DescriptorPool--><rect fill="#66FF98" filter="url(#f15gphlcyfm1l5)" height="53.6" style="stroke: #333333; stroke-width: 1.0;" width="114" x="544" y="355"/><rect fill="#66FF98" height="5" style="stroke: #333333; stroke-width: 1.0;" width="10" x="539" y="360"/><rect fill="#66FF98" height="5" style="stroke: #333333; stroke-width: 1.0;" width="10" x="539" y="398.6"/><text fill="#000000" font-family="Fira Sans" font-size="14" font-style="italic" lengthAdjust="spacingAndGlyphs" textLength="36" x="583" y="378.09">«Vrc»</text><text fill="#000000" font-family="Fira Sans" font-size="14" lengthAdjust="spacingAndGlyphs" textLength="94" x="554" y="394.89">DescriptorPool</text><!--MD5=[9e0743f2801aced260ae37367b66ae02]
entity DescriptorSet--><rect fill="#FF6680" filter="url(#f15gphlcyfm1l5)" height="53.6" style="stroke: #333333; stroke-width: 1.0;" width="107" x="535.5" y="486"/><rect fill="#FF6680" height="5" style="stroke: #333333; stroke-width: 1.0;" width="10" x="530.5" y="491"/><rect fill="#FF6680" height="5" style="stroke: #333333; stroke-width: 1.0;" width="10" x="530.5" y="529.6"/><text fill="#000000" font-family="Fira Sans" font-size="14" font-style="italic" lengthAdjust="spacingAndGlyphs" textLength="36" x="571" y="509.09">«Vrc»</text><text fill="#000000" font-family="Fira Sans" font-size="14" lengthAdjust="spacingAndGlyphs" textLength="87" x="545.5" y="525.89">DescriptorSet</text><!--MD5=[1fb0ef48e8900ffbbad7e616a7fe040d]
entity Semaphore--><rect fill="#66FF98" filter="url(#f15gphlcyfm1l5)" height="53.6" style="stroke: #333333; stroke-width: 1.0;" width="93" x="578.5" y="240"/><rect fill="#66FF98" height="5" style="stroke: #333333; stroke-width: 1.0;" width="10" x="573.5" y="245"/><rect fill="#66FF98" height="5" style="stroke: #333333; stroke-width: 1.0;" width="10" x="573.5" y="283.6"/><text fill="#000000" font-family="Fira Sans" font-size="14" font-style="italic" lengthAdjust="spacingAndGlyphs" textLength="36" x="607" y="263.09">«Vrc»</text><text fill="#000000" font-family="Fira Sans" font-size="14" lengthAdjust="spacingAndGlyphs" textLength="73" x="588.5" y="279.89">Semaphore</text><!--MD5=[6127d90547417416cc3e17b601189e55]
entity Fence--><rect fill="#66FF98" filter="url(#f15gphlcyfm1l5)" height="53.6" style="stroke: #333333; stroke-width: 1.0;" width="58" x="485" y="240"/><rect fill="#66FF98" height="5" style="stroke: #333333; stroke-width: 1.0;" width="10" x="480" y="245"/><rect fill="#66FF98" height="5" style="stroke: #333333; stroke-width: 1.0;" width="10" x="480" y="283.6"/><text fill="#000000" font-family="Fira Sans" font-size="14" font-style="italic" lengthAdjust="spacingAndGlyphs" textLength="36" x="496" y="263.09">«Vrc»</text><text fill="#000000" font-family="Fira Sans" font-size="14" lengthAdjust="spacingAndGlyphs" textLength="38" x="495" y="279.89">Fence</text><!--MD5=[178d138ca418f22dbf706354932801c4]
reverse link Instance to PhysicalDevice--><path d="M387.62,68.83 C390.95,87.45 395.06,110.39 397.84,125.89 " fill="none" id="Instance&lt;-PhysicalDevice" style="stroke: #000000; stroke-width: 1.0;"/><polygon fill="#000000" points="386.7,63.7,384.3329,73.2602,387.573,68.6232,392.21,71.8633,386.7,63.7" style="stroke: #000000; stroke-width: 1.0;"/><!--MD5=[f2ba400cd7de414d9a9741dfbead0412]
reverse link Instance to Surface--><path d="M347.01,66.94 C324.5,85.88 295.99,109.86 276.93,125.89 " fill="none" id="Instance&lt;-Surface" style="stroke: #000000; stroke-width: 1.0;"/><polygon fill="#000000" points="350.85,63.7,341.3852,66.4234,347.0206,66.915,346.5291,72.5504,350.85,63.7" style="stroke: #000000; stroke-width: 1.0;"/><!--MD5=[3e0807e64cb1f9217d9bd62b2a7fecf2]
reverse link Window to Surface--><path d="M256,60.07 C256,79.76 256,107.93 256,125.97 " fill="none" id="Window&lt;-Surface" style="stroke: #000000; stroke-width: 1.0;"/><polygon fill="#000000" points="256,55,252,64,256,60,260,64,256,55" style="stroke: #000000; stroke-width: 1.0;"/><!--MD5=[5244d0020466267193e1ddb4dd69dca4]
reverse link PhysicalDevice to Device--><path d="M404.21,168.22 C407.07,188.5 411.26,218.22 414.27,239.56 " fill="none" id="PhysicalDevice&lt;-Device" style="stroke: #000000; stroke-width: 1.0;"/><polygon fill="#000000" points="403.47,163.02,400.7715,172.492,404.1711,167.9706,408.6925,171.3702,403.47,163.02" style="stroke: #000000; stroke-width: 1.0;"/><!--MD5=[23f64212de97a3cd89d252a40558ec97]
reverse link Surface to Swapchain--><path d="M238.39,166.94 C221.71,187.24 196.63,217.76 178.72,239.56 " fill="none" id="Surface&lt;-Swapchain" style="stroke: #000000; stroke-width: 1.0;"/><polygon fill="#000000" points="241.6,163.02,232.7846,167.412,238.416,166.8751,238.9528,172.5064,241.6,163.02" style="stroke: #000000; stroke-width: 1.0;"/><text fill="#000000" font-family="Fira Sans" font-size="13" lengthAdjust="spacingAndGlyphs" textLength="32" x="217" y="206.155">«Vrc»</text><!--MD5=[836376d7c55fb2cb32bc2405f03f9175]
reverse link Device to Queue--><path d="M441.01,235.73 C452.68,222.51 468.08,208.56 485.5,201.5 C562.11,170.44 595.01,170.15 671.5,201.5 C690.54,209.3 707.06,225.48 718.87,239.81 " fill="none" id="Device&lt;-Queue" style="stroke: #000000; stroke-width: 1.0;"/><polygon fill="#000000" points="437.51,239.8,446.412,235.5864,440.771,236.0098,440.3477,230.3688,437.51,239.8" style="stroke: #000000; stroke-width: 1.0;"/><!--MD5=[b7d130e6921a3f709b353c7e82ef4519]
link Swapchain to Device--><path d="M180.93,239.71 C195.39,225.35 215.12,209.17 236.5,201.5 C284.61,184.23 304.21,182.12 351.5,201.5 C368.76,208.57 383.94,222.52 395.42,235.74 " fill="none" id="Swapchain-&gt;Device" style="stroke: #000000; stroke-width: 1.0;"/><polygon fill="#000000" points="398.87,239.81,396.1085,230.3562,395.6396,235.9936,390.0023,235.5248,398.87,239.81" style="stroke: #000000; stroke-width: 1.0;"/><!--MD5=[8dcd14a4fc26f7f563640c609deb838b]
link DeviceMemory to Device--><path d="M351.16,267 C361.16,267 371.17,267 381.17,267 " fill="none" id="DeviceMemory-&gt;Device" style="stroke: #000000; stroke-width: 1.0;"/><polygon fill="#000000" points="386.41,267,377.41,263,381.41,267,377.41,271,386.41,267" style="stroke: #000000; stroke-width: 1.0;"/><!--MD5=[5d2fc20e973026d3d70a36b451111cd3]
reverse link Device to Image--><path d="M381.79,287.36 C377.49,289.61 373.15,291.87 369,294 C314.71,321.86 300.04,326.67 246,355 C240.38,357.94 234.44,361.16 228.73,364.29 " fill="none" id="Device&lt;-Image" style="stroke: #000000; stroke-width: 1.0;"/><polygon fill="#000000" points="386.44,284.91,376.6125,285.5581,382.0145,287.237,380.3356,292.639,386.44,284.91" style="stroke: #000000; stroke-width: 1.0;"/><!--MD5=[7ed3f5b949e2f9f39ea6c581de42e9cd]
reverse link Device to Buffer--><path d="M385.41,297.7 C365.91,315.47 341.35,337.85 322.6,354.93 " fill="none" id="Device&lt;-Buffer" style="stroke: #000000; stroke-width: 1.0;"/><polygon fill="#000000" points="389.24,294.21,379.8869,297.2953,385.5371,297.5698,385.2626,303.22,389.24,294.21" style="stroke: #000000; stroke-width: 1.0;"/><!--MD5=[f6bcffb38d475edb517ffdcb614f3bef]
reverse link Device to CommandPool--><path d="M454.14,287.83 C458.74,290.05 463.44,292.17 468,294 C557.38,329.95 584.36,325.27 676,355 C681.5,356.79 687.22,358.7 692.91,360.66 " fill="none" id="Device&lt;-CommandPool" style="stroke: #000000; stroke-width: 1.0;"/><polygon fill="#000000" points="449.57,285.59,455.8986,293.1364,454.0619,287.7861,459.4123,285.9494,449.57,285.59" style="stroke: #000000; stroke-width: 1.0;"/><!--MD5=[e0ad2de0215056282daeafd13a4afdde]
reverse link Device to RenderPass--><path d="M454.16,288.44 C458.73,290.53 463.41,292.45 468,294 C619.72,345.09 668.51,313.03 823,355 C829.92,356.88 837.11,359.18 844.13,361.63 " fill="none" id="Device&lt;-RenderPass" style="stroke: #000000; stroke-width: 1.0;"/><polygon fill="#000000" points="449.63,286.3,456.0452,293.773,454.1469,288.4441,459.4758,286.5459,449.63,286.3" style="stroke: #000000; stroke-width: 1.0;"/><!--MD5=[1d8ab4b6eb246067a2f851c4a30eda2c]
reverse link Device to DescriptorSetLayout--><path d="M422.46,299.49 C424.93,316.96 427.97,338.42 430.31,354.93 " fill="none" id="Device&lt;-DescriptorSetLayout" style="stroke: #000000; stroke-width: 1.0;"/><polygon fill="#000000" points="421.71,294.21,419.0115,303.682,422.4111,299.1606,426.9325,302.5602,421.71,294.21" style="stroke: #000000; stroke-width: 1.0;"/><!--MD5=[c683be054c18037a04d3c894258f63c1]
reverse link Device to DescriptorPool--><path d="M454.22,290.37 C484.33,308.96 527.21,335.43 558.85,354.97 " fill="none" id="Device&lt;-DescriptorPool" style="stroke: #000000; stroke-width: 1.0;"/><polygon fill="#000000" points="449.88,287.68,455.4364,295.8118,454.1344,290.3069,459.6393,289.0048,449.88,287.68" style="stroke: #000000; stroke-width: 1.0;"/><!--MD5=[a6617f030d72c66593096a7c7dae5bb8]
reverse link Device to Semaphore--><path d="M441.01,235.73 C452.68,222.51 468.08,208.56 485.5,201.5 C509.39,191.81 519.18,192.94 543.5,201.5 C565.25,209.16 585.47,225.34 600.34,239.7 " fill="none" id="Device&lt;-Semaphore" style="stroke: #000000; stroke-width: 1.0;"/><polygon fill="#000000" points="437.51,239.8,446.412,235.5864,440.771,236.0098,440.3477,230.3688,437.51,239.8" style="stroke: #000000; stroke-width: 1.0;"/><!--MD5=[53e1f28dac411f1d6c7512e37e08761c]
reverse link Device to Fence--><path d="M455.08,267 C465.03,267 474.99,267 484.94,267 " fill="none" id="Device&lt;-Fence" style="stroke: #000000; stroke-width: 1.0;"/><polygon fill="#000000" points="449.88,267,458.8914,270.9743,454.88,266.9857,458.8685,262.9743,449.88,267" style="stroke: #000000; stroke-width: 1.0;"/><!--MD5=[dfa72a60997d7779d3371d7381ce0441]
reverse link Swapchain to SwapchainImage--><path d="M133.45,298.59 C119.88,316.22 103,338.13 90.07,354.93 " fill="none" id="Swapchain&lt;-SwapchainImage" style="stroke: #000000; stroke-width: 1.0;"/><polygon fill="#000000" points="136.82,294.21,128.1605,298.9018,133.7701,298.1721,134.4998,303.7817,136.82,294.21" style="stroke: #000000; stroke-width: 1.0;"/><!--MD5=[5bc88fbc58c7663c0a64956f6397e8b3]
link DeviceMemory to Image--><path d="M266.04,285.59 C252,295.51 235.56,308.94 224,324 C218.06,331.74 213.2,341.11 209.4,350 " fill="none" id="DeviceMemory-&gt;Image" style="stroke: #000000; stroke-width: 1.0; stroke-dasharray: 7.0,7.0;"/><polygon fill="#000000" points="207.39,354.87,214.5155,348.0709,209.2937,350.2466,207.118,345.0249,207.39,354.87" style="stroke: #000000; stroke-width: 1.0;"/><!--MD5=[e179ef9d6e9b3ede8436d2f0b381d8ca]
link DeviceMemory to Buffer--><path d="M294,285.66 C294,302.71 294,328.91 294,349.53 " fill="none" id="DeviceMemory-&gt;Buffer" style="stroke: #000000; stroke-width: 1.0; stroke-dasharray: 7.0,7.0;"/><polygon fill="#000000" points="294,354.65,298,345.65,294,349.65,290,345.65,294,354.65" style="stroke: #000000; stroke-width: 1.0;"/><!--MD5=[0249f1fc86a30a4b7a7dc57462ceee3a]
reverse link SwapchainImage to Image--><path d="M139.47,382 C149.45,382 159.43,382 169.41,382 " fill="none" id="SwapchainImage&lt;-Image" style="stroke: #000000; stroke-width: 1.0; stroke-dasharray: 7.0,7.0;"/><polygon fill="#000000" points="134.25,382,143.25,386,139.25,382,143.25,378,134.25,382" style="stroke: #000000; stroke-width: 1.0;"/><!--MD5=[7edb7ac24b13a7ee42ee0a9c329f1ffc]
reverse link Image to ImageView--><path d="M191.98,414.24 C187.04,436.19 180.52,465.22 175.86,485.93 " fill="none" id="Image&lt;-ImageView" style="stroke: #000000; stroke-width: 1.0;"/><polygon fill="#000000" points="193.13,409.11,187.2459,417.0079,192.0287,413.9872,195.0494,418.77,193.13,409.11" style="stroke: #000000; stroke-width: 1.0;"/><!--MD5=[9e5a877cae309ef4a8edae84f5d290eb]
reverse link Buffer to BufferView--><path d="M294.24,414.24 C294.41,436.19 294.64,465.22 294.8,485.93 " fill="none" id="Buffer&lt;-BufferView" style="stroke: #000000; stroke-width: 1.0;"/><polygon fill="#000000" points="294.2,409.11,290.2773,418.144,294.2429,414.1098,298.277,418.0754,294.2,409.11" style="stroke: #000000; stroke-width: 1.0;"/><!--MD5=[a98ba249a758eccde728ad10bb3a8e03]
reverse link CommandPool to CommandBuffer--><path d="M748.52,414.24 C748.18,436.19 747.73,465.22 747.4,485.93 " fill="none" id="CommandPool&lt;-CommandBuffer" style="stroke: #000000; stroke-width: 1.0;"/><polygon fill="#000000" points="748.6,409.11,744.4718,418.0519,748.5286,414.1095,752.471,418.1662,748.6,409.11" style="stroke: #000000; stroke-width: 1.0;"/><!--MD5=[a7febcd2bed0c22eca4c8729479453ee]
reverse link RenderPass to FrameBuffer--><path d="M892.48,414.24 C892.82,436.19 893.27,465.22 893.6,485.93 " fill="none" id="RenderPass&lt;-FrameBuffer" style="stroke: #000000; stroke-width: 1.0; stroke-dasharray: 7.0,7.0;"/><polygon fill="#000000" points="892.4,409.11,888.529,418.1662,892.4714,414.1095,896.5282,418.0519,892.4,409.11" style="stroke: #000000; stroke-width: 1.0;"/><!--MD5=[13b699461f32b51a6848d9a573756111]
reverse link DescriptorSetLayout to DescriptorSet--><path d="M469.22,412.31 C495.85,434.47 532.06,464.61 557.68,485.93 " fill="none" id="DescriptorSetLayout&lt;-DescriptorSet" style="stroke: #000000; stroke-width: 1.0; stroke-dasharray: 7.0,7.0;"/><polygon fill="#000000" points="465.37,409.11,469.7265,417.943,469.2123,412.3095,474.8457,411.7953,465.37,409.11" style="stroke: #000000; stroke-width: 1.0;"/><text fill="#000000" font-family="Fira Sans" font-size="13" lengthAdjust="spacingAndGlyphs" textLength="35" x="521" y="452.155">Copy?</text><!--MD5=[8f0c79ef6bb73fab9785932495789586]
reverse link DescriptorSetLayout to PipelineLayout--><path d="M434,414.24 C434,436.19 434,465.22 434,485.93 " fill="none" id="DescriptorSetLayout&lt;-PipelineLayout" style="stroke: #000000; stroke-width: 1.0;"/><polygon fill="#000000" points="434,409.11,430,418.11,434,414.11,438,418.11,434,409.11" style="stroke: #000000; stroke-width: 1.0;"/><!--MD5=[7e0dc7a75d00bc06b584df322f2c74b4]
reverse link PipelineLayout to ComputePipeline--><path d="M414.67,544.41 C400.65,566.46 381.9,595.96 368.57,616.93 " fill="none" id="PipelineLayout&lt;-ComputePipeline" style="stroke: #000000; stroke-width: 1.0; stroke-dasharray: 7.0,7.0;"/><polygon fill="#000000" points="417.41,540.11,409.2131,545.5699,414.733,544.333,415.9699,549.853,417.41,540.11" style="stroke: #000000; stroke-width: 1.0;"/><text fill="#000000" font-family="Fira Sans" font-size="13" lengthAdjust="spacingAndGlyphs" textLength="35" x="398" y="583.155">Copy?</text><!--MD5=[27cc0bccccfed3058d66055fcc0a1ef1]
reverse link PipelineLayout to GraphicsPipeline--><path d="M453.33,544.41 C467.35,566.46 486.1,595.96 499.43,616.93 " fill="none" id="PipelineLayout&lt;-GraphicsPipeline" style="stroke: #000000; stroke-width: 1.0; stroke-dasharray: 7.0,7.0;"/><polygon fill="#000000" points="450.59,540.11,452.0301,549.853,453.267,544.333,458.7869,545.5699,450.59,540.11" style="stroke: #000000; stroke-width: 1.0;"/><text fill="#000000" font-family="Fira Sans" font-size="13" lengthAdjust="spacingAndGlyphs" textLength="35" x="480" y="583.155">Copy?</text><!--MD5=[a938b21e95382d85ef65afae3004fc90]
reverse link DescriptorPool to DescriptorSet--><path d="M598.09,414.24 C596.05,436.19 593.35,465.22 591.42,485.93 " fill="none" id="DescriptorPool&lt;-DescriptorSet" style="stroke: #000000; stroke-width: 1.0;"/><polygon fill="#000000" points="598.57,409.11,593.7382,417.6922,598.098,414.0877,601.7025,418.4474,598.57,409.11" style="stroke: #000000; stroke-width: 1.0;"/><!--MD5=[627f772c88ec50522f3acec397b2a8c2]
@startuml object_dependency_graph

skinparam {
	defaultFontName Fira Sans

	ArrowColor #black
	ComponentBorderColor #333
	ComponentBorderThickness 1
}

note left of [Window]
	<color 66FF98>Green</color> = done
	<color 66CDFF>Blue</color> = in-progress
	<color FF6680>Red</color> = planned
end note

component [Instance] <<Vrc>> #66FF98
component [Window] #66FF98

component [PhysicalDevice] #66FF98
component [Surface] #66FF98

component [Device] <<Vrc>> #66FF98

component [Queue] <<Vrc>> #66FF98
component [Swapchain] <<Vrc>> #66FF98
component [SwapchainImage] <<Vrc>> #66FF98

component [DeviceMemory] #66FF98

component [Image] <<Vrc>> #66FF98
component [Buffer] <<Vrc>> #66FF98

component [ImageView] <<Vrc>> #66FF98
component [BufferView] <<Vrc>> #66FF98

component [CommandPool] <<Vrc>> #66FF98
component [CommandBuffer] <<Vrc>> #66CDFF

component [RenderPass] <<Vrc>> #FF6680
component [FrameBuffer] <<Vrc>> #FF6680
component [ComputePipeline] <<Vrc>> #FF6680
component [GraphicsPipeline] <<Vrc>> #FF6680

component [DescriptorSetLayout] <<Vrc>> #66FF98
component [PipelineLayout] <<Vrc>> #66FF98

component [DescriptorPool] <<Vrc>> #66FF98
component [DescriptorSet] <<Vrc>> #FF6680

component [Semaphore] <<Vrc>> #66FF98
component [Fence] <<Vrc>> #66FF98

[Instance] <- - [PhysicalDevice]
[Instance] <- - [Surface]

[Window] <- - [Surface]
[PhysicalDevice] <- - [Device]
[Surface] <- - [Swapchain] : <<Vrc>>

[Device] <- [Queue]
[Swapchain] -> [Device]
[DeviceMemory] -> [Device]
[Device] <- - [Image]
[Device] <- - [Buffer]
[Device] <- - [CommandPool]
[Device] <- - [RenderPass]
[Device] <- - [DescriptorSetLayout]
[Device] <- - [DescriptorPool]
[Device] <- [Semaphore]
[Device] <- [Fence]

[Swapchain] <- - [SwapchainImage]

[DeviceMemory] ..> [Image]
[DeviceMemory] ..> [Buffer]

[SwapchainImage] <. [Image]
[Image] <- - [ImageView]
[Buffer] <- - [BufferView]

[CommandPool] <- - [CommandBuffer]

[RenderPass] <.. [FrameBuffer]
[DescriptorSetLayout] <.. [DescriptorSet] : Copy?
[DescriptorSetLayout] <- - [PipelineLayout]
[PipelineLayout] <.. [ComputePipeline] : Copy?
[PipelineLayout] <.. [GraphicsPipeline] : Copy?
[DescriptorPool] <- - [DescriptorSet]

@enduml

PlantUML version 1.2020.05(Thu Mar 19 22:17:32 CET 2020)
(MIT source distribution)
Java Runtime: OpenJDK Runtime Environment
JVM: OpenJDK 64-Bit Server VM
Java Version: 13.0.1+9
Operating System: Mac OS X
Default Encoding: UTF-8
Language: en
Country: CZ
--></g></svg>