<?xml version="1.0" encoding="UTF-8" standalone="no"?><svg xmlns="http://www.w3.org/2000/svg" xmlns:xlink="http://www.w3.org/1999/xlink" contentScriptType="application/ecmascript" contentStyleType="text/css" height="646px" preserveAspectRatio="none" style="width:1061px;height:646px;" version="1.1" viewBox="0 0 1061 646" width="1061px" zoomAndPan="magnify"><defs><filter height="300%" id="f1ugrgaq6p53dk" width="300%" x="-1" y="-1"><feGaussianBlur result="blurOut" stdDeviation="2.0"/><feColorMatrix in="blurOut" result="blurOut2" type="matrix" values="0 0 0 0 0 0 0 0 0 0 0 0 0 0 0 0 0 0 .4 0"/><feOffset dx="4.0" dy="4.0" in="blurOut2" result="blurOut3"/><feBlend in="SourceGraphic" in2="blurOut3" mode="normal"/></filter></defs><g><!--MD5=[77a0c14de6685fa065b9b4e019b7f347]
entity Instance--><rect fill="#66FF98" filter="url(#f1ugrgaq6p53dk)" height="53.6" style="stroke: #333333; stroke-width: 1.0;" width="75" x="408.5" y="8"/><rect fill="#66FF98" height="5" style="stroke: #333333; stroke-width: 1.0;" width="10" x="403.5" y="13"/><rect fill="#66FF98" height="5" style="stroke: #333333; stroke-width: 1.0;" width="10" x="403.5" y="51.6"/><text fill="#000000" font-family="Fira Sans" font-size="14" font-style="italic" lengthAdjust="spacingAndGlyphs" textLength="36" x="428" y="31.09">«Vrc»</text><text fill="#000000" font-family="Fira Sans" font-size="14" lengthAdjust="spacingAndGlyphs" textLength="55" x="418.5" y="47.89">Instance</text><!--MD5=[8d6925f44e0e1541670b54b5f2c3eb41]
entity Window--><rect fill="#66FF98" filter="url(#f1ugrgaq6p53dk)" height="36.8" style="stroke: #333333; stroke-width: 1.0;" width="70" x="293" y="16.5"/><rect fill="#66FF98" height="5" style="stroke: #333333; stroke-width: 1.0;" width="10" x="288" y="21.5"/><rect fill="#66FF98" height="5" style="stroke: #333333; stroke-width: 1.0;" width="10" x="288" y="43.3"/><text fill="#000000" font-family="Fira Sans" font-size="14" lengthAdjust="spacingAndGlyphs" textLength="50" x="303" y="39.59">Window</text><!--MD5=[5789a701af2564c361c8c4b0bb67bc5e]
entity PhysicalDevice--><rect fill="#66FF98" filter="url(#f1ugrgaq6p53dk)" height="36.8" style="stroke: #333333; stroke-width: 1.0;" width="116" x="415" y="123"/><rect fill="#66FF98" height="5" style="stroke: #333333; stroke-width: 1.0;" width="10" x="410" y="128"/><rect fill="#66FF98" height="5" style="stroke: #333333; stroke-width: 1.0;" width="10" x="410" y="149.8"/><text fill="#000000" font-family="Fira Sans" font-size="14" lengthAdjust="spacingAndGlyphs" textLength="96" x="425" y="146.09">PhysicalDevice</text><!--MD5=[d5b65137a7b1bf40136b14d6cc3c273c]
entity Surface--><rect fill="#66FF98" filter="url(#f1ugrgaq6p53dk)" height="36.8" style="stroke: #333333; stroke-width: 1.0;" width="69" x="293.5" y="123"/><rect fill="#66FF98" height="5" style="stroke: #333333; stroke-width: 1.0;" width="10" x="288.5" y="128"/><rect fill="#66FF98" height="5" style="stroke: #333333; stroke-width: 1.0;" width="10" x="288.5" y="149.8"/><text fill="#000000" font-family="Fira Sans" font-size="14" lengthAdjust="spacingAndGlyphs" textLength="49" x="303.5" y="146.09">Surface</text><!--MD5=[1481f43b514325438f831f19ea58e9e2]
entity Device--><rect fill="#66FF98" filter="url(#f1ugrgaq6p53dk)" height="53.6" style="stroke: #333333; stroke-width: 1.0;" width="63" x="458.5" y="237"/><rect fill="#66FF98" height="5" style="stroke: #333333; stroke-width: 1.0;" width="10" x="453.5" y="242"/><rect fill="#66FF98" height="5" style="stroke: #333333; stroke-width: 1.0;" width="10" x="453.5" y="280.6"/><text fill="#000000" font-family="Fira Sans" font-size="14" font-style="italic" lengthAdjust="spacingAndGlyphs" textLength="36" x="472" y="260.09">«Vrc»</text><text fill="#000000" font-family="Fira Sans" font-size="14" lengthAdjust="spacingAndGlyphs" textLength="43" x="468.5" y="276.89">Device</text><!--MD5=[9762e67b79b719797c568dcdd43c32f7]
entity Queue--><rect fill="#66FF98" filter="url(#f1ugrgaq6p53dk)" height="53.6" style="stroke: #333333; stroke-width: 1.0;" width="62" x="779" y="237"/><rect fill="#66FF98" height="5" style="stroke: #333333; stroke-width: 1.0;" width="10" x="774" y="242"/><rect fill="#66FF98" height="5" style="stroke: #333333; stroke-width: 1.0;" width="10" x="774" y="280.6"/><text fill="#000000" font-family="Fira Sans" font-size="14" font-style="italic" lengthAdjust="spacingAndGlyphs" textLength="36" x="792" y="260.09">«Vrc»</text><text fill="#000000" font-family="Fira Sans" font-size="14" lengthAdjust="spacingAndGlyphs" textLength="42" x="789" y="276.89">Queue</text><!--MD5=[7a22288d6da5f69922be8ffcf0fcbe4e]
entity Swapchain--><rect fill="#66FF98" filter="url(#f1ugrgaq6p53dk)" height="53.6" style="stroke: #333333; stroke-width: 1.0;" width="89" x="184.5" y="237"/><rect fill="#66FF98" height="5" style="stroke: #333333; stroke-width: 1.0;" width="10" x="179.5" y="242"/><rect fill="#66FF98" height="5" style="stroke: #333333; stroke-width: 1.0;" width="10" x="179.5" y="280.6"/><text fill="#000000" font-family="Fira Sans" font-size="14" font-style="italic" lengthAdjust="spacingAndGlyphs" textLength="36" x="211" y="260.09">«Vrc»</text><text fill="#000000" font-family="Fira Sans" font-size="14" lengthAdjust="spacingAndGlyphs" textLength="69" x="194.5" y="276.89">Swapchain</text><!--MD5=[53b911199a3644c85b37bbf4df7dfa26]
entity SwapchainImage--><rect fill="#66FF98" filter="url(#f1ugrgaq6p53dk)" height="53.6" style="stroke: #333333; stroke-width: 1.0;" width="128" x="6" y="352"/><rect fill="#66FF98" height="5" style="stroke: #333333; stroke-width: 1.0;" width="10" x="1" y="357"/><rect fill="#66FF98" height="5" style="stroke: #333333; stroke-width: 1.0;" width="10" x="1" y="395.6"/><text fill="#000000" font-family="Fira Sans" font-size="14" font-style="italic" lengthAdjust="spacingAndGlyphs" textLength="36" x="52" y="375.09">«Vrc»</text><text fill="#000000" font-family="Fira Sans" font-size="14" lengthAdjust="spacingAndGlyphs" textLength="108" x="16" y="391.89">SwapchainImage</text><!--MD5=[360a9fe16172005fda0bb8dc90e86e09]
entity DeviceMemory--><rect fill="#66FF98" filter="url(#f1ugrgaq6p53dk)" height="36.8" style="stroke: #333333; stroke-width: 1.0;" width="114" x="309" y="245.5"/><rect fill="#66FF98" height="5" style="stroke: #333333; stroke-width: 1.0;" width="10" x="304" y="250.5"/><rect fill="#66FF98" height="5" style="stroke: #333333; stroke-width: 1.0;" width="10" x="304" y="272.3"/><text fill="#000000" font-family="Fira Sans" font-size="14" lengthAdjust="spacingAndGlyphs" textLength="94" x="319" y="268.59">DeviceMemory</text><!--MD5=[f474ca078bd78d29e43d9c9138696efb]
entity Image--><rect fill="#66FF98" filter="url(#f1ugrgaq6p53dk)" height="53.6" style="stroke: #333333; stroke-width: 1.0;" width="59" x="394.5" y="352"/><rect fill="#66FF98" height="5" style="stroke: #333333; stroke-width: 1.0;" width="10" x="389.5" y="357"/><rect fill="#66FF98" height="5" style="stroke: #333333; stroke-width: 1.0;" width="10" x="389.5" y="395.6"/><text fill="#000000" font-family="Fira Sans" font-size="14" font-style="italic" lengthAdjust="spacingAndGlyphs" textLength="36" x="406" y="375.09">«Vrc»</text><text fill="#000000" font-family="Fira Sans" font-size="14" lengthAdjust="spacingAndGlyphs" textLength="39" x="404.5" y="391.89">Image</text><!--MD5=[ff74cdb9d7cee1f338d42fda4bfd5a89]
entity Buffer--><rect fill="#66FF98" filter="url(#f1ugrgaq6p53dk)" height="53.6" style="stroke: #333333; stroke-width: 1.0;" width="60" x="169" y="352"/><rect fill="#66FF98" height="5" style="stroke: #333333; stroke-width: 1.0;" width="10" x="164" y="357"/><rect fill="#66FF98" height="5" style="stroke: #333333; stroke-width: 1.0;" width="10" x="164" y="395.6"/><text fill="#000000" font-family="Fira Sans" font-size="14" font-style="italic" lengthAdjust="spacingAndGlyphs" textLength="36" x="181" y="375.09">«Vrc»</text><text fill="#000000" font-family="Fira Sans" font-size="14" lengthAdjust="spacingAndGlyphs" textLength="40" x="179" y="391.89">Buffer</text><!--MD5=[996a4ef807561e4ac30c80deecd9e11a]
entity Sampler--><rect fill="#66FF98" filter="url(#f1ugrgaq6p53dk)" height="53.6" style="stroke: #333333; stroke-width: 1.0;" width="73" x="823.5" y="352"/><rect fill="#66FF98" height="5" style="stroke: #333333; stroke-width: 1.0;" width="10" x="818.5" y="357"/><rect fill="#66FF98" height="5" style="stroke: #333333; stroke-width: 1.0;" width="10" x="818.5" y="395.6"/><text fill="#000000" font-family="Fira Sans" font-size="14" font-style="italic" lengthAdjust="spacingAndGlyphs" textLength="36" x="842" y="375.09">«Vrc»</text><text fill="#000000" font-family="Fira Sans" font-size="14" lengthAdjust="spacingAndGlyphs" textLength="53" x="833.5" y="391.89">Sampler</text><!--MD5=[1d6feb955f00a8743cca3180655ae592]
entity ImageView--><rect fill="#66FF98" filter="url(#f1ugrgaq6p53dk)" height="53.6" style="stroke: #333333; stroke-width: 1.0;" width="89" x="390.5" y="467"/><rect fill="#66FF98" height="5" style="stroke: #333333; stroke-width: 1.0;" width="10" x="385.5" y="472"/><rect fill="#66FF98" height="5" style="stroke: #333333; stroke-width: 1.0;" width="10" x="385.5" y="510.6"/><text fill="#000000" font-family="Fira Sans" font-size="14" font-style="italic" lengthAdjust="spacingAndGlyphs" textLength="36" x="417" y="490.09">«Vrc»</text><text fill="#000000" font-family="Fira Sans" font-size="14" lengthAdjust="spacingAndGlyphs" textLength="69" x="400.5" y="506.89">ImageView</text><!--MD5=[dfc4c350ab723b9a18f1debdf57a4051]
entity BufferView--><rect fill="#66FF98" filter="url(#f1ugrgaq6p53dk)" height="53.6" style="stroke: #333333; stroke-width: 1.0;" width="90" x="130" y="467"/><rect fill="#66FF98" height="5" style="stroke: #333333; stroke-width: 1.0;" width="10" x="125" y="472"/><rect fill="#66FF98" height="5" style="stroke: #333333; stroke-width: 1.0;" width="10" x="125" y="510.6"/><text fill="#000000" font-family="Fira Sans" font-size="14" font-style="italic" lengthAdjust="spacingAndGlyphs" textLength="36" x="157" y="490.09">«Vrc»</text><text fill="#000000" font-family="Fira Sans" font-size="14" lengthAdjust="spacingAndGlyphs" textLength="70" x="140" y="506.89">BufferView</text><!--MD5=[94b42f345d8efb9f3882644b7664390d]
entity CommandPool--><rect fill="#66FF98" filter="url(#f1ugrgaq6p53dk)" height="53.6" style="stroke: #333333; stroke-width: 1.0;" width="112" x="932" y="352"/><rect fill="#66FF98" height="5" style="stroke: #333333; stroke-width: 1.0;" width="10" x="927" y="357"/><rect fill="#66FF98" height="5" style="stroke: #333333; stroke-width: 1.0;" width="10" x="927" y="395.6"/><text fill="#000000" font-family="Fira Sans" font-size="14" font-style="italic" lengthAdjust="spacingAndGlyphs" textLength="36" x="970" y="375.09">«Vrc»</text><text fill="#000000" font-family="Fira Sans" font-size="14" lengthAdjust="spacingAndGlyphs" textLength="92" x="942" y="391.89">CommandPool</text><!--MD5=[ac29b704edc6d673d29ab010a0a75737]
entity CommandBuffer--><rect fill="#66CDFF" filter="url(#f1ugrgaq6p53dk)" height="53.6" style="stroke: #333333; stroke-width: 1.0;" width="124" x="926" y="467"/><rect fill="#66CDFF" height="5" style="stroke: #333333; stroke-width: 1.0;" width="10" x="921" y="472"/><rect fill="#66CDFF" height="5" style="stroke: #333333; stroke-width: 1.0;" width="10" x="921" y="510.6"/><text fill="#000000" font-family="Fira Sans" font-size="14" font-style="italic" lengthAdjust="spacingAndGlyphs" textLength="36" x="970" y="490.09">«Vrc»</text><text fill="#000000" font-family="Fira Sans" font-size="14" lengthAdjust="spacingAndGlyphs" textLength="104" x="936" y="506.89">CommandBuffer</text><!--MD5=[aaa86911056d77c0094bc9419cc48a1e]
entity RenderPass--><rect fill="#66FF98" filter="url(#f1ugrgaq6p53dk)" height="53.6" style="stroke: #333333; stroke-width: 1.0;" width="95" x="264.5" y="352"/><rect fill="#66FF98" height="5" style="stroke: #333333; stroke-width: 1.0;" width="10" x="259.5" y="357"/><rect fill="#66FF98" height="5" style="stroke: #333333; stroke-width: 1.0;" width="10" x="259.5" y="395.6"/><text fill="#000000" font-family="Fira Sans" font-size="14" font-style="italic" lengthAdjust="spacingAndGlyphs" textLength="36" x="294" y="375.09">«Vrc»</text><text fill="#000000" font-family="Fira Sans" font-size="14" lengthAdjust="spacingAndGlyphs" textLength="75" x="274.5" y="391.89">RenderPass</text><!--MD5=[90701dc8c13adb3d9edc282c27eb9529]
entity FrameBuffer--><rect fill="#66FF98" filter="url(#f1ugrgaq6p53dk)" height="53.6" style="stroke: #333333; stroke-width: 1.0;" width="100" x="255" y="467"/><rect fill="#66FF98" height="5" style="stroke: #333333; stroke-width: 1.0;" width="10" x="250" y="472"/><rect fill="#66FF98" height="5" style="stroke: #333333; stroke-width: 1.0;" width="10" x="250" y="510.6"/><text fill="#000000" font-family="Fira Sans" font-size="14" font-style="italic" lengthAdjust="spacingAndGlyphs" textLength="36" x="287" y="490.09">«Vrc»</text><text fill="#000000" font-family="Fira Sans" font-size="14" lengthAdjust="spacingAndGlyphs" textLength="80" x="265" y="506.89">FrameBuffer</text><!--MD5=[2547e0e8dfc9762fafe4ea6f3eb9cf06]
entity GraphicsPipeline--><rect fill="#66CDFF" filter="url(#f1ugrgaq6p53dk)" height="53.6" style="stroke: #333333; stroke-width: 1.0;" width="128" x="508" y="582"/><rect fill="#66CDFF" height="5" style="stroke: #333333; stroke-width: 1.0;" width="10" x="503" y="587"/><rect fill="#66CDFF" height="5" style="stroke: #333333; stroke-width: 1.0;" width="10" x="503" y="625.6"/><text fill="#000000" font-family="Fira Sans" font-size="14" font-style="italic" lengthAdjust="spacingAndGlyphs" textLength="36" x="554" y="605.09">«Vrc»</text><text fill="#000000" font-family="Fira Sans" font-size="14" lengthAdjust="spacingAndGlyphs" textLength="108" x="518" y="621.89">GraphicsPipeline</text><!--MD5=[b3cee5650c30f405e16a7ecef5202e47]
entity DescriptorSetLayout--><rect fill="#66FF98" filter="url(#f1ugrgaq6p53dk)" height="53.6" style="stroke: #333333; stroke-width: 1.0;" width="150" x="489" y="352"/><rect fill="#66FF98" height="5" style="stroke: #333333; stroke-width: 1.0;" width="10" x="484" y="357"/><rect fill="#66FF98" height="5" style="stroke: #333333; stroke-width: 1.0;" width="10" x="484" y="395.6"/><text fill="#000000" font-family="Fira Sans" font-size="14" font-style="italic" lengthAdjust="spacingAndGlyphs" textLength="36" x="546" y="375.09">«Vrc»</text><text fill="#000000" font-family="Fira Sans" font-size="14" lengthAdjust="spacingAndGlyphs" textLength="130" x="499" y="391.89">DescriptorSetLayout</text><!--MD5=[79872d1326fc3a5beee5b28ed20020ae]
entity PipelineLayout--><rect fill="#66FF98" filter="url(#f1ugrgaq6p53dk)" height="53.6" style="stroke: #333333; stroke-width: 1.0;" width="115" x="514.5" y="467"/><rect fill="#66FF98" height="5" style="stroke: #333333; stroke-width: 1.0;" width="10" x="509.5" y="472"/><rect fill="#66FF98" height="5" style="stroke: #333333; stroke-width: 1.0;" width="10" x="509.5" y="510.6"/><text fill="#000000" font-family="Fira Sans" font-size="14" font-style="italic" lengthAdjust="spacingAndGlyphs" textLength="36" x="554" y="490.09">«Vrc»</text><text fill="#000000" font-family="Fira Sans" font-size="14" lengthAdjust="spacingAndGlyphs" textLength="95" x="524.5" y="506.89">PipelineLayout</text><!--MD5=[525b145ed559d8349860a43fb55391e9]
entity DescriptorPool--><rect fill="#66FF98" filter="url(#f1ugrgaq6p53dk)" height="53.6" style="stroke: #333333; stroke-width: 1.0;" width="114" x="674" y="352"/><rect fill="#66FF98" height="5" style="stroke: #333333; stroke-width: 1.0;" width="10" x="669" y="357"/><rect fill="#66FF98" height="5" style="stroke: #333333; stroke-width: 1.0;" width="10" x="669" y="395.6"/><text fill="#000000" font-family="Fira Sans" font-size="14" font-style="italic" lengthAdjust="spacingAndGlyphs" textLength="36" x="713" y="375.09">«Vrc»</text><text fill="#000000" font-family="Fira Sans" font-size="14" lengthAdjust="spacingAndGlyphs" textLength="94" x="684" y="391.89">DescriptorPool</text><!--MD5=[9e0743f2801aced260ae37367b66ae02]
entity DescriptorSet--><rect fill="#66FF98" filter="url(#f1ugrgaq6p53dk)" height="53.6" style="stroke: #333333; stroke-width: 1.0;" width="107" x="668.5" y="467"/><rect fill="#66FF98" height="5" style="stroke: #333333; stroke-width: 1.0;" width="10" x="663.5" y="472"/><rect fill="#66FF98" height="5" style="stroke: #333333; stroke-width: 1.0;" width="10" x="663.5" y="510.6"/><text fill="#000000" font-family="Fira Sans" font-size="14" font-style="italic" lengthAdjust="spacingAndGlyphs" textLength="36" x="704" y="490.09">«Vrc»</text><text fill="#000000" font-family="Fira Sans" font-size="14" lengthAdjust="spacingAndGlyphs" textLength="87" x="678.5" y="506.89">DescriptorSet</text><!--MD5=[1fb0ef48e8900ffbbad7e616a7fe040d]
entity Semaphore--><rect fill="#66FF98" filter="url(#f1ugrgaq6p53dk)" height="53.6" style="stroke: #333333; stroke-width: 1.0;" width="93" x="650.5" y="237"/><rect fill="#66FF98" height="5" style="stroke: #333333; stroke-width: 1.0;" width="10" x="645.5" y="242"/><rect fill="#66FF98" height="5" style="stroke: #333333; stroke-width: 1.0;" width="10" x="645.5" y="280.6"/><text fill="#000000" font-family="Fira Sans" font-size="14" font-style="italic" lengthAdjust="spacingAndGlyphs" textLength="36" x="679" y="260.09">«Vrc»</text><text fill="#000000" font-family="Fira Sans" font-size="14" lengthAdjust="spacingAndGlyphs" textLength="73" x="660.5" y="276.89">Semaphore</text><!--MD5=[6127d90547417416cc3e17b601189e55]
entity Fence--><rect fill="#66FF98" filter="url(#f1ugrgaq6p53dk)" height="53.6" style="stroke: #333333; stroke-width: 1.0;" width="58" x="557" y="237"/><rect fill="#66FF98" height="5" style="stroke: #333333; stroke-width: 1.0;" width="10" x="552" y="242"/><rect fill="#66FF98" height="5" style="stroke: #333333; stroke-width: 1.0;" width="10" x="552" y="280.6"/><text fill="#000000" font-family="Fira Sans" font-size="14" font-style="italic" lengthAdjust="spacingAndGlyphs" textLength="36" x="568" y="260.09">«Vrc»</text><text fill="#000000" font-family="Fira Sans" font-size="14" lengthAdjust="spacingAndGlyphs" textLength="38" x="567" y="276.89">Fence</text><!--MD5=[178d138ca418f22dbf706354932801c4]
reverse link Instance to PhysicalDevice--><path d="M454.04,67.12 C458.75,85.35 464.53,107.7 468.46,122.91 " fill="none" id="Instance&lt;-PhysicalDevice" style="stroke: #000000; stroke-width: 1.0;"/><polygon fill="#000000" points="452.74,62.1,451.1297,71.8163,453.9963,66.9396,458.873,69.8062,452.74,62.1" style="stroke: #000000; stroke-width: 1.0;"/><!--MD5=[f2ba400cd7de414d9a9741dfbead0412]
reverse link Instance to Surface--><path d="M412.69,65.5 C391.79,84 365.55,107.24 347.86,122.91 " fill="none" id="Instance&lt;-Surface" style="stroke: #000000; stroke-width: 1.0;"/><polygon fill="#000000" points="416.53,62.1,407.1466,65.0919,412.7937,65.4227,412.4629,71.0699,416.53,62.1" style="stroke: #000000; stroke-width: 1.0;"/><!--MD5=[3e0807e64cb1f9217d9bd62b2a7fecf2]
reverse link Window to Surface--><path d="M328,58.92 C328,78.1 328,105.09 328,122.69 " fill="none" id="Window&lt;-Surface" style="stroke: #000000; stroke-width: 1.0;"/><polygon fill="#000000" points="328,53.73,324,62.73,328,58.73,332,62.73,328,53.73" style="stroke: #000000; stroke-width: 1.0;"/><!--MD5=[5244d0020466267193e1ddb4dd69dca4]
reverse link PhysicalDevice to Device--><path d="M476.21,165.22 C479.07,185.5 483.26,215.22 486.27,236.56 " fill="none" id="PhysicalDevice&lt;-Device" style="stroke: #000000; stroke-width: 1.0;"/><polygon fill="#000000" points="475.47,160.02,472.7715,169.492,476.1711,164.9706,480.6925,168.3702,475.47,160.02" style="stroke: #000000; stroke-width: 1.0;"/><!--MD5=[23f64212de97a3cd89d252a40558ec97]
reverse link Surface to Swapchain--><path d="M310.39,163.94 C293.71,184.24 268.63,214.76 250.72,236.56 " fill="none" id="Surface&lt;-Swapchain" style="stroke: #000000; stroke-width: 1.0;"/><polygon fill="#000000" points="313.6,160.02,304.7846,164.412,310.416,163.8751,310.9528,169.5064,313.6,160.02" style="stroke: #000000; stroke-width: 1.0;"/><text fill="#000000" font-family="Fira Sans" font-size="13" lengthAdjust="spacingAndGlyphs" textLength="32" x="289" y="203.155">«Vrc»</text><!--MD5=[836376d7c55fb2cb32bc2405f03f9175]
reverse link Device to Queue--><path d="M512.58,232.74 C524.06,219.52 539.24,205.57 556.5,198.5 C633.4,166.99 666.6,166.99 743.5,198.5 C762.54,206.3 779.06,222.48 790.87,236.81 " fill="none" id="Device&lt;-Queue" style="stroke: #000000; stroke-width: 1.0;"/><polygon fill="#000000" points="509.13,236.81,517.9977,232.5248,512.3604,232.9936,511.8915,227.3562,509.13,236.81" style="stroke: #000000; stroke-width: 1.0;"/><!--MD5=[b7d130e6921a3f709b353c7e82ef4519]
link Swapchain to Device--><path d="M252.93,236.71 C267.39,222.35 287.12,206.17 308.5,198.5 C356.19,181.39 375.55,179.46 422.5,198.5 C439.92,205.56 455.32,219.51 466.99,232.73 " fill="none" id="Swapchain-&gt;Device" style="stroke: #000000; stroke-width: 1.0;"/><polygon fill="#000000" points="470.49,236.8,467.6523,227.3688,467.229,233.0098,461.588,232.5864,470.49,236.8" style="stroke: #000000; stroke-width: 1.0;"/><!--MD5=[8dcd14a4fc26f7f563640c609deb838b]
link DeviceMemory to Device--><path d="M423.16,264 C433.16,264 443.17,264 453.17,264 " fill="none" id="DeviceMemory-&gt;Device" style="stroke: #000000; stroke-width: 1.0;"/><polygon fill="#000000" points="458.41,264,449.41,260,453.41,264,449.41,268,458.41,264" style="stroke: #000000; stroke-width: 1.0;"/><!--MD5=[5d2fc20e973026d3d70a36b451111cd3]
reverse link Device to Image--><path d="M472.13,295.59 C461.84,313.22 449.04,335.13 439.22,351.93 " fill="none" id="Device&lt;-Image" style="stroke: #000000; stroke-width: 1.0;"/><polygon fill="#000000" points="474.69,291.21,466.6882,296.9521,472.1618,295.5237,473.5901,300.9973,474.69,291.21" style="stroke: #000000; stroke-width: 1.0;"/><!--MD5=[7ed3f5b949e2f9f39ea6c581de42e9cd]
reverse link Device to Buffer--><path d="M453.82,284.74 C449.23,286.97 444.54,289.12 440,291 C356.89,325.44 329.81,316.86 247,352 C241.07,354.52 234.9,357.53 229.04,360.6 " fill="none" id="Device&lt;-Buffer" style="stroke: #000000; stroke-width: 1.0;"/><polygon fill="#000000" points="458.38,282.49,448.5391,282.8869,453.8965,284.7032,452.0803,290.0605,458.38,282.49" style="stroke: #000000; stroke-width: 1.0;"/><!--MD5=[7b8416ac739858399dd6984897e43142]
reverse link Device to Sampler--><path d="M526.17,285.54 C530.42,287.55 534.76,289.42 539,291 C653.08,333.45 691.11,311.79 806,352 C811.7,353.99 817.58,356.42 823.28,358.98 " fill="none" id="Device&lt;-Sampler" style="stroke: #000000; stroke-width: 1.0;"/><polygon fill="#000000" points="521.6,283.31,527.9385,290.8481,526.0948,285.5001,531.4428,283.6564,521.6,283.31" style="stroke: #000000; stroke-width: 1.0;"/><!--MD5=[f6bcffb38d475edb517ffdcb614f3bef]
reverse link Device to CommandPool--><path d="M526.27,285.9 C530.48,287.82 534.78,289.58 539,291 C619.02,317.92 832.19,331.15 914,352 C919.81,353.48 925.8,355.22 931.75,357.08 " fill="none" id="Device&lt;-CommandPool" style="stroke: #000000; stroke-width: 1.0;"/><polygon fill="#000000" points="521.75,283.75,528.1652,291.223,526.2669,285.8941,531.5958,283.9959,521.75,283.75" style="stroke: #000000; stroke-width: 1.0;"/><!--MD5=[e0ad2de0215056282daeafd13a4afdde]
reverse link Device to RenderPass--><path d="M453.61,288.1 C424.48,306.6 383.62,332.53 353.27,351.8 " fill="none" id="Device&lt;-RenderPass" style="stroke: #000000; stroke-width: 1.0;"/><polygon fill="#000000" points="458.18,285.2,448.4348,286.6252,453.9529,287.8705,452.7076,293.3886,458.18,285.2" style="stroke: #000000; stroke-width: 1.0;"/><!--MD5=[1d8ab4b6eb246067a2f851c4a30eda2c]
reverse link Device to DescriptorSetLayout--><path d="M510.03,295.59 C521.57,313.22 535.93,335.13 546.93,351.93 " fill="none" id="Device&lt;-DescriptorSetLayout" style="stroke: #000000; stroke-width: 1.0;"/><polygon fill="#000000" points="507.16,291.21,508.7472,300.9301,509.9005,295.3921,515.4385,296.5454,507.16,291.21" style="stroke: #000000; stroke-width: 1.0;"/><!--MD5=[c683be054c18037a04d3c894258f63c1]
reverse link Device to DescriptorPool--><path d="M526.33,284.6 C530.58,286.8 534.87,288.97 539,291 C583.83,313.03 635.44,336.3 673.86,353.23 " fill="none" id="Device&lt;-DescriptorPool" style="stroke: #000000; stroke-width: 1.0;"/><polygon fill="#000000" points="521.74,282.21,527.8639,289.9235,526.1714,284.5258,531.5691,282.8333,521.74,282.21" style="stroke: #000000; stroke-width: 1.0;"/><!--MD5=[a6617f030d72c66593096a7c7dae5bb8]
reverse link Device to Semaphore--><path d="M512.58,232.74 C524.06,219.52 539.24,205.57 556.5,198.5 C580.35,188.73 590.16,190.01 614.5,198.5 C636.43,206.15 656.91,222.33 671.97,236.69 " fill="none" id="Device&lt;-Semaphore" style="stroke: #000000; stroke-width: 1.0;"/><polygon fill="#000000" points="509.13,236.81,517.9977,232.5248,512.3604,232.9936,511.8915,227.3562,509.13,236.81" style="stroke: #000000; stroke-width: 1.0;"/><!--MD5=[53e1f28dac411f1d6c7512e37e08761c]
reverse link Device to Fence--><path d="M527.08,264 C537.03,264 546.99,264 556.94,264 " fill="none" id="Device&lt;-Fence" style="stroke: #000000; stroke-width: 1.0;"/><polygon fill="#000000" points="521.88,264,530.8914,267.9743,526.88,263.9857,530.8685,259.9743,521.88,264" style="stroke: #000000; stroke-width: 1.0;"/><!--MD5=[dfa72a60997d7779d3371d7381ce0441]
reverse link Swapchain to SwapchainImage--><path d="M187.84,294.26 C162.73,312.1 130.92,334.71 106.68,351.93 " fill="none" id="Swapchain&lt;-SwapchainImage" style="stroke: #000000; stroke-width: 1.0;"/><polygon fill="#000000" points="192.12,291.21,182.4688,293.1734,188.0475,294.1108,187.1101,299.6894,192.12,291.21" style="stroke: #000000; stroke-width: 1.0;"/><!--MD5=[5bc88fbc58c7663c0a64956f6397e8b3]
link DeviceMemory to Image--><path d="M375.06,282.66 C383.89,299.85 397.49,326.36 408.12,347.06 " fill="none" id="DeviceMemory-&gt;Image" style="stroke: #000000; stroke-width: 1.0; stroke-dasharray: 7.0,7.0;"/><polygon fill="#000000" points="410.47,351.65,409.9224,341.8164,408.1884,347.2009,402.8039,345.4669,410.47,351.65" style="stroke: #000000; stroke-width: 1.0;"/><!--MD5=[e179ef9d6e9b3ede8436d2f0b381d8ca]
link DeviceMemory to Buffer--><path d="M332.42,282.65 C313.36,293.09 289.33,306.98 269,321 C256.82,329.4 244.1,339.35 232.9,348.57 " fill="none" id="DeviceMemory-&gt;Buffer" style="stroke: #000000; stroke-width: 1.0; stroke-dasharray: 7.0,7.0;"/><polygon fill="#000000" points="228.85,351.94,238.3316,349.2755,232.6993,348.7489,233.2259,343.1167,228.85,351.94" style="stroke: #000000; stroke-width: 1.0;"/><!--MD5=[0249f1fc86a30a4b7a7dc57462ceee3a]
reverse link SwapchainImage to Image--><path d="M110.07,349.12 C127.15,338.16 147.88,327.08 168.5,321.5 C250.44,299.33 280.17,291.27 359.5,321.5 C375.76,327.7 390.53,340.08 401.82,351.78 " fill="none" id="SwapchainImage&lt;-Image" style="stroke: #000000; stroke-width: 1.0; stroke-dasharray: 7.0,7.0;"/><polygon fill="#000000" points="105.8,351.9,115.5239,350.3361,109.9886,349.1695,111.1551,343.6343,105.8,351.9" style="stroke: #000000; stroke-width: 1.0;"/><!--MD5=[7edb7ac24b13a7ee42ee0a9c329f1ffc]
reverse link Image to ImageView--><path d="M427.07,411.49 C428.77,428.96 430.85,450.42 432.46,466.93 " fill="none" id="Image&lt;-ImageView" style="stroke: #000000; stroke-width: 1.0;"/><polygon fill="#000000" points="426.55,406.21,423.415,415.5466,427.0207,411.1878,431.3795,414.7935,426.55,406.21" style="stroke: #000000; stroke-width: 1.0;"/><!--MD5=[9e5a877cae309ef4a8edae84f5d290eb]
reverse link Buffer to BufferView--><path d="M192.31,411.49 C188.6,428.96 184.04,450.42 180.54,466.93 " fill="none" id="Buffer&lt;-BufferView" style="stroke: #000000; stroke-width: 1.0;"/><polygon fill="#000000" points="193.43,406.21,187.6664,414.1963,192.4028,411.1034,195.4958,415.8398,193.43,406.21" style="stroke: #000000; stroke-width: 1.0;"/><!--MD5=[a98ba249a758eccde728ad10bb3a8e03]
reverse link CommandPool to CommandBuffer--><path d="M988,411.49 C988,428.96 988,450.42 988,466.93 " fill="none" id="CommandPool&lt;-CommandBuffer" style="stroke: #000000; stroke-width: 1.0;"/><polygon fill="#000000" points="988,406.21,984,415.21,988,411.21,992,415.21,988,406.21" style="stroke: #000000; stroke-width: 1.0;"/><!--MD5=[a7febcd2bed0c22eca4c8729479453ee]
reverse link RenderPass to FrameBuffer--><path d="M310.05,411.49 C308.97,428.96 307.64,450.42 306.61,466.93 " fill="none" id="RenderPass&lt;-FrameBuffer" style="stroke: #000000; stroke-width: 1.0; stroke-dasharray: 7.0,7.0;"/><polygon fill="#000000" points="310.38,406.21,305.8217,414.9405,310.0654,411.2001,313.8059,415.4438,310.38,406.21" style="stroke: #000000; stroke-width: 1.0;"/><!--MD5=[13b699461f32b51a6848d9a573756111]
reverse link DescriptorSetLayout to DescriptorSet--><path d="M604.91,409.26 C629.85,427.1 661.47,449.71 685.55,466.93 " fill="none" id="DescriptorSetLayout&lt;-DescriptorSet" style="stroke: #000000; stroke-width: 1.0;"/><polygon fill="#000000" points="600.65,406.21,605.6402,414.701,604.7158,409.1202,610.2966,408.1958,600.65,406.21" style="stroke: #000000; stroke-width: 1.0;"/><!--MD5=[8f0c79ef6bb73fab9785932495789586]
reverse link DescriptorSetLayout to PipelineLayout--><path d="M566.23,411.49 C567.47,428.96 568.99,450.42 570.15,466.93 " fill="none" id="DescriptorSetLayout&lt;-PipelineLayout" style="stroke: #000000; stroke-width: 1.0;"/><polygon fill="#000000" points="565.86,406.21,562.5133,415.4728,566.2173,411.1972,570.4928,414.9012,565.86,406.21" style="stroke: #000000; stroke-width: 1.0;"/><!--MD5=[27cc0bccccfed3058d66055fcc0a1ef1]
reverse link PipelineLayout to GraphicsPipeline--><path d="M572,526.49 C572,543.96 572,565.42 572,581.93 " fill="none" id="PipelineLayout&lt;-GraphicsPipeline" style="stroke: #000000; stroke-width: 1.0;"/><polygon fill="#000000" points="572,521.21,568,530.21,572,526.21,576,530.21,572,521.21" style="stroke: #000000; stroke-width: 1.0;"/><!--MD5=[a938b21e95382d85ef65afae3004fc90]
reverse link DescriptorPool to DescriptorSet--><path d="M728.49,411.49 C727.1,428.96 725.39,450.42 724.08,466.93 " fill="none" id="DescriptorPool&lt;-DescriptorSet" style="stroke: #000000; stroke-width: 1.0;"/><polygon fill="#000000" points="728.91,406.21,724.2031,414.8613,728.5101,411.194,732.1774,415.5011,728.91,406.21" style="stroke: #000000; stroke-width: 1.0;"/><!--MD5=[80a5fd4f963b44d793935da77e6b21a8]
@startuml object_dependency_graph

skinparam {
	defaultFontName Fira Sans

	ArrowColor #black
	ComponentBorderColor #333
	ComponentBorderThickness 1
}


component [Instance] <<Vrc>> #66FF98
component [Window] #66FF98

component [PhysicalDevice] #66FF98
component [Surface] #66FF98

component [Device] <<Vrc>> #66FF98

component [Queue] <<Vrc>> #66FF98
component [Swapchain] <<Vrc>> #66FF98
component [SwapchainImage] <<Vrc>> #66FF98

component [DeviceMemory] #66FF98

component [Image] <<Vrc>> #66FF98
component [Buffer] <<Vrc>> #66FF98
component [Sampler] <<Vrc>> #66FF98

component [ImageView] <<Vrc>> #66FF98
component [BufferView] <<Vrc>> #66FF98

component [CommandPool] <<Vrc>> #66FF98
component [CommandBuffer] <<Vrc>> #66CDFF

component [RenderPass] <<Vrc>> #66FF98
component [FrameBuffer] <<Vrc>> #66FF98
component [GraphicsPipeline] <<Vrc>> #66CDFF

component [DescriptorSetLayout] <<Vrc>> #66FF98
component [PipelineLayout] <<Vrc>> #66FF98

component [DescriptorPool] <<Vrc>> #66FF98
component [DescriptorSet] <<Vrc>> #66FF98

component [Semaphore] <<Vrc>> #66FF98
component [Fence] <<Vrc>> #66FF98

[Instance] <- - [PhysicalDevice]
[Instance] <- - [Surface]

[Window] <- - [Surface]
[PhysicalDevice] <- - [Device]
[Surface] <- - [Swapchain] : <<Vrc>>

[Device] <- [Queue]
[Swapchain] -> [Device]
[DeviceMemory] -> [Device]
[Device] <- - [Image]
[Device] <- - [Buffer]
[Device] <- - [Sampler]
[Device] <- - [CommandPool]
[Device] <- - [RenderPass]
[Device] <- - [DescriptorSetLayout]
[Device] <- - [DescriptorPool]
[Device] <- [Semaphore]
[Device] <- [Fence]

[Swapchain] <- - [SwapchainImage]

[DeviceMemory] ..> [Image]
[DeviceMemory] ..> [Buffer]

[SwapchainImage] <. [Image]
[Image] <- - [ImageView]
[Buffer] <- - [BufferView]

[CommandPool] <- - [CommandBuffer]

[RenderPass] <.. [FrameBuffer]
[DescriptorSetLayout] <- - [DescriptorSet]
[DescriptorSetLayout] <- - [PipelineLayout]
[PipelineLayout] <- - [GraphicsPipeline]
[DescriptorPool] <- - [DescriptorSet]

@enduml

PlantUML version 1.2020.05(Thu Mar 19 22:17:32 CET 2020)
(MIT source distribution)
Java Runtime: OpenJDK Runtime Environment
JVM: OpenJDK 64-Bit Server VM
Java Version: 13.0.1+9
Operating System: Mac OS X
Default Encoding: UTF-8
Language: en
Country: CZ
--></g></svg>